<svg id="Artwork" xmlns="http://www.w3.org/2000/svg" viewBox="0 0 46 46"><defs><style>.cls-1{fill:#0097ba;}.cls-2{fill:#f4f4f4;}</style></defs><title>CMMController_Info</title><circle class="cls-1" cx="23" cy="23" r="23"/><rect class="cls-2" x="14.667" y="23.667" width="8.667" height="8.667"/><path class="cls-2" d="M24.547,41V36.667H26.8a.867.867,0,0,0,.867-.867V33.026H32V31.293H27.667V28.867H32V27.133H27.667V24.707H32V22.973H27.667V20.2a.867.867,0,0,0-.867-.867H24.547V15H22.813v4.333H19.867V15H18.133v4.333H15.187V15H13.453v4.333H11.2a.867.867,0,0,0-.867.867v2.773H6v1.734h4.333v2.426H6v1.734h4.333v2.426H6v1.733h4.333V35.8a.867.867,0,0,0,.867.867h2.253V41h1.734V36.667h2.946V41h1.734V36.667h2.946V41Zm-9.88-6.933a1.736,1.736,0,0,1-1.734-1.734V23.667a1.736,1.736,0,0,1,1.734-1.734h8.666a1.736,1.736,0,0,1,1.734,1.734v8.666a1.736,1.736,0,0,1-1.734,1.734Z"/><path class="cls-2" d="M31.5,6.4A7.5,7.5,0,0,0,24,13.9c0,.034,0,.066,0,.1h1.542v4.333H26.8A1.87,1.87,0,0,1,28.667,20.2v.642A7.5,7.5,0,1,0,31.5,6.4Zm2.064,11.765c-.12.082-1.327.914-1.777,1.207s-2.226,1.312-1.957-.652c.683-3.967,2.017-6.321.428-5.3-.413.254-.66.412-.81.509s-.127.083-.247-.12-.165-.2-.015-.314c0,0,2.436-1.943,3.329-2.017.869-.076.645.974.562,1.454-.5,2.017-1.417,4.949-1.275,5.376.12.427,1.013-.247,1.5-.57,0,0,.09-.09.18.038C33.609,17.962,33.729,18.052,33.564,18.165Zm-.779-8.016a1.125,1.125,0,1,1,1.124-1.124A1.125,1.125,0,0,1,32.785,10.149Z"/></svg>