<svg id="Artwork" xmlns="http://www.w3.org/2000/svg" viewBox="0 0 46 46"><defs><style>.cls-1{fill:#f4f4f4;}.cls-2{fill:none;}</style></defs><title>CMMControllerAxist_Settings</title><path class="cls-1" d="M10.255,37.128H30.7V40.51l4.926-4.926L30.7,30.657v3.382H15.529L25.265,24.3l2.391,2.39V19.727H20.689l2.391,2.392-9.736,9.735V16.683h3.382L11.8,11.757,6.874,16.683h3.381Z"/><path class="cls-1" d="M34.5,13.793A2.092,2.092,0,1,1,36.592,11.7,2.092,2.092,0,0,1,34.5,13.793m6-1.355v-1.5l-1.785-.292a4.356,4.356,0,0,0-.491-1.183l1.041-1.484L38.2,6.919,36.74,7.972a4.275,4.275,0,0,0-1.191-.5L35.239,5.7h-1.5l-.289,1.771a4.335,4.335,0,0,0-1.194.49L30.8,6.919l-1.061,1.06,1.027,1.468a4.384,4.384,0,0,0-.5,1.2l-1.762.293v1.5l1.761.313a4.333,4.333,0,0,0,.5,1.2L29.718,15.4l1.062,1.062,1.47-1.03a4.329,4.329,0,0,0,1.194.493l.294,1.771h1.5l.315-1.776a4.378,4.378,0,0,0,1.188-.5l1.479,1.04L39.282,15.4l-1.057-1.467a4.285,4.285,0,0,0,.49-1.186Z"/><rect class="cls-2" width="46" height="46"/></svg>