<svg id="Artwork" xmlns="http://www.w3.org/2000/svg" viewBox="0 0 46 46"><defs><style>.cls-1{fill:#d8292f;}.cls-2{fill:#f4f4f4;}</style></defs><title>CMMController_Critical</title><circle class="cls-1" cx="23" cy="23" r="23"/><rect class="cls-2" x="18" y="18" width="10" height="10"/><path class="cls-2" d="M38,19.2v-2H33V14a1,1,0,0,0-1-1H29.4V8h-2v5H24V8H22v5H18.6V8h-2v5H14a1,1,0,0,0-1,1v3.2H8v2h5V22H8v2h5v2.8H8v2h5V32a1,1,0,0,0,1,1h2.6v5h2V33H22v5h2V33h3.4v5h2V33H32a1,1,0,0,0,1-1V28.8h5v-2H33V24h5V22H33V19.2ZM30,28a2,2,0,0,1-2,2H18a2,2,0,0,1-2-2V18a2,2,0,0,1,2-2H28a2,2,0,0,1,2,2Z"/></svg>