<svg id="Artwork" xmlns="http://www.w3.org/2000/svg" viewBox="0 0 46 46"><defs><style>.cls-1{fill:#0097ba;}.cls-2{fill:#f4f4f4;}</style></defs><title>CMMControllerAxist_Info</title><circle class="cls-1" cx="23" cy="23" r="23"/><polygon class="cls-2" points="34.626 34.584 29.7 29.657 29.7 33.039 14.529 33.039 24.265 23.304 26.656 25.694 26.656 18.727 19.689 18.727 22.08 21.119 12.344 30.854 12.344 15.683 15.726 15.683 10.8 10.757 5.874 15.683 9.255 15.683 9.255 36.128 29.7 36.128 29.7 39.51 34.626 34.584"/><path class="cls-2" d="M32.5,8.2a7.482,7.482,0,0,0-7.215,9.527h2.371V21.42A7.5,7.5,0,1,0,32.5,8.2Zm2.064,11.765c-.12.082-1.327.914-1.777,1.207s-2.226,1.312-1.957-.652c.683-3.967,2.017-6.321.428-5.3-.413.254-.66.412-.81.509s-.127.083-.247-.12-.165-.2-.015-.314c0,0,2.436-1.943,3.329-2.017.869-.076.645.974.562,1.454-.5,2.017-1.417,4.949-1.275,5.376.12.427,1.013-.247,1.5-.57,0,0,.09-.09.18.038C34.609,19.762,34.729,19.852,34.564,19.965Zm-.779-8.016a1.125,1.125,0,1,1,1.124-1.124A1.125,1.125,0,0,1,33.785,11.949Z"/></svg>