<svg id="Artwork" xmlns="http://www.w3.org/2000/svg" viewBox="0 0 46 46"><defs><style>.cls-1{fill:#f4f4f4;}.cls-2{fill:none;}</style></defs><title>CMMController_Settings</title><rect class="cls-1" x="14.333" y="21.333" width="9.333" height="9.334"/><path class="cls-1" d="M33,22.454V20.587H28.333V17.6a.933.933,0,0,0-.933-.933H24.973V12H23.107v4.667H19.933V12H18.067v4.667H14.893V12H13.027v4.667H10.6a.933.933,0,0,0-.933.933v2.987H5v1.867H9.667v2.613H5v1.866H9.667v2.613H5v1.867H9.667V34.4a.933.933,0,0,0,.933.933h2.427V40h1.866V35.333h3.174V40h1.866V35.333h3.174V40h1.866V35.333H27.4a.933.933,0,0,0,.933-.933V31.413H33V29.546H28.333V26.933H33V25.067H28.333V22.454Zm-7.467,8.213a1.868,1.868,0,0,1-1.866,1.866H14.333a1.868,1.868,0,0,1-1.866-1.866V21.333a1.868,1.868,0,0,1,1.866-1.866h9.334a1.868,1.868,0,0,1,1.866,1.866Z"/><path class="cls-1" d="M36,12.493A2.092,2.092,0,1,1,38.092,10.4,2.092,2.092,0,0,1,36,12.493m6-1.355v-1.5l-1.785-.292a4.356,4.356,0,0,0-.491-1.183l1.041-1.484L39.7,5.619,38.24,6.672a4.275,4.275,0,0,0-1.191-.5L36.739,4.4h-1.5l-.289,1.771a4.335,4.335,0,0,0-1.194.49L32.3,5.619l-1.061,1.06,1.027,1.468a4.384,4.384,0,0,0-.5,1.2L30,9.638v1.5l1.761.313a4.333,4.333,0,0,0,.5,1.2L31.218,14.1l1.062,1.062,1.47-1.03a4.329,4.329,0,0,0,1.194.493l.294,1.771h1.5l.315-1.776a4.378,4.378,0,0,0,1.188-.5l1.479,1.04L40.782,14.1l-1.057-1.467a4.285,4.285,0,0,0,.49-1.186Z"/><rect class="cls-2" width="46" height="46"/></svg>