<svg id="Artwork" xmlns="http://www.w3.org/2000/svg" viewBox="0 0 46 46"><defs><style>.cls-1{fill:#0097ba;}.cls-2{fill:#f4f4f4;}</style></defs><title>Environmental_Info</title><circle class="cls-1" cx="23" cy="23" r="23"/><path class="cls-2" d="M29.5,5A7.5,7.5,0,0,0,22,12.5c0,.062.008.122.009.184h.8v2.533h1.43a2.9,2.9,0,0,1,2.9,2.894v1.5A7.5,7.5,0,1,0,29.5,5Zm2.064,11.765c-.12.082-1.327.914-1.777,1.207s-2.226,1.312-1.957-.652c.683-3.967,2.017-6.321.428-5.3-.413.255-.66.413-.81.51s-.127.083-.247-.12-.165-.2-.015-.315c0,0,2.436-1.942,3.329-2.016.869-.075.645.974.562,1.454-.5,2.017-1.417,4.949-1.275,5.376.12.428,1.013-.247,1.5-.57,0,0,.09-.09.18.038C31.609,16.562,31.729,16.652,31.564,16.765Zm-.779-8.016a1.125,1.125,0,1,1,1.124-1.124A1.125,1.125,0,0,1,30.785,8.749Z"/><path class="cls-2" d="M18.474,44V39.263h.833V36.421h4.93a1.9,1.9,0,0,0,1.9-1.895V18.111a1.9,1.9,0,0,0-1.9-1.894h-2.43V13.684h-.833V8H20.14v5.684h-.833v2.533H16.276V13.684h-.833V8H14.61v5.684h-.834v2.533H11.921a1.9,1.9,0,0,0-1.895,1.894V34.526a1.9,1.9,0,0,0,1.895,1.895h4.886v2.842h.833V44Z"/><rect class="cls-2" x="28.026" y="21.263" width="5.684" height="1.167"/><rect class="cls-2" x="28.026" y="25.053" width="5.684" height="1.167"/><rect class="cls-2" x="28.026" y="28.842" width="5.684" height="1.167"/><rect class="cls-2" x="28.026" y="32.632" width="5.684" height="1.167"/></svg>