<svg id="Artwork" xmlns="http://www.w3.org/2000/svg" viewBox="0 0 46 46"><defs><style>.cls-1{fill:#f4f4f4;}.cls-2{fill:none;}</style></defs><title>Environmental_Settings</title><path class="cls-1" d="M22.4,14.846H19.938V12.28h-.845V6.52h-.844v5.76H17.4v2.566H14.333V12.28h-.844V6.52h-.845v5.76H11.8v2.566H9.92A1.92,1.92,0,0,0,8,16.766V33.4a1.92,1.92,0,0,0,1.92,1.92h4.951V38.2h.845V43h.844V38.2H17.4V35.32h5a1.92,1.92,0,0,0,1.92-1.92V16.766A1.92,1.92,0,0,0,22.4,14.846Z"/><rect class="cls-1" x="26.24" y="19.96" width="5.76" height="1.183"/><rect class="cls-1" x="26.24" y="23.8" width="5.76" height="1.183"/><rect class="cls-1" x="26.24" y="27.64" width="5.76" height="1.183"/><rect class="cls-1" x="26.24" y="31.48" width="5.76" height="1.183"/><path class="cls-1" d="M34.5,11.593A2.092,2.092,0,1,1,36.592,9.5,2.092,2.092,0,0,1,34.5,11.593m6-1.355v-1.5l-1.785-.292a4.356,4.356,0,0,0-.491-1.183l1.041-1.484L38.2,4.719,36.74,5.772a4.275,4.275,0,0,0-1.191-.5L35.239,3.5h-1.5l-.289,1.771a4.335,4.335,0,0,0-1.194.49L30.8,4.719l-1.061,1.06,1.027,1.468a4.384,4.384,0,0,0-.5,1.2L28.5,8.738v1.5l1.761.313a4.333,4.333,0,0,0,.5,1.2L29.718,13.2l1.062,1.062,1.47-1.03a4.329,4.329,0,0,0,1.194.493l.294,1.771h1.5l.315-1.776a4.378,4.378,0,0,0,1.188-.5l1.479,1.04L39.282,13.2l-1.057-1.467a4.285,4.285,0,0,0,.49-1.186Z"/><rect class="cls-2" width="46" height="46"/></svg>