<svg id="Artwork" xmlns="http://www.w3.org/2000/svg" viewBox="0 0 46 46"><defs><style>.cls-1{fill:#d8292f;}.cls-2{fill:#f4f4f4;}</style></defs><title>Environmental_Critical</title><circle class="cls-1" cx="23" cy="23" r="23"/><path class="cls-2" d="M28,12.673H25.435V10h-.879V4h-.88v6H22.8v2.673H19.6V10h-.879V4h-.88v6h-.88v2.673H15a2,2,0,0,0-2,2V32a2,2,0,0,0,2,2h5.157v3h.88v5h.88V37H22.8V34H28a2,2,0,0,0,2-2V14.673A2,2,0,0,0,28,12.673Z"/><rect class="cls-2" x="32" y="18" width="6" height="1.232"/><rect class="cls-2" x="32" y="22" width="6" height="1.232"/><rect class="cls-2" x="32" y="26" width="6" height="1.232"/><rect class="cls-2" x="32" y="30" width="6" height="1.232"/></svg>