<svg id="Artwork" xmlns="http://www.w3.org/2000/svg" viewBox="0 0 46 46"><defs><style>.cls-1{fill:#f4c400;}.cls-2{fill:#f4f4f4;}</style></defs><title>HMISystem_Portable _Warning</title><circle class="cls-1" cx="23" cy="23" r="23"/><path class="cls-2" d="M27.47,6.808C24.924,10.189,12.758,27.3,12.758,27.3l3.866.692s5.682-9.448,10.045-16.6Z"/><polygon class="cls-2" points="11.386 37.704 18.66 37.704 16.582 29.06 12.425 29.06 10.346 37.704 11.386 37.704"/><polygon class="cls-2" points="27.324 23.316 31.31 5.735 28.759 5.239 25.629 23.176 27.324 23.316"/><polygon class="cls-2" points="28.228 29.224 30.125 31.938 31.585 30.918 29.717 28.244 28.228 29.224"/><polygon class="cls-2" points="24.909 25.182 25.539 24.172 28.599 24.425 31.172 26.087 25.427 29.872 24.164 28.784 26.036 27.284 24.909 25.182"/></svg>