<svg id="Artwork" xmlns="http://www.w3.org/2000/svg" viewBox="0 0 46 46"><defs><style>.cls-1{fill:#f4f4f4;}.cls-2{fill:none;}</style></defs><title>HMISystem_Settings</title><rect class="cls-1" x="6.438" y="31.862" width="25.123" height="1.535"/><polygon class="cls-1" points="31.562 30.536 26.677 27.047 19 27.047 11.323 27.047 6.438 30.536 19 30.536 31.562 30.536"/><polygon class="cls-1" points="7.834 39.7 7.834 41.4 9.23 41.4 9.23 39.7 28.77 39.7 28.77 41.4 30.166 41.4 30.166 39.7 30.166 34.6 7.834 34.6 7.834 39.7"/><path class="cls-1" d="M9.23,17.974l7.676.055v.643l.7,3.49h.7v2.093h1.4V22.162h.7l.7-3.49v-.613l7.676.055v8.235h1.047V18.027a2.95,2.95,0,0,0-3.2-2.7H21.094V9.6H16.906v5.723H11.382a2.95,2.95,0,0,0-3.2,2.7v8.322H9.23Z"/><path class="cls-1" d="M35.5,11.193A2.092,2.092,0,1,1,37.592,9.1,2.092,2.092,0,0,1,35.5,11.193m6-1.355v-1.5l-1.785-.292a4.356,4.356,0,0,0-.491-1.183l1.041-1.484L39.2,4.319,37.74,5.372a4.275,4.275,0,0,0-1.191-.5L36.239,3.1h-1.5l-.289,1.771a4.335,4.335,0,0,0-1.194.49L31.8,4.319l-1.061,1.06,1.027,1.468a4.384,4.384,0,0,0-.5,1.2L29.5,8.338v1.5l1.761.313a4.333,4.333,0,0,0,.5,1.2L30.718,12.8l1.062,1.062,1.47-1.03a4.329,4.329,0,0,0,1.194.493l.294,1.771h1.5l.315-1.776a4.378,4.378,0,0,0,1.188-.5l1.479,1.04L40.282,12.8l-1.057-1.467a4.285,4.285,0,0,0,.49-1.186Z"/><rect class="cls-2" width="46" height="46"/></svg>