<svg id="Artwork" xmlns="http://www.w3.org/2000/svg" viewBox="0 0 46 46"><defs><style>.cls-1{fill:#0097ba;}.cls-2{fill:#f4f4f4;}</style></defs><title>HMISystem_Portable _Info</title><circle class="cls-1" cx="23" cy="23" r="23"/><path class="cls-2" d="M31.623,8.109a7.461,7.461,0,0,0-3.46.849L25.634,20.111a7.5,7.5,0,1,0,5.989-12Zm2.064,11.764c-.12.083-1.327.915-1.777,1.208s-2.227,1.312-1.957-.653c.682-3.966,2.017-6.32.427-5.3-.412.255-.659.413-.809.51s-.128.083-.248-.12-.165-.2-.015-.315c0,0,2.437-1.942,3.329-2.017.87-.075.645.975.563,1.455-.5,2.017-1.417,4.949-1.275,5.376.12.427,1.012-.248,1.5-.57,0,0,.09-.09.18.038C33.732,19.671,33.852,19.761,33.687,19.873Zm-.78-8.015a1.125,1.125,0,1,1,1.125-1.124A1.124,1.124,0,0,1,32.907,11.858Z"/><path class="cls-2" d="M24.284,6.239c-2.457,3.262-14.2,19.774-14.2,19.774l3.73.668s5.483-9.117,9.693-16.014Z"/><polygon class="cls-2" points="8.764 36.05 15.784 36.05 13.778 27.709 9.767 27.709 7.761 36.05 8.764 36.05"/><polygon class="cls-2" points="24.143 22.167 27.989 5.204 25.527 4.725 22.507 22.032 24.143 22.167"/><polygon class="cls-2" points="25.015 27.868 26.845 30.487 28.254 29.502 26.451 26.922 25.015 27.868"/><polygon class="cls-2" points="21.813 23.967 22.42 22.993 25.374 23.237 27.856 24.841 22.313 28.493 21.094 27.443 22.901 25.996 21.813 23.967"/></svg>