<svg id="Artwork" xmlns="http://www.w3.org/2000/svg" viewBox="0 0 46 46"><defs><style>.cls-1{fill:#f4f4f4;}.cls-2{fill:none;}</style></defs><title>HMISystem_Portable _Settings</title><path class="cls-1" d="M35.5,11.193A2.092,2.092,0,1,1,37.592,9.1,2.092,2.092,0,0,1,35.5,11.193m6-1.355v-1.5l-1.785-.292a4.356,4.356,0,0,0-.491-1.183l1.041-1.484L39.2,4.319,37.74,5.372a4.275,4.275,0,0,0-1.191-.5L36.239,3.1h-1.5l-.289,1.771a4.335,4.335,0,0,0-1.194.49L31.8,4.319l-1.061,1.06,1.027,1.468a4.384,4.384,0,0,0-.5,1.2L29.5,8.338v1.5l1.761.313a4.333,4.333,0,0,0,.5,1.2L30.718,12.8l1.062,1.062,1.47-1.03a4.329,4.329,0,0,0,1.194.493l.294,1.771h1.5l.315-1.776a4.378,4.378,0,0,0,1.188-.5l1.479,1.04L40.282,12.8l-1.057-1.467a4.285,4.285,0,0,0,.49-1.186Z"/><rect class="cls-2" width="46" height="46"/><path class="cls-1" d="M22.848,11.337C20.3,14.717,8.135,31.831,8.135,31.831L12,32.522s5.683-9.448,10.046-16.6Z"/><polygon class="cls-1" points="6.763 42.233 14.038 42.233 11.959 33.588 7.802 33.588 5.724 42.233 6.763 42.233"/><polygon class="cls-1" points="22.702 27.845 26.688 10.264 24.137 9.767 21.007 27.705 22.702 27.845"/><polygon class="cls-1" points="23.606 33.753 25.502 36.467 26.963 35.446 25.094 32.772 23.606 33.753"/><polygon class="cls-1" points="20.287 29.71 20.916 28.701 23.977 28.953 26.55 30.615 20.805 34.401 19.542 33.312 21.414 31.812 20.287 29.71"/></svg>