<svg id="Artwork" xmlns="http://www.w3.org/2000/svg" viewBox="0 0 46 46"><defs><style>.cls-1{fill:#d8292f;}.cls-2{fill:#f4f4f4;}</style></defs><title>HMISystem_Tracker_Critical</title><circle class="cls-1" cx="23" cy="23" r="23"/><path class="cls-2" d="M28.844,35.381h4.483c-.007-.739-.019-1.771-.031-2.7-.012-1.2-.028-2.233-.028-2.233s-.019-.975-.046-2.111-.051-2.436-.063-3.086c-.019-.929-.074-1.872-.136-2.743s-.14-1.655-.2-2.264c-.066-.668-.21-1.665-.374-2.6-.054-.293-.1-.582-.159-.848-.222-1.119-.441-1.908-.441-1.908s-.132-.632-.432-1.647a33.608,33.608,0,0,0-1.442-3.947s-.167-.428-.382-.911A9.607,9.607,0,0,0,28.955,7.1a.762.762,0,0,0-.136-.144.991.991,0,0,0-.156-.113.242.242,0,0,0-.074-.032.373.373,0,0,0-.082-.018,2.512,2.512,0,0,0-.5.018H18.028a1.331,1.331,0,0,0-.181-.018.367.367,0,0,0-.081.018.222.222,0,0,0-.074.032.947.947,0,0,0-.156.113A.772.772,0,0,0,17.4,7.1a9.86,9.86,0,0,0-.635,1.272c-.214.483-.382.911-.382.911a33.576,33.576,0,0,0-1.441,3.947c-.3,1.015-.433,1.647-.433,1.647s-.218.789-.44,1.908c-.055.266-.105.555-.16.848-.164.938-.308,1.935-.374,2.6-.062.609-.136,1.4-.2,2.264s-.116,1.814-.136,2.743c-.012.65-.039,1.949-.062,3.086s-.047,2.111-.047,2.111-.016,1.033-.027,2.233c-.012.934-.024,1.966-.031,2.7H23c.01-.369-.01-.761-.01-.761l-.082-4.344-.078-2.206-.066-1.985-.016-.4-.241-4.15-.094-.9L22.133,18l-.007-.054-.519-2.914-.5-2.594-.363-1.3-.3-1.037-.257-.839-.179-.469-.779-1.267h7.8a10.982,10.982,0,0,0-.683,1.267l-.179.469-.257.839-.3,1.037-.362,1.3-.146.755h2.061l.576.539a11.677,11.677,0,0,1,3.368,8.464,12.2,12.2,0,0,1-2.261,7.2Z"/><path class="cls-2" d="M26.372,15.19h-2.7l.427,2.4.006.033.005.034.007.054.006.037,0,.037.276,2.641.094.9.005.046,0,.045.244,4.189.016.412.035,1.063h3.148a10.53,10.53,0,0,0,1.162-4.888A9.613,9.613,0,0,0,26.372,15.19Zm1.471,6.495a.876.876,0,0,1-.3.162,1.014,1.014,0,0,1-.4.071c-.751,0-1.543-.8-1.756-1.969a2.012,2.012,0,0,1,1.076-2.274.688.688,0,0,1,.243-.04.935.935,0,0,1,.488.162,3.076,3.076,0,0,1,1.147,2.355A1.973,1.973,0,0,1,27.843,21.685Z"/><path class="cls-2" d="M24.864,29.081l.041,1.157.081,4.315c.006.124.021.505.01.886l-.056,1.942H18.667V39.42h8.177V29.081Z"/></svg>