<svg id="Artwork" xmlns="http://www.w3.org/2000/svg" viewBox="0 0 46 46"><defs><style>.cls-1{fill:#f4c400;}.cls-2{fill:#f4f4f4;}</style></defs><title>HMISystem_Warning</title><circle class="cls-1" cx="23" cy="23" r="23"/><rect class="cls-2" x="10.438" y="27.862" width="25.123" height="1.535"/><polygon class="cls-2" points="35.562 26.536 30.677 23.047 23 23.047 15.323 23.047 10.438 26.536 23 26.536 35.562 26.536"/><polygon class="cls-2" points="11.834 35.7 11.834 37.4 13.23 37.4 13.23 35.7 32.77 35.7 32.77 37.4 34.166 37.4 34.166 35.7 34.166 30.6 11.834 30.6 11.834 35.7"/><path class="cls-2" d="M13.23,13.974l7.676.055v.643l.7,3.49h.7v2.093h1.4V18.162h.7l.7-3.49v-.613l7.676.055v8.235h1.047V14.027a2.95,2.95,0,0,0-3.2-2.7H25.094V5.6H20.906v5.723H15.382a2.95,2.95,0,0,0-3.2,2.7v8.322H13.23Z"/></svg>