<svg id="Artwork" xmlns="http://www.w3.org/2000/svg" viewBox="0 0 46 46"><defs><style>.cls-1{fill:#0097ba;}.cls-2{fill:#f4f4f4;}</style></defs><title>HMISystem_Tracker_Info</title><circle class="cls-1" cx="23" cy="23" r="23"/><path class="cls-2" d="M30.223,6.659a7.5,7.5,0,0,0-6.628,4c.126.233.271.537.438.92.192.431.343.819.343.819a29.219,29.219,0,0,1,1.268,3.475c.26.878.38,1.441.391,1.491,0,0,.191.693.382,1.656.033.163.139.741.139.741.061.347.116.7.167,1.034a7.5,7.5,0,1,0,3.5-14.131Zm2.065,11.765c-.12.083-1.327.915-1.777,1.207s-2.227,1.312-1.957-.652c.682-3.967,2.017-6.321.427-5.3-.412.255-.66.412-.81.51s-.127.082-.247-.12-.165-.2-.015-.315c0,0,2.437-1.942,3.329-2.017.87-.075.645.975.562,1.454-.5,2.018-1.417,4.949-1.274,5.377.12.427,1.012-.248,1.5-.57,0,0,.09-.09.18.037C32.333,18.222,32.453,18.312,32.288,18.424Zm-.78-8.015a1.125,1.125,0,1,1,1.125-1.125A1.125,1.125,0,0,1,31.508,10.409Z"/><path class="cls-2" d="M22.475,35.2H26.33c-.006-.635-.016-1.523-.026-2.326-.01-1.032-.024-1.921-.024-1.921s-.017-.838-.04-1.815-.044-2.1-.054-2.654c-.016-.8-.063-1.61-.117-2.359s-.121-1.424-.174-1.948c-.057-.574-.181-1.431-.322-2.238-.047-.253-.09-.5-.137-.73-.191-.962-.379-1.641-.379-1.641s-.114-.543-.372-1.416a28.815,28.815,0,0,0-1.24-3.4s-.144-.368-.328-.783a8.23,8.23,0,0,0-.547-1.1.68.68,0,0,0-.117-.124.952.952,0,0,0-.134-.1.228.228,0,0,0-.064-.027.285.285,0,0,0-.07-.015,2.134,2.134,0,0,0-.427.015H13.173a1.246,1.246,0,0,0-.156-.015.285.285,0,0,0-.07.015.228.228,0,0,0-.064.027.952.952,0,0,0-.134.1.68.68,0,0,0-.117.124,8.23,8.23,0,0,0-.547,1.1c-.184.415-.328.783-.328.783a28.815,28.815,0,0,0-1.24,3.4c-.258.873-.372,1.416-.372,1.416s-.188.679-.379,1.641c-.047.229-.09.477-.137.73-.141.807-.265,1.664-.322,2.238-.053.524-.117,1.2-.174,1.948s-.1,1.559-.117,2.359c-.01.558-.034,1.676-.054,2.654s-.04,1.815-.04,1.815-.014.889-.024,1.921c-.01.8-.02,1.691-.026,2.326h8.574c.009-.317-.009-.654-.009-.654l-.07-3.736-.067-1.9-.057-1.707-.014-.345-.207-3.569-.081-.772-.238-2.27L16.7,20.2,16.251,17.7l-.429-2.231-.312-1.121-.261-.892-.221-.722-.154-.4L14.2,11.238h6.713a9.48,9.48,0,0,0-.588,1.088l-.154.4-.221.722-.261.892-.312,1.121-.125.65h1.772l.5.463a10.045,10.045,0,0,1,2.9,7.28,10.5,10.5,0,0,1-1.945,6.191Z"/><path class="cls-2" d="M20.349,17.835H18.023L18.39,19.9l0,.029,0,.029.007.046.005.033,0,.032.238,2.27.081.772,0,.039,0,.04.209,3.6.014.354.031.914H21.7a9.057,9.057,0,0,0,1-4.2A8.269,8.269,0,0,0,20.349,17.835Zm1.265,5.586a.781.781,0,0,1-.262.14.886.886,0,0,1-.34.061c-.646,0-1.327-.69-1.511-1.694a1.732,1.732,0,0,1,.926-1.956.587.587,0,0,1,.209-.034.8.8,0,0,1,.419.139,2.643,2.643,0,0,1,.987,2.026A1.7,1.7,0,0,1,21.614,23.421Z"/><path class="cls-2" d="M19.052,29.782l.035,1,.07,3.711c0,.107.018.434.008.762l-.048,1.67h-5.4v1.754h7.033V29.782Z"/></svg>