<svg id="Artwork" xmlns="http://www.w3.org/2000/svg" viewBox="0 0 46 46"><defs><style>.cls-1{fill:#f4f4f4;}.cls-2{fill:none;}</style></defs><title>HMISystem_Tracker_Settings</title><path class="cls-1" d="M33.841,11.609a2.092,2.092,0,1,1,2.091-2.092,2.092,2.092,0,0,1-2.091,2.092m6-1.355v-1.5l-1.785-.292a4.349,4.349,0,0,0-.491-1.184L38.6,5.8l-1.06-1.059L36.08,5.789a4.262,4.262,0,0,0-1.191-.5l-.31-1.777h-1.5l-.289,1.772a4.333,4.333,0,0,0-1.194.489L30.136,4.736,29.074,5.8,30.1,7.264a4.367,4.367,0,0,0-.5,1.2l-1.762.294v1.5l1.761.313a4.333,4.333,0,0,0,.5,1.2L29.058,13.22l1.062,1.062,1.47-1.03a4.3,4.3,0,0,0,1.194.493l.294,1.771h1.5l.315-1.776a4.332,4.332,0,0,0,1.188-.5l1.479,1.039,1.061-1.062-1.056-1.466a4.333,4.333,0,0,0,.489-1.187Z"/><rect class="cls-2" width="46" height="46"/><path class="cls-1" d="M22.432,36.877h4.483c-.007-.738-.019-1.771-.031-2.705-.012-1.2-.027-2.233-.027-2.233s-.02-.974-.047-2.111-.051-2.436-.062-3.086c-.02-.929-.075-1.872-.137-2.742s-.14-1.656-.2-2.265c-.067-.668-.211-1.664-.375-2.6-.054-.293-.105-.582-.159-.848-.222-1.118-.441-1.908-.441-1.908S25.3,15.745,25,14.73a33.543,33.543,0,0,0-1.442-3.947s-.167-.429-.382-.912A9.67,9.67,0,0,0,22.543,8.6a.794.794,0,0,0-.136-.144,1.141,1.141,0,0,0-.156-.113.27.27,0,0,0-.074-.031.362.362,0,0,0-.082-.018,2.431,2.431,0,0,0-.5.018H11.616a1.331,1.331,0,0,0-.181-.018.367.367,0,0,0-.081.018.246.246,0,0,0-.074.031,1.083,1.083,0,0,0-.156.113.8.8,0,0,0-.137.144,9.927,9.927,0,0,0-.635,1.272c-.214.483-.382.912-.382.912A33.511,33.511,0,0,0,8.529,14.73c-.3,1.015-.433,1.646-.433,1.646s-.218.79-.44,1.908c-.055.266-.1.555-.16.848-.163.939-.308,1.935-.374,2.6-.062.609-.136,1.4-.2,2.265s-.117,1.813-.137,2.742c-.012.65-.039,1.949-.062,3.086s-.047,2.111-.047,2.111-.016,1.033-.027,2.233c-.012.934-.024,1.967-.031,2.705h9.969c.011-.369-.01-.761-.01-.761l-.082-4.344-.078-2.206-.066-1.985-.016-.4-.241-4.15-.094-.9-.276-2.639-.008-.054L15.2,16.525l-.5-2.594-.363-1.3-.3-1.038-.258-.839-.179-.469-.779-1.266H20.62a10.831,10.831,0,0,0-.684,1.266l-.179.469-.257.839-.3,1.038-.362,1.3-.146.756h2.061l.576.538a11.679,11.679,0,0,1,3.368,8.464,12.2,12.2,0,0,1-2.261,7.2Z"/><path class="cls-1" d="M19.96,16.687h-2.7l.427,2.4.006.033,0,.034.007.054.006.037,0,.038.276,2.64.094.9,0,.045,0,.046.244,4.189.016.412.035,1.062h3.149a10.542,10.542,0,0,0,1.161-4.888A9.609,9.609,0,0,0,19.96,16.687Zm1.471,6.494a.9.9,0,0,1-.3.163,1.032,1.032,0,0,1-.4.071c-.751,0-1.543-.8-1.756-1.97a2.01,2.01,0,0,1,1.076-2.273.668.668,0,0,1,.243-.041.928.928,0,0,1,.488.163,3.071,3.071,0,0,1,1.147,2.355A1.97,1.97,0,0,1,21.431,23.181Z"/><path class="cls-1" d="M18.452,30.577l.041,1.157.081,4.315c.006.124.021.505.01.886l-.056,1.942H12.255v2.039h8.177V30.577Z"/></svg>