<svg id="Artwork" xmlns="http://www.w3.org/2000/svg" viewBox="0 0 46 46"><defs><style>.cls-1{fill:#0097ba;}.cls-2{fill:#f4f4f4;}</style></defs><title>HMISystem_Info</title><circle class="cls-1" cx="23" cy="23" r="23"/><rect class="cls-2" x="7.299" y="29.602" width="23.701" height="1.448"/><polygon class="cls-2" points="19.149 25.059 11.907 25.059 7.299 28.351 19.149 28.351 31 28.351 26.391 25.059 19.149 25.059"/><polygon class="cls-2" points="29.683 38.6 29.683 36.996 29.683 32.185 8.615 32.185 8.615 36.996 8.615 38.6 9.932 38.6 9.932 36.996 28.367 36.996 28.367 38.6 29.683 38.6"/><path class="cls-2" d="M29.354,24.4V16.55A2.783,2.783,0,0,0,26.336,14H21.124V8.6h-3.95V14H11.962A2.783,2.783,0,0,0,8.945,16.55V24.4h.987V16.5l7.242.052v.607l.659,3.292h.658v1.975h1.317V20.451h.658l.658-3.292V16.58l7.243.052V24.4Z"/><path class="cls-2" d="M32.5,6.6A7.5,7.5,0,0,0,25.09,13h1.246a3.765,3.765,0,0,1,4.018,3.551v4.735A7.5,7.5,0,1,0,32.5,6.6Zm2.064,11.765c-.12.082-1.327.914-1.777,1.207s-2.226,1.312-1.957-.652c.683-3.967,2.017-6.321.428-5.3-.413.254-.66.412-.81.509s-.127.083-.247-.12-.165-.2-.015-.314c0,0,2.436-1.943,3.329-2.017.869-.076.645.974.562,1.454-.5,2.017-1.417,4.949-1.275,5.376.12.427,1.013-.247,1.5-.57,0,0,.09-.09.18.038C34.609,18.162,34.729,18.252,34.564,18.365Zm-.779-8.016a1.125,1.125,0,1,1,1.124-1.124A1.125,1.125,0,0,1,33.785,10.349Z"/><path class="cls-2" d="M27.367,19.558V17.625l-1.491-.011A7.513,7.513,0,0,0,27.367,19.558Z"/></svg>