<svg id="Artwork" xmlns="http://www.w3.org/2000/svg" viewBox="0 0 46 46"><defs><style>.cls-1{fill:#f4f4f4;}.cls-2{fill:none;}</style></defs><title>MeasurementSW_Settings</title><path class="cls-1" d="M33.7,35.212a1.8,1.8,0,0,0,1.793-1.793V16.593A1.8,1.8,0,0,0,33.7,14.8H6.939a1.8,1.8,0,0,0-1.793,1.793V33.419a1.8,1.8,0,0,0,1.793,1.793H17.227l-1.158,3.862H13.7a.553.553,0,0,0-.552.551v1.1a.553.553,0,0,0,.552.551h13.24a.554.554,0,0,0,.552-.551v-1.1a.554.554,0,0,0-.552-.551H24.565l-1.159-3.862ZM7.99,31.65V17.488H32.643V31.65Z"/><path class="cls-1" d="M35.238,15.8h.056c-.026-.05-.051-.1-.081-.148Z"/><path class="cls-1" d="M42,10.538v-1.5l-1.785-.292a4.356,4.356,0,0,0-.491-1.183l1.041-1.484L39.7,5.019,38.24,6.072a4.275,4.275,0,0,0-1.191-.5L36.739,3.8h-1.5l-.289,1.771a4.335,4.335,0,0,0-1.194.49L32.3,5.019l-1.061,1.06,1.027,1.468a4.384,4.384,0,0,0-.5,1.2L30,9.038v1.5l1.761.313a4.333,4.333,0,0,0,.5,1.2L31.218,13.5l.3.3h1.858l.378-.264a4.329,4.329,0,0,0,1.194.493l.015.087a2.787,2.787,0,0,1,1.4,1.684h.38l.315-1.776a4.378,4.378,0,0,0,1.188-.5l1.479,1.04L40.782,13.5l-1.057-1.467a4.285,4.285,0,0,0,.49-1.186Zm-6,1.354A2.092,2.092,0,1,1,38.092,9.8,2.091,2.091,0,0,1,36,11.892Z"/><rect class="cls-2" width="46" height="46"/></svg>