<svg id="Artwork" xmlns="http://www.w3.org/2000/svg" viewBox="0 0 46 46"><defs><style>.cls-1{fill:#9aabaf;}.cls-2{fill:#f4f4f4;}</style></defs><title>MeasurementSW_Disconnect</title><circle class="cls-1" cx="23" cy="23" r="23"/><path class="cls-2" d="M37.109,10.953H8.891A1.9,1.9,0,0,0,7,12.844V30.589A1.9,1.9,0,0,0,8.891,32.48H19.742L18.52,36.553h-2.5a.584.584,0,0,0-.582.582V38.3a.583.583,0,0,0,.582.582H29.982a.583.583,0,0,0,.582-.582V37.135a.584.584,0,0,0-.582-.582h-2.5L26.258,32.48H37.109A1.9,1.9,0,0,0,39,30.589V12.844A1.9,1.9,0,0,0,37.109,10.953ZM36,28.724H10V13.788H36Z"/></svg>