<svg id="Artwork" xmlns="http://www.w3.org/2000/svg" viewBox="0 0 46 46"><defs><style>.cls-1{fill:#0097ba;}.cls-2{fill:#f4f4f4;}</style></defs><title>MeasurementSW_Info</title><circle class="cls-1" cx="23" cy="23" r="23"/><path class="cls-2" d="M30.5,6.4a7.492,7.492,0,0,0-6.962,10.28H28.7a2.3,2.3,0,0,1,.541.071c.657-2.732,1.321-4.169.017-3.333-.413.255-.66.413-.81.51s-.127.083-.247-.12-.165-.2-.015-.315c0,0,2.436-1.942,3.329-2.016.869-.075.645.974.562,1.454-.441,1.77-1.2,4.243-1.282,5.111a2.207,2.207,0,0,1,.13.385c.286.086.97-.42,1.377-.69,0,0,.09-.09.18.038.127.187.247.277.082.39-.1.071-1.028.708-1.564,1.066v2.144A7.5,7.5,0,0,0,30.5,6.4Zm1.285,3.749a1.125,1.125,0,1,1,1.124-1.124A1.125,1.125,0,0,1,31.785,10.149Z"/><path class="cls-2" d="M28.7,32.48a1.3,1.3,0,0,0,1.3-1.3V18.98a1.3,1.3,0,0,0-1.3-1.3H9.3A1.3,1.3,0,0,0,8,18.98v12.2a1.3,1.3,0,0,0,1.3,1.3h7.46l-.84,2.8H14.2a.4.4,0,0,0-.4.4v.8a.4.4,0,0,0,.4.4h9.6a.4.4,0,0,0,.4-.4v-.8a.4.4,0,0,0-.4-.4H22.08l-.84-2.8ZM10.062,29.9V19.629H27.937V29.9Z"/></svg>