<svg id="Artwork" xmlns="http://www.w3.org/2000/svg" viewBox="0 0 46 46"><defs><style>.cls-1{fill:#f4f4f4;}.cls-2{fill:none;}</style></defs><title>OEE_Settings</title><path class="cls-1" d="M19.585,34.445a4.035,4.035,0,0,1-2.012-7.526L30.6,19.38,23.18,32.232a4.032,4.032,0,0,1-3.595,2.213m0-17.439a13.657,13.657,0,0,1,6.667,1.77L23.435,20.4A10.731,10.731,0,0,0,11.992,38h.014a1.337,1.337,0,0,1,0,1.892,1.365,1.365,0,0,1-1.9.013h0a13.412,13.412,0,0,1,9.484-22.9M33,30.421a13.37,13.37,0,0,1-3.931,9.484h0A1.342,1.342,0,0,1,27.178,38h0a10.664,10.664,0,0,0,3.139-7.579,10.843,10.843,0,0,0-.724-3.891l1.623-2.817A13.76,13.76,0,0,1,33,30.421Z"/><path class="cls-1" d="M36,13.093A2.092,2.092,0,1,1,38.092,11,2.092,2.092,0,0,1,36,13.093m6-1.355v-1.5l-1.785-.292a4.356,4.356,0,0,0-.491-1.183l1.041-1.484L39.7,6.219,38.24,7.272a4.275,4.275,0,0,0-1.191-.5L36.739,5h-1.5l-.289,1.771a4.335,4.335,0,0,0-1.194.49L32.3,6.219l-1.061,1.06,1.027,1.468a4.384,4.384,0,0,0-.5,1.2L30,10.238v1.5l1.761.313a4.333,4.333,0,0,0,.5,1.2L31.218,14.7l1.062,1.062,1.47-1.03a4.329,4.329,0,0,0,1.194.493L35.238,17h1.5l.315-1.776a4.378,4.378,0,0,0,1.188-.5l1.479,1.04L40.782,14.7l-1.057-1.467a4.285,4.285,0,0,0,.49-1.186Z"/><rect class="cls-2" width="46" height="46"/></svg>