<svg id="Artwork" xmlns="http://www.w3.org/2000/svg" viewBox="0 0 46 46"><defs><style>.cls-1{fill:#9aabaf;}.cls-2{fill:#f4f4f4;}</style></defs><title>OEE_Disconnect</title><circle class="cls-1" cx="23" cy="23" r="23"/><path class="cls-2" d="M23,27.979a4.16,4.16,0,0,1-2.074-7.759l13.428-7.772L26.706,25.7A4.157,4.157,0,0,1,23,27.979M23,10a14.069,14.069,0,0,1,6.873,1.826l-2.9,1.673a11.063,11.063,0,0,0-11.8,18.145h.014a1.378,1.378,0,0,1,0,1.95,1.408,1.408,0,0,1-1.964.014h0A13.828,13.828,0,0,1,23,10M36.83,23.83a13.79,13.79,0,0,1-4.052,9.778h0a1.391,1.391,0,0,1-1.95-.014,1.376,1.376,0,0,1,0-1.95h0a11,11,0,0,0,3.236-7.814,11.167,11.167,0,0,0-.747-4.011l1.673-2.9A14.179,14.179,0,0,1,36.83,23.83Z"/></svg>