<svg id="Artwork" xmlns="http://www.w3.org/2000/svg" viewBox="0 0 46 46"><defs><style>.cls-1{fill:#0097ba;}.cls-2{fill:#f4f4f4;}</style></defs><title>OEE_Info</title><circle class="cls-1" cx="23" cy="23" r="23"/><path class="cls-2" d="M32.5,8.2A7.5,7.5,0,0,0,25,15.7c0,.146.014.288.022.432l1.415-.819a1.033,1.033,0,0,1,1.413,1.41l-1.7,2.95c.071.113.142.225.219.334l.247-.428a1.032,1.032,0,0,1,.895-.518h.009a1.032,1.032,0,0,1,.895.533,14.008,14.008,0,0,1,1.246,3.045A7.5,7.5,0,1,0,32.5,8.2Zm2.064,11.765c-.12.082-1.327.914-1.777,1.207s-2.226,1.312-1.957-.652c.683-3.967,2.017-6.321.428-5.3-.413.254-.66.412-.81.509s-.127.083-.247-.12-.165-.2-.015-.315c0,0,2.436-1.941,3.329-2.016.869-.075.645.974.562,1.454-.5,2.017-1.417,4.949-1.275,5.376.12.428,1.013-.247,1.5-.57,0,0,.09-.09.18.038C34.609,19.762,34.729,19.852,34.564,19.965Zm-.779-8.016a1.125,1.125,0,1,1,1.124-1.124A1.125,1.125,0,0,1,33.785,11.949Z"/><path class="cls-2" d="M17.071,29.726a3.621,3.621,0,0,1-1.805-6.754l11.689-6.765L20.3,27.739a3.62,3.62,0,0,1-3.227,1.987m0-15.65a12.255,12.255,0,0,1,5.983,1.589l-2.528,1.457A9.63,9.63,0,0,0,10.258,32.916h.012a1.2,1.2,0,0,1,0,1.7,1.224,1.224,0,0,1-1.71.012h0a12.036,12.036,0,0,1,8.511-20.549M29.11,26.114a12,12,0,0,1-3.528,8.511h0a1.2,1.2,0,0,1-1.7-1.709h0a9.572,9.572,0,0,0,2.817-6.8,9.725,9.725,0,0,0-.65-3.491L27.508,20.1A12.336,12.336,0,0,1,29.11,26.114Z"/></svg>