<svg id="Artwork" xmlns="http://www.w3.org/2000/svg" viewBox="0 0 46 46"><defs><style>.cls-1{fill:#0097ba;}.cls-2{fill:#f4f4f4;}</style></defs><title>SensorTemperature_All_Info</title><path class="cls-1" d="M46,23A23,23,0,1,1,23,0,23,23,0,0,1,46,23Z"/><path class="cls-2" d="M23.253,26.747V12.832a3.278,3.278,0,0,0-.059-.59c-.011-.057-.026-.113-.04-.17a3.211,3.211,0,0,0-.124-.4c-.021-.054-.04-.108-.064-.161a3.25,3.25,0,0,0-6.22,1.322V26.747a7.256,7.256,0,1,0,6.507,0Z"/><path class="cls-2" d="M29.5,6.667a7.476,7.476,0,0,0-5.667,2.6,5.221,5.221,0,0,1,1.42,3.568v7.514A7.5,7.5,0,1,0,29.5,6.667Zm2.064,11.764c-.12.083-1.327.915-1.777,1.208s-2.226,1.312-1.957-.653c.683-3.966,2.017-6.321.428-5.3-.413.255-.66.413-.81.51s-.127.083-.247-.12-.165-.2-.015-.315c0,0,2.436-1.942,3.329-2.017.869-.075.645.975.562,1.455-.5,2.017-1.417,4.948-1.275,5.376.12.427,1.013-.248,1.5-.57,0,0,.09-.09.18.037C31.609,18.229,31.729,18.319,31.564,18.431Zm-.779-8.015a1.125,1.125,0,1,1,1.124-1.125A1.125,1.125,0,0,1,30.785,10.416Z"/></svg>