<svg id="Artwork" xmlns="http://www.w3.org/2000/svg" viewBox="0 0 46 46"><defs><style>.cls-1{fill:#f4f4f4;}.cls-2{fill:none;}</style></defs><title>Sensor_Humidity_Settings</title><path class="cls-1" d="M20,40.344a10.022,10.022,0,0,1-9.191-14c1.915-4.973,7.332-15.124,7.562-15.554l.355-.689a1.457,1.457,0,0,1,1.232-.765l.029,0H20l.044,0a1.454,1.454,0,0,1,1.233.765l.026.048.339.663c.22.408,5.637,10.559,7.551,15.532a10.02,10.02,0,0,1-9.19,14Z"/><path class="cls-1" d="M34,13.426a2.092,2.092,0,1,1,2.091-2.092A2.092,2.092,0,0,1,34,13.426m6-1.355v-1.5l-1.785-.292A4.349,4.349,0,0,0,37.724,9.1l1.041-1.484L37.7,6.552,36.24,7.606a4.275,4.275,0,0,0-1.191-.5l-.31-1.777h-1.5l-.289,1.772a4.333,4.333,0,0,0-1.194.489L30.3,6.552l-1.061,1.06,1.027,1.469a4.365,4.365,0,0,0-.5,1.2L28,10.572v1.5l1.761.313a4.333,4.333,0,0,0,.5,1.2l-1.041,1.455L30.28,16.1l1.47-1.03a4.3,4.3,0,0,0,1.194.493l.294,1.771h1.5l.315-1.776a4.347,4.347,0,0,0,1.188-.5l1.479,1.04,1.061-1.062-1.057-1.466a4.3,4.3,0,0,0,.49-1.187Z"/><rect class="cls-2" width="46" height="46"/></svg>