<svg id="Artwork" xmlns="http://www.w3.org/2000/svg" viewBox="0 0 46 46"><defs><style>.cls-1{fill:#f4c400;}.cls-2{fill:#f4f4f4;}</style></defs><title>Sensor_AirPressure_Warning</title><path class="cls-1" d="M46,23A23,23,0,1,1,23,0,23,23,0,0,1,46,23Z"/><rect class="cls-2" x="13.064" y="34.661" width="20.294" height="2.536" rx="0.423" ry="0.423"/><path class="cls-2" d="M32.936,29.163H28.06a.423.423,0,0,1-.193-.8,10.359,10.359,0,1,0-9.724.007.422.422,0,0,1-.2.791H13.487a.424.424,0,0,0-.423.423v1.69a.423.423,0,0,0,.423.423H32.936a.422.422,0,0,0,.422-.423v-1.69A.423.423,0,0,0,32.936,29.163Zm-7.611-9.936A2.327,2.327,0,1,1,23.96,17.11l2.634-1.053-1.367,2.5A2.365,2.365,0,0,1,25.325,19.227Z"/></svg>