<svg id="Artwork" xmlns="http://www.w3.org/2000/svg" viewBox="0 0 46 46"><defs><style>.cls-1{fill:#f4f4f4;}.cls-2{fill:none;}</style></defs><title>SensorTemperature_All_Settings</title><path class="cls-1" d="M18.5,39.987a7.255,7.255,0,0,1-3.254-13.74V12.332a3.254,3.254,0,1,1,6.507,0V26.247A7.255,7.255,0,0,1,18.5,39.987Z"/><path class="cls-1" d="M34,13.759a2.092,2.092,0,1,1,2.091-2.092A2.091,2.091,0,0,1,34,13.759m6-1.354v-1.5l-1.785-.292a4.349,4.349,0,0,0-.491-1.184l1.041-1.483L37.7,6.886,36.24,7.939a4.275,4.275,0,0,0-1.191-.5l-.31-1.776h-1.5l-.289,1.771a4.3,4.3,0,0,0-1.194.49L30.3,6.886l-1.061,1.06,1.027,1.468a4.384,4.384,0,0,0-.5,1.2L28,10.905v1.5l1.761.312a4.339,4.339,0,0,0,.5,1.2l-1.041,1.455,1.062,1.061,1.47-1.03a4.269,4.269,0,0,0,1.194.493l.294,1.772h1.5l.315-1.777a4.345,4.345,0,0,0,1.188-.5l1.479,1.039,1.061-1.061L37.725,13.9a4.291,4.291,0,0,0,.49-1.187Z"/><rect class="cls-2" width="46" height="46"/></svg>