<svg id="Artwork" xmlns="http://www.w3.org/2000/svg" viewBox="0 0 46 46"><defs><style>.cls-1{fill:#f4f4f4;}.cls-2{fill:none;}</style></defs><title>SensorAccelerometer_All_Else_Settings</title><path class="cls-1" d="M34,13.093A2.092,2.092,0,1,1,36.092,11,2.092,2.092,0,0,1,34,13.093m6-1.355v-1.5l-1.785-.292a4.356,4.356,0,0,0-.491-1.183l1.041-1.484L37.7,6.219,36.24,7.272a4.275,4.275,0,0,0-1.191-.5L34.739,5h-1.5l-.289,1.771a4.335,4.335,0,0,0-1.194.49L30.3,6.219l-1.061,1.06,1.027,1.468a4.384,4.384,0,0,0-.5,1.2L28,10.238v1.5l1.761.313a4.333,4.333,0,0,0,.5,1.2L29.218,14.7l1.062,1.062,1.47-1.03a4.329,4.329,0,0,0,1.194.493L33.238,17h1.5l.315-1.776a4.378,4.378,0,0,0,1.188-.5l1.479,1.04L38.782,14.7l-1.057-1.467a4.285,4.285,0,0,0,.49-1.186Z"/><path class="cls-1" d="M34.962,32.97l-1.4-1.668,2.309-1.936-1.937-2.309a1.087,1.087,0,0,1,.134-1.533l2.31-1.939-1.938-2.31,1.666-1.4,2.637,3.143a1.087,1.087,0,0,1-.133,1.532l-2.31,1.94L38.239,28.8a1.088,1.088,0,0,1-.134,1.533Z"/><path class="cls-1" d="M8.169,38.635,5.531,35.492a1.088,1.088,0,0,1,.135-1.532l2.309-1.94L6.038,29.711a1.088,1.088,0,0,1,.134-1.533l3.142-2.637,1.4,1.668L8.4,29.145l1.939,2.309a1.088,1.088,0,0,1-.135,1.533L7.9,34.926l1.937,2.31Z"/><path class="cls-1" d="M29.63,19.353,16.48,18.2a2.777,2.777,0,0,0-3.055,2.463L12,36.925a2.777,2.777,0,0,0,2.581,2.955l13.15,1.148a2.775,2.775,0,0,0,3.056-2.462l1.422-16.255a2.778,2.778,0,0,0-2.581-2.958Z"/><rect class="cls-2" width="46" height="46"/></svg>