<svg id="Artwork" xmlns="http://www.w3.org/2000/svg" viewBox="0 0 46 46"><defs><style>.cls-1{fill:#9aabaf;}.cls-2{fill:#f4f4f4;}</style></defs><title>Sensor_Humidity_Disconnect</title><path class="cls-1" d="M46,23A23,23,0,1,1,23,0,23,23,0,0,1,46,23Z"/><path class="cls-2" d="M23,38.538a10.022,10.022,0,0,1-9.191-14c1.915-4.973,7.332-15.124,7.562-15.554l.355-.689a1.457,1.457,0,0,1,1.232-.765l.029,0H23l.044,0a1.454,1.454,0,0,1,1.233.765l.026.048.339.663c.22.408,5.637,10.559,7.551,15.532a10.02,10.02,0,0,1-9.19,14Z"/></svg>