<svg id="Artwork" xmlns="http://www.w3.org/2000/svg" viewBox="0 0 46 46"><defs><style>.cls-1{fill:#0097ba;}.cls-2{fill:#f4f4f4;}</style></defs><title>Sensor_Humidity_Info</title><path class="cls-1" d="M46,23A23,23,0,1,1,23,0,23,23,0,0,1,46,23Z"/><path class="cls-2" d="M19.171,11.716l-.317-.62-.024-.044a1.36,1.36,0,0,0-1.153-.715l-.041,0h-.01l-.027,0a1.361,1.361,0,0,0-1.151.715l-.332.644c-.215.4-5.279,9.891-7.069,14.54a9.362,9.362,0,1,0,17.183,0C24.44,21.587,19.376,12.1,19.171,11.716Z"/><path class="cls-2" d="M29.5,6.333a7.5,7.5,0,0,0-7.438,6.578c.979,1.873,2.432,4.705,3.743,7.444A7.5,7.5,0,1,0,29.5,6.333ZM31.564,18.1c-.12.083-1.327.915-1.777,1.207s-2.226,1.312-1.957-.652c.683-3.967,2.017-6.321.428-5.3-.413.255-.66.412-.81.51s-.127.082-.247-.12-.165-.2-.015-.315c0,0,2.436-1.942,3.329-2.017.869-.075.645.975.562,1.454-.5,2.017-1.417,4.949-1.275,5.377.12.427,1.013-.248,1.5-.57,0,0,.09-.09.18.037C31.609,17.9,31.729,17.986,31.564,18.1Zm-.779-8.015a1.125,1.125,0,1,1,1.124-1.125A1.125,1.125,0,0,1,30.785,10.083Z"/></svg>