<svg id="Artwork" xmlns="http://www.w3.org/2000/svg" viewBox="0 0 46 46"><defs><style>.cls-1{fill:#0097ba;}.cls-2{fill:#f4f4f4;}</style></defs><title>Sensor_All_Else_Info</title><path class="cls-1" d="M46,23A23,23,0,1,1,23,0,23,23,0,0,1,46,23Z"/><path class="cls-2" d="M24.286,13.2H10.973a2.718,2.718,0,0,0-2.714,2.715v6.172A2.718,2.718,0,0,0,10.973,24.8H24.286A2.717,2.717,0,0,0,27,22.087V15.915A2.717,2.717,0,0,0,24.286,13.2Zm.037,8.887a.037.037,0,0,1-.037.037l-13.35-.037.037-6.21,13.35.038Z"/><path class="cls-2" d="M17.96,36.715a12.308,12.308,0,0,1-7.067-2.223L9.872,35.956a14.1,14.1,0,0,0,15.515.425l-.938-1.518A12.344,12.344,0,0,1,17.96,36.715Z"/><path class="cls-2" d="M11.886,32.216a10.555,10.555,0,0,0,11.47.434l-.91-1.536a8.764,8.764,0,0,1-9.535-.359Z"/><path class="cls-2" d="M21.435,28.9l-.857-1.565a5.533,5.533,0,0,1-5.77-.34l-1.034,1.455a7.229,7.229,0,0,0,7.661.45Z"/><path class="cls-2" d="M31.5,8.167a7.493,7.493,0,0,0-6.673,4.088A3.71,3.71,0,0,1,28,15.915v6.172c0,.069-.017.133-.02.2A7.5,7.5,0,1,0,31.5,8.167Zm2.064,11.764c-.12.083-1.327.915-1.777,1.207s-2.226,1.313-1.957-.652c.683-3.966,2.017-6.321.428-5.3-.413.255-.66.412-.81.51s-.127.082-.247-.12-.165-.2-.015-.315c0,0,2.436-1.942,3.329-2.017.869-.075.645.975.562,1.455-.5,2.017-1.417,4.948-1.275,5.376.12.427,1.013-.248,1.5-.57,0,0,.09-.09.18.038C33.609,19.729,33.729,19.819,33.564,19.931Zm-.779-8.015a1.125,1.125,0,1,1,1.124-1.125A1.125,1.125,0,0,1,32.785,11.916Z"/></svg>