<svg id="Artwork" xmlns="http://www.w3.org/2000/svg" viewBox="0 0 46 46"><defs><style>.cls-1{fill:#f4f4f4;}.cls-2{fill:none;}</style></defs><title>SensorAccelerometer_Crash_Settings</title><path class="cls-1" d="M24.586,20.9,22.11,13.528a1.266,1.266,0,0,0-1.2-.864H19.093a1.267,1.267,0,0,0-1.2.864L15.416,20.9Z"/><path class="cls-1" d="M30.677,35.284H29.411L25.863,24.71H14.139l-3.55,10.574H9.324a1.821,1.821,0,0,0,0,3.523H30.677a1.822,1.822,0,0,0,0-3.523Z"/><path class="cls-1" d="M34,13.926a2.092,2.092,0,1,1,2.091-2.092A2.092,2.092,0,0,1,34,13.926m6-1.355v-1.5l-1.785-.292A4.349,4.349,0,0,0,37.724,9.6l1.041-1.484L37.7,7.052,36.24,8.106a4.275,4.275,0,0,0-1.191-.5l-.31-1.777h-1.5l-.289,1.772a4.333,4.333,0,0,0-1.194.489L30.3,7.052l-1.061,1.06,1.027,1.469a4.365,4.365,0,0,0-.5,1.2L28,11.072v1.5l1.761.313a4.333,4.333,0,0,0,.5,1.2l-1.041,1.455L30.28,16.6l1.47-1.03a4.3,4.3,0,0,0,1.194.493l.294,1.771h1.5l.315-1.776a4.347,4.347,0,0,0,1.188-.5l1.479,1.04,1.061-1.062-1.057-1.466a4.3,4.3,0,0,0,.49-1.187Z"/><rect class="cls-2" width="46" height="46"/></svg>