<svg id="Artwork" xmlns="http://www.w3.org/2000/svg" viewBox="0 0 46 46"><defs><style>.cls-1{fill:#0097ba;}.cls-2{fill:#f4f4f4;}</style></defs><title>SensorAccelerometer_Crash_Info</title><path class="cls-1" d="M46,23A23,23,0,1,1,23,0,23,23,0,0,1,46,23Z"/><path class="cls-2" d="M24.181,18.415l-2.266-6.751a1.161,1.161,0,0,0-1.1-.791H19.153a1.159,1.159,0,0,0-1.1.791l-2.266,6.751Z"/><path class="cls-2" d="M29.758,34.807a1.668,1.668,0,0,0,0-3.226H28.6L25.35,21.9H14.617l-3.25,9.68H10.21a1.668,1.668,0,0,0,0,3.226Z"/><path class="cls-2" d="M30.432,8.834a7.489,7.489,0,0,0-6.215,3.406l1.86,5.539.885,2.636h0l.285.85.711,2.117A7.5,7.5,0,1,0,30.432,8.834ZM32.6,20.579c-.119.084-1.319.927-1.766,1.223s-2.215,1.333-1.963-.634c.647-3.973,1.96-6.339.379-5.3-.409.259-.656.418-.8.517s-.126.084-.248-.117-.167-.2-.018-.315c0,0,2.419-1.964,3.311-2.047.869-.083.653.969.575,1.449-.484,2.022-1.372,4.961-1.226,5.388.124.426,1.01-.257,1.5-.584,0,0,.089-.091.18.036C32.646,20.376,32.767,20.465,32.6,20.579Zm-.852-8.008a1.125,1.125,0,1,1,1.114-1.135A1.124,1.124,0,0,1,31.751,12.571Z"/></svg>