<svg id="Artwork" xmlns="http://www.w3.org/2000/svg" viewBox="0 0 46 46"><defs><style>.cls-1{fill:#0097ba;}.cls-2{fill:#f4f4f4;}</style></defs><title>SensorAccelerometer_All_Else_Info</title><path class="cls-1" d="M46,23A23,23,0,1,1,23,0,23,23,0,0,1,46,23Z"/><path class="cls-2" d="M31.809,30.788,30.559,29.3l2.064-1.73L30.891,25.5a.971.971,0,0,1,.12-1.369L33.075,22.4l-1.731-2.065,1.489-1.251,2.356,2.81a.971.971,0,0,1-.119,1.369L33.006,25l1.731,2.064a.971.971,0,0,1-.119,1.369Z"/><path class="cls-2" d="M7.862,35.851,5.5,33.041a.972.972,0,0,1,.121-1.369l2.063-1.733L5.957,27.874a.971.971,0,0,1,.12-1.369l2.808-2.357,1.251,1.49L8.071,27.369,9.8,29.433A.971.971,0,0,1,9.683,30.8L7.62,32.536,9.351,34.6Z"/><path class="cls-2" d="M27.042,18.617,15.289,17.591a2.479,2.479,0,0,0-2.729,2.2L11.288,34.322A2.481,2.481,0,0,0,13.6,36.963l11.753,1.026a2.478,2.478,0,0,0,2.73-2.2l1.271-14.528a2.482,2.482,0,0,0-2.307-2.644Z"/><path class="cls-2" d="M27.22,16.625a4.574,4.574,0,0,1,1.829.573c.7-3.272,1.641-5.1.209-4.179-.413.254-.66.412-.81.509s-.127.083-.247-.12-.165-.2-.015-.314c0,0,2.436-1.943,3.329-2.017.869-.076.645.974.562,1.454-.5,2.017-1.417,4.949-1.275,5.376a.17.17,0,0,0,.17.128l.574-.482,1.533-1.287L34.365,17.8l1.1,1.312A7.5,7.5,0,1,0,23.547,16.3ZM31.785,7.5A1.125,1.125,0,1,1,30.66,8.625,1.125,1.125,0,0,1,31.785,7.5Z"/></svg>