<svg id="Artwork" xmlns="http://www.w3.org/2000/svg" viewBox="0 0 46 46"><defs><style>.cls-1{fill:#0097ba;}.cls-2{fill:#f4f4f4;}</style></defs><title>Sensor_AirPressure_Info</title><path class="cls-1" d="M46,23A23,23,0,1,1,23,0,23,23,0,0,1,46,23Z"/><rect class="cls-2" x="8.988" y="35.12" width="16.619" height="2.077" rx="0.346" ry="0.346"/><path class="cls-2" d="M9.334,32.7H25.261a.347.347,0,0,0,.346-.347V30.964a.346.346,0,0,0-.346-.346H21.268a.346.346,0,0,1-.158-.654A8.479,8.479,0,0,0,17.127,14a8.687,8.687,0,0,0-.974.055A8.479,8.479,0,0,0,13.147,29.97a.345.345,0,0,1-.168.648H9.334a.346.346,0,0,0-.346.346v1.384A.347.347,0,0,0,9.334,32.7Zm7.79-12.118a1.921,1.921,0,0,1,.786.17l2.158-.862-1.12,2.047a1.923,1.923,0,0,1,.08.549,1.9,1.9,0,1,1-1.9-1.9Z"/><path class="cls-2" d="M29.5,5A7.5,7.5,0,0,0,22,12.5c0,.246.014.488.037.728a10.517,10.517,0,0,1,5.168,6.411A7.5,7.5,0,1,0,29.5,5Zm2.064,11.765c-.12.082-1.327.914-1.777,1.207s-2.226,1.312-1.957-.652c.683-3.967,2.017-6.321.428-5.3-.413.254-.66.412-.81.509s-.127.083-.247-.12-.165-.2-.015-.314c0,0,2.436-1.943,3.329-2.017.869-.076.645.974.562,1.454-.5,2.017-1.417,4.949-1.275,5.376.12.427,1.013-.247,1.5-.57,0,0,.09-.09.18.038C31.609,16.562,31.729,16.652,31.564,16.765Zm-.779-8.016a1.125,1.125,0,1,1,1.124-1.124A1.125,1.125,0,0,1,30.785,8.749Z"/></svg>