<svg id="Artwork" xmlns="http://www.w3.org/2000/svg" viewBox="0 0 46 46"><defs><style>.cls-1{fill:#f4f4f4;}.cls-2{fill:none;}</style></defs><title>Sensor_All_Else_Settings</title><path class="cls-1" d="M24.958,12.5H10.042A3.045,3.045,0,0,0,7,15.542v6.916A3.045,3.045,0,0,0,10.042,25.5H24.958A3.045,3.045,0,0,0,28,22.458V15.542A3.045,3.045,0,0,0,24.958,12.5ZM25,22.458a.042.042,0,0,1-.042.042L10,22.458l.042-6.958L25,15.542Z"/><path class="cls-1" d="M17.87,38.85a13.788,13.788,0,0,1-7.919-2.492L8.808,38a15.8,15.8,0,0,0,17.384.477l-1.051-1.7A13.832,13.832,0,0,1,17.87,38.85Z"/><path class="cls-1" d="M11.064,33.808a11.824,11.824,0,0,0,12.853.486L22.9,32.573a9.824,9.824,0,0,1-10.685-.4Z"/><path class="cls-1" d="M21.764,30.1,20.8,28.343a6.2,6.2,0,0,1-6.465-.381L13.18,29.593a8.1,8.1,0,0,0,8.584.5Z"/><path class="cls-1" d="M36,13.426a2.092,2.092,0,1,1,2.091-2.092A2.092,2.092,0,0,1,36,13.426m6-1.355v-1.5l-1.785-.292A4.349,4.349,0,0,0,39.724,9.1l1.041-1.484L39.7,6.552,38.24,7.606a4.275,4.275,0,0,0-1.191-.5l-.31-1.777h-1.5l-.289,1.772a4.333,4.333,0,0,0-1.194.489L32.3,6.552l-1.061,1.06,1.027,1.469a4.365,4.365,0,0,0-.5,1.2L30,10.572v1.5l1.761.313a4.333,4.333,0,0,0,.5,1.2l-1.041,1.455L32.28,16.1l1.47-1.03a4.3,4.3,0,0,0,1.194.493l.294,1.771h1.5l.315-1.776a4.347,4.347,0,0,0,1.188-.5l1.479,1.04,1.061-1.062-1.057-1.466a4.3,4.3,0,0,0,.49-1.187Z"/><rect class="cls-2" width="46" height="46"/></svg>