<svg id="Artwork" xmlns="http://www.w3.org/2000/svg" viewBox="0 0 46 46"><defs><style>.cls-1{fill:#f4c400;}.cls-2{fill:#f4f4f4;}</style></defs><title>SensorAccelerometer_Crash_Warning</title><path class="cls-1" d="M46,23A23,23,0,1,1,23,0,23,23,0,0,1,46,23Z"/><path class="cls-2" d="M27.586,16.9,25.11,9.528a1.266,1.266,0,0,0-1.2-.864H22.093a1.267,1.267,0,0,0-1.2.864L18.416,16.9Z"/><path class="cls-2" d="M33.677,31.284H32.411L28.863,20.71H17.139l-3.55,10.574H12.324a1.6,1.6,0,0,0-1.358,1.76,1.6,1.6,0,0,0,1.358,1.763H33.677a1.6,1.6,0,0,0,1.357-1.763A1.6,1.6,0,0,0,33.677,31.284Z"/></svg>