<svg id="Artwork" xmlns="http://www.w3.org/2000/svg" viewBox="0 0 46 46"><defs><style>.cls-1{fill:#9aabaf;}.cls-2{fill:#f4f4f4;}</style></defs><title>SensorAccelerometer_All_Else_Disconnect</title><path class="cls-1" d="M46,23A23,23,0,1,1,23,0,23,23,0,0,1,46,23Z"/><path class="cls-2" d="M36.479,26.558l-1.47-1.753,2.427-2.035L35.4,20.342a1.141,1.141,0,0,1,.14-1.61l2.428-2.038-2.036-2.428L37.683,12.8l2.771,3.3a1.141,1.141,0,0,1-.14,1.61l-2.428,2.039,2.037,2.427a1.143,1.143,0,0,1-.141,1.611Z"/><path class="cls-2" d="M8.317,32.513l-2.773-3.3a1.143,1.143,0,0,1,.142-1.61L8.113,25.56,6.077,23.132a1.143,1.143,0,0,1,.141-1.611l3.3-2.772,1.47,1.753L8.563,22.537,10.6,24.965a1.142,1.142,0,0,1-.142,1.61L8.032,28.614l2.036,2.427Z"/><path class="cls-2" d="M30.873,12.245,17.052,11.038a2.918,2.918,0,0,0-3.211,2.588L12.346,30.715a2.918,2.918,0,0,0,2.713,3.106L28.88,35.027a2.916,2.916,0,0,0,3.212-2.587l1.494-17.085a2.919,2.919,0,0,0-2.713-3.11Z"/></svg>