<svg id="Artwork" xmlns="http://www.w3.org/2000/svg" viewBox="0 0 46 46"><defs><style>.cls-1{fill:#0097ba;}.cls-2{fill:#f4f4f4;}</style></defs><title>Sensor_Illuminance copy</title><path class="cls-1" d="M46,23A23,23,0,1,1,23,0,23,23,0,0,1,46,23Z"/><circle class="cls-2" cx="17.382" cy="26.618" r="7.308"/><circle class="cls-2" cx="17.382" cy="15.656" r="1.656"/><circle class="cls-2" cx="28.344" cy="26.618" r="1.656"/><circle class="cls-2" cx="17.382" cy="37.579" r="1.656"/><circle class="cls-2" cx="6.421" cy="26.618" r="1.656"/><circle class="cls-2" cx="9.632" cy="18.867" r="1.656"/><circle class="cls-2" cx="25.133" cy="18.867" r="1.656"/><circle class="cls-2" cx="25.133" cy="34.368" r="1.656"/><circle class="cls-2" cx="9.632" cy="34.368" r="1.656"/><path class="cls-2" d="M31.5,8a7.5,7.5,0,0,0-7.5,7.407,3.606,3.606,0,0,1,1.128-.2,3.642,3.642,0,0,1,2.223,6.539A7.5,7.5,0,1,0,31.5,8Zm2.064,11.765c-.12.082-1.327.914-1.777,1.207s-2.226,1.312-1.957-.653c.683-3.966,2.017-6.32.428-5.3-.413.255-.66.413-.81.51s-.127.083-.247-.12-.165-.2-.015-.315c0,0,2.436-1.941,3.329-2.016.869-.075.645.974.562,1.454-.5,2.017-1.417,4.949-1.275,5.376.12.428,1.013-.247,1.5-.57,0,0,.09-.09.18.038C33.609,19.562,33.729,19.652,33.564,19.765Zm-.779-8.016a1.125,1.125,0,1,1,1.124-1.124A1.125,1.125,0,0,1,32.785,11.749Z"/></svg>