<svg id="Artwork" xmlns="http://www.w3.org/2000/svg" viewBox="0 0 46 46"><defs><style>.cls-1{fill:#f4f4f4;}.cls-2{fill:none;}</style></defs><title>Sensor_AirPressure_Settings</title><rect class="cls-1" x="8.064" y="37.661" width="20.294" height="2.536" rx="0.423" ry="0.423"/><path class="cls-1" d="M27.936,32.163H23.06a.423.423,0,0,1-.193-.8,10.359,10.359,0,1,0-9.724.007.422.422,0,0,1-.2.791H8.487a.424.424,0,0,0-.423.423v1.69a.423.423,0,0,0,.423.423H27.936a.422.422,0,0,0,.422-.423v-1.69A.423.423,0,0,0,27.936,32.163Zm-7.611-9.936A2.327,2.327,0,1,1,18.96,20.11l2.634-1.053-1.367,2.5A2.365,2.365,0,0,1,20.325,22.227Z"/><path class="cls-1" d="M34,13.093A2.092,2.092,0,1,1,36.092,11,2.092,2.092,0,0,1,34,13.093m6-1.355v-1.5l-1.785-.292a4.356,4.356,0,0,0-.491-1.183l1.041-1.484L37.7,6.219,36.24,7.272a4.275,4.275,0,0,0-1.191-.5L34.739,5h-1.5l-.289,1.771a4.335,4.335,0,0,0-1.194.49L30.3,6.219l-1.061,1.06,1.027,1.468a4.384,4.384,0,0,0-.5,1.2L28,10.238v1.5l1.761.313a4.333,4.333,0,0,0,.5,1.2L29.218,14.7l1.062,1.062,1.47-1.03a4.329,4.329,0,0,0,1.194.493L33.238,17h1.5l.315-1.776a4.378,4.378,0,0,0,1.188-.5l1.479,1.04L38.782,14.7l-1.057-1.467a4.285,4.285,0,0,0,.49-1.186Z"/><rect class="cls-2" width="46" height="46"/></svg>