<svg id="Artwork" xmlns="http://www.w3.org/2000/svg" viewBox="0 0 46 46"><defs><style>.cls-1{fill:#9aabaf;}.cls-2{fill:#f4f4f4;}</style></defs><title>Sensor_All_Else_Disconnect</title><path class="cls-1" d="M46,23A23,23,0,1,1,23,0,23,23,0,0,1,46,23Z"/><path class="cls-2" d="M30.458,8.825H15.542A3.045,3.045,0,0,0,12.5,11.867v6.916a3.045,3.045,0,0,0,3.042,3.042H30.458A3.045,3.045,0,0,0,33.5,18.783V11.867A3.045,3.045,0,0,0,30.458,8.825Zm.042,9.958a.042.042,0,0,1-.042.042L15.5,18.783l.042-6.958,14.958.042Z"/><path class="cls-2" d="M23.37,35.175a13.794,13.794,0,0,1-7.919-2.491l-1.143,1.64a15.8,15.8,0,0,0,17.384.477l-1.051-1.7A13.84,13.84,0,0,1,23.37,35.175Z"/><path class="cls-2" d="M16.564,30.133a11.824,11.824,0,0,0,12.853.486L28.4,28.9a9.824,9.824,0,0,1-10.685-.4Z"/><path class="cls-2" d="M27.264,26.422,26.3,24.668a6.2,6.2,0,0,1-6.465-.381L18.68,25.918a8.1,8.1,0,0,0,8.584.5Z"/></svg>