<?xml version="1.0" encoding="utf-8"?>
<svg viewBox="18.719 -0.123 37.315 74.753" xmlns="http://www.w3.org/2000/svg">
  <defs>
    <style>.cls-1,.cls-2{fill:none;stroke:#f4f4f4;stroke-linejoin:round;}.cls-2{stroke-linecap:round;}</style>
  </defs>
  <title>f4_454_SF</title>
  <g id="Linework">
    <line class="cls-1" x1="52.34" y1="72.23" x2="52.45" y2="72.23"/>
    <line class="cls-1" x1="32.12" y1="26.92" x2="32.33" y2="27"/>
    <line class="cls-1" x1="52.66" y1="19.55" x2="37.36" y2="19.69"/>
    <line class="cls-1" x1="52.89" y1="19.62" x2="52.7" y2="19.55"/>
    <line class="cls-1" x1="30.06" y1="29" x2="49.4" y2="28.82"/>
    <line class="cls-1" x1="27.06" y1="24.81" x2="26.12" y2="24.48"/>
    <line class="cls-1" x1="24.9" y1="29.81" x2="26.4" y2="30.34"/>
    <path class="cls-1" d="M30.78,30.93a.19.19,0,0,0,0-.07"/>
    <path class="cls-1" d="M19.94,22.49a.24.24,0,0,0-.22.15"/>
    <path class="cls-1" d="M19.72,22.64a.22.22,0,0,0,0,.08"/>
    <line class="cls-1" x1="19.71" y1="22.72" x2="19.71" y2="27.78"/>
    <line class="cls-1" x1="20.47" y1="22.48" x2="19.94" y2="22.49"/>
    <path class="cls-1" d="M20.54,22.49h-.07"/>
    <path class="cls-1" d="M19.71,27.78a.23.23,0,0,0,.17.24"/>
    <path class="cls-1" d="M20.24,31.32l.08,0"/>
    <path class="cls-1" d="M53.67,24.22l1.06.38h.16l0,0h0l0,0H55v0h0l0,0h0v0l0,0h0v0h0v0h0v0h0v0h0v.06h0v.1h0v.16h0v4.33h0a1.09,1.09,0,0,1,0,.18c0,.09-.21.3-.3.3"/>
    <line class="cls-1" x1="26.65" y1="67.05" x2="26.66" y2="52.13"/>
    <line class="cls-1" x1="52.17" y1="51.82" x2="52.16" y2="67.12"/>
    <line class="cls-1" x1="21.51" y1="65.87" x2="21.2" y2="65.76"/>
    <line class="cls-1" x1="21.2" y1="65.76" x2="21.22" y2="50.45"/>
    <line class="cls-1" x1="21.53" y1="50.56" x2="21.22" y2="50.45"/>
    <line class="cls-1" x1="24.56" y1="66.96" x2="24.87" y2="67.06"/>
    <line class="cls-1" x1="24.56" y1="66.96" x2="24.58" y2="51.64"/>
    <line class="cls-1" x1="24.58" y1="51.64" x2="24.89" y2="51.75"/>
    <line class="cls-2" x1="54.15" y1="70.84" x2="54.16" y2="68.93"/>
    <polyline class="cls-1" points="52.26 68.94 52.26 70.84 52.27 71.93 52.27 71.94 52.27 71.96 52.27 71.97 52.27 71.99 52.27 72 52.27 72.01 52.27 72.03 52.28 72.04 52.28 72.05 52.28 72.06 52.28 72.07 52.28 72.08 52.28 72.1 52.29 72.11 52.29 72.12 52.29 72.13 52.29 72.14 52.3 72.15 52.3 72.15 52.3 72.16 52.3 72.17 52.3 72.18 52.31 72.19 52.31 72.19 52.31 72.2 52.31 72.2 52.31 72.21 52.32 72.21 52.32 72.22 52.32 72.22 52.33 72.22 52.33 72.23 52.33 72.23 52.33 72.23 52.34 72.23 52.34 72.23 52.34 72.23 52.34 72.23 52.35 72.23 52.35 72.23 52.35 72.23 52.35 72.23 52.45 72.23 52.45 72.23 52.45 72.23 52.45 72.23 52.46 72.23 52.46 72.23 52.46 72.23 52.46 72.22 52.47 72.22 52.47 72.22 52.47 72.21 52.47 72.2 52.48 72.2 52.48 72.19 52.48 72.19 52.48 72.18 52.48 72.17 52.49 72.17 52.49 72.16 52.49 72.15 52.49 72.14 52.49 72.13 52.5 72.12 52.5 72.11 52.5 72.1 52.5 72.09 52.5 72.08 52.5 72.06 52.51 72.05 52.51 72.04 52.51 72.03 52.51 72.02 52.51 72 52.51 71.99 52.51 71.98 52.51 71.96 52.64 70.59 52.64 68.94"/>
    <polyline class="cls-1" points="52.64 70.47 52.65 70.5 52.65 70.54 52.66 70.57 52.66 70.61 52.67 70.64 52.67 70.68 52.68 70.71 52.68 70.75 52.69 70.79 52.69 70.83 52.7 70.87 52.7 70.91 52.71 70.95 52.71 70.99 52.72 71.03 52.72 71.07 52.72 71.11 52.73 71.16 52.73 71.2 52.73 71.25 52.73 71.29 52.74 71.34 52.74 71.38 52.74 71.43 52.74 71.47 52.74 71.52 52.75 71.56 52.75 71.61 52.75 71.66 52.75 71.7 52.75 71.75 52.75 71.8 52.75 71.84 52.75 71.89 52.75 71.94 52.75 71.98 52.75 72.03 52.75 72.08 52.75 72.12 52.74 72.17 52.74 72.21 52.74 72.25 52.74 72.3 52.74 72.34 52.74 72.39 52.73 72.43 52.73 72.48 52.73 72.52 52.73 72.56 52.72 72.6 52.72 72.64 52.71 72.68 52.71 72.72 52.71 72.76 52.7 72.8 52.7 72.84 52.69 72.88 52.69 72.91 52.68 72.95 52.68 72.98 52.67 73.02 52.67 73.05 52.66 73.08 52.66 73.11 52.65 73.14 52.65 73.17 52.64 73.2 52.63 73.23 52.63 73.25 52.62 73.28 52.62 73.31 52.61 73.33 52.6 73.35 52.59 73.37 52.59 73.39 52.58 73.41 52.57 73.43 52.57 73.44 52.56 73.46 52.55 73.47 52.54 73.49 52.54 73.5 52.53 73.51 52.52 73.52 52.51 73.53 52.51 73.54 52.5 73.55 52.49 73.55 52.48 73.55 52.48 73.56 52.47 73.56 52.46 73.56 52.45 73.56 52.44 73.55 52.44 73.55 52.43 73.55 52.42 73.54 52.41 73.53 52.4 73.53 52.4 73.52 52.39 73.51 52.38 73.49 52.37 73.48 52.37 73.47 52.36 73.45 52.35 73.44 52.34 73.42 52.34 73.4 52.33 73.38 52.32 73.36 52.31 73.34 52.31 73.31 52.3 73.29 52.3 73.26 52.29 73.24 52.28 73.21 52.27 73.18 52.27 73.15 52.26 73.12 52.26 73.09 52.25 73.06 52.24 73.03 52.24 72.99 52.23 72.96 52.23 72.92 52.22 72.89 52.22 72.85 52.21 72.81 52.21 72.78 52.2 72.74 52.2 72.7 52.2 72.66 52.19 72.62 52.19 72.58 52.18 72.53 52.18 72.49 52.18 72.45 52.17 72.41 52.17 72.36 52.17 72.32 52.16 72.27 52.16 72.23 52.16 72.18 52.16 72.14 52.16 72.09 52.15 72.05 52.15 72 52.15 71.95 52.15 71.91 52.15 71.86 52.15 71.81 52.15 71.77 52.15 71.72 52.15 71.68 52.15 71.63 52.15 71.58 52.15 71.54 52.15 71.49 52.15 71.44 52.15 71.4 52.15 71.35 52.16 71.31 52.16 71.27 52.16 71.22 52.16 71.18 52.16 71.13 52.17 71.09 52.17 71.05 52.17 71.01 52.18 70.96 52.18 70.92 52.18 70.88 52.19 70.84 52.19 70.8 52.2 70.76 52.2 70.73 52.26 70.44"/>
    <polyline class="cls-1" points="52.58 70.01 53.84 70 53.84 70 53.85 70 53.85 70 53.86 70 53.87 70.01 53.88 70.01 53.88 70.02 53.89 70.03 53.9 70.04 53.91 70.05 53.92 70.06 53.92 70.07 53.93 70.09 53.94 70.1 53.95 70.12 53.95 70.14 53.96 70.15 53.97 70.17 53.98 70.2 53.98 70.22 53.99 70.24 54 70.27 54 70.29 54.01 70.32 54.02 70.34 54.02 70.37 54.03 70.4 54.03 70.43 54.04 70.46 54.05 70.49 54.05 70.53 54.06 70.56 54.06 70.59 54.07 70.63 54.08 70.66 54.08 70.7 54.09 70.74 54.09 70.78 54.09 70.82 54.1 70.86 54.1 70.9 54.11 70.94 54.11 70.98 54.12 71.02 54.12 71.06 54.12 71.11 54.13 71.15 54.13 71.19 54.13 71.24 54.13 71.28 54.14 71.33 54.14 71.37 54.14 71.42 54.14 71.46 54.14 71.51 54.15 71.56 54.15 71.6 54.15 71.65 54.15 71.69 54.15 71.74 54.15 71.79 54.15 71.83 54.15 71.88 54.15 71.92 54.15 71.97 54.15 72.02 54.15 72.06 54.15 72.11 54.14 72.16 54.14 72.2 54.14 72.25 54.14 72.29 54.14 72.33 54.13 72.38 54.13 72.42 54.13 72.46 54.13 72.51 54.13 72.55 54.12 72.59 54.12 72.63 54.11 72.67 54.11 72.71 54.11 72.75 54.1 72.79 54.1 72.83 54.09 72.86 54.09 72.9 54.09 72.94 54.08 72.97 54.07 73 54.07 73.04 54.06 73.07 54.06 73.1 54.05 73.13 54.05 73.16 54.04 73.19 54.03 73.22 54.03 73.24 54.02 73.27 54.02 73.29 54.01 73.32 54 73.34 53.99 73.36 53.99 73.38 53.98 73.4 53.97 73.42 53.97 73.44 53.96 73.45 53.95 73.47 53.95 73.48 53.94 73.49 53.93 73.5 53.92 73.51 53.91 73.52 53.91 73.53 53.9 73.53 53.89 73.54 53.88 73.54 53.88 73.55 53.87 73.55 53.86 73.55 52.46 73.56"/>
    <polyline class="cls-1" points="26.18 70.21 27.43 70.2 27.44 70.2 27.45 70.2 27.45 70.2 27.46 70.2 27.47 70.21 27.48 70.21 27.48 70.22 27.49 70.23 27.5 70.24 27.51 70.25 27.52 70.26 27.52 70.28 27.53 70.29 27.54 70.3 27.55 70.32 27.55 70.34 27.56 70.36 27.57 70.38 27.58 70.4 27.58 70.42 27.59 70.44 27.6 70.47 27.6 70.49 27.61 70.52 27.62 70.55 27.62 70.57 27.63 70.6 27.64 70.63 27.64 70.66 27.65 70.69 27.65 70.73 27.66 70.76 27.66 70.8 27.67 70.83 27.67 70.87 27.68 70.9 27.69 70.94 27.69 70.98 27.7 71.02 27.7 71.06 27.7 71.1 27.71 71.14 27.71 71.18 27.71 71.22 27.72 71.26 27.72 71.31 27.73 71.35 27.73 71.39 27.73 71.44 27.73 71.48 27.74 71.53 27.74 71.57 27.74 71.62 27.74 71.66 27.74 71.71 27.75 71.76 27.75 71.8 27.75 71.85 27.75 71.89 27.75 71.94 27.75 71.99 27.75 72.03 27.75 72.08 27.75 72.13 27.75 72.17 27.75 72.22 27.75 72.27 27.75 72.31 27.74 72.36 27.74 72.4 27.74 72.45 27.74 72.49 27.74 72.53 27.74 72.58 27.73 72.62 27.73 72.67 27.73 72.71 27.72 72.75 27.72 72.79 27.72 72.83 27.71 72.87 27.71 72.91 27.71 72.95 27.7 72.99 27.7 73.03 27.69 73.06 27.69 73.1 27.68 73.14 27.68 73.17 27.67 73.2 27.67 73.24 27.66 73.27 27.66 73.3 27.65 73.33 27.65 73.36 27.64 73.39 27.63 73.42 27.63 73.44 27.62 73.47 27.61 73.5 27.61 73.52 27.6 73.54 27.59 73.56 27.59 73.58 27.58 73.6 27.57 73.62 27.57 73.64 27.56 73.65 27.55 73.67 27.54 73.68 27.54 73.69 27.53 73.7 27.52 73.71 27.52 73.72 27.51 73.73 27.5 73.74 27.49 73.74 27.48 73.74 27.48 73.75 27.47 73.75 27.46 73.75 26.06 73.76"/>
    <polyline class="cls-1" points="26.24 70.44 26.24 70.45 26.25 70.48 26.26 70.5 26.26 70.53 26.27 70.56 26.28 70.58 26.28 70.61 26.29 70.64 26.3 70.67 26.3 70.7 26.31 70.74 26.31 70.77 26.32 70.81 26.32 70.84 26.33 70.88 26.34 70.91 26.34 70.95 26.34 70.99 26.35 71.03 26.35 71.07 26.36 71.11 26.36 71.15 26.36 71.19 26.37 71.23 26.37 71.28 26.38 71.32 26.38 71.36 26.38 71.4 26.39 71.45 26.39 71.49 26.39 71.54 26.39 71.58 26.39 71.63 26.4 71.67 26.4 71.72 26.4 71.77 26.4 71.81 26.4 71.86 26.4 71.9 26.4 71.95 26.4 72 26.4 72.04 26.4 72.09 26.4 72.14 26.4 72.18 26.4 72.23 26.4 72.28 26.4 72.32 26.4 72.37 26.4 72.41 26.4 72.46 26.39 72.5 26.39 72.55 26.39 72.59 26.39 72.63 26.39 72.67 26.38 72.72 26.38 72.76 26.38 72.8 26.37 72.84 26.37 72.89 26.36 72.92 26.36 72.96 26.36 73 26.35 73.04 26.35 73.08 26.34 73.11 26.34 73.15 26.33 73.18 26.33 73.22 26.32 73.25 26.32 73.28 26.31 73.31 26.31 73.34 26.3 73.37 26.3 73.4 26.29 73.43 26.28 73.45 26.28 73.48 26.27 73.51 26.26 73.53 26.26 73.55 26.25 73.57 26.24 73.59 26.23 73.61 26.23 73.63 26.22 73.65 26.21 73.66 26.21 73.68 26.2 73.69 26.19 73.7 26.18 73.71 26.18 73.72 26.17 73.73 26.16 73.74 26.15 73.75 26.14 73.75 26.14 73.76 26.13 73.76 26.12 73.76 26.11 73.76 26.11 73.76 26.1 73.76 26.09 73.75 26.08 73.75 26.07 73.74 26.07 73.73 26.06 73.73 26.05 73.72 26.04 73.71 26.04 73.69 26.03 73.68 26.02 73.67 26.01 73.65 26 73.64 26 73.62 25.99 73.6 25.98 73.58 25.98 73.56 25.97 73.54 25.96 73.51 25.95 73.49 25.95 73.46 25.94 73.44 25.94 73.41 25.93 73.38 25.92 73.36 25.92 73.32 25.91 73.29 25.9 73.26 25.9 73.23 25.89 73.19 25.89 73.16 25.88 73.13 25.88 73.09 25.87 73.05 25.87 73.02 25.86 72.98 25.86 72.94 25.85 72.9 25.85 72.86 25.84 72.82 25.84 72.78 25.84 72.73 25.83 72.69 25.83 72.65 25.83 72.61 25.82 72.56 25.82 72.52 25.82 72.47 25.82 72.43 25.82 72.38 25.81 72.34 25.81 72.29 25.81 72.25 25.81 72.2 25.8 72.16 25.8 72.11 25.8 72.06 25.8 72.02 25.8 71.97 25.8 71.92 25.8 71.88 25.8 71.88 25.8 71.83 25.8 71.78 25.8 71.74 25.8 71.69 25.81 71.64 25.81 71.6 25.81 71.56 25.81 71.51 25.81 71.47 25.82 71.42 25.82 71.38 25.82 71.33 25.82 71.29 25.82 71.25 25.83 71.2 25.83 71.17 25.83 71.12 25.84 71.08 25.84 71.04 25.84 71 25.85 70.97 25.85 70.93 25.86 70.9"/>
    <line class="cls-1" x1="27.75" y1="72.07" x2="27.75" y2="69.17"/>
    <polyline class="cls-1" points="26.24 69.19 26.24 71.15 26.24 71.13 26.17 72.16 26.17 72.17 26.17 72.18 26.17 72.19 26.16 72.2 26.16 72.22 26.16 72.23 26.16 72.24 26.16 72.25 26.16 72.27 26.16 72.28 26.15 72.29 26.15 72.3 26.15 72.31 26.15 72.32 26.15 72.33 26.15 72.34 26.14 72.35 26.14 72.36 26.14 72.37 26.14 72.37 26.14 72.38 26.13 72.39 26.13 72.39 26.13 72.4 26.13 72.41 26.12 72.41 26.12 72.42 26.12 72.42 26.12 72.42 26.11 72.43 26.11 72.43 26.11 72.43 26.11 72.43 26.11 72.43 26.1 72.44 26.1 72.44 26 72.44 26.01 72.42 26.01 72.43 26.01 72.43 26 72.43 26 72.43 26 72.44 26 72.44 26 72.44 25.99 72.44 25.99 72.43 25.99 72.43 25.98 72.43 25.98 72.43 25.98 72.43 25.98 72.42 25.97 72.42 25.97 72.41 25.97 72.41 25.97 72.41 25.96 72.4 25.96 72.39 25.96 72.39 25.96 72.38 25.95 72.37 25.95 72.36 25.95 72.36 25.95 72.35 25.95 72.34 25.95 72.33 25.94 72.32 25.94 72.31 25.94 72.3 25.94 72.29 25.94 72.27 25.93 72.26 25.93 72.25 25.93 72.24 25.93 72.23 25.93 72.21 25.93 72.2 25.93 72.19 25.92 72.17 25.92 72.16 25.92 72.15 25.92 72.13 25.86 71.16 25.86 71.18 25.86 69.19"/>
    <polyline class="cls-1" points="47.38 68.94 47.37 68.97 47.37 69 47.36 69.04 47.36 69.08 47.35 69.12 47.35 69.16 47.35 69.2 47.34 69.25 47.34 69.29 47.34 69.33 47.34 69.37 47.33 69.42 47.33 69.46 47.33 69.51 47.33 69.55 47.33 69.6 47.33 69.64 47.33 69.69 47.32 69.73 47.32 69.78 47.32 69.82 47.32 69.87 47.32 69.92 47.32 69.96 47.32 70.01 47.32 70.06 47.32 70.1 47.32 70.15 47.32 70.19 47.33 70.24 47.33 70.29 47.33 70.33 47.33 70.38 47.33 70.42 47.34 70.47 47.34 70.51 47.34 70.56 47.34 70.6 47.35 70.64 47.35 70.69 47.35 70.73 47.36 70.77 47.36 70.82 47.37 70.86 47.37 70.9 47.37 70.94 47.38 70.98 47.38 71.02 47.39 71.06 47.39 71.09 47.4 71.13 47.4 71.17 47.41 71.2 47.41 71.23 47.42 71.27 47.43 71.3 47.43 71.33 47.44 71.36 47.44 71.39 47.45 71.42 47.46 71.45 47.46 71.48 47.47 71.5 47.48 71.53 47.48 71.56 47.49 71.58 47.5 71.6 47.51 71.62 47.51 71.64 47.52 71.66 47.53 71.67 47.54 71.69 47.54 71.71 47.55 71.72 47.56 71.73 47.56 71.75 47.57 71.76 47.58 71.77 47.59 71.78 47.59 71.78 47.6 71.79 47.61 71.79 47.62 71.8 47.63 71.8 47.64 71.8 47.64 71.8 47.65 71.8 47.66 71.79 47.67 71.79 47.67 71.78 47.68 71.78 47.69 71.77 47.7 71.76 47.7 71.75 47.71 71.74 47.72 71.73 47.73 71.72 47.73 71.7 47.74 71.69 47.75 71.67 47.76 71.65 47.76 71.63 47.77 71.61 47.78 71.59 47.78 71.57 47.79 71.55 47.8 71.52 47.8 71.5 47.81 71.47 47.81 71.44 47.82 71.41 47.83 71.38 47.83 71.35 47.84 71.32 47.84 71.29 47.85 71.25 47.85 71.22 47.86 71.19 47.86 71.15 47.87 71.11 47.87 71.08 47.88 71.04 47.88 71 47.89 70.96 47.89 70.92 47.89 70.88 47.9 70.84 47.9 70.8 47.9 70.76 47.9 70.72 47.91 70.67 47.91 70.63 47.91 70.58 47.91 70.54 47.91 70.5 47.92 70.45 47.92 70.41 47.92 70.36 47.92 70.31 47.92 70.27 47.92 70.22 47.92 70.18 47.92 70.13 47.92 70.08 47.92 70.04 47.92 69.99 47.92 69.94 47.92 69.9 47.92 69.85 47.92 69.8 47.92 69.76 47.91 69.71 47.91 69.67 47.91 69.62 47.91 69.58 47.91 69.53 47.9 69.49 47.9 69.44 47.9 69.4 47.89 69.36 47.89 69.31 47.89 69.27 47.88 69.23 47.88 69.19 47.88 69.15 47.87 69.11 47.87 69.07 47.86 69.03 47.86 68.99 47.85 68.95 47.85 68.92 47.84 68.88 47.84 68.84 47.83 68.81 47.82 68.78 47.82 68.74 47.81 68.71 47.81 68.68 47.8 68.65"/>
    <polyline class="cls-1" points="49.27 68.64 49.27 70.14 49.27 70.14 49.27 70.18 49.27 70.23 49.27 70.28 49.27 70.32 49.27 70.37 49.27 70.41 49.26 70.46 49.26 70.5 49.26 70.55 49.26 70.59 49.26 70.63 49.25 70.68 49.25 70.72 49.25 70.76 49.24 70.81 49.24 70.85 49.24 70.89 49.23 70.93 49.23 70.97 49.23 71.01 49.22 71.05 49.22 71.08 49.21 71.12 49.21 71.16 49.2 71.19 49.2 71.23 49.19 71.26 49.19 71.29 49.18 71.33 49.18 71.36 49.17 71.39 49.17 71.42 49.16 71.44 49.15 71.47 49.15 71.5 49.14 71.53 49.13 71.55 49.13 71.57 49.12 71.59 49.11 71.62 49.11 71.64 49.1 71.66 49.09 71.68 49.09 71.69 49.08 71.71 49.07 71.72 49.06 71.73 49.06 71.75 49.05 71.76 49.04 71.77 49.03 71.78 49.03 71.78 49.02 71.79 49.01 71.8 49 71.8 49 71.8 48.99 71.8 48.98 71.8 47.58 71.81"/>
    <line class="cls-1" x1="22.87" y1="68.16" x2="22.87" y2="69.35"/>
    <polyline class="cls-1" points="21.08 70.68 21.07 70.69 21.07 70.69 21.07 70.69 21.07 70.69 21.06 70.69"/>
    <polyline class="cls-1" points="21.36 67.62 21.35 69.54 21.29 70.46 21.29 70.47 21.28 70.48 21.28 70.49 21.28 70.5 21.28 70.52 21.28 70.53 21.28 70.54 21.28 70.55 21.28 70.56 21.27 70.58 21.27 70.59 21.27 70.6 21.27 70.61 21.27 70.62 21.27 70.63 21.26 70.64 21.26 70.64 21.26 70.65 21.26 70.66 21.25 70.67 21.25 70.67 21.25 70.68 21.25 70.69 21.25 70.69 21.24 70.69 21.24 70.7 21.24 70.7 21.24 70.71 21.23 70.71 21.23 70.71 21.23 70.72 21.23 70.72 21.23 70.72 21.22 70.72 21.22 70.72 21.11 70.72 21.11 70.72 21.11 70.72 21.11 70.72 21.1 70.71 21.1 70.71 21.1 70.71 21.1 70.71 21.09 70.7 21.09 70.7 21.09 70.69 21.09 70.69 21.08 70.68 21.08 70.67 21.08 70.67 21.08 70.66 21.07 70.65 21.07 70.64 21.07 70.64 21.07 70.63 21.07 70.62 21.06 70.61 21.06 70.6 21.06 70.59 21.06 70.58 21.06 70.57 21.06 70.55 21.05 70.54 21.05 70.53 21.05 70.52 21.05 70.51 21.05 70.49 21.05 70.48 21.05 70.47 21.04 70.45 21.04 70.44 21.04 70.42 21.04 70.41 21.04 70.4 20.98 69.32 20.98 67.48"/>
    <polyline class="cls-1" points="20.98 69.18 20.97 69.21 20.97 69.25 20.96 69.29 20.96 69.33 20.96 69.37 20.95 69.41 20.95 69.45 20.95 69.49 20.94 69.53 20.94 69.57 20.94 69.62 20.93 69.66 20.93 69.7 20.93 69.75 20.93 69.79 20.93 69.84 20.93 69.89 20.93 69.93 20.92 69.97 20.92 70.02 20.92 70.07 20.92 70.11 20.92 70.16 20.92 70.21 20.92 70.25 20.92 70.3 20.92 70.34 20.92 70.39 20.93 70.44 20.93 70.48 20.93 70.53 20.93 70.58 20.93 70.62 20.93 70.67 20.94 70.71 20.94 70.76 20.94 70.8 20.94 70.85 20.95 70.89 20.95 70.93 20.95 70.98 20.96 71.02 20.96 71.06 20.96 71.1 20.97 71.14 20.97 71.18 20.98 71.22 20.98 71.26 20.99 71.3 20.99 71.34 21 71.37 21 71.41 21.01 71.44 21.01 71.48 21.02 71.51 21.03 71.54 21.03 71.58 21.04 71.61 21.05 71.64 21.05 71.67 21.06 71.69 21.06 71.72 21.07 71.75 21.08 71.77 21.08 71.8 21.09 71.82 21.1 71.84 21.11 71.86 21.11 71.88 21.12 71.9 21.13 71.92 21.14 71.94 21.14 71.95 21.15 71.96 21.16 71.98 21.16 71.99 21.17 72 21.18 72.01 21.19 72.02 21.2 72.03 21.2 72.03 21.21 72.03 21.22 72.04 21.23 72.04 21.24 72.04 21.24 72.04 21.25 72.04 21.26 72.04 21.27 72.03 21.27 72.03 21.28 72.02 21.29 72.02 21.3 72.01 21.3 72 21.31 71.98 21.32 71.97 21.33 71.96 21.34 71.94 21.34 71.93 21.35 71.91 21.36 71.89 21.36 71.88 21.37 71.85 21.38 71.83 21.39 71.81 21.39 71.79 21.4 71.76 21.4 71.74 21.41 71.71 21.42 71.68 21.42 71.66 21.43 71.63 21.43 71.59 21.44 71.56 21.44 71.53 21.45 71.5 21.45 71.47 21.46 71.43 21.46 71.4 21.47 71.36 21.47 71.32 21.48 71.28 21.48 71.24 21.48 71.2 21.49 71.17 21.49 71.13 21.5 71.08 21.5 71.04 21.5 71 21.5 70.96 21.51 70.92 21.51 70.87 21.51 70.83 21.51 70.78 21.52 70.74 21.52 70.69 21.52 70.65 21.52 70.6 21.52 70.56 21.52 70.51 21.52 70.47 21.52 70.42 21.52 70.37 21.52 70.33 21.52 70.28 21.52 70.23 21.52 70.19 21.52 70.14 21.52 70.09 21.52 70.05 21.52 70 21.52 69.96 21.51 69.91 21.51 69.87 21.51 69.82 21.51 69.78 21.5 69.73 21.5 69.69 21.5 69.64 21.49 69.6 21.49 69.56 21.49 69.52 21.48 69.47 21.48 69.43 21.48 69.39 21.47 69.35 21.47 69.31 21.46 69.27 21.46 69.23 21.45 69.2 21.45 69.16 21.44 69.12 21.44 69.09 21.43 69.05 21.43 69.02 21.42 68.99 21.41 68.95 21.41 68.92 21.4 68.89 21.39 68.87 21.39 68.84 21.38 68.81 21.38 68.78 21.37 68.76 21.36 68.74 21.36 68.72"/>
    <polyline class="cls-1" points="21.25 72.02 22.64 72.01 22.64 72.01 22.64 72.01 22.65 72.01 22.66 72 22.67 72 22.67 72 22.68 71.99 22.69 71.98 22.7 71.97 22.7 71.96 22.71 71.95 22.72 71.94 22.73 71.93 22.73 71.91 22.74 71.9 22.75 71.88 22.76 71.86 22.76 71.84 22.77 71.82 22.77 71.8 22.78 71.78 22.79 71.76 22.8 71.73 22.8 71.71 22.81 71.68 22.81 71.65 22.82 71.62 22.83 71.59 22.83 71.56 22.84 71.53 22.84 71.5 22.85 71.47 22.85 71.43 22.86 71.4 22.86 71.36 22.87 71.33 22.87 71.29 22.88 71.25 22.88 71.21 22.89 71.17 22.89 71.13 22.89 71.09 22.9 71.05 22.9 71.01 22.9 70.97 22.9 70.93 22.91 70.89 22.91 70.84 22.91 70.8 22.91 70.75 22.91 70.71 22.92 70.66 22.92 70.62 22.92 70.57 22.92 70.53 22.92 70.48 22.92 70.43 22.92 70.39 22.92 70.34 22.92 70.36 22.92 70.31 22.92 70.27 22.92 70.22 22.92 70.17 22.92 70.13 22.92 70.08 22.92 70.04 22.92 69.99 22.91 69.94 22.91 69.9 22.91 69.85 22.91 69.81 22.91 69.76 22.9 69.72 22.9 69.67 22.9 69.63 22.89 69.59 22.89 69.54 22.89 69.5 22.88 69.46 22.88 69.42 22.88 69.38 22.87 69.34 22.87 69.3 22.86 69.26 22.86 69.22 22.85 69.18 22.85 69.15 22.84 69.11 22.84 69.08 22.83 69.04 22.83 69.01 22.82 68.97 22.81 68.94 22.81 68.91 22.8 68.88 22.8 68.85 22.79 68.83 22.78 68.8 22.77 68.77 22.77 68.75 22.76 68.72 22.75 68.7 22.75 68.68 22.74 68.66 22.73 68.64 22.73 68.62 22.72 68.6 22.71 68.58 22.7 68.57 22.7 68.56 22.69 68.54 22.68 68.53 22.67 68.52 22.66 68.51 22.66 68.5 22.65 68.49 22.64 68.49 22.63 68.48 22.63 68.48 22.62 68.48 22.61 68.48 22.61 68.48 21.36 68.49"/>
    <polyline class="cls-1" points="54.85 67.12 52.18 67.15 52.18 67.14 51.27 66.82 51.27 66.82 26.64 67.05 26.66 52.13"/>
    <line class="cls-1" x1="52.18" y1="67.14" x2="52.18" y2="68.95"/>
    <polyline class="cls-1" points="53.95 51.88 53.93 66.8 53.93 66.79 54.85 67.12 54.85 68.92 54.85 68.92 52.18 68.94 51.26 68.62 28.45 68.83"/>
    <line class="cls-1" x1="25.78" y1="69.19" x2="25.78" y2="67.39"/>
    <polyline class="cls-1" points="20.29 65.44 25.78 67.39 28.45 67.36"/>
    <polyline class="cls-1" points="27.54 67.04 28.45 67.36 28.45 69.16 25.78 69.19 20.29 67.24 20.29 65.44 21.2 65.43"/>
    <polyline class="cls-1" points="20.14 48.26 20.14 50.06 25.97 52.14"/>
    <polyline class="cls-1" points="55.05 49.23 55.04 51.87 55.04 51.87 52.37 51.9 51.92 51.74 28.64 51.95 28.64 52.11 25.97 52.14 25.99 49.5"/>
    <polyline class="cls-1" points="32.25 29 32.25 30.46 32.61 31 34.71 30.93 34.71 28.96"/>
    <polyline class="cls-1" points="32.31 26.99 32.35 27.01 32.36 27.01"/>
    <path class="cls-1" d="M27.87,1.27h0"/>
    <line class="cls-1" x1="27.89" y1="1.27" x2="34.7" y2="1.21"/>
    <path class="cls-1" d="M34.89,1.26a.34.34,0,0,0-.17-.05"/>
    <path class="cls-1" d="M34.7,1.21h0"/>
    <line class="cls-1" x1="51.93" y1="24.24" x2="37.54" y2="24.37"/>
    <line class="cls-1" x1="29.68" y1="24.44" x2="26.83" y2="24.47"/>
    <line class="cls-1" x1="51.93" y1="24.26" x2="51.93" y2="24.24"/>
    <path class="cls-1" d="M25.84,23.24v0"/>
    <path class="cls-1" d="M55,23A.09.09,0,0,0,55,23"/>
    <polyline class="cls-1" points="37.53 24.37 54.99 24.21 55 23.02 54.96 22.9 52.99 19.71"/>
    <polyline class="cls-1" points="52.99 19.71 52.99 19.7 52.98 19.68 52.97 19.67 52.95 19.66 52.94 19.64 52.92 19.64 52.9 19.63 52.89 19.62 52.87 19.62 52.85 19.61 52.84 19.61 52.82 19.61"/>
    <line class="cls-1" x1="52.64" y1="19.55" x2="52.82" y2="19.61"/>
    <path class="cls-1" d="M52.7,19.55s0,0-.05,0"/>
    <polyline class="cls-1" points="20.47 22.48 25.84 24.48 29.87 24.45"/>
    <line class="cls-1" x1="19.71" y1="22.72" x2="19.71" y2="22.72"/>
    <polyline class="cls-1" points="43.11 28.88 48.63 30.84 48.63 30.84 51.37 30.82"/>
    <polyline class="cls-1" points="52.4 24.62 52.7 24.3 52.37 24.63 52.36 24.64 52.35 24.65 52.34 24.66 52.32 24.67 52.31 24.68 52.3 24.69 52.29 24.7 52.28 24.71 52.27 24.72 52.26 24.73 52.25 24.75 52.24 24.76 48.68 29.95 48.67 29.96 48.66 29.97 48.66 29.98 48.66 29.99 48.65 30 48.65 30.01 48.64 30.02 48.64 30.03 48.64 30.04 48.64 30.05 48.64 30.06 48.64 30.07 48.64 30.08 48.63 30.84"/>
    <polyline class="cls-1" points="54.74 24.6 54.73 24.6 54.72 24.59 54.71 24.59"/>
    <polyline class="cls-1" points="47.67 36.03 41.36 33.79 41.35 33.79 41.33 33.78 41.31 33.77 41.3 33.76 41.28 33.75 41.26 33.74 41.24 33.73 41.22 33.73 41.2 33.72 41.19 33.7 41.17 33.69 41.15 33.68 41.13 33.67 41.12 33.66 41.1 33.64 41.08 33.63 41.07 33.62 41.05 33.6 41.04 33.59 41.02 33.57 41.01 33.56 41 33.54 40.98 33.53 40.97 33.51 40.95 33.49 40.94 33.48 40.93 33.46 40.92 33.44 40.91 33.42 40.9 33.41 40.89 33.39 40.88 33.37 40.87 33.35 40.86 33.33 40.85 33.31 40.84 33.29 40.83 33.27 40.83 33.26 40.82 33.24 40.81 33.22 40.81 33.2 40.8 33.17 40.8 33.16 40.79 33.13 40.78 33.11 40.78 33.09 40.78 33.07 40.78 33.05 40.77 33.03 40.77 33.01 40.77 32.99 40.77 32.97 40.77 32.95 40.77 28.9"/>
    <polyline class="cls-1" points="24.97 45.56 24.96 45.56 24.95 45.56 24.95 45.56 24.94 45.56 24.93 45.56 24.92 45.56 24.91 45.56 24.91 45.56 24.9 45.56 24.89 45.56 24.89 45.56 24.88 45.56 24.87 45.56 24.87 45.56 24.86 45.56 24.86 45.56 24.85 45.56 24.85 45.56 24.84 45.56 24.84 45.56 24.84 45.56 24.84 45.56 24.83 45.56 24.83 45.56"/>
    <polyline class="cls-1" points="28.68 33.66 28.66 45.49 28.66 45.49 28.66 45.49 28.66 45.49 28.66 45.49 28.66 45.49 28.65 45.49 28.65 45.5 28.65 45.5 28.64 45.5 28.64 45.5 28.63 45.5 28.63 45.5 28.62 45.5 28.61 45.5 28.61 45.51 28.6 45.51 28.59 45.51 28.58 45.51 28.58 45.51 28.57 45.51 28.56 45.51 28.55 45.51 28.54 45.51 28.52 45.51 28.52 45.52 28.5 45.52 28.49 45.52 28.48 45.52 28.46 45.52 28.45 45.52 28.44 45.52 28.42 45.52 28.41 45.52 28.4 45.52 28.38 45.52 28.36 45.52 28.35 45.52 28.34 45.52 28.32 45.52 28.3 45.53 28.29 45.53 28.27 45.53 28.25 45.53 28.23 45.53 28.21 45.53 28.2 45.53 28.18 45.53 28.16 45.53 28.14 45.53 28.13 45.53 28.11 45.53 28.09 45.53 28.07 45.53 27.58 45.54 27.58 45.54 24.97 45.56"/>
    <line class="cls-1" x1="53.99" y1="45.31" x2="53.99" y2="45.29"/>
    <polyline class="cls-1" points="25.99 49.5 25.99 49.5 25.99 45.95 55.05 45.68 55.05 49.23 55.05 49.23 25.99 49.5"/>
    <polyline class="cls-1" points="25.99 45.95 24.9 45.56 24.83 45.56 24.85 33.29 24.84 32.97 26.78 33.65"/>
    <line class="cls-1" x1="46.52" y1="43.63" x2="28.66" y2="43.79"/>
    <line class="cls-1" x1="53.94" y1="45.3" x2="55.05" y2="45.68"/>
    <line class="cls-1" x1="49.65" y1="43.84" x2="50.77" y2="44.22"/>
    <polyline class="cls-1" points="37.24 18.1 36.97 2.95 37.24 18.14 37.24 18.19 37.24 18.24 37.24 18.29 37.24 18.33 37.25 18.38 37.25 18.43 37.25 18.47 37.25 18.52 37.25 18.56 37.25 18.6 37.26 18.64 37.26 18.68 37.26 18.71 37.26 18.75 37.26 18.78 37.27 18.81 37.27 18.84 37.27 18.87 37.27 18.9 37.27 18.93 37.27 18.96 37.28 18.98 37.28 19 37.28 19.02 37.28 19.05 37.28 19.06 37.28 19.08 37.28 19.09 37.29 19.11 37.29 19.12 37.29 19.13 37.29 19.14 37.29 19.14 37.29 19.15 37.29 19.15 37.29 19.16 37.29 19.16 37.29 19.17 37.29 19.17 37.29 19.18 37.29 19.19 37.3 19.2 37.3 19.21 37.3 19.23 37.3 19.24 37.3 19.25 37.3 19.27 37.3 19.3 37.31 19.33 37.31 19.36 37.31 19.39 37.32 19.41 37.32 19.43 37.32 19.45 37.33 19.47 37.33 19.49 37.33 19.5 37.33 19.52 37.33 19.53 37.33 19.54 37.34 19.55 37.34 19.56 37.34 19.57 37.34 19.59 37.34 19.6 37.34 19.61 37.35 19.63 37.35 19.64 37.35 19.66 37.35 19.68 37.36 19.71 37.36 19.73 37.37 19.75 37.37 19.76 37.37 19.77 37.37 19.78 37.37 19.79 37.37 19.79 37.37 19.8 37.37 19.8 37.37 19.8 37.38 19.8 37.38 19.8 37.38 19.81 37.38 19.81 37.38 19.82 37.38 19.83 37.38 19.84 37.38 19.85 37.38 19.86 37.55 20.74 37.56 20.76 37.56 20.77 37.56 20.78 37.56 20.8 37.56 20.81 37.57 20.82 37.57 20.83 37.57 20.84 37.57 20.85 37.58 20.87 37.58 20.9 37.59 20.92 37.59 20.95 37.59 20.96 37.59 20.97 37.59 20.98 37.6 20.99 37.6 20.99 37.6 21 37.6 21 37.6 21.01 37.6 21.02 37.6 21.02 37.6 21.03 37.6 21.04 37.61 21.05 37.61 21.06 37.61 21.08 37.61 21.09 37.61 21.11 37.61 21.12 37.62 21.13 37.62 21.15 37.62 21.17 37.62 21.19 37.63 21.2 37.63 21.22 37.63 21.23 37.63 21.25 37.63 21.26 37.63 21.28 37.64 21.29 37.64 21.31 37.64 21.33 37.64 21.35 37.65 21.37 37.65 21.38 37.65 21.4 37.65 21.42 37.65 21.43 37.65 21.45 37.66 21.46 37.66 21.48 37.66 21.5 37.66 21.52 37.66 21.54 37.67 21.56 37.67 21.58 37.67 21.6 37.67 21.62 37.67 21.64 37.67 21.65 37.67 21.66 37.68 21.68 37.68 21.7 37.68 21.72 37.68 21.74 37.68 21.76 37.68 21.78 37.69 21.8 37.69 21.83 37.69 21.86 37.69 21.88 37.69 21.91 37.7 21.94 37.7 21.98 37.7 22 37.7 22.04 37.7 22.07 37.7 22.09 37.71 22.12 37.71 22.14 37.71 22.16 37.71 22.18 37.71 22.2 37.71 22.21 37.71 22.22 37.71 22.23 37.71 22.25 37.71 22.25 37.71 22.26 37.71 22.27 37.72 22.28 37.72 22.29 37.72 22.31 37.72 22.32 37.72 22.34 37.72 22.36 37.72 22.38 37.72 22.4 37.72 22.42 37.72 22.45 37.72 22.48 37.72 22.51 37.72 22.54 37.73 22.57 37.73 22.61 37.73 22.65 37.73 22.69 37.73 22.73 37.73 22.77 37.73 22.81 37.73 22.85 37.73 22.89 37.73 22.93 37.73 22.97 37.73 23.02 37.73 23.06 37.73 23.12 37.73 23.15 37.73 23.19 37.73 23.23 37.73 23.27 37.73 23.31 37.73 23.35 37.72 23.39 37.72 23.44 37.72 23.48 37.71 23.52 37.71 23.56 37.7 23.6 37.7 23.64 37.69 23.68 37.69 23.72 37.68 23.76 37.67 23.8 37.67 23.84 37.66 23.88 37.65 23.92 37.65 23.95 37.64 23.99 37.63 24.03 37.62 24.07 37.61 24.11 37.6 24.14 37.59 24.18 37.58 24.22 37.57 24.25 37.56 24.29 37.55 24.32 37.54 24.35 37.53 24.39 37.52 24.41 37.51 24.44 37.51 24.46 37.49 24.5 37.49 24.52 37.48 24.54 37.47 24.57 37.46 24.6 37.44 24.63 37.43 24.66 37.41 24.7 37.4 24.74 37.38 24.77 37.37 24.81 37.35 24.85 37.34 24.88 37.32 24.92 37.3 24.95 37.28 24.99 37.26 25.02 37.24 25.06 37.23 25.09 37.21 25.13 37.19 25.17 37.17 25.2 37.15 25.23 37.13 25.27 37.1 25.31 37.08 25.34 37.05 25.38 37.03 25.42 37.01 25.46 36.98 25.49 36.95 25.53 36.93 25.56 36.9 25.6 36.88 25.63 36.85 25.67 36.82 25.7 36.79 25.74 36.77 25.77 36.74 25.8 36.71 25.84 36.68 25.87 36.65 25.9 36.62 25.93 36.59 25.97 36.56 26 36.53 26.03 36.5 26.06 36.47 26.09 36.44 26.12 36.41 26.15 36.38 26.18 36.34 26.21 36.31 26.23 36.28 26.26 36.24 26.29 36.21 26.32 36.18 26.34 36.14 26.37 36.11 26.4 36.08 26.42 36.04 26.45 36.01 26.47 35.97 26.5 35.94 26.52 35.9 26.55 35.87 26.57 35.83 26.59 35.79 26.62 35.76 26.64 35.72 26.66 35.68 26.68 35.65 26.7 35.61 26.73 35.57 26.75 35.53 26.77 35.5 26.79 35.46 26.8 35.42 26.82 35.38 26.84 35.34 26.86 35.3 26.88 35.27 26.89 35.23 26.91 35.19 26.93 35.15 26.94 35.11 26.96 35.07 26.98 35.03 26.99 34.99 27 34.95 27.02 34.91 27.03 34.87 27.04 34.83 27.05 34.79 27.07 34.74 27.08 34.7 27.09 34.66 27.1 34.62 27.11 34.58 27.12 34.54 27.13 34.5 27.14 34.46 27.15 34.41 27.16 34.38 27.17 34.33 27.17 34.29 27.18 34.25 27.19 34.21 27.19 34.17 27.2 34.12 27.2 34.08 27.21 34.04 27.21 34 27.21 33.96 27.22 33.91 27.22 33.87 27.22 33.83 27.23 33.79 27.23 33.74 27.23 33.7 27.23 33.66 27.23 33.62 27.23 33.58 27.23 33.54 27.23 33.49 27.23 33.45 27.22 33.41 27.22 33.37 27.22 33.33 27.22 33.28 27.21 33.24 27.21 33.2 27.2 33.16 27.2 33.12 27.19 33.08 27.18 33.03 27.18 32.99 27.17 32.95 27.16 32.91 27.16 32.87 27.15 32.83 27.14 32.79 27.13 32.74 27.12 32.7 27.11 32.66 27.1 32.63 27.09 32.58 27.08 32.54 27.07 32.5 27.06 32.46 27.05 32.42 27.03 32.38 27.02 32.36 27.01 32.31 26.99 32.25 26.97 32.16 26.93 32.06 26.89 31.96 26.85 31.87 26.8 31.78 26.75 31.68 26.7 31.59 26.65 31.5 26.59 31.42 26.53 31.33 26.47 31.25 26.41 31.16 26.34 31.08 26.28 31 26.21 30.93 26.13 30.85 26.06 30.78 25.98 30.7 25.91 30.64 25.83 30.57 25.75 30.5 25.66 30.44 25.58 30.38 25.49 30.32 25.4 30.27 25.31 30.21 25.22 30.16 25.13 30.11 25.04 30.06 24.94 30.02 24.84 29.98 24.75 29.94 24.65 29.9 24.55 29.87 24.45 29.84 24.34 29.81 24.24 29.79 24.14 29.76 24.04 29.74 23.93 29.72 23.83 29.71 23.72 29.7 23.61 29.69 23.51 29.68 23.4 29.68 23.3 29.68 23.19 29.68 23.13 29.68 23.06 29.68 22.99 29.67 22.92 29.67 22.85 29.67 22.78 29.67 22.71 29.67 22.65 29.67 22.58 29.66 22.51 29.66 22.45 29.66 22.38 29.66 22.31 29.65 22.24 29.65 22.18 29.64 22.11 29.64 22.05 29.64 21.98 29.63 21.92 29.63 21.85 29.62 21.79 29.62 21.73 29.61 21.67 29.6 21.61 29.6 21.55 29.59 21.49 29.59 21.43 29.58 21.37 29.57 21.31 29.56 21.26 29.56 21.2 29.55 21.15 29.54 21.09 29.53 21.04 29.52 20.98 29.51 20.93 29.5 20.88 29.33 20 29.32 19.95 29.32 19.91 29.31 19.86 29.3 19.81 29.29 19.76 29.29 19.71 29.28 19.66 29.27 19.61 29.27 19.56 29.26 19.51 29.26 19.45 29.25 19.4 29.24 19.34 29.24 19.28 29.23 19.23 29.23 19.17 29.22 19.11 29.22 19.05 29.21 18.99 29.21 18.93 29.21 18.87 29.2 18.81 29.2 18.74 29.2 18.68 29.19 18.62 29.19 18.56 29.19 18.49 29.19 18.43 29.19 18.37 29.19 18.3 29.18 18.24 28.99 2.98 28.98 2.58 27.54 1.55"/>
    <polyline class="cls-1" points="25.84 23.24 25.84 24.48 25.84 23.29 25.84 23.28 23.73 19.86"/>
    <polyline class="cls-1" points="24.9 29.81 19.88 28.02 19.86 28.02 19.85 28.01 19.84 28.01 19.84 28 19.82 28 19.82 27.99 19.81 27.98 19.8 27.98 19.79 27.97 19.78 27.96 19.77 27.95 19.77 27.94 19.76 27.94 19.75 27.93 19.75 27.92 19.74 27.91 19.74 27.9 19.73 27.89 19.73 27.88 19.72 27.87 19.72 27.86 19.71 27.84 19.71 27.84 19.71 27.82 19.71 27.81 19.71 27.8 19.71 27.79 19.71 27.78 19.71 22.72 19.71 22.71 19.71 22.7 19.71 22.68 19.72 22.68 19.72 22.66 19.72 22.65 19.73 22.64 19.73 22.63 19.73 22.62 19.74 22.61 19.74 22.6 19.75 22.59 19.75 22.59 19.76 22.58 19.77 22.57 19.77 22.56 19.78 22.55 19.79 22.55 19.8 22.54 19.81 22.53 19.81 22.53 19.83 22.52 19.83 22.52 19.84 22.51 19.85 22.51 19.86 22.5 19.87 22.5 19.88 22.5 19.89 22.49 19.9 22.49 19.91 22.49 19.93 22.49 19.94 22.49 20.47 22.48 20.47 22.48 20.48 22.48 20.49 22.48 20.5 22.48 20.52 22.48 20.52 22.49 20.53 22.49 20.54 22.49 20.54 22.49 23.66 23.6"/>
    <line class="cls-1" x1="19.94" y1="22.49" x2="19.94" y2="22.49"/>
    <polyline class="cls-1" points="19.71 27.78 19.7 27.78 19.7 27.78"/>
    <path class="cls-1" d="M26.46,24.81h.6a.31.31,0,0,1,.11.08L30.75,30a.2.2,0,0,1,0,.13v.74l0,.07a.24.24,0,0,1-.21.16h-.43v2.1h0a.47.47,0,0,1-.46.46l-2.75,0-.16,0h-.14v0h-.07v0h0v0h0v0h0v0h0v0h0v0h0v0h0V30.44h0v0h0l-.08-.05h-.15v0h0v0h0V25h.22Z"/>
    <polyline class="cls-1" points="20.02 28.14 20.02 30.93 20.02 30.93 20.02 30.94 20.02 30.96 20.02 30.97 20.03 30.99 20.03 31 20.03 31.02 20.03 31.03 20.04 31.05 20.04 31.06 20.05 31.07 20.05 31.09 20.06 31.1 20.06 31.11 20.07 31.13 20.08 31.14 20.08 31.16 20.09 31.17 20.1 31.18 20.11 31.19 20.11 31.2 20.13 31.22 20.13 31.23 20.14 31.24 20.16 31.25 20.16 31.26 20.18 31.27 20.19 31.28 20.2 31.29 20.21 31.3 20.22 31.31 20.24 31.32 20.25 31.32 20.26 31.33 20.28 31.34 20.29 31.34 20.3 31.35 20.32 31.36 20.32 31.36 21.19 31.66 21.19 31.99 21.18 31.99 21.18 31.99 21.19 31.99 21.17 43.86 20.14 43.87 20.14 48.26"/>
    <path class="cls-1" d="M51.79,33.45l2.75,0A.45.45,0,0,0,55,33V30.2l-3.66,0V33h0v0h0v0h0v0h0v0h0v0h0v0h0v0h.05v0h.16a.41.41,0,0,0,.16,0"/>
    <polyline class="cls-1" points="46.53 35.63 46.52 44.06 46.89 44.23 46.91 44.23 49.65 44.23 49.66 36.08 47.95 36.08 47.93 36.08 47.91 36.08 47.89 36.08 47.87 36.08 47.85 36.08 47.83 36.07 47.81 36.07 47.79 36.06 47.77 36.06 47.75 36.05 47.73 36.05 47.71 36.04 47.69 36.04 47.67 36.03 47.65 36.02 47.63 36.02 47.61 36.01 47.59 36 47.57 35.99 47.55 35.98 47.53 35.97 47.52 35.96 47.5 35.95 47.48 35.94 47.47 35.92 47.45 35.91 47.43 35.9 47.41 35.89 47.4 35.87 47.38 35.86 47.37 35.84 47.35 35.83 47.34 35.82 47.32 35.8 47.31 35.79 47.3 35.77 47.28 35.75 47.27 35.74 47.26 35.72 47.25 35.7 47.23 35.69 47.22 35.67 47.21 35.65 47.2 35.63 47.19 35.61 47.18 35.6 47.17 35.58 47.16 35.56 47.16 35.54 47.15 35.52 47.14 35.5 47.13 35.48 47.13 35.46 47.12 35.44 47.12 35.42 47.11 35.4 47.1 35.38 47.1 35.36 47.1 35.34 47.1 35.32 47.09 35.3 47.09 35.27 47.09 35.25 47.09 35.23 47.09 35.21 47.09 35.19 47.09 30.29"/>
    <polyline class="cls-1" points="50.79 30.84 50.77 45.12 51.27 45.31 51.28 45.32 53.89 45.3 53.9 45.3 53.9 45.3 53.91 45.3 53.92 45.3 53.93 45.3 53.93 45.3 53.94 45.3 53.95 45.3 53.95 45.3 53.96 45.3 53.96 45.29 53.97 45.29 53.98 45.29 53.98 45.29 53.98 45.29 53.99 45.29 53.99 45.29 53.99 45.29 53.99 45.29 54 45.29 54 45.29 54 45.29 54 45.29 54.01 33.43"/>
    <polyline class="cls-1" points="23.66 23.7 23.66 20.01 23.66 20 23.66 19.99 23.66 19.97 23.67 19.96 23.67 19.95 23.68 19.93 23.69 19.92 23.7 19.9 23.71 19.89 23.72 19.88 23.73 19.87 23.75 19.86 23.76 19.85 23.77 19.84 23.79 19.83 23.8 19.83 23.83 19.82 23.85 19.82 23.86 19.81 23.89 19.81 23.91 19.81 23.89 19.81 27.25 19.81 27.25 17.49 27.25 17.49 27.27 2.92 27.55 1.55 27.87 1.27 34.72 1.21 34.89 1.26 36.52 2.28 36.97 2.95 28.99 2.98"/>
  </g>
</svg>