<?xml version="1.0" encoding="utf-8"?>
<svg viewBox="13.3 0.616 47.907 73.768" xmlns="http://www.w3.org/2000/svg">
  <defs>
    <style>.cls-1,.cls-2{fill:none;stroke:#f4f4f4;}.cls-1{stroke-linejoin:round;}.cls-2{stroke-miterlimit:10;}</style>
  </defs>
  <title>f4_7_10_7</title>
  <g id="Linework">
    <line class="cls-1" x1="37.38" y1="29.76" x2="37.38" y2="29.68"/>
    <polyline class="cls-1" points="53.18 20.24 49.81 17.32 49.71 17.25 46.59 20.43"/>
    <line class="cls-1" x1="27.02" y1="35.85" x2="27.04" y2="34.63"/>
    <line class="cls-1" x1="22.01" y1="32.78" x2="21.97" y2="35.2"/>
    <line class="cls-1" x1="53.09" y1="32.12" x2="53.06" y2="34.27"/>
    <line class="cls-1" x1="47.48" y1="29.18" x2="47.47" y2="29.45"/>
    <line class="cls-1" x1="16.42" y1="27.95" x2="16.38" y2="30.37"/>
    <line class="cls-1" x1="47.47" y1="29.45" x2="47.24" y2="45.21"/>
    <line class="cls-1" x1="21.2" y1="46.79" x2="21.41" y2="32.27"/>
    <line class="cls-1" x1="26.78" y1="51.61" x2="27.02" y2="35.85"/>
    <line class="cls-1" x1="21.97" y1="35.2" x2="21.74" y2="50.96"/>
    <line class="cls-1" x1="26.61" y1="70.72" x2="26.62" y2="70.72"/>
    <line class="cls-1" x1="53.06" y1="59.1" x2="53.05" y2="59.09"/>
    <line class="cls-1" x1="20.92" y1="66" x2="21.57" y2="65.98"/>
    <line class="cls-1" x1="52.03" y1="59.05" x2="52.04" y2="58.24"/>
    <line class="cls-1" x1="47.01" y1="58.39" x2="47" y2="59.2"/>
    <line class="cls-1" x1="20.92" y1="66.2" x2="21.03" y2="58.64"/>
    <line class="cls-1" x1="52.68" y1="58.22" x2="52.67" y2="59.03"/>
    <polyline class="cls-2" points="37.95 1.69 38.24 1.94 38.24 1.94 38.37 1.96 39.54 1.93 39.62 1.9"/>
    <line class="cls-2" x1="38.21" y1="1.63" x2="38.28" y2="1.68"/>
    <line class="cls-2" x1="38.29" y1="2.31" x2="38.29" y2="1.96"/>
    <line class="cls-2" x1="38.21" y1="1.69" x2="38.21" y2="1.63"/>
    <polyline class="cls-1" points="38.29 2.31 39.59 2.28 39.53 2.27 39.62 2.25 39.62 1.9 39.34 1.65 39.01 1.66 38.95 1.6 38.21 1.63 38.28 1.68 37.95 1.69 37.95 2.04 38.23 2.29 38.37 2.31 39.53 2.27"/>
    <line class="cls-2" x1="38.29" y1="2.32" x2="38.27" y2="2.3"/>
    <line class="cls-2" x1="39.58" y1="2.26" x2="39.59" y2="2.28"/>
    <line class="cls-1" x1="39.59" y1="2.28" x2="39.35" y2="18.72"/>
    <line class="cls-1" x1="38.29" y1="2.32" x2="38.05" y2="18.76"/>
    <line class="cls-1" x1="37.89" y1="29.77" x2="37.88" y2="30.49"/>
    <line class="cls-1" x1="37.99" y1="2.08" x2="37.69" y2="18.77"/>
    <line class="cls-1" x1="43.77" y1="21.24" x2="33.35" y2="21.51"/>
    <polyline class="cls-1" points="39.4 17.2 39.52 17.24 39.53 17.25 39.54 17.25 39.55 17.26 39.56 17.27 39.57 17.27 39.58 17.28 39.58 17.29 39.59 17.3 39.59 17.31 39.6 17.32 39.61 17.37 39.63 17.41 39.64 17.46 39.65 17.51 39.67 17.56 39.68 17.61 39.7 17.65 39.71 17.7 39.73 17.75 39.74 17.8 39.75 17.85 39.77 17.9 39.78 17.95 39.79 18 39.8 18.05 39.82 18.11 39.83 18.16 39.85 18.21 39.86 18.26 39.87 18.31 39.89 18.37 39.9 18.42 39.91 18.47 39.93 18.53 39.94 18.58 39.94 18.59 39.94 18.6 39.94 18.61 39.94 18.62 39.94 18.63 39.94 18.64 39.93 18.65 39.93 18.66 39.92 18.66 39.92 18.67 39.91 18.68 39.9 18.69 39.89 18.69 39.89 18.7 39.88 18.7 39.87 18.7 39.86 18.7 39.85 18.71 39.84 18.71 39.83 18.71 37.7 18.77 37.69 18.77 37.68 18.77 37.67 18.77 37.66 18.77 37.65 18.76 37.64 18.76 37.63 18.75 37.62 18.75 37.61 18.74 37.6 18.74 37.59 18.73 37.58 18.72 37.57 18.71 37.56 18.7 37.55 18.69 37.55 18.68 37.55 18.67 37.54 18.66 37.54 18.65 37.52 18.6 37.51 18.54 37.5 18.49 37.48 18.44 37.47 18.39 37.46 18.33 37.45 18.28 37.43 18.23 37.42 18.18 37.4 18.13 37.39 18.07 37.38 18.02 37.36 17.97 37.35 17.92 37.34 17.87 37.32 17.82 37.31 17.77 37.3 17.73 37.28 17.68 37.27 17.63 37.25 17.58 37.24 17.53 37.22 17.48 37.21 17.44 37.2 17.39 37.19 17.38 37.19 17.38 37.19 17.37 37.19 17.36 37.2 17.35 37.2 17.34 37.2 17.34 37.21 17.33 37.21 17.32 37.22 17.32 37.22 17.31 37.23 17.31 37.24 17.31 37.24 17.3 37.25 17.3 37.26 17.3 37.27 17.29 37.28 17.29 37.29 17.29 37.3 17.29 37.69 17.28"/>
    <polyline class="cls-1" points="37.27 29.74 37.28 29.75 37.29 29.75 37.3 29.75 37.31 29.75 37.32 29.75 37.33 29.75 37.34 29.76 37.35 29.76 37.35 29.76 37.36 29.76 37.37 29.76 37.37 29.76 37.37 29.76 37.38 29.77 37.38 29.77 37.38 29.77 37.37 29.77"/>
    <line class="cls-1" x1="37.32" y1="29.77" x2="37.37" y2="29.77"/>
    <path class="cls-1" d="M37.32,29.77l.26,0"/>
    <polyline class="cls-1" points="33.41 25.12 33.41 25.2 33.41 25.27 33.41 25.35 33.42 25.43 33.42 25.5 33.42 25.58 33.43 25.66 33.44 25.73 33.45 25.8 33.46 25.87 33.47 25.94 33.48 26.01 33.49 26.09 33.51 26.16 33.52 26.23 33.53 26.3 33.55 26.37 33.57 26.44 33.59 26.51 33.61 26.58 33.63 26.65 33.65 26.72 33.68 26.8 33.71 26.87 33.74 26.95 33.77 27.02 33.8 27.1 33.83 27.17 33.86 27.24 33.89 27.3 33.93 27.37 33.96 27.44 34 27.5 34.04 27.57 34.07 27.63 34.11 27.69 34.14 27.75 34.18 27.81 34.22 27.86 34.26 27.92 34.3 27.98 34.34 28.04 34.38 28.09 34.43 28.14 34.47 28.2 34.52 28.25 34.57 28.32 34.63 28.38 34.68 28.44 34.74 28.49 34.79 28.55 34.85 28.6 34.9 28.65 34.96 28.7 35.02 28.75 35.07 28.8 35.13 28.85 35.19 28.89 35.25 28.94 35.31 28.98 35.37 29.03 35.43 29.07 35.5 29.11 35.56 29.15 35.62 29.19 35.69 29.23 35.75 29.26 35.82 29.3 35.88 29.33 35.95 29.36 36.02 29.4 36.08 29.43 36.15 29.46 36.23 29.49 36.3 29.52 36.38 29.54 36.45 29.57 36.53 29.6 36.6 29.62 36.66 29.64 36.73 29.66 36.8 29.68 36.87 29.69 36.94 29.71 37.01 29.72 37.08 29.74 37.16 29.75 37.24 29.76 37.31 29.77 37.39 29.78 37.46 29.79 37.54 29.8 37.58 29.8 37.57 30.06 37.61 30.29 37.61 30.29 37.85 30.5 37.99 30.52 39.07 30.49 39.15 30.47 39.18 30.28 39.18 29.76"/>
    <path class="cls-1" d="M39.41,14.21l1.38,0h.55l0,0h.08v0h0l0,0h0l0,0h0v0h0l0,0,0,0,0,0h0l0,0,0,0,0,0,0,0v0l0,0,0,0,0,0v0l0,0,0,0,0,0v0l0,0,0,0v0l0,0,0,0,0,0v0l0,0v0l0,0,0,0v0l0,0,0,0v0l0,0,0,0v0l0,0v0l0,0,0,0v0l0,0v0l0,0v0l0,0,0,0v0l0,0v0l0,0v0l0,0v0l0,0v0l0,0v0l0,0v0l0,0v0l0,0v0l0,0v0l0,0v.07l0,0v0l0,0v0l0,0v0l0,0v.08l0,0v0l0,0v.08l0,0v0l0,0v.08l0,.05v.08l0,.05v.08l0,.05v.08l0,0v.13l0,.05v.09l0,0V18l0,.05v.19l0,.05v.14l0,0v.2l0,0v.21l0,.05v.31l0,.05v.26h0v1.08h0v0a3.23,3.23,0,0,1,0,.44h0l-.07,3.11v-.06c0,.21,0,.41,0,.62h0v.93l0,.06v.06l0,.06V26l0,0v.06l0,.06,0,.05v.05l0,0,0,.05,0,.05,0,.05,0,.05,0,0,0,.05,0,.05,0,0,0,.05,0,0,0,.05,0,0,0,0,0,0,0,0,0,0,0,0,0,0,0,0,0,0v0l0,0,0,0v0l0,0v0l0,0v0l0,0v0h0v0H42.7v0h0l0,0v0l0,0v0l0,0v0l0,0,0,0,0,0,0,0,0,0,0,0,0,0,0,0h0v0h0v0h-.12v0h0l0,0h0l0,0h0l-.05.05,0,0,0,0,0,0,0,0,0,0,0,0-.05,0,0,0-.05,0-.06,0-.05,0-.06,0-.06.05-.08.05-.07,0-.07.05-.07,0-.08,0-.06,0-.07,0-.07,0,0,0,0,0h0l0,0h0l0,0H40.5l0,0h-.39l-.08,0-.08,0-.08,0h-1.3a4.19,4.19,0,0,1-1-.09h-.16l-.37,0"/>
    <polyline class="cls-1" points="31.66 15.51 31.64 15.51 31.34 20.86 33.41 25.27 33.45 22.53 33.45 22.51 33.45 22.49 33.45 22.47 33.45 22.45 33.45 22.43 33.45 22.4 33.45 22.38 33.45 22.36 33.45 22.34 33.45 22.32 33.45 22.3 33.45 22.28 33.45 22.26 33.44 22.24 33.44 22.22 33.44 22.2 33.44 22.18 33.44 22.16 33.44 22.14 33.44 22.12 33.44 22.09 33.44 22.07 33.43 22.05 33.43 22.03 33.43 22.01 33.43 22 33.42 21.98 33.42 21.95 33.42 21.93 33.42 21.92 33.42 21.9 33.42 21.88 33.41 21.86 33.41 21.84 33.41 21.82 33.41 21.8 33.4 21.78 33.4 21.77 33.4 21.75 33.4 21.73 33.39 21.71 33.39 21.7 33.38 21.68 33.38 21.66 33.38 21.65 33.38 21.63 33.37 21.61 33.37 21.6 33.37 21.58 33.36 21.57 33.36 21.55 33.35 21.54 33.35 21.52 33.35 21.51 33.34 21.49 33.34 21.48 31.64 15.45 31.68 14.78 31.68 14.77 31.68 14.75 31.68 14.74 31.69 14.73 31.69 14.72 31.69 14.71 31.7 14.69 31.7 14.68 31.7 14.67 31.71 14.66 31.71 14.64 31.72 14.63 31.73 14.62 31.74 14.61 31.74 14.59 31.75 14.58 31.76 14.57 31.77 14.56 31.78 14.55 31.79 14.54 31.8 14.53 31.81 14.52 31.83 14.5 31.84 14.49 31.86 14.48 31.87 14.48 31.88 14.47 31.89 14.47 31.9 14.46 31.91 14.46 31.92 14.45 31.94 14.45 31.95 14.44 31.97 14.44 31.98 14.44 31.99 14.44 32 14.44 32.01 14.43 32.03 14.43 37.73 14.26"/>
    <line class="cls-1" x1="33.41" y1="25.16" x2="33.4" y2="25.16"/>
    <line class="cls-1" x1="59" y1="24.5" x2="43.64" y2="24.96"/>
    <polyline class="cls-1" points="31.35 20.88 21.43 21.18 23.53 25.55 33.41 25.26 33.41 25.27 31.34 20.86"/>
    <line class="cls-1" x1="21.38" y1="24.36" x2="21.43" y2="21.18"/>
    <line class="cls-1" x1="23.53" y1="25.55" x2="23.52" y2="26.21"/>
    <line class="cls-1" x1="36.29" y1="29.51" x2="27.27" y2="29.78"/>
    <line class="cls-1" x1="25.82" y1="28.33" x2="25.81" y2="28.34"/>
    <polyline class="cls-1" points="58.99 25.15 59 24.5 56.9 20.13 43.72 20.52"/>
    <polyline class="cls-1" points="40.52 29.39 55.42 28.94 58.71 25.16 58.99 25.15 58.88 25.16 60.36 26.44 60.42 26.5 60.31 34.15 60.26 34.19 55.66 34.33 55.6 34.28 49.61 29.12"/>
    <line class="cls-1" x1="25.69" y1="28.22" x2="25.82" y2="28.33"/>
    <line class="cls-1" x1="24.27" y1="26.8" x2="24.16" y2="34.6"/>
    <polyline class="cls-1" points="24.16 34.6 24.16 34.61 24.16 34.61 24.16 34.62 24.16 34.62 24.16 34.63 24.17 34.63 24.17 34.64 24.17 34.64 24.18 34.65 24.18 34.65 24.18 34.66 24.18 34.66 24.19 34.66"/>
    <line class="cls-1" x1="59.69" y1="27.01" x2="60.25" y2="26.44"/>
    <polyline class="cls-1" points="56.3 30.48 55.64 31.15 55.61 31.21 55.57 34.22 55.61 31.21 55.64 31.15 60.25 26.44"/>
    <line class="cls-1" x1="56.3" y1="30.48" x2="54.55" y2="28.97"/>
    <polygon class="cls-1" points="14.48 18.38 21.38 24.34 21.38 24.36 23.52 26.21 23.55 26.21 24.41 26.95 24.44 26.98 28.92 31.42 28.95 31.45 28.9 34.52 28.85 34.57 24.25 34.71 24.19 34.66 14.26 26.09 14.23 26.03 14.34 18.44 14.34 18.43 14.34 18.43 14.34 18.42 14.34 18.42 14.35 18.41 14.35 18.41 14.35 18.4 14.35 18.4 14.36 18.39 14.36 18.39 14.37 18.38 14.37 18.38 14.37 18.38 14.38 18.37 14.38 18.37 14.39 18.36 14.39 18.36 14.4 18.36 14.4 18.36 14.41 18.36 14.42 18.36 14.42 18.36 14.43 18.36 14.43 18.36 14.44 18.36 14.44 18.36 14.45 18.36 14.45 18.36 14.46 18.36 14.46 18.36 14.47 18.37 14.47 18.37 14.48 18.38"/>
    <line class="cls-1" x1="21.97" y1="35.2" x2="22.01" y2="32.78"/>
    <polyline class="cls-1" points="27.02 35.85 27.02 35.85 27.02 35.85 27.02 35.85 27.02 35.85 27.01 35.86 27.01 35.86 27.01 35.86 27.01 35.86 27 35.86 27 35.86 27 35.87 26.99 35.87 26.98 35.87 26.98 35.87 26.98 35.87 26.97 35.87 26.96 35.87 26.96 35.87 26.95 35.87 26.95 35.87 26.94 35.87 26.93 35.87 26.93 35.87 26.92 35.87 26.91 35.87"/>
    <polyline class="cls-1" points="21.97 35.2 21.97 35.2 21.97 35.2 21.97 35.2 21.97 35.2"/>
    <polyline class="cls-1" points="58.11 34.93 58.11 34.93 58.11 34.93 58.11 34.93 58.1 34.93 58.1 34.93 58.1 34.93 58.1 34.94 58.09 34.94 58.09 34.94 58.09 34.94 58.08 34.94 58.08 34.94 58.08 34.94 58.07 34.94 58.06 34.95 58.06 34.95 58.05 34.95 58.05 34.95 58.04 34.95 58.03 34.95 58.03 34.95 58.02 34.95 58.01 34.95 58.01 34.95 58 34.95"/>
    <polyline class="cls-1" points="53.06 34.28 53.06 34.28 53.06 34.28 53.06 34.27 53.06 34.27"/>
    <line class="cls-1" x1="47.48" y1="29.46" x2="47.48" y2="29.18"/>
    <polyline class="cls-1" points="47.48 29.46 47.47 29.45 47.47 29.45 47.47 29.45 47.47 29.45"/>
    <polyline class="cls-1" points="17.44 31.17 17.43 31.17 17.42 31.17 17.42 31.17 17.41 31.17 17.4 31.17 17.39 31.17 17.39 31.17 17.38 31.17 17.37 31.17 17.36 31.16 17.36 31.16 17.35 31.16 17.34 31.16 17.34 31.16 17.33 31.16 17.32 31.16 17.32 31.16 17.31 31.16 17.31 31.16 17.3 31.16 17.3 31.16 17.29 31.15 17.29 31.15 17.28 31.15 17.28 31.15 17.28 31.15 17.27 31.15 17.27 31.14 17.27 31.14"/>
    <line class="cls-1" x1="20.05" y1="31.09" x2="17.44" y2="31.17"/>
    <line class="cls-1" x1="17.27" y1="31.14" x2="16.39" y2="30.38"/>
    <polyline class="cls-1" points="16.39 30.38 16.38 30.38 16.38 30.38 16.38 30.38 16.38 30.37"/>
    <polyline class="cls-1" points="47.48 29.46 47.47 29.45 47.47 29.45 47.47 29.45 47.47 29.45"/>
    <polyline class="cls-1" points="50.84 30.17 48.53 30.24 48.36 30.22 47.48 29.46"/>
    <polyline class="cls-1" points="47.24 45.22 48.13 45.98 48.29 46 52.18 45.89 52.29 45.86 52.5 31.61"/>
    <polyline class="cls-1" points="52.18 45.89 52.19 45.89 52.19 45.89 52.2 45.89 52.21 45.89 52.22 45.88 52.22 45.88 52.23 45.88 52.23 45.88 52.24 45.88 52.24 45.88 52.25 45.88 52.26 45.88 52.26 45.88 52.26 45.88 52.27 45.88 52.27 45.87 52.28 45.87 52.28 45.87 52.28 45.87 52.28 45.87 52.29 45.87 52.29 45.87 52.29 45.87 52.29 45.86 52.29 45.86"/>
    <polyline class="cls-1" points="47.24 45.21 47.24 45.21 47.24 45.21 47.24 45.22 47.24 45.22"/>
    <polyline class="cls-1" points="17.04 46.9 17.04 46.91 17.04 46.91 17.04 46.91 17.05 46.91 17.05 46.91 17.05 46.91 17.06 46.91 17.06 46.91 17.07 46.91 17.07 46.92 17.08 46.92 17.08 46.92 17.09 46.92 17.09 46.92 17.1 46.92 17.11 46.92 17.11 46.92 17.12 46.92 17.13 46.92 17.14 46.92 17.14 46.93 17.15 46.93 17.16 46.93 17.17 46.93 17.17 46.93 17.18 46.93 17.19 46.93 17.2 46.93 17.2 46.93"/>
    <polyline class="cls-1" points="16.39 30.38 16.38 30.38 16.38 30.38 16.38 30.38 16.38 30.37"/>
    <polyline class="cls-1" points="20.05 31.09 17.44 31.17 17.44 31.17 17.43 31.17 17.42 31.17 17.42 31.17 17.41 31.17 17.4 31.17 17.39 31.17 17.39 31.17 17.38 31.17 17.37 31.17 17.36 31.16 17.36 31.16 17.35 31.16 17.34 31.16 17.34 31.16 17.33 31.16 17.32 31.16 17.32 31.16 17.31 31.16 17.31 31.16 17.3 31.16 17.3 31.16 17.29 31.15 17.29 31.15 17.28 31.15 17.28 31.15 17.28 31.15 17.27 31.15 17.27 31.14 17.27 31.14 17.27 31.14 16.39 30.38"/>
    <line class="cls-1" x1="17.2" y1="46.93" x2="21.09" y2="46.81"/>
    <line class="cls-1" x1="16.15" y1="46.14" x2="17.04" y2="46.9"/>
    <polyline class="cls-1" points="21.09 46.81 21.1 46.81 21.11 46.81 21.11 46.81 21.12 46.81 21.13 46.81 21.13 46.81 21.14 46.81 21.14 46.81 21.15 46.8 21.16 46.8 21.16 46.8 21.17 46.8 21.17 46.8 21.17 46.8 21.18 46.8 21.18 46.8 21.18 46.8 21.19 46.8 21.19 46.79 21.19 46.79 21.2 46.79 21.2 46.79 21.2 46.79 21.2 46.79 21.2 46.79"/>
    <polyline class="cls-1" points="53.06 34.28 53.06 34.28 53.06 34.28 53.06 34.27 53.06 34.27"/>
    <polyline class="cls-1" points="58.11 34.93 58.11 34.93 58.11 34.93 58.11 34.93 58.1 34.93 58.1 34.93 58.1 34.93 58.1 34.94 58.09 34.94 58.09 34.94 58.09 34.94 58.08 34.94 58.08 34.94 58.08 34.94 58.07 34.94 58.06 34.95 58.06 34.95 58.05 34.95 58.05 34.95 58.04 34.95 58.03 34.95 58.03 34.95 58.02 34.95 58.01 34.95 58.01 34.95 58 34.95"/>
    <polyline class="cls-1" points="58 34.95 54.11 35.07 53.95 35.04 53.06 34.28"/>
    <polyline class="cls-1" points="57.77 50.71 57.77 50.71 57.78 50.71 57.79 50.71 57.79 50.71 57.8 50.71 57.81 50.71 57.81 50.71 57.82 50.71 57.83 50.7 57.83 50.7 57.84 50.7 57.84 50.7 57.85 50.7 57.85 50.7 57.86 50.7 57.86 50.7 57.86 50.7 57.87 50.7 57.87 50.69 57.87 50.69 57.87 50.69 57.87 50.69 57.87 50.69 57.87 50.69 57.87 50.69"/>
    <polyline class="cls-1" points="57.77 50.71 53.88 50.83 53.88 50.83 53.87 50.83 53.87 50.83 53.86 50.83 53.85 50.83 53.84 50.83 53.83 50.83 53.83 50.83 53.82 50.83 53.81 50.82 53.81 50.82 53.8 50.82 53.79 50.82 53.78 50.82 53.78 50.82 53.77 50.82 53.77 50.82 53.76 50.82 53.75 50.82 53.75 50.82 53.74 50.81 53.74 50.81 53.73 50.81 53.73 50.81 53.73 50.81 53.72 50.81 53.72 50.81 53.72 50.8 53.72 50.8 53.71 50.8 52.83 50.04 52.83 50.04 52.83 50.04 52.83 50.04 52.83 50.03 52.83 50.03 53.06 34.27 53.09 32.12 53.06 34.28 53.06 34.28 52.83 50.04"/>
    <polyline class="cls-1" points="21.97 35.2 21.97 35.2 21.97 35.2 21.97 35.2 21.97 35.2"/>
    <polyline class="cls-1" points="27.02 35.85 27.02 35.85 27.02 35.85 27.02 35.85 27.02 35.85 27.01 35.86 27.01 35.86 27.01 35.86 27.01 35.86 27 35.86 27 35.86 27 35.87 26.99 35.87 26.98 35.87 26.98 35.87 26.98 35.87 26.97 35.87 26.96 35.87 26.96 35.87 26.95 35.87 26.95 35.87 26.94 35.87 26.93 35.87 26.93 35.87 26.92 35.87 26.91 35.87"/>
    <polyline class="cls-1" points="21.97 35.2 22.86 35.97 22.86 35.97 22.86 35.97 22.86 35.97 22.87 35.97 22.87 35.97 22.88 35.98 22.88 35.98 22.88 35.98 22.89 35.98 22.89 35.98 22.9 35.98 22.9 35.98 22.91 35.98 22.91 35.98 22.92 35.98 22.93 35.99 22.94 35.99 22.94 35.99 22.95 35.99 22.96 35.99 22.96 35.99 22.97 35.99 22.98 35.99 22.99 35.99 22.99 35.99 23 35.99 23.01 35.99 23.02 35.99 23.02 35.99 26.91 35.87"/>
    <polyline class="cls-1" points="22.62 51.73 22.63 51.73 22.63 51.73 22.63 51.73 22.63 51.73 22.64 51.73 22.64 51.73 22.64 51.74 22.65 51.74 22.65 51.74 22.66 51.74 22.66 51.74 22.67 51.74 22.68 51.74 22.68 51.74 22.69 51.74 22.7 51.75 22.7 51.75 22.71 51.75 22.71 51.75 22.72 51.75 22.73 51.75 22.74 51.75 22.75 51.75 22.75 51.75 22.76 51.75 22.77 51.75 22.78 51.75 22.78 51.75 22.79 51.75"/>
    <line class="cls-1" x1="22.79" y1="51.75" x2="26.68" y2="51.63"/>
    <line class="cls-1" x1="21.74" y1="50.96" x2="22.62" y2="51.73"/>
    <line class="cls-1" x1="21.74" y1="50.96" x2="21.97" y2="35.2"/>
    <polyline class="cls-1" points="26.68 51.63 26.68 51.63 26.69 51.63 26.7 51.63 26.7 51.63 26.71 51.63 26.72 51.63 26.73 51.63 26.73 51.63 26.74 51.63 26.74 51.63 26.75 51.63 26.75 51.63 26.76 51.63 26.76 51.62 26.77 51.62 26.77 51.62 26.77 51.62 26.77 51.62 26.78 51.62 26.78 51.62 26.78 51.62 26.78 51.61 26.78 51.61 26.78 51.61 26.79 51.61"/>
    <polyline class="cls-1" points="21.74 50.96 21.74 50.96 21.74 50.96 21.74 50.96 21.74 50.96"/>
    <polyline class="cls-1" points="26.68 60.03 26.68 60.02 26.69 60.01 26.69 60 26.69 59.99 26.7 59.98 26.7 59.97 26.7 59.96 26.71 59.95 26.71 59.94 26.72 59.93 26.73 59.92 26.73 59.91 26.74 59.91 26.74 59.9 26.75 59.89 26.76 59.88 26.77 59.87 26.77 59.87 26.78 59.86 26.79 59.85 26.8 59.85 26.81 59.84 26.82 59.84 26.82 59.83 26.83 59.83 26.84 59.82 26.85 59.82 26.86 59.81 26.87 59.81 26.88 59.81 26.89 59.8 26.9 59.8 26.91 59.8 26.92 59.8 26.93 59.8 26.94 59.8 26.95 59.8 52.87 59.02 52.88 59.03 52.89 59.03 52.91 59.03 52.91 59.03 52.92 59.03 52.93 59.04 52.94 59.04 52.95 59.04 52.96 59.04 52.98 59.05 52.98 59.05 52.99 59.05 53 59.06 53.01 59.06 53.02 59.07 53.03 59.07 53.04 59.08 53.05 59.08 53.05 59.09 53.06 59.09 53.07 59.1 53.08 59.11 53.08 59.11 53.09 59.12 53.09 59.13 53.1 59.14 53.11 59.15 53.11 59.16 53.12 59.16 53.12 59.17 53.13 59.18 53.13 59.19 53.14 59.2 53.14 59.21 53.14 59.22 53.15 59.23 53.15 59.24 53.15 59.25 53.15 59.26 53.15 59.27 53.15 59.28 53.15 59.29 53.15 59.3 53 69.73 53 69.74 53 69.75 52.99 69.76 52.99 69.78 52.99 69.78 52.99 69.79 52.99 69.8 52.99 69.81 52.98 69.83 52.98 69.83 52.98 69.84 52.97 69.85 52.97 69.86 52.96 69.87 52.95 69.88 52.95 69.89 52.94 69.9 52.94 69.91 52.93 69.92 52.92 69.92 52.92 69.93 52.91 69.94 52.9 69.94 52.89 69.95 52.88 69.96 52.88 69.96 52.87 69.97 52.86 69.97 52.85 69.98 52.84 69.99 52.83 69.99 52.82 69.99 52.81 70 52.8 70 52.79 70 52.78 70.01 52.77 70.01 52.76 70.01 52.75 70.01 52.74 70.01 52.73 70.02 52.72 70.02 26.8 70.79 26.79 70.79 26.78 70.79 26.77 70.78 26.76 70.78 26.75 70.78 26.74 70.78 26.73 70.78 26.72 70.78 26.71 70.77 26.7 70.77 26.69 70.77 26.68 70.76 26.67 70.76 26.66 70.75 26.66 70.75 26.65 70.74 26.64 70.74 26.63 70.73 26.62 70.72 26.61 70.72 26.61 70.71 26.6 70.7 26.59 70.7 26.59 70.69 26.58 70.68 26.58 70.67 26.57 70.66 26.57 70.66 26.56 70.65 26.56 70.64 26.55 70.63 26.55 70.62 26.55 70.61 26.54 70.6 26.54 70.59 26.54 70.58 26.54 70.57 26.53 70.56 26.53 70.55 26.53 70.54 26.53 70.53 26.53 70.52 26.69 60.09"/>
    <polyline class="cls-1" points="26.53 70.56 26.53 70.57 26.53 70.58 26.53 70.59 26.54 70.6 26.54 70.61 26.54 70.62 26.55 70.63 26.55 70.64 26.56 70.65 26.56 70.66 26.57 70.66 26.57 70.67 26.58 70.68 26.59 70.69 26.59 70.7 26.6 70.7 26.61 70.71 26.61 70.72"/>
    <polyline class="cls-1" points="21.52 69.39 17.92 66.28 17.92 66.28 17.91 66.27 17.9 66.27 17.9 66.26 17.89 66.25 17.89 66.25 17.88 66.24 17.88 66.23 17.87 66.22 17.87 66.22 17.87 66.21 17.86 66.2 17.86 66.19 17.86 66.18 17.86 66.17 17.85 66.16 17.85 66.16 17.85 66.15 17.85 66.14 17.85 66.13 17.85 66.13 17.86 65.51 17.86 65.5 17.86 65.5 17.86 65.48 17.86 65.47 17.86 65.47 17.87 65.46 17.87 65.45 17.87 65.44 17.88 65.43 17.88 65.42 17.88 65.41 17.89 65.41 17.89 65.4 17.9 65.39 17.9 65.38 17.91 65.37 17.91 65.37 17.92 65.36 17.93 65.35 17.93 65.35 17.94 65.34 17.95 65.33 17.96 65.33 17.96 65.32 17.97 65.32 17.98 65.31 17.99 65.31 18 65.31 18.01 65.3 18.01 65.3 18.02 65.3 18.03 65.29 18.04 65.29 18.05 65.29 18.06 65.29 18.07 65.29 18.08 65.29 19.73 65.24 19.87 65.29 21.56 66.75"/>
    <polyline class="cls-1" points="21.67 59.19 18.07 56.09 18.07 56.08 18.06 56.07 18.05 56.07 18.05 56.06 18.04 56.05 18.04 56.05 18.03 56.04 18.03 56.03 18.02 56.02 18.02 56.02 18.02 56.01 18.01 56 18.01 55.99 18.01 55.98 18.01 55.97 18 55.97 18 55.96 18 55.95 18 55.94 18 55.93 18.01 55.31 18.01 55.3 18.01 55.3 18.01 55.28 18.01 55.28 18.01 55.27 18.02 55.26 18.02 55.25 18.02 55.24 18.03 55.23 18.03 55.22 18.03 55.21 18.04 55.21 18.04 55.2 18.05 55.19 18.05 55.18 18.06 55.17 18.07 55.17 18.07 55.16 18.08 55.16 18.09 55.15 18.09 55.14 18.1 55.13 18.11 55.13 18.11 55.12 18.12 55.12 18.13 55.12 18.14 55.11 18.15 55.11 18.16 55.1 18.17 55.1 18.17 55.1 18.18 55.09 18.19 55.09 18.2 55.09 18.21 55.09 18.22 55.09 18.23 55.09 18.23 55.09 20.01 55.04"/>
    <line class="cls-1" x1="24.67" y1="59.05" x2="24.75" y2="53.56"/>
    <polyline class="cls-1" points="16.16 46.15 24.75 53.56 60 52.52"/>
    <polyline class="cls-1" points="26.87 45.79 47.24 45.19 47.24 45.22 47.48 29.46"/>
    <line class="cls-1" x1="21.81" y1="45.94" x2="21.21" y2="45.96"/>
    <line class="cls-1" x1="52.29" y1="45.86" x2="52.88" y2="46.37"/>
    <polyline class="cls-1" points="58.12 34.26 58.11 34.93 57.87 50.69 57.87 50.68 60 52.52 59.92 58.01 24.67 59.05 16.04 51.6 16.15 46.14 16.39 30.38 16.39 30.38 16.42 27.96"/>
    <polyline class="cls-1" points="19.4 54.51 17.2 54.58 17.19 54.58 17.18 54.58 17.17 54.58 17.16 54.58 17.15 54.58 17.14 54.58 17.13 54.58 17.12 54.58 17.11 54.58 17.11 54.58 17.09 54.58 17.09 54.58 17.08 54.57 17.07 54.57 17.06 54.57 17.05 54.57 17.04 54.57 17.03 54.57 17.03 54.57 17.02 54.57 17.01 54.57 17 54.56 17 54.56 16.99 54.56 16.98 54.56 16.98 54.56 16.97 54.56 16.97 54.56 16.96 54.55 16.96 54.55 16.95 54.55 16.95 54.55 16.94 54.55 16.94 54.55 16.94 54.54 16.93 54.54 16.93 54.54 16.08 53.81"/>
    <polyline class="cls-1" points="20.44 68.46 16.99 68.56 16.98 68.56 16.97 68.56 16.96 68.56 16.95 68.56 16.94 68.56 16.93 68.56 16.93 68.56 16.92 68.56 16.91 68.56 16.9 68.56 16.89 68.56 16.88 68.56 16.87 68.56 16.86 68.56 16.85 68.56 16.84 68.56 16.84 68.56 16.83 68.55 16.82 68.55 16.81 68.55 16.8 68.55 16.8 68.55 16.79 68.55 16.78 68.55 16.78 68.55 16.77 68.54 16.77 68.54 16.76 68.54 16.75 68.54 16.75 68.54 16.74 68.54 16.74 68.53 16.74 68.53 16.73 68.53 16.73 68.53 16.73 68.53 16.73 68.53 15.88 67.79 15.87 67.78 16.08 53.8 16.08 53.81 16.08 53.81 16.08 53.8 16.08 53.8 16.08 53.8 16.08 53.8 16.08 53.8 16.08 53.8 16.08 53.79 16.08 53.79 16.08 53.79 16.09 53.79 16.09 53.79 16.09 53.79 16.09 53.78 16.1 53.78 16.1 53.78 16.11 53.78 16.11 53.78 16.12 53.78 16.12 53.77 16.13 53.77 16.13 53.77 16.14 53.77 16.14 53.77 16.15 53.77 16.16 53.77 16.17 53.77 16.17 53.77 16.18 53.77 16.19 53.76 16.2 53.76 16.21 53.76 16.22 53.76 16.22 53.76 16.23 53.76 16.24 53.76 16.25 53.76 18.46 53.7"/>
    <polyline class="cls-1" points="57.7 58.33 57.71 58.33 57.71 58.33 57.71 58.34 57.71 58.34 57.71 58.34 57.71 58.34 57.71 58.34 57.71 58.34 57.7 58.34 57.7 58.35 57.7 58.35 57.7 58.35 57.69 58.35 57.69 58.35 57.69 58.36 57.68 58.36 57.68 58.36 57.67 58.36 57.67 58.36 57.67 58.36 57.66 58.36 57.65 58.37 57.65 58.37 57.64 58.37 57.63 58.37 57.63 58.37 57.62 58.37 57.61 58.37 57.6 58.37 57.6 58.37 57.59 58.38 57.58 58.38 57.57 58.38 57.56 58.38 57.55 58.38 57.55 58.38 57.53 58.38 53.81 58.49 53.8 58.49 53.79 58.49 53.78 58.49 53.77 58.49 53.76 58.49 53.75 58.49 53.74 58.49 53.73 58.49 53.73 58.49 53.72 58.49 53.71 58.49 53.7 58.49 53.69 58.48 53.68 58.48 53.67 58.48 53.66 58.48 53.65 58.48 53.65 58.48 53.64 58.48 53.63 58.48 53.62 58.48 53.62 58.48 53.61 58.48 53.6 58.47 53.6 58.47 53.59 58.47 53.58 58.47 53.58 58.47 53.57 58.47 53.57 58.46 53.56 58.46 53.56 58.46 53.55 58.46 53.55 58.46 53.55 58.46 53.55 58.45 53.54 58.45 53.55 58.45 53.26 58.2"/>
    <polyline class="cls-1" points="52.51 70.02 52.48 71.69 52.48 71.7 52.48 71.7 52.48 71.7 52.49 71.7 52.49 71.7 52.49 71.71 53.34 72.44 53.34 72.44 53.34 72.44 53.34 72.44 53.35 72.44 53.35 72.45 53.36 72.45 53.36 72.45 53.37 72.45 53.37 72.45 53.38 72.45 53.38 72.45 53.39 72.46 53.4 72.46 53.4 72.46 53.41 72.46 53.42 72.46 53.42 72.46 53.43 72.47 53.44 72.47 53.45 72.47 53.46 72.47 53.46 72.47 53.47 72.47 53.48 72.47 53.49 72.47 53.5 72.47 53.51 72.47 53.52 72.47 53.53 72.47 53.54 72.47 53.55 72.47 53.56 72.47 53.56 72.47 53.58 72.47 53.59 72.47 53.59 72.47 53.6 72.47 57.33 72.36 57.33 72.36 57.34 72.36 57.35 72.36 57.35 72.36 57.36 72.36 57.37 72.36 57.38 72.36 57.39 72.36 57.4 72.36 57.41 72.36 57.41 72.36 57.42 72.35 57.42 72.35 57.43 72.35 57.44 72.35 57.45 72.35 57.45 72.35 57.46 72.35 57.46 72.35 57.47 72.34 57.47 72.34 57.48 72.34 57.48 72.34 57.48 72.34 57.49 72.34 57.49 72.33 57.49 72.33 57.49 72.33 57.5 72.33 57.5 72.33 57.5 72.33 57.5 72.33 57.5 72.32 57.5 72.32 57.71 58.34 57.7 58.33 57.42 58.08"/>
    <polyline class="cls-1" points="21.68 58.64 22.53 59.37 22.53 59.38 22.54 59.38 22.54 59.38 22.54 59.38 22.55 59.38 22.55 59.38 22.55 59.38 22.56 59.39 22.56 59.39 22.57 59.39 22.57 59.39 22.58 59.39 22.59 59.4 22.59 59.4 22.6 59.4 22.61 59.4 22.62 59.4 22.62 59.4 22.63 59.4 22.64 59.4 22.65 59.4 22.66 59.41 22.66 59.41 22.68 59.41 22.68 59.41 22.69 59.41 22.7 59.41 22.71 59.41 22.72 59.41 22.73 59.41 22.74 59.41 22.75 59.41 22.76 59.41 22.77 59.41 22.78 59.41 22.79 59.41 22.8 59.41 26.52 59.3 26.53 59.3 26.54 59.3 26.55 59.3 26.56 59.3 26.56 59.3 26.57 59.3 26.58 59.3 26.59 59.3 26.6 59.29 26.6 59.29 26.61 59.29 26.62 59.29 26.63 59.29 26.63 59.29 26.64 59.29 26.64 59.28 26.65 59.28 26.66 59.28 26.66 59.28 26.67 59.28 26.67 59.28 26.67 59.28 26.68 59.28 26.68 59.27 26.68 59.27 26.69 59.27 26.69 59.27 26.69 59.27 26.69 59.27 26.69 59.26 26.69 59.26 26.69 59.26 26.69 59.26 26.69 59.26 26.69 59.25 26.69 59.25 26.69 59.25"/>
    <polyline class="cls-1" points="24.05 58.53 21.85 58.59 21.84 58.59 21.83 58.59 21.82 58.59 21.81 58.59 21.8 58.59 21.8 58.6 21.79 58.6 21.78 58.6 21.77 58.6 21.77 58.6 21.76 58.6 21.75 58.6 21.74 58.6 21.74 58.6 21.73 58.6 21.73 58.61 21.72 58.61 21.71 58.61 21.71 58.61 21.7 58.61 21.7 58.61 21.7 58.62 21.69 58.62 21.69 58.62 21.68 58.62 21.68 58.62 21.68 58.62 21.68 58.63 21.68 58.63 21.68 58.63 21.68 58.63 21.68 58.63 21.68 58.63 21.68 58.64 21.68 58.64 21.68 58.64 21.68 58.64 21.68 58.63 21.47 72.62 21.48 72.63 22.32 73.36 22.59 73.39 26.31 73.28 26.49 73.24 26.69 59.26 26.69 59.25 26.39 59.05"/>
  </g>
</svg>