<?xml version="1.0" encoding="utf-8"?>
<svg viewBox="27.463 0.616 20.197 74.015" xmlns="http://www.w3.org/2000/svg">
  <defs>
    <style>.cls-1{fill:none;stroke:#f4f4f4;stroke-linejoin:round;}</style>
  </defs>
  <title>f4_Romer_Arm</title>
  <g id="Linework">
    <path class="cls-1" d="M31.48,58.06c0,.29.15.39.46.5a19,19,0,0,0,4.15.36,8.86,8.86,0,0,0,1.17,0c.2,0,1.22-.3,1.39-.33s.25,0,.28.11a8.22,8.22,0,0,1,.19,1.27c.11,1,.15,3.7.14,4.06s.06.47-.22.57a13.84,13.84,0,0,1-1.61.49,16.74,16.74,0,0,1-2.72,0c-1.13-.06-3.9-.55-4.06-.57s-.15-.15-.15-.15l-1.26,0c-.42,0-.4-.14-.4-.14a3.86,3.86,0,0,1-.34-1,.64.64,0,0,0-.17-.58c-.15-.15,0-.76,0-.76s.28-3.08.33-3.36,0-.45.29-.48c.52-.1,2.45-.47,2.63-.47C31.53,57.54,31.5,57.78,31.48,58.06Z"/>
    <path class="cls-1" d="M32,64.64V62.3c0-1.06.18-2.66.2-3s.06-.56.26-.57"/>
    <path class="cls-1" d="M31.53,57.54A12.22,12.22,0,0,1,29,56c-.3-.39-.33-.77,0-1a1.51,1.51,0,0,1,1.19-.44c.82,0,1.32,0,1.5,0l0-.18c.21-.88.74-3.25.79-3.75"/>
    <path class="cls-1" d="M37.46,65a8.93,8.93,0,0,0,.42-2.53A8.76,8.76,0,0,0,37.41,60a12.24,12.24,0,0,0-1.18-2.05c-.48-.61-1.5-2.31-1.5-2.31a9.46,9.46,0,0,1-.87-2.88c-.08-.63-.18-1.78-.26-2.47"/>
    <path class="cls-1" d="M32.49,64.78s0,.25.45.35a10.31,10.31,0,0,0,1.83.24,6,6,0,0,0,2-.28"/>
    <path class="cls-1" d="M31.32,64.58s-.67,0-.28.14.5.06.65.08.13,0,.16.07,0,.19.19.26a5.33,5.33,0,0,0,1.22.34c.27,0,.33.1.27.14s-.23.17,0,.18.43,0,.55-.07a.33.33,0,0,1,.28-.11c.16,0,1.18,0,1.56,0a6.85,6.85,0,0,0,1.31-.29.91.91,0,0,1,.5-.06l.6,0c.1,0,.41-.1-.11-.13l-.49,0a.12.12,0,0,1,0-.1"/>
    <path class="cls-1" d="M38.57,66.33a3.27,3.27,0,0,0,.16.61c.07.07.21.27-.17.42a11.91,11.91,0,0,1-2.62.42,22.9,22.9,0,0,1-3.3-.09A3.16,3.16,0,0,1,31,67.2c-.08-.15-.25-.3-.12-.42s0-.75,0-.75"/>
    <path class="cls-1" d="M30.92,64.64s0,.93,0,1-.2,1.14-.2,1.14a2.51,2.51,0,0,1-.3.84,3,3,0,0,1-.74.89l-.57.39s-.05,0,0,.4,0,.49.1.52,1.51.36,1.75.39a2.42,2.42,0,0,0,1.14,0c.64-.16,2.42-.59,3.08-.69s2.21-.33,3.53-.4,2.6-.1,3.07-.13.57-.06.58-.32,0-.81,0-.92V68c0-.14,0-.34-.13-.42s-.13,0-.87-.15-2.68-.76-2.94-.82c.09,0,.2,0,.2-.23a5.77,5.77,0,0,0,0-1.14"/>
    <line class="cls-1" x1="29.1" y1="69.83" x2="29.07" y2="69.97"/>
    <path class="cls-1" d="M34.2,69.74l0,.9s0,1.07,0,1.46,0,.43-.2.52-1.69.71-2.19.89a1,1,0,0,1-.89-.07c-.2-.07-.43-.3-.65-.33a3.62,3.62,0,0,0-.78,0l-.36-.06v-.32l.1-2.92"/>
    <path class="cls-1" d="M29.43,73.17s1,.08,1.15.12"/>
    <path class="cls-1" d="M37.73,69.24s0,2.49,0,2.65,0,.17.15.16l4,0c.16,0,.24,0,.25-.18a.69.69,0,0,0,0-.16s.18,0,.19-.13,0-.81,0-.81.37-.08.36-.17a1.73,1.73,0,0,0,.47-.06c.09,0,.16-.09.16-.29S43.29,69,43.29,69s0-.14-.23-.16-.38,0-.36.19,0,.27,0,.27l-.25-.06-.06-.45a.1.1,0,0,0,0,0"/>
    <path class="cls-1" d="M33,48.25a2.14,2.14,0,0,1,1.35,0,1.38,1.38,0,0,1,.87.82,1.86,1.86,0,0,1,.17,1.13,4,4,0,0,1-.36,1c-.08.16-.19.31.11.44a5.24,5.24,0,0,0,1.79.31c.44-.06.7-.2.63-.38"/>
    <path class="cls-1" d="M37.51,51.54a1,1,0,0,1-.16-.5c0-.24.15-.49.16-.8a6,6,0,0,0,0-1.13c0-.24-.26-1-.73-1.11a4.14,4.14,0,0,1-2.11-.46"/>
    <path class="cls-1" d="M31.19,46.12s-.36,2.43-.37,2.61a4,4,0,0,0,.14,1c.09.35.16.55.55.64s.93.28,1.1.3.75.14.89-.24.15-.38.07-.63-.8-2-1-2.61S32,45.18,32,45s-.31-.61-.53-.38a1.52,1.52,0,0,0-.17.66C31.27,45.48,31.19,46.12,31.19,46.12Z"/>
    <path class="cls-1" d="M31,47.41A35.49,35.49,0,0,1,30.93,43a29.55,29.55,0,0,1,.76-4.51,15.78,15.78,0,0,1,1-2.92c.31-.47.52-.78.73-.82a2.7,2.7,0,0,1,.46-.53.72.72,0,0,1,.61-.07c.33,0,1.2.16,1.4.2s.3.09.31.2.23.12.41.14.48.06.47.27,0,.59-.37.58-.62-.15-.71.21-.21,1.68-.26,2-.19.24-.62.2-1.14-.15-1.32-.15-.51-.11-.65.49-.45,1.81-.48,2.3-.19,2.31-.15,2.72a13.06,13.06,0,0,1,.13,1.87,8.18,8.18,0,0,0-.16,1.8"/>
    <path class="cls-1" d="M32.54,35.88s.11-.9.18-1.39S36.14,10,36.14,10a2.21,2.21,0,0,1,0-.32c.06-.08.14-.14.48-.14a4.8,4.8,0,0,1,.64,0c.14,0,.15.29.11.62S37,12.42,37,12.88s.66.91,1.27.91c.4.07.64.08.6.38s-1.66,11.94-1.66,11.94-.29.12-1.12-.27-.9-.43-.92-.06-.55,4.34-.61,4.69-.19,1.5-.2,1.68-.1.27.23.23a9.32,9.32,0,0,1,1.46-.05c.22,0,.4.18.19.38,0,.32-.23,1.66-.23,1.66"/>
    <path class="cls-1" d="M36.35,32.51s.3-1.63.51-3.08a19.13,19.13,0,0,1,.56-2.77c.11-.34.08-.51-.19-.59"/>
    <path class="cls-1" d="M35.44,37.94S35,40.87,35,41.16s-.18,1.26-.21,1.48A8.94,8.94,0,0,0,35.05,44"/>
    <path class="cls-1" d="M39.75,3.12A7,7,0,0,1,39.92,2c.08-.19.19-.48,1-.57a5.2,5.2,0,0,1,2,.19c.36.13.64.31.64.6s0,.84,0,1a3.37,3.37,0,0,1-.08.4c.11-.11-.06-.2-.47-.44a4.48,4.48,0,0,0-1.75-.3,8.63,8.63,0,0,0-1.42.17,2.11,2.11,0,0,0-.87.6c-.16-.08-.7-.43-1-.56a1.51,1.51,0,0,0-1.16,0,2.24,2.24,0,0,0-1.18,1.42,2.1,2.1,0,0,0,.14,1.55,1,1,0,0,1,.34.76.82.82,0,0,0,.06.5c0,.15.16.4.19.53a.34.34,0,0,1,0,.36l0,.1-.1,1"/>
    <path class="cls-1" d="M36.14,7.29a5.37,5.37,0,0,0,1.18,0c.11,0,.11,0,.18.11s.17.3.24.12a1.63,1.63,0,0,0,.09-.45,1.2,1.2,0,0,1,.39-.64A2.22,2.22,0,0,0,39,5a1.76,1.76,0,0,0-.71-1.74"/>
    <path class="cls-1" d="M37.93,6.82a3.3,3.3,0,0,1,1.53,0S39.37,9,39.37,9.22s.06,2.23.06,2.39a5.27,5.27,0,0,1-.14,1.05,1.6,1.6,0,0,1-.07.57,1.46,1.46,0,0,0-.13.59c0,.36-.2.39-.2.39"/>
    <path class="cls-1" d="M43.5,3.67s-.11,2.44-.14,2.82-.17,2.66-.19,2.86-.36,2.08-.4,2.37.11,2.21,0,2.28"/>
    <path class="cls-1" d="M39.23,14.27s0-.26,0-.32,0-.13.14-.2a2,2,0,0,1,1.31-.24,7.15,7.15,0,0,1,1.68.27,2.65,2.65,0,0,1,.34.21c.08.07,0,.18,0,.28s-.05.11-.05.15a.29.29,0,0,0,.09.18,2.7,2.7,0,0,1,0,.8c0,.21-.37,5.9-.37,5.9L42.2,24a.4.4,0,0,1-.16.37c0,.21,0,.46,0,.46s.11.08-.3.23c0-.12.07-.21-.19-.25a14.16,14.16,0,0,0-2.44-.22c-.18,0-.36,0-.33.21-.12,0-.26-.06-.23-.28s.08-.12.06-.26-.19-.16-.15-.5.58-8.49.58-8.49l.07-.78A.35.35,0,0,1,39.23,14.27Z"/>
    <path class="cls-1" d="M38.75,24.72s-.53,9.37-.51,9.52"/>
    <path class="cls-1" d="M39.62,33.77a1.88,1.88,0,0,1,1.07.83A1.49,1.49,0,0,1,40.62,36c-.1.24-.28.55-.47,1a.64.64,0,0,1-.73.44,5.1,5.1,0,0,1-1.16-.24c-.38-.14-.34-1.07-.34-1.07s0-.84,0-1a1.22,1.22,0,0,1,.4-.91,1.73,1.73,0,0,1,1.28-.4,1.66,1.66,0,0,1,1.25.92c.09.25.18.6.17.55s.16-2.31.19-2.57.12-1,.14-1.35.4-6.29.4-6.29"/>
    <path class="cls-1" d="M38.21,37.33a5.59,5.59,0,0,0,.11,1.33c0,.15-.07.24.71,1.15l-.44.32L38.33,40l-.29.21,0,.34-.31.24s-.18.06,0,.24,1.72,2.33,1.72,2.33l.46.56s.13.14.44-.1,1.46-1.08,1.46-1.08a7.44,7.44,0,0,0-.16-1.89A20.43,20.43,0,0,0,40.8,38c-.14-.25-.08-.33.12-.48a8.45,8.45,0,0,1,1-.61.44.44,0,0,1,.53,0c.2.17,1.66,1.45,1.85,1.66l1.13,1.18c.19.21.29.28.14.37s-1,.69-1.15.8-1.28,1-1.28,1l-.91.76-.22.17-.15-.16"/>
    <path class="cls-1" d="M45.62,40.12l.66,1a4,4,0,0,1,.43.76c0,.19.14.44-.36.62s-1.78.44-1.78.44a.78.78,0,0,1-.29-.22,2.46,2.46,0,0,0-.23-.29l-.28.19s-.11,0-.27-.19c-.19.15-2.18,1.71-2.32,1.8a.76.76,0,0,1-.92-.34,1.73,1.73,0,0,1-.36.17c-.16,0-1.07.49-1.46.66a9,9,0,0,0-1.75.91,14.65,14.65,0,0,0-1.76,1.61c-.32.34-.21.26-.24.45-.07.49-.27.28-.63-.07a12.58,12.58,0,0,1-1.27-1.68c-.19-.3-.16-.33-.11-.47s.19-.08.4-.11.28-.16.41-.28.87-.62,1.56-1a8.76,8.76,0,0,0,1.81-1.16,1,1,0,0,0,.3-.51c0-.47.08-.4.14-.49a1.72,1.72,0,0,1,.26-.39c.14-.17.21-.28.18-.41s0-.29,0-.29"/>
    <path class="cls-1" d="M42.19,43.46a.5.5,0,0,0,.14.17c.08.06.19,0,.33,0,.15.22.81,1.09.81,1.09l.25.32a.5.5,0,0,0,.3.12.37.37,0,0,1,.31.18c.11.15.41.52.41.52a.73.73,0,0,0,.22.1c.14,0,.16.08.23.07l.31.27s-.09.32.23.21,0-.32-.15-.3a4.11,4.11,0,0,1-.21-.36s.07,0,.06-.21a.92.92,0,0,0-.15-.44l-.38-.51,0-.42a2.88,2.88,0,0,1-.19-.27c-.1-.15-1-1.33-1-1.33"/>
    <path class="cls-1" d="M38.43,44.71a2.31,2.31,0,0,0,.27.33c.1.06.18-.09.32-.22s.23-.28.33-.32.19-.16,0-.23"/>
    <path class="cls-1" d="M37.82,45l.25,6.93h.2v.25l-.08,0s0,.33.06.47.13.11.15.3-.18.28-.4.33l-.32.22s.3,1.45.4,1.78.74,2.7.78,2.9.1.29,0,.35"/>
  </g>
</svg>