<?xml version="1.0" encoding="utf-8"?>
<svg viewBox="25.985 0 27.956 74.631" xmlns="http://www.w3.org/2000/svg">
  <defs>
    <style>.cls-1{fill:none;stroke:#f4f4f4;stroke-linejoin:round;}</style>
  </defs>
  <title>f4_Caliper</title>
  <g id="Linework">
    <path class="cls-1" d="M38.37,29.48s0,.25-.92.22-1.11,0-1.38-.21-.33-.24-.48-.23L35.34,29a.54.54,0,0,0-.32-.33c-.1-.17-.16-.3-.16-.3a1,1,0,0,0-.08-.31c-.06-.12-.24-.17-.24-.5s-.06-.41-.06-.54.11-.51,0-.69a1.42,1.42,0,0,1,.08-.52c0-.13,0-.27,0-.45a1.09,1.09,0,0,0,.07-.47c0-.12.09-.28.12-.42s0-.22,0-.33a25.05,25.05,0,0,0,1.26-2.89c.07-.54.11-2.58.08-3.26s0-3.88,0-3.88-7.69-1.73-8.05-1.91a13.93,13.93,0,0,1-1.66-1.76l10.7-.1a3.92,3.92,0,0,1,1.25-.27V6.4a.8.8,0,0,0,.1-.45c0-.23.05-.4-.46-.41a16.87,16.87,0,0,0-2.66.07.35.35,0,0,1-.36.14l-8.49,0,1.4-1.9,8.43-2h7.2s.46-.15.46.62,0,1.22.61,1.22h4l-1.28,1L44,5.24l-.72,0s-.31,0-.31.46a4.56,4.56,0,0,0,.06.81h.61l3.67.77L48.53,8.4H45.36s-1.37-.56-1.43.41.11,1.68.11,1.68.71.31.71,1.64,0,6.59,0,6.59a32.69,32.69,0,0,1,.74,3.55c0,.24,0,.16.08.55l0,.39a.29.29,0,0,0,.08.37c0,.27,0,.5,0,.5s-.2.11,0,.41c0,.42-.13.58-.06.84a8.69,8.69,0,0,1-.07.88c-.07.31-.23.4-.23.69s-.43.42-.53.72A2.06,2.06,0,0,1,43,28.79"/>
    <path class="cls-1" d="M37.81,12.92l2.87,0s.23,0,.23.37,0,7.15,0,7.15,0,.27-.42.25l-2.59,0s-.26,0-.24-.34,0-7.22,0-7.22A.28.28,0,0,1,37.81,12.92Z"/>
    <polyline class="cls-1" points="44.8 17.04 44.97 17.06 44.97 17.52 44.82 17.5"/>
    <path class="cls-1" d="M45.43,16.6a.17.17,0,0,1,.19-.18c.2,0,.75,0,.75,0s.16,0,.16.33a4.92,4.92,0,0,1-.09,1.27,3.88,3.88,0,0,1-.95,0A.16.16,0,0,1,45.4,18a1.48,1.48,0,0,0,0-.2C45.36,17.62,45.43,16.6,45.43,16.6Z"/>
    <polyline class="cls-1" points="45.37 17.95 44.99 17.95 44.98 16.62 45.42 16.61"/>
    <path class="cls-1" d="M44.06,10.52a8.17,8.17,0,0,0-4.39-.59,5.62,5.62,0,0,1-1.35.16"/>
    <path class="cls-1" d="M36.55,25a3.5,3.5,0,0,1,3.12-4.08,3.34,3.34,0,0,1,3.19,1.4c.46,0,.69.2.51.44a.45.45,0,0,0,.26.58c.18.05.3.11.25.28a1,1,0,0,1-.3.46,3.57,3.57,0,0,1-2.2,3.78,3.31,3.31,0,0,1-4.08-1.17c-.41,0-.62,0-.46-.56,0-.16,0-.31-.26-.41S36.17,25.25,36.55,25Z"/>
    <path class="cls-1" d="M37.22,24.33a5.44,5.44,0,0,1,4-2c.89.05,2.83.18,1.63,2.35a5.21,5.21,0,0,1-3.73,1.94c-1.2,0-2-.18-2.17-.77A1.75,1.75,0,0,1,37.22,24.33Z"/>
    <path class="cls-1" d="M42.7,20c0,.44.17.8.37.8s.36-.36.36-.8-.16-.8-.36-.8S42.7,19.58,42.7,20Z"/>
    <polygon class="cls-1" points="42.97 69 38.34 69 38.34 29.54 42.97 28.79 42.97 69"/>
    <rect class="cls-1" x="40.48" y="69" width="0.36" height="4.25"/>
  </g>
</svg>