<?xml version="1.0" encoding="utf-8"?>
<svg viewBox="0.985 0 73.276 75" xmlns="http://www.w3.org/2000/svg">
  <defs>
    <style>.cls-1{fill:none;stroke:#f4f4f4;stroke-linejoin:round;}</style>
  </defs>
  <title>f4_Delta</title>
  <g id="Linework">
    <path class="cls-1" d="M14.42,42.63l-5.66,1-4.43-.08a3.55,3.55,0,0,0-1.15.35c-1.12,0-1.08-.58-1.08-.58V39.7s0-.23.5-.46,17-6.81,17-6.81.23-.34,1.42-.19,3.39.38,3.39.38V31.35l2.31.16a.48.48,0,0,1,.53.31,3.25,3.25,0,0,1,.5,1.65,5,5,0,0,1,0,.58l-.58-.12,0,6.35a.44.44,0,0,1-.5.42c-.5,0-6.31-.3-6.31-.3s-.54.11-.54-.81V32.78s-.09-.52.25-.52"/>
    <path class="cls-1" d="M14.45,41.55l2-.38a10.2,10.2,0,0,1,1.15,0c.42,0,5.42.23,5.42.23s.66-.16.7.61,0,28.32,0,28.32l-6.54,1s-.47.12-1.5-.62-1.16-.57-1.16-1.69S14.45,41.55,14.45,41.55Z"/>
    <line class="cls-1" x1="17.03" y1="71.29" x2="16.95" y2="41.17"/>
    <path class="cls-1" d="M15,70.29s-.08.81-.58.27c0,.23,0,.85,0,.85l3.19,2.07.42.12L24,72.52l-.16-1s-.86-.13-.5-1.07"/>
    <line class="cls-1" x1="14.45" y1="70.56" x2="15.01" y2="70.42"/>
    <path class="cls-1" d="M8.72,43.59s.46.08.46.42.08,18.9.08,18.9L7,63.1l-2.38.27a1.2,1.2,0,0,1-.66-.31c-.38-.31-.54-.31-.58-1s0-18.32,0-18.32"/>
    <path class="cls-1" d="M3.68,62.86l0,.28s-.08.23-.19.07-.1,0-.1.21,0,.25.16.35,1,.83,1,.83a2.07,2.07,0,0,0,.67,0c.46,0,3.92-.46,3.92-.46s.16,0,.14-.33,0-.31-.37-.46a3,3,0,0,0,0-.45"/>
    <line class="cls-1" x1="4.91" y1="64.14" x2="4.91" y2="64.63"/>
    <path class="cls-1" d="M4.89,63.33s.08-19.82,0-19.82"/>
    <line class="cls-1" x1="2.39" y1="43.69" x2="19.94" y2="40.15"/>
    <path class="cls-1" d="M9.43,36.49S9.7,32,9.7,31.88s0-.52-.29-.26c-.13.12-.17,0-.19-.46a12.11,12.11,0,0,1,.52-3.32c.29-.47.44-.81.85-.77S27,29.12,27,29.12l3,5.45a26.64,26.64,0,0,0-1.37-4.85c-.32-.6-.71-1.06-1.63-.63"/>
    <path class="cls-1" d="M10.34,27.13l2.19,5.92,0,1a4.8,4.8,0,0,1-.3,1.31"/>
    <line class="cls-1" x1="23.11" y1="41.4" x2="26.84" y2="40.67"/>
    <line class="cls-1" x1="12.53" y1="33.16" x2="16.86" y2="33.55"/>
    <line class="cls-1" x1="27.21" y1="34.2" x2="29.88" y2="34.42"/>
    <path class="cls-1" d="M27.52,28.91l1.55.1a1,1,0,0,0,.45.19c.27,0,.77-.06.94.35A22.26,22.26,0,0,1,31.65,33c.75.75,1.66,1.54,2.18,1.56s1.49-.71,1.49-1.21,0-6.32,0-6.32l-.1-24.44a4.72,4.72,0,0,0-3.77-1.18C30,2.85,29.07,3.62,29.07,3.62s-.23.09-.21.52S29.07,29,29.07,29"/>
    <line class="cls-1" x1="31.44" y1="1.46" x2="31.61" y2="32.85"/>
    <path class="cls-1" d="M30,34.57l7.54.61a26.41,26.41,0,0,0-1.08-3.78,7.63,7.63,0,0,0-.6-1.22,4.33,4.33,0,0,0-.55-.08"/>
    <polyline class="cls-1" points="35.9 30.2 42.66 31.01 43.23 31.82 45.75 35.76"/>
    <path class="cls-1" d="M37.52,35.09l8,.67s.52,0,.62.15a1.11,1.11,0,0,1,0,.77,3.22,3.22,0,0,1-.27.75c-.12.18-.43.22-1,.2S27.17,36.3,27.17,36.3"/>
    <polyline class="cls-1" points="44.77 37.62 44.25 37.86 42.79 37.76 41.02 38.82 33.84 38.51"/>
    <line class="cls-1" x1="32.04" y1="38.3" x2="27.17" y2="37.99"/>
    <polyline class="cls-1" points="32.44 36.7 32 36.76 32.13 51.32 32.73 51.3 33.88 51.32 33.87 36.84"/>
    <polyline class="cls-1" points="32.59 51.32 32.6 52.4 33.51 52.4 33.51 51.32"/>
    <polyline class="cls-1" points="32.74 52.41 32.74 52.5 33.4 52.5 33.4 52.4"/>
    <polyline class="cls-1" points="32.9 52.52 32.9 52.65 33.2 52.65 33.2 52.52"/>
    <path class="cls-1" d="M33,52.66v.53s-.17.1,0,.18c0,.42,0,1.1,0,1.1h.16v-1.1s.17-.11,0-.19c0-.21,0-.53,0-.53"/>
    <line class="cls-1" x1="33.21" y1="53.25" x2="33.63" y2="53.25"/>
    <line class="cls-1" x1="32.91" y1="53.28" x2="32.55" y2="53.28"/>
    <path class="cls-1" d="M33.92,40.7a9.09,9.09,0,0,1,2-.46c1.35-.19,3.86-.33,3.86-.33"/>
    <path class="cls-1" d="M39.62,38.78s-.16,1.15.19,1.15,7.38-1.11,7.38-1.11"/>
    <path class="cls-1" d="M49,38.74s.09-.14.19-.32a5.07,5.07,0,0,0,.24-.45A.45.45,0,0,1,50,37.7c.19.08.31.47.31.47H51c0-.16-.07-.58-.11-1.16-.27-1.11-2.85-2.27-3.5-2.5a18.77,18.77,0,0,0-2.66-.42,5,5,0,0,1,.54.77c.42.27,1.85,1.34,1.89,2.19s0,1.77,0,1.77Z"/>
    <path class="cls-1" d="M72.74,42.32s-2.73-.08-3.27-.08-.46-.38-.46-.38V38.32c0-.35-.12-.35-.31-.38-.35,0-.23-.43-.23-.43V36.16l1.46.12.47-1,1.11.11.66,1.54.73.08v5s0,.39-.5.43-7.28.42-7.28.42l-3.54-.12L57.66,43l0,.27-15.54,1-3,0-2,.16v.19l-3.12-.08L56.66,43l12.54-.77"/>
    <line class="cls-1" x1="33.88" y1="41.94" x2="68.56" y2="37.89"/>
    <line class="cls-1" x1="51" y1="38.09" x2="70.36" y2="35.28"/>
    <path class="cls-1" d="M65.16,42.86l0,21.28-3.35.46a7.92,7.92,0,0,1-1.07-.08c-.5-.08-2.89-.61-2.89-.61s-.15,0-.15-.74S57.7,43,57.7,43"/>
    <line class="cls-1" x1="61.55" y1="42.74" x2="61.7" y2="64.6"/>
    <path class="cls-1" d="M37,44.44l.12,15.12,1.8.46s.12,0,.46,0l2.7-.35,0-15.39"/>
    <line class="cls-1" x1="39.11" y1="44.24" x2="39.08" y2="60.02"/>
    <line class="cls-1" x1="39.85" y1="60.56" x2="39.85" y2="61.06"/>
    <path class="cls-1" d="M37.38,59.63l0,.39-.43,0c0,.31-.15.46.16.54s2.46.5,2.46.5a2.16,2.16,0,0,0,.69,0c.39,0,2-.35,2-.35l0-.42-.42-.12h0v-.5"/>
    <line class="cls-1" x1="21.84" y1="32.35" x2="24.46" y2="31.36"/>
    <path class="cls-1" d="M65.2,64.14l0,.6.6.16,0,.66-2.77.54a1.63,1.63,0,0,1-.7,0L57.24,65l.07-.65.81.19L58.2,64"/>
  </g>
</svg>