<svg xmlns="http://www.w3.org/2000/svg" viewBox="0 0 75 75"><defs><style>.cls-1{fill:none;stroke:#f4f4f4;stroke-linejoin:round;}</style></defs><title>f4_Laser_Tracking_System</title><g id="Linework"><path class="cls-1" d="M55.66,74l-1-3.43s.39-.06.46-.16c.22-.34-.17-1.62-.17-1.62s.22-2.7.23-3.68S55,61.4,55,61.4a16.78,16.78,0,0,1-.36-2,5.52,5.52,0,0,1,.15-1.07c.07-.24.38-.93.38-.93s4.29-.39,4.47-.47a.77.77,0,0,0,.29-.37c0-.14-.06-.36,0-.5s.17-.43.17-.43l1.73-.23a1.28,1.28,0,0,0,.49-.83,1.19,1.19,0,0,0-.58-.72L60.1,54l.13-6.55a21.62,21.62,0,0,0,2.9-.38,1.56,1.56,0,0,0,.24-.56,1.08,1.08,0,0,0,0-.4,2.81,2.81,0,0,0-.39-.58,14.38,14.38,0,0,0-2.71.27l-.13-1.87a1.58,1.58,0,0,0-.09-.37c-.67-1.12-3.93-3.45-3.93-3.45s0-.43,0-.61a1.62,1.62,0,0,0,0-.38,1.52,1.52,0,0,0-.31-.36,1,1,0,0,0-.27-.18,5.67,5.67,0,0,0-1.61.31A9.28,9.28,0,0,0,52,38a7.25,7.25,0,0,0-1.57.26l-.16-2.82a2.62,2.62,0,0,0-.52-.24,1.08,1.08,0,0,0-.44,0,2.93,2.93,0,0,0-.46.27l-.21,3.2s-4,.66-4.46,1.1-1,8.64-.29,13.47c0,.24.23.91.23.91l.18.4.59.32.71.23,3.19.94a4.54,4.54,0,0,0,.31.36,1.42,1.42,0,0,0,.33.21c.13,0,.4-.06.52,0a1.51,1.51,0,0,1,.64.53c.07.15-.06.49,0,.63s.34.21.27.62a1.51,1.51,0,0,0,0,.66s-.46.38-.47.56.51.72.51.72-.17,7.75,0,8.14,1.11.33,1.11.33-.15,1.54.15,1.86.94,0,.94,0L54.37,74"/><path class="cls-1" d="M51.31,41.38a25.81,25.81,0,0,1,4.25,1.06,10.4,10.4,0,0,1,3.26,2,.67.67,0,0,1,.1.23.66.66,0,0,1,0,.28,10.23,10.23,0,0,1-2.71,3.61,10.41,10.41,0,0,1-4.67,2.34"/><path class="cls-1" d="M47.12,50c0,.52-.13,1-.42,1s-.59-.41-.61-.93.26-.95.55-1S47.11,49.49,47.12,50Z"/><path class="cls-1" d="M50,45.52c0,.4-.1.64-.53.71l-4.13.7c-.4,0-.49.11-.5-.29L45,41.75c0-.4.36-.58.71-.67l4.05-.72c.4,0,.26.77.27,1.17Z"/><path class="cls-1" d="M56.12,44.22l-.89.1s-.4,0-.27,1.22a.93.93,0,0,0,.45.8l1-.2"/><path class="cls-1" d="M56.74,45.27c0,.54,0,.86-.31.87s-.66-.48-.67-1,.13-.89.44-.9S56.74,45,56.74,45.27Z"/><path class="cls-1" d="M60.26,45.76s-.1,0-.37.05-.4.07-.33.81c0,.5.16.82.38.81a1.32,1.32,0,0,0,.29,0"/><path class="cls-1" d="M60.15,53.92l-.38,0-.7,0h0c-.69,0-.87.35-.86.83v0c0,.49.12,1,.92.86h0a3.31,3.31,0,0,0,1-.11"/><path class="cls-1" d="M48.79,56c-1.19-1.3,1.36-1.18,3.23-1.24s4.85.81,4.87,1.35c0,.25.17.8-1.73,1.28"/><path class="cls-1" d="M59.63,56.92l-7.28-3.17a1.55,1.55,0,0,1-.29-.22,1.92,1.92,0,0,1-.22-.56,58.28,58.28,0,0,1-.57-8.46,25.9,25.9,0,0,1,.44-6.1.75.75,0,0,1,.2-.37s.17,0,.17-.08"/><line class="cls-1" x1="48.64" y1="38.63" x2="50.43" y2="38.21"/><path class="cls-1" d="M56.13,39.92s-.1.19-.12.21a1.46,1.46,0,0,1-.22.17l-1.55.34c-.33.41-.79-.27-.8-.79s0-1,.5-1"/><path class="cls-1" d="M34.15,46.46l0-1.09,2.71-.15,3.44-.63a2.24,2.24,0,0,0,.53-.45c.23-.47-.4-10.47-.4-10.47l-.26-3.74L40,28.07s-.11-1.3-.15-1.68-.19-1.22-.25-1.6l-.36-2.25s-.44-1.68-.56-2.18-.48-1.77-.48-1.77l-.58-1.89-.72-1.79-.72-1.52-.75-1.55-.88-1.41s-.6-1.06-.82-1.4a6.63,6.63,0,0,0-1.14-1.48,3.11,3.11,0,0,0-.3-.2,3.93,3.93,0,0,0-.54-.14L31.14,7c-.15,0-.51-.21-.51-.21l-.75-.47s-.43-.32-.6-.42a6,6,0,0,0-.59-.3l-.7-.3c-.22-.08-.54-.17-.87-.26s-.65-.16-.87-.2-.55-.09-.89-.12l-.89-.08c-.35,0-1.07-.05-1.7-.06l-1.17,0-.66-.19-.66-.19-.43-.08A2.83,2.83,0,0,0,19.22,4l-.13,0L19,4a1.27,1.27,0,0,0-.25.16,2.2,2.2,0,0,0-.21.19,13.21,13.21,0,0,0-1,1.73c-.34.66-.6,1.24-.6,1.24a43.77,43.77,0,0,0-2.28,5.38C14.16,14.12,14,15,14,15s-.34,1.07-.69,2.59-.71,3.51-.84,4.7c-.1.83-.22,1.9-.32,3.08s-.18,2.47-.21,3.74c0,.88-.06,2.65-.1,4.19s-.08,2.88-.08,2.88,0,1.4,0,3-.05,3.51-.05,4.44a2.23,2.23,0,0,0,0,.33,1.41,1.41,0,0,0,.1.31.91.91,0,0,0,.13.16l.17.12.23.1.23.07a7.52,7.52,0,0,0,1.07.09,7.69,7.69,0,0,1,1,.15l2.06.07,2.07.06.15.23.16.23v.84l.17,4.91-.08.27,0,.67,0,.66v2.46l.09.06.08.06.07,0,.08,0h.13l.12,0,0,.09,0,.09.22,0,.22,0,.06.11.07.1-.05.29-.05.29.05.55.05.54-.17.14-.16.14-.12.93-.11.92.14.11L20,60l3,0c1.63,0,3.48,0,4.41,0s2.39-.08,3.79-.15l2.59-.12.12-.12.11-.12-.15-.9-.16-.9-.09-.1-.09-.11a.47.47,0,0,0,.1-.13.93.93,0,0,0,.07-.43,1.21,1.21,0,0,0-.13-.48.62.62,0,0,0-.1-.15L33.38,56l-.07-.3.06,0,.06,0,.24,0,.24,0,0-.11,0-.12.22,0c.11,0,.23,0,.26-.1a9.48,9.48,0,0,0,0-2.18c0-1-.11-1.86-.11-1.86Z"/><path class="cls-1" d="M22.61,6.68c.3,0,1.84.12,1.84.12L26,7.05c.05,0,1.12.26,1.12.26s.87.3,1.16.42a5.32,5.32,0,0,1,.5.21c.15.09.49.28.54.45.28.91-1,3.67-1,3.67l-2.5-.46-.49-.06-.69.06-.25.05-.57-1.78-.47-1.41L22.9,7.32Z"/><path class="cls-1" d="M20.94,4.33l.56,4L22,12.79l.38,4.73.24,4.18.14,4,.11,4.94L23,42.28a6.27,6.27,0,0,1-.07,1,.69.69,0,0,1-.58.57c-1.53.37-5.71,1.16-5.71,1.16"/><path class="cls-1" d="M24.35,11.65l.79,3.53.83,4L26.55,24l.38,5.65.26,6.25.12,5.91a6.61,6.61,0,0,1-.09,1.8.69.69,0,0,1-.34.27c-2,.66-8.2,1.19-8.2,1.19"/><path class="cls-1" d="M26,19.15l3.93-1.63h.26c.89.08,3.51.69,3.51.69"/><path class="cls-1" d="M28.28,12.06l1.24.24.71.18.64.17s.4.08.53.12a5.47,5.47,0,0,1,.69.33c.13.08.49.38.49.38l.72.76.37.58.52.81.31.73.42,1,.18.69.42.06.17.47.11.62.08.75.09.83-.06.87-.12.69-.12.63-.46.69L35,24.5l-.18.69-.27.82-.31.88-.38,1-.52,1-.49.81-.51.76-.56.69-.67.69s-.69.55-.94.7a7.18,7.18,0,0,1-.83.42c-.11.05-.45.15-.45.15"/><path class="cls-1" d="M28.33,33s.35,1.14.48,1.49.86,1.92.86,1.92.26.49.35.63.3.54.44.61c.32.17.4.06.48,0a1.34,1.34,0,0,0,.28-.38,5.91,5.91,0,0,0,.2-.78s.17-1.25.2-1.67a3.6,3.6,0,0,0,.06-1.13,2.16,2.16,0,0,0-.35-.42l-4.27-.39"/><path class="cls-1" d="M30.63,21.56l-.05,1.61v1l.05,1s0,.79.07,1,.1.66.14.89.11.48.15.62a.85.85,0,0,0,.16.28.33.33,0,0,0,.28,0,.78.78,0,0,0,.27-.2c.16-.17.66-.65.66-.65l.79-.88.74-.92.67-1.12.37-.72.26-.66.48.09"/><path class="cls-1" d="M35.75,19.54c0,.72-.27,1.07-.73,1.07s-.93-.48-1.06-1.19.35-1.4.8-1.4S35.75,18.82,35.75,19.54Z"/><path class="cls-1" d="M34.63,18,33,18.33c-1.1-.21-1.27,1.06-1.16,1.76.15.95.91,2.42,2.31,1.08l1.1-.6"/><polyline class="cls-1" points="30.2 21.53 29.62 24.37 29.46 25.16 29.06 26.33 28.78 27.17 28.43 27.93 28.07 28.62 27.71 29.27 27.34 29.83 26.96 30.23"/><polyline class="cls-1" points="26.41 22.81 30 21.52 30.63 21.56 35.31 22.33 35.38 22.25 35.48 20.51"/><polyline class="cls-1" points="30.58 17.57 30.68 17.94 30.73 18.31 30.77 18.75 30.81 19.32 30.81 19.79 30.81 20.25 30.81 20.69 30.76 20.96 30.69 21.26 30.63 21.51 30.63 21.56"/><path class="cls-1" d="M29.73,17l-.14,0h-.27s-.17-.82-.28-1.45a8.42,8.42,0,0,0-.74-1.79,6.31,6.31,0,0,0-.66-.88,5.1,5.1,0,0,0-.91-.76c-.22-.16-.94-.53-.94-.53s-.27,0-.27-.08"/><path class="cls-1" d="M19,46.4l3.57-.33,6.17-.18,3.64.1.79.06c.16,0,.54.05.69.09a1.58,1.58,0,0,1,.31.13"/><path class="cls-1" d="M13,18.73s0,2.13,0,2.69c0,.75,0,2.25,0,3s.1,2.39.14,3.18c0,.53,0,1.7.08,2.23,0,.76.2,2.17.27,2.93.06.59.2,1.75.27,2.34s.23,2,.33,2.69.3,2,.46,2.71c0,.16.14.65.22.69s.72-4,.92-5.18.4-3.07.53-4.12c.16-1.36.47-4,.58-5.33.1-1.1.2-3.31.28-4.42s.32-4.32.32-4.32"/><path class="cls-1" d="M34.12,45.37s3.12-.6,4-.81a1.11,1.11,0,0,0,.32-.26,1.28,1.28,0,0,0,.17-.42c0-.35,0-.8,0-1.05-.09-3-.61-12.12-.61-12.12s-.26-3.65-.41-4.86c-.12-1-.64-4-.64-4l-.55-3.18-.77-2.52-.81-2.25-1-2.58L32.53,8.77l-.79-1.56"/><path class="cls-1" d="M13.19,29.16l1.12-.41.59-.22s.6-.2.77-.27.85-.27.94-.28"/><path class="cls-1" d="M30.3,17.06s0-1.32,0-1.77a8.66,8.66,0,0,1,.07-1.36,1.76,1.76,0,0,1,.31-.53,2.27,2.27,0,0,1,.76-.52"/><path class="cls-1" d="M33.83,44.26v-.6s0-.88,0-1.18-.05-.72-.07-1.08-.05-.94-.08-1.27-.07-1.21-.11-1.61-.18-1.28-.22-1.66-.19-1.37-.25-1.73-.19-1.68-.63-1.81H31.33"/><line class="cls-1" x1="19.7" y1="59.98" x2="18.64" y2="71.29"/><line class="cls-1" x1="33.88" y1="59.57" x2="35.67" y2="73.62"/><path class="cls-1" d="M49.93,25.19s0-.17-.31-.21-.4-.1-.22-.46"/><path class="cls-1" d="M52.74,21.26l-.13.1v3.86H49.93c-.07.19-.5.21-.66,0-.34-.49.13-.68.13-.68s.32-.82,1-3.32a34.74,34.74,0,0,0,1.24-10.28L51.6,9.48a29.23,29.23,0,0,0-2.05-7.65c-.23-.43-.07-.53.1-.55a.92.92,0,0,0,.37-.1c.79,0,8.28,0,8.53,0s0,.07.35.1.26.31.14.57S58,4.69,57.56,6.29a22.72,22.72,0,0,0-.6,4.64,39.11,39.11,0,0,0,.87,8.77c.24,1.22,1.14,4.26,1.32,4.85S59,25,58.82,25a.19.19,0,0,0-.15.19l-2.73,0L56,21.58l-.11-.34Z"/><path class="cls-1" d="M51.68,10.9s-3.56-.25-4.27-.85"/><path class="cls-1" d="M48.36,8.91a12,12,0,0,0,3.24.58"/><path class="cls-1" d="M57.05,9.5a17.13,17.13,0,0,0,3.25-.58"/><path class="cls-1" d="M57,10.92s3.34-.23,4.36-.89"/><path class="cls-1" d="M61.89,9.81a.95.95,0,1,0-1.33-.07A.93.93,0,0,0,61.89,9.81Z"/><path class="cls-1" d="M48.11,9.82a.95.95,0,1,0-1.32-.07A.92.92,0,0,0,48.11,9.82Z"/><path class="cls-1" d="M49.56,1.87a.4.4,0,0,1-.3-.43c0-.36.52-.63.76-.26"/><path class="cls-1" d="M58.55,1.17s.27-.42.71,0a.4.4,0,0,1-.2.64"/><path class="cls-1" d="M54.6,5.12A.44.44,0,0,0,54,4.48a.44.44,0,0,0,0,.61A.43.43,0,0,0,54.6,5.12Z"/><path class="cls-1" d="M54.64,8.83a.44.44,0,1,0-.61,0A.44.44,0,0,0,54.64,8.83Z"/><path class="cls-1" d="M54.91,12.49a.81.81,0,0,0,0-1.15.8.8,0,1,0-1.18,1.08A.81.81,0,0,0,54.91,12.49Z"/><path class="cls-1" d="M54.58,15.66a.38.38,0,1,0-.53,0A.38.38,0,0,0,54.58,15.66Z"/><path class="cls-1" d="M54.63,19.91a.45.45,0,1,0-.64,0A.44.44,0,0,0,54.63,19.91Z"/><path class="cls-1" d="M58.66,25.19a.39.39,0,0,0,.58.1.43.43,0,0,0-.08-.75"/><path class="cls-1" d="M56,25.12c-.19.94-1,3.7-1,3.7s0,.1-.15.13l-1.19,0s-.06.06-.1-.13-.91-3.34-1-3.58"/><path class="cls-1" d="M53.72,28.94s0,.56,0,.63a1.65,1.65,0,0,0,.19.44c.07.13.1.16.18.15h.39s0,.06.15-.14a1.45,1.45,0,0,0,.23-.67c0-.25,0-.42,0-.42"/><polyline class="cls-1" points="54.08 30.17 54.05 34.32 54.48 34.33 54.51 30.19"/><path class="cls-1" d="M54.54,35a.37.37,0,0,0,0-.51.36.36,0,0,0-.51,0,.35.35,0,0,0,0,.51A.36.36,0,0,0,54.54,35Z"/></g></svg>