<svg xmlns="http://www.w3.org/2000/svg" viewBox="0 0 75 75"><defs><style>.cls-1{fill:none;stroke:#f4f4f4;stroke-linejoin:round;}</style></defs><title>f4_T_Scan</title><g id="Linework"><path class="cls-1" d="M41.61,73.45l-1.88-6.36s.74-.1.86-.29c.4-.64-.32-3-.32-3s.42-5,.44-6.82-.34-6.81-.34-6.81a30.05,30.05,0,0,1-.66-3.73,9.55,9.55,0,0,1,.28-2c.12-.45.7-1.73.7-1.73s8-.72,8.29-.86a1.39,1.39,0,0,0,.52-.69c.09-.26-.1-.66,0-.93a8.35,8.35,0,0,1,.33-.79L53,39a2.32,2.32,0,0,0,.91-1.53,2.13,2.13,0,0,0-1.07-1.33l-3,.21.24-12.13s5.12-.44,5.37-.71a2.71,2.71,0,0,0,.44-1,1.89,1.89,0,0,0,0-.75,4.28,4.28,0,0,0-.72-1.07c-.25-.3-5,.49-5,.49l-.24-3.47a3.43,3.43,0,0,0-.15-.68c-1.25-2.08-7.29-6.39-7.29-6.39s.07-.81.07-1.13a2.32,2.32,0,0,0,0-.7,2.21,2.21,0,0,0-.58-.68,1.46,1.46,0,0,0-.49-.33,10.45,10.45,0,0,0-3,.57,17.07,17.07,0,0,0-3.6-1.67,13.29,13.29,0,0,0-2.91.5L31.63,2a5.77,5.77,0,0,0-1-.45,2.51,2.51,0,0,0-.82,0A5.62,5.62,0,0,0,29,2L28.6,8s-7.37,1.23-8.26,2c-1.05,1-1.91,16-.55,25,.07.43.43,1.68.43,1.68l.33.75,1.11.58,1.31.43,5.91,1.74a6.59,6.59,0,0,0,.57.66,2,2,0,0,0,.62.39c.23.06.73-.11,1,0a2.8,2.8,0,0,1,1.19,1c.12.26-.11.91,0,1.16s.62.39.51,1.14a2.79,2.79,0,0,0,.06,1.23s-.86.71-.88,1.05.95,1.33.95,1.33-.32,14.36,0,15.07c.19.51,2.07.62,2.07.62s-.28,2.85.27,3.45c.37.4,1.74-.1,1.74-.1l2.3,6.41"/><path class="cls-1" d="M33.55,13.05a48.59,48.59,0,0,1,7.88,2c2.14.92,4.88,2.43,6,3.79a1.33,1.33,0,0,1,.19.42,1.46,1.46,0,0,1,0,.51c-.59,2-2.54,4.21-5,6.7C39.44,29.67,34,30.77,34,30.77"/><path class="cls-1" d="M25.79,29c0,1-.25,1.77-.78,1.78-.73,0-1.1-.75-1.13-1.72s.48-1.77,1-1.79C25.59,27.24,25.77,28.09,25.79,29Z"/><path class="cls-1" d="M31.68,21.17c0,.83-.21,1.33-1.12,1.48l-8.62,1.46c-.83,0-1,.23-1.06-.6L21.2,13.3c0-.84.73-1.22,1.48-1.4l8.46-1.52c.83,0,.53,1.61.56,2.44Z"/><path class="cls-1" d="M42.46,18.31l-1.65.19s-.75.1-.49,2.26a1.73,1.73,0,0,0,.84,1.49L43,21.87"/><path class="cls-1" d="M43.62,20.26c0,1,0,1.6-.58,1.61S41.82,21,41.79,20s.24-1.64.82-1.66S43.61,19.76,43.62,20.26Z"/><path class="cls-1" d="M50.13,21.17a5.34,5.34,0,0,1-.67.1c-.37,0-.75.13-.63,1.5.09.92.3,1.52.72,1.5a2.35,2.35,0,0,0,.54,0"/><path class="cls-1" d="M49.92,36.3l-.69.08s-.39,0-1.3.08h-.06c-1.28,0-1.62.64-1.6,1.55v.06c0,.91.21,1.79,1.69,1.59H48a6.79,6.79,0,0,0,1.76-.21"/><path class="cls-1" d="M28.88,40.15c-2.21-2.41,2.52-2.19,6-2.3s9,1.51,9,2.5c0,.46.31,1.48-3.2,2.37"/><path class="cls-1" d="M49,41.86,35.48,36a3.08,3.08,0,0,1-.53-.39,3.67,3.67,0,0,1-.42-1c-.88-3.83-.93-11.76-1.06-15.68-.09-2.83,0-8.58.81-11.3a1.66,1.66,0,0,1,.38-.69c.07-.05.32-.06.31-.15"/><line class="cls-1" x1="28.6" y1="7.95" x2="31.92" y2="7.19"/><path class="cls-1" d="M42.47,10.35s-.18.34-.22.39a2.75,2.75,0,0,1-.4.31L39,11.68c-.61.77-1.46-.49-1.49-1.45s-.06-1.84.94-1.87"/></g></svg>