<svg xmlns="http://www.w3.org/2000/svg" viewBox="0 0 75 75"><defs><style>.cls-1{fill:none;stroke:#f4f4f4;stroke-linejoin:round;}</style></defs><title>f4_White_Light_Scanner</title><g id="Linework"><path class="cls-1" d="M37.46,48.9A2.45,2.45,0,1,0,35,46.46,2.45,2.45,0,0,0,37.46,48.9Z"/><path class="cls-1" d="M37.5,51A4.61,4.61,0,1,0,33,46.43,4.53,4.53,0,0,0,37.5,51Z"/><path class="cls-1" d="M32,53.05s-2.44-2.15-3-4.14a11.33,11.33,0,0,1-.65-4.42c.08-1.63,1.3-4.84,3.09-6.1"/><path class="cls-1" d="M25.3,47.9l-2.4-5.73s-.2-.28.24-.36l3.29-.57s.45-.25.25.61a15.23,15.23,0,0,0-.29,5.48c0,.44-.08.53-.32.57s-.57.12-.57.12S25.34,48.1,25.3,47.9Z"/><path class="cls-1" d="M17.58,54.56l.24,3.12a6.22,6.22,0,0,0,2.77.45,7.4,7.4,0,0,0,3-.61v-.28"/><polyline class="cls-1" points="32 55.78 32 57.6 32.24 57.32 32 56.95 32.69 56.91 33.01 57.24 33.01 55.94 32.77 55.73"/><line class="cls-1" x1="32.69" y1="55.69" x2="32.69" y2="56.91"/><path class="cls-1" d="M17.62,38.43A128.23,128.23,0,0,1,32.2,35.92"/><path class="cls-1" d="M12,38a1.79,1.79,0,0,1,1.09-.81A24.51,24.51,0,0,0,16,36.2c.24-.2.93-1.46,1.38-1.5a3.15,3.15,0,0,1,2,.65s6-1.5,6.5-1.71a12.33,12.33,0,0,0,3.16-2.31"/><path class="cls-1" d="M16.57,35.39,16,22.88s-.21-.37.44-.53A7.53,7.53,0,0,1,20.83,22c1.34.16,1.06.93,1.1,1.5s.61,11.05.61,11.05"/><line class="cls-1" x1="19.61" y1="35.35" x2="19.12" y2="26.82"/><path class="cls-1" d="M16,22.58a29.77,29.77,0,0,0,1.25,2.73c.37.54.74,1.64,2.12,1.51.32-.08.89-.12,1.66-2a18.25,18.25,0,0,0,.85-2.27"/><path class="cls-1" d="M37.49,37.63a8.54,8.54,0,1,0-8.69-8.54A8.61,8.61,0,0,0,37.49,37.63Z"/><path class="cls-1" d="M37.5,34.26a5,5,0,1,0-5.11-5A5.07,5.07,0,0,0,37.5,34.26Z"/><path class="cls-1" d="M37.5,32a2.72,2.72,0,1,0-2.71-2.72A2.71,2.71,0,0,0,37.5,32Z"/><path class="cls-1" d="M14.41,55.22a8.66,8.66,0,0,0,0-17.32,8.66,8.66,0,0,0,0,17.32Z"/><path class="cls-1" d="M14.49,51.56a5.07,5.07,0,1,0-5-5.06A5,5,0,0,0,14.49,51.56Z"/><path class="cls-1" d="M14.56,49.17a2.61,2.61,0,1,0-2.67-2.61A2.64,2.64,0,0,0,14.56,49.17Z"/><path class="cls-1" d="M10.72,54.35,7.55,54a7.85,7.85,0,0,1-5-4.22c-1.71-3.54-.77-7.11,2.19-9.87,0,0,2.19-2.11,6.74-1.59"/><path class="cls-1" d="M54.33,52.48c-1.42.24-11.2.61-11.69.61l-5.12,0,0,0-5.12-.05c-.48,0-10.27-.36-11.69-.6"/><path class="cls-1" d="M43,53.09s2.44-2.16,3-4.15a11.33,11.33,0,0,0,.65-4.42c-.08-1.62-1.3-4.83-3.09-6.09"/><path class="cls-1" d="M49.7,47.93l2.4-5.73s.2-.28-.24-.36l-3.29-.57s-.45-.24-.25.61a15.23,15.23,0,0,1,.29,5.48c0,.45.08.53.32.57s.57.12.57.12S49.66,48.13,49.7,47.93Z"/><path class="cls-1" d="M54.74,40.21s-7.31-1.58-9.83-1.7a8.63,8.63,0,0,1-2.8-.41c-1.14-.08-3.9-.16-4.59-.16l0,0c-.69,0-3.45.08-4.59.16a8.6,8.6,0,0,1-2.8.41c-2.52.12-9.83,1.7-9.83,1.7"/><path class="cls-1" d="M57.42,54.59l-.24,3.13a6.12,6.12,0,0,1-2.76.44,7.24,7.24,0,0,1-3.05-.61v-.28"/><path class="cls-1" d="M41.91,55.73c5.64.2,13-.53,13.68-.53s.81.37.81.37l.09,1s.12.53-2,.61-17,.45-17,.45c-7.88.25-14.86-.4-17-.48s-2-.61-2-.61l.07-1s.17-.36.82-.36,8,.73,13.68.52h4.39Z"/><polyline class="cls-1" points="43 55.81 43 57.46 42.76 57.35 43 56.98 42.31 56.95 41.99 57.27 41.99 55.97 42.23 55.77"/><line class="cls-1" x1="42.31" y1="55.73" x2="42.31" y2="56.95"/><path class="cls-1" d="M57.38,38.47A129.74,129.74,0,0,0,42.8,36"/><path class="cls-1" d="M63,38a1.79,1.79,0,0,0-1.09-.81A23.34,23.34,0,0,1,59,36.23c-.24-.2-.93-1.46-1.38-1.5a3.15,3.15,0,0,0-2,.65s-6-1.5-6.5-1.71a12.33,12.33,0,0,1-3.16-2.31"/><path class="cls-1" d="M58.43,35.42,59,22.91s.21-.36-.44-.52A7.4,7.4,0,0,0,54.17,22c-1.34.16-1.05.93-1.1,1.5s-.6,11.05-.6,11.05"/><line class="cls-1" x1="55.39" y1="35.38" x2="55.88" y2="26.85"/><path class="cls-1" d="M59,22.75a28.11,28.11,0,0,1-1.25,2.64c-.37.53-.74,1.59-2.12,1.46-.32-.08-.89-.12-1.66-2a17.14,17.14,0,0,1-.85-2.19"/><path class="cls-1" d="M37.5,32a2.72,2.72,0,1,1,2.71-2.72A2.71,2.71,0,0,1,37.5,32Z"/><path class="cls-1" d="M44.83,24.54s.41-.16-.41-1.06a8.61,8.61,0,0,0-6.89-3.32h-.05a8.64,8.64,0,0,0-6.9,3.29c-.82.89-.41,1.06-.41,1.06"/><path class="cls-1" d="M45.52,25.8s-.12-3.13-1.14-4.55S41.8,17.2,37.57,17.2h-.09c-4.22,0-5.85,2.6-6.86,4s-1.14,4.54-1.14,4.54"/><path class="cls-1" d="M60.59,55.25a8.66,8.66,0,1,1,8.5-8.66A8.58,8.58,0,0,1,60.59,55.25Z"/><path class="cls-1" d="M60.51,51.59a5.07,5.07,0,1,1,5-5.06A5,5,0,0,1,60.51,51.59Z"/><path class="cls-1" d="M60.45,49.2a2.61,2.61,0,1,1,2.66-2.61A2.65,2.65,0,0,1,60.45,49.2Z"/><path class="cls-1" d="M64.17,54.39l3.17-.33a7.85,7.85,0,0,0,5-4.22c1.71-3.53.78-7.11-2.19-9.87,0,0-2.19-2.11-6.74-1.58"/></g></svg>