<?xml version="1.0" encoding="utf-8"?>
<svg viewBox="13.793 0.616 50.616 73.768" xmlns="http://www.w3.org/2000/svg">
  <defs>
    <style>.cls-1{fill:none;stroke:#f4f4f4;stroke-linejoin:round;}</style>
  </defs>
  <title>f4_Global</title>
  <g id="Linework">
    <line class="cls-1" x1="49.62" y1="55.96" x2="53.01" y2="56.11"/>
    <line class="cls-1" x1="30.24" y1="58.12" x2="30.1" y2="70.83"/>
    <path class="cls-1" d="M20.25,68.29a9.26,9.26,0,0,0-.94.16c-.1,0-.4.17,0,.21s1.53.06,1.82,0a2.56,2.56,0,0,0,.59-.09"/>
    <path class="cls-1" d="M19.14,68.6l0,1.28s-.1.17.29.2a8.64,8.64,0,0,0,1.89,0c.54-.1.6,0,.61-.39s0-1,0-1"/>
    <path class="cls-1" d="M20.25,68.17l0,.3s-.05.18.12.18.38.09.39-.2a.89.89,0,0,0,0-.13"/>
    <path class="cls-1" d="M29.57,73.34a2.55,2.55,0,0,0,1.61.19c1.2-.1,1.56-.16,1.73-.33"/>
    <path class="cls-1" d="M29.58,70.79v2.55s-.07.27.3.31a7.34,7.34,0,0,0,2.17,0c.86-.17.86-.24.87-.7s0-2.35,0-2.35"/>
    <path class="cls-1" d="M46.73,71.05s0,.11.83.15a5.18,5.18,0,0,0,2.17-.15"/>
    <path class="cls-1" d="M46.7,69l0,2s-.07.19.25.27a8.84,8.84,0,0,0,2,.19c.33-.08.77-.09.77-.35s0-2.49,0-2.49"/>
    <path class="cls-1" d="M52.6,57.23a2.73,2.73,0,0,1,0,.46c0,.26.18,8,.18,8l.07,2.56"/>
    <path class="cls-1" d="M31.06,56.72a2,2,0,0,0,.71,0"/>
    <path class="cls-1" d="M31.76,56.49s-.11.15,0,.2.18,0,.22.06A.57.57,0,0,1,32,57a.17.17,0,0,0,0,.07c0,.11,0,.25,0,.29a2.18,2.18,0,0,1-.5.07h-.54l-.08,0a.25.25,0,0,1-.06-.19c0-.11,0-.19,0-.25s-.07-.17,0-.22a.62.62,0,0,1,.25-.05c.06,0,0-.27,0-.27"/>
    <line class="cls-1" x1="17.79" y1="56.95" x2="30.1" y2="56.39"/>
    <path class="cls-1" d="M17.42,57.05a.83.83,0,0,1,.37-.1l.7-.06s.15,0,.15.22"/>
    <path class="cls-1" d="M50.89,55.92S54.45,57,55,57a.87.87,0,0,1,.39.07.2.2,0,0,1,.13.24c0,.13.09,2.29.08,2.63s.08,3.36,0,3.78-.5,1.71-.61,2.12-.27,1.17-.35,1.72-.26.48-.26.48l-1.41.23-17.46,2s-3.5.45-4.71.51a9.13,9.13,0,0,1-2.23-.19S17.7,67.4,17.38,67.34a.25.25,0,0,1-.22-.33s.23-9.45.21-9.73.14-.27.14-.27l3,.28,8.13.77,1.45.08c.5,0,1.65,0,1.65,0s.31-.09.33.2,0,.63.78.59l15.23-.76,1.42-.08s.38.07.39-.54c0-.18,0-.23.24-.23l5-.13s.4-.06.2-.1"/>
    <path class="cls-1" d="M37.87,45.39v.1l-.27,0s-.09,0,0,0l.26,0v.8a0,0,0,0,0,0,0s0,.07,0,.07h0v-.09s0,0,0-.06,0-.77,0-.77l.29,0s.14,0,0-.05H38V45.4"/>
    <path class="cls-1" d="M37.77,45h.34"/>
    <path class="cls-1" d="M37.74,44.94h.37"/>
    <path class="cls-1" d="M37.69,44.33a2.56,2.56,0,0,0,.43,0"/>
    <path class="cls-1" d="M37.56,43.93a4.19,4.19,0,0,0,.7,0"/>
    <path class="cls-1" d="M37.28,30.1l.08,10.54a.35.35,0,0,1-.1.28,3.51,3.51,0,0,1-.85.18"/>
    <path class="cls-1" d="M38.8,41.13a1.1,1.1,0,0,0,.45-.15"/>
    <path class="cls-1" d="M39.3,40.75a.94.94,0,0,1,0,.17s-.07.12-.46.11-1.41,0-1.5-.22"/>
    <polyline class="cls-1" points="36.14 40.84 37.36 40.64 39.34 40.75 39.28 30.68"/>
    <path class="cls-1" d="M36.49,41.11,37.81,41l1,.06s0,1,0,1.2.07,1.19-.51,1.17c-.41,0-.39-.22-.39-.22"/>
    <path class="cls-1" d="M36.3,41.07a1.5,1.5,0,0,0,.32.07c0,.12.14.09.14.09s0,.06,0,.06l-.1.11a.81.81,0,0,0-.19.38,2.13,2.13,0,0,0,.12,1c.27.69.57.62.57.62.41,0,.38,0,.38,0v.5a.24.24,0,0,1,.11.15c0,.09,0,.19,0,.19a.06.06,0,0,0,0,.08c0,.13,0,.59,0,.59s.08.05,0,.12a.13.13,0,0,0,0,.11c0,.06,0,.2,0,.2a1.62,1.62,0,0,0,.33,0s0,0,0-.15a1.33,1.33,0,0,0,0-.17s0-.07,0-.09,0,0,0-.16,0-.47,0-.47.06,0,.06-.14,0-.2.06-.24,0-.06,0-.16,0-.36,0-.36"/>
    <path class="cls-1" d="M36.07,30.75l.07,10.07V41l.15,0"/>
    <line class="cls-1" x1="24.9" y1="50.21" x2="24.9" y2="50.04"/>
    <line class="cls-1" x1="23.5" y1="50.07" x2="23.5" y2="50.25"/>
    <line class="cls-1" x1="32.42" y1="49.96" x2="32.41" y2="56.54"/>
    <path class="cls-1" d="M55.29,55.78l-17,.56-5.88.2-18-1.14.13-4.73a.17.17,0,0,1,.14-.11l10.79-.37,2.91-.11,4-.12h9.87l11.77,0,1.7,0h.78l5.68,0h.42a.45.45,0,0,1,.32.26c.07.21.48,1.26.57,1.59a4.88,4.88,0,0,1,.22,2,5.75,5.75,0,0,1-.42,2.15c-.06.17-.12.53-.44.56l-5,.33H55.72s-.13,0-.2-.24l-.12-.37-.16-.73A15,15,0,0,1,55,52.35c0-.62.23-2.08.23-2.08a.28.28,0,0,1,.26-.21l.58-.06"/>
    <path class="cls-1" d="M56.9,50.13s.26,6.37.31,6.67"/>
    <path class="cls-1" d="M55.34,50.11l1.43,0,1.76,0L62.6,50"/>
    <line class="cls-1" x1="22.5" y1="50.09" x2="22.51" y2="50.29"/>
    <line class="cls-1" x1="39.29" y1="32.84" x2="42.57" y2="33.18"/>
    <path class="cls-1" d="M40.89,50s0-4.31.06-4.79.39-5.53.65-7c.14-1,.54-3.09.65-3.61s.55-2.36.55-2.36l2.46-1.7.21,16.59s0,.35.13.4,2.36.77,2.75,1,1.11.47,1.22.54.08.1.09.31l0,.63"/>
    <path class="cls-1" d="M45.26,30.56l3.79.41s.25,0,.27.16,0,.18-.12.27-.45.52-.45.52,0,0,0,.47.19,10.29.19,10.29L49,47.23a.27.27,0,0,0,.18.26A36.38,36.38,0,0,1,53,48.65c.78.39.83.45.83.69s0,.64,0,.64"/>
    <polyline class="cls-1" points="44.1 29.09 50.29 29.91 52.72 30.24"/>
    <path class="cls-1" d="M42.89,25.3l5.9.95.73.14a5.73,5.73,0,0,1,1.32,1.16c.19.23,1.74,2.32,1.74,2.32a.33.33,0,0,1,0,.57C52.13,30.69,48.9,33,48.9,33"/>
    <path class="cls-1" d="M41.42,24.06a7.12,7.12,0,0,1,2,2.07,4.26,4.26,0,0,1,.63,3,2.18,2.18,0,0,1-1.44,1.79,11.38,11.38,0,0,1-3.38.55"/>
    <line class="cls-1" x1="25.43" y1="31.33" x2="36.08" y2="32.49"/>
    <path class="cls-1" d="M36.07,30.86l-.17-.09a1.9,1.9,0,0,0,.86-.29c.32-.25.37-.26.42-.31a.14.14,0,0,1,.19,0,8.2,8.2,0,0,0,2,.55c.2,0,.21.07,0,.19l-.13.09"/>
    <path class="cls-1" d="M32.83,29.67s1.1.64,1.43.77a9.89,9.89,0,0,0,1.79.61"/>
    <line class="cls-1" x1="25.69" y1="28.44" x2="32.46" y2="29.31"/>
    <line class="cls-1" x1="32.96" y1="22.72" x2="33.34" y2="22.65"/>
    <path class="cls-1" d="M36.51,25.65s-.17-7.38-.19-8S36,10.38,36,9.79,35.56,2,35.53,1.71"/>
    <path class="cls-1" d="M36.39,25.58a5.05,5.05,0,0,0-1.19-1.82c-.8-.72-1.26-1.1-1.49-1.11h-.37l0-3.19"/>
    <path class="cls-1" d="M32.12,23.74a6.29,6.29,0,0,1,.67.73,3.41,3.41,0,0,1,.48.89c.09.28-.09,1.34,0,1.5s.45.7.45.7.23.28,0,.46-.87.7-.87.7l-.05,1a1.89,1.89,0,0,0,1.85.1,2.38,2.38,0,0,0,1.14-1.54,4.71,4.71,0,0,0-.28-2.76,4.8,4.8,0,0,0-.78-1.32A6.74,6.74,0,0,0,33,22.72l-1,.38"/>
    <path class="cls-1" d="M31.19,23.57s-.14-.13.07-.22.21-.16.22-.29.57-2.31.64-2.53.4-1.1.88-1.16c.22,0,.27,0,.32.06s.07.09.07-.2,0-8.26,0-8.58,0-5.14,0-5.39,0-1.82,0-2,.11-.32.6-.62,1.49-.93,1.49-.93A3.77,3.77,0,0,1,37,1.64a7.13,7.13,0,0,1,3.15.9.52.52,0,0,1,.27.53c0,.22.26,3.59.26,3.6s.32,5.06.32,5.06.37,7.58.34,8.82c0,.4.08,5.35.08,5.35s0,.23-.31.45-1.15.89-1.15.89a2.42,2.42,0,0,1-2-.5s-1.29-1-1.5-1.1-1.19-.92-1.38-1.07"/>
    <line class="cls-1" x1="22.97" y1="26.34" x2="33.83" y2="27.91"/>
    <line class="cls-1" x1="23.26" y1="26.18" x2="21.05" y2="28.6"/>
    <line class="cls-1" x1="20.87" y1="22.17" x2="22.97" y2="26.66"/>
    <path class="cls-1" d="M32.49,23.76l-9.83-1.59s-1-.17-1.36-.18a1,1,0,0,0-.56.11L19.15,23c-.28.15-.29.24-.29.45a7.86,7.86,0,0,0,.36,2.12,11.27,11.27,0,0,0,1.65,2.92,1.3,1.3,0,0,0,.56.4l.68.22"/>
    <path class="cls-1" d="M19.76,26.79s0,3.53,0,3.71a.43.43,0,0,0,.27.4l.49.06,1.68.18"/>
    <path class="cls-1" d="M22,50.11,22.24,31l.05-1.27a2.2,2.2,0,0,1,.37-1c.3-.34.77-.81.77-.81s.32-.31.59-.26l1.26.19s.2-.1.19.47-.19,15.76-.19,15.76l-.08,6-1.59,0Z"/>
  </g>
</svg>