<?xml version="1.0" encoding="utf-8"?>
<svg viewBox="3.079 0 70.074 75" xmlns="http://www.w3.org/2000/svg">
  <defs>
    <style>.cls-1{fill:none;stroke:#f4f4f4;stroke-linejoin:round;}</style>
  </defs>
  <title>f4_Global_555</title>
  <g id="Linework">
    <line class="cls-1" x1="23.46" y1="1.71" x2="21.57" y2="1.35"/>
    <line class="cls-1" x1="69.64" y1="61.48" x2="44.12" y2="56.62"/>
    <line class="cls-1" x1="21.29" y1="21.57" x2="21.09" y2="21.58"/>
    <polyline class="cls-1" points="67.53 65.88 67.51 67 38.84 68.53 38.91 63.12"/>
    <line class="cls-1" x1="38.91" y1="63.12" x2="4.66" y2="56.59"/>
    <polyline class="cls-1" points="12.87 56.16 28.85 55.3 64.7 62.14 64.7 62.14 38.91 63.12"/>
    <polyline class="cls-1" points="38.84 68.53 4.58 62 4.66 56.59 4.66 56.59 8.41 56.39"/>
    <polyline class="cls-1" points="46.23 68.46 46.23 68.47 46.26 68.53 46.28 68.58 46.31 68.64 46.33 68.69 46.36 68.75 46.38 68.81 46.41 68.87 46.43 68.93 46.45 68.98 46.48 69.04 46.5 69.1 46.53 69.16 46.55 69.22 46.57 69.27 46.59 69.33 46.62 69.39 46.64 69.45 46.66 69.51 46.69 69.57 46.7 69.63 46.73 69.69 46.75 69.74 46.77 69.8 46.79 69.86 46.81 69.92 46.83 69.98 46.85 70.04 46.87 70.1 46.89 70.16 46.91 70.22 46.93 70.28 46.95 70.34 46.97 70.4 46.98 70.46 47 70.52 47.02 70.58 47.04 70.64 47.05 70.7 47.07 70.76 47.09 70.82 47.11 70.88 47.12 70.94 47.14 71 47.16 71.07 47.17 71.13 47.19 71.19 47.2 71.25 47.22 71.31 47.23 71.37 47.24 71.43 47.26 71.49 47.27 71.56 47.28 71.62 47.3 71.68 47.31 71.74 47.32 71.8 47.34 71.86 47.35 71.92 47.36 71.98 47.37 72.05 47.38 72.11 47.4 72.17 47.41 72.23 47.42 72.3 47.43 72.36 47.44 72.42 47.45 72.48 47.46 72.54 47.47 72.6 47.48 72.67 47.49 72.73 47.5 72.79 47.51 72.85 47.51 72.92 47.52 72.98 47.53 73.04 47.54 73.1 47.54 73.12 47.54 73.12 47.54 73.13 47.54 73.13 47.53 73.14 47.53 73.15 47.52 73.15 47.51 73.16 47.5 73.17 47.49 73.17 47.47 73.18 47.46 73.19 47.44 73.19 47.42 73.2 47.4 73.2 47.38 73.21 47.36 73.22 47.34 73.22 47.31 73.23 47.28 73.23 47.25 73.24 47.22 73.24 47.19 73.25 47.16 73.25 47.13 73.26 47.09 73.27 47.05 73.27 47.01 73.28 46.97 73.28 46.93 73.28 46.89 73.29 46.84 73.29 46.8 73.3 46.76 73.3 46.71 73.31 46.66 73.31 46.61 73.31 46.56 73.32 46.51 73.32 46.46 73.32 46.41 73.33 46.35 73.33 46.3 73.33 46.24 73.33 46.19 73.34 46.13 73.34 46.07 73.34 46.02 73.34 45.96 73.34 45.9 73.35 45.84 73.35 45.78 73.35 45.72 73.35 45.66 73.35 45.6 73.35 45.54 73.35 45.47 73.35 45.41 73.35 45.35 73.35 45.29 73.35 45.23 73.35 45.16 73.35 45.1 73.35 45.04 73.35 44.98 73.34 44.91 73.34 44.85 73.34 44.79 73.34 44.73 73.34 44.67 73.33 44.61 73.33 44.55 73.33 44.48 73.33 44.43 73.32 44.37 73.32 44.31 73.32 44.25 73.31 44.19 73.31 44.14 73.31 44.08 73.31 44.02 73.3 43.97 73.3 43.92 73.29 43.87 73.29 43.81 73.28 43.76 73.28 43.71 73.27 43.66 73.27 43.61 73.26 43.57 73.26 43.52 73.25 43.48 73.25 43.43 73.24 43.39 73.24 43.35 73.23 43.31 73.23 43.27 73.22 43.23 73.21 43.2 73.21 43.16 73.2 43.13 73.2 43.1 73.19 43.07 73.18 43.04 73.18 43.01 73.17 42.98 73.17 42.96 73.16 42.93 73.15 42.91 73.14 42.89 73.14 42.87 73.13 42.86 73.12 42.84 73.12 42.83 73.11 42.81 73.1 42.8 73.09 42.8 73.09 42.79 73.08 42.78 73.08 42.78 73.07 42.78 73.06 42.77 73.05 42.77 73.05 42.78 73.01 42.79 72.95 42.8 72.89 42.81 72.82 42.82 72.76 42.83 72.7 42.84 72.64 42.85 72.58 42.86 72.52 42.87 72.45 42.88 72.39 42.9 72.33 42.91 72.27 42.92 72.2 42.94 72.14 42.95 72.08 42.96 72.02 42.97 71.96 42.99 71.9 43 71.84 43.02 71.78 43.03 71.71 43.05 71.65 43.06 71.59 43.08 71.53 43.09 71.47 43.11 71.41 43.12 71.35 43.14 71.29 43.16 71.23 43.17 71.17 43.19 71.11 43.21 71.05 43.23 70.98 43.24 70.92 43.26 70.86 43.28 70.8 43.3 70.74 43.31 70.68 43.33 70.62 43.35 70.56 43.37 70.5 43.39 70.44 43.41 70.38 43.43 70.33 43.45 70.27 43.47 70.21 43.49 70.15 43.51 70.09 43.53 70.03 43.56 69.97 43.58 69.91 43.6 69.85 43.62 69.79 43.65 69.73 43.67 69.68 43.69 69.62 43.71 69.56 43.74 69.5 43.76 69.44 43.78 69.39 43.81 69.33 43.83 69.27 43.86 69.21 43.88 69.16 43.91 69.1 43.93 69.04 43.96 68.98 43.98 68.92 44.01 68.87 44.03 68.81 44.06 68.75 44.09 68.7 44.12 68.64 44.14 68.58 44.17 68.53 44.2 68.47 44.22 68.43"/>
    <polyline class="cls-1" points="44.36 68.5 44.35 68.5 44.34 68.5 44.32 68.49 44.31 68.49 44.3 68.49 44.29 68.48 44.28 68.48 44.27 68.48 44.26 68.47 44.26 68.47 44.25 68.47 44.24 68.47 44.24 68.47 44.23 68.46 44.23 68.46 44.22 68.46 44.22 68.45 44.22 68.45 44.22 68.45 44.21 68.44 44.21 68.44 44.21 68.44 44.21 68.43 44.22 68.43 44.22 68.43 44.22 68.43 44.23 68.42 44.23 68.42 44.24 68.42 44.24 68.42 44.25 68.41 44.26 68.41 44.26 68.41 44.27 68.4 44.28 68.4 44.29 68.4 44.3 68.4 44.31 68.39 44.32 68.39 44.34 68.39 44.35 68.39 44.36 68.39 44.37 68.38 44.38 68.38"/>
    <polyline class="cls-1" points="46.08 68.41 46.06 68.41 46.06 68.41"/>
    <polyline class="cls-1" points="28.39 66.54 28.41 66.58 28.43 66.64 28.45 66.7 28.47 66.76 28.49 66.82 28.5 66.88 28.52 66.94 28.54 67 28.56 67.06 28.58 67.12 28.59 67.18 28.61 67.24 28.63 67.3 28.64 67.36 28.66 67.42 28.68 67.49 28.69 67.55 28.71 67.61 28.72 67.67 28.74 67.73 28.75 67.79 28.77 67.85 28.78 67.91 28.8 67.97 28.81 68.03 28.82 68.1 28.84 68.16 28.85 68.22 28.86 68.28 28.88 68.34 28.89 68.4 28.9 68.47 28.91 68.53 28.92 68.59 28.94 68.65 28.95 68.71 28.96 68.78 28.97 68.84 28.98 68.9 28.99 68.96 29 69.02 29.01 69.09 29.02 69.15 29.03 69.21 29.04 69.27 29.04 69.34 29.05 69.4 29.06 69.46 29.07 69.52 29.07 69.58 29.08 69.6 29.08 69.6 29.08 69.61 29.07 69.61 29.07 69.62 29.07 69.63 29.06 69.63 29.05 69.64 29.04 69.65 29.03 69.66 29.01 69.66 29 69.67 28.98 69.67 28.96 69.68 28.94 69.69 28.92 69.69 28.9 69.7 28.87 69.7 28.85 69.71 28.82 69.72 28.79 69.72 28.76 69.73 28.73 69.73 28.7 69.74 28.66 69.74 28.63 69.75 28.59 69.75 28.55 69.76 28.51 69.76 28.47 69.77 28.43 69.77 28.39 69.78 28.34 69.78 28.29 69.78 28.25 69.79 28.2 69.79 28.15 69.8 28.1 69.8 28.05 69.8 28 69.8 27.94 69.81 27.89 69.81 27.84 69.81 27.78 69.81 27.73 69.82 27.67 69.82 27.61 69.82 27.55 69.82 27.5 69.82 27.44 69.83 27.38 69.83 27.32 69.83 27.26 69.83 27.2 69.83 27.14 69.83 27.07 69.83 27.01 69.83 26.95 69.83 26.89 69.83 26.83 69.83 26.76 69.83 26.7 69.83 26.64 69.83 26.58 69.83 26.52 69.83 26.45 69.82 26.39 69.82 26.33 69.82 26.27 69.82 26.21 69.82 26.15 69.81 26.08 69.81 26.02 69.81 25.96 69.81 25.9 69.8 25.85 69.8 25.79 69.8 25.73 69.79 25.68 69.79 25.62 69.78 25.56 69.78 25.51 69.78 25.46 69.77 25.4 69.77 25.35 69.77 25.3 69.76 25.25 69.76 25.2 69.75 25.15 69.75 25.11 69.74 25.06 69.73 25.02 69.73 24.97 69.72 24.93 69.72 24.89 69.71 24.85 69.71 24.81 69.7 24.77 69.7 24.74 69.69 24.7 69.68 24.67 69.68 24.64 69.67 24.6 69.66 24.57 69.66 24.55 69.65 24.52 69.65 24.5 69.64 24.47 69.63 24.45 69.63 24.43 69.62 24.41 69.61 24.4 69.61 24.38 69.6 24.37 69.59 24.35 69.58 24.34 69.58 24.33 69.57 24.33 69.56 24.32 69.56 24.32 69.55 24.31 69.54 24.31 69.54 24.31 69.53 24.32 69.49 24.33 69.43 24.34 69.37 24.35 69.31 24.36 69.24 24.37 69.18 24.38 69.12 24.39 69.06 24.4 69 24.41 68.93 24.43 68.87 24.44 68.81 24.45 68.75 24.46 68.69 24.47 68.63 24.49 68.56 24.5 68.5 24.51 68.44 24.53 68.38 24.54 68.32 24.55 68.26 24.57 68.2 24.59 68.13 24.6 68.07 24.61 68.01 24.63 67.95 24.65 67.89 24.66 67.83 24.68 67.77 24.7 67.71 24.71 67.65 24.73 67.59 24.74 67.53 24.76 67.47 24.78 67.41 24.8 67.34 24.82 67.29 24.83 67.23 24.85 67.17 24.87 67.11 24.89 67.05 24.91 66.99 24.93 66.93 24.95 66.87 24.97 66.81 24.99 66.75 25.01 66.69 25.03 66.63 25.05 66.57 25.07 66.51 25.1 66.45 25.12 66.39 25.14 66.33 25.16 66.28 25.18 66.22 25.2 66.16 25.23 66.1 25.25 66.04 25.27 65.98 25.29 65.94"/>
    <polyline class="cls-1" points="34.39 33.1 34.36 33.2 34.31 33.36 34.27 33.53 34.22 33.7 34.17 33.87 34.13 34.03 34.08 34.2 34.04 34.37 33.99 34.54 33.95 34.71 33.91 34.88 33.86 35.05 33.82 35.23 33.78 35.4 33.73 35.57 33.69 35.74 33.65 35.91 33.61 36.09 33.57 36.26 33.53 36.44 33.49 36.61 33.45 36.78 33.41 36.96 33.37 37.13 33.33 37.31 33.29 37.48 33.26 37.66 33.22 37.84 33.18 38.02 33.14 38.19 33.11 38.37 33.07 38.55 33.03 38.73 33 38.91 32.96 39.09 32.93 39.26 32.9 39.44 32.86 39.62 32.83 39.8 32.8 39.98 32.76 40.16 32.73 40.34 32.7 40.53 32.67 40.71 32.63 40.89 32.6 41.07 32.58 41.26 32.55 41.44 32.52 41.62 32.49 41.8 32.46 41.99 32.43 42.17 32.4 42.36 32.38 42.54 32.35 42.73 32.32 42.91 32.3 43.09 32.27 43.28 32.24 43.47 32.22 43.65 32.19 43.84 32.17 44.02 32.15 44.21 32.12 44.4 32.1 44.59 32.08 44.77 32.05 44.96 32.03 45.15 32.01 45.34 31.99 45.53 31.97 45.71 31.95 45.9 31.93 46.09 31.91 46.28 31.89 46.47 31.87 46.66 31.85 46.85 31.84 47.04 31.82 47.23 31.8 47.42 31.78 47.61 31.77 47.8 31.75 47.99 31.74 48.18 31.72 48.37 31.71 48.56 31.69 48.76 31.68 48.95 31.66 49.14 31.65 49.33 31.64 49.52 31.63 49.72 31.61 49.91 31.61 50.1 31.59 50.29 31.58 50.49 31.57 50.68 31.56 50.87 31.55 51.07 31.54 51.26 31.54 51.45 31.53 51.65 31.52 51.84 31.51 52.03 31.51 52.23 31.5 52.42 31.49 52.62 31.49 52.81 31.48 53 31.48 53.2 31.42 53.23 31.36 53.26 31.3 53.29 31.24 53.33 31.18 53.36 31.12 53.39 31.06 53.42 31 53.46 30.94 53.49 30.88 53.53 30.82 53.56 30.77 53.59 30.71 53.63 30.65 53.66 30.59 53.7 30.52 53.87 30.5 55.62"/>
    <line class="cls-1" x1="44.08" y1="55.2" x2="39.71" y2="55.44"/>
    <line class="cls-1" x1="40.68" y1="52.2" x2="36.31" y2="52.44"/>
    <polyline class="cls-1" points="40.97 31.44 40.68 52.17 40.68 52.2 40.68 52.21 40.68 52.22 40.68 52.23 40.68 52.23 40.68 52.24 40.68 52.25 40.69 52.26 40.69 52.26 40.69 52.27 40.69 52.28 40.69 52.29 40.69 52.29 40.69 52.3 40.7 52.31 40.7 52.31 40.7 52.32 40.7 52.33 40.7 52.33 40.71 52.34 40.71 52.35 40.71 52.35 40.71 52.36 40.72 52.36 40.72 52.37 40.72 52.37 40.73 52.38 40.73 52.38 40.73 52.38 40.74 52.39 40.74 52.39 40.74 52.4 40.75 52.4 40.75 52.4 40.75 52.4 40.81 52.44 40.87 52.48 40.93 52.52 40.98 52.56 41.04 52.6 41.1 52.65 41.16 52.69 41.21 52.73 41.27 52.77 41.33 52.81 41.39 52.86 41.44 52.9 41.5 52.94 41.56 52.99 41.62 53.03 41.67 53.07 41.73 53.12 41.79 53.16 41.84 53.21 41.9 53.25 41.96 53.3 42.01 53.34 42.07 53.39 42.13 53.43 42.18 53.48 42.24 53.53 42.3 53.57 42.35 53.62 42.41 53.67 42.47 53.72 42.52 53.76 42.58 53.81 42.63 53.86 42.69 53.91 42.75 53.96 42.8 54.01 42.86 54.05 42.91 54.1 42.97 54.15 43.03 54.2 43.08 54.26 43.14 54.3 43.19 54.36 43.25 54.41 43.31 54.46 43.36 54.51 43.42 54.56 43.47 54.61 43.53 54.67 43.58 54.72 43.64 54.77 43.69 54.83 43.75 54.88 43.8 54.93 43.86 54.99 43.91 55.04 43.97 55.09 44.02 55.15 44.08 55.2 44.08 55.2 44.14 55.4 44.11 57.11 44.11 57.11 39.74 57.38"/>
    <line class="cls-1" x1="37.61" y1="24.6" x2="37.61" y2="24.71"/>
    <line class="cls-1" x1="64.7" y1="62.31" x2="64.7" y2="62.29"/>
    <polyline class="cls-1" points="69.64 61.48 69.64 61.48 69.64 61.48 69.63 61.48 69.63 61.48 69.62 61.48"/>
    <polyline class="cls-1" points="55.77 67.95 55.77 67.96 55.8 68.01 55.82 68.07 55.85 68.13 55.87 68.19 55.9 68.24 55.92 68.3 55.95 68.36 55.97 68.42 56 68.47 56.02 68.53 56.05 68.59 56.07 68.65 56.09 68.71 56.11 68.76 56.14 68.82 56.16 68.88 56.18 68.94 56.2 69 56.23 69.06 56.25 69.12 56.27 69.18 56.29 69.23 56.31 69.29 56.33 69.35 56.35 69.41 56.37 69.47 56.39 69.53 56.41 69.59 56.43 69.65 56.45 69.71 56.47 69.77 56.49 69.83 56.51 69.89 56.53 69.95 56.54 70.01 56.56 70.07 56.58 70.13 56.59 70.19 56.61 70.25 56.63 70.31 56.65 70.37 56.66 70.43 56.68 70.5 56.69 70.56 56.71 70.62 56.73 70.68 56.74 70.74 56.76 70.8 56.77 70.86 56.78 70.92 56.8 70.98 56.81 71.04 56.83 71.11 56.84 71.17 56.85 71.23 56.87 71.29 56.88 71.35 56.89 71.41 56.9 71.48 56.91 71.54 56.93 71.6 56.94 71.66 56.95 71.72 56.96 71.79 56.97 71.85 56.98 71.91 56.99 71.97 57 72.03 57.01 72.09 57.02 72.16 57.03 72.22 57.04 72.28 57.05 72.34 57.05 72.41 57.06 72.47 57.07 72.53 57.08 72.59 57.08 72.61 57.08 72.61 57.08 72.62 57.08 72.62 57.07 72.63 57.07 72.64 57.06 72.64 57.05 72.65 57.04 72.66 57.03 72.66 57.02 72.67 57 72.68 56.98 72.68 56.97 72.69 56.95 72.7 56.92 72.7 56.9 72.71 56.88 72.71 56.85 72.72 56.82 72.72 56.8 72.73 56.76 72.73 56.73 72.74 56.7 72.75 56.66 72.75 56.63 72.76 56.59 72.76 56.55 72.77 56.51 72.77 56.47 72.78 56.43 72.78 56.39 72.78 56.34 72.79 56.3 72.79 56.25 72.8 56.2 72.8 56.15 72.8 56.1 72.81 56.05 72.81 56 72.81 55.95 72.82 55.89 72.82 55.84 72.82 55.78 72.82 55.73 72.83 55.67 72.83 55.62 72.83 55.56 72.83 55.5 72.83 55.44 72.83 55.38 72.84 55.32 72.84 55.26 72.84 55.2 72.84 55.14 72.84 55.08 72.84 55.02 72.84 54.95 72.84 54.89 72.84 54.83 72.84 54.77 72.84 54.7 72.84 54.64 72.84 54.58 72.83 54.52 72.83 54.45 72.83 54.39 72.83 54.33 72.83 54.27 72.83 54.21 72.83 54.15 72.82 54.09 72.82 54.03 72.82 53.97 72.81 53.91 72.81 53.85 72.81 53.79 72.81 53.73 72.8 53.68 72.8 53.62 72.79 53.57 72.79 53.51 72.79 53.46 72.78 53.41 72.78 53.35 72.77 53.3 72.77 53.25 72.76 53.2 72.76 53.15 72.75 53.11 72.75 53.06 72.74 53.02 72.74 52.97 72.73 52.93 72.73 52.89 72.72 52.85 72.72 52.81 72.71 52.77 72.7 52.74 72.7 52.7 72.69 52.67 72.69 52.64 72.68 52.61 72.67 52.58 72.67 52.55 72.66 52.52 72.66 52.5 72.65 52.48 72.64 52.45 72.63 52.43 72.63 52.41 72.62 52.4 72.61 52.38 72.61 52.37 72.6 52.36 72.59 52.34 72.59 52.34 72.58 52.33 72.57 52.32 72.57 52.32 72.56 52.31 72.55 52.31 72.55 52.31 72.54 52.31 72.54 52.32 72.5 52.33 72.44 52.34 72.38 52.35 72.31 52.36 72.25 52.37 72.19 52.38 72.13 52.39 72.07 52.4 72 52.41 71.94 52.43 71.88 52.44 71.82 52.45 71.76 52.46 71.69 52.48 71.63 52.49 71.57 52.5 71.51 52.52 71.45 52.53 71.39 52.54 71.33 52.56 71.27 52.57 71.2 52.59 71.14 52.6 71.08 52.62 71.02 52.63 70.96 52.65 70.9 52.66 70.84 52.68 70.78 52.7 70.72 52.72 70.66 52.73 70.59 52.75 70.53 52.76 70.47 52.78 70.41 52.8 70.35 52.82 70.29 52.84 70.23 52.85 70.17 52.87 70.11 52.89 70.05 52.91 69.99 52.93 69.94 52.95 69.88 52.97 69.82 52.99 69.76 53.01 69.7 53.03 69.64 53.06 69.58 53.08 69.52 53.1 69.46 53.12 69.4 53.14 69.34 53.16 69.28 53.19 69.23 53.21 69.17 53.23 69.11 53.25 69.05 53.28 68.99 53.3 68.93 53.33 68.87 53.35 68.82 53.38 68.76 53.4 68.7 53.42 68.64 53.45 68.59 53.47 68.53 53.5 68.47 53.52 68.42 53.55 68.36 53.58 68.3 53.6 68.25 53.63 68.19 53.66 68.13 53.68 68.07 53.71 68.02 53.74 67.96 53.76 67.92"/>
    <polyline class="cls-1" points="55.62 67.9 55.6 67.9 55.6 67.9"/>
    <polyline class="cls-1" points="69.62 61.48 69.63 61.48 69.63 61.48 69.64 61.48 69.64 61.48 69.64 61.48"/>
    <line class="cls-1" x1="68.07" y1="65.98" x2="67.52" y2="66.01"/>
    <line class="cls-1" x1="67.52" y1="66.01" x2="67.53" y2="65.88"/>
    <line class="cls-1" x1="21.29" y1="21.6" x2="21.23" y2="26.19"/>
    <polyline class="cls-1" points="18.83 24.09 19.69 24.26 19.69 24.26 19.69 24.22 19.69 24.18 19.69 24.14 19.69 24.1 19.69 24.07 19.7 24.03 19.7 23.99 19.7 23.95 19.7 23.91 19.71 23.87 19.71 23.84 19.71 23.8 19.72 23.76 19.72 23.72 19.73 23.68 19.73 23.65 19.73 23.61 19.74 23.57 19.75 23.54 19.75 23.5 19.76 23.46 19.77 23.43 19.77 23.39 19.78 23.36 19.79 23.32 19.79 23.29 19.8 23.25 19.81 23.22 19.82 23.18 19.82 23.15 19.83 23.11 19.84 23.08 19.85 23.05 19.86 23.01 19.87 22.98 19.88 22.95 19.89 22.91 19.9 22.88 19.91 22.85 19.92 22.82 19.93 22.79 19.94 22.75 19.95 22.73 19.96 22.69 19.98 22.66 19.99 22.64 20 22.61 20.01 22.57 20.02 22.55 20.04 22.52 20.05 22.49 20.06 22.46 20.08 22.43 20.09 22.41 20.11 22.38 20.12 22.35 20.13 22.33 20.14 22.3 20.16 22.28 20.18 22.25 20.19 22.23 20.2 22.2 20.22 22.18 20.24 22.16 20.25 22.13 20.27 22.11 20.28 22.09 20.3 22.07 20.32 22.05 20.33 22.03 20.35 22.01 20.36 21.98 20.38 21.97 20.4 21.95 20.42 21.93 20.43 21.91 20.45 21.89 20.47 21.88 20.49 21.86 20.5 21.84 20.52 21.83 20.54 21.81 20.56 21.8 20.58 21.78 20.6 21.77 20.61 21.76 20.64 21.74 20.65 21.73 20.67 21.72 20.69 21.71 20.71 21.7 20.73 21.69 20.75 21.68 20.77 21.67 20.79 21.66 20.81 21.65 20.83 21.64 20.85 21.63 20.87 21.63 20.89 21.62 20.91 21.61 20.93 21.61 20.95 21.6 20.97 21.6 20.99 21.59 21.01 21.59 21.03 21.59 21.05 21.59 21.07 21.58 21.09 21.58 21.11 21.58 21.13 21.58 21.15 21.58 21.17 21.58 21.19 21.58 21.21 21.58 21.23 21.59 21.25 21.59 21.27 21.59 21.29 21.6"/>
    <polyline class="cls-1" points="11.08 57.72 11.42 33.05 11.43 33.05 8.74 32.54 8.4 57.2 11.08 57.72 12.85 57.62 12.85 57.62 13.19 32.96 13.19 32.89 13.17 34.23"/>
    <polyline class="cls-1" points="26.45 34.06 26.2 52.46 24.66 52.54 23.72 52.36 23.72 52.36 23.98 34.24"/>
    <polyline class="cls-1" points="36.21 68.06 36.69 68.97 36.71 69.03 36.74 69.09 36.76 69.15 36.79 69.2 36.82 69.26 36.84 69.32 36.87 69.38 36.89 69.44 36.91 69.49 36.94 69.55 36.96 69.61 36.98 69.67 37.01 69.72 37.03 69.78 37.05 69.84 37.08 69.9 37.1 69.96 37.12 70.02 37.14 70.08 37.16 70.14 37.19 70.19 37.21 70.25 37.23 70.31 37.25 70.37 37.27 70.43 37.29 70.49 37.31 70.55 37.33 70.61 37.35 70.67 37.37 70.73 37.39 70.79 37.41 70.85 37.42 70.91 37.44 70.97 37.46 71.03 37.48 71.09 37.5 71.15 37.51 71.21 37.53 71.27 37.55 71.33 37.56 71.39 37.58 71.45 37.6 71.52 37.61 71.58 37.63 71.64 37.65 71.7 37.66 71.76 37.67 71.82 37.69 71.88 37.7 71.94 37.72 72 37.73 72.06 37.74 72.13 37.76 72.19 37.77 72.25 37.78 72.31 37.8 72.37 37.81 72.43 37.82 72.49 37.83 72.56 37.84 72.62 37.85 72.68 37.87 72.74 37.88 72.8 37.89 72.87 37.9 72.93 37.91 72.99 37.92 73.05 37.93 73.11 37.94 73.18 37.95 73.24 37.96 73.3 37.96 73.36 37.97 73.42 37.98 73.49 37.99 73.55 38 73.61 38 73.63 38 73.63 38 73.64 38 73.64 37.99 73.65 37.99 73.66 37.98 73.66 37.97 73.67 37.96 73.68 37.95 73.68 37.93 73.69 37.92 73.69 37.9 73.7 37.88 73.71 37.86 73.72 37.84 73.72 37.82 73.73 37.8 73.73 37.77 73.74 37.74 73.74 37.71 73.75 37.68 73.75 37.65 73.76 37.62 73.77 37.58 73.77 37.55 73.78 37.51 73.78 37.47 73.79 37.43 73.79 37.39 73.79 37.35 73.8 37.31 73.8 37.26 73.81 37.22 73.81 37.17 73.82 37.12 73.82 37.07 73.82 37.02 73.83 36.97 73.83 36.92 73.83 36.87 73.83 36.81 73.84 36.76 73.84 36.7 73.84 36.65 73.85 36.59 73.85 36.53 73.85 36.48 73.85 36.42 73.85 36.36 73.86 36.3 73.86 36.24 73.86 36.18 73.86 36.12 73.86 36.06 73.86 35.99 73.86 35.93 73.86 35.87 73.86 35.81 73.86 35.75 73.86 35.68 73.86 35.62 73.86 35.56 73.86 35.5 73.86 35.44 73.85 35.37 73.85 35.31 73.85 35.25 73.85 35.19 73.85 35.13 73.84 35.06 73.84 35.01 73.84 34.94 73.84 34.89 73.83 34.83 73.83 34.77 73.83 34.71 73.82 34.65 73.82 34.6 73.82 34.54 73.81 34.48 73.81 34.43 73.81 34.38 73.8 34.32 73.8 34.27 73.79 34.22 73.79 34.17 73.78 34.12 73.78 34.07 73.77 34.03 73.77 33.98 73.76 33.94 73.76 33.89 73.75 33.85 73.75 33.81 73.74 33.77 73.74 33.73 73.73 33.69 73.72 33.66 73.72 33.62 73.71 33.59 73.71 33.56 73.7 33.52 73.69 33.5 73.69 33.47 73.68 33.44 73.67 33.42 73.67 33.39 73.66 33.37 73.65 33.35 73.65 33.33 73.64 33.32 73.64 33.3 73.63 33.28 73.62 33.27 73.61 33.26 73.61 33.26 73.6 33.25 73.59 33.24 73.58 33.24 73.58 33.23 73.57 33.23 73.57 33.23 73.56 33.24 73.52 33.25 73.46 33.26 73.4 33.27 73.33 33.28 73.27 33.29 73.21 33.3 73.15 33.31 73.09 33.32 73.02 33.33 72.96 33.35 72.9 33.36 72.84 33.37 72.78 33.38 72.72 33.4 72.65 33.41 72.59 33.42 72.53 33.43 72.47 33.45 72.41 33.46 72.35 33.48 72.29 33.49 72.22 33.51 72.16 33.52 72.1 33.53 72.04 33.55 71.98 33.56 71.92 33.58 71.86 33.6 71.8 33.62 71.74 33.63 71.68 33.65 71.62 33.66 71.56 33.68 71.5 33.7 71.44 33.72 71.37 33.74 71.31 33.75 71.25 33.77 71.19 33.79 71.13 33.81 71.07 33.83 71.01 33.85 70.95 33.87 70.89 33.89 70.83 33.91 70.78 33.93 70.72 33.95 70.66 33.97 70.6 33.99 70.54 34.02 70.48 34.04 70.42 34.06 70.36 34.08 70.3 34.1 70.25 34.13 70.19 34.15 70.13 34.17 70.07 34.2 70.01 34.22 69.95 34.24 69.89 34.27 69.84 34.29 69.78 34.32 69.72 34.34 69.66 34.37 69.61 34.39 69.55 34.42 69.49 34.44 69.43 34.47 69.38 34.49 69.32 34.52 69.26 34.55 69.21 34.58 69.15 34.6 69.09 34.63 69.04 34.66 68.98 35.09 68.06"/>
    <polyline class="cls-1" points="17.91 64.54 18.23 65.46 18.25 65.52 18.28 65.57 18.3 65.63 18.33 65.69 18.36 65.75 18.38 65.8 18.4 65.86 18.43 65.92 18.45 65.97 18.48 66.03 18.5 66.09 18.52 66.15 18.55 66.21 18.57 66.27 18.59 66.32 18.62 66.38 18.64 66.44 18.66 66.5 18.68 66.56 18.7 66.62 18.73 66.68 18.75 66.73 18.77 66.8 18.79 66.85 18.81 66.91 18.83 66.97 18.85 67.03 18.87 67.09 18.89 67.15 18.91 67.21 18.93 67.27 18.94 67.33 18.96 67.39 18.98 67.45 19 67.51 19.02 67.57 19.04 67.63 19.05 67.69 19.07 67.75 19.09 67.81 19.1 67.87 19.12 67.94 19.14 68 19.15 68.06 19.17 68.12 19.18 68.18 19.2 68.24 19.21 68.3 19.23 68.36 19.24 68.42 19.26 68.48 19.27 68.55 19.28 68.61 19.3 68.67 19.31 68.73 19.32 68.79 19.33 68.85 19.35 68.92 19.36 68.97 19.37 69.04 19.38 69.1 19.39 69.16 19.41 69.22 19.42 69.29 19.43 69.35 19.44 69.41 19.45 69.47 19.46 69.53 19.47 69.6 19.48 69.66 19.48 69.72 19.49 69.78 19.5 69.84 19.51 69.91 19.52 69.97 19.53 70.03 19.54 70.09 19.54 70.11 19.54 70.11 19.54 70.12 19.53 70.12 19.53 70.13 19.52 70.14 19.52 70.14 19.51 70.15 19.5 70.16 19.48 70.16 19.47 70.17 19.46 70.18 19.44 70.18 19.42 70.19 19.4 70.2 19.38 70.2 19.36 70.21 19.33 70.21 19.31 70.22 19.28 70.22 19.25 70.23 19.22 70.23 19.19 70.24 19.16 70.25 19.12 70.25 19.08 70.26 19.05 70.26 19.01 70.27 18.97 70.27 18.93 70.28 18.89 70.28 18.84 70.28 18.8 70.29 18.75 70.29 18.71 70.3 18.66 70.3 18.61 70.3 18.56 70.31 18.51 70.31 18.46 70.31 18.41 70.32 18.35 70.32 18.3 70.32 18.24 70.33 18.18 70.33 18.13 70.33 18.07 70.33 18.01 70.33 17.95 70.33 17.9 70.34 17.84 70.34 17.78 70.34 17.72 70.34 17.66 70.34 17.59 70.34 17.53 70.34 17.47 70.34 17.41 70.34 17.35 70.34 17.29 70.34 17.22 70.34 17.16 70.34 17.1 70.34 17.04 70.34 16.97 70.33 16.91 70.33 16.85 70.33 16.79 70.33 16.73 70.33 16.66 70.33 16.6 70.32 16.54 70.32 16.48 70.32 16.42 70.31 16.36 70.31 16.31 70.31 16.25 70.31 16.19 70.3 16.13 70.3 16.08 70.3 16.02 70.29 15.97 70.29 15.91 70.28 15.86 70.28 15.81 70.27 15.76 70.27 15.71 70.27 15.66 70.26 15.61 70.25 15.56 70.25 15.52 70.25 15.47 70.24 15.43 70.23 15.39 70.23 15.35 70.22 15.31 70.22 15.27 70.21 15.23 70.2 15.19 70.2 15.16 70.19 15.13 70.19 15.09 70.18 15.06 70.17 15.03 70.17 15.01 70.16 14.98 70.16 14.96 70.15 14.93 70.14 14.91 70.14 14.89 70.13 14.87 70.12 14.85 70.11 14.84 70.11 14.82 70.1 14.81 70.09 14.8 70.09 14.79 70.08 14.79 70.07 14.78 70.07 14.78 70.06 14.77 70.05 14.77 70.05 14.77 70.04 14.78 70 14.79 69.94 14.8 69.88 14.81 69.81 14.82 69.75 14.83 69.69 14.84 69.63 14.85 69.57 14.86 69.51 14.87 69.44 14.88 69.38 14.89 69.32 14.91 69.26 14.92 69.2 14.93 69.14 14.95 69.07 14.96 69.01 14.97 68.95 14.99 68.89 15 68.83 15.01 68.77 15.03 68.71 15.04 68.64 15.06 68.58 15.07 68.52 15.09 68.46 15.11 68.4 15.12 68.34 15.14 68.28 15.15 68.22 15.17 68.16 15.19 68.1 15.2 68.04 15.22 67.97 15.24 67.92 15.26 67.86 15.28 67.8 15.29 67.73 15.31 67.67 15.33 67.61 15.35 67.55 15.37 67.5 15.39 67.44 15.41 67.38 15.43 67.32 15.45 67.26 15.47 67.2 15.49 67.14 15.51 67.08 15.53 67.02 15.56 66.96 15.57 66.9 15.6 66.84 15.62 66.78 15.64 66.73 15.66 66.67 15.69 66.61 15.71 66.55 15.73 66.49 15.76 66.44 15.78 66.38 15.8 66.32 15.83 66.26 15.86 66.2 15.88 66.15 15.9 66.09 15.93 66.03 15.96 65.97 15.98 65.92 16.01 65.86 16.03 65.8 16.06 65.75 16.09 65.69 16.11 65.63 16.14 65.57 16.17 65.52 16.19 65.46 16.71 64.47"/>
    <polyline class="cls-1" points="30.93 32.01 36.6 31.71 40.97 31.48 40.94 31.48 41.57 31.47 43.66 31.36 43.67 31.03 42.64 28.83"/>
    <line class="cls-1" x1="36.59" y1="32.98" x2="30.73" y2="33.29"/>
    <polyline class="cls-1" points="36.6 31.71 36.59 32.98 36.31 52.44 36.31 52.44 36.31 52.45 36.31 52.46 36.31 52.47 36.31 52.48 36.31 52.48 36.32 52.49 36.32 52.5 36.32 52.5 36.32 52.51 36.32 52.52 36.32 52.53 36.33 52.53 36.33 52.54 36.33 52.55 36.33 52.55 36.33 52.56 36.34 52.57 36.34 52.57 36.34 52.58 36.34 52.58 36.35 52.59 36.35 52.59 36.35 52.6 36.36 52.6 36.36 52.61 36.36 52.61 36.37 52.62 36.37 52.62 36.37 52.63 36.38 52.63 36.38 52.63 36.38 52.64 36.44 52.68 36.5 52.72 36.56 52.76 36.62 52.8 36.67 52.84 36.73 52.88 36.79 52.92 36.84 52.96 36.9 53.01 36.96 53.05 37.02 53.09 37.07 53.13 37.13 53.18 37.19 53.22 37.25 53.26 37.3 53.31 37.36 53.35 37.42 53.39 37.47 53.44 37.53 53.48 37.59 53.53 37.65 53.58 37.7 53.62 37.76 53.67 37.81 53.71 37.87 53.76 37.93 53.81 37.98 53.85 38.04 53.9 38.1 53.95 38.15 54 38.21 54.04 38.27 54.09 38.32 54.14 38.38 54.19 38.43 54.24 38.49 54.29 38.55 54.34 38.6 54.39 38.66 54.44 38.71 54.49 38.77 54.54 38.83 54.59 38.88 54.64 38.94 54.69 38.99 54.74 39.05 54.79 39.1 54.85 39.16 54.9 39.22 54.95 39.27 55.01 39.33 55.06 39.38 55.11 39.43 55.16 39.49 55.22 39.55 55.27 39.6 55.33 39.66 55.38 39.71 55.44 39.77 55.63 39.74 57.38"/>
    <polyline class="cls-1" points="21.36 31.03 20.77 31.08 20.77 31.08 11.41 31.56"/>
    <polyline class="cls-1" points="30.52 30.54 40.96 29.98 41.03 29.99 41.69 29.96 41.71 29.96 41.73 29.96 41.75 29.95 41.77 29.95 41.79 29.95 41.8 29.95 41.82 29.94 41.84 29.94 41.85 29.93 41.87 29.93 41.89 29.92 41.9 29.91 41.92 29.91 41.94 29.9 41.95 29.89 41.97 29.88 41.98 29.88 41.99 29.87 42.01 29.86 42.02 29.85 42.03 29.84 42.05 29.83 42.06 29.82 42.07 29.81 42.08 29.8 42.09 29.79 42.1 29.77 42.11 29.76 42.12 29.75 42.12 29.73 42.59 28.96 42.61 28.91 42.62 28.9 42.63 28.89 42.63 28.87 42.63 28.86 42.64 28.84 42.64 28.82 42.64 28.81 42.65 28.79 42.65 28.78 42.65 28.76 42.65 28.74 42.65 28.73 42.65 28.71 42.65 28.69 42.65 28.68 42.65 28.66 42.64 28.64 42.64 28.62 42.64 28.61 42.63 28.59 42.63 28.57 42.62 28.55 42.62 28.54 42.61 28.52 42.6 28.5 42.59 28.48 42.59 28.47 42.58 28.45 42.57 28.43 42.56 28.41 42.55 28.4 42.54 28.38 42.53 28.36 42.52 28.34 42.5 28.33 42.49 28.31 42.48 28.29 42.47 28.28 42.45 28.26 42.44 28.24 42.42 28.23 42.41 28.21 42.4 28.2 42.38 28.18 42.36 28.16 42.35 28.15 42.33 28.14 42.31 28.12 42.3 28.11 42.28 28.09 42.26 28.08 42.24 28.06 42.22 28.05 42.2 28.04 42.18 28.02 42.17 28.01 42.15 28 42.13 27.99 42.11 27.98 42.09 27.97 42.07 27.96 42.05 27.95 42.03 27.94 42.01 27.93 41.98 27.92 41.96 27.91 41.94 27.9 41.92 27.89 41.9 27.89 41.88 27.88 41.86 27.87 41.84 27.87 41.82 27.86 41.8 27.86 41.77 27.85 41.75 27.85 41.73 27.84 41.71 27.84 41.69 27.84 41.67 27.84 41.65 27.83 41.63 27.83 41.61 27.83 41.59 27.83 41.57 27.83 41.55 27.83 41.53 27.83 41.53 27.83 40.87 27.87 40.96 27.86 29.55 28.49"/>
    <polyline class="cls-1" points="27.41 25.26 37.66 24.59 37.61 24.6 39.71 24.48 39.71 24.48 40.7 24.67 42.3 28.11"/>
    <polyline class="cls-1" points="20.46 29.1 20.61 28.95 21.18 28.92 21.83 30.25 21.36 31.03 21.92 32.22 21.92 32.42 11.97 32.95 11.97 32.75 11.41 31.56 11.88 30.78 11.32 29.59"/>
    <polyline class="cls-1" points="19.7 24.05 18.83 24.09 18.8 25.73 18.98 25.93 20.46 29.1 11.32 29.59 10.86 30.37 9.03 26.46 8.12 26.29"/>
    <polyline class="cls-1" points="8.72 33.56 8.02 33.43 8.12 26.29 8.12 26.29 18.14 25.77 20.75 26.27 20.75 26.27 20.79 26.32 20.83 26.37 20.87 26.42 20.91 26.47 20.95 26.52 20.99 26.58 21.03 26.63 21.07 26.68 21.11 26.73 21.15 26.79 21.19 26.84 21.23 26.9 21.27 26.95 21.31 27 21.35 27.06 21.39 27.11 21.43 27.17 21.47 27.23 21.51 27.28 21.55 27.34 21.59 27.39 21.63 27.45 21.67 27.5 21.71 27.56 21.75 27.62 21.79 27.67 21.83 27.73 21.87 27.79 21.91 27.85 21.94 27.9 21.98 27.96 22.02 28.02 22.06 28.08 22.1 28.14 22.14 28.2 22.17 28.26 22.21 28.32 22.25 28.38 22.29 28.43 22.33 28.49 22.36 28.55 22.4 28.62 22.44 28.68 22.44 28.68 22.46 28.71 22.48 28.75 22.51 28.79 22.53 28.83 22.55 28.87 22.58 28.91 22.6 28.94 22.62 28.98 22.65 29.02 22.67 29.06 22.69 29.1 22.71 29.14 22.74 29.18 22.76 29.22 22.78 29.26 22.8 29.3 22.83 29.34 22.85 29.39 22.87 29.43 22.89 29.47 22.91 29.51 22.93 29.55 22.95 29.59 22.98 29.64 23 29.68 23.02 29.72 23.04 29.77 23.06 29.81 23.08 29.85 23.1 29.89 23.12 29.94 23.14 29.98 23.16 30.03 23.18 30.07 23.2 30.11 23.22 30.16 23.24 30.2 23.26 30.25 23.28 30.29 23.3 30.34 23.32 30.39 23.34 30.43 23.36 30.48 23.38 30.52 23.4 30.57 23.42 30.61 23.43 30.66 23.45 30.71 23.47 30.75 23.49 30.8 23.51 30.85 23.53 30.89 23.55 30.94 23.56 30.99 23.58 31.04 23.6 31.09 23.62 31.13 23.63 31.18 23.65 31.23 23.67 31.28 23.68 31.33 23.7 31.38 23.72 31.43 23.73 31.47 23.75 31.52 23.77 31.57 23.78 31.62 23.78 31.62 23.79 31.64 23.8 31.66 23.81 31.69 23.81 31.71 23.82 31.73 23.83 31.75 23.83 31.77 23.84 31.8 23.85 31.82 23.85 31.84 23.86 31.86 23.86 31.89 23.87 31.91 23.88 31.93 23.88 31.96 23.89 31.98 23.89 32 23.89 32.03 23.9 32.05 23.9 32.08 23.91 32.1 23.91 32.13 23.92 32.15 23.92 32.17 23.92 32.2 23.92 32.22 23.93 32.25 23.93 32.27 23.93 32.29 23.93 32.32 23.94 32.34 23.94 32.37 23.94 32.39 23.94 32.42 23.95 32.44 23.95 32.47 23.95 32.49 23.95 32.52 23.95 32.54 23.95 32.56 23.95 32.59 23.95 32.62 23.95 32.64 23.95 32.66 23.95 32.69 23.95 32.71 23.95 32.74 23.95 32.76 23.95 32.79 23.95 32.81 23.94 32.84 23.94 32.86 23.94 32.88 23.94 32.91 23.93 32.93 23.93 32.96 23.93 32.98 23.93 33 23.92 33.03 23.92 33.05 23.92 33.07 23.91 33.1 23.91 33.12 23.91 33.14 23.9 33.16 23.9 33.19 23.89 33.21 23.89 33.23 23.88 33.26 23.88 33.28 23.87 33.3 23.87 33.32 23.86 33.34 23.86 33.36 23.85 33.38 23.84 33.4 23.84 33.42 23.83 33.45 23.82 33.47 23.82 33.49 23.81 33.51 23.8 33.53 23.8 33.54 23.79 33.56 23.78 33.58 23.77 33.6 23.77 33.62 23.76 33.64 23.75 33.66 23.74 33.67 23.73 33.69 23.72 33.71 23.71 33.73 23.7 33.74 23.7 33.76 23.68 33.77 23.68 33.79 23.67 33.8 23.66 33.82 23.65 33.84 23.64 33.85 23.63 33.86 23.62 33.88 23.61 33.89 23.6 33.91 23.59 33.92 23.57 33.93 23.56 33.94 23.55 33.96 23.54 33.97 23.53 33.98 23.52 33.99 23.51 34 23.5 34.01 23.49 34.02 23.48 34.03 23.46 34.04 23.45 34.05 23.44 34.06 23.43 34.07 23.41 34.08 23.39 34.09 23.37 34.1 23.35 34.11 23.33 34.12 23.31 34.13 23.29 34.14 23.27 34.15 23.25 34.16 23.23 34.17 23.21 34.18 23.19 34.19 23.17 34.19 23.15 34.2 23.13 34.21 23.11 34.22 23.09 34.22 23.07 34.23 23.05 34.24 23.03 34.24 23.01 34.25 22.99 34.26 22.97 34.26 22.95 34.27 22.93 34.27 22.91 34.27 22.89 34.28 22.87 34.28 22.85 34.29 22.83 34.29 22.81 34.29 22.79 34.3 22.77 34.3 22.75 34.3 22.73 34.3 22.7 34.3 22.68 34.31 22.66 34.31 22.64 34.31 22.62 34.31 22.6 34.31 22.58 34.31 22.56 34.31 22.54 34.31 22.52 34.31 22.5 34.31 22.48 34.3 22.45 34.3 22.44 34.3 22.41 34.3 22.39 34.3 22.37 34.29 22.35 34.29 22.33 34.29 22.31 34.28 22.29 34.28 22.27 34.27 22.25 34.27 22.23 34.27 22.21 34.26 22.19 34.25 22.16 34.25 22.14 34.24 22.12 34.24 22.1 34.23 22.08 34.22 22.06 34.22 22.04 34.21 22.02 34.2 22 34.19 21.98 34.19 21.96 34.18 21.94 34.17 21.92 34.16 21.9 34.15 21.88 34.14 21.86 34.13 21.84 34.12 21.82 34.11 21.8 34.1 21.77 34.09 21.75 34.08 21.73 34.07 21.71 34.05 21.69 34.04 21.67 34.03 21.65 34.02 21.63 34 21.61 33.99 21.59 33.98 21.57 33.96 21.55 33.95 21.53 33.94 21.51 33.92 21.49 33.91 21.47 33.89 21.45 33.88 21.43 33.86 21.42 33.84 21.4 33.83 21.38 33.81 21.36 33.8 13.17 34.23"/>
    <line class="cls-1" x1="21.36" y1="33.8" x2="21.37" y2="32.45"/>
    <polyline class="cls-1" points="29.43 28.3 27.36 28.41 27.39 26.47 27.73 1.64"/>
    <line class="cls-1" x1="30.77" y1="31.25" x2="23.78" y2="31.62"/>
    <polyline class="cls-1" points="30.42 33.69 30.4 33.7 30.38 33.72 30.36 33.73 30.34 33.74 30.32 33.75 30.3 33.76 30.28 33.77 30.26 33.78 30.24 33.79 30.22 33.8 30.2 33.8 30.18 33.81 30.16 33.82 30.14 33.83 30.12 33.84 30.1 33.84 30.08 33.85 30.06 33.86 30.04 33.86 30.02 33.87 30 33.88 29.98 33.88 29.96 33.89 29.94 33.89 29.92 33.9 29.9 33.9 29.88 33.91 29.86 33.91 29.84 33.91 29.82 33.92 29.8 33.92 29.78 33.92 29.75 33.93 29.73 33.93 29.71 33.93 29.69 33.93 29.67 33.93 29.66 33.93"/>
    <line class="cls-1" x1="27.73" y1="25.89" x2="27.4" y2="25.91"/>
    <polyline class="cls-1" points="27.4 25.83 27.73 25.89 27.77 25.94 27.82 26 27.86 26.05 27.9 26.1 27.94 26.15 27.98 26.2 28.02 26.26 28.06 26.31 28.1 26.36 28.14 26.42 28.18 26.47 28.22 26.52 28.26 26.58 28.3 26.63 28.34 26.68 28.38 26.74 28.42 26.8 28.46 26.85 28.5 26.91 28.54 26.96 28.58 27.02 28.62 27.07 28.66 27.13 28.7 27.19 28.74 27.24 28.78 27.3 28.82 27.36 28.86 27.41 28.89 27.47 28.93 27.53 28.97 27.59 29.01 27.65 29.05 27.71 29.09 27.76 29.12 27.82 29.16 27.88 29.2 27.94 29.24 28 29.28 28.06 29.32 28.12 29.35 28.18 29.39 28.24 29.43 28.3 29.45 28.34 29.47 28.38 29.5 28.41 29.52 28.45 29.55 28.49 29.57 28.53 29.59 28.57 29.61 28.61 29.64 28.65 29.66 28.69 29.68 28.73 29.7 28.77 29.73 28.81 29.75 28.85 29.77 28.89 29.79 28.93 29.82 28.97 29.84 29.01 29.86 29.05 29.88 29.09 29.9 29.14 29.92 29.18 29.94 29.22 29.96 29.26 29.99 29.31 30.01 29.35 30.03 29.39 30.05 29.43 30.07 29.48 30.09 29.52 30.11 29.57 30.13 29.61 30.15 29.65 30.17 29.7 30.19 29.74 30.21 29.79 30.23 29.83 30.25 29.88 30.27 29.92 30.29 29.97 30.31 30.01 30.33 30.06 30.35 30.1 30.37 30.15 30.39 30.2 30.41 30.24 30.42 30.29 30.44 30.34 30.46 30.38 30.48 30.43 30.5 30.48 30.52 30.52 30.53 30.57 30.55 30.62 30.57 30.66 30.59 30.71 30.6 30.76 30.62 30.81 30.64 30.86 30.66 30.91 30.67 30.96 30.69 31 30.71 31.05 30.72 31.1 30.74 31.15 30.76 31.2 30.77 31.25 30.78 31.27 30.79 31.29 30.8 31.31 30.8 31.34 30.81 31.36 30.82 31.38 30.82 31.4 30.83 31.42 30.84 31.45 30.84 31.47 30.85 31.49 30.85 31.52 30.86 31.54 30.86 31.56 30.87 31.58 30.87 31.61 30.88 31.63 30.88 31.66 30.89 31.68 30.89 31.7 30.89 31.73 30.9 31.75 30.9 31.77 30.91 31.8 30.91 31.82 30.91 31.85 30.92 31.87 30.92 31.9 30.92 31.92 30.93 31.95 30.93 31.97 30.93 32 30.93 32.02 30.93 32.04 30.93 32.07 30.94 32.09 30.94 32.12 30.94 32.14 30.94 32.17 30.94 32.19 30.94 32.22 30.94 32.24 30.94 32.27 30.94 32.29 30.94 32.32 30.94 32.34 30.94 32.37 30.94 32.39 30.93 32.41 30.93 32.44 30.93 32.46 30.93 32.49 30.93 32.51 30.93 32.53 30.92 32.56 30.92 32.58 30.92 32.61 30.92 32.63 30.91 32.65 30.91 32.68 30.91 32.7 30.9 32.72 30.9 32.75 30.89 32.77 30.89 32.79 30.89 32.81 30.88 32.84 30.88 32.86 30.87 32.88 30.86 32.9 30.86 32.92 30.86 32.95 30.85 32.97 30.84 32.99 30.84 33.01 30.83 33.03 30.82 33.05 30.82 33.07 30.81 33.09 30.8 33.11 30.8 33.13 30.79 33.15 30.78 33.17 30.78 33.19 30.77 33.21 30.76 33.23 30.75 33.25 30.74 33.27 30.74 33.28 30.73 33.3 30.72 33.32 30.71 33.34 30.7 33.35 30.69 33.37 30.68 33.38 30.68 33.4 30.66 33.42 30.66 33.43 30.65 33.45 30.64 33.46 30.63 33.48 30.62 33.49 30.61 33.51 30.6 33.52 30.59 33.53 30.58 33.54 30.57 33.56 30.55 33.57 30.54 33.58 30.53 33.59 30.52 33.6 30.51 33.62 30.5 33.63 30.49 33.64 30.48 33.65 30.46 33.66 30.45 33.67 30.44 33.68 30.43 33.69 30.42 33.69 29.66 33.93 24.57 34.2 22.67 34.31"/>
    <path class="cls-1" d="M44.12,56.62l25.5,4.86h0l1.55.3a.14.14,0,0,1,.12.11h0v4.27h-.09l-.23,0H68.3l0,0H68l0,0h-.16l-.06,0h-.05l-.06,0H67.6l0,0h-.06l0,0h0l-.06,0h0l0,0-.06,0h0l-.06,0,0,0-.05,0h0l-.06,0,0,0,0,0,0,0-.06,0,0,0,0,0-.05,0-.06,0-.05,0,0,0,0,0,0,0,0,0-.06,0-.05,0,0,0,0,0,0,0,0,0-.05,0,0,0-.06,0,0,0,0,0,0,0,0,0-.05,0,0,0,0,0,0,0,0,0-.05,0-.63-.54,0,0h0v0h0v0h0l0,0h0v0h0v0l0,0h0v0h0V64h0v-.1h0V62.73h0v-.08h0v0h0v0l0,0h0v0l0,0h0v0h0l0,0h0l0,0h0v0h.06v0l6.54-.35"/>
    <polyline class="cls-1" points="23.12 29.94 23.11 26.55 23.46 1.71 23.49 1.72 23.52 1.72 23.56 1.73 23.6 1.73 23.64 1.74 23.67 1.75 23.71 1.75 23.75 1.76 23.8 1.76 23.84 1.77 23.88 1.77 23.93 1.78 23.98 1.78 24.02 1.79 24.07 1.79 24.12 1.8 24.17 1.8 24.22 1.8 24.28 1.81 24.33 1.81 24.38 1.82 24.44 1.82 24.49 1.82 24.55 1.83 24.6 1.83 24.66 1.83 24.72 1.83 24.78 1.84 24.83 1.84 24.89 1.84 24.95 1.85 25.01 1.85 25.07 1.85 25.13 1.85 25.19 1.85 25.25 1.85 25.31 1.86 25.37 1.86 25.43 1.86 25.49 1.86 25.55 1.86 25.61 1.86 25.67 1.86 25.73 1.86 25.79 1.86 25.85 1.86 25.91 1.86 25.97 1.86 26.03 1.86 26.09 1.86 26.14 1.85 26.2 1.85 26.26 1.85 26.31 1.85 26.37 1.85 26.42 1.85 26.48 1.84 26.53 1.84 26.59 1.84 26.64 1.84 26.69 1.83 26.74 1.83 26.79 1.83 26.84 1.82 26.88 1.82 26.93 1.82 26.97 1.81 27.02 1.81 27.06 1.81 27.1 1.8 27.14 1.8 27.18 1.79 27.22 1.79 27.26 1.78 27.3 1.78 27.33 1.77 27.36 1.77 27.4 1.76 27.43 1.76 27.46 1.75 27.49 1.75 27.51 1.74 27.54 1.74 27.56 1.73 27.58 1.73 27.6 1.72 27.62 1.71 27.64 1.71 27.66 1.7 27.67 1.7 27.69 1.69 27.7 1.68 27.71 1.68 27.71 1.67 27.72 1.66 27.73 1.66 27.73 1.65 27.73 1.64 27.73 1.64 27.73 1.63 27.73 1.63 27.73 1.62 27.72 1.61 27.71 1.6 27.7 1.6 27.7 1.59 27.68 1.58 27.67 1.58 27.65 1.57 27.64 1.56 27.62 1.56 27.6 1.55 27.58 1.54 27.56 1.54 27.53 1.53 27.51 1.52 27.48 1.52 27.45 1.51 27.42 1.51 27.39 1.5 25.5 1.14 21.57 1.35 21.23 26.19 20.75 26.27"/>
  </g>
</svg>