<?xml version="1.0" encoding="utf-8"?>
<!-- Generator: Adobe Illustrator 16.0.0, SVG Export Plug-In . SVG Version: 6.00 Build 0)  -->
<!DOCTYPE svg PUBLIC "-//W3C//DTD SVG 1.1//EN" "http://www.w3.org/Graphics/SVG/1.1/DTD/svg11.dtd">
<svg version="1.1" id="Layer_1" xmlns="http://www.w3.org/2000/svg" xmlns:xlink="http://www.w3.org/1999/xlink" x="0px" y="0px"
	 width="288px" height="612px" viewBox="0 0 288 612" enable-background="new 0 0 288 612" xml:space="preserve">
<path fill="none" stroke="#DCDBDB" d="M166.79,570.075"/>
<path fill="none" stroke="#DCDBDB" d="M149.433,570.109"/>
<path fill="none" stroke="#DCDBDB" d="M166.79,570.075l-12.335-46.609c0,0,5.354-0.584,6.3-1.953
	c3.059-4.525-1.678-21.827-1.678-21.827s4.063-36.36,4.527-49.556c0.434-12.38-1.066-49.566-1.066-49.566s-4.107-20.37-4.019-27.257
	c0.025-3.657,1.409-10.879,2.447-14.38c0.976-3.238,5.435-12.402,5.435-12.402s57.985-3.61,60.448-4.553
	c1.494-0.569,3.441-3.479,3.967-4.979c0.66-1.862-0.626-4.784-0.117-6.718c0.303-1.219,2.575-5.67,2.575-5.67l23.293-2.519
	c2.902-1.458,7.061-7.687,6.933-10.914c-0.134-3.099-4.567-8.833-7.478-9.91l-21.729,0.933l4.239-88.151
	c0,0,37.334-2.145,39.163-4.015c1.432-1.464,3.003-5.449,3.442-7.444c0.294-1.333,0.373-4.149-0.006-5.449
	c-0.646-2.259-3.519-6.083-4.97-7.924c-1.761-2.233-36.675,2.534-36.675,2.534l-1.042-25.272c0,0-0.391-3.86-0.995-4.954
	c-8.604-15.367-51.624-47.988-51.624-47.988s0.602-5.833,0.725-8.188c0.053-1.129,0.207-4.017-0.135-5.099
	c-0.45-1.419-2.978-4.061-4.093-5.063c-0.813-0.7-2.444-2.224-3.49-2.465c-5.377-1.258-21.793,3.508-21.793,3.508
	s-18.69-11.687-25.801-12.846c-5.3-0.848-21.299,3.011-21.299,3.011l-1.062-38.164c0,0-5.052-3.019-6.943-3.445
	c-1.457-0.337-4.515-0.37-5.96,0c-1.731,0.468-6.284,3.538-6.284,3.538l-4.063,42.95c0,0-53.817,7.4-60.425,13.121
	c-7.845,6.8-17.15,116.014-9.107,181.476c0.381,3.133,2.756,12.338,2.756,12.338l2.244,5.452l7.935,4.448l9.42,3.45l42.652,13.808
	c0,0,2.791,3.884,3.969,4.949c0.983,0.909,3.173,2.595,4.466,2.97c1.661,0.504,5.322-0.624,6.941-0.016
	c2.631,0.996,7.282,4.867,8.439,7.421c0.886,1.924-0.982,6.569,0.023,8.425c1.073,2.003,4.457,2.983,3.475,8.427
	c-0.987,5.45,0.158,8.923,0.158,8.923s-6.377,4.976-6.559,7.443c-0.207,2.974,6.6,9.904,6.6,9.904s-5.246,104.283-3.423,109.552
	c1.262,3.702,14.856,4.923,14.856,4.923s-2.621,20.619,1.29,25.13c2.614,2.999,12.656-0.368,12.656-0.368l15.438,47.068"/>
<path fill="none" stroke="#DCDBDB" d="M127.12,129.49c0,0,32.816,7.61,50.334,15.778c15.37,7.152,35.03,18.678,43.159,28.787
	c0.546,0.652,1.094,2.28,1.261,3.099c0.172,0.913,0.296,2.835-0.006,3.712c-4.728,14.467-19.33,30.043-37.835,47.653
	c-24.002,22.86-56.699,30.336-56.699,30.336"/>
<path fill="none" stroke="#DCDBDB" d="M60.89,243.643c-0.022,7.065-2.154,12.771-6.042,12.781
	c-5.266,0.011-7.838-5.695-7.837-12.762c-0.023-7.039,3.878-12.747,7.767-12.771C59.827,230.886,60.926,237.088,60.89,243.643z"/>
<path fill="none" stroke="#DCDBDB" d="M111.116,190.482c0,6.571-1.971,10.412-9.173,11.411l-68.121,9.544
	c-6.572,0.013-8.181,1.619-8.181-4.943l4.714-80.307c-0.024-6.586,6.037-9.391,11.983-10.673l66.891-10.036
	c6.559-0.023,3.86,12.754,3.88,19.326L111.116,190.482z"/>
<path fill="none" stroke="#DCDBDB" d="M59.654,251.708c-0.49,1.808-2.382,4.223-4.156,4.215c-2.325,0-3.763-0.457-3.774-2.298
	c0.01-1.857,3.464-4.207,5.783-4.217C59.841,249.407,60.162,249.937,59.654,251.708z"/>
<path fill="none" stroke="#DCDBDB" d="M197.986,204.969c-0.054,1.901-1.356,5.57-5.442,4.394c-2.084-0.6-9.307-7.916-8.961-19.798
	c0.299-10.095,5.666-19.359,10.021-11.525"/>
<path fill="none" stroke="#DCDBDB" d="M203.643,177.193l-12.011,1.012c0,0-5.431,0.614-4.054,16.362
	c0.751,8.672,5.809,11.015,5.809,11.015l13.775-2.378"/>
<path fill="none" stroke="#DCDBDB" d="M211.729,191.561c0.012,7.378-0.328,11.633-4.567,11.643
	c-4.239,0.018-8.691-6.715-8.703-14.106c-0.012-7.394,2.083-11.902,6.316-11.906C209.009,177.194,211.729,187.958,211.729,191.561z"
	/>
<path fill="none" stroke="#DCDBDB" d="M239.488,191.745c-0.627,0.051-1.271,0.369-4.921,0.631c-2.683,0.19-5.485,0.754-4.859,10.786
	c0.427,6.698,1.839,11.04,4.882,11.02c3.05-0.004,1.101,0.169,3.943-0.138"/>
<path fill="none" stroke="#DCDBDB" d="M234.864,301.694l-5.095,0.479c0,0-2.849,0.25-9.421,0.271l-0.481-0.001
	c-9.304,0.012-11.896,4.355-11.9,10.926l-0.015,0.497c0.039,6.573,1.16,13.013,11.95,11.868l0.483-0.007
	c6.575,0.003,12.255-0.634,12.889-1.122"/>
<path fill="none" stroke="#DCDBDB" d="M81.103,325.358c-15.558-17.958,18.743-15.395,43.914-15.439
	c25.202-0.036,65.147,12.785,65.145,19.973c0.007,3.376,0.017,11.311-25.699,17.067"/>
<path fill="none" stroke="#DCDBDB" d="M107.588,352.571"/>
<path fill="none" stroke="#DCDBDB" d="M107.607,365.454"/>
<polyline fill="none" stroke="#DCDBDB" points="107.588,352.571 107.555,339.697 114.002,339.683 120.47,339.678 121.954,353.372 
	123.465,367.089 115.539,366.27 108.354,365.557 "/>
<path fill="none" stroke="#DCDBDB" d="M226.85,341.972l-96.896-45.604c0,0-3.122-1.982-3.828-2.965
	c-1.209-1.679-2.387-5.717-2.799-7.738c-5.621-27.991-4.355-85.626-4.487-114.203c-0.086-20.589,1.863-62.356,8.208-81.966
	c0.434-1.357,1.683-4.144,2.867-4.953c0.51-0.347,2.321-0.366,2.327-0.985"/>
<path fill="none" stroke="#DCDBDB" d="M20.157,241.363c-2.018-20.48-3.994-12.039-4.071-55.499
	c-0.078-43.474,12.874-75.978,15.727-80.245"/>
<path fill="none" stroke="#DCDBDB" d="M53.718,255.929"/>
<path fill="none" stroke="#DCDBDB" d="M38.099,105.608"/>
<path fill="none" stroke="#DCDBDB" d="M118.604,88.862c0,0-1.176,43.009-3.653,75.375c-2.299,29.967-5.922,69.058-5.922,69.058"/>
<line fill="none" stroke="#DCDBDB" x1="85.627" y1="91.266" x2="109.941" y2="86.388"/>
<path fill="none" stroke="#DCDBDB" d="M157.041,96.224c-7.254,0.011-7.263,6.393-7.24,13.394
	c0.015,6.972,5.968,16.347,10.578,10.899"/>
<path fill="none" stroke="#DCDBDB" d="M160.379,120.516l20.983-3.998c0,0,2.384-1.459,2.965-2.163
	c0.299-0.359,0.833-1.653,0.833-1.653"/>
</svg>
