<?xml version="1.0" encoding="utf-8"?>
<svg viewBox="0 3.448 75 68.227" xmlns="http://www.w3.org/2000/svg">
  <defs>
    <style>.cls-1{fill:none;stroke:#f4f4f4;stroke-linejoin:round;}</style>
  </defs>
  <title>f4_Horizontal_Arm</title>
  <g id="Linework">
    <path class="cls-1" d="M1.14,43s-.29-3.82,1.94-4.35L24.8,33.48l1.55.42v3.5L2.69,43.6a3.11,3.11,0,0,1-.8-.27A6.79,6.79,0,0,0,1.14,43Z"/>
    <path class="cls-1" d="M2.52,43.55a5,5,0,0,1,.44-3c.75-1.13.56-1.18,2.47-1.64l20.9-5"/>
    <path class="cls-1" d="M22.82,38.32l0,3.73s.14,2,1.15,2,1.26-.39,1.29-1.45,0-4.94,0-4.94"/>
    <polyline class="cls-1" points="24.13 44.08 24.13 50.8 25.17 51.14 25.17 50.83 26.81 51.31 28.24 50.52 29.04 50.8 29.76 50.49 30.1 50.59 30.27 50.49 30.27 50.37 30.54 50.22 30.54 37.57"/>
    <line class="cls-1" x1="26.79" y1="37.65" x2="26.79" y2="51.31"/>
    <path class="cls-1" d="M24.85,29.76l1.26.31s.48.2,1.16,1.79a7.07,7.07,0,0,1-.07,5.93"/>
    <path class="cls-1" d="M34.07,30.44s-3.32.67-4.55,2,.07,2.37,1.33,2.47a9.39,9.39,0,0,0,4.26-.31"/>
    <line class="cls-1" x1="24.83" y1="30.41" x2="22.19" y2="30.99"/>
    <polyline class="cls-1" points="24.39 32.37 22.65 32.85 22.68 33.97"/>
    <path class="cls-1" d="M22.52,32.89c.33,0,.55-.5.49-1s-.36-.93-.69-.9-.55.5-.49,1S22.2,32.92,22.52,32.89Z"/>
    <line class="cls-1" x1="24.15" y1="30.56" x2="24.13" y2="6.95"/>
    <path class="cls-1" d="M27.27,8.13V9L27,9l0,19.88,0,0-.28.39s-1.09.26-1.46.33-.53.22-.43.51a.82.82,0,0,1-.12.8c-.68.46,0,2.56,0,2.56"/>
    <path class="cls-1" d="M30.22,8.3v.54l.15,0,.07,19.42a15.74,15.74,0,0,0,1.55.37,2.6,2.6,0,0,1,1.67,1.13,1.22,1.22,0,0,1,.45.92A9,9,0,0,0,35,34.36c.3.53-.17,1.33-.29,1.54a13.91,13.91,0,0,1-3.62,1.53c-3.25,1.09-4.87,0-4.87,0"/>
    <path class="cls-1" d="M23.83,5.21V7a2.74,2.74,0,0,1,1.53.07A6.66,6.66,0,0,0,29.45,8.4c.55,0,1.42-.15,1.45-.87s0-3,0-3-4.24,0-5.32.15A6.27,6.27,0,0,0,23.83,5.21Z"/>
    <path class="cls-1" d="M25.72,4.7s1.79.17,2.18.17,2.61,0,3-.32"/>
    <line class="cls-1" x1="26.25" y1="30.12" x2="32.54" y2="28.82"/>
    <path class="cls-1" d="M24.13,49.69a14.59,14.59,0,0,0-1.48,1.09c-.17.22,0,.22.39.36s5.75,2.2,5.75,2.2a2.34,2.34,0,0,0,1.89-.09c1.26-.46,4.57-1.94,4.57-1.94l-4.69-1.62"/>
    <path class="cls-1" d="M22.63,50.78s-.2.15-.18.7.08,1.89.1,2.13.12.39,1,.73,8.2,3.53,8.83,3.72a8.08,8.08,0,0,0,2.9.39c0-2.15,0-7.14,0-7.14"/>
    <path class="cls-1" d="M34.24,32.08s6-1.28,6.31-1.3a5.57,5.57,0,0,0,1.57-.05c.17-.15,1.09,0,1.16.21"/>
    <path class="cls-1" d="M35.08,35.2,41.47,33v-.49l.87-.38a.7.7,0,0,1,.5.09"/>
    <polyline class="cls-1" points="40.48 30.8 41.47 31.19 41.47 32.54"/>
    <path class="cls-1" d="M43.43,31.09s-.41-.63-.7.32a5.29,5.29,0,0,0,.26.77l.44-.2S43.72,31.28,43.43,31.09Z"/>
    <polyline class="cls-1" points="42.7 31.93 42.99 32.59 44.1 35.93 44.3 36.36 43.91 34.98 43.12 32.12"/>
    <polyline class="cls-1" points="24.13 48.09 7.92 42.23 8.06 48.29 14.4 50.85"/>
    <path class="cls-1" d="M22.48,52.11l-6.24-2.47s-2.18-.19-1.79,1.7c.29.67.29,1,2.13,1.74s16.2,6.63,16.2,6.63l.78-.34v-.53L16.72,52s-2-.65-.48-2.32"/>
    <polyline class="cls-1" points="35.3 52.11 63.02 62.27 62.39 70.45 29.25 56.78"/>
    <path class="cls-1" d="M63,62.27l1.65-1.06-2.18-.87.48-1.7L64.57,57,73,52.35s1.26-.39,0-.72S30.56,39.19,30.56,39.19"/>
    <polyline class="cls-1" points="9.63 41.78 10.82 42.19 13.05 42 22.77 39.92"/>
    <polyline class="cls-1" points="62.39 70.45 64.14 69.33 64.62 61.21"/>
    <path class="cls-1" d="M64.52,62.85l8.9-5.18.44-5.27a.76.76,0,0,0-.48-.65"/>
    <polyline class="cls-1" points="32.69 59.22 32.74 59.71 42.51 64.11 42.99 64.21 44.67 63.22"/>
    <polyline class="cls-1" points="9.2 48.75 7.39 49.45 16.37 52.99"/>
  </g>
</svg>