<?xml version="1.0" encoding="utf-8"?>
<svg viewBox="12.315 0 49.631 75" xmlns="http://www.w3.org/2000/svg">
  <defs>
    <style>.cls-1{fill:none;stroke:#f4f4f4;stroke-linejoin:round;}</style>
  </defs>
  <title>f4_Leitz_Reference</title>
  <g id="Linework">
    <polyline class="cls-1" points="43.06 70.51 43.06 70.49 43.05 70.4 43.03 70.31 43.02 70.22 43 70.12 42.98 70.03 42.97 69.94 42.95 69.85 42.94 69.76 42.92 69.66 42.9 69.57 42.88 69.48 42.86 69.39 42.84 69.3 42.83 69.21 42.8 69.11 42.78 69.02 42.77 68.93 42.74 68.84 42.72 68.75 42.7 68.66 42.68 68.57 42.66 68.48 42.64 68.39 42.61 68.3 42.59 68.21 42.57 68.12 42.54 68.03 42.52 67.94 42.49 67.84 42.47 67.75 42.44 67.66 42.42 67.58 42.39 67.49 42.37 67.4 42.34 67.31 42.31 67.22 42.28 67.13 42.26 67.04 42.23 66.95 42.2 66.86 42.17 66.77 42.14 66.68 42.11 66.6 42.08 66.51 42.05 66.42 42.02 66.33 41.99 66.24 41.96 66.16 41.92 66.07 41.89 65.98 41.86 65.89 41.83 65.81 41.79 65.72 41.76 65.63 41.73 65.55 41.69 65.46 41.66 65.37 41.62 65.28 41.59 65.2 41.55 65.11 41.51 65.03 41.48 64.94 41.44 64.85 41.4 64.77 41.37 64.69 41.33 64.6 41.29 64.52 41.25 64.43 41.24 64.41"/>
    <line class="cls-1" x1="52.81" y1="60.39" x2="53.85" y2="60.72"/>
    <polyline class="cls-1" points="51.69 52.14 59.87 54.76 60.83 55.07"/>
    <line class="cls-1" x1="22.02" y1="16.04" x2="21.84" y2="16.04"/>
    <line class="cls-1" x1="25.35" y1="64.73" x2="25.35" y2="64.5"/>
    <polyline class="cls-1" points="27.49 70.98 27.48 70.96 27.47 70.87 27.46 70.78 27.44 70.69 27.43 70.59 27.41 70.5 27.39 70.41 27.38 70.32 27.36 70.23 27.34 70.14 27.32 70.04 27.31 69.95 27.29 69.86 27.27 69.77 27.25 69.68 27.23 69.59 27.21 69.49 27.19 69.4 27.17 69.31 27.15 69.22 27.13 69.13 27.11 69.04 27.08 68.95 27.06 68.86 27.04 68.77 27.02 68.68 26.99 68.59 26.97 68.5 26.94 68.41 26.92 68.32 26.89 68.22 26.87 68.14 26.84 68.05 26.82 67.96 26.79 67.87 26.76 67.78 26.74 67.69 26.71 67.6 26.68 67.51 26.65 67.42 26.62 67.33 26.59 67.24 26.57 67.15 26.54 67.07 26.5 66.98 26.48 66.89 26.44 66.8 26.41 66.72 26.38 66.63 26.35 66.54 26.32 66.45 26.29 66.36 26.25 66.28 26.22 66.19 26.19 66.1 26.15 66.02 26.12 65.93 26.08 65.84 26.05 65.76 26.01 65.67 25.98 65.58 25.94 65.5 25.9 65.41 25.87 65.33 25.83 65.24 25.79 65.16 25.75 65.07 25.72 64.99 25.68 64.9 25.64 64.82 25.6 64.73 25.6 64.72"/>
    <polyline class="cls-1" points="38.98 51.29 38.98 51.2 38.98 51.02 38.98 50.84 38.98 50.66 38.98 50.48 38.98 50.29 38.99 50.11 38.99 49.93 38.99 49.75 38.99 49.57 38.99 49.39 38.99 49.21 39 49.02 39 48.84 39 48.66 39 48.48 39.01 48.3 39.01 48.12 39.01 47.94 39.01 47.76 39.02 47.58 39.02 47.39 39.02 47.21 39.03 47.03 39.03 46.85 39.03 46.67 39.04 46.49 39.04 46.31 39.05 46.13 39.05 45.95 39.06 45.77 39.06 45.59 39.07 45.41 39.07 45.23 39.08 45.05 39.08 44.87 39.09 44.69 39.09 44.51 39.1 44.33 39.11 44.15 39.11 43.97 39.12 43.79 39.12 43.61 39.13 43.43 39.14 43.25 39.14 43.07 39.15 42.89 39.16 42.71 39.17 42.53 39.17 42.35 39.18 42.18 39.19 42 39.2 41.82 39.2 41.64 39.21 41.46 39.22 41.28 39.23 41.1 39.24 40.93 39.25 40.75 39.25 40.57 39.27 40.39 39.27 40.22 39.28 40.04 39.29 39.86 39.3 39.68 39.31 39.51 39.32 39.33 39.33 39.15 39.34 38.97 39.35 38.8 39.36 38.62 39.37 38.44 39.38 38.27 39.39 38.09 39.4 37.91 39.41 37.74 39.43 37.56 39.44 37.38 39.45 37.21 39.46 37.03 39.47 36.86 39.48 36.68 39.5 36.51 39.51 36.33 39.52 36.16 39.53 35.98 39.55 35.81 39.56 35.63 39.57 35.45 39.59 35.28 39.6 35.11 39.61 34.93 39.63 34.76 39.64 34.58 39.65 34.41 39.67 34.24 39.68 34.06 39.7 33.89 39.71 33.71 39.72 33.65"/>
    <polyline class="cls-1" points="42.2 33.57 42.07 48 42.07 48.01 42.07 48.02 42.07 48.03 42.07 48.03 42.07 48.05 42.07 48.05 42.07 48.06 42.07 48.07 42.07 48.08 42.07 48.09 42.07 48.1 42.08 48.11 42.08 48.12 42.08 48.13 42.08 48.13 42.08 48.14 42.09 48.15 42.09 48.16 42.09 48.16 42.09 48.17 42.09 48.18 42.1 48.18 42.1 48.19 42.1 48.19 42.1 48.2 42.11 48.2 42.11 48.21 42.11 48.21 42.16 48.26 42.21 48.32 42.25 48.37 42.3 48.42 42.35 48.48 42.39 48.53 42.44 48.58 42.49 48.64 42.53 48.69 42.58 48.75 42.63 48.8 42.67 48.86 42.72 48.91 42.77 48.97 42.81 49.03 42.86 49.09 42.91 49.14 42.95 49.2 43 49.26 43.04 49.32 43.09 49.38 43.13 49.44 43.18 49.5 43.23 49.56 43.27 49.62 43.32 49.68 43.36 49.74 43.41 49.81 43.45 49.87 43.5 49.93 43.55 50 43.59 50.06 43.64 50.12 43.68 50.19 43.73 50.25 43.77 50.32 43.82 50.38 43.86 50.45 43.91 50.52 43.95 50.58 44 50.65 44.04 50.72 44.09 50.78 44.13 50.85 44.18 50.92 44.22 50.99 44.27 51.06 44.31 51.13 44.35 51.2 44.4 51.27 44.44 51.48 44.42 53.04"/>
    <line class="cls-1" x1="51.7" y1="51.26" x2="44.44" y2="51.48"/>
    <line class="cls-1" x1="49.33" y1="47.78" x2="42.07" y2="48"/>
    <polyline class="cls-1" points="45.22 53.29 51.69 53.1 51.7 51.26 51.66 51.05 51.62 50.98 51.57 50.91 51.53 50.84 51.48 50.77 51.44 50.7 51.4 50.64 51.35 50.57 51.3 50.5 51.26 50.43 51.22 50.36 51.17 50.3 51.13 50.23 51.08 50.16 51.03 50.1 50.99 50.03 50.95 49.97 50.9 49.91 50.85 49.84 50.81 49.78 50.76 49.71 50.72 49.65 50.67 49.59 50.63 49.53 50.58 49.46 50.53 49.4 50.49 49.34 50.44 49.28 50.4 49.22 50.35 49.16 50.31 49.1 50.26 49.04 50.21 48.98 50.17 48.92 50.12 48.87 50.08 48.81 50.03 48.75 49.98 48.7 49.94 48.64 49.89 48.58 49.84 48.53 49.8 48.47 49.75 48.42 49.7 48.36 49.66 48.31 49.61 48.26 49.56 48.2 49.52 48.15 49.47 48.1 49.42 48.05 49.38 47.99 49.37 47.99 49.37 47.98 49.37 47.98 49.36 47.98 49.36 47.97 49.36 47.96 49.36 47.96 49.35 47.95 49.35 47.94 49.35 47.94 49.35 47.93 49.34 47.92 49.34 47.91 49.34 47.91 49.34 47.9 49.34 47.89 49.34 47.88 49.34 47.87 49.33 47.86 49.33 47.85 49.33 47.84 49.33 47.83 49.33 47.83 49.33 47.81 49.33 47.81 49.33 47.8 49.33 47.79 49.33 47.78 49.47 33.35"/>
    <line class="cls-1" x1="50.16" y1="32.21" x2="50.47" y2="32.2"/>
    <polyline class="cls-1" points="42.87 71.32 42.85 71.32 42.81 71.33 42.77 71.34 42.73 71.35 42.68 71.36 42.63 71.36 42.59 71.37 42.53 71.38 42.48 71.39 42.43 71.4 42.37 71.41 42.31 71.41 42.25 71.42 42.19 71.43 42.12 71.43 42.05 71.44 41.99 71.45 41.92 71.45 41.85 71.46 41.77 71.47 41.7 71.47 41.62 71.47 41.55 71.48 41.47 71.48 41.39 71.49 41.31 71.49 41.23 71.5 41.14 71.5 41.06 71.51 40.97 71.51 40.89 71.51 40.8 71.51 40.72 71.52 40.63 71.52 40.54 71.52 40.45 71.52 40.36 71.53 40.27 71.53 40.17 71.53 40.08 71.53 39.99 71.53 39.9 71.53 39.81 71.53 39.71 71.53 39.62 71.53 39.53 71.53 39.43 71.52 39.34 71.52 39.25 71.52 39.16 71.52 39.07 71.52 38.98 71.51 38.88 71.51 38.79 71.51 38.7 71.5 38.61 71.5 38.53 71.5 38.44 71.49 38.35 71.49 38.26 71.48 38.18 71.48 38.09 71.47 38.01 71.47 37.93 71.46 37.85 71.45 37.77 71.45 37.69 71.44 37.61 71.44 37.54 71.43 37.46 71.42 37.39 71.42 37.32 71.41 37.25 71.4 37.18 71.39 37.11 71.39 37.05 71.38 36.98 71.37 36.92 71.36 36.86 71.35 36.81 71.34 36.75 71.34 36.7 71.33 36.65 71.32 36.59 71.31 36.55 71.3 36.5 71.29 36.46 71.28 36.42 71.27 36.38 71.26 36.34 71.25 36.31 71.24 36.28 71.23 36.24 71.22 36.22 71.21 36.19 71.2 36.17 71.19 36.15 71.18 36.13 71.17 36.12 71.16 36.1 71.15 36.09 71.14 36.08 71.13 36.08 71.12 36.07 71.11 36.07 71.1 36.07 71.09 36.08 71.03 36.09 70.94 36.11 70.85 36.12 70.75 36.14 70.66 36.15 70.57 36.17 70.48 36.18 70.38 36.2 70.29 36.22 70.2 36.23 70.11 36.25 70.02 36.27 69.93 36.28 69.83 36.3 69.74 36.32 69.65 36.34 69.56 36.36 69.47 36.38 69.38 36.4 69.29 36.42 69.19 36.44 69.1 36.46 69.01 36.49 68.92 36.51 68.83 36.53 68.74 36.55 68.65 36.58 68.56 36.6 68.47 36.63 68.38 36.65 68.29 36.67 68.2 36.7 68.11 36.73 68.02 36.75 67.93 36.78 67.84 36.8 67.75 36.83 67.66 36.86 67.57 36.88 67.48 36.91 67.39 36.94 67.3 36.97 67.22 37 67.13 37.03 67.04 37.06 66.95 37.09 66.86 37.12 66.77 37.15 66.69 37.18 66.6 37.21 66.51 37.25 66.42 37.28 66.33 37.31 66.25 37.34 66.16 37.38 66.07 37.41 65.98 37.44 65.9 37.48 65.81 37.51 65.72 37.55 65.64 37.58 65.55 37.62 65.47 37.66 65.38 37.69 65.29 37.73 65.21 37.77 65.12 37.8 65.04 37.84 64.95 37.88 64.87 37.92 64.78 37.96 64.7 38 64.61 38.04 64.53 38.05 64.5"/>
    <polyline class="cls-1" points="37.34 50.76 37.34 50.76 35.76 50.81"/>
    <polyline class="cls-1" points="44.89 65.79 44.61 66.35 44.57 66.43 44.53 66.52 44.49 66.6 44.45 66.69 44.41 66.77 44.37 66.86 44.33 66.94 44.3 67.03 44.26 67.11 44.22 67.2 44.18 67.28 44.15 67.37 44.11 67.45 44.07 67.54 44.04 67.63 44 67.71 43.97 67.8 43.93 67.88 43.9 67.97 43.86 68.06 43.83 68.14 43.8 68.23 43.76 68.32 43.73 68.41 43.7 68.49 43.67 68.58 43.63 68.67 43.6 68.76 43.57 68.85 43.54 68.93 43.51 69.02 43.48 69.11 43.45 69.2 43.42 69.29 43.4 69.38 43.37 69.47 43.34 69.56 43.31 69.64 43.28 69.73 43.26 69.82 43.23 69.91 43.2 70 43.18 70.09 43.15 70.18 43.13 70.27 43.1 70.36 43.08 70.45 43.05 70.54 43.03 70.63 43.01 70.72 42.98 70.81 42.96 70.9 42.94 70.99 42.92 71.09 42.9 71.18 42.88 71.27 42.85 71.36 42.84 71.45 42.81 71.54 42.8 71.63 42.78 71.72 42.76 71.82 42.74 71.91 42.72 72 42.7 72.09 42.69 72.18 42.67 72.27 42.65 72.37 42.63 72.46 42.62 72.55 42.6 72.64 42.59 72.73 42.58 72.83 42.56 72.92 42.55 73.01 42.53 73.1 42.52 73.17 42.52 73.17 42.52 73.18 42.53 73.19 42.53 73.2 42.54 73.21 42.55 73.22 42.57 73.23 42.58 73.24 42.6 73.25 42.62 73.26 42.65 73.28 42.67 73.28 42.7 73.3 42.73 73.31 42.76 73.31 42.8 73.33 42.83 73.33 42.87 73.34 42.91 73.36 42.96 73.36 43 73.37 43.05 73.38 43.1 73.39 43.15 73.4 43.2 73.41 43.26 73.42 43.32 73.43 43.38 73.44 43.44 73.44 43.5 73.45 43.57 73.46 43.63 73.47 43.7 73.48 43.77 73.48 43.84 73.49 43.91 73.5 43.99 73.5 44.07 73.51 44.14 73.52 44.22 73.52 44.3 73.53 44.38 73.53 44.47 73.54 44.55 73.55 44.63 73.55 44.72 73.56 44.8 73.56 44.89 73.56 44.98 73.57 45.07 73.57 45.16 73.58 45.25 73.58 45.34 73.58 45.43 73.59 45.52 73.59 45.61 73.59 45.7 73.59 45.8 73.59 45.89 73.6 45.98 73.6 46.07 73.6 46.17 73.6 46.26 73.6 46.35 73.6 46.44 73.6 46.53 73.6 46.63 73.6 46.72 73.6 46.81 73.6 46.9 73.59 46.99 73.59 47.08 73.59 47.17 73.59 47.26 73.59 47.34 73.58 47.43 73.58 47.51 73.58 47.6 73.57 47.68 73.57 47.76 73.57 47.84 73.56 47.92 73.56 48 73.55 48.08 73.55 48.15 73.54 48.23 73.54 48.3 73.53 48.37 73.53 48.44 73.52 48.51 73.51 48.58 73.51 48.64 73.5 48.7 73.49 48.76 73.49 48.82 73.48 48.88 73.47 48.93 73.46 48.99 73.45 49.04 73.45 49.09 73.44 49.13 73.43 49.18 73.42 49.22 73.41 49.26 73.4 49.3 73.39 49.34 73.39 49.37 73.38 49.41 73.37 49.44 73.36 49.46 73.35 49.49 73.34 49.51 73.33 49.53 73.32 49.55 73.31 49.56 73.3 49.58 73.29 49.59 73.28 49.59 73.27 49.6 73.26 49.6 73.25 49.61 73.24 49.6 73.23 49.6 73.23 49.6 73.21 49.59 73.12 49.58 73.03 49.57 72.94 49.55 72.84 49.54 72.75 49.53 72.66 49.51 72.57 49.5 72.47 49.48 72.38 49.47 72.29 49.45 72.2 49.44 72.1 49.42 72.01 49.41 71.92 49.39 71.83 49.37 71.74 49.35 71.65 49.34 71.55 49.32 71.46 49.3 71.37 49.28 71.28 49.26 71.19 49.24 71.1 49.22 71 49.2 70.91 49.18 70.82 49.16 70.73 49.13 70.64 49.11 70.55 49.09 70.46 49.07 70.37 49.04 70.28 49.02 70.19 49 70.1 48.97 70.01 48.95 69.92 48.92 69.83 48.9 69.74 48.87 69.65 48.84 69.56 48.82 69.47 48.79 69.38 48.76 69.29 48.74 69.2 48.71 69.11 48.68 69.02 48.65 68.93 48.62 68.85 48.59 68.76 48.56 68.67 48.53 68.58 48.5 68.49 48.47 68.41 48.44 68.32 48.41 68.23 48.38 68.14 48.35 68.05 48.31 67.97 48.28 67.88 48.25 67.79 48.21 67.7 48.18 67.62 48.15 67.53 48.11 67.44 48.08 67.36 48.04 67.27 48.01 67.19 47.97 67.1 47.93 67.01 47.9 66.93 47.86 66.84 47.82 66.76 47.78 66.67 47.74 66.59 47.71 66.5 47.67 66.42 47.39 65.95 47.63 66.33"/>
    <polyline class="cls-1" points="47.39 64.29 47.38 66.33 47.38 66.33 47.38 66.34 47.37 66.34 47.37 66.35 47.37 66.35 47.36 66.35 47.36 66.36 47.35 66.36 47.34 66.36 47.34 66.37 47.33 66.37 47.32 66.37 47.31 66.38 47.3 66.38 47.28 66.38 47.27 66.39 47.26 66.39 47.24 66.39 47.23 66.4 47.21 66.4 47.2 66.4 47.18 66.4 47.16 66.41 47.14 66.41 47.12 66.41 47.1 66.42 47.08 66.42 47.06 66.42 47.04 66.42 47.02 66.43 46.99 66.43 46.97 66.43 46.94 66.43 46.92 66.44 46.89 66.44 46.87 66.44 46.84 66.44 46.81 66.44 46.78 66.44 46.76 66.45 46.73 66.45 46.7 66.45 46.67 66.45 46.64 66.45 46.61 66.45 46.58 66.45 46.55 66.45 46.52 66.46 46.49 66.46 46.46 66.46 46.42 66.46 46.39 66.46 46.36 66.46 46.33 66.46 46.3 66.46 46.26 66.46 46.23 66.46 46.2 66.46 46.17 66.46 46.13 66.46 46.1 66.46 46.07 66.46 46.04 66.46 46 66.46 45.97 66.46 45.94 66.46 45.91 66.45 45.88 66.45 45.84 66.45 45.81 66.45 45.78 66.45 45.75 66.45 45.72 66.45 45.69 66.45 45.66 66.44 45.63 66.44 45.6 66.44 45.57 66.44 45.54 66.44 45.51 66.43 45.48 66.43 45.45 66.43 45.43 66.43 45.4 66.43 45.37 66.42 45.35 66.42 45.32 66.42 45.3 66.42 45.27 66.41 45.25 66.41 45.23 66.41 45.2 66.4 45.18 66.4 45.16 66.4 45.14 66.39 45.12 66.39 45.1 66.39 45.09 66.39 45.07 66.38 45.05 66.38 45.04 66.38 45.02 66.37 45.01 66.37 44.99 66.36 44.98 66.36 44.97 66.36 44.95 66.36 44.95 66.35 44.94 66.35 44.93 66.34 44.92 66.34 44.91 66.34 44.91 66.33 44.9 66.33 44.89 66.33 44.89 66.32 44.89 66.32 44.88 66.31 44.88 66.31 44.88 66.31 44.89 64.29"/>
    <line class="cls-1" x1="50.63" y1="55.03" x2="49.05" y2="55.08"/>
    <path class="cls-1" d="M51.59,55.34,37.34,50.76Z"/>
    <polyline class="cls-1" points="25.16 34.92 25.15 35.36 25.15 35.36 26.05 35.65"/>
    <line class="cls-1" x1="19.14" y1="29.05" x2="18.56" y2="29.06"/>
    <line class="cls-1" x1="17.97" y1="27.04" x2="18.56" y2="29.06"/>
    <line class="cls-1" x1="18.56" y1="29.06" x2="18.12" y2="30.21"/>
    <polyline class="cls-1" points="17.85 27.35 16.38 22.4 15.43 22.09 14.29 22.13 14.27 23.65 14.28 23.74 14.29 23.84 14.29 23.93 14.3 24.02 14.31 24.11 14.32 24.2 14.32 24.3 14.33 24.39 14.34 24.48 14.35 24.57 14.36 24.66 14.37 24.75 14.38 24.84 14.39 24.93 14.4 25.02 14.41 25.11 14.42 25.2 14.43 25.3 14.44 25.39 14.45 25.48 14.46 25.57 14.48 25.65 14.49 25.74 14.5 25.83 14.51 25.92 14.52 26.01 14.54 26.1 14.55 26.19 14.56 26.27 14.58 26.36 14.59 26.45 14.6 26.54 14.62 26.63 14.63 26.71 14.64 26.8 14.66 26.88 14.67 26.97 14.69 27.06 14.7 27.14 14.72 27.23 14.73 27.31 14.75 27.4 14.76 27.48 14.78 27.57 14.8 27.65 14.81 27.73 14.83 27.82 14.85 27.9 14.86 27.98 14.88 28.07 14.9 28.15 14.91 28.23 14.93 28.31 14.95 28.39 14.97 28.47 14.99 28.55 15 28.63 15.02 28.71 15.04 28.79 15.06 28.87 15.08 28.95 15.1 29.03 15.12 29.11 15.14 29.19 15.16 29.26 15.18 29.34 15.2 29.42 15.22 29.49 15.24 29.57 15.26 29.64 15.28 29.72 15.3 29.79 15.32 29.87 15.34 29.94 15.36 30.02 15.38 30.09 15.41 30.16 15.43 30.23 15.45 30.3 15.47 30.38 15.49 30.45 15.52 30.52 15.54 30.59 15.56 30.66 15.59 30.73 15.61 30.8 15.63 30.86 15.66 30.93 15.68 31 15.7 31.07 15.73 31.14 15.75 31.2 15.77 31.27 15.8 31.33 15.82 31.4 15.85 31.46 15.87 31.52 15.9 31.59 15.92 31.65 15.95 31.71 15.97 31.77 16 31.84 16.02 31.9 16.05 31.96 16.07 32.02 16.1 32.08 16.13 32.13 16.15 32.19 16.18 32.25 16.2 32.31 16.23 32.37 16.26 32.42 16.29 32.48 16.31 32.53 16.34 32.59 16.36 32.64 16.39 32.7 16.42 32.75 16.45 32.8 16.6 33.09"/>
    <line class="cls-1" x1="22.01" y1="16.07" x2="21.95" y2="22.89"/>
    <polyline class="cls-1" points="19.66 19.72 20.48 19.98 20.48 19.99 20.48 19.93 20.48 19.87 20.49 19.81 20.49 19.76 20.49 19.7 20.49 19.64 20.5 19.59 20.5 19.53 20.5 19.47 20.5 19.42 20.51 19.36 20.51 19.3 20.51 19.25 20.52 19.19 20.52 19.14 20.53 19.08 20.53 19.03 20.54 18.97 20.54 18.92 20.55 18.86 20.55 18.81 20.56 18.76 20.56 18.7 20.57 18.65 20.58 18.6 20.58 18.55 20.59 18.5 20.6 18.44 20.61 18.39 20.61 18.34 20.62 18.29 20.63 18.24 20.64 18.19 20.65 18.14 20.66 18.09 20.66 18.04 20.68 18 20.68 17.95 20.7 17.9 20.7 17.85 20.71 17.81 20.73 17.76 20.74 17.71 20.75 17.67 20.76 17.63 20.77 17.58 20.78 17.54 20.79 17.49 20.8 17.45 20.82 17.41 20.83 17.37 20.84 17.33 20.86 17.29 20.87 17.25 20.88 17.21 20.89 17.17 20.91 17.13 20.92 17.09 20.94 17.05 20.95 17.02 20.96 16.98 20.98 16.95 20.99 16.91 21.01 16.88 21.02 16.84 21.04 16.81 21.05 16.78 21.07 16.75 21.08 16.72 21.1 16.68 21.11 16.66 21.13 16.63 21.15 16.6 21.16 16.57 21.18 16.54 21.2 16.52 21.21 16.49 21.23 16.47 21.25 16.44 21.27 16.42 21.28 16.39 21.3 16.37 21.32 16.35 21.33 16.33 21.35 16.31 21.37 16.29 21.39 16.27 21.41 16.25 21.42 16.24 21.44 16.22 21.46 16.2 21.48 16.19 21.5 16.18 21.52 16.16 21.53 16.15 21.55 16.14 21.57 16.12 21.59 16.11 21.61 16.1 21.63 16.09 21.65 16.09 21.67 16.08 21.68 16.07 21.7 16.06 21.72 16.06 21.74 16.05 21.76 16.05 21.78 16.05 21.8 16.05 21.82 16.04 21.84 16.04 21.86 16.04 21.88 16.04 21.9 16.04 21.92 16.05 21.94 16.05 21.96 16.05 21.98 16.06 22 16.06 22.02 16.07"/>
    <polyline class="cls-1" points="20.49 19.7 19.66 19.72 19.66 19.72 19.64 22.15"/>
    <line class="cls-1" x1="35.39" y1="30.67" x2="23.89" y2="31.02"/>
    <polyline class="cls-1" points="34.11 26.26 30.38 26.38 30.37 26.38 30.41 23.4 30.61 2.42"/>
    <line class="cls-1" x1="32.5" y1="22.64" x2="30.42" y2="22.71"/>
    <polyline class="cls-1" points="30.42 22.11 30.82 22.1 32.5 22.64 32.5 22.64 32.54 22.72 32.58 22.8 32.61 22.87 32.65 22.95 32.69 23.03 32.73 23.11 32.77 23.19 32.81 23.27 32.85 23.35 32.88 23.43 32.92 23.51 32.96 23.59 33 23.67 33.04 23.75 33.08 23.84 33.11 23.92 33.15 24 33.19 24.08 33.23 24.17 33.26 24.25 33.3 24.33 33.34 24.42 33.38 24.5 33.41 24.59 33.45 24.67 33.49 24.76 33.53 24.84 33.56 24.93 33.6 25.02 33.64 25.1 33.67 25.19 33.71 25.28 33.75 25.37 33.78 25.45 33.82 25.54 33.86 25.63 33.89 25.72 33.93 25.81 33.97 25.9 34 25.99 34.04 26.08 34.07 26.17 34.11 26.26 34.13 26.32 34.15 26.38 34.17 26.43 34.2 26.49 34.22 26.55 34.24 26.61 34.26 26.67 34.28 26.72 34.31 26.78 34.33 26.84 34.35 26.9 34.37 26.96 34.39 27.02 34.41 27.08 34.44 27.14 34.45 27.2 34.48 27.27 34.5 27.33 34.52 27.39 34.54 27.45 34.56 27.52 34.58 27.58 34.6 27.64 34.62 27.7 34.64 27.77 34.66 27.83 34.68 27.9 34.7 27.96 34.72 28.03 34.74 28.09 34.76 28.16 34.78 28.22 34.8 28.29 34.82 28.35 34.84 28.42 34.85 28.49 34.87 28.55 34.89 28.62 34.91 28.69 34.93 28.76 34.95 28.82 34.97 28.89 34.98 28.96 35 29.03 35.02 29.1 35.04 29.17 35.05 29.24 35.07 29.31 35.09 29.38 35.11 29.45 35.13 29.52 35.14 29.59 35.16 29.66 35.18 29.73 35.19 29.8 35.21 29.87 35.23 29.94 35.24 30.02 35.26 30.09 35.28 30.16 35.29 30.23 35.31 30.31 35.32 30.38 35.34 30.45 35.36 30.53 35.37 30.6 35.39 30.67 35.39 30.71 35.4 30.74 35.41 30.77 35.41 30.8 35.42 30.83 35.43 30.87 35.43 30.9 35.44 30.93 35.45 30.97 35.45 31 35.46 31.04 35.46 31.07 35.47 31.1 35.47 31.14 35.48 31.17 35.48 31.21 35.49 31.24 35.49 31.28 35.5 31.31 35.5 31.35 35.5 31.39 35.51 31.42 35.51 31.46 35.52 31.49 35.52 31.53 35.52 31.57 35.52 31.6 35.53 31.64 35.53 31.68 35.53 31.71 35.53 31.75 35.53 31.79 35.54 31.82 35.54 31.86 35.54 31.9 35.54 31.93 35.54 31.97 35.54 32.01 35.54 32.04 35.55 32.08 35.55 32.12 35.55 32.15 35.55 32.19 35.55 32.23 35.55 32.26 35.54 32.3 35.54 32.34 35.54 32.37 35.54 32.41 35.54 32.44 35.54 32.48 35.53 32.52 35.53 32.55 35.53 32.59 35.53 32.62 35.53 32.66 35.52 32.69 35.52 32.73 35.52 32.76 35.52 32.8 35.51 32.83 35.51 32.87 35.51 32.9 35.5 32.94 35.5 32.97 35.49 33 35.49 33.03 35.48 33.07 35.48 33.1 35.48 33.13 35.47 33.17 35.46 33.2 35.46 33.23 35.45 33.26 35.45 33.29 35.44 33.32 35.44 33.35 35.43 33.38 35.42 33.42 35.42 33.44 35.41 33.47 35.4 33.5 35.4 33.53 35.39 33.56 35.38 33.59 35.37 33.62 35.37 33.64 35.36 33.67 35.35 33.7 35.34 33.72 35.33 33.75 35.33 33.77 35.32 33.8 35.31 33.82 35.3 33.85 35.29 33.87 35.28 33.89 35.27 33.91 35.26 33.94 35.26 33.96 35.24 33.98 35.24 34 35.23 34.02 35.22 34.04 35.21 34.06 35.2 34.08 35.19 34.1 35.17 34.12 35.17 34.13 35.16 34.15 35.14 34.17 35.13 34.19 35.12 34.2 35.11 34.22 35.1 34.23 35.09 34.25 35.08 34.26 35.07 34.27 35.06 34.29 35.05 34.3 35.03 34.31 35.01 34.33 34.99 34.35 34.97 34.36 34.95 34.38 34.93 34.39 34.91 34.41 34.9 34.42 34.88 34.43 34.86 34.45 34.84 34.46 34.82 34.47 34.8 34.48 34.78 34.49 34.76 34.5 34.74 34.51 34.73 34.52 34.71 34.53 34.69 34.54 34.67 34.55 34.65 34.56 34.63 34.57 34.61 34.58 34.59 34.58 34.57 34.59 34.55 34.6 34.53 34.6 34.51 34.61 34.49 34.61 34.47 34.62 34.45 34.62 34.43 34.62 34.41 34.63 34.4 34.63 34.37 34.63 34.35 34.63 34.34 34.64 34.32 34.64 34.3 34.64 28.58 34.81 28.58 34.8 28.57 35.57 28.58 35.58 26.05 35.65 26.06 34.88 25.93 34.89 22.8 34.99"/>
    <polyline class="cls-1" points="25.51 64.67 25.52 64.68 25.54 64.69 25.55 64.69 25.56 64.69 25.57 64.7 25.57 64.7 25.58 64.71 25.59 64.71 25.59 64.71 25.59 64.72 25.6 64.72 25.6 64.73 25.6 64.73 25.6 64.74 25.6 64.74 25.59 64.75 25.59 64.75 25.59 64.75 25.58 64.76 25.57 64.76 25.57 64.77 25.56 64.77 25.55 64.78 25.54 64.78 25.53 64.78 25.51 64.79 25.5 64.79 25.49 64.79 25.47 64.8 25.45 64.8 25.44 64.81 25.42 64.81 25.4 64.81 25.38 64.82 25.36 64.82 25.34 64.82 25.32 64.83 25.29 64.83 25.27 64.83 25.24 64.84 25.22 64.84 25.19 64.84 25.16 64.84 25.14 64.85 25.11 64.85 25.08 64.85 25.05 64.86 25.02 64.86 24.98 64.86 24.95 64.86 24.92 64.86 24.89 64.87 24.85 64.87 24.82 64.87 24.79 64.87 24.75 64.88 24.71 64.88 24.68 64.88 24.64 64.88 24.61 64.88 24.57 64.88 24.53 64.88 24.49 64.88 24.46 64.88 24.42 64.88 24.38 64.88 24.34 64.88 24.3 64.89 24.26 64.89 24.22 64.89 24.18 64.89 24.14 64.89 24.11 64.88 24.07 64.88 24.03 64.88 23.99 64.88 23.95 64.88 23.91 64.88 23.87 64.88 23.83 64.88 23.8 64.88 23.76 64.88 23.72 64.88 23.68 64.88 23.64 64.87 23.61 64.87 23.57 64.87 23.53 64.87 23.5 64.86 23.46 64.86 23.43 64.86 23.39 64.86 23.36 64.86 23.32 64.85 23.29 64.85 23.26 64.85 23.23 64.84 23.19 64.84 23.16 64.84 23.13 64.84 23.1 64.83 23.07 64.83 23.05 64.83 23.02 64.82 22.99 64.82 22.97 64.82 22.94 64.81 22.92 64.81 22.89 64.81 22.87 64.8 22.85 64.8 22.83 64.79 22.81 64.79 22.79 64.79 22.77 64.78 22.75 64.78 22.74 64.77 22.72 64.77 22.71 64.77 22.69 64.76 22.68 64.76 22.67 64.75 22.66 64.75 22.65 64.74 22.64 64.74 22.63 64.73 22.63 64.73 22.62 64.73 22.61 64.72 22.61 64.72 22.61 64.71 22.61 64.71 22.61 64.7 22.61 64.7 22.61 64.7 22.61 64.69 22.61 64.69 22.62 64.68 22.62 64.68 22.63 64.67 22.64 64.67 22.65 64.67 22.66 64.66 22.67 64.66 22.68 64.65 22.69 64.65 22.7 64.64 22.72 64.64 22.73 64.64 22.75 64.64 22.77 64.63 22.79 64.63 22.8 64.62 22.82 64.62 22.84 64.62 22.86 64.61"/>
    <polyline class="cls-1" points="25.35 64.64 25.36 64.64 25.38 64.64 25.4 64.65 25.41 64.65 25.43 64.66 25.45 64.66 25.47 64.66 25.48 64.67 25.5 64.67 25.51 64.67"/>
    <polyline class="cls-1" points="25.35 64.73 25.35 64.73 25.35 64.74 25.34 64.74 25.34 64.74 25.34 64.75 25.33 64.75 25.33 64.75 25.32 64.76 25.32 64.76 25.31 64.77 25.3 64.77 25.29 64.77 25.28 64.78 25.27 64.78 25.26 64.78 25.24 64.79 25.23 64.79 25.22 64.79 25.2 64.8 25.18 64.8 25.17 64.8 25.15 64.8 25.13 64.81 25.11 64.81 25.09 64.81 25.07 64.81 25.05 64.82 25.03 64.82 25.01 64.82 24.99 64.83 24.96 64.83 24.94 64.83 24.91 64.83 24.89 64.83 24.86 64.84 24.84 64.84 24.81 64.84 24.78 64.84 24.76 64.84 24.73 64.84 24.7 64.84 24.67 64.85 24.64 64.85 24.61 64.85 24.58 64.85 24.55 64.85 24.52 64.85 24.49 64.85 24.46 64.85 24.43 64.86 24.4 64.86 24.36 64.86 24.33 64.86 24.3 64.86 24.27 64.86 24.24 64.86 24.2 64.86 24.17 64.86 24.14 64.86 24.11 64.86 24.07 64.86 24.04 64.86 24.01 64.86 23.98 64.86 23.94 64.85 23.91 64.85 23.88 64.85 23.85 64.85 23.81 64.85 23.78 64.85 23.75 64.85 23.72 64.85 23.69 64.84 23.66 64.84 23.63 64.84 23.6 64.84 23.57 64.84 23.54 64.84 23.51 64.83 23.48 64.83 23.45 64.83 23.43 64.83 23.4 64.83 23.37 64.82 23.35 64.82 23.32 64.82 23.3 64.82 23.27 64.81 23.25 64.81 23.22 64.81 23.2 64.81 23.18 64.8 23.16 64.8 23.14 64.8 23.11 64.79 23.1 64.79 23.08 64.79 23.06 64.78 23.04 64.78 23.02 64.78 23.01 64.77 22.99 64.77 22.98 64.77 22.96 64.76 22.95 64.76 22.94 64.76 22.93 64.75 22.92 64.75 22.91 64.75 22.9 64.74 22.89 64.74 22.88 64.74 22.88 64.73 22.87 64.73 22.87 64.72 22.86 64.72 22.86 64.72 22.86 64.71 22.86 64.71 22.86 64.71 22.86 63.7"/>
    <polyline class="cls-1" points="27.29 71.79 27.27 71.79 27.24 71.8 27.2 71.81 27.15 71.82 27.11 71.83 27.06 71.84 27.01 71.84 26.96 71.85 26.91 71.86 26.85 71.87 26.79 71.88 26.73 71.88 26.67 71.89 26.61 71.9 26.55 71.91 26.48 71.91 26.41 71.92 26.34 71.92 26.27 71.93 26.2 71.94 26.13 71.94 26.05 71.94 25.97 71.95 25.89 71.95 25.81 71.96 25.73 71.97 25.65 71.97 25.57 71.97 25.48 71.98 25.4 71.98 25.31 71.98 25.23 71.98 25.14 71.99 25.05 71.99 24.96 71.99 24.87 71.99 24.78 72 24.69 72 24.6 72 24.51 72 24.42 72 24.32 72 24.23 72 24.14 72 24.05 72 23.95 72 23.86 72 23.77 71.99 23.68 71.99 23.58 71.99 23.49 71.99 23.4 71.98 23.31 71.98 23.22 71.98 23.13 71.97 23.04 71.97 22.95 71.97 22.86 71.96 22.78 71.96 22.69 71.95 22.6 71.95 22.52 71.94 22.44 71.94 22.36 71.93 22.27 71.93 22.19 71.92 22.11 71.92 22.04 71.91 21.96 71.9 21.89 71.89 21.82 71.89 21.74 71.88 21.67 71.87 21.61 71.87 21.54 71.86 21.47 71.85 21.41 71.84 21.35 71.83 21.29 71.83 21.23 71.82 21.18 71.81 21.12 71.8 21.07 71.79 21.02 71.78 20.97 71.77 20.93 71.76 20.89 71.75 20.84 71.74 20.8 71.73 20.77 71.72 20.73 71.71 20.7 71.7 20.67 71.69 20.64 71.68 20.62 71.67 20.59 71.66 20.57 71.65 20.56 71.64 20.54 71.63 20.53 71.62 20.52 71.61 20.51 71.6 20.5 71.59 20.5 71.58 20.5 71.57 20.5 71.56 20.5 71.56 20.5 71.5 20.52 71.41 20.53 71.32 20.55 71.22 20.56 71.13 20.58 71.04 20.59 70.95 20.61 70.86 20.62 70.76 20.64 70.67 20.66 70.58 20.67 70.49 20.69 70.4 20.71 70.31 20.73 70.21 20.75 70.12 20.77 70.03 20.79 69.94 20.81 69.85 20.83 69.76 20.85 69.67 20.87 69.57 20.89 69.48 20.91 69.39 20.93 69.3 20.96 69.21 20.98 69.12 21 69.03 21.03 68.94 21.05 68.85 21.07 68.76 21.1 68.67 21.13 68.58 21.15 68.49 21.18 68.4 21.2 68.31 21.23 68.22 21.26 68.13 21.28 68.04 21.31 67.95 21.34 67.86 21.37 67.78 21.4 67.69 21.43 67.6 21.45 67.51 21.48 67.42 21.52 67.33 21.54 67.24 21.57 67.16 21.61 67.07 21.64 66.98 21.67 66.89 21.7 66.81 21.74 66.72 21.77 66.63 21.8 66.54 21.84 66.46 21.87 66.37 21.9 66.28 21.94 66.2 21.97 66.11 22.01 66.02 22.05 65.94 22.08 65.85 22.12 65.77 22.16 65.68 22.19 65.59 22.23 65.51 22.27 65.42 22.3 65.34 22.34 65.25 22.38 65.17 22.42 65.08 22.46 65 22.5 64.92 22.54 64.83 22.58 64.75 22.61 64.7"/>
    <polyline class="cls-1" points="22.86 64.61 22.84 64.62 22.82 64.62 22.8 64.62 22.79 64.63 22.77 64.63 22.75 64.64 22.73 64.64 22.72 64.64 22.7 64.64 22.69 64.65 22.68 64.65 22.67 64.66 22.66 64.66 22.65 64.67 22.64 64.67 22.63 64.67 22.62 64.68 22.62 64.68 22.61 64.69 22.61 64.69 22.61 64.7 22.61 64.7 22.61 64.7 22.61 64.71 22.61 64.71 22.61 64.72 22.61 64.72 22.62 64.73 22.63 64.73 22.63 64.73 22.64 64.74 22.65 64.74 22.66 64.75 22.67 64.75 22.68 64.76 22.69 64.76 22.71 64.76 22.72 64.77 22.74 64.77 22.75 64.78 22.77 64.78 22.79 64.79 22.81 64.79 22.83 64.79 22.85 64.8 22.87 64.8 22.89 64.81 22.92 64.81 22.94 64.81 22.97 64.82 22.99 64.82 23.02 64.82 23.05 64.83 23.07 64.83 23.1 64.83 23.13 64.84 23.16 64.84 23.19 64.84 23.23 64.84 23.26 64.85 23.29 64.85 23.32 64.85 23.36 64.86 23.39 64.86 23.43 64.86 23.46 64.86 23.5 64.86 23.53 64.87 23.57 64.87 23.61 64.87 23.64 64.87 23.68 64.88 23.72 64.88 23.76 64.88 23.8 64.88 23.83 64.88 23.87 64.88 23.91 64.88 23.95 64.88 23.99 64.88 24.03 64.88 24.07 64.88 24.11 64.88 24.15 64.89 24.18 64.89 24.22 64.89 24.26 64.89 24.3 64.89 24.34 64.88 24.38 64.88 24.42 64.88 24.45 64.88 24.49 64.88 24.53 64.88 24.57 64.88 24.61 64.88 24.64 64.88 24.68 64.88 24.71 64.88 24.75 64.88 24.79 64.87 24.82 64.87 24.85 64.87 24.89 64.87 24.92 64.86 24.95 64.86 24.98 64.86 25.02 64.86 25.05 64.86 25.08 64.85 25.11 64.85 25.14 64.85 25.16 64.84 25.19 64.84 25.22 64.84 25.24 64.84 25.27 64.83 25.29 64.83 25.32 64.83 25.34 64.82 25.36 64.82 25.38 64.82 25.4 64.81 25.42 64.81 25.44 64.81 25.45 64.8 25.47 64.8 25.49 64.79 25.5 64.79 25.52 64.79 25.53 64.78 25.54 64.78 25.55 64.78 25.56 64.77 25.57 64.77 25.57 64.76 25.58 64.76 25.59 64.75 25.59 64.75 25.59 64.75 25.6 64.74 25.6 64.74 25.6 64.73 25.6 64.73 25.6 64.72 25.59 64.72 25.59 64.71 25.59 64.71 25.58 64.71 25.57 64.7 25.57 64.7 25.56 64.69 25.55 64.69 25.54 64.69 25.52 64.68 25.51 64.67 25.5 64.67 25.48 64.67 25.47 64.66 25.45 64.66 25.43 64.66 25.41 64.65 25.4 64.65 25.38 64.64 25.36 64.64 25.35 64.64"/>
    <line class="cls-1" x1="17.81" y1="52.8" x2="18" y2="32.72"/>
    <polyline class="cls-1" points="15.79 33.25 15.6 52.09 17.81 52.8 17.81 52.8 20.68 52.46 20.88 32.24"/>
    <polyline class="cls-1" points="31.81 64.75 31.8 66.8 31.8 66.81 31.8 66.81 31.8 66.81 31.8 66.82 31.79 66.82 31.79 66.82 31.78 66.83 31.78 66.83 31.77 66.83 31.76 66.84 31.75 66.84 31.74 66.84 31.73 66.85 31.72 66.85 31.71 66.86 31.7 66.86 31.68 66.86 31.67 66.86 31.65 66.87 31.64 66.87 31.62 66.87 31.6 66.88 31.59 66.88 31.57 66.88 31.55 66.88 31.53 66.89 31.51 66.89 31.48 66.89 31.46 66.89 31.44 66.9 31.42 66.9 31.39 66.9 31.37 66.91 31.34 66.91 31.32 66.91 31.29 66.91 31.27 66.91 31.24 66.91 31.21 66.92 31.18 66.92 31.15 66.92 31.13 66.92 31.1 66.92 31.07 66.92 31.04 66.92 31 66.92 30.98 66.93 30.94 66.93 30.91 66.93 30.88 66.93 30.85 66.93 30.82 66.93 30.79 66.93 30.75 66.93 30.72 66.93 30.69 66.93 30.66 66.93 30.62 66.93 30.59 66.93 30.56 66.93 30.53 66.93 30.49 66.93 30.46 66.93 30.43 66.93 30.4 66.93 30.36 66.93 30.33 66.92 30.3 66.92 30.27 66.92 30.24 66.92 30.2 66.92 30.17 66.92 30.14 66.92 30.11 66.92 30.08 66.91 30.05 66.91 30.02 66.91 29.99 66.91 29.96 66.91 29.93 66.91 29.91 66.9 29.88 66.9 29.85 66.9 29.82 66.9 29.8 66.89 29.77 66.89 29.75 66.89 29.72 66.89 29.7 66.88 29.68 66.88 29.65 66.88 29.63 66.88 29.61 66.87 29.59 66.87 29.57 66.87 29.55 66.86 29.53 66.86 29.51 66.86 29.49 66.86 29.48 66.85 29.46 66.85 29.45 66.84 29.43 66.84 29.42 66.84 29.41 66.83 29.39 66.83 29.38 66.83 29.37 66.82 29.36 66.82 29.35 66.82 29.34 66.81 29.34 66.81 29.33 66.81 29.32 66.8 29.32 66.8 29.32 66.79 29.31 66.79 29.31 66.79 29.31 66.78 29.31 66.78 29.32 64.84"/>
    <polyline class="cls-1" points="31.81 66.2 32.05 66.81 32.09 66.89 32.13 66.97 32.17 67.06 32.21 67.14 32.25 67.23 32.28 67.31 32.32 67.4 32.36 67.48 32.39 67.57 32.43 67.66 32.47 67.74 32.5 67.83 32.54 67.92 32.57 68 32.6 68.09 32.64 68.17 32.67 68.26 32.71 68.35 32.74 68.44 32.77 68.52 32.8 68.61 32.84 68.7 32.87 68.79 32.9 68.88 32.93 68.96 32.96 69.05 32.99 69.14 33.02 69.23 33.05 69.32 33.08 69.41 33.11 69.49 33.13 69.58 33.16 69.67 33.19 69.76 33.22 69.85 33.24 69.94 33.27 70.03 33.3 70.12 33.32 70.21 33.35 70.3 33.37 70.39 33.4 70.48 33.42 70.57 33.45 70.66 33.47 70.75 33.49 70.84 33.52 70.93 33.54 71.02 33.56 71.11 33.58 71.2 33.6 71.29 33.62 71.38 33.64 71.48 33.66 71.57 33.69 71.66 33.7 71.75 33.72 71.84 33.74 71.93 33.76 72.03 33.78 72.12 33.8 72.21 33.81 72.3 33.83 72.39 33.85 72.48 33.86 72.58 33.88 72.67 33.9 72.76 33.91 72.85 33.92 72.94 33.94 73.04 33.95 73.13 33.97 73.22 33.98 73.31 33.99 73.41 34 73.5 34.02 73.59 34.03 73.69 34.03 73.7 34.03 73.71 34.03 73.72 34.03 73.73 34.02 73.74 34.01 73.75 34 73.76 33.99 73.77 33.97 73.78 33.95 73.79 33.94 73.8 33.91 73.81 33.89 73.82 33.86 73.83 33.83 73.84 33.8 73.85 33.77 73.86 33.73 73.86 33.69 73.88 33.65 73.88 33.61 73.89 33.56 73.9 33.51 73.91 33.46 73.92 33.41 73.92 33.36 73.93 33.3 73.94 33.25 73.95 33.19 73.96 33.13 73.96 33.06 73.97 33 73.98 32.93 73.98 32.87 73.99 32.8 74 32.73 74 32.65 74.01 32.58 74.01 32.5 74.02 32.43 74.02 32.35 74.03 32.27 74.03 32.19 74.04 32.1 74.04 32.02 74.05 31.94 74.05 31.85 74.05 31.77 74.06 31.68 74.06 31.59 74.06 31.5 74.06 31.41 74.06 31.33 74.07 31.23 74.07 31.14 74.07 31.05 74.07 30.96 74.07 30.87 74.07 30.78 74.07 30.68 74.07 30.59 74.07 30.5 74.07 30.41 74.07 30.31 74.07 30.22 74.07 30.13 74.06 30.04 74.06 29.95 74.06 29.85 74.06 29.76 74.06 29.67 74.05 29.58 74.05 29.49 74.04 29.4 74.04 29.32 74.04 29.23 74.03 29.14 74.03 29.06 74.02 28.97 74.02 28.89 74.01 28.81 74.01 28.73 74 28.65 73.99 28.57 73.99 28.49 73.98 28.42 73.97 28.34 73.97 28.27 73.96 28.2 73.95 28.13 73.95 28.06 73.94 27.99 73.93 27.93 73.92 27.86 73.91 27.8 73.91 27.74 73.9 27.68 73.89 27.63 73.88 27.58 73.87 27.52 73.86 27.48 73.85 27.43 73.84 27.38 73.83 27.34 73.83 27.3 73.82 27.26 73.81 27.22 73.8 27.19 73.79 27.16 73.78 27.12 73.77 27.1 73.75 27.07 73.75 27.05 73.74 27.03 73.73 27.01 73.72 26.99 73.7 26.98 73.69 26.97 73.68 26.96 73.67 26.95 73.66 26.95 73.65 26.95 73.64 26.95 73.64 26.95 73.64 26.96 73.57 26.97 73.48 26.98 73.39 27 73.3 27.02 73.2 27.03 73.11 27.05 73.02 27.06 72.93 27.08 72.84 27.09 72.75 27.11 72.65 27.13 72.56 27.15 72.47 27.16 72.38 27.18 72.29 27.2 72.19 27.22 72.1 27.24 72.01 27.26 71.92 27.28 71.83 27.3 71.74 27.32 71.65 27.34 71.56 27.37 71.47 27.39 71.38 27.41 71.28 27.43 71.19 27.46 71.1 27.48 71.01 27.5 70.92 27.53 70.83 27.55 70.74 27.58 70.65 27.6 70.56 27.63 70.47 27.66 70.38 27.68 70.29 27.71 70.2 27.74 70.11 27.76 70.03 27.79 69.94 27.82 69.85 27.85 69.76 27.88 69.67 27.91 69.58 27.94 69.49 27.97 69.4 28 69.32 28.03 69.23 28.06 69.14 28.09 69.05 28.12 68.96 28.16 68.88 28.19 68.79 28.22 68.7 28.25 68.61 28.29 68.53 28.32 68.44 28.36 68.36 28.39 68.27 28.43 68.18 28.46 68.1 28.5 68.01 28.53 67.92 28.57 67.84 28.61 67.75 28.64 67.67 28.68 67.58 28.72 67.5 28.76 67.41 28.8 67.33 28.84 67.24 28.88 67.16 28.91 67.07 28.95 66.99 28.99 66.91 29.04 66.82 29.31 66.26"/>
    <polygon class="cls-1" points="34.24 26.36 51.16 25.79 51.2 25.79 51.23 25.79 51.26 25.79 51.29 25.79 51.33 25.8 51.36 25.8 51.39 25.8 51.42 25.81 51.46 25.81 51.49 25.82 51.52 25.82 51.55 25.83 51.59 25.84 51.62 25.84 51.65 25.85 51.69 25.86 51.72 25.87 51.75 25.88 51.78 25.89 51.81 25.91 51.85 25.92 51.88 25.93 51.91 25.95 51.94 25.96 51.97 25.98 52 25.99 52.03 26.01 52.06 26.03 52.09 26.04 52.12 26.06 52.14 26.08 52.17 26.1 52.2 26.12 52.22 26.14 52.25 26.16 52.27 26.18 52.3 26.2 52.32 26.22 52.35 26.24 52.37 26.26 52.39 26.29 52.41 26.31 52.44 26.33 52.46 26.36 52.48 26.38 52.5 26.41 52.51 26.43 52.53 26.45 52.55 26.48 52.56 26.5 52.58 26.53 52.59 26.55 52.61 26.58 52.62 26.61 52.63 26.63 52.65 26.66 52.66 26.68 52.67 26.71 52.68 26.74 52.68 26.77 52.69 26.79 52.7 26.82 52.7 26.84 52.71 26.87 52.71 26.9 52.72 26.92 52.72 26.95 52.72 26.98 52.72 27 52.72 27.03 52.72 27.05 52.72 27.08 52.71 27.1 52.71 27.13 52.7 27.15 52.7 27.18 52.69 27.2 52.69 27.23 52.68 27.25 52.67 27.27 52.66 27.3 52.65 27.32 52.64 27.34 52.63 27.37 52.61 27.39 52.6 27.41 52.59 27.43 52.57 27.45 52.55 27.47 52.54 27.49 52.52 27.51 52.5 27.53 52.48 27.55 52.47 27.56 52.44 27.58 52.42 27.6 52.4 27.61 52.38 27.63 52.36 27.64 52.33 27.66 52.31 27.67 52.28 27.68 52.26 27.7 52.23 27.71 52.21 27.72 52.18 27.73 52.15 27.74 52.13 27.75 52.1 27.76 52.07 27.77 52.04 27.78 52.01 27.78 51.98 27.79 51.95 27.79 51.92 27.8 51.89 27.8 51.86 27.81 51.83 27.81 51.79 27.81 51.76 27.81 50.69 27.84 50.61 27.82 34.87 28.3 34.24 26.36"/>
    <line class="cls-1" x1="50.74" y1="31.44" x2="35.54" y2="31.9"/>
    <polyline class="cls-1" points="21.95 22.89 21 22.99 21.04 23.07 21.08 23.15 21.12 23.22 21.16 23.3 21.2 23.38 21.24 23.46 21.28 23.54 21.32 23.62 21.35 23.7 21.39 23.78 21.43 23.86 21.47 23.94 21.51 24.02 21.55 24.1 21.58 24.18 21.62 24.27 21.66 24.35 21.7 24.43 21.73 24.52 21.77 24.6 21.81 24.68 21.85 24.77 21.89 24.85 21.92 24.93 21.96 25.02 22 25.11 22.03 25.19 22.07 25.28 22.11 25.36 22.14 25.45 22.18 25.54 22.22 25.63 22.25 25.71 22.29 25.8 22.33 25.89 22.36 25.98 22.4 26.07 22.44 26.16 22.47 26.25 22.51 26.34 22.54 26.43 22.58 26.52 22.62 26.61 22.62 26.61 22.64 26.67 22.66 26.72 22.68 26.78 22.71 26.84 22.73 26.9 22.75 26.95 22.77 27.01 22.79 27.07 22.81 27.13 22.84 27.19 22.86 27.25 22.88 27.31 22.9 27.37 22.92 27.43 22.94 27.49 22.96 27.55 22.98 27.61 23 27.68 23.02 27.74 23.05 27.8 23.07 27.86 23.09 27.93 23.11 27.99 23.13 28.05 23.15 28.11 23.17 28.18 23.19 28.24 23.21 28.31 23.23 28.37 23.25 28.44 23.27 28.5 23.29 28.57 23.3 28.63 23.32 28.7 23.34 28.77 23.36 28.83 23.38 28.9 23.4 28.97 23.42 29.04 23.44 29.1 23.46 29.17 23.47 29.24 23.49 29.31 23.51 29.38 23.53 29.45 23.55 29.52 23.56 29.59 23.58 29.65 23.6 29.72 23.62 29.79 23.63 29.86 23.65 29.93 23.67 30.01 23.68 30.08 23.7 30.15 23.72 30.22 23.73 30.29 23.75 30.36 23.77 30.43 23.78 30.51 23.8 30.58 23.82 30.65 23.83 30.73 23.85 30.8 23.86 30.87 23.88 30.95 23.89 31.02 23.9 31.05 23.91 31.09 23.92 31.12 23.92 31.15 23.93 31.18 23.93 31.21 23.94 31.25 23.95 31.28 23.95 31.32 23.96 31.35 23.97 31.38 23.97 31.42 23.98 31.45 23.98 31.49 23.99 31.52 23.99 31.56 24 31.59 24 31.63 24 31.66 24.01 31.7 24.01 31.73 24.02 31.77 24.02 31.8 24.02 31.84 24.03 31.88 24.03 31.91 24.03 31.95 24.04 31.99 24.04 32.02 24.04 32.06 24.04 32.09 24.04 32.13 24.05 32.17 24.05 32.21 24.05 32.24 24.05 32.28 24.05 32.32 24.05 32.35 24.05 32.39 24.05 32.43 24.05 32.46 24.05 32.5 24.05 32.54 24.05 32.57 24.05 32.61 24.05 32.65 24.05 32.68 24.05 32.72 24.05 32.76 24.05 32.79 24.05 32.83 24.04 32.86 24.04 32.9 24.04 32.94 24.04 32.97 24.04 33.01 24.03 33.04 24.03 33.08 24.03 33.11 24.02 33.15 24.02 33.18 24.02 33.22 24.01 33.25 24.01 33.28 24 33.32 24 33.35 24 33.38 23.99 33.42 23.99 33.45 23.98 33.48 23.98 33.51 23.97 33.55 23.97 33.58 23.96 33.61 23.95 33.64 23.95 33.67 23.94 33.7 23.94 33.73 23.93 33.76 23.92 33.79 23.92 33.82 23.91 33.85 23.9 33.88 23.89 33.91 23.89 33.94 23.88 33.96 23.87 33.99 23.87 34.02 23.86 34.04 23.85 34.07 23.84 34.09 23.83 34.12 23.82 34.14 23.82 34.17 23.81 34.19 23.8 34.22 23.79 34.24 23.78 34.26 23.77 34.28 23.76 34.31 23.75 34.33 23.74 34.35 23.73 34.37 23.72 34.39 23.71 34.41 23.7 34.43 23.69 34.45 23.68 34.47 23.67 34.48 23.66 34.5 23.65 34.52 23.64 34.53 23.63 34.55 23.62 34.56 23.61 34.58 23.6 34.59 23.59 34.61 23.58 34.62 23.57 34.63 23.55 34.65 23.54 34.66 23.52 34.68 23.5 34.69 23.48 34.71 23.46 34.72 23.44 34.74 23.42 34.75 23.4 34.77 23.39 34.78 23.37 34.79 23.35 34.8 23.33 34.82 23.31 34.83 23.29 34.84 23.27 34.85 23.25 34.86 23.23 34.87 23.21 34.88 23.2 34.89 23.18 34.9 23.16 34.91 23.14 34.92 23.12 34.92 23.1 34.93 23.08 34.94 23.06 34.94 23.04 34.95 23.02 34.95 23 34.96 22.98 34.96 22.96 34.97 22.94 34.97 22.92 34.98 22.9 34.98 22.88 34.98 22.86 34.98 22.84 34.98 22.82 34.99 22.8 34.99 22.79 34.99 22.77 34.99 22.75 34.99 22.73 34.99 22.71 34.98 22.68 34.98 22.67 34.98 22.65 34.98 22.63 34.98 22.61 34.97 22.59 34.97 22.57 34.96 22.55 34.96 22.53 34.95 22.51 34.95 22.49 34.94 22.47 34.93 22.45 34.93 22.43 34.92 22.41 34.91 22.39 34.91 22.37 34.9 22.35 34.89 22.33 34.88 22.31 34.87 22.29 34.86 22.27 34.85 22.25 34.84 22.23 34.83 22.21 34.81 22.19 34.8 22.17 34.79 22.15 34.77 22.13 34.76 22.11 34.75 22.09 34.73 22.07 34.72 22.06 34.7 22.04 34.69 22.02 34.67 22 34.66 21.98 34.64 21.96 34.62 21.94 34.6 21.92 34.59 21.9 34.57 21.88 34.55 21.86 34.53 21.84 34.51 21.82 34.49 21.8 34.47 21.79 34.45 21.77 34.43 21.75 34.41 21.73 34.38 21.71 34.36 21.69 34.34 21.67 34.32 21.65 34.29 21.64 34.27 21.62 34.25 21.6 34.22 21.58 34.2 21.59 32.21 19.19 32.4 16.05 33.24 15.48 33.26 14.75 33.02 14.81 27.7"/>
    <polyline class="cls-1" points="30.37 21.66 46.98 21.14 50.43 21.04 51.37 21.34 54.19 30.85 54.19 31.34 50.74 31.44 50.16 31.6 50.15 33.33 35.33 33.78"/>
    <polyline class="cls-1" points="15.92 22.25 19.64 22.14 19.64 22.15 21.95 22.89 22.15 1.9 23.95 2.48 23.98 2.49 24.01 2.5 24.05 2.51 24.08 2.52 24.12 2.53 24.17 2.54 24.21 2.55 24.26 2.56 24.3 2.56 24.36 2.57 24.41 2.58 24.46 2.59 24.52 2.6 24.57 2.61 24.63 2.61 24.7 2.62 24.76 2.63 24.82 2.64 24.89 2.65 24.96 2.65 25.03 2.66 25.1 2.67 25.17 2.67 25.24 2.68 25.32 2.69 25.39 2.69 25.47 2.7 25.55 2.7 25.63 2.71 25.71 2.71 25.79 2.72 25.87 2.72 25.96 2.73 26.04 2.73 26.13 2.74 26.21 2.74 26.3 2.74 26.39 2.75 26.47 2.75 26.56 2.75 26.65 2.75 26.74 2.76 26.83 2.76 26.92 2.76 27.01 2.76 27.1 2.76 27.19 2.76 27.28 2.77 27.37 2.77 27.46 2.77 27.55 2.77 27.64 2.77 27.72 2.76 27.81 2.76 27.9 2.76 27.99 2.76 28.07 2.76 28.16 2.76 28.25 2.76 28.33 2.75 28.42 2.75 28.5 2.75 28.58 2.75 28.66 2.74 28.74 2.74 28.82 2.73 28.9 2.73 28.98 2.73 29.05 2.72 29.13 2.72 29.2 2.71 29.27 2.71 29.35 2.7 29.41 2.69 29.48 2.69 29.55 2.68 29.61 2.67 29.68 2.67 29.73 2.66 29.8 2.65 29.85 2.65 29.91 2.64 29.96 2.63 30.01 2.63 30.06 2.62 30.11 2.61 30.16 2.6 30.2 2.59 30.24 2.58 30.28 2.58 30.32 2.57 30.35 2.56 30.39 2.55 30.42 2.54 30.45 2.53 30.47 2.52 30.5 2.51 30.52 2.5 30.54 2.49 30.55 2.48 30.57 2.47 30.58 2.46 30.59 2.45 30.6 2.44 30.61 2.43 30.61 2.42 30.61 2.42 30.61 2.4 30.61 2.39 30.6 2.38 30.59 2.37 30.58 2.36 30.57 2.35 30.55 2.34 30.53 2.33 30.51 2.32 30.49 2.31 30.47 2.3 30.44 2.29 30.41 2.29 30.41 2.28 28.61 1.71 22.15 1.9"/>
    <line class="cls-1" x1="26.46" y1="64.85" x2="26.55" y2="55.76"/>
    <polyline class="cls-1" points="13.27 51.49 26.55 55.76 49.45 55.06 50.63 55.03"/>
    <polygon class="cls-1" points="20.69 51.27 36.16 50.8 37.34 50.76 20.69 51.27"/>
    <polyline class="cls-1" points="15.61 51.42 13.27 51.49 13.18 60.59 26.46 64.85 57.17 63.92 57.17 63.92 57.19 61.48"/>
    <path class="cls-1" d="M60.83,55.07h-.06L50,55.39h0l0,0,0,0,0,0,0,0,0,0,0,0,0,0,0,0,0,0,0,0,0,0,0,0,0,0,0,0,0,0,0,0,0,0,0,0,0,0,0,0,0,0,0,0,0,0,0,0,0,0,0,0,0,0,0,0,0,0,0,0,0,0,0,0v0l0,0,0,0v0l0,0v.07l0,0V58l0,0v0l0,0v0l0,0,0,0v0l0,0,0,0,0,0,0,0,0,0,0,0,0,0,0,0,0,0,0,0,0,0,0,0,0,0,0,0,0,0,0,0,0,0,0,0,0,0,0,0,0,0,0,0,0,0,0,0,0,0,0,0,0,0,0,0h0l0,0,0,0h0l.07,0,.08,0,.08,0,.08,0,.08,0,.08,0,.09,0,.08,0,.08,0,.08,0,.08,0,.08.05.08,0,.09,0,.08,0,.08,0,.08,0,.09,0,.08,0,.08,0,.09,0,.08,0,.08,0,.09,0L52,60l.09,0,.08,0,.08,0,.09,0,.08,0,.09,0,.09,0,.08,0,.08,0,.09,0,.09,0,.08,0,.09,0,.09,0,.08,0,.09,0,.08,0,.09,0,.09,0,.08,0,.09,0,.09,0,.09,0,.08,0,.09,0,.09,0,.09,0,.09,0,.08,0,.09,0,.09,0,.09,0,.09,0,.09,0,.09,0,.08,0,.09,0,.09,0,.09,0,.09,0,.09,0,.09,0,.09,0h.09l.09,0,.09,0,.09,0,.09,0h.09l.09,0h.09l.09,0,.09,0h.09l.09,0H57l.09,0h.36l.09,0h3.3v0h0v0l0-.06,0-.07v-.06l0-.07v-.13l0-.07v-.13l0-.07v-.13l0-.07v-4.6l0-.07v-.27l0-.07v-.14l0-.06v-.14l0-.07h0a.24.24,0,0,0-.15-.16"/>
    <polyline class="cls-1" points="23.95 2.48 23.74 23.47 23.74 23.47 23.72 26.45 23.77 26.58 22.61 26.61"/>
    <path class="cls-1" d="M22,29a3.74,3.74,0,0,1-.45,1.12l-2.89.09v0l-.57,0-.6-2L18,27h.57l2.91-.09A5.24,5.24,0,0,1,22,29l-2.91.09"/>
  </g>
</svg>