<?xml version="1.0" encoding="utf-8"?>
<svg viewBox="13.547 0 46.552 75" xmlns="http://www.w3.org/2000/svg">
  <defs>
    <style>.cls-1{fill:none;stroke:#f4f4f4;stroke-linejoin:round;}</style>
  </defs>
  <title>f4_MicroHite</title>
  <g id="Linework">
    <line class="cls-1" x1="30.86" y1="21.3" x2="32.51" y2="21.28"/>
    <line class="cls-1" x1="32.62" y1="19.58" x2="30.98" y2="19.35"/>
    <polyline class="cls-1" points="21.73 2.41 20.74 30.26 22.44 31.04 25.24 31.49"/>
    <line class="cls-1" x1="58.73" y1="33.21" x2="58.7" y2="33.21"/>
    <line class="cls-1" x1="58.63" y1="34.38" x2="58.65" y2="34.38"/>
    <line class="cls-1" x1="58.44" y1="33.6" x2="58.39" y2="33.6"/>
    <line class="cls-1" x1="58.4" y1="33.95" x2="58.42" y2="33.95"/>
    <line class="cls-1" x1="57.04" y1="36.19" x2="58.17" y2="36.26"/>
    <polyline class="cls-1" points="18.58 69.9 18.59 69.89 18.62 69.89 18.64 69.88 18.66 69.87 18.68 69.86 18.7 69.85 18.73 69.84 18.75 69.83 18.77 69.82 18.79 69.81 18.81 69.8 18.83 69.78 18.85 69.77 18.87 69.75 18.89 69.74 18.91 69.73 18.93 69.71 18.94 69.7 18.96 69.68 18.98 69.66 19 69.65 19.01 69.63 19.03 69.61 19.05 69.59 19.06 69.58 19.08 69.56 19.09 69.54 19.11 69.52 19.12 69.5 19.14 69.48 19.15 69.45 19.16 69.43 19.18 69.41 19.19 69.39 19.2 69.37 19.21 69.34 19.22 69.32 19.23 69.3 19.24 69.28 19.25 69.25 19.26 69.23 19.27 69.2 19.28 69.18 19.29 69.15 19.29 69.13 19.3 69.1 19.31 69.08 19.31 69.05 19.32 69.03 19.32 69 19.32 68.97 19.33 68.95 19.33 68.92 19.34 68.89 19.34 68.87 19.34 68.84 19.34 68.82 19.34 68.8 19.34 68.77 19.34 68.75 19.34 68.72 19.34 68.7 19.33 68.67 19.33 68.65 19.33 68.63 19.32 68.6 19.32 68.58 19.32 68.55 19.31 68.53 19.31 68.51 19.3 68.48 19.3 68.46 19.29 68.44 19.29 68.42 19.28 68.41 19.27 68.39"/>
    <polyline class="cls-1" points="19.27 68.39 19.27 68.36 19.26 68.35 19.26 68.33 19.25 68.32 19.24 68.3 19.23 68.28 19.23 68.26 19.22 68.24 19.21 68.22 19.2 68.19 19.19 68.17 19.18 68.15 19.17 68.13 19.15 68.11 19.14 68.09 19.13 68.07 19.12 68.05 19.1 68.03 19.09 68.01 19.07 67.99 19.06 67.97 19.05 67.95 19.03 67.93 19.02 67.91 19 67.9 18.98 67.88 18.97 67.86 18.95 67.84 18.93 67.83 18.91 67.81 18.89 67.79 18.88 67.78 18.86 67.76 18.84 67.75 18.82 67.73 18.8 67.72 18.78 67.7 18.76 67.69 18.74 67.67 18.72 67.66 18.7 67.65 18.68 67.64 18.66 67.63 18.63 67.61 18.61 67.6 18.59 67.59 18.57 67.58 18.55 67.58 18.52 67.56 18.5 67.56 18.48 67.55 18.46 67.54 18.43 67.53 18.41 67.53 18.39 67.52 18.36 67.52 18.34 67.51 18.32 67.51 18.29 67.51 18.27 67.5 18.25 67.5 18.22 67.5 18.2 67.5 18.18 67.5 18.15 67.5 18.13 67.5 18.11 67.5 18.08 67.5 18.06 67.5 18.04 67.5 18.01 67.5 17.99 67.51 17.97 67.51 17.94 67.52 17.92 67.52 17.9 67.53 17.87 67.53 17.85 67.54 17.84 67.54"/>
    <polyline class="cls-1" points="30.44 19.99 30.44 20 30.43 20.02 30.43 20.05 30.43 20.07 30.42 20.09 30.42 20.12 30.41 20.15 30.41 20.17 30.41 20.2 30.41 20.22 30.41 20.25 30.4 20.27 30.4 20.3 30.4 20.32 30.4 20.35 30.4 20.38 30.4 20.4 30.4 20.43 30.4 20.45 30.4 20.48 30.4 20.5 30.4 20.53 30.4 20.56 30.4 20.57"/>
    <polyline class="cls-1" points="32.19 20.55 32.19 20.52 32.19 20.5 32.19 20.48 32.19 20.45 32.19 20.43 32.19 20.41 32.19 20.39 32.19 20.36 32.19 20.34 32.2 20.32 32.2 20.3 32.2 20.27 32.2 20.25 32.21 20.23 32.21 20.21 32.22 20.18 32.22 20.16 32.22 20.14 32.23 20.12 32.23 20.1 32.24 20.08 32.24 20.06 32.25 20.04 32.25 20.02 32.26 20 32.27 19.98 32.27 19.96 32.28 19.94 32.29 19.92 32.29 19.9 32.3 19.89 32.31 19.87 32.31 19.85 32.32 19.84 32.33 19.82 32.34 19.8 32.34 19.79 32.35 19.77 32.36 19.76 32.37 19.75 32.38 19.73 32.39 19.72 32.4 19.71 32.41 19.69 32.41 19.68 32.42 19.67 32.43 19.66 32.44 19.65 32.45 19.64 32.46 19.64 32.47 19.63 32.48 19.62 32.49 19.61 32.5 19.61 32.51 19.6 32.52 19.6 32.53 19.59 32.54 19.59 32.55 19.58 32.56 19.58 32.57 19.58 32.58 19.58 32.59 19.58 32.6 19.58 32.61 19.58 32.62 19.58 32.63 19.58 32.64 19.58 32.65 19.59 32.66 19.59 32.67 19.59 32.67 19.6 32.68 19.6 32.69 19.61 32.7 19.61 32.71 19.62 32.72 19.63 32.73 19.64 32.74 19.65 32.74 19.66 32.75 19.67 32.76 19.68 32.77 19.69 32.78 19.7 32.78 19.71 32.79 19.72 32.8 19.73 32.81 19.75 32.81 19.76 32.82 19.78 32.83 19.79 32.83 19.81 32.84 19.82 32.85 19.84 32.85 19.86 32.86 19.87 32.86 19.89 32.87 19.91 32.87 19.93 32.88 19.95 32.88 19.96 32.89 19.98 32.89 20 32.89 20.02 32.9 20.04 32.9 20.07 32.9 20.09 32.91 20.11 32.91 20.13 32.91 20.15 32.91 20.17 32.91 20.19 32.92 20.21 32.92 20.24 32.92 20.26 32.92 20.28 32.92 20.3 32.92 20.33 32.92 20.35 32.92 20.37 32.92 20.39 32.92 20.42 32.92 20.44 32.91 20.46 32.91 20.48 32.91 20.51 32.91 20.53 32.91 20.55 32.91 20.58 32.9 20.6 32.9 20.62 32.9 20.64 32.89 20.66 32.89 20.69 32.88 20.71 32.88 20.73 32.87 20.75 32.87 20.77 32.86 20.79 32.86 20.81 32.85 20.83 32.85 20.85 32.84 20.87 32.84 20.89 32.83 20.91 32.82 20.93 32.81 20.95 32.81 20.97 32.8 20.98 32.8 21 32.79 21.02 32.78 21.03 32.77 21.05 32.76 21.07 32.76 21.08 32.75 21.09 32.74 21.11 32.73 21.12 32.72 21.14 32.71 21.15 32.7 21.16 32.7 21.17 32.69 21.18 32.68 21.19 32.67 21.2 32.66 21.21 32.65 21.22 32.64 21.23 32.63 21.24 32.62 21.25 32.61 21.25 32.6 21.26 32.59 21.26 32.58 21.27 32.57 21.27 32.56 21.27 32.55 21.28 32.54 21.28 32.53 21.28 32.52 21.28 32.51 21.28 32.5 21.28 32.49 21.28 32.48 21.28 32.47 21.28 32.46 21.28 32.45 21.27 32.44 21.27 32.44 21.27 32.43 21.26 32.42 21.25 32.41 21.25 32.4 21.24 32.39 21.23 32.38 21.23 32.37 21.22 32.36 21.21 32.35 21.2 32.35 21.19 32.34 21.18 32.33 21.17 32.32 21.16 32.31 21.14 32.31 21.13 32.3 21.12 32.29 21.11 32.29 21.09 32.28 21.07 32.27 21.06 32.27 21.05 32.26 21.03 32.25 21.01 32.25 21 32.24 20.98 32.24 20.96 32.23 20.94 32.23 20.92 32.22 20.91 32.22 20.89 32.22 20.87 32.21 20.85 32.21 20.83 32.2 20.81 32.2 20.79 32.2 20.77 32.2 20.74 32.19 20.72 32.19 20.7 32.19 20.68 32.19 20.66 32.19 20.64 32.19 20.61 32.19 20.59 32.19 20.57 32.19 20.55"/>
    <polyline class="cls-1" points="30.43 2 30.43 1.99 30.43 1.98 30.43 1.96 30.44 1.95 30.44 1.93 30.44 1.91 30.45 1.9 30.45 1.89"/>
    <polyline class="cls-1" points="30.43 2 27.11 2.9 27.07 2.88 27.03 2.85 26.98 2.83 26.94 2.81 26.89 2.79 26.84 2.76 26.79 2.74 26.74 2.72 26.7 2.71 26.65 2.69 26.6 2.67 26.56 2.66 26.51 2.64 26.45 2.63 26.4 2.61 26.34 2.6 26.28 2.58 26.24 2.57 26.19 2.56 26.14 2.56 26.09 2.55 26.04 2.54 25.99 2.54 25.94 2.54 25.89 2.54 25.84 2.54 25.84 2.54 25.83 2.54 25.82 2.54 25.77 2.55 25.72 2.56 25.67 2.57 25.62 2.58 25.57 2.6 25.52 2.61 25.48 2.62 25.43 2.64 25.38 2.65 25.33 2.67 25.27 2.69 25.21 2.71 25.15 2.74 25.09 2.76 25.04 2.78 24.98 2.81 24.93 2.83 24.87 2.86 24.81 2.88 24.75 2.91 24.7 2.94 24.64 2.96 24.58 2.99 24.52 3.02 24.47 3.05 24.41 3.08"/>
    <line class="cls-1" x1="30.43" y1="2" x2="30.44" y2="2.24"/>
    <polyline class="cls-1" points="31.09 21.3 31.07 21.31 31.05 21.31 31.02 21.32 31 21.32 30.98 21.32 30.96 21.32 30.93 21.32 30.91 21.32 30.88 21.31 30.85 21.3 30.82 21.29 30.8 21.28 30.77 21.27 30.75 21.26 30.73 21.24 30.71 21.22 30.69 21.21 30.67 21.19 30.64 21.16 30.62 21.14 30.6 21.11 30.58 21.08 30.56 21.05 30.54 21.02 30.52 20.99 30.51 20.96 30.49 20.92 30.48 20.89 30.46 20.85 30.45 20.82 30.44 20.78 30.43 20.74 30.42 20.71 30.42 20.67 30.41 20.63 30.4 20.6 30.4 20.55 30.39 20.51 30.39 20.47 30.39 20.43 30.39 20.39 30.39 20.35 30.39 20.31 30.39 20.27 30.4 20.24 30.4 20.2 30.41 20.16 30.41 20.12 30.42 20.09 30.43 20.05 30.43 20.01 30.44 19.98 30.45 19.94 30.47 19.91 30.48 19.87 30.49 19.83 30.51 19.8 30.52 19.76 30.54 19.72 30.56 19.69 30.58 19.66 30.6 19.62 30.62 19.59 30.64 19.56 30.67 19.54 30.69 19.51 30.71 19.49 30.74 19.47 30.76 19.45 30.78 19.43 30.8 19.42 30.83 19.4 30.85 19.39 30.88 19.38 30.9 19.37 30.93 19.36 30.95 19.35 30.98 19.35 31 19.34 31.03 19.34 31.05 19.34 31.08 19.34"/>
    <polyline class="cls-1" points="21.97 2.3 21.96 2.3 21.96 2.29"/>
    <polyline class="cls-1" points="21.96 2.29 21.97 2.29 21.98 2.29"/>
    <polyline class="cls-1" points="21.92 2.28 21.9 2.28 21.89 2.28 21.87 2.28 21.86 2.28 21.84 2.28 21.83 2.29 21.82 2.29 21.81 2.29 21.8 2.3 21.78 2.31 21.77 2.32 21.76 2.33 21.75 2.34 21.74 2.35 21.74 2.37 21.73 2.38 21.73 2.4 21.73 2.41"/>
    <polyline class="cls-1" points="21.96 2.29 21.95 2.29 21.94 2.29 21.93 2.28 21.92 2.28"/>
    <polyline class="cls-1" points="31.97 19.49 30.45 1.89 30.44 1.86 30.43 1.83 30.42 1.8 30.4 1.77 30.38 1.74 30.37 1.71 30.35 1.69 30.33 1.66 30.31 1.64 30.28 1.61 30.26 1.59 30.24 1.57 30.21 1.55 30.19 1.53 30.16 1.51 30.13 1.5 30.1 1.48 30.08 1.47 30.05 1.46 30.02 1.45 29.99 1.44 29.97 1.44 29.94 1.43 29.91 1.43 23.61 1.03 23.57 1.03 23.55 1.03 23.52 1.03 23.49 1.03 23.46 1.04 23.44 1.05 23.41 1.06 23.38 1.07 23.35 1.08 23.32 1.1 23.3 1.11 23.29 1.13 21.77 2.31 21.97 2.3 21.99 2.31 22.02 2.32 22.04 2.34 22.07 2.35 22.09 2.37 22.12 2.39 22.15 2.41 22.18 2.43 22.22 2.46 22.25 2.48 22.29 2.51 22.33 2.54 22.37 2.57 22.41 2.6 22.45 2.63 22.5 2.66 22.54 2.69 22.59 2.73 22.64 2.76 22.69 2.8 22.75 2.84 22.8 2.88 22.86 2.91 22.92 2.95 22.97 2.99 24.41 3.08"/>
    <polyline class="cls-1" points="31.09 19.35 31.11 19.35 31.13 19.35 31.15 19.36 31.17 19.37 31.18 19.38"/>
    <line class="cls-1" x1="31.08" y1="19.34" x2="31.09" y2="19.35"/>
    <polyline class="cls-1" points="31.02 19.34 31.03 19.34 31.04 19.35 31.06 19.35 31.07 19.36 31.08 19.36"/>
    <polyline class="cls-1" points="31.03 21.3 31.02 21.31 31.01 21.31 30.99 21.32 30.97 21.32"/>
    <line class="cls-1" x1="30.97" y1="21.32" x2="30.9" y2="21.31"/>
    <line class="cls-1" x1="32.47" y1="25.29" x2="32.51" y2="25.72"/>
    <line class="cls-1" x1="33.69" y1="25.15" x2="33.71" y2="25.14"/>
    <line class="cls-1" x1="33.71" y1="25.14" x2="33.71" y2="25.14"/>
    <line class="cls-1" x1="32.26" y1="22.85" x2="32.25" y2="21.29"/>
    <polyline class="cls-1" points="35.17 25.24 35.15 22.09 35.15 22.09 35.12 22.03 35.09 21.97 35.06 21.91 35.02 21.85 34.99 21.79 34.96 21.74 34.93 21.68 34.9 21.63 34.86 21.59 34.83 21.55 34.8 21.5 34.76 21.46 34.73 21.43 34.69 21.39 34.66 21.36 34.62 21.33 34.56 21.29 34.5 21.25 34.44 21.21 34.38 21.17 34.32 21.14 34.26 21.11 34.2 21.07 34.15 21.05 34.09 21.02 34.04 21 33.98 20.98 33.93 20.96 33.88 20.94 33.82 20.93 33.76 20.91 33.71 20.9 33.65 20.88 33.59 20.88 33.54 20.86 33.44 20.85 33.35 20.84 33.25 20.83 33.16 20.82 33.06 20.81 32.97 20.8 32.86 20.8 32.86 20.8"/>
    <polyline class="cls-1" points="55.77 26.57 36.71 25.35 36.6 25.33 33.71 25.14 33.71 25.14 32.51 25.07"/>
    <line class="cls-1" x1="52.77" y1="34.77" x2="34.18" y2="33.58"/>
    <polyline class="cls-1" points="56.99 26.49 56.98 26.48 56.97 26.48 56.97 26.49 56.96 26.49 56.95 26.49 56.95 26.5 56.94 26.51 56.94 26.51 56.93 26.52 56.93 26.54 56.93 26.55 56.92 26.56 56.92 26.57 56.92 26.58 56.91 26.7 56.9 26.81 56.88 26.93 56.87 27.04 56.85 27.18 56.83 27.31 56.8 27.45 56.78 27.59 56.78 27.59 56.76 27.71 56.73 27.83 56.7 27.95 56.68 28.08 56.65 28.2 56.62 28.32 56.59 28.44 56.55 28.57 56.53 28.67 56.5 28.77 56.47 28.87 56.44 28.97 56.41 29.07 56.38 29.17 56.35 29.27 56.32 29.38 56.29 29.48 56.26 29.58 56.23 29.68 56.19 29.78 56.16 29.88 56.12 29.98 56.09 30.08 56.05 30.18 56.02 30.29 55.98 30.39 55.94 30.49 55.91 30.59 55.87 30.69 55.83 30.79 55.79 30.89 55.75 30.99 55.71 31.09 55.67 31.19 55.62 31.29 55.58 31.39 55.54 31.5 55.5 31.59 55.45 31.7 55.41 31.8 55.36 31.9 55.32 32 55.27 32.1 55.23 32.2 55.18 32.3 55.13 32.4 55.08 32.5 55.03 32.6 54.97 32.72 54.91 32.84 54.85 32.96 54.79 33.08 54.73 33.2 54.66 33.32 54.59 33.44 54.52 33.56 54.45 33.69 54.37 33.82 54.29 33.95 54.21 34.09 54.13 34.2 54.06 34.31 53.99 34.43 53.92 34.54 53.91 34.54 53.91 34.56 53.9 34.57 53.89 34.59 53.88 34.61 53.88 34.62 53.87 34.64 53.87 34.66 53.87 34.68 53.87 34.7 53.87 34.72 53.87 34.74 53.87 34.76 53.87 34.82 53.88 34.87 53.88 34.88 53.89 34.9 53.89 34.91 53.9 34.93 53.9 34.94 53.91 34.95 53.92 34.96 53.93 34.97 53.93 34.98 53.95 34.99 53.95 34.99 53.97 35 53.97 35 53.98 35 54.07 35.02 54.16 35.04 54.24 35.06 54.33 35.08 54.44 35.1 54.54 35.13 54.63 35.15 54.73 35.17 54.82 35.19 54.9 35.21 54.98 35.23 55.07 35.25 55.15 35.27 55.23 35.29 55.31 35.31 55.38 35.34 55.45 35.35 55.51 35.37 55.57 35.38 55.63 35.4 55.7 35.42 55.76 35.43 55.82 35.45 55.88 35.47 55.94 35.48 55.99 35.5 56.05 35.52 56.11 35.53 56.17 35.55 56.23 35.56 56.28 35.58 56.34 35.6 56.39 35.61 56.45 35.63 56.5 35.64 56.55 35.66 56.61 35.67 56.66 35.69 56.71 35.71 56.76 35.72 56.81 35.74 56.86 35.75 56.91 35.77 56.96 35.78 57.01 35.8 57.06 35.82 57.1 35.83 57.15 35.85 57.2 35.86 57.24 35.88 57.29 35.89 57.33 35.91 57.37 35.92 57.42 35.94 57.46 35.95 57.5 35.97 57.55 35.99 57.6 36.01 57.65 36.02 57.7 36.04 57.74 36.06 57.78 36.08 57.83 36.09 57.87 36.11 57.91 36.13 57.96 36.15 58 36.17 58.04 36.19 58.07 36.21 58.1 36.22 58.13 36.24 58.16 36.26 58.16 36.26 58.17 36.26 58.17 36.26 58.18 36.26 58.18 36.25 58.19 36.25 58.19 36.24 58.2 36.23 58.2 36.22 58.21 36.21 58.22 36.2 58.22 36.19 58.23 36.17 58.25 36.12 58.26 36.08 58.27 36.06 58.27 36.04 58.28 36.03 58.28 36.01 58.29 35.99 58.29 35.98 58.3 35.96 58.3 35.94 58.3 35.92 58.31 35.91 58.31 35.89 58.31 35.87 58.31 35.85 58.31 35.83 58.34 35.58 58.36 35.33 58.37 35.18 58.38 35.03 58.39 34.87 58.4 34.72 58.4 34.58 58.4 34.44 58.4 34.3 58.41 34.16 58.4 34.02 58.4 33.88 58.4 33.74 58.4 33.6 58.39 33.49 58.39 33.37 58.38 33.26 58.38 33.14 58.37 33.02 58.36 32.91 58.35 32.79 58.35 32.68 58.34 32.56 58.33 32.44 58.32 32.33 58.31 32.21 58.3 32.09 58.29 31.98 58.27 31.86 58.26 31.75 58.25 31.63 58.24 31.51 58.22 31.4 58.21 31.28 58.19 31.16 58.18 31.04 58.16 30.93 58.14 30.81 58.13 30.69 58.11 30.58 58.09 30.46 58.07 30.34 58.05 30.23 58.03 30.11 58.01 29.99 57.99 29.87 57.97 29.76 57.94 29.64 57.92 29.52 57.9 29.41 57.87 29.29 57.85 29.17 57.82 29.05 57.8 28.94 57.77 28.8 57.73 28.65 57.7 28.51 57.66 28.37 57.63 28.23 57.59 28.09 57.55 27.95 57.51 27.81 57.47 27.65 57.42 27.49 57.37 27.34 57.32 27.18 57.32 27.18 57.27 27.04 57.23 26.91 57.18 26.77 57.13 26.64 57.13 26.62 57.12 26.6 57.11 26.59 57.1 26.57 57.1 26.56 57.09 26.55 57.08 26.54 57.07 26.53 57.07 26.52 57.06 26.51 57.05 26.5 57.04 26.5 57.01 26.49 56.99 26.49 56.98 26.48 55.88 26.41 55.87 26.41 55.87 26.41 55.86 26.41 55.86 26.42 55.85 26.42 55.85 26.42 55.84 26.42 55.84 26.43 55.83 26.43 55.83 26.44 55.82 26.44 55.82 26.45 55.82 26.45 55.81 26.46 55.81 26.47 55.8 26.48 55.8 26.48 55.8 26.49 55.79 26.5 55.79 26.51 52.78 34.47 52.78 34.47 52.78 34.48 52.78 34.49 52.77 34.5 52.77 34.51 52.77 34.52 52.77 34.53 52.76 34.55 52.76 34.56 52.76 34.57 52.76 34.58 52.76 34.59 52.76 34.6 52.76 34.62 52.76 34.63 52.76 34.64 52.76 34.65 52.76 34.66 52.76 34.68 52.76 34.69 52.77 34.8 52.78 34.81 52.78 34.82 52.78 34.83 52.78 34.84 52.78 34.85 52.79 34.86 52.79 34.87 52.79 34.87 52.8 34.88 52.8 34.89 52.8 34.9 52.81 34.9 52.81 34.91 52.82 34.91 52.82 34.92 52.83 34.92 52.83 34.92 52.84 34.93 52.84 34.93 57.03 36.18 58.16 36.26"/>
    <polyline class="cls-1" points="57.03 36.18 57.04 36.19 57.04 36.19"/>
    <polyline class="cls-1" points="20.08 26.24 20.03 26.34 19.98 26.44 19.93 26.54 19.89 26.64 19.84 26.74 19.79 26.84 19.75 26.94 19.7 27.04 19.66 27.14 19.61 27.24 19.57 27.34 19.53 27.44 19.48 27.54 19.44 27.64 19.4 27.74 19.36 27.84 19.32 27.94 19.28 28.05 19.24 28.15 19.21 28.25 19.17 28.35 19.13 28.45 19.09 28.55 19.06 28.65 19.02 28.75 18.99 28.85 18.95 28.95 18.92 29.06 18.89 29.16 18.85 29.26 18.82 29.36 18.79 29.46 18.76 29.56 18.73 29.66 18.7 29.76 18.67 29.86 18.64 29.97 18.61 30.07 18.58 30.17 18.56 30.27 18.52 30.39 18.49 30.52 18.46 30.64 18.43 30.76 18.41 30.88 18.38 31 18.36 31.13 18.33 31.25 18.31 31.38 18.29 31.48 18.29 31.48 18.27 31.5 18.26 31.51 18.25 31.53 18.23 31.55 18.22 31.56 18.2 31.58 18.19 31.6 18.18 31.62 18.17 31.64 18.16 31.66 18.14 31.68 18.13 31.7 18.12 31.72 18.11 31.74 18.1 31.76 18.1 31.78 18.09 31.8 18.08 31.82 18.07 31.84 18.07 31.86 18.06 31.89 18.05 31.91 18.05 31.93 18.04 31.95 18.04 31.97 18.04 31.99 18.03 32.01 18.03 32.03 18.02 32.05 18.02 32.07 18.02 32.09 18.02 32.11 18.02 32.13 18.01 32.14 18.01 32.16 18.01 32.18 18.01 32.19 18.01 32.21 18.01 32.22 18.01 32.24 18.01 32.26 18.01 32.28 18.01 32.29 18.01 32.29 18.01 32.34 18.02 32.4 18.02 32.45 18.02 32.5 18.02 32.56 18.03 32.61 18.03 32.67 18.03 32.72 18.04 32.77 18.04 32.83 18.05 32.88 18.05 32.93 18.05 32.99 18.06 33.04 18.07 33.09 18.07 33.15 18.07 33.2 18.08 33.25 18.09 33.31 18.09 33.36 18.1 33.41 18.11 33.46 18.11 33.52 18.12 33.57 18.13 33.62 18.14 33.67 18.14 33.72 18.15 33.77 18.16 33.82 18.17 33.88 18.18 33.92 18.19 33.98 18.2 34.03 18.2 34.05 18.2 34.05 18.21 34.1 18.22 34.14 18.23 34.19 18.24 34.23 18.25 34.27 18.26 34.32 18.27 34.36 18.28 34.4 18.29 34.44 18.3 34.49 18.31 34.53 18.32 34.57 18.34 34.61 18.35 34.65 18.36 34.69 18.37 34.73 18.39 34.77 18.4 34.81 18.41 34.85 18.43 34.89 18.44 34.93 18.45 34.97 18.47 35.01 18.48 35.05 18.5 35.09 18.51 35.13 18.53 35.16 18.54 35.2 18.56 35.24 18.57 35.27 18.59 35.31 18.61 35.34 18.63 35.38 18.64 35.42 18.66 35.45 18.68 35.48 18.7 35.52 18.71 35.55 18.73 35.59 18.75 35.62 18.77 35.65 18.79 35.68 18.81 35.72 18.83 35.75 18.85 35.78 18.87 35.81 18.89 35.84 18.91 35.87 18.93 35.9 18.95 35.92 18.97 35.95 19 35.98 19.02 36.01 19.04 36.03 19.06 36.06 19.09 36.09 19.11 36.11 19.13 36.13 19.16 36.16 19.18 36.18 19.2 36.2 19.23 36.23 19.25 36.25 19.27 36.27 19.3 36.29 19.32 36.31 19.32 36.31 19.33 36.31 19.36 36.34 19.39 36.36 19.42 36.39 19.45 36.41 19.49 36.43 19.52 36.45 19.55 36.47 19.58 36.49 19.61 36.52 19.64 36.53 19.68 36.55 19.71 36.57 19.74 36.59 19.77 36.61 19.81 36.62 19.84 36.64 19.87 36.65 19.91 36.67 19.94 36.68 19.97 36.7 20 36.71 20.04 36.72 20.07 36.74 20.11 36.75 20.14 36.76 20.17 36.77 20.2 36.78 20.24 36.79 20.27 36.8 20.31 36.81 20.34 36.81 20.37 36.82 20.41 36.83 20.44 36.83 20.47 36.84 20.51 36.85 20.54 36.85 20.58 36.85 20.61 36.86 20.64 36.86 20.68 36.86 33.12 37.65"/>
    <polyline class="cls-1" points="20.59 25.28 20.52 25.4 20.45 25.52 20.39 25.64 20.32 25.76 20.26 25.88 20.2 26 20.14 26.12 20.08 26.24"/>
    <polyline class="cls-1" points="20.91 24.75 20.82 24.88 20.74 25.01 20.66 25.15 20.59 25.28"/>
    <line class="cls-1" x1="20.96" y1="24.65" x2="20.9" y2="24.75"/>
    <polyline class="cls-1" points="50.92 34.65 51.1 62.17 51.1 62.17 51.1 62.18 51.1 62.19 51.11 62.2 51.11 62.21 51.12 62.22 51.13 62.23 51.14 62.23 51.15 62.24 51.17 62.25 51.18 62.26 51.2 62.27 51.22 62.27 51.23 62.28 51.25 62.29 51.27 62.29 51.3 62.3 51.32 62.3 51.34 62.31 51.37 62.32 51.4 62.32 51.42 62.33 51.45 62.33 51.48 62.34 51.51 62.34 51.54 62.34 51.58 62.35 51.61 62.35 51.64 62.36 51.68 62.36 51.72 62.36 51.75 62.37 51.79 62.37 51.84 69.78"/>
    <line class="cls-1" x1="51.82" y1="69.78" x2="51.84" y2="69.78"/>
    <polyline class="cls-1" points="46.27 69.43 51.84 69.78 54.6 68.8 54.41 35.39"/>
    <polyline class="cls-1" points="45.84 64.68 45.84 64.63 45.84 64.52 45.84 64.41 45.84 64.38"/>
    <polyline class="cls-1" points="20.27 57.8 20.34 57.75 20.41 57.69 20.48 57.64 20.55 57.58 20.61 57.51 20.68 57.45 20.75 57.38 20.82 57.31 20.88 57.24 20.95 57.17 21.02 57.1 21.08 57.02 21.15 56.94 21.21 56.86 21.28 56.78 21.34 56.7 21.41 56.61 21.47 56.52 21.53 56.43 21.6 56.34 21.66 56.24 21.72 56.15 21.78 56.05 21.84 55.95 21.9 55.85 21.96 55.75 22.02 55.65 22.08 55.54 22.14 55.43 22.2 55.32 22.26 55.21 22.31 55.1 22.37 54.98 22.43 54.87 22.48 54.75 22.53 54.63 22.59 54.51 22.64 54.38 22.69 54.26 22.75 54.14 22.8 54.01 22.85 53.88 22.89 53.75 22.95 53.62 22.99 53.49 23.04 53.35 23.09 53.22 23.13 53.08 23.18 52.95 23.22 52.81 23.27 52.67 23.31 52.53 23.35 52.38 23.39 52.24 23.44 52.1 23.48 51.95 23.52 51.8 23.55 51.66 23.59 51.51 23.63 51.36 23.66 51.21 23.7 51.06 23.73 50.91 23.77 50.76 23.8 50.6 23.83 50.45 23.86 50.29 23.89 50.13 23.92 49.98 23.95 49.82 23.97 49.66 24 49.51 24.02 49.35 24.05 49.19 24.07 49.03 24.09 48.87 24.12 48.71 24.14 48.54 24.16 48.38 24.18 48.22 24.19 48.06 24.21 47.9 24.23 47.73 24.24 47.57 24.26 47.41 24.27 47.24 24.28 47.08 24.29 46.92 24.3 46.75 24.31 46.59 24.32 46.42 24.33 46.26 24.33 46.1 24.34 45.93 24.34 45.77 24.35 45.61 24.35 45.44 24.35 45.28 24.35 45.12 24.35 44.95 24.35 44.79 24.35 44.63 24.34 44.47 24.34 44.31 24.33 44.15 24.33 43.99 24.32 43.83 24.31 43.67 24.3 43.51 24.29 43.35 24.28 43.19 24.27 43.04 24.26 42.88 24.24 42.73 24.23 42.57 24.21 42.42 24.19 42.26 24.18 42.11 24.16 41.96 24.14 41.81 24.14 41.64 24.14 41.48 24.15 41.31 24.16 41.15 24.16 40.98 24.17 40.81 24.41 37.05"/>
    <line class="cls-1" x1="18.55" y1="41.45" x2="24.14" y2="41.81"/>
    <polyline class="cls-1" points="16.77 54.5 16.73 54.62 16.67 54.73 16.62 54.84 16.57 54.96 16.52 55.07 16.46 55.17 16.41 55.28 16.35 55.39 16.29 55.49 16.23 55.59 16.17 55.7 16.11 55.79 16.05 55.89 15.99 55.99 15.93 56.08 15.87 56.17 15.8 56.26 15.74 56.35 15.68 56.44 15.61 56.52 15.56 56.59 15.5 56.66 15.45 56.72 15.39 56.78 15.34 56.84 15.28 56.91 15.21 56.98 15.15 57.04 15.08 57.11 15.02 57.17 14.95 57.23 14.89 57.29 14.82 57.34 14.76 57.4 14.69 57.45 14.69 57.45 14.69 57.55 14.69 57.66 14.7 57.76 14.7 57.86 14.7 57.97 14.7 58.07 14.7 58.17 14.7 58.27 14.7 58.27 14.73 63.57 15.26 63.6 15.28 63.6 16.3 63.66"/>
    <polyline class="cls-1" points="28.5 58.16 28.48 55.88 28.48 55.88 28.48 55.87 28.48 55.86 28.48 55.85 28.48 55.84 28.48 55.83 28.48 55.81 28.48 55.8 28.48 55.79 28.48 55.78 28.47 55.77 28.47 55.76 28.46 55.74 28.46 55.73 28.45 55.72 28.45 55.71 28.44 55.7 28.43 55.69 28.43 55.68 28.42 55.68 28.41 55.67 28.4 55.66 28.39 55.65 28.39 55.65 28.38 55.64 28.37 55.63 28.36 55.63 28.35 55.62 28.34 55.62 28.33 55.62 28.32 55.61 28.31 55.61 28.3 55.61 28.29 55.6 28.27 55.6 28.26 55.6 28.25 55.6 28.24 55.61 28.24 55.61 28.23 55.61 28.22 55.61 28.21 55.61 28.2 55.61 28.19 55.61 28.18 55.6 28.17 55.6 28.16 55.6 28.15 55.59 28.14 55.59 28.13 55.59 28.12 55.58 28.11 55.57 28.1 55.57 28.09 55.56 28.08 55.55 28.07 55.54 28.06 55.53 28.06 55.53 28.05 55.52 28.04 55.51 28.04 55.5 28.03 55.49 28.02 55.48 28.02 55.47 28.02 55.45 28.01 55.44 28.01 55.43 28.01 55.42 28 55.41 28 55.4 28 55.38 28 55.37 28 55.1 27.97 54.99 27.93 54.89 27.9 54.78 27.87 54.67 27.84 54.56 27.81 54.45 27.78 54.34 27.75 54.23 27.72 54.12 27.69 54.01 27.66 53.9 27.63 53.79 27.6 53.67 27.57 53.56 27.55 53.45 27.52 53.33 27.49 53.21 27.47 53.1 27.44 52.98 27.42 52.86 27.39 52.74 27.37 52.62 27.34 52.5 27.32 52.38 27.3 52.26 27.28 52.14 27.25 52.02 27.23 51.9 27.21 51.78 27.19 51.65 27.17 51.53 27.15 51.41 27.13 51.28 27.11 51.16 27.09 51.03 27.07 50.9 27.06 50.78 27.04 50.65 27.02 50.52 27.01 50.39 26.99 50.27 26.98 50.14 26.96 50.01 26.95 49.88 26.93 49.75 26.92 49.62 26.91 49.49 26.89 49.36 26.88 49.23 26.87 49.09 26.86 48.96 26.85 48.83 26.84 48.7 26.83 48.56 26.82 48.43 26.81 48.3 26.8 48.16 26.8 48.03 26.79 47.89 26.78 47.76 26.78 47.62 26.77 47.49 26.77 47.35 26.76 47.22 26.75 47.08 26.75 46.95 26.75 46.81 26.75 46.67 26.74 46.53 26.74 46.4 26.74 46.26 26.74 46.12 26.74 45.99 26.74 45.85 26.74 45.71 26.74 45.58 26.74 45.44 26.74 45.3 26.74 45.16 26.75 45.02 26.75 44.88 26.75 44.74 26.76 44.61 26.76 44.47 26.77 44.33 26.77 44.19 26.78 44.05 26.79 43.91 26.79 43.77 26.8 43.64 26.81 43.5 26.82 43.36 26.82 43.22 26.83 43.08 26.84 42.94 26.85 42.81 26.86 42.67 26.88 42.53 26.89 42.39 26.9 42.25 26.91 42.12 26.93 41.98 26.94 41.84 26.95 41.7 26.97 41.56 26.98 41.43 27 41.29 27.01 41.15 27.03 41.02 27.05 40.88 27.06 40.74 27.67 37.31 27.08 40.59"/>
    <line class="cls-1" x1="15.28" y1="63.6" x2="15.25" y2="63.61"/>
    <polyline class="cls-1" points="19.23 36.23 19.2 36.38 19.16 36.65 19.11 36.91 19.07 37.18 19.03 37.44 18.99 37.71 18.95 37.98 18.91 38.24 18.87 38.51 18.83 38.77 18.8 39.04 18.77 39.31 18.73 39.58 18.7 39.84 18.67 40.11 18.65 40.38 18.62 40.65 18.59 40.92 18.57 41.19 18.55 41.45 18.56 41.6 18.57 41.75 18.57 41.9 18.58 42.05 18.59 42.21 18.6 42.36 18.6 42.52 18.61 42.67 18.61 42.83 18.62 42.98 18.62 43.14 18.62 43.3 18.62 43.45 18.62 43.61 18.62 43.77 18.62 43.93 18.62 44.09 18.62 44.25 18.62 44.38 18.61 44.51 18.61 44.64 18.61 44.77 18.6 44.9 18.6 45.03 18.59 45.16 18.59 45.29 18.58 45.46 18.57 45.62 18.56 45.78 18.55 45.95 18.54 46.11 18.53 46.27 18.52 46.44 18.5 46.6 18.49 46.76 18.48 46.93 18.46 47.09 18.45 47.26 18.43 47.42 18.41 47.58 18.4 47.74 18.38 47.9 18.36 48.06 18.34 48.22 18.32 48.35 18.3 48.48 18.29 48.61 18.27 48.74 18.25 48.86 18.23 48.99 18.21 49.12 18.19 49.25 18.17 49.4 18.14 49.56 18.11 49.72 18.09 49.87 18.06 50.03 18.03 50.18 18 50.34 17.97 50.49 17.94 50.64 17.91 50.8 17.87 50.95 17.84 51.1 17.81 51.24 17.77 51.39 17.74 51.53 17.7 51.68 17.66 51.82 17.63 51.96 17.6 52.08 17.57 52.19 17.54 52.3 17.5 52.42 17.47 52.53 17.44 52.64 17.41 52.75 17.37 52.86 17.34 52.97 17.3 53.09 17.26 53.2 17.23 53.32 17.19 53.43 17.15 53.54 17.11 53.65 17.07 53.76 17.03 53.87 16.99 53.98 16.95 54.08 16.91 54.19 16.86 54.3 16.82 54.4 16.77 54.5"/>
    <line class="cls-1" x1="35.72" y1="54.33" x2="28.49" y2="56.6"/>
    <polyline class="cls-1" points="35.72 55.92 35.71 54.1 35.65 53.9 35.58 53.82 35.52 53.8 33.09 53.63 32.97 53.63 32.96 53.63 28 55.1"/>
    <polygon class="cls-1" points="19 66.75 18.95 66.58 18.9 59.88 18.96 59.68 18.9 59.61 18.78 59.61 16.53 59.47 16.47 59.45 16.41 59.52 16.41 59.52 16.35 59.72 16.37 66.42 16.43 66.58 16.44 66.58 16.5 66.65 16.52 66.65 16.57 66.67 18.83 66.81 18.94 66.81 19 66.75"/>
    <line class="cls-1" x1="46.55" y1="66.27" x2="46.24" y2="66.25"/>
    <line class="cls-1" x1="59.32" y1="62.26" x2="54.59" y2="63.74"/>
    <polyline class="cls-1" points="46.26 68.26 46.56 68.28 48.57 67.79 48.56 67.55 48.56 67.32 48.56 67.08 48.56 66.85 48.56 66.61 48.56 66.38 48.55 66.15 48.55 65.91 48.55 65.89 48.55 65.88 48.55 65.86 48.55 65.85 48.55 65.83 48.54 65.81 48.54 65.8 48.53 65.78 48.53 65.77 48.52 65.75 48.52 65.74 48.51 65.72 48.51 65.7 48.5 65.69 48.49 65.67 48.48 65.66 48.48 65.65 48.46 65.63 48.46 65.62 48.44 65.61 48.43 65.6 48.42 65.58 48.41 65.57 48.4 65.56 48.39 65.55 48.38 65.54 48.36 65.53 48.35 65.52 48.34 65.51 48.33 65.5 48.31 65.5 48.3 65.49 48.28 65.48 48.27 65.48 48.26 65.47 48.24 65.47 48.23 65.46 48.21 65.46 48.2 65.46 48.18 65.45 48.17 65.45 48.15 65.45 47.88 65.43 47.6 65.41 47.33 65.4 47.06 65.38 46.78 65.36 46.51 65.34 46.24 65.33"/>
    <polyline class="cls-1" points="54.59 62.87 57.01 62.11 59.32 62.26 59.36 62.29 59.38 62.33 59.39 64.2 59.38 64.23 59.33 64.27 54.57 65.76"/>
    <line class="cls-1" x1="55.42" y1="62.61" x2="55.42" y2="62.59"/>
    <line class="cls-1" x1="43.94" y1="72.15" x2="43.9" y2="65.44"/>
    <line class="cls-1" x1="46.24" y1="64.7" x2="43.9" y2="65.44"/>
    <polyline class="cls-1" points="17.4 69.8 17.4 70.46 17.4 70.46 43.94 72.16 46.28 71.42 46.23 64.7 45.76 64.67 45.75 64.68 45.74 64.68 45.73 64.68 45.72 64.68 45.71 64.69 45.7 64.69 45.69 64.69 45.68 64.69 45.66 64.69 45.65 64.7 45.64 64.7 45.63 64.7 45.61 64.7 45.6 64.7 45.58 64.7 45.57 64.71 45.55 64.71 45.54 64.71 45.52 64.71 45.51 64.71 45.49 64.71 45.47 64.71 45.46 64.72 45.44 64.72 45.42 64.72 45.41 64.72 45.39 64.72 45.37 64.72 45.35 64.72 45.33 64.72 45.31 64.72 45.3 64.72 45.28 64.72 45.26 64.72 45.24 64.72 45.22 64.72 45.21 64.72 45.19 64.72 45.17 64.72 45.15 64.72 45.14 64.72 45.12 64.72 45.1 64.72 45.09 64.72 45.07 64.72 45.05 64.72 44.83 64.7"/>
    <polyline class="cls-1" points="41.37 71.99 41.38 73.66 41.38 73.66 41.38 73.66 41.38 73.66 41.38 73.67 41.38 73.67 41.39 73.67 41.39 73.67 41.4 73.67 41.4 73.67 41.41 73.67 41.41 73.68 41.42 73.68 41.43 73.68 41.44 73.68 41.44 73.68 41.45 73.68 41.46 73.68 41.47 73.69 41.48 73.69 41.49 73.69 41.5 73.69 41.51 73.69 41.52 73.69 41.53 73.69 41.54 73.69 41.55 73.69 41.57 73.69 41.58 73.69 41.59 73.69 41.6 73.69 41.61 73.69 41.63 73.69 41.64 73.69 41.65 73.69 41.66 73.69 41.67 73.69 41.68 73.69 41.69 73.69 41.7 73.69 41.71 73.69 41.72 73.68 41.73 73.68 41.74 73.68 41.75 73.68 41.76 73.68 41.76 73.68 41.77 73.68 41.78 73.67 41.78 73.67 41.79 73.67 41.8 73.67 41.8 73.67 41.8 73.67 41.81 73.66 41.81 73.66 41.81 73.66 41.82 73.66 41.82 73.66 41.82 73.66 41.82 73.66 41.81 72.02"/>
    <polyline class="cls-1" points="41.17 73.66 41.41 73.72 41.84 73.71 42.03 73.65"/>
    <line class="cls-1" x1="41.84" y1="73.97" x2="41.84" y2="73.71"/>
    <line class="cls-1" x1="41.41" y1="73.97" x2="41.41" y2="73.72"/>
    <polyline class="cls-1" points="41.38 73.61 41.35 73.61 41.17 73.66 41.17 73.92 41.41 73.97 41.84 73.97 42.03 73.91 42.03 73.65 41.82 73.61"/>
    <line class="cls-1" x1="48.76" y1="69.59" x2="48.55" y2="69.66"/>
    <line class="cls-1" x1="48.55" y1="69.66" x2="48.55" y2="69.66"/>
    <line class="cls-1" x1="55.22" y1="62.67" x2="55.21" y2="61.44"/>
    <polyline class="cls-1" points="27.91 71.13 27.92 72.65 26.47 73.1 23.44 72.91 23.43 70.85"/>
    <polyline class="cls-1" points="48.55 69.66 48.55 69.66 48.55 69.66"/>
    <polyline class="cls-1" points="45.44 71.68 45.45 72.13 48.48 72.32 49.93 71.87 49.92 71.18 48.16 71.06 48.18 69.77"/>
    <polyline class="cls-1" points="54.76 69.65 54.76 69.91 54.57 69.97 54.57 69.71 54.76 69.65 54.55 69.61 54.57 69.71 54.14 69.72 53.9 69.67 53.9 69.92 54.14 69.97 54.57 69.97 54.14 69.97 54.14 69.72 54.1 69.61 54.08 69.61 53.9 69.67"/>
    <line class="cls-1" x1="43.71" y1="61.78" x2="43.73" y2="65.04"/>
    <line class="cls-1" x1="58" y1="57.29" x2="54.56" y2="58.38"/>
    <polyline class="cls-1" points="51.08 59.47 43.71 61.78 20.78 60.51"/>
    <polyline class="cls-1" points="14.69 57.45 20.27 57.8 20.27 57.81 20.27 57.83 20.27 57.84 20.27 57.85 20.28 57.86 20.28 57.87 20.28 57.88 20.29 57.9 20.29 57.91 20.3 57.92 20.3 57.93 20.31 57.94 20.32 57.95 20.32 57.96 20.33 57.97 20.34 57.97 20.35 57.98 20.36 57.99 20.36 58 20.37 58 20.38 58.01 20.39 58.02 20.4 58.02 20.41 58.02 20.43 58.03 20.43 58.03 20.45 58.03 20.46 58.03 20.46 58.04 20.48 58.04 20.49 58.04 20.5 58.04 20.51 58.04 20.52 58.03 20.53 58.03 20.54 58.03 20.55 58.04 20.56 58.04 20.57 58.04 20.58 58.04 20.59 58.04 20.61 58.05 20.61 58.05 20.62 58.06 20.64 58.06 20.64 58.07 20.65 58.07 20.66 58.08 20.67 58.09 20.68 58.1 20.69 58.1 20.7 58.11 20.7 58.12 20.71 58.13 20.72 58.14 20.72 58.15 20.73 58.16 20.73 58.17 20.74 58.19 20.74 58.2 20.74 58.21 20.75 58.22 20.75 58.23 20.75 58.24 20.75 58.26 20.75 58.27 20.75 58.28 20.75 58.29 20.75 58.3 20.75 58.31 20.72 63.83 21.51 63.63 43.74 65.04 50.3 62.98 50.4 62.28 51.79 62.37"/>
    <polyline class="cls-1" points="51.06 56.85 35.78 55.88 20.78 60.51"/>
    <polyline class="cls-1" points="54.55 57.07 58 57.29 58.02 60.55 54.58 61.64"/>
    <path class="cls-1" d="M24.41,3.07l.83,28.42a2.76,2.76,0,0,1,2.67-1l-.8-27.6"/>
    <polyline class="cls-1" points="34.14 37.55 34.15 37.54 34.18 37.53 34.21 37.52 34.24 37.51 34.27 37.5 34.3 37.49 34.32 37.47 34.35 37.45 34.38 37.43 34.4 37.41 34.43 37.39 34.45 37.36 34.48 37.34 34.5 37.31 34.52 37.29 34.55 37.23 34.57 37.2 34.59 37.17 34.6 37.14 34.61 37.1 34.63 37.07 34.63 37.03 34.64 36.99 34.65 36.96 34.65 36.92 34.94 34.24 34.94 34.23 34.94 34.21 34.94 34.2 34.94 34.19 34.94 34.18 34.94 34.16 34.94 34.15 34.94 34.14 34.94 34.13 34.94 34.12 34.94 34.11 34.94 34.1 34.93 34.09 34.93 34.08 34.93 34.07 34.92 34.06 34.92 34.05 34.92 34.04 34.91 34.03 34.91 34.03 34.91 34.02 34.9 34.02 34.9 34.01 34.9 34.01 34.89 34 34.88 34 34.88 33.99 34.88 33.99 34.87 33.99 34.28 33.81 34.27 33.81 34.27 33.8 34.26 33.8 34.26 33.8 34.25 33.79 34.24 33.78 34.24 33.78 34.23 33.77 34.23 33.76 34.22 33.75 34.22 33.74 34.22 33.73 34.21 33.73 34.21 33.72 34.2 33.7 34.2 33.69 34.2 33.68 34.19 33.67 34.19 33.66 34.19 33.65 34.18 33.63 34.18 33.62 34.18 33.6 34.18 33.59 34.18 33.58 34.18 33.56 34.18 33.55 34.17 33.53 34.17 33.52 34.17 33.51 34.17 33.49 34.17 33.48 34.18 33.46 34.18 33.45 34.18 33.43 34.18 33.42 34.18 33.4 34.18 33.39 34.19 33.37 34.19 33.36 34.19 33.34 34.19 33.33 34.2 33.32 34.2 33.3 34.2 33.29 34.21 33.28 34.21 33.27 34.22 33.25 34.28 33.09 36.92 26.1 36.93 26.06 36.95 26.02 36.95 25.98 36.96 25.93 36.97 25.91 36.97 25.88 36.97 25.85 36.98 25.82 36.98 25.79 36.98 25.76 36.98 25.74 36.97 25.71 36.97 25.68 36.97 25.65 36.96 25.63 36.95 25.6 36.94 25.57 36.93 25.55 36.92 25.53 36.91 25.52 36.9 25.5 36.89 25.48 36.87 25.46 36.86 25.45 36.85 25.43 36.83 25.42 36.82 25.41 36.8 25.4 36.79 25.39 36.77 25.38 36.76 25.37 36.74 25.36 36.72 25.36 36.7 25.35 36.68 25.34 36.65 25.34 36.62 25.33 36.6 25.33 36.54 25.34 36.48 25.36 36.43 25.37 36.38 25.39 36.32 25.41 36.26 25.43 36.21 25.44 36.15 25.46 36.1 25.48 36.04 25.5 35.99 25.52 35.93 25.54 35.88 25.57 35.82 25.59 35.77 25.61 35.71 25.64 35.66 25.66 35.6 25.69 35.54 25.71 35.49 25.74 35.44 25.77 35.38 25.79 35.32 25.82 35.27 25.85 35.21 25.88 35.16 25.91 35.1 25.94 35.05 25.97 34.99 26 34.94 26.03 34.88 26.07 34.83 26.1 34.77 26.13 34.72 26.17 34.66 26.2 34.61 26.24 34.55 26.28 34.5 26.31 34.45 26.35 34.39 26.39 34.34 26.43 34.28 26.47 34.23 26.51 34.18 26.55 34.12 26.59 34.07 26.63 34.01 26.67 33.96 26.72 33.91 26.76 33.85 26.8 33.8 26.85 33.74 26.89 33.69 26.94 33.64 26.99 33.58 27.03 33.53 27.08 33.47 27.13 33.42 27.18 33.37 27.23 33.31 27.28 33.26 27.33 33.21 27.38 33.15 27.43 33.1 27.48 33.05 27.54 33 27.59 32.94 27.64 32.89 27.7 32.84 27.75 32.78 27.81 32.77 27.83 32.75 27.85 32.73 27.87 32.71 27.9 32.69 27.92 32.67 27.94 32.65 27.97 32.63 27.99 32.61 28.02 32.59 28.04 32.58 28.07 32.56 28.1 32.54 28.12 32.52 28.15 32.51 28.18 32.49 28.21 32.47 28.24 32.45 28.27 32.43 28.3 32.42 28.33 32.4 28.36 32.38 28.39 32.37 28.42 32.35 28.46 32.33 28.49 32.32 28.52 32.3 28.56 32.28 28.59 32.28 28.59 32.27 28.61 32.26 28.64 32.25 28.67 32.24 28.7 32.23 28.73 32.23 28.76 32.22 28.79 32.22 28.82 32.21 28.85 32.2 28.88 32.2 28.91 32.2 28.95 32.19 29 32.19 29.04 32.18 29.09 32.18 29.14 32.17 29.18 32.17 29.23 32.16 29.28 32.16 29.32 32.15 29.37 32.14 29.42 32.14 29.46 32.13 29.51 32.12 29.56 32.12 29.6 32.11 29.65 32.1 29.7 32.09 29.74 32.08 29.79 32.07 29.83 32.06 29.88 32.06 29.92 32.05 29.97 32.04 30.01 32.03 30.06 32.02 30.1 32.01 30.14 32 30.19 31.98 30.23 31.97 30.27 31.96 30.32 31.95 30.36 31.94 30.4 31.93 30.44 31.92 30.48 31.9 30.53 31.89 30.57 31.88 30.61 31.86 30.65 31.85 30.69 31.84 30.73 31.82 30.77 31.81 30.81 31.8 30.84 31.78 30.88 31.77 30.92 31.75 30.96 31.74 31 31.73 31.03 31.71 31.07 31.69 31.1 31.68 31.14 31.66 31.18 31.65 31.21 31.63 31.25 31.61 31.28 31.6 31.31 31.58 31.34 31.57 31.38 31.55 31.41 31.53 31.44 31.52 31.47 31.5 31.5 31.48 31.54 31.46 31.56 31.45 31.59 31.43 31.62 31.41 31.65 31.39 31.68 31.37 31.71 31.36 31.73 31.34 31.76 31.32 31.79 31.3 31.81 31.28 31.84 31.26 31.86 31.24 31.89 31.23 31.91 31.21 31.93 31.19 31.95 31.17 31.98 31.15 32 31.13 32.02 31.11 32.04 31.09 32.06 31.07 32.08 31.05 32.09 31.03 32.11 31.02 32.12 31.01 32.13 31 32.14 30.99 32.15 30.98 32.16 30.97 32.17 30.96 32.19 30.95 32.2 30.94 32.21 30.93 32.23 30.92 32.24 30.92 32.26 30.91 32.27 30.9 32.29 30.89 32.3 30.88 32.32 30.87 32.34 30.86 32.36 30.86 32.37 30.85 32.39 30.84 32.41 30.84 32.43 30.83 32.45 30.82 32.47 30.82 32.49 30.81 32.51 30.8 32.53 30.8 32.55 30.79 32.58 30.79 32.6 30.78 32.62 30.77 32.64 30.77 32.66 30.76 32.69 30.76 32.71 30.75 32.73 30.75 32.76 30.75 32.78 30.74 32.8 30.74 32.83 30.74 32.85 30.74 32.87 30.73 32.9 30.73 32.92 30.73 32.95 30.73 32.97 30.73 32.99 30.72 33.02 30.72 33.04 30.72 33.07 30.72 33.09 30.72 33.11 30.72 33.14 30.72 33.16 30.72 33.19 30.73 33.25 30.73 33.31 30.73 33.37 30.73 33.43 30.74 33.49 30.74 33.55 30.75 33.61 30.75 33.67 30.75 33.73 30.76 33.79 30.76 33.85 30.77 33.91 30.77 33.97 30.78 34.02 30.79 34.08 30.79 34.14 30.8 34.2 30.8 34.26 30.81 34.31 30.82 34.37 30.83 34.43 30.83 34.49 30.84 34.54 30.85 34.6 30.86 34.66 30.87 34.71 30.88 34.77 30.89 34.82 30.89 34.88 30.91 34.93 30.92 34.99 30.93 35.04 30.93 35.09 30.95 35.13 30.95 35.18 30.96 35.23 30.98 35.27 30.99 35.32 31 35.37 31.01 35.41 31.02 35.45 31.03 35.5 31.04 35.54 31.05 35.59 31.07 35.63 31.08 35.67 31.09 35.71 31.1 35.76 31.12 35.8 31.13 35.84 31.14 35.88 31.16 35.92 31.17 35.96 31.18 36 31.2 36.04 31.21 36.08 31.23 36.12 31.24 36.15 31.26 36.19 31.28 36.23 31.29 36.26 31.31 36.3 31.32 36.33 31.34 36.37 31.36 36.4 31.37 36.44 31.39 36.47 31.41 36.5 31.42 36.53 31.44 36.57 31.46 36.6 31.48 36.63 31.49 36.66 31.51 36.69 31.53 36.72 31.55 36.75 31.57 36.78 31.59 36.8 31.61 36.83 31.62 36.86 31.64 36.88 31.66 36.91 31.68 36.93 31.7 36.96 31.72 36.98 31.74 37.01 31.76 37.03 31.78 37.05 31.8 37.07 31.82 37.09 31.84 37.11 31.86 37.13 31.89 37.15 31.91 37.17 31.93 37.19 31.95 37.21 31.98 37.23 32.01 37.25 32.04 37.27 32.07 37.3 32.1 37.32 32.13 37.34 32.16 37.36 32.19 37.38 32.22 37.39 32.25 37.41 32.28 37.43 32.31 37.45 32.34 37.46 32.37 37.48 32.4 37.49 32.43 37.51 32.46 37.52 32.49 37.53 32.52 37.54 32.56 37.55 32.59 37.57 32.62 37.58 32.65 37.59 32.68 37.59 32.71 37.6 32.74 37.61 32.78 37.62 32.81 37.62 32.84 37.63 32.87 37.63 32.9 37.64 32.94 37.64 32.97 37.65 33 37.65 33.01 37.65 33.02 37.65 33.05 37.65 33.08 37.65 33.12 37.65 33.15 37.65 33.17 37.65 33.28 37.65 33.31 37.65 33.35 37.65 33.39 37.65 33.43 37.65 33.48 37.65 33.52 37.64 33.56 37.64 33.61 37.64 33.65 37.63 33.69 37.63 33.74 37.62 33.78 37.62 33.82 37.61 33.87 37.6 33.91 37.59 33.95 37.59 34 37.58 34.04 37.57 34.04 37.57 34.14 37.55"/>
    <polyline class="cls-1" points="18.01 32.29 18.01 32.29 18.01 32.3 18.01 32.3 18.02 32.3 18.02 32.31 18.02 32.31 18.02 32.32 18.03 32.32 18.03 32.33 18.04 32.33 18.05 32.33 18.05 32.34 18.06 32.34 18.07 32.34 18.08 32.35 18.09 32.35 18.09 32.35 18.11 32.36 18.12 32.36 18.13 32.36 18.14 32.37 18.15 32.37 18.16 32.37 18.18 32.38 18.19 32.38 18.2 32.38 18.22 32.38 18.24 32.38 18.25 32.39 18.27 32.39 18.28 32.39 18.3 32.39 18.32 32.39 18.33 32.4 18.35 32.4 18.37 32.4 18.39 32.4 30.72 33.19"/>
    <polygon class="cls-1" points="23.28 46.48 19.96 46.27 19.94 46.27 19.92 46.26 19.91 46.26 19.89 46.25 19.88 46.24 19.86 46.23 19.85 46.22 19.84 46.21 19.82 46.2 19.81 46.18 19.8 46.17 19.79 46.15 19.79 46.14 19.78 46.12 19.77 46.1 19.77 46.08 19.77 46.07 19.77 46.05 19.77 46.03 19.77 46.03 19.77 45.95 19.77 45.86 19.78 45.77 19.78 45.69 19.78 45.6 19.79 45.52 19.79 45.43 19.79 45.35 19.79 45.26 19.79 45.17 19.79 45.09 19.79 45 19.79 44.92 19.79 44.83 19.79 44.75 19.79 44.66 19.79 44.58 19.79 44.49 19.79 44.41 19.79 44.32 19.79 44.24 19.79 44.15 19.79 44.07 19.78 43.98 19.78 43.9 19.77 43.81 19.77 43.73 19.77 43.65 19.76 43.56 19.76 43.48 19.76 43.46 19.76 43.44 19.76 43.42 19.77 43.41 19.77 43.39 19.78 43.38 19.79 43.36 19.8 43.35 19.81 43.33 19.82 43.32 19.83 43.31 19.84 43.3 19.86 43.29 19.87 43.29 19.89 43.28 19.91 43.28 19.92 43.28 19.93 43.27 19.95 43.28 23.27 43.49 23.29 43.49 23.3 43.49 23.32 43.5 23.34 43.5 23.35 43.51 23.37 43.52 23.38 43.53 23.4 43.54 23.41 43.55 23.42 43.57 23.43 43.58 23.44 43.6 23.45 43.61 23.46 43.63 23.47 43.65 23.47 43.67 23.48 43.68 23.48 43.7 23.48 43.72 23.48 43.8 23.49 43.88 23.49 43.97 23.5 44.05 23.5 44.14 23.5 44.22 23.5 44.3 23.51 44.39 23.51 44.47 23.51 44.56 23.51 44.64 23.51 44.73 23.52 44.81 23.52 44.9 23.52 44.98 23.52 45.07 23.52 45.16 23.52 45.24 23.51 45.33 23.51 45.41 23.51 45.5 23.51 45.58 23.51 45.67 23.51 45.75 23.5 45.84 23.5 45.93 23.5 46.01 23.5 46.1 23.49 46.18 23.49 46.27 23.49 46.29 23.48 46.31 23.48 46.33 23.47 46.34 23.47 46.36 23.46 46.38 23.45 46.39 23.44 46.41 23.43 46.42 23.41 46.43 23.4 46.44 23.39 46.45 23.37 46.46 23.35 46.47 23.34 46.47 23.32 46.48 23.31 46.48 23.29 46.48 23.28 46.48"/>
    <polygon class="cls-1" points="17.61 67.62 17.84 67.54 17.86 67.54 17.89 67.53 17.92 67.52 17.94 67.52 17.97 67.51 18 67.51 18.03 67.5 18.06 67.5 18.09 67.5 18.12 67.5 18.14 67.5 18.17 67.5 18.2 67.5 18.23 67.5 18.26 67.5 18.29 67.51 18.32 67.51 18.35 67.52 18.38 67.53 18.41 67.53 18.43 67.54 18.46 67.55 18.49 67.56 18.52 67.57 18.55 67.58 18.58 67.59 18.6 67.61 18.63 67.62 18.66 67.63 18.68 67.65 18.71 67.67 18.74 67.68 18.76 67.7 18.79 67.72 18.81 67.73 18.84 67.75 18.86 67.77 18.88 67.8 18.91 67.81 18.93 67.84 18.95 67.86 18.97 67.88 18.99 67.91 19.01 67.93 19.03 67.96 19.05 67.98 19.07 68.01 19.09 68.03 19.11 68.06 19.12 68.09 19.14 68.11 19.16 68.14 19.17 68.17 19.19 68.2 19.2 68.23 19.21 68.26 19.23 68.29 19.24 68.32 19.25 68.35 19.26 68.38 19.27 68.41 19.28 68.44 19.29 68.47 19.29 68.5 19.3 68.54 19.31 68.57 19.31 68.6 19.31 68.63 19.32 68.66 19.32 68.7 19.32 68.73 19.32 68.76 19.32 68.79 19.32 68.82 19.32 68.86 19.32 68.89 19.32 68.92 19.32 68.95 19.31 68.98 19.31 69.01 19.3 69.04 19.3 69.07 19.29 69.11 19.28 69.14 19.27 69.17 19.27 69.19 19.25 69.22 19.24 69.25 19.23 69.28 19.22 69.31 19.21 69.34 19.19 69.37 19.18 69.39 19.17 69.42 19.15 69.44 19.13 69.47 19.12 69.5 19.1 69.52 19.08 69.54 19.06 69.57 19.05 69.59 19.02 69.61 19 69.63 18.98 69.66 18.96 69.67 18.94 69.69 18.92 69.71 18.9 69.73 18.87 69.75 18.85 69.77 18.82 69.78 18.8 69.8 18.78 69.81 18.75 69.83 18.73 69.84 18.7 69.85 18.67 69.86 18.64 69.88 18.62 69.89 18.59 69.89 18.58 69.9 18.35 69.97 18.34 69.97 18.32 69.98 18.29 69.99 18.27 69.99 18.25 70 18.22 70 18.2 70.01 18.18 70.01 18.16 70.01 18.13 70.01 18.11 70.02 18.09 70.02 18.06 70.02 18.04 70.02 18.01 70.02 17.99 70.02 17.97 70.02 17.94 70.01 17.92 70.01 17.9 70.01 17.87 70 17.85 70 17.83 70 17.8 69.99 17.78 69.98 17.76 69.98 17.73 69.97 17.71 69.96 17.69 69.96 17.67 69.95 17.64 69.94 17.62 69.93 17.6 69.92 17.58 69.91 17.56 69.9 17.54 69.89 17.51 69.88 17.49 69.87 17.47 69.85 17.45 69.84 17.43 69.83 17.41 69.81 17.39 69.8 17.37 69.78 17.35 69.77 17.33 69.75 17.31 69.74 17.3 69.72 17.28 69.71 17.26 69.69 17.24 69.67 17.23 69.65 17.21 69.64 17.19 69.62 17.18 69.6 17.16 69.58 17.14 69.56 17.13 69.54 17.11 69.52 17.1 69.5 17.09 69.48 17.07 69.46 17.06 69.44 17.05 69.42 17.04 69.4 17.02 69.38 17.01 69.36 17 69.34 16.99 69.32 16.98 69.3 16.97 69.28 16.96 69.26 16.95 69.24 16.95 69.22 16.94 69.2 16.93 69.18 16.93 69.17 16.92 69.15 16.91 69.13 16.91 69.1 16.9 69.09 16.9 69.07 16.89 69.05 16.89 69.03 16.88 69.01 16.88 68.99 16.87 68.96 16.87 68.94 16.87 68.91 16.86 68.89 16.86 68.86 16.86 68.84 16.86 68.82 16.85 68.79 16.85 68.77 16.85 68.74 16.85 68.72 16.85 68.69 16.85 68.67 16.85 68.64 16.86 68.62 16.86 68.59 16.86 68.57 16.87 68.54 16.87 68.52 16.87 68.49 16.88 68.46 16.89 68.44 16.89 68.41 16.9 68.39 16.9 68.36 16.91 68.34 16.92 68.31 16.93 68.29 16.94 68.26 16.95 68.24 16.96 68.21 16.97 68.19 16.98 68.17 16.99 68.15 17 68.12 17.02 68.1 17.03 68.08 17.04 68.06 17.05 68.04 17.07 68.02 17.08 68 17.1 67.98 17.11 67.96 17.13 67.94 17.14 67.92 17.16 67.9 17.18 67.88 17.19 67.87 17.21 67.85 17.23 67.83 17.25 67.82 17.27 67.8 17.29 67.79 17.3 67.77 17.32 67.76 17.34 67.75 17.36 67.73 17.38 67.72 17.4 67.71 17.42 67.69 17.45 67.68 17.47 67.67 17.49 67.66 17.51 67.65 17.53 67.64 17.55 67.63 17.57 67.63 17.6 67.62 17.61 67.62 17.61 67.62 17.61 67.62"/>
    <line class="cls-1" x1="44.9" y1="64.79" x2="44.9" y2="64.94"/>
    <line class="cls-1" x1="43.39" y1="65.02" x2="43.4" y2="65.32"/>
    <line class="cls-1" x1="22.3" y1="63.97" x2="22.3" y2="63.84"/>
    <polyline class="cls-1" points="27.91 30.5 31.36 26.49 32.51 25.72 32.47 25.29 32.13 21.29"/>
  </g>
</svg>