<?xml version="1.0" encoding="utf-8"?>
<svg viewBox="5.665 0 63.424 75" xmlns="http://www.w3.org/2000/svg">
  <defs>
    <style>.cls-1,.cls-2{fill:none;stroke:#f4f4f4;stroke-linejoin:round;}.cls-1{fill-rule:evenodd;}</style>
  </defs>
  <title>f4_Optiv_Reference_2z543</title>
  <g id="Linework">
    <path class="cls-1" d="M10.09,54C9.1,53.42,8,53,7,52.48c0-1.93.06-3.75,0-5.68.68-.23,1.47-.36,2.17-.57l0-1.81"/>
    <path class="cls-1" d="M55.43,60.38l0,6.58L55,68.66c-3,.75-6.08,1.52-9.1,2.31l-1.3.32-2.27-.1L40,71.08s-1.81-.8-1.81-.8v-.94c-1.5.32-3.28.85-4.87,1.2"/>
    <path class="cls-1" d="M40,6.06c.46.14,4.88,2.27,5.46,2.53.39.18,1,.38,1.19.8"/>
    <path class="cls-1" d="M46.6,19c0-3.12,0-6.43,0-9.57a3.64,3.64,0,0,0-2-.29,14.22,14.22,0,0,0-4.15,1.12A27.69,27.69,0,0,0,37,11.83a12,12,0,0,0-2.37,1.46c-5-2.36-10-4.65-15-7"/>
    <path class="cls-1" d="M19.51,11.23v1.12c3,1.34,10.65,4.82,10.73,5.06s0,4,0,5.13"/>
    <path class="cls-1" d="M51.38,10c-.28,0-4.44,1.29-4.77,1.38"/>
    <path class="cls-1" d="M46.61,13.45c2.19-.55,5.57-1.55,7.76-2.11"/>
    <path class="cls-1" d="M50.49,12.4c1.23.68,3,1.68,4.35,2.26,1.18-.24,3-.86,4.21-1.1"/>
    <path class="cls-1" d="M22,13.47a6.93,6.93,0,0,0-3,4.91"/>
    <path class="cls-1" d="M59.57,13.89c-.7,1.2-2.62,1.75-4,2.25A111.28,111.28,0,0,1,42.45,20a141,141,0,0,1-14.2,2.82A17.72,17.72,0,0,1,23,23"/>
    <path class="cls-1" d="M27.75,16.13c-3.52,1-8.62,2.25-12.25,3.21"/>
    <path class="cls-1" d="M18.07,20.6v.34c0,4.83-.06,9.31,0,14.13"/>
    <path class="cls-1" d="M47,33.15v2.5c2.28,1.09,5.52,2.58,7.8,3.64"/>
    <path class="cls-1" d="M44.11,36C38.53,37.42,33,38.85,27.35,40.23,30,41.57,32.72,42.76,35.41,44c5.59-1.44,11.28-2.8,16.83-4.3C49.5,38.52,46.89,37.18,44.11,36Z"/>
    <path class="cls-1" d="M23.55,37.28c0,8,0,16.16-.1,24.12,1-.24,1.93-.51,2.93-.73,0-4.06.06-8,0-12.06.2-.09.53,0,.65-.22,0-3.46.1-7.81.08-11.2"/>
    <path class="cls-1" d="M56.5,40.16c-6.35,1.63-13.25,3.42-19.83,5.06a9,9,0,0,1-1.59.36l-8-3.75"/>
    <path class="cls-1" d="M7.13,40.27c1.46.7,3.5,1.5,5.09,2.24a7.17,7.17,0,0,0,1.62.75,3.81,3.81,0,0,0,.91-.21,2,2,0,0,0,.82-.3"/>
    <path class="cls-1" d="M53.56,45.12c1.62.73,3.69,1.72,5.27,2.49"/>
    <path class="cls-1" d="M55.2,41.31c-.09.58.25,1,.14,1.6-.15.06-.53.11-.68.17"/>
    <path class="cls-1" d="M13.7,46V43.27"/>
    <path class="cls-1" d="M36.17,47.74a17.07,17.07,0,0,0,0,1.77c1.6-.45,3.29-.83,4.91-1.26,0,0,3.88,2,4.09,2a6.88,6.88,0,0,0,1.4-.36c1.49-.37,2.92-.71,4.3-1.12-.23-.44-1.23-2.71-1.23-2.71,1.68-.41,3.34-.85,5-1.26a16.54,16.54,0,0,0,0-1.74C48.49,44.64,42.36,46.22,36.17,47.74Z"/>
    <path class="cls-1" d="M12.61,46c-1-.43-4.59-2.18-5.56-2.62a31.09,31.09,0,0,1,.08-3.14c.6-.29,7.19-2.34,8.48-2.67V34c-2-1-4.14-2-6.32-3-.58-.27-1.76-.59-2-1.08a19.28,19.28,0,0,1,0-3.47c0-3.42,0-6,0-9.39a9.1,9.1,0,0,1,0-1.84c.22-.81,1.73-1.52,2.49-1.88a64.09,64.09,0,0,1,9.65-3.36c0-2.14-.25-4.2.65-5.49A8.65,8.65,0,0,1,22.8,2.13,8.51,8.51,0,0,1,26.45.79a7.63,7.63,0,0,1,4,.83c3.05,1.42,6,2.83,9.11,4.26a4,4,0,0,0,.83.36c.77.14,1.63,0,2.34.08a5.26,5.26,0,0,1,1.88.5c2.71,1.24,5.37,2.51,8.13,3.8.7.32,6.24,2.82,6.79,3.24,0,4,0,8.58,0,12.72a8.15,8.15,0,0,1,0,1.8c-.13.45-.58.52-.91.83,0,4.63-.05,9.15,0,13.77"/>
    <path class="cls-1" d="M64.72,47.2a11.68,11.68,0,0,0,2-.25c.5-.14,1.57-.56,1.09-1.16-.64-.78-3.45-1-4.88-.58"/>
    <path class="cls-1" d="M42.52,51.72c-1.16-.54-2.77-1.28-4-1.85a5.48,5.48,0,0,0-1.26-.54c-.42,0-.87.34-1.31.29a5.52,5.52,0,0,1-1.08-.5c-2.55-1.19-5.38-2.48-7.79-3.6"/>
    <path class="cls-1" d="M26.46,48.6c2.65,1.21,5.84,2.69,8.55,3.95.38.17,1.33.73,1.33.73"/>
    <path class="cls-1" d="M15.58,46.26A8.79,8.79,0,0,0,12.8,46c-.74.05-2.58.33-2.57,1.08,0,.54.9.76,1.34.87a8.59,8.59,0,0,0,4,0"/>
    <path class="cls-1" d="M55,48.65c.29.69,1.25,2.62,1.25,2.62-3.87.86-7.84,2-11.65,2.9.5-1.08,1-2.15,1.45-3.28-3.19.72-6.49,1.64-9.76,2.41,0,4,0,8-.07,11.92,9.51-2.36,19-4.78,28.46-7.18,0-3.94,0-8,.07-11.88C61.57,46.92,58.13,47.74,55,48.65Z"/>
    <path class="cls-1" d="M7.05,46.8l3.15,1.39"/>
    <path class="cls-1" d="M50.9,48.79c1.76.74,3.52,1.71,5.23,2.36-.41-.68-.77-1.77-1.15-2.5-1.74-.76-3.46-1.73-5.21-2.47Z"/>
    <path class="cls-1" d="M61.19,59a6.26,6.26,0,0,0,.08,1.39c.26.75,1.56.72,2.38.94v4.19A10.16,10.16,0,0,0,66,65.37c.61-.11,1.55-.3,1.73-.83a10.53,10.53,0,0,0,0-2.2c0-5.3.16-11.12.09-16.24"/>
    <path class="cls-1" d="M10.23,47.09c0,5.06-.11,11-.11,16.18a9.48,9.48,0,0,0,0,2.28c.15.4.86.6,1.34.72a5.87,5.87,0,0,0,1.8.21s0-2.7,0-2.7c4.5,2,8.91,4.18,13.43,6.21"/>
    <path class="cls-1" d="M27.89,54.14c-.4.12-1,.34-1,.83s.8.74,1.3.86a8.21,8.21,0,0,0,3.94,0c.49-.12,1.32-.37,1.3-.9s-1.15-.82-1.55-.9a8.72,8.72,0,0,0-2.31-.14A6.56,6.56,0,0,0,27.89,54.14Z"/>
    <path class="cls-1" d="M26.88,55.15s0,0,0,0c0,5-.08,10.68-.08,15.79l0,2.27c.13.37.86.64,1.34.76,1.71.43,4.39.31,5.16-.76,0-2,.07-3.78.07-5.74,0-4.13,0-8.46,0-12.55"/>
    <line class="cls-2" x1="54.85" y1="68.68" x2="54.85" y2="60.53"/>
    <path class="cls-1" d="M55.42,64.79c2.73-.64,5.51-1.39,8.25-2"/>
    <path class="cls-1" d="M63.37,61.22c-2.67.72-5.25,1.26-7.95,1.94"/>
    <path class="cls-1" d="M26.7,68.51c-4.37-2-8.66-4.05-13-6L22.46,61"/>
    <path class="cls-1" d="M40.09,64.25c0,.75,0,1.67,0,2.42a11.9,11.9,0,0,1,1.62.11v1.73l-1.62.33,0,2.24"/>
    <path class="cls-1" d="M44.39,71.26c0-2.55,0-5.6,0-8.1"/>
    <path class="cls-1" d="M36.84,65.07c.54.36,2.71,1.38,3.23,1.6"/>
    <path class="cls-1" d="M33.39,68.38v.51c2.68-.66,5.64-1.37,8.28-2.07"/>
    <path class="cls-1" d="M22.91,37.16c0-4.76.06-9.42,0-14.19L7.58,15.49s-.38-.21.11-.88"/>
    <line class="cls-2" x1="17.69" y1="20.41" x2="30.19" y2="17.4"/>
    <path class="cls-1" d="M23.45,61.4c-.41-.22-7.63-3.16-7.94-3.47,0-3.28.05-6.54,0-9.86L15.61,34l7.3,3.24a17.47,17.47,0,0,0,5.31-.14c1.68-.21,3.33-.5,4.91-.79,6.41-1.2,19.58-4.18,25.46-7"/>
    <line class="cls-2" x1="46.08" y1="50.84" x2="41.11" y2="48.25"/>
    <line class="cls-2" x1="19.51" y1="11.23" x2="19.48" y2="9.93"/>
    <line class="cls-2" x1="34.58" y1="13.29" x2="34.58" y2="21.76"/>
    <path class="cls-1" d="M64.73,46.16,58.56,43c-1-.42-2.06-1-3-1.38-.06-.06,0-.21,0-.32s-.16.06-.29,0c0,0,1.41-.47,1.41-.47l0-.64-1.8-.91c0-2.81,0-5.69,0-8.56"/>
    <line class="cls-2" x1="38.22" y1="69.34" x2="40.07" y2="68.84"/>
    <line class="cls-2" x1="54.84" y1="14.66" x2="54.84" y2="16.42"/>
    <line class="cls-2" x1="50.49" y1="12.4" x2="50.49" y2="17.86"/>
    <line class="cls-2" x1="9.22" y1="46.23" x2="10.42" y2="46.8"/>
    <line class="cls-2" x1="13.3" y1="66.48" x2="16.66" y2="65.34"/>
    <line class="cls-2" x1="36.2" y1="65.22" x2="33.39" y2="64.01"/>
    <line class="cls-2" x1="13.27" y1="63.78" x2="13.66" y2="62.48"/>
  </g>
</svg>