<?xml version="1.0" encoding="utf-8"?>
<svg viewBox="10.837 0 53.079 75" xmlns="http://www.w3.org/2000/svg">
  <defs>
    <style>.cls-1{fill:none;stroke:#f4f4f4;stroke-linejoin:round;}</style>
  </defs>
  <title>f4_Optiv_Reference_6_6_3</title>
  <g id="Linework">
    <line class="cls-1" x1="27.67" y1="43.63" x2="27.75" y2="35.57"/>
    <line class="cls-1" x1="24.52" y1="35.06" x2="24.43" y2="43.7"/>
    <line class="cls-1" x1="34.74" y1="1.55" x2="22.41" y2="1.82"/>
    <line class="cls-1" x1="22.67" y1="61.71" x2="22.79" y2="50.36"/>
    <polyline class="cls-1" points="19.89 61.77 22.68 61.71 28.78 66.58"/>
    <polyline class="cls-1" points="22.35 1.86 22.34 1.86 22.33 1.85 22.32 1.85 22.32 1.85 22.31 1.85 22.31 1.84 22.3 1.84 22.3 1.84 22.3 1.84 22.3 1.84 22.31 1.83 22.31 1.83 22.32 1.83 22.32 1.83 22.33 1.83 22.34 1.83 22.35 1.83 22.36 1.82 22.37 1.82 22.38 1.82 22.39 1.82 22.41 1.82"/>
    <line class="cls-1" x1="22.41" y1="1.82" x2="22.41" y2="1.82"/>
    <line class="cls-1" x1="34.74" y1="1.55" x2="34.74" y2="1.55"/>
    <polyline class="cls-1" points="22.35 1.86 22.37 1.86 22.38 1.87 22.4 1.88 22.42 1.89 22.44 1.89 22.46 1.9 22.48 1.91 22.5 1.92 22.52 1.93 22.54 1.94 22.55 1.95 22.57 1.96 22.59 1.97 22.61 1.98 22.63 1.99 22.65 2 22.66 2.02 22.68 2.03 22.7 2.04 22.72 2.06 22.74 2.07 22.76 2.09 22.78 2.1 22.8 2.12 22.82 2.14 22.83 2.15 22.85 2.17 22.87 2.19 22.89 2.21 22.91 2.23 22.93 2.24 22.95 2.26 22.96 2.28 22.98 2.3 23 2.33 23.02 2.35 23.04 2.37 23.06 2.39 23.08 2.41 23.09 2.44 23.11 2.46 23.13 2.48 23.15 2.51 23.17 2.53 23.19 2.56 23.21 2.58 23.23 2.61 23.24 2.64 23.26 2.66 23.28 2.69 23.3 2.72 23.32 2.75 23.34 2.78 23.35 2.81 23.37 2.84 23.37 2.84 23.39 2.87 23.41 2.89 23.43 2.92 23.45 2.95 23.46 2.98 23.48 3.01 23.5 3.04 23.52 3.07 23.54 3.1 23.56 3.13 23.58 3.17 23.59 3.2 23.61 3.23 23.63 3.26 23.65 3.3 23.67 3.33 23.69 3.37 23.71 3.4 23.72 3.44 23.74 3.47 23.76 3.51 23.78 3.54 23.8 3.58 23.81 3.62 23.83 3.66 23.85 3.69 23.87 3.73 23.89 3.77 23.91 3.81 23.92 3.85 23.94 3.89 23.96 3.94 23.98 3.98 24 4.02 24.01 4.06 24.03 4.1 24.05 4.14 24.07 4.19 24.08 4.23 24.1 4.28 24.12 4.32 24.14 4.36 24.16 4.41 24.17 4.46 24.19 4.5 24.21 4.55 24.23 4.59 24.24 4.64 24.26 4.69 24.28 4.74 24.3 4.79 24.31 4.84 24.33 4.88 24.35 4.93 24.36 4.98 24.38 5.04 24.4 5.08 24.42 5.13 24.43 5.19 24.45 5.24 24.47 5.29 24.48 5.34 24.5 5.4 24.52 5.45 24.54 5.5 24.55 5.56 24.57 5.61 24.59 5.67 24.6 5.72 24.62 5.78 24.63 5.83 24.65 5.89 24.67 5.95 24.68 6 24.7 6.06 24.72 6.11 24.74 6.17 24.76 6.22 24.79 6.29 24.81 6.36 24.84 6.43 24.87 6.5 24.91 6.57 24.94 6.64 24.98 6.72 25.01 6.79 25.04 6.85 25.07 6.91 25.11 6.96 25.14 7.02 25.18 7.08 25.21 7.14 25.25 7.2 25.28 7.26 25.33 7.33 25.38 7.4 25.43 7.48 25.48 7.55 25.53 7.63 25.59 7.7 25.64 7.77 25.69 7.85 25.75 7.92 25.81 8 25.87 8.07 25.93 8.15 25.99 8.22 26.05 8.29 26.12 8.37 26.18 8.44 26.25 8.51 26.32 8.59 26.39 8.66 26.46 8.74 26.54 8.82 26.61 8.9 26.69 8.97 26.77 9.05 26.85 9.12 26.92 9.19 27 9.26 27.07 9.33 27.15 9.4 27.23 9.47 27.31 9.54 27.39 9.6 27.48 9.67 27.56 9.74 27.64 9.8 27.73 9.87 27.81 9.94 27.9 10 27.99 10.06 28.08 10.13 28.17 10.19 28.26 10.25 28.34 10.3 28.41 10.35 28.49 10.4 28.57 10.45 28.65 10.5 28.73 10.55 28.82 10.6 28.91 10.65 29 10.7 29.09 10.75 29.19 10.8 29.26 10.84 29.34 10.88 29.42 10.91 29.5 10.95 29.58 10.99 29.66 11.03 29.74 11.06 29.83 11.09 29.91 11.13 29.99 11.16 30.07 11.19 30.16 11.22 30.24 11.25 30.32 11.27 30.4 11.3 30.48 11.32 30.56 11.35 30.64 11.37 30.71 11.39 30.79 11.41 30.87 11.43 30.95 11.44 31.02 11.46 31.1 11.48 31.18 11.49 31.26 11.5 31.34 11.52 31.42 11.53 31.49 11.54 31.57 11.55 31.65 11.55 31.73 11.56 31.81 11.57 31.89 11.57 31.98 11.57 32.06 11.58 32.14 11.58 32.22 11.58 32.31 11.57 32.4 11.57 32.48 11.57 32.57 11.56 32.66 11.55 32.75 11.54 32.84 11.54 32.92 11.52 33.01 11.51 33.09 11.49 33.18 11.48 33.26 11.46 33.35 11.44 33.43 11.42 33.52 11.4 33.59 11.38 33.66 11.36 33.73 11.34 33.8 11.31 33.87 11.29 33.95 11.26 34.02 11.23 34.1 11.2 34.18 11.17 34.26 11.14 34.33 11.11 34.41 11.07 34.48 11.03 34.55 11 34.63 10.96 34.7 10.92 34.77 10.88 34.84 10.84 34.91 10.8 34.98 10.76 35.05 10.72 35.12 10.67 35.19 10.62 35.25 10.57 35.32 10.53 35.39 10.48 35.45 10.43 35.52 10.38 35.58 10.33 35.64 10.28 35.7 10.23 35.76 10.18 35.81 10.13 35.87 10.08 35.92 10.03 35.97 9.98 36.02 9.93 36.09 9.86 36.16 9.79 36.23 9.72 36.29 9.65 36.36 9.58 36.42 9.51 36.48 9.43 36.54 9.36 36.59 9.29 36.65 9.21 36.7 9.14 36.76 9.06 36.81 8.99 36.86 8.91 36.91 8.84 36.95 8.77 37 8.69 37.04 8.62 37.08 8.55 37.12 8.47 37.16 8.4 37.19 8.33 37.23 8.26 37.26 8.19 37.29 8.12 37.32 8.05 37.35 7.98 37.38 7.9 37.41 7.83 37.44 7.76 37.46 7.69 37.48 7.62 37.5 7.55 37.52 7.47 37.54 7.4 37.56 7.33 37.58 7.25 37.59 7.18 37.61 7.1 37.62 7.03 37.63 6.95 37.64 6.87 37.65 6.8 37.66 6.73 37.66 6.66 37.66 6.59 37.67 6.53 37.67 6.46 37.67 6.39 37.66 6.32 37.66 6.25 37.66 6.18 37.65 6.12 37.64 6.05 37.63 5.98 37.62 5.92 37.6 5.85 37.59 5.79 37.57 5.72 37.56 5.66 37.54 5.6 37.52 5.55 37.51 5.49 37.49 5.43 37.47 5.38 37.46 5.32 37.44 5.27 37.42 5.22 37.41 5.16 37.39 5.11 37.37 5.05 37.36 5 37.34 4.95 37.32 4.9 37.3 4.85 37.29 4.79 37.27 4.74 37.25 4.7 37.23 4.64 37.22 4.59 37.2 4.54 37.18 4.5 37.17 4.45 37.15 4.4 37.13 4.35 37.12 4.3 37.1 4.26 37.08 4.21 37.06 4.17 37.04 4.12 37.03 4.08 37.01 4.03 36.99 3.99 36.97 3.94 36.95 3.9 36.94 3.85 36.92 3.81 36.9 3.77 36.88 3.73 36.87 3.69 36.85 3.65 36.83 3.6 36.81 3.56 36.79 3.52 36.78 3.48 36.76 3.44 36.74 3.41 36.72 3.37 36.7 3.33 36.69 3.29 36.67 3.26 36.65 3.22 36.63 3.18 36.61 3.15 36.59 3.11 36.58 3.08 36.56 3.04 36.54 3.01 36.52 2.98 36.5 2.94 36.48 2.91 36.47 2.88 36.45 2.84 36.43 2.81 36.41 2.78 36.39 2.75 36.37 2.72 36.35 2.69 36.34 2.66 36.32 2.63 36.3 2.6 36.28 2.58 36.26 2.55 36.26 2.55 36.24 2.52 36.22 2.49 36.21 2.46 36.19 2.43 36.17 2.4 36.15 2.38 36.13 2.35 36.11 2.32 36.09 2.3 36.08 2.27 36.06 2.24 36.04 2.22 36.02 2.2 36 2.17 35.98 2.15 35.97 2.13 35.95 2.1 35.93 2.08 35.91 2.06 35.89 2.04 35.87 2.02 35.85 2 35.84 1.98 35.82 1.96 35.8 1.94 35.78 1.92 35.76 1.9 35.74 1.88 35.72 1.86 35.7 1.85 35.69 1.83 35.67 1.81 35.65 1.8 35.63 1.78 35.61 1.77 35.59 1.75 35.57 1.74 35.55 1.73 35.54 1.72 35.52 1.7 35.5 1.69 35.48 1.68 35.46 1.67 35.44 1.66 35.42 1.65 35.41 1.64 35.38 1.63 35.37 1.62 35.35 1.61 35.33 1.6 35.31 1.6 35.29 1.59 35.27 1.58 35.26 1.58 35.23 1.57 35.23 1.57 35.22 1.56 35.2 1.56 35.19 1.56 35.17 1.56 35.16 1.56 35.14 1.55 35.12 1.55 35.1 1.55 35.08 1.55 35.06 1.55 35.03 1.55 35.01 1.55 34.98 1.54 34.95 1.54 34.93 1.54 34.9 1.54 34.87 1.54 34.84 1.54 34.81 1.54 34.78 1.54 34.74 1.54 22.41 1.82"/>
    <polyline class="cls-1" points="22.4 30.25 22.38 32.42 22.38 32.43 22.38 32.44 22.38 32.45 22.38 32.47 22.38 32.48 22.38 32.49 22.38 32.51 22.38 32.52 22.38 32.53 22.38 32.54 22.38 32.56 22.38 32.57 22.38 32.58 22.39 32.59 22.39 32.6 22.39 32.61 22.39 32.62 22.39 32.63 22.39 32.64 22.39 32.65 22.39 32.66 22.39 32.67 22.4 32.68 22.4 32.69 22.4 32.7 22.4 32.71 22.4 32.71 22.41 32.72 22.41 32.73 22.41 32.74 22.41 32.74 22.41 32.75 22.42 32.76 22.42 32.76 22.42 32.77 22.43 32.77 22.43 32.78 22.43 32.78 22.43 32.78 22.43 32.79 22.44 32.79 22.44 32.79 23.09 33.32 23.09 33.32 23.09 33.32 23.09 33.33 23.09 33.33 23.1 33.33 23.1 33.34 23.1 33.34 23.1 33.35 23.11 33.36 23.11 33.36 23.11 33.37 23.11 33.38 23.11 33.38 23.12 33.39 23.12 33.4 23.12 33.41 23.12 33.42 23.13 33.42 23.13 33.44 23.13 33.44 23.13 33.45 23.13 33.46 23.13 33.48 23.14 33.49 23.14 33.5 23.14 33.51 23.14 33.52 23.14 33.53 23.14 33.53 23.21 34.24 23.86 34.76 23.88 34.78 23.89 34.79 23.92 34.81 23.94 34.82 23.96 34.84 23.99 34.85 24.02 34.87 24.04 34.88 24.07 34.9 24.1 34.91 24.14 34.93 24.17 34.94 24.21 34.95 24.25 34.97 24.29 34.99 24.33 35 24.37 35.02 24.41 35.03 24.46 35.04 24.5 35.06 24.55 35.08 24.6 35.09 24.65 35.1 24.7 35.12 24.75 35.13 24.8 35.15 24.86 35.16 24.91 35.17 24.96 35.19 25.03 35.2 25.09 35.21 25.15 35.23 25.22 35.24 25.29 35.26 25.36 35.27 25.43 35.28 25.49 35.3 25.56 35.31 25.63 35.32 25.7 35.33 25.77 35.34 25.84 35.35 25.91 35.37 25.98 35.38 26.06 35.39 26.13 35.4 26.21 35.41 26.29 35.42 26.36 35.43 26.43 35.44 26.51 35.45 26.59 35.46 26.66 35.47 26.75 35.48 26.84 35.49 26.93 35.5 27.03 35.51 27.12 35.52 27.21 35.52 27.31 35.53 27.4 35.54 27.49 35.55 27.59 35.56 27.69 35.57 27.79 35.58 27.89 35.58 27.98 35.59 28.08 35.6 28.18 35.6 28.28 35.61 28.38 35.62 28.48 35.62 28.59 35.63 28.69 35.63 28.79 35.64 28.89 35.64 28.98 35.65 29.07 35.65 29.17 35.66 29.26 35.66 29.35 35.66 29.45 35.66 29.55 35.67 29.65 35.67 29.75 35.67 29.85 35.67 29.95 35.68 30.05 35.68 30.15 35.68 30.24 35.68 30.33 35.68 30.42 35.68 30.51 35.68 30.6 35.68 30.68 35.68 30.77 35.68 30.86 35.68 30.95 35.68 31.03 35.68 31.12 35.68 31.2 35.68 31.31 35.68 31.41 35.68 31.5 35.68 31.6 35.67 31.69 35.67 31.78 35.67 31.87 35.67 31.96 35.66 32.05 35.66 32.14 35.66 32.23 35.66 32.32 35.65 32.41 35.65 32.5 35.64 32.59 35.64 32.68 35.63 32.77 35.63 32.86 35.62 32.95 35.62 33.04 35.61 33.13 35.61 33.22 35.6 33.31 35.59 33.4 35.59 33.49 35.58 33.58 35.58 33.67 35.57 33.75 35.56 33.83 35.55 33.91 35.55 33.99 35.54 34.06 35.53 34.14 35.52 34.23 35.51 34.31 35.5 34.39 35.49 34.47 35.48 34.55 35.47 34.63 35.46 34.71 35.45 34.78 35.44 34.85 35.43 34.92 35.42 34.99 35.41 35.06 35.4 35.13 35.39 35.19 35.38 35.26 35.37 35.32 35.36 35.38 35.34 35.45 35.33 35.51 35.32 35.56 35.31 35.62 35.3 35.67 35.29 35.73 35.27 35.78 35.26 35.84 35.25 35.89 35.23 35.95 35.22 36 35.2 36.05 35.19 36.1 35.18 36.15 35.16 36.2 35.15 36.25 35.13 36.29 35.12 36.33 35.1 36.37 35.09 36.41 35.07 36.45 35.05 36.49 35.04 36.52 35.02 36.56 35.01 36.59 34.99 36.62 34.98 36.65 34.96 36.67 34.94 36.7 34.93 36.72 34.91 36.74 34.9 36.76 34.88 36.78 34.87 36.79 34.85 36.81 34.84 36.82 34.82 36.83 34.81 36.84 34.79 36.85 34.77 36.86 34.76 36.87 34.74 36.87 34.73 36.87 34.71 36.87 34.7 36.87 34.69 36.87 34.69 37.67 6.57"/>
    <line class="cls-1" x1="37.37" y1="16.95" x2="61.85" y2="16.4"/>
    <polyline class="cls-1" points="17.27 17.4 16.69 18.95 16.69 18.95 16.55 30.39 22.92 30.24 23.31 30.56 23.31 30.56 23.32 30.56 23.32 30.56 23.32 30.56 23.32 30.56 23.32 30.56 23.33 30.56 23.33 30.56 23.33 30.56 23.34 30.56 23.34 30.55 23.34 30.55 23.34 30.55 23.34 30.54 23.35 30.54 23.35 30.53 23.35 30.53 23.35 30.52 23.35 30.51 23.36 30.51 23.36 30.5 23.36 30.49 23.36 30.48 23.36 30.48 23.36 30.47 23.37 30.46 23.37 30.45 23.37 30.44 23.37 30.43 23.37 30.42 23.37 30.41 23.37 30.4 23.38 30.39 23.38 30.38 23.38 30.37 23.38 30.36 23.38 30.34 23.38 30.33 23.38 30.32 23.38 30.31 23.38 30.3 23.38 30.29 23.51 17.31 23.51 17.3 23.51 17.29 23.51 17.27 23.51 17.26 23.51 17.25 23.51 17.24 23.51 17.23 23.51 17.21 23.51 17.2 23.51 17.19 23.51 17.18 23.51 17.17 23.51 17.15 23.51 17.14 23.5 17.13 23.5 17.12 23.5 17.11 23.5 17.1 23.5 17.09 23.5 17.08 23.5 17.07 23.5 17.06 23.49 17.05 23.49 17.04 23.49 17.03 23.49 17.02 23.48 17.01 23.48 17 23.48 17 23.48 16.99 23.48 16.98 23.48 16.98 23.47 16.97 23.47 16.96 23.47 16.96 23.47 16.95 23.46 16.95 23.46 16.95 23.46 16.94 23.46 16.94 23.45 16.94 23.45 16.93 22.84 16.44 22.74 16.36 20.89 14.86 20.88 14.85 20.88 14.84 20.87 14.83 20.86 14.82 20.86 14.81 20.86 14.81 20.85 14.8 20.85 14.79 20.85 14.79 22.3 1.84"/>
    <polyline class="cls-1" points="53.02 45.94 53.03 45.64 53.04 45.28 53.05 44.92 53.06 44.57 53.07 44.21 53.08 43.85 53.09 43.5 53.1 43.14 53.11 42.79 53.13 42.44 53.14 42.08 53.15 41.73 53.16 41.37 53.17 41.02 53.19 40.66 53.2 40.31 53.21 39.96 53.23 39.61 53.24 39.25 53.25 38.9 53.27 38.55 53.28 38.2 53.3 37.85 53.31 37.5 53.33 37.15 53.34 36.8 53.36 36.45 53.37 36.1 53.39 35.75 53.4 35.4 53.42 35.05 53.43 34.7 53.45 34.36 53.47 34.01 53.48 33.66 53.5 33.31 53.52 32.97 53.54 32.62 53.55 32.28 53.57 31.93 53.59 31.59 53.61 31.24 53.63 30.9 53.64 30.55 53.66 30.21 53.68 29.87 53.7 29.55"/>
    <line class="cls-1" x1="56.62" y1="29.49" x2="56.62" y2="29.49"/>
    <line class="cls-1" x1="57.59" y1="49.58" x2="57.8" y2="29.55"/>
    <line class="cls-1" x1="56.62" y1="29.49" x2="61.13" y2="29.39"/>
    <polyline class="cls-1" points="62.3 29.36 61.99 60.5 61.58 60.51"/>
    <line class="cls-1" x1="61.13" y1="29.39" x2="61.13" y2="29.39"/>
    <polyline class="cls-1" points="37.01 29.93 62.3 29.36 62.41 17.99 61.85 16.4 60.88 15.61 60.69 15.46 59.01 14.09 59 14.08 58.99 14.07 58.98 14.07 58.97 14.07 58.97 14.07 58.96 14.06 58.96 14.06 37.43 14.81"/>
    <polyline class="cls-1" points="19.89 30.32 15.38 30.42 16.54 31.36 16.23 61.53"/>
    <line class="cls-1" x1="19.89" y1="30.31" x2="19.89" y2="30.32"/>
    <polygon class="cls-1" points="23.96 43.83 23.96 43.82 23.95 43.82 23.95 43.82 23.95 43.81 23.95 43.81 23.95 43.81 23.95 43.8 23.95 43.8 23.95 43.8 23.95 43.8 23.95 43.79 23.95 43.79 23.96 43.79 23.96 43.78 23.96 43.78 23.97 43.78 23.97 43.78 23.98 43.77 23.98 43.77 23.99 43.77 23.99 43.77 24 43.76 24.01 43.76 24.02 43.76 24.02 43.76 24.03 43.75 24.04 43.75 24.05 43.75 24.06 43.74 24.07 43.74 24.08 43.74 24.09 43.74 24.1 43.74 24.11 43.73 24.12 43.73 24.13 43.73 24.15 43.73 24.16 43.73 24.17 43.73 24.18 43.72 24.2 43.72 24.21 43.72 24.23 43.72 24.24 43.72 24.25 43.72 24.27 43.71 24.28 43.71 24.3 43.71 24.32 43.71 24.33 43.71 24.35 43.71 24.36 43.7 24.38 43.7 24.4 43.7 24.41 43.7 24.43 43.7 24.45 43.7 24.46 43.7 24.48 43.7 24.5 43.7 24.52 43.7 48.04 43.17 48.06 43.17 48.07 43.17 48.09 43.17 48.11 43.17 48.13 43.17 48.15 43.17 48.16 43.17 48.18 43.17 48.2 43.17 48.22 43.17 48.23 43.17 48.25 43.17 48.27 43.17 48.29 43.17 48.3 43.17 48.32 43.17 48.34 43.18 48.36 43.18 48.38 43.18 48.39 43.18 48.41 43.18 48.43 43.18 48.44 43.18 48.46 43.18 48.48 43.18 48.49 43.19 48.51 43.19 48.52 43.19 48.54 43.19 48.55 43.19 48.57 43.19 48.59 43.2 48.6 43.2 48.61 43.2 48.63 43.2 48.64 43.2 48.65 43.21 48.67 43.21 48.68 43.21 48.69 43.21 48.7 43.22 48.72 43.22 48.73 43.22 48.74 43.22 48.75 43.22 48.76 43.23 48.77 43.23 48.78 43.23 48.79 43.23 48.8 43.24 48.8 43.24 48.81 43.24 48.82 43.24 48.83 43.25 48.84 43.25 48.84 43.25 48.85 43.26 48.85 43.26 48.86 43.26 48.86 43.27 48.87 43.27 48.87 43.27 53.34 46.9 53.35 46.91 53.46 47.02 53.46 47.02 53.46 47.02 53.47 47.03 53.47 47.03 53.47 47.03 53.47 47.03 53.47 47.04 53.47 47.04 53.47 47.04 53.47 47.05 53.47 47.05 53.46 47.05 53.46 47.06 53.46 47.06 53.45 47.06 53.45 47.07 53.45 47.07 53.44 47.07 53.44 47.08 53.43 47.08 53.43 47.08 53.42 47.08 53.41 47.09 53.4 47.09 53.4 47.09 53.39 47.09 53.38 47.1 53.37 47.1 53.36 47.1 53.35 47.11 53.34 47.11 53.33 47.11 53.32 47.11 53.31 47.12 53.3 47.12 53.28 47.12 53.27 47.12 53.26 47.13 53.25 47.13 53.23 47.13 53.22 47.13 53.2 47.13 53.19 47.14 53.18 47.14 53.16 47.14 53.15 47.14 53.13 47.14 53.11 47.15 53.1 47.15 53.08 47.15 53.06 47.15 53.05 47.15 53.03 47.15 53.01 47.15 52.99 47.16 52.98 47.16 52.96 47.16 52.94 47.16 52.92 47.16 52.9 47.16 52.88 47.16 52.87 47.16 52.85 47.16 52.83 47.16 52.81 47.16 52.81 47.16 29.29 47.69 29.27 47.69 29.25 47.69 29.23 47.69 29.21 47.69 29.19 47.69 29.17 47.69 29.15 47.69 29.13 47.69 29.11 47.69 29.09 47.69 29.07 47.69 29.05 47.69 29.03 47.69 29.02 47.69 29 47.69 28.98 47.69 28.96 47.69 28.94 47.69 28.92 47.69 28.9 47.68 28.88 47.68 28.86 47.68 28.84 47.68 28.82 47.68 28.81 47.68 28.79 47.68 28.77 47.67 28.75 47.67 28.74 47.67 28.72 47.67 28.7 47.67 28.69 47.67 28.67 47.66 28.65 47.66 28.64 47.66 28.62 47.66 28.61 47.66 28.59 47.66 28.58 47.65 28.56 47.65 28.55 47.65 28.54 47.65 28.52 47.64 28.51 47.64 28.5 47.64 28.48 47.63 28.47 47.63 28.46 47.63 28.45 47.63 28.44 47.62 28.43 47.62 28.42 47.62 28.41 47.62 28.4 47.61 28.39 47.61 28.38 47.61 28.37 47.6 28.36 47.6 28.36 47.6 28.35 47.59 28.34 47.59 28.34 47.59 28.33 47.59 28.33 47.58 28.32 47.58 28.32 47.58 23.96 43.83"/>
    <polyline class="cls-1" points="50.84 47.27 47.49 44.78 47.49 44.77 47.49 44.77 47.48 44.77 47.48 44.77 47.48 44.77 47.47 44.77 47.47 44.76 47.46 44.76 47.46 44.76 47.45 44.76 47.44 44.76 47.44 44.76 47.43 44.76 47.42 44.75 47.41 44.75 47.41 44.75 47.4 44.75 47.39 44.75 47.38 44.75 47.37 44.75 47.36 44.75 47.35 44.74 47.34 44.74 47.33 44.74 47.32 44.74 47.31 44.74 47.3 44.74 47.29 44.74 47.28 44.74 47.27 44.74 47.26 44.74 47.24 44.74 47.23 44.74 47.22 44.74 47.21 44.74 47.2 44.74 47.19 44.74 47.17 44.74 47.16 44.74 47.15 44.74 47.14 44.74 47.13 44.74 47.13 44.74 27.67 45.14 30.79 47.66"/>
    <line class="cls-1" x1="28.28" y1="51.39" x2="28.3" y2="47.58"/>
    <polyline class="cls-1" points="23.96 43.82 23.92 47.05 23.92 48.01 27.11 50.44 27.11 50.44 28.28 51.39 28.28 51.39 28.29 51.4 28.29 51.4 28.3 51.4 28.3 51.4 28.31 51.41 28.32 51.41 28.32 51.41 28.33 51.42 28.34 51.42 28.35 51.42 28.36 51.42 28.37 51.43 28.38 51.43 28.39 51.43 28.4 51.44 28.41 51.44 28.42 51.44 28.43 51.44 28.44 51.45 28.46 51.45 28.47 51.45 28.48 51.45 28.5 51.46 28.51 51.46 28.52 51.46 28.54 51.46 28.55 51.47 28.57 51.47 28.58 51.47 28.6 51.47 28.61 51.47 28.63 51.48 28.65 51.48 28.66 51.48 28.68 51.48 28.7 51.48 28.72 51.48 28.73 51.49 28.75 51.49 28.77 51.49 28.79 51.49 28.8 51.49 28.82 51.49 28.84 51.49 28.86 51.49 28.88 51.5 28.9 51.5 28.92 51.5 28.94 51.5 28.96 51.5 28.98 51.5 28.99 51.5 29.01 51.5 29.03 51.5 29.05 51.5 29.07 51.5 29.09 51.5 29.11 51.5 29.13 51.5 29.15 51.5 29.17 51.5 29.19 51.5 29.21 51.5 29.23 51.5 29.25 51.5 29.25 51.5 32.75 51.42 49 51.04 52.77 50.97 52.79 50.97 52.81 50.97 52.83 50.97 52.85 50.97 52.86 50.97 52.88 50.97 52.9 50.97 52.92 50.97 52.94 50.97 52.95 50.97 52.97 50.97 52.99 50.96 53.01 50.96 53.02 50.96 53.04 50.96 53.06 50.96 53.07 50.96 53.09 50.95 53.1 50.95 53.12 50.95 53.14 50.95 53.15 50.95 53.17 50.95 53.18 50.94 53.19 50.94 53.21 50.94 53.22 50.94 53.23 50.93 53.24 50.93 53.26 50.93 53.27 50.93 53.28 50.92 53.29 50.92 53.3 50.92 53.31 50.92 53.32 50.91 53.33 50.91 53.34 50.91 53.35 50.91 53.36 50.91 53.37 50.9 53.37 50.9 53.38 50.9 53.39 50.89 53.39 50.89 53.4 50.89 53.4 50.88 53.41 50.88 53.41 50.88 53.42 50.87 53.42 50.87 53.42 50.87 53.42 50.87 53.43 50.86 53.43 50.86 53.43 50.86 53.43 50.85 53.43 50.85 53.46 50.88 53.47 47.04"/>
    <polyline class="cls-1" points="23.92 48.01 23.92 48.01 20.88 48.01"/>
    <polyline class="cls-1" points="28.7 55.06 28.75 55.24 28.79 55.42 28.84 55.6 28.9 55.81 28.96 56.02 28.77 66.63 28.71 72.89 28.71 72.9 28.71 72.91 28.71 72.93 28.72 72.94 28.73 72.96 28.74 72.97 28.75 72.98 28.77 73 28.79 73.01 28.81 73.02 28.83 73.04 28.86 73.05 28.88 73.06 28.91 73.08 28.94 73.09 28.98 73.1 29.01 73.12 29.05 73.13 29.09 73.14 29.13 73.16 29.17 73.17 29.22 73.18 29.26 73.19 29.31 73.2 29.36 73.22 29.42 73.23 29.47 73.24 29.52 73.25 29.58 73.26 29.64 73.27 29.7 73.28 29.77 73.29 29.83 73.3 29.9 73.31 29.96 73.32 30.03 73.33 30.1 73.34 30.17 73.35 30.25 73.36 30.32 73.36 30.39 73.37 30.47 73.38 30.55 73.39 30.62 73.39 30.7 73.4 30.78 73.41 30.86 73.41 30.94 73.42 31.02 73.42 31.11 73.43 31.19 73.43 31.27 73.44 31.36 73.44 31.44 73.44 31.53 73.44 31.61 73.45 31.7 73.45 31.79 73.45 31.87 73.45 31.96 73.45 32.04 73.45 32.13 73.45 32.21 73.45 32.3 73.45 32.39 73.45 32.47 73.45 32.56 73.45 32.64 73.45 32.72 73.45 32.81 73.44 32.89 73.44 32.98 73.44 33.05 73.44 33.14 73.43 33.22 73.43 33.3 73.42 33.38 73.42 33.45 73.42 33.53 73.41 33.6 73.4 33.68 73.4 33.75 73.39 33.83 73.38 33.9 73.38 33.97 73.37 34.03 73.36 34.1 73.35 34.16 73.34 34.23 73.34 34.29 73.33 34.35 73.32 34.41 73.31 34.47 73.3 34.52 73.29 34.58 73.28 34.63 73.27 34.68 73.26 34.73 73.25 34.78 73.23 34.82 73.22 34.86 73.21 34.91 73.2 34.94 73.19 34.98 73.17 35.02 73.16 35.05 73.15 35.08 73.14 35.11 73.12 35.13 73.11 35.16 73.1 35.18 73.09 35.2 73.07 35.22 73.06 35.23 73.05 35.25 73.03 35.26 73.02 35.27 73 35.27 72.99 35.28 72.98 35.28 72.96 35.28 72.96 35.28 72.96 35.34 66.7"/>
    <polyline class="cls-1" points="28.8 66.59 29.08 66.6 29.36 66.6 29.64 66.61 29.92 66.62 30.2 66.62 30.48 66.63 30.76 66.63 31.04 66.64 31.32 66.64 31.6 66.64 31.89 66.65 32.17 66.65 32.45 66.66 32.73 66.66 33.01 66.66 33.29 66.66 33.57 66.67 33.85 66.67 34.13 66.67 34.41 66.67 34.7 66.67 34.98 66.68 35.26 66.68 35.54 66.68 35.82 66.68 36.1 66.68 36.38 66.68 36.66 66.68 36.94 66.68 37.23 66.68 37.5 66.68 37.79 66.68 38.06 66.68 38.34 66.68 38.63 66.68 38.91 66.68 39.19 66.68 39.47 66.68 39.74 66.67 40.02 66.67 40.3 66.67 40.58 66.67 40.86 66.66 41.14 66.66 41.42 66.66 41.7 66.66 41.98 66.65 42.26 66.65 42.53 66.65 42.81 66.64 43.09 66.64 43.37 66.63 43.64 66.63 43.92 66.62 44.2 66.62 44.48 66.61 44.75 66.61 45.03 66.6 45.3 66.59 45.58 66.59 45.85 66.58 46.13 66.58 46.41 66.57 46.68 66.56 46.95 66.56 47.23 66.55 47.5 66.54 47.78 66.53 48.05 66.53 48.32 66.52 48.59 66.51 48.87 66.5 49.14 66.49 49.41 66.48 49.68 66.47 49.95 66.47 50.22 66.46 50.49 66.44 50.76 66.44 51.03 66.42 51.3 66.42 51.57 66.41 51.84 66.39 52.11 66.38 52.38 66.37 52.65 66.36 52.91 66.35 53.18 66.34 53.45 66.33 53.71 66.31 53.98 66.3 54.24 66.29 54.51 66.28 54.77 66.26 55.03 66.25 55.3 66.24 55.56 66.22 55.82 66.21 56.08 66.2 56.34 66.18 56.61 66.17 56.87 66.15 57.13 66.14 57.39 66.12 57.65 66.11 57.91 66.09 58.16 66.08 58.42 66.06 58.68 66.05 58.93 66.03 59.19 66.02 59.45 66 59.7 65.98 59.95 65.96 60.21 65.95 60.46 65.93 60.72 65.91 60.97 65.9 61.22 65.88 61.47 65.86 61.58 55.32 61.53 55.14 61.48 54.96 61.43 54.78 61.37 54.56 61.32 54.35 55.6 49.65 57.54 49.6 54.61 47.24 52.95 45.88 52.11 45.9"/>
    <polyline class="cls-1" points="61.37 54.33 61.12 54.34 60.87 54.36 60.62 54.38 60.37 54.4 60.11 54.41 59.86 54.43 59.6 54.45 59.35 54.47 59.09 54.48 58.84 54.5 58.58 54.51 58.33 54.53 58.07 54.55 57.81 54.56 57.55 54.58 57.3 54.59 57.04 54.61 56.78 54.62 56.52 54.64 56.26 54.65 55.99 54.67 55.73 54.68 55.47 54.69 55.21 54.71 54.94 54.72 54.68 54.73 54.42 54.75 54.15 54.76 53.89 54.77 53.62 54.78 53.36 54.8 53.09 54.81 52.82 54.82 52.56 54.83 52.29 54.84 52.02 54.85 51.75 54.87 51.48 54.88 51.22 54.89 50.95 54.9 50.68 54.91 50.41 54.92 50.14 54.93 49.87 54.94 49.59 54.95 49.32 54.96 49.05 54.97 48.78 54.97 48.51 54.98 48.23 54.99 47.96 55 47.69 55.01 47.41 55.02 47.14 55.02 46.87 55.03 46.59 55.04 46.32 55.04 46.04 55.05 45.77 55.06 45.49 55.06 45.21 55.07 44.94 55.08 44.66 55.08 44.39 55.09 44.11 55.09 43.83 55.1 43.55 55.1 43.28 55.11 43 55.11 42.72 55.11 42.44 55.12 42.16 55.12 41.88 55.13 41.61 55.13 41.33 55.13 41.05 55.14 40.77 55.14 40.49 55.14 40.21 55.14 39.93 55.15 39.65 55.15 39.37 55.15 39.09 55.15 38.81 55.15 38.53 55.15 38.25 55.15 37.97 55.16 37.69 55.16 37.41 55.16 37.13 55.16 36.85 55.16 36.57 55.16 36.29 55.15 36.01 55.15 35.72 55.15 35.44 55.15 35.16 55.15 34.88 55.15 34.6 55.15 34.32 55.14 34.04 55.14 33.76 55.14 33.47 55.14 33.19 55.13 32.91 55.13 32.63 55.13 32.35 55.12 32.07 55.12 31.79 55.12 31.51 55.11 31.23 55.11 30.94 55.1 30.66 55.1 30.38 55.09 30.1 55.09 29.82 55.08 29.54 55.08 29.26 55.07 28.98 55.06 28.7 55.06 28.33 54.86 22.79 50.36 20.86 50.4 21.05 31.26 19.89 30.32"/>
    <line class="cls-1" x1="53.36" y1="54.8" x2="48.77" y2="51.05"/>
    <line class="cls-1" x1="57.82" y1="66.07" x2="57.83" y2="66.09"/>
    <polyline class="cls-1" points="57.9 66.19 57.84 72.45 57.84 72.46 57.83 72.47 57.83 72.49 57.82 72.5 57.81 72.51 57.8 72.53 57.79 72.54 57.77 72.55 57.76 72.57 57.74 72.58 57.71 72.59 57.69 72.61 57.66 72.62 57.63 72.63 57.6 72.64 57.57 72.66 57.54 72.67 57.5 72.68 57.46 72.69 57.42 72.7 57.38 72.72 57.33 72.73 57.29 72.74 57.24 72.75 57.19 72.76 57.13 72.77 57.08 72.78 57.02 72.79 56.97 72.8 56.91 72.81 56.85 72.82 56.78 72.83 56.72 72.84 56.66 72.85 56.59 72.86 56.52 72.86 56.45 72.87 56.38 72.88 56.31 72.89 56.23 72.89 56.16 72.9 56.09 72.9 56.01 72.91 55.93 72.91 55.85 72.92 55.77 72.92 55.69 72.93 55.61 72.93 55.53 72.93 55.45 72.94 55.36 72.94 55.28 72.94 55.2 72.94 55.11 72.95 55.03 72.95 54.94 72.95 54.86 72.95 54.77 72.95 54.69 72.95 54.6 72.95 54.51 72.95 54.43 72.95 54.34 72.95 54.25 72.94 54.17 72.94 54.08 72.94 54 72.94 53.91 72.93 53.83 72.93 53.75 72.92 53.66 72.92 53.58 72.92 53.5 72.91 53.42 72.9 53.34 72.9 53.26 72.89 53.18 72.89 53.1 72.88 53.02 72.87 52.95 72.87 52.87 72.86 52.8 72.85 52.73 72.84 52.66 72.83 52.59 72.82 52.52 72.81 52.45 72.81 52.39 72.8 52.32 72.79 52.26 72.78 52.2 72.77 52.14 72.75 52.08 72.74 52.03 72.73 51.97 72.72 51.92 72.71 51.87 72.7 51.82 72.69 51.77 72.67 51.73 72.66 51.68 72.65 51.64 72.64 51.6 72.63 51.57 72.61 51.53 72.6 51.5 72.59 51.47 72.57 51.44 72.56 51.41 72.55 51.39 72.53 51.36 72.52 51.34 72.5 51.33 72.49 51.31 72.48 51.3 72.46 51.29 72.45 51.28 72.43 51.27 72.42 51.27 72.41 51.26 72.39 51.26 72.39 51.26 72.38 51.32 66.39"/>
    <polyline class="cls-1" points="51.31 67.78 51.23 67.78 51.15 67.78 51.06 67.78 50.98 67.78 50.89 67.78 50.81 67.78 50.72 67.78 50.63 67.78 50.55 67.78 50.46 67.78 50.38 67.77 50.29 67.77 50.21 67.77 50.12 67.76 50.04 67.76 49.96 67.75 49.87 67.75 49.79 67.75 49.71 67.74 49.63 67.73 49.55 67.73 49.47 67.72 49.39 67.72 49.32 67.71 49.24 67.7 49.17 67.69 49.09 67.69 49.02 67.68 48.95 67.67 48.88 67.66 48.81 67.65 48.74 67.64 48.68 67.63 48.62 67.62 48.55 67.61 48.49 67.6 48.43 67.59 48.38 67.58 48.32 67.57 48.27 67.56 48.21 67.55 48.16 67.53 48.11 67.52 48.06 67.51 48.02 67.5 47.98 67.48 47.94 67.47 47.9 67.46 47.86 67.45 47.83 67.43 47.79 67.42 47.76 67.41 47.73 67.39 47.7 67.38 47.68 67.37 47.66 67.35 47.64 67.34 47.62 67.33 47.6 67.31 47.59 67.3 47.58 67.28 47.57 67.27 47.56 67.26 47.56 67.24 47.55 67.23 47.55 67.22 47.56 66.51"/>
    <polyline class="cls-1" points="26.45 64.78 26.42 67.91 26.42 67.92 26.41 67.93 26.41 67.94 26.4 67.95 26.4 67.97 26.38 67.98 26.37 68 26.36 68.01 26.34 68.02 26.32 68.04 26.3 68.05 26.27 68.06 26.25 68.08 26.22 68.09 26.19 68.1 26.15 68.11 26.12 68.13 26.08 68.14 26.04 68.15 26 68.16 25.96 68.17 25.91 68.19 25.87 68.2 25.82 68.21 25.77 68.22 25.72 68.23 25.66 68.24 25.61 68.25 25.55 68.26 25.49 68.27 25.43 68.28 25.37 68.28 25.3 68.29 25.24 68.3 25.17 68.31 25.1 68.32 25.03 68.33 24.96 68.33 24.89 68.34 24.82 68.35 24.74 68.35 24.67 68.36 24.59 68.37 24.51 68.37 24.43 68.38 24.36 68.38 24.27 68.38 24.19 68.39 24.11 68.39 24.03 68.39 23.95 68.4 23.86 68.4 23.78 68.4 23.7 68.4 23.61 68.41 23.52 68.41 23.44 68.41 23.35 68.41 23.27 68.41 23.18 68.41 23.09 68.41 23.01 68.41 22.92 68.4 22.84 68.4 22.75 68.4 22.66 68.39 22.58 68.39 22.5 68.39 22.41 68.39 22.33 68.38 22.25 68.38 22.16 68.37 22.08 68.37 22 68.36 21.92 68.36 21.84 68.35 21.76 68.34 21.68 68.34 21.61 68.33 21.53 68.32 21.45 68.31 21.38 68.31 21.31 68.3 21.24 68.29 21.17 68.28 21.1 68.27 21.03 68.26 20.97 68.25 20.91 68.24 20.84 68.23 20.78 68.22 20.72 68.21 20.66 68.2 20.61 68.19 20.55 68.18 20.5 68.17 20.45 68.16 20.4 68.14 20.35 68.13 20.31 68.12 20.27 68.11 20.23 68.09 20.19 68.08 20.15 68.07 20.11 68.06 20.08 68.04 20.05 68.03 20.02 68.02 19.99 68 19.97 67.99 19.95 67.97 19.93 67.96 19.91 67.95 19.89 67.94 19.88 67.92 19.87 67.91 19.86 67.89 19.85 67.88 19.85 67.86 19.84 67.85 19.84 67.84 19.91 61.45 16.23 61.53 11.89 58 11.9 57.64 11.9 57.28 11.9 56.92 11.91 56.56 11.91 56.2 11.92 55.84 11.92 55.48 11.93 55.12 11.94 54.76 11.94 54.4 11.95 54.04 11.95 53.68 11.96 53.33 11.96 52.97 11.97 52.61 11.98 52.25 11.99 51.89 11.99 51.53 12 51.18 12.01 50.82 12.02 50.46 12.02 50.11 12.03 49.75 12.04 49.39 12.05 49.04 12.06 48.68 12.07 48.33 12.08 47.97 12.09 47.62 12.1 47.26 12.11 46.91 12.12 46.55 12.13 46.2 12.14 45.84 12.15 45.49 12.16 45.14 12.17 44.78 12.18 44.43 12.19 44.08 12.2 43.73 12.22 43.38 12.23 43.02 12.24 42.67 12.25 42.32 12.27 41.97 12.28 41.62 12.29 41.27 12.3 40.92 12.32 40.57 12.33 40.22 12.35 39.87 12.36 39.52 12.37 39.18 12.39 38.83 12.4 38.48 12.42 38.13 12.43 37.78 12.45 37.44 12.46 37.09 12.48 36.75 12.49 36.4 12.51 36.05 12.53 35.71 12.54 35.37 12.56 35.02 12.58 34.68 12.6 34.33 12.61 33.99 12.63 33.65 12.65 33.3 12.66 32.96 12.68 32.62 12.7 32.28 12.72 31.94 12.74 31.59 12.76 31.25 12.78 30.91 12.8 30.57 12.81 30.24 12.84 29.9 12.85 29.56 12.88 29.22 12.89 28.88 12.92 28.55 12.94 28.21 12.96 27.87 12.98 27.54 13 27.2 13.02 26.86 13.04 26.53 13.06 26.2 13.09 25.86 13.11 25.53 13.13 25.19 13.15 24.86 13.18 24.53 13.2 24.2 13.22 23.86 13.24 23.54 13.27 23.2 13.29 22.88 13.32 22.54 13.34 22.21 13.36 21.89 13.39 21.56 13.41 21.23 13.44 20.9 13.46 20.57 13.49 20.25 13.51 19.92 13.54 19.6 13.56 19.27 13.59 18.95 13.62 18.62 13.64 18.3 13.67 17.98 13.7 17.65 13.72 17.33 13.75 17.01 13.78 16.69 13.94 15.89 14.07 15.27 14.09 15.24 14.11 15.22 14.13 15.2 14.15 15.18 14.17 15.16 14.19 15.14 14.21 15.13 14.23 15.12 14.24 15.11 14.26 15.1 14.28 15.09 14.29 15.08 14.3 15.07 14.32 15.07 14.33 15.07 14.34 15.07 14.36 15.06 14.37 15.07 14.38 15.07 14.39 15.07 14.4 15.07 14.42 15.08 14.43 15.09 16.3 16.61 17.27 17.4 23.51 17.26"/>
    <line class="cls-1" x1="23.33" y1="30.56" x2="23.31" y2="30.56"/>
    <line class="cls-1" x1="32.75" y1="51.42" x2="37.34" y2="55.15"/>
    <line class="cls-1" x1="14.36" y1="15.06" x2="20.85" y2="14.79"/>
  </g>
</svg>