<?xml version="1.0" encoding="utf-8"?>
<svg viewBox="13.424 0.493 46.428 74.507" xmlns="http://www.w3.org/2000/svg">
  <defs>
    <style>.cls-1{fill:none;stroke:#f4f4f4;stroke-linejoin:round;}</style>
  </defs>
  <title>f4_PMM_C</title>
  <g id="Linework">
    <path class="cls-1" d="M22.47,60.93h7.84s.6-.2,0,.77-1.25,2.14-1.25,2.14H46.78l-1.41-2.5s-.49-.49.4-.49h7.68V71.59s.12.41-.53.41H22.76s-.33.12-.33-.69S22.47,60.93,22.47,60.93Z"/>
    <polyline class="cls-1" points="26.63 72 26.63 73.69 30.63 73.69 30.63 72"/>
    <polyline class="cls-1" points="35.96 72 35.96 73.69 39.96 73.69 39.96 72"/>
    <polyline class="cls-1" points="45.29 72.04 45.29 73.69 49.25 73.69 49.25 72.04"/>
    <path class="cls-1" d="M58.19,60.93s.34-.06.34.27v9.16a.3.3,0,0,1-.3.31h-1l0-1.54a4.93,4.93,0,0,1-3.75,0"/>
    <line class="cls-1" x1="53.45" y1="71.07" x2="57.24" y2="71.07"/>
    <line class="cls-1" x1="42.62" y1="59.68" x2="42.62" y2="63.84"/>
    <line class="cls-1" x1="33.3" y1="63.8" x2="33.3" y2="60.13"/>
    <polygon class="cls-1" points="26.31 56.13 49.61 56.13 49.61 59.68 26.71 59.68 26.31 59.68 26.31 56.13"/>
    <path class="cls-1" d="M22.43,69.17a5.46,5.46,0,0,1-3.77,0l0,1.5h-.95a.32.32,0,0,1-.32-.35V33.42"/>
    <polyline class="cls-1" points="18.66 70.61 18.66 71.09 22.41 71.09"/>
    <line class="cls-1" x1="24.01" y1="60.57" x2="24.01" y2="33.19"/>
    <line class="cls-1" x1="23.7" y1="33.17" x2="23.7" y2="33.46"/>
    <line class="cls-1" x1="23.93" y1="60.57" x2="23.93" y2="60.93"/>
    <path class="cls-1" d="M32.85,33.17H17.1s-.21.09-.21-.32V21.14s0-.14.26-.15H29.22"/>
    <path class="cls-1" d="M16.88,25.24H14.52s-.14,0-.14-.24V18.53s0-.18.24-.18h4s.17,0,.18.29,0,2.28,0,2.28"/>
    <line class="cls-1" x1="17.63" y1="20.57" x2="17.63" y2="20.99"/>
    <path class="cls-1" d="M32.91,15.73c-.42-.06-3.13.16-3.45.18s-.24.2-.24.2,0,4.36,0,4.7a34.48,34.48,0,0,0,.26,3.46A20.85,20.85,0,0,0,30.7,29c.66,1.46,1.28,2.78,1.59,3.27s.28.51.46.77.19.27.55.25,9.63,0,9.63,0,0,0,.2-.16a19,19,0,0,0,1.8-3.41,23.88,23.88,0,0,0,1.53-5.2,36,36,0,0,0,.25-4.43c0-1.75,0-4,0-4s0-.15-.17-.17-2.68-.16-3.52-.18"/>
    <path class="cls-1" d="M34.92,33.26s-.76-2.37-1-3.58a59.58,59.58,0,0,1-.92-6.1c-.12-1.89-.12-2.22-.11-2.42s0-.23.16-.24,9.8,0,9.8,0,.18-.05.17.22-.18,3.48-.31,4.4-.59,3.76-.71,4.32-.7,2.77-.79,3a2.31,2.31,0,0,1-.13.35"/>
    <path class="cls-1" d="M33.05,20.92s-.16,0-.15-.23,0-18.77,0-18.77,0-.11.24-.11H42.9S43,1.82,43,2V20.67s0,.22-.09.25"/>
    <path class="cls-1" d="M39.88,33.28l-.41,1.95c0,.24-.2.22-.2.22H37c-.43,0-.48-.21-.48-.21l-.46-2"/>
    <polygon class="cls-1" points="36.25 36.43 39.65 36.43 39.65 38.2 36.26 38.2 36.25 36.43"/>
    <polyline class="cls-1" points="37.03 38.2 37.03 40.17 38.89 40.17 38.89 38.21"/>
    <line class="cls-1" x1="37.6" y1="40.17" x2="37.6" y2="40.24"/>
    <line class="cls-1" x1="38.42" y1="40.18" x2="38.42" y2="40.25"/>
    <polyline class="cls-1" points="37.3 40.24 38.63 40.24 38.63 40.45 37.3 40.45 37.29 40.25"/>
    <line class="cls-1" x1="37.71" y1="40.47" x2="37.71" y2="40.86"/>
    <line class="cls-1" x1="38.21" y1="40.47" x2="38.21" y2="40.85"/>
    <polyline class="cls-1" points="37.79 40.84 37.39 40.84 37.39 41.14 37.81 41.14 37.81 41.52 38.1 41.52 38.13 41.17"/>
    <polyline class="cls-1" points="38.12 40.85 38.53 40.85 38.53 41.16 38.14 41.16"/>
    <line class="cls-1" x1="37.37" y1="40.92" x2="35.08" y2="40.92"/>
    <line class="cls-1" x1="37.37" y1="41.07" x2="35.09" y2="41.07"/>
    <line class="cls-1" x1="38.54" y1="40.91" x2="40.86" y2="40.91"/>
    <line class="cls-1" x1="38.54" y1="41.07" x2="40.86" y2="41.07"/>
    <line class="cls-1" x1="37.89" y1="41.53" x2="37.89" y2="43.87"/>
    <line class="cls-1" x1="38" y1="41.54" x2="38" y2="43.87"/>
    <line class="cls-1" x1="37.73" y1="40.75" x2="38.2" y2="40.75"/>
    <path class="cls-1" d="M38,41.19a.17.17,0,0,0,.18-.17.18.18,0,0,0-.36,0A.17.17,0,0,0,38,41.19Z"/>
    <path class="cls-1" d="M38,41A0,0,0,1,0,38,41,0,0,0,0,0,38,41,0,0,0,0,0,38,41Z"/>
    <path class="cls-1" d="M37.94,44A.07.07,0,0,0,38,44a.07.07,0,0,0-.08-.08.07.07,0,0,0-.07.08A.07.07,0,0,0,37.94,44Z"/>
    <path class="cls-1" d="M40.93,41.07A.09.09,0,0,0,41,41a.1.1,0,0,0-.08-.1.09.09,0,0,0-.08.1C40.85,41,40.88,41.07,40.93,41.07Z"/>
    <path class="cls-1" d="M35,41.1a.1.1,0,0,0,0-.2.1.1,0,1,0,0,.2Z"/>
    <path class="cls-1" d="M38,31.61A1.62,1.62,0,1,0,36.39,30,1.62,1.62,0,0,0,38,31.61Z"/>
    <path class="cls-1" d="M43.07,33.19H58.88s.14.12.14-.48V21.12s0-.12-.34-.12h-12"/>
    <line class="cls-1" x1="51.93" y1="33.17" x2="51.93" y2="60.86"/>
    <line class="cls-1" x1="54.62" y1="33.17" x2="54.62" y2="33.39"/>
    <line class="cls-1" x1="56.13" y1="33.19" x2="56.13" y2="33.42"/>
    <line class="cls-1" x1="58.51" y1="33.46" x2="58.51" y2="61.56"/>
    <path class="cls-1" d="M55.38,39.15a1.28,1.28,0,1,0-1.27-1.27A1.27,1.27,0,0,0,55.38,39.15Z"/>
    <path class="cls-1" d="M55.41,58.09a1.24,1.24,0,0,0,1.25-1.24,1.33,1.33,0,0,0-1.25-1.25,1.25,1.25,0,0,0,0,2.49Z"/>
    <path class="cls-1" d="M20.56,58.11a1.28,1.28,0,1,0-1.28-1.27A1.27,1.27,0,0,0,20.56,58.11Z"/>
    <path class="cls-1" d="M20.56,39.21a1.36,1.36,0,1,0-1.36-1.35A1.35,1.35,0,0,0,20.56,39.21Z"/>
  </g>
</svg>