<?xml version="1.0" encoding="utf-8"?>
<svg viewBox="20.074 0.493 34.852 73.768" xmlns="http://www.w3.org/2000/svg">
  <defs>
    <style>.cls-1{fill:none;stroke:#f4f4f4;stroke-linejoin:round;}</style>
  </defs>
  <title>f4_T_Probe</title>
  <g id="Linework">
    <path class="cls-1" d="M28.19,52.58s-.07-.36-.67-.44c-.43,0-.83-.21-.45-1"/>
    <path class="cls-1" d="M34.1,44.3l-.29.22,0,8.12-5.6,0c-.16.4-1.05.46-1.39,0-.72-1,.27-1.43.27-1.43s.67-1.72,2.16-7C32.36,34,31.85,22.55,31.85,22.55l-.16-3a61.21,61.21,0,0,0-4.3-16.1c-.5-.91-.16-1.11.21-1.16a1.87,1.87,0,0,0,.78-.22c1.66-.08,17.41,0,17.94,0,.35.2,0,.13.73.19s.55.65.3,1.21-2.23,6-3.11,9.35A47.5,47.5,0,0,0,43,22.59c-.35,7.46,1.32,15.89,1.84,18.44s2.39,9,2.78,10.21c.56.93-.35.88-.7,1a.38.38,0,0,0-.32.4l-5.73.06L41,45l-.24-.72Z"/>
    <path class="cls-1" d="M31.87,22.51s-7.5-.52-9-1.79"/>
    <path class="cls-1" d="M24.89,18.32a24.7,24.7,0,0,0,6.8,1.22"/>
    <path class="cls-1" d="M43.15,19.58S48.71,19,50,18.36"/>
    <path class="cls-1" d="M43,22.56s7-.49,9.18-1.86"/>
    <path class="cls-1" d="M53.34,20.23a2,2,0,1,0-2.79-.15A2,2,0,0,0,53.34,20.23Z"/>
    <path class="cls-1" d="M24.36,20.25a2,2,0,1,0-2.79-.15A2,2,0,0,0,24.36,20.25Z"/>
    <path class="cls-1" d="M27.4,3.51a.84.84,0,0,1-.62-.9c0-.75,1.08-1.31,1.58-.54"/>
    <path class="cls-1" d="M46.31,2s.58-.88,1.5.09a.85.85,0,0,1-.42,1.34"/>
    <path class="cls-1" d="M38,10.36a.91.91,0,0,0,0-1.29A.93.93,0,0,0,36.76,9a.91.91,0,0,0,0,1.29A.9.9,0,0,0,38,10.36Z"/>
    <path class="cls-1" d="M44,4a.89.89,0,0,0,0-1.28A.9.9,0,1,0,42.7,3.9.92.92,0,0,0,44,4Z"/>
    <path class="cls-1" d="M31.7,4.15a.89.89,0,0,0,0-1.28.9.9,0,1,0-1.32,1.21A.92.92,0,0,0,31.7,4.15Z"/>
    <path class="cls-1" d="M38.09,18.17a.92.92,0,0,0,0-1.29.9.9,0,1,0-1.32,1.21A.92.92,0,0,0,38.09,18.17Z"/>
    <path class="cls-1" d="M38.66,25.85a1.73,1.73,0,1,0-2.42-.13A1.7,1.7,0,0,0,38.66,25.85Z"/>
    <path class="cls-1" d="M38,32.53a.79.79,0,0,0-1.07-1.16.78.78,0,0,0,0,1.11A.79.79,0,0,0,38,32.53Z"/>
    <path class="cls-1" d="M38.06,41.48a.94.94,0,0,0,0-1.34.94.94,0,1,0,0,1.34Z"/>
    <path class="cls-1" d="M31.35,50.62A1,1,0,1,0,30,50.55,1,1,0,0,0,31.35,50.62Z"/>
    <path class="cls-1" d="M44.7,50.62a1,1,0,1,0-1.34-.07A.95.95,0,0,0,44.7,50.62Z"/>
    <path class="cls-1" d="M46.54,52.57a.82.82,0,0,0,1.23.21.91.91,0,0,0-.17-1.58"/>
    <path class="cls-1" d="M40.84,52.43c-.38,2-2,7.79-2,7.79s.1.2-.31.26l-2.51,0s-.13.12-.21-.28-1.93-7-2-7.53"/>
    <path class="cls-1" d="M36.15,60.47s0,1.18,0,1.31a3.29,3.29,0,0,0,.39.94c.15.28.22.32.39.32s.81,0,.81,0,.12.13.33-.3a3,3,0,0,0,.47-1.41,7.8,7.8,0,0,1,0-.88"/>
    <polyline class="cls-1" points="36.92 63.05 36.86 71.79 37.76 71.8 37.82 63.09"/>
    <path class="cls-1" d="M37.88,73.13a.77.77,0,0,0-1-1.13.77.77,0,0,0,1,1.13Z"/>
  </g>
</svg>