<?xml version="1.0" encoding="utf-8"?>
<!-- Generator: Adobe Illustrator 16.0.0, SVG Export Plug-In . SVG Version: 6.00 Build 0)  -->
<!DOCTYPE svg PUBLIC "-//W3C//DTD SVG 1.1//EN" "http://www.w3.org/Graphics/SVG/1.1/DTD/svg11.dtd">
<svg version="1.1" id="Layer_1" xmlns="http://www.w3.org/2000/svg" xmlns:xlink="http://www.w3.org/1999/xlink" x="0px" y="0px"
	 width="504px" height="612px" viewBox="0 0 504 612" enable-background="new 0 0 504 612" xml:space="preserve">
<g>
	<path fill="none" stroke="#DCDBDB" d="M134.287,377.604l10.117-11.44c0,0,11.822-4.138,24.773,6.91
		c3.803,3.567,8.95,10.895,8.911,21.188c-4.114,5.316-7.446,9.819-9.523,12.235"/>
	<path fill="none" stroke="#DCDBDB" d="M133.047,376.534c0,0,9.408-11.014,10.397-12.174c1.013-1.163,21.608-23.853,25.044-26.742"
		/>
	<path fill="none" stroke="#DCDBDB" d="M210.77,357.296c0,0-0.812-1.01,0.891,4.253c0.67,2.558,2.222,5.023-0.91,7.385
		c-1.363,0.644-6.868,1.834-7.697,2.812c-0.812,0.967-5.215,7.569-6.01,9.707c-0.827,2.138-3.404,10.944-1.013,16.761"/>
	<path fill="none" stroke="#DCDBDB" d="M170.014,407.741c-9.7,11.495-8.402,28.487,2.865,38.025
		c11.279,9.507,28.288,7.904,37.984-3.575c9.665-11.487,8.347-28.515-2.901-37.998C196.659,394.678,179.66,396.262,170.014,407.741z
		"/>
	<path fill="none" stroke="#DCDBDB" d="M214.765,414.112c0,0,8.563,6.237,8.649,17.108c0.068,10.436-4.403,15.189-5.761,16.788"/>
	<path fill="none" stroke="#DCDBDB" d="M185.923,398.368l5.744-8.806c0,0,2.18-2.327,2.661-0.578
		c-0.061,2.28-0.262,7.408,0.421,9.161"/>
	<path fill="none" stroke="#DCDBDB" d="M174.493,317.044c-9.488,11.275-7.878,28.164,3.579,37.833
		c11.434,9.638,28.396,8.366,37.849-2.866c9.461-11.233,7.873-28.156-3.571-37.795C200.932,304.578,183.966,305.854,174.493,317.044
		z"/>
	<path fill="none" stroke="#DCDBDB" d="M183.831,310.06l8.657-8.587c0,0,8.381-6.582,20.259-3.496
		c11.918,3.036,18.587,12.483,19.199,25.127c0,0-1.363,12.072-11.8,21.889"/>
	<path fill="none" stroke="#DCDBDB" d="M134.137,377.62l-9.523,11.896c0,0-2.104,12.382,10.986,23.245
		c4.126,3.158,12.216,6.965,22.336,5.224c4.558-4.993,8.433-9.015,10.481-11.457"/>
	<path fill="none" stroke="#DCDBDB" d="M132.855,376.546c0,0-9.219,11.175-10.213,12.33c-0.966,1.16-19.842,25.317-22.146,29.2"/>
	<path fill="none" stroke="#DCDBDB" d="M169.878,407.722c9.673-11.479,26.689-13.086,37.992-3.575
		c11.256,9.516,12.554,26.558,2.862,38.022c-9.693,11.487-26.692,13.074-37.956,3.566
		C161.516,436.236,160.197,419.201,169.878,407.722z"/>
	<path fill="none" stroke="#DCDBDB" d="M183.585,450.913c0,0,7.562,7.357,18.328,5.616c10.29-1.633,14.223-6.906,15.587-8.51"/>
	<path fill="none" stroke="#DCDBDB" d="M163.333,425.003l-7.712,7.157c0,0-1.934,2.504-0.1,2.693c2.2-0.443,7.215-1.491,9.087-1.121
		"/>
	<path fill="none" stroke="#DCDBDB" d="M81.257,427.445c9.477-11.226,26.407-12.505,37.864-2.858
		c11.457,9.653,13.028,26.576,3.567,37.81c-9.464,11.219-26.43,12.509-37.856,2.87C73.399,455.598,71.789,438.679,81.257,427.445z"
		/>
	<path fill="none" stroke="#DCDBDB" d="M90.175,434.642c5.521-6.564,15.421-7.281,22.139-1.665
		c6.688,5.647,7.605,15.548,2.093,22.112c-5.528,6.533-15.448,7.281-22.147,1.626C85.552,451.083,84.617,441.197,90.175,434.642z"/>
	<path fill="none" stroke="#DCDBDB" d="M96.019,439.317c2.967-3.544,8.175-4.037,11.615-1.136c3.444,2.946,3.852,8.136,0.867,11.66
		c-2.974,3.521-8.182,4.053-11.622,1.125C93.45,448.047,93.057,442.831,96.019,439.317z"/>
	<path fill="none" stroke="#DCDBDB" d="M76.153,437.029l-7.207,10.798c0,0-5.059,9.318-0.043,20.537
		c4.993,11.225,15.444,16.193,28.01,14.684c0,0,9.48-0.989,17.385-12.912l3.445-2.104c0,0,1.949,0.471,4.14-0.979
		c2.247-1.464,7.169-4.938,8.136-5.123c0.986-0.186,5.374,0.72,6.372-0.285c1.021-0.986,2.338-3.375,2.496-6.048
		c0,0,15.609-11.241,17.163-12.107c1.549-0.867,9.916-3.278,11.926-2.917"/>
	<line fill="none" stroke="#DCDBDB" x1="375.528" y1="513.312" x2="375.528" y2="345.894"/>
	<line fill="none" stroke="#DCDBDB" x1="483.007" y1="499.586" x2="483.007" y2="536.775"/>
	<path fill="none" stroke="#DCDBDB" d="M464.501,281.351L464.501,281.351c11.572,1.909,11.148,2.209,13.736,4.424
		c1.441,1.219,2.643,5.005,3.467,9.893c0.824,4.869,1.303,10.84,1.303,16.503v84.002"/>
	<path fill="none" stroke="#DCDBDB" d="M274.9,73.691c2.242-2.302,8.26-0.094,13.452,4.945l133.828,130.283
		c5.199,5.029,7.557,11.019,5.33,13.313"/>
	<line fill="none" stroke="#DCDBDB" x1="335.258" y1="244.889" x2="227.601" y2="141.275"/>
	<path fill="none" stroke="#DCDBDB" d="M96.902,282.003c0,0,62.387-104.637,84.475-124.075
		c16.303-14.346,30.98-17.235,29.209-18.449"/>
	<path fill="none" stroke="#DCDBDB" d="M96.975,309.659"/>
	<line fill="none" stroke="#DCDBDB" x1="171.908" y1="92.987" x2="52.497" y2="266.115"/>
	<path fill="none" stroke="#DCDBDB" d="M125.762,386.9c-3.328,3.71-12.828,0.574-21.21-7l-46.436-41.843
		c-8.394-7.551-12.488-16.688-9.156-20.378l17.3-19.177c3.313-3.702,12.812-0.574,21.199,6.994l46.432,41.854
		c8.383,7.565,12.497,16.68,9.168,20.378L125.762,386.9z"/>
	<path fill="none" stroke="#DCDBDB" d="M485.442,575.21c0-52.715-4.523-68.385-55.596-66.982
		c-90.166,2.434-93.318,14.268-93.318,66.982"/>
	<path fill="none" stroke="#DCDBDB" d="M464.501,281.351c0,37.015-30.002,67.023-67.006,67.023
		c-37.006,0-67.029-30.009-67.029-67.023c0-36.981,30.023-66.995,67.029-66.995C434.499,214.355,464.501,244.369,464.501,281.351z"
		/>
	<path fill="none" stroke="#DCDBDB" d="M276.148,89.117c0,28.792-23.347,52.127-52.13,52.127c-28.785,0-52.11-23.335-52.11-52.127
		c0-28.786,23.325-52.119,52.11-52.119C252.802,36.999,276.148,60.332,276.148,89.117z"/>
	<path fill="none" stroke="#DCDBDB" d="M104.063,301.295"/>
	<path fill="none" stroke="#DCDBDB" d="M70.656,354.41"/>
	<path fill="none" stroke="#DCDBDB" d="M103.312,319.79c15.541-36.009-28.457-57.362-52.36-51.913
		c-23.911,5.437-38.865,29.217-33.422,53.115c5.436,23.884,35.353,42.698,57.603,32.397"/>
	<path fill="none" stroke="#DCDBDB" d="M228.336,127.938c-22.315,0-40.379-18.079-40.379-40.379"/>
	<path fill="none" stroke="#DCDBDB" d="M90.468,277.248c63.158-92.911,77.426-125.606,113.391-140.047"/>
	<line fill="none" stroke="#DCDBDB" x1="172.915" y1="100.098" x2="59.785" y2="267.056"/>
	<path fill="none" stroke="#DCDBDB" d="M91.546,309.17c8.437-18.802-17.862-35.441-36.13-31.277
		c-18.256,4.147-31.022,21.18-26.857,39.458c4.148,18.241,18.698,31.523,36.974,27.367"/>
	<path fill="none" stroke="#DCDBDB" d="M406.177,236.017c24.17,0,43.777,19.578,43.777,43.746"/>
	<path fill="none" stroke="#DCDBDB" d="M420.778,281.381c0,10.812-8.768,19.568-19.57,19.568c-10.809,0-19.576-8.756-19.576-19.568
		c0-10.82,8.768-19.577,19.576-19.577C412.011,261.804,420.778,270.561,420.778,281.381z"/>
	<path fill="none" stroke="#DCDBDB" d="M475.249,575.21c0-45.368-25.34-38.576-103.195-37.375"/>
	<path fill="none" stroke="#DCDBDB" d="M468.06,499.586c-3.213,0.034-5.832-9.134-5.832-20.421l-0.068-62.506
		c-0.023-11.303,2.572-20.452,5.809-20.456l16.758-0.03c3.213-0.008,5.84,9.122,5.848,20.409l0.053,62.525
		c0.008,11.284-2.58,20.46-5.809,20.46L468.06,499.586z"/>
	<path fill="none" stroke="#DCDBDB" d="M139.796,382.058c5.524-6.571,15.451-7.28,22.12-1.66c6.688,5.636,7.631,15.536,2.069,22.112
		c-5.497,6.549-15.41,7.269-22.089,1.66C135.208,398.522,134.242,388.599,139.796,382.058z"/>
	<path fill="none" stroke="#DCDBDB" d="M145.636,386.754c2.986-3.536,8.174-4.071,11.619-1.121
		c3.455,2.894,3.833,8.098,0.882,11.634c-2.985,3.529-8.197,4.041-11.646,1.125C143.044,395.495,142.654,390.264,145.636,386.754z"
		/>
	<path fill="none" stroke="#DCDBDB" d="M183.08,324.32c5.544-6.541,15.444-7.304,22.155-1.664
		c6.683,5.632,7.612,15.548,2.083,22.097c-5.516,6.549-15.437,7.296-22.119,1.66C178.496,340.785,177.528,330.877,183.08,324.32z"/>
	<path fill="none" stroke="#DCDBDB" d="M188.951,329.013c2.946-3.532,8.163-4.041,11.611-1.148
		c3.459,2.936,3.818,8.137,0.867,11.665c-2.99,3.532-8.19,4.014-11.622,1.117C186.371,337.742,185.961,332.495,188.951,329.013z"/>
	<path fill="none" stroke="#DCDBDB" d="M177.996,414.856c5.535-6.534,15.435-7.273,22.115-1.626
		c6.711,5.62,7.666,15.524,2.124,22.073c-5.528,6.549-15.436,7.288-22.124,1.664C173.404,431.32,172.46,421.42,177.996,414.856z"/>
	<path fill="none" stroke="#DCDBDB" d="M183.87,419.563c2.951-3.528,8.158-4.045,11.595-1.133c3.467,2.92,3.849,8.121,0.863,11.665
		c-2.958,3.513-8.163,4.029-11.624,1.117C181.277,428.297,180.885,423.092,183.87,419.563z"/>
</g>
</svg>
