<?xml version="1.0" encoding="utf-8"?>
<!-- Generator: Adobe Illustrator 16.0.0, SVG Export Plug-In . SVG Version: 6.00 Build 0)  -->
<!DOCTYPE svg PUBLIC "-//W3C//DTD SVG 1.1//EN" "http://www.w3.org/Graphics/SVG/1.1/DTD/svg11.dtd">
<svg version="1.1" id="Layer_1" xmlns="http://www.w3.org/2000/svg" xmlns:xlink="http://www.w3.org/1999/xlink" x="0px" y="0px"
	 width="792px" height="612px" viewBox="0 0 792 612" enable-background="new 0 0 792 612" xml:space="preserve">
<g>
	<path fill="none" stroke="#DCDBDB" d="M398.008,418.352c12.794,0,23.178-10.382,23.178-23.181c0-12.82-10.384-23.202-23.178-23.202
		c-12.811,0-23.191,10.382-23.191,23.202C374.816,407.97,385.197,418.352,398.008,418.352z"/>
	<path fill="none" stroke="#DCDBDB" d="M398.385,438.549c23.323,0,42.243-19.565,42.243-43.667c0-24.133-18.92-43.694-42.243-43.694
		c-23.324,0-42.229,19.562-42.229,43.694C356.156,418.983,375.061,438.549,398.385,438.549z"/>
	<path fill="none" stroke="#DCDBDB" d="M398.763,425.505c16.743,0,30.312-13.407,30.312-29.943
		c0-16.534-13.569-29.942-30.312-29.942c-16.729,0-30.297,13.408-30.297,29.942C368.466,412.098,382.033,425.505,398.763,425.505z"
		/>
	<path fill="none" stroke="#DCDBDB" d="M398.189,458.086c0,0-43.865-0.391-48.481-0.391c-4.629,0-97.363-3.468-110.845-5.763"/>
	<path fill="none" stroke="#DCDBDB" d="M346.242,457.695c0,0-23.092-20.391-28.479-39.248c-5.384-18.854-6.925-26.572-6.167-41.959
		c0.783-15.388,12.32-45.794,29.259-57.738"/>
	<path fill="none" stroke="#DCDBDB" d="M340.465,457.307c0,0-15.764-4.227-24.242-29.627c-8.462-25.399-11.552-43.862-4.237-75.812
		c5.777-21.565,18.086-31.162,21.556-32.334"/>
	<path fill="none" stroke="#DCDBDB" d="M275.034,413.832l-23.08-57.737c0,0-3.846-12.7,8.462-14.995
		c12.308-1.932,34.267-6.18,34.267-6.18s15.375-2.295,12.688,13.873c-3.468,17.314-7.707,33.849-3.088,57.346
		c-0.38,9.621-4.619,10.381-8.454,11.917c-3.858,1.539-8.473,2.322-10.013,2.322C284.267,420.378,277.746,420.743,275.034,413.832z"
		/>
	<path fill="none" stroke="#DCDBDB" d="M282.74,408.826l-22.715-54.271c0,0-1.927-2.687,2.31-3.467
		c4.236-0.759,31.175-5.371,31.175-5.371s4.237-2.322,2.319,5.759c-1.928,8.09-6.165,30.802-2.71,51.952
		c0.391,4.223-0.757,5.006-3.076,5.398c-2.296,0.392-5.375,1.147-5.375,1.147S283.129,410.757,282.74,408.826z"/>
	<line fill="none" stroke="#DCDBDB" x1="251.954" y1="355.73" x2="259.268" y2="353.016"/>
	<line fill="none" stroke="#DCDBDB" x1="260.024" y1="341.464" x2="260.024" y2="351.476"/>
	<polyline fill="none" stroke="#DCDBDB" points="307.371,348.793 296.209,345.717 295.819,334.92 	"/>
	<line fill="none" stroke="#DCDBDB" x1="293.119" y1="406.895" x2="303.903" y2="405.747"/>
	<line fill="none" stroke="#DCDBDB" x1="292.362" y1="408.043" x2="296.209" y2="417.275"/>
	<line fill="none" stroke="#DCDBDB" x1="283.9" y1="410.365" x2="286.964" y2="419.986"/>
	<line fill="none" stroke="#DCDBDB" x1="275.425" y1="413.832" x2="282.74" y2="409.582"/>
	<path fill="none" stroke="#DCDBDB" d="M238.863,339.168c0,0,70.045-14.24,86.592-13.48"/>
	<path fill="none" stroke="#DCDBDB" d="M235.017,335.701c0,0,69.275-14.995,93.138-16.167c6.545,0,16.169-0.368,26.559-3.862
		c10.76-0.757,36.943-1.536,43.475-1.536"/>
	<path fill="none" stroke="#DCDBDB" d="M330.855,451.544c0,0-79.682-3.079-87.755-5.01"/>
	<path fill="none" stroke="#DCDBDB" d="M229.241,460.017c0,0,113.152,8.45,168.949,8.062"/>
	<path fill="none" stroke="#DCDBDB" d="M217.321,468.859c0,0,103.52,8.085,180.869,7.693"/>
	<path fill="none" stroke="#DCDBDB" d="M211.154,471.542c0,0,114.301,8.869,142.012,8.869"/>
	<path fill="none" stroke="#DCDBDB" d="M209.617,471.934l2.307,29.627c0,0,10.393,5.031,26.171,4.251
		c15.776-0.779,27.721-4.251,28.869-5.79v-2.688"/>
	<path fill="none" stroke="#DCDBDB" d="M398.189,500.806c-74.663,2.294-140.851-3.86-160.854-4.619
		c-20.015-0.78-18.866-5.763-18.866-5.763l0.756-9.256c0,0,1.538-3.444,7.704-3.444c6.156,0,76.203,6.911,129.702,4.983h41.557"/>
	<line fill="none" stroke="#DCDBDB" x1="226.162" y1="472.718" x2="226.162" y2="477.724"/>
	<line fill="none" stroke="#DCDBDB" x1="218.079" y1="489.252" x2="211.533" y2="497.726"/>
	<g>
		<path fill="none" stroke="#DCDBDB" d="M212.304,496.579c0,0,13.089,4.981,42.337,0.755"/>
	</g>
	<polyline fill="none" stroke="#DCDBDB" points="346.242,483.486 346.242,500.806 348.55,498.118 346.242,494.646 352.787,494.259 
		355.862,497.334 355.862,485.026 353.543,483.096 	"/>
	<line fill="none" stroke="#DCDBDB" x1="398.189" y1="498.118" x2="348.55" y2="498.118"/>
	<line fill="none" stroke="#DCDBDB" x1="356.243" y1="485.417" x2="398.203" y2="485.417"/>
	<line fill="none" stroke="#DCDBDB" x1="352.787" y1="482.707" x2="352.787" y2="494.259"/>
	<g>
		<path fill="none" stroke="#DCDBDB" d="M224.624,326.859c0,0,83.126-19.246,140.471-21.565"/>
		<path fill="none" stroke="#DCDBDB" d="M210.006,319.142c0,0,82.749-19.246,138.163-23.836"/>
		<path fill="none" stroke="#DCDBDB" d="M156.899,314.523c0,0,2.685-5.37,10.379-7.691c7.706-2.32,25.4-6.936,27.707-8.841
			c2.321-1.93,8.855-13.872,13.092-14.238c4.236-0.392,12.323,1.148,18.854,6.154c0,0,56.579-14.239,61.573-16.168
			c5.006-1.929,26.952-16.535,30.017-21.931"/>
	</g>
	<g>
		<path fill="none" stroke="#DCDBDB" d="M201.922,315.672c0,0-0.781,3.862,8.084-10.377c4.603-6.546,7.314-14.997,18.843-12.311
			c4.237,1.93,17.706,12.311,21.555,12.311c3.858,0,27.708-2.688,34.265-5.006c6.545-2.297,31.934-13.458,40.787-30.409"/>
		<path fill="none" stroke="#DCDBDB" d="M227.322,289.907c0,0,6.154-0.39,14.618,5.007c8.476,5.375,15.399,9.233,15.399,9.233"/>
	</g>
	<path fill="none" stroke="#DCDBDB" d="M199.992,290.297l-5.384-118.551c0,0-1.93-3.469,4.227-5.007
		c6.166-1.54,15.775-7.693,41.567-3.445c12.713,1.54,10.015,8.841,10.405,14.24c0.367,5.372,5.764,104.679,5.764,104.679"/>
	<line fill="none" stroke="#DCDBDB" x1="228.861" y1="289.907" x2="224.245" y2="209.091"/>
	<g>
		<path fill="none" stroke="#DCDBDB" d="M194.215,168.913c0,0,8.464,20.688,11.932,25.864c3.469,5.155,6.924,15.485,20.015,14.288
			c3.079-0.781,8.476-1.172,15.778-19.074c5.764-13.115,8.086-21.469,8.086-21.469"/>
	</g>
	<path fill="none" stroke="#DCDBDB" d="M398.287,311.547c45.487,0,82.368-36.222,82.368-80.916
		c0-44.672-36.881-80.891-82.368-80.891c-45.489,0-82.356,36.219-82.356,80.891C315.931,275.325,352.798,311.547,398.287,311.547z"
		/>
	<path fill="none" stroke="#DCDBDB" d="M398.385,279.601c26.731,0,48.384-21.322,48.384-47.602
		c0-26.303-21.652-47.626-48.384-47.626c-26.73,0-48.395,21.323-48.395,47.626C349.99,258.279,371.654,279.601,398.385,279.601z"/>
	<path fill="none" stroke="#DCDBDB" d="M398.961,271.125c22.59,0,40.896-18.123,40.896-40.494c0-22.372-18.307-40.495-40.896-40.495
		c-22.568,0-40.875,18.123-40.875,40.495C358.085,253.003,376.393,271.125,398.961,271.125z"/>
	<path fill="none" stroke="#DCDBDB" d="M398.385,257.741c14.189,0,25.695-11.504,25.695-25.718
		c0-14.213-11.506-25.718-25.695-25.718c-14.19,0-25.682,11.504-25.682,25.718C372.703,246.237,384.194,257.741,398.385,257.741z"/>
	<path fill="none" stroke="#DCDBDB" d="M328.926,187.157c0,0-3.861-1.54,3.846-10.013c7.693-8.475,26.94-31.555,65.418-31.189"/>
	<path fill="none" stroke="#DCDBDB" d="M325.456,192.53"/>
	<path fill="none" stroke="#DCDBDB" d="M471.313,193.287"/>
	<path fill="none" stroke="#DCDBDB" d="M376.648,217.563c0,0-1.539-20.783,21.542-22.347"/>
	<path fill="none" stroke="#DCDBDB" d="M322.379,199.075c0,0,1.16-29.625,10.783-43.106c9.624-13.458,24.998-38.103,65.028-38.103"
		/>
	<path fill="none" stroke="#DCDBDB" d="M323.149,189.453c0,0-2.346-32.85,23.482-55.026c24.631-21.174,45.026-20.026,51.558-20.026"
		/>
	<path fill="none" stroke="#DCDBDB" d="M179.598,478.188c44.476,0,80.527-36.732,80.527-82.062s-36.051-82.062-80.527-82.062
		c-44.462,0-80.523,36.732-80.523,82.062S135.136,478.188,179.598,478.188z"/>
	<path fill="none" stroke="#DCDBDB" d="M180.368,443.555c25.974,0,47.041-21.492,47.041-48.017c0-26.5-21.067-47.992-47.041-47.992
		c-25.986,0-47.04,21.492-47.04,47.992C133.329,422.062,154.382,443.555,180.368,443.555z"/>
	<path fill="none" stroke="#DCDBDB" d="M179.33,437.01c22.641,0,41.007-18.734,41.007-41.839c0-23.126-18.367-41.859-41.007-41.859
		c-22.651,0-41.007,18.733-41.007,41.859C138.323,418.275,156.679,437.01,179.33,437.01z"/>
	<path fill="none" stroke="#DCDBDB" d="M180.942,420.842c13.983,0,25.304-11.064,25.304-24.716c0-13.655-11.32-24.72-25.304-24.72
		c-13.97,0-25.302,11.064-25.302,24.72C155.64,409.777,166.972,420.842,180.942,420.842z"/>
	<path fill="none" stroke="#DCDBDB" d="M163.431,414.98c0,0-19.247-2.296-19.247-20.394c0.393-7.302,8.854-21.934,21.176-18.466"/>
	<path fill="none" stroke="#DCDBDB" d="M168.438,354.555c0,0,35.413,0,39.248,39.248c-0.755,12.336-2.686,33.117-34.631,42.354"/>
	<path fill="none" stroke="#DCDBDB" d="M178.83,478.092c0,0-50.41,3.467-73.503-41.18c-8.475-15.778-15.021-40.395-8.853-61.18
		c6.154-20.786,5.384-15.021,6.532-18.49h2.687l1.931-4.227l-1.149-2.296c0,0,29.247-47.354,84.286-36.196"/>
	<path fill="none" stroke="#DCDBDB" d="M138.42,470.006l-30.028-3.075c0,0-31.554-6.549-47.723-40.011
		c-16.157-33.481-7.303-67.354,20.796-93.515c0,0,20.772-20.028,63.882-15.02"/>
	<path fill="none" stroke="#DCDBDB" d="M116.098,467.707c0,0-44.646-9.229-55.809-54.267c-3.467-16.559-6.154-44.254,18.479-72.341
		c9.623-8.865,28.856-22.321,50.422-23.105"/>
	<path fill="none" stroke="#DCDBDB" d="M398.568,317.53c9.636,0,26.562,1.148,46.953,1.928
		c23.873,20.005,30.801,46.189,31.571,61.964c0.389,51.56-32.342,70.803-32.342,70.803l-46.183,1.176l-46.564-1.468
		c0,0-32.716-19.247-32.323-70.83c0.769-15.751,7.704-41.935,31.567-61.961c20.382-0.756,37.32-1.903,46.942-1.903"/>
	<path fill="none" stroke="#DCDBDB" d="M398.568,458.382c0,0,43.878-0.367,48.492-0.367c4.638,0,97.377-3.468,110.847-5.79"/>
	<path fill="none" stroke="#DCDBDB" d="M450.53,458.015c0,0,23.091-20.419,28.479-39.272c5.395-18.857,6.934-26.547,6.165-41.935
		c-0.771-15.387-12.322-45.797-29.25-57.741"/>
	<path fill="none" stroke="#DCDBDB" d="M456.304,457.622c0,0,15.778-4.25,24.253-29.65c8.453-25.372,11.531-43.862,4.227-75.809
		c-5.768-21.544-18.085-31.166-21.553-32.312"/>
	<path fill="none" stroke="#DCDBDB" d="M521.735,414.125l23.091-57.714c0,0,3.835-12.7-8.475-15.021
		c-12.32-1.928-34.237-6.154-34.237-6.154s-15.4-2.318-12.713,13.849c3.467,17.318,7.702,33.873,3.078,57.35
		c0.389,9.621,4.624,10.401,8.473,11.94c3.85,1.539,8.461,2.295,10,2.295C512.506,420.67,519.037,421.062,521.735,414.125z"/>
	<path fill="none" stroke="#DCDBDB" d="M514.031,409.142l22.713-54.271c0,0,1.917-2.708-2.31-3.463
		c-4.232-0.784-31.173-5.402-31.173-5.402s-4.226-2.295-2.31,5.79c1.919,8.058,6.165,30.774,2.688,51.951
		c-0.378,4.223,0.771,5.003,3.075,5.395c2.307,0.368,5.386,1.147,5.386,1.147S513.64,411.045,514.031,409.142z"/>
	<line fill="none" stroke="#DCDBDB" x1="544.826" y1="356.022" x2="537.499" y2="353.312"/>
	<line fill="none" stroke="#DCDBDB" x1="536.744" y1="341.783" x2="536.744" y2="351.772"/>
	<polyline fill="none" stroke="#DCDBDB" points="489.401,349.085 500.562,346.006 500.952,335.236 	"/>
	<line fill="none" stroke="#DCDBDB" x1="503.64" y1="407.211" x2="492.868" y2="406.042"/>
	<line fill="none" stroke="#DCDBDB" x1="504.41" y1="408.362" x2="500.575" y2="417.595"/>
	<line fill="none" stroke="#DCDBDB" x1="512.883" y1="410.681" x2="509.805" y2="420.281"/>
	<line fill="none" stroke="#DCDBDB" x1="521.344" y1="414.125" x2="514.031" y2="409.898"/>
	<path fill="none" stroke="#DCDBDB" d="M557.907,339.463c0,0-70.046-14.239-86.594-13.456"/>
	<path fill="none" stroke="#DCDBDB" d="M561.752,335.992c0,0-69.272-14.995-93.137-16.142c-6.546,0-16.154-0.393-26.552-3.859
		c-10.769-0.756-36.952-1.536-43.481-1.536"/>
	<path fill="none" stroke="#DCDBDB" d="M465.928,451.859c0,0,79.669-3.102,87.742-5.029"/>
	<path fill="none" stroke="#DCDBDB" d="M567.531,460.31c0,0-113.146,8.478-168.949,8.086"/>
	<path fill="none" stroke="#DCDBDB" d="M579.462,469.175c0,0-103.531,8.062-180.88,7.669"/>
	<path fill="none" stroke="#DCDBDB" d="M585.613,471.862c0,0-114.3,8.841-142.02,8.841"/>
	<path fill="none" stroke="#DCDBDB" d="M587.166,472.254l-2.318,29.624c0,0-10.395,5.009-26.16,4.227
		c-15.786-0.757-27.717-4.227-28.867-5.763v-2.688"/>
	<path fill="none" stroke="#DCDBDB" d="M398.568,501.121c74.676,2.296,140.863-3.858,160.875-4.64
		c20.019-0.755,18.857-5.766,18.857-5.766l-0.77-9.229c0,0-1.525-3.47-7.69-3.47c-6.157,0-76.204,6.937-129.693,5.009h-41.579"/>
	<line fill="none" stroke="#DCDBDB" x1="570.607" y1="473.01" x2="570.607" y2="478.017"/>
	<line fill="none" stroke="#DCDBDB" x1="578.693" y1="489.568" x2="585.235" y2="498.021"/>
	<g>
		<path fill="none" stroke="#DCDBDB" d="M584.459,496.875c0,0-13.082,5.003-42.317,0.779"/>
	</g>
	<polyline fill="none" stroke="#DCDBDB" points="450.53,483.782 450.53,501.097 448.234,498.409 450.53,494.942 443.982,494.579 
		440.91,497.654 440.91,485.321 443.212,483.391 	"/>
	<line fill="none" stroke="#DCDBDB" x1="398.568" y1="498.409" x2="448.234" y2="498.409"/>
	<line fill="none" stroke="#DCDBDB" x1="440.527" y1="485.71" x2="398.568" y2="485.71"/>
	<line fill="none" stroke="#DCDBDB" x1="443.982" y1="483.025" x2="443.982" y2="494.579"/>
	<g>
		<path fill="none" stroke="#DCDBDB" d="M572.146,327.155c0,0-83.125-19.248-140.474-21.543"/>
		<path fill="none" stroke="#DCDBDB" d="M586.774,319.458c0,0-82.756-19.244-138.175-23.86"/>
		<path fill="none" stroke="#DCDBDB" d="M639.884,314.844c0,0-2.698-5.398-10.392-7.693c-7.693-2.32-25.386-6.937-27.708-8.866
			c-2.32-1.93-8.853-13.848-13.079-14.239c-4.246-0.366-12.321,1.173-18.864,6.155c0,0-56.566-14.239-61.575-16.168
			c-5.004-1.905-26.94-16.535-30.016-21.933"/>
	</g>
	<g>
		<path fill="none" stroke="#DCDBDB" d="M594.849,315.991c0,0,0.771,3.859-8.074-10.379c-4.614-6.546-7.312-15.021-18.864-12.334
			c-4.227,1.93-17.696,12.334-21.545,12.334c-3.855,0-27.717-2.711-34.265-5.009c-6.543-2.319-31.934-13.481-40.787-30.406"/>
		<path fill="none" stroke="#DCDBDB" d="M569.45,290.201c0,0-6.159-0.367-14.618,5.007c-8.467,5.396-15.4,9.231-15.4,9.231"/>
	</g>
	<g>
		<path fill="none" stroke="#DCDBDB" d="M596.778,290.591l5.383-118.526c0,0,1.931-3.469-4.226-5.007
			c-6.151-1.54-15.786-7.693-41.564-3.469c-12.699,1.538-10.006,8.841-10.395,14.239c-0.38,5.397-5.763,104.68-5.763,104.68"/>
	</g>
	<line fill="none" stroke="#DCDBDB" x1="567.91" y1="290.201" x2="572.525" y2="209.382"/>
	<g>
		<path fill="none" stroke="#DCDBDB" d="M602.553,170.524c0,0-8.459,20.003-11.931,25.011c-3.47,5.006-6.923,15.019-20.015,13.847
			c-3.076-0.757-8.464-1.148-15.775-18.464c-5.779-12.7-8.09-20.784-8.09-20.784"/>
	</g>
	<path fill="none" stroke="#DCDBDB" d="M398.385,258.035c-14.19,0-25.682-11.504-25.682-25.718
		c0-14.191,11.491-25.694,25.682-25.694c14.189,0,25.695,11.503,25.695,25.694C424.08,246.531,412.574,258.035,398.385,258.035z"/>
	<path fill="none" stroke="#DCDBDB" d="M467.855,187.451c0,0,3.85-1.54-3.855-10.015c-7.696-8.45-26.926-31.531-65.418-31.164"/>
	<path fill="none" stroke="#DCDBDB" d="M471.313,192.848"/>
	<path fill="none" stroke="#DCDBDB" d="M420.135,217.857c0,0,1.539-20.785-21.553-22.322"/>
	<path fill="none" stroke="#DCDBDB" d="M474.392,199.369c0,0-1.161-29.626-10.782-43.084c-9.612-13.481-24.998-38.1-65.027-38.1"/>
	<path fill="none" stroke="#DCDBDB" d="M473.621,189.771c0,0,2.344-32.85-23.482-55.05c-24.615-21.152-45.027-20.004-51.557-20.004"
		/>
	<path fill="none" stroke="#DCDBDB" d="M617.185,478.483c-44.479,0-80.536-36.735-80.536-82.065
		c0-45.306,36.058-82.039,80.536-82.039c44.464,0,80.522,36.733,80.522,82.039C697.707,441.748,661.648,478.483,617.185,478.483z"/>
	<path fill="none" stroke="#DCDBDB" d="M616.4,443.848c-25.962,0-47.04-21.49-47.04-47.99c0-26.526,21.078-48.017,47.04-48.017
		c25.988,0,47.041,21.49,47.041,48.017C663.441,422.357,642.389,443.848,616.4,443.848z"/>
	<path fill="none" stroke="#DCDBDB" d="M617.438,437.305c-22.65,0-41.007-18.734-41.007-41.839s18.356-41.863,41.007-41.863
		c22.646,0,41.007,18.759,41.007,41.863S640.084,437.305,617.438,437.305z"/>
	<path fill="none" stroke="#DCDBDB" d="M615.831,421.162c-13.972,0-25.305-11.092-25.305-24.744s11.333-24.717,25.305-24.717
		c13.963,0,25.3,11.064,25.3,24.717S629.794,421.162,615.831,421.162z"/>
	<path fill="none" stroke="#DCDBDB" d="M633.342,415.271c0,0,19.241-2.295,19.241-20.39c-0.391-7.306-8.851-21.937-21.174-18.466"/>
	<path fill="none" stroke="#DCDBDB" d="M628.331,354.851c0,0-35.399,0-39.248,39.271c0.771,12.312,2.701,33.094,34.633,42.327"/>
	<path fill="none" stroke="#DCDBDB" d="M617.941,478.408c0,0,50.422,3.47,73.502-41.179c8.478-15.779,15.02-40.42,8.865-61.206
		c-6.153-20.781-5.385-14.995-6.545-18.466h-2.701l-1.925-4.246l1.157-2.296c0,0-29.244-47.333-84.271-36.172"/>
	<path fill="none" stroke="#DCDBDB" d="M658.35,470.326l30.028-3.078c0,0,31.541-6.547,47.712-40.032
		c16.17-33.484,7.325-67.335-20.776-93.519c0,0-20.781-20.025-63.878-15.019"/>
	<path fill="none" stroke="#DCDBDB" d="M680.686,468.003c0,0,44.634-9.229,55.796-54.271c3.467-16.534,6.165-44.254-18.479-72.342
		c-9.622-8.841-28.864-22.324-50.409-23.08"/>
</g>
</svg>
