<?xml version="1.0" encoding="utf-8"?>
<svg viewBox="16.256 0 42.488 75" xmlns="http://www.w3.org/2000/svg">
  <defs>
    <style>.cls-1{fill:none;stroke:#f4f4f4;stroke-linejoin:round;}</style>
  </defs>
  <title>f4_Tigo_SF</title>
  <g id="Linework">
    <path class="cls-1" d="M22.54,25.2s-.05,0-.08,0"/>
    <line class="cls-1" x1="22.45" y1="25.16" x2="19.79" y2="24.93"/>
    <path class="cls-1" d="M38.37,28.32h.45l4.1-.76H43l0-6h0a.6.6,0,0,0-.5-.6h0l-4.06-.34"/>
    <line class="cls-1" x1="49.72" y1="29.89" x2="36.98" y2="28.82"/>
    <line class="cls-1" x1="42.99" y1="27.51" x2="56.3" y2="28.63"/>
    <line class="cls-1" x1="31.76" y1="16.66" x2="29.75" y2="16.56"/>
    <line class="cls-1" x1="29.9" y1="16.53" x2="29.78" y2="16.55"/>
    <polyline class="cls-1" points="29.78 16.55 29.77 16.55 29.77 16.56 29.76 16.56 29.75 16.56 29.75 16.56 29.74 16.56 29.74 16.56 29.74 16.56"/>
    <path class="cls-1" d="M35.24,29.14h.13l0,0h0v0h0v0l0,0v0l0,0v0l0,0v-.12a.4.4,0,0,0,0-.15L35.57,3.36a1.21,1.21,0,0,0-.08-.46l0,0,0-.05,0,0,0,0,0,0,0,0,0,0,0,0,0,0,0,0,0,0,0,0,0,0,0,0,0,0,0,0,0,0,0,0,0,0,0,0,0,0,0,0,0,0,0,0,0,0,0,0,0,0,0,0,0,0,0,0,0,0,0,0,0,0,0,0,0,0,0,0,0,0,0,0,0,0,0,0h0l0,0h0l0,0h-.26l-1.84-.16h-.14"/>
    <polyline class="cls-1" points="35.24 29.14 35.23 29.14 35.21 29.14 35.2 29.15 35.18 29.15 35.16 29.15 35.15 29.15 35.13 29.15"/>
    <polyline class="cls-1" points="41.95 47.1 41.93 38.95 41.93 39.04 41.93 39.02 41.93 39.01 41.94 38.99 41.94 38.97 41.94 38.95 41.94 38.93 41.94 38.91 41.95 38.89 41.95 38.88 41.95 38.86 41.96 38.84 41.96 38.82 41.96 38.8 41.97 38.78 41.97 38.77 41.98 38.75 41.98 38.73 41.99 38.72 42 38.7 42 38.68 42.01 38.66 42.02 38.65 42.03 38.63 42.03 38.62 42.04 38.6 42.05 38.59 42.06 38.57 42.07 38.56 42.08 38.54 42.09 38.53 42.1 38.52 42.11 38.5 42.12 38.49 42.13 38.48 42.14 38.46 42.15 38.45 42.16 38.44 42.17 38.43 42.19 38.42 42.2 38.41 42.21 38.39 42.22 38.38 42.24 38.38 42.25 38.37 42.26 38.36 42.28 38.35 42.29 38.34 42.3 38.33 42.32 38.32 42.33 38.32 42.35 38.31 42.36 38.3 42.38 38.3 42.39 38.29 42.41 38.29 42.42 38.28 42.44 38.28 42.45 38.27 42.47 38.27 42.48 38.27 42.5 38.27 42.61 38.24 42.62 38.24 50.71 37.03 56.02 36.04 56.03 36.04 56.03 36.04 56.04 36.04 56.05 36.03 56.06 36.03 56.07 36.03 56.07 36.02 56.08 36.02 56.09 36.01 56.09 36.01 56.1 36 56.11 36 56.11 35.99 56.12 35.98 56.13 35.98 56.13 35.97 56.14 35.96 56.14 35.96 56.15 35.95 56.15 35.94 56.15 35.93 56.16 35.92 56.16 35.91 56.17 35.91 56.17 35.9 56.17 35.89 56.17 35.88 56.18 35.87 56.18 35.86 56.18 35.85 56.18 35.84 56.18 35.83 56.18 35.82 56.17 31.43"/>
    <path class="cls-1" d="M23.34,31v2.49l0,.11L24,34.67h0a.28.28,0,0,0,.14.12l8.1,2.57h.23v0h.05v0h0v0h0v0h0v0h0v0h0v0h0v0h0v0h0v0h0v0h0v0h0a1.1,1.1,0,0,1,0,.18v8.14h0l.43.19.09,0,7,.59h.16l1.58,0h.14L47.43,46"/>
    <polyline class="cls-1" points="32.72 46.31 32.72 46.32 32.73 46.32 32.73 46.32 32.73 46.32 32.73 46.32 32.73 46.32"/>
    <polyline class="cls-1" points="35.09 74.25 35.08 74.25 35.07 74.25 35.06 74.25 35.05 74.25 35.04 74.25 35.02 74.25 35.01 74.25 35 74.25 34.99 74.25 34.98 74.25 34.97 74.25 34.96 74.25 34.95 74.25 34.94 74.25 34.92 74.25 34.91 74.25 34.91 74.25 34.89 74.25 34.88 74.25 34.88 74.24 34.87 74.24"/>
    <line class="cls-1" x1="34.87" y1="74.24" x2="34.83" y2="54.98"/>
    <line class="cls-1" x1="38" y1="74.16" x2="37.96" y2="54.98"/>
    <polyline class="cls-1" points="38 74.16 37.99 74.16 37.99 74.17 37.98 74.17 37.98 74.17 37.97 74.17 37.96 74.17 37.95 74.17 37.94 74.17 37.93 74.17 37.92 74.17 37.91 74.18 37.9 74.18 37.89 74.18 37.88 74.18 37.87 74.18 37.86 74.18 37.85 74.18 37.84 74.18 37.83 74.18 37.82 74.18 37.81 74.18"/>
    <polyline class="cls-1" points="20.09 54.24 20.09 54.25 20.09 54.25 20.09 54.25 20.08 54.25 20.08 54.25 20.08 54.25 20.08 54.25 20.08 54.26 20.08 54.26 20.08 54.26 20.08 54.26 20.08 54.26 20.08 54.26 20.08 54.27 20.08 54.26 20.12 72.68 20.12 72.68 20.12 72.69 20.12 72.69 20.12 72.69 20.12 72.69 20.08 54.26 20.12 72.69 20.63 73.03 20.63 73.03 20.63 73.03 20.64 73.03 20.64 73.04 20.64 73.04 20.65 73.04 20.65 73.04 20.66 73.04 20.66 73.04 20.67 73.04 20.68 73.04 20.68 73.05 20.69 73.05 20.7 73.05 20.7 73.05 20.71 73.05 20.72 73.05 20.73 73.05 20.74 73.05 20.75 73.06 20.76 73.06 20.76 73.06 34.87 74.24 35.09 74.25 37.81 74.18 38 74.16 54.63 71.07 54.58 51.82"/>
    <polyline class="cls-1" points="36.44 50.38 36.43 50.38 36.43 50.38"/>
    <polyline class="cls-1" points="33.31 51.21 33.31 51.2 33.31 51.2 33.31 51.19 33.31 51.18 33.31 51.17 33.31 51.17 33.31 51.16 33.32 51.15 33.32 51.15 33.32 51.14 33.32 51.13 33.33 51.13 33.33 51.12 33.33 51.12 33.34 51.11 33.34 51.11 33.34 51.1 33.34 51.1 33.35 51.09 33.35 51.09 33.36 51.09 33.36 51.09 33.36 51.08"/>
    <line class="cls-1" x1="33.31" y1="51.21" x2="33.32" y2="54.81"/>
    <polyline class="cls-1" points="18.3 48.97 18.3 48.97 18.3 48.96"/>
    <polyline class="cls-1" points="55.86 46.75 36.69 50.31 36.44 50.38 36.42 50.38 33.36 51.08 33.36 51.08 18.35 49.79"/>
    <polyline class="cls-1" points="47.55 37.5 47.54 37.51 47.53 37.52 47.52 37.54 47.51 37.55 47.51 37.57 47.5 37.58 47.49 37.59 47.48 37.61 47.48 37.63 47.47 37.64 47.47 37.66 47.46 37.67 47.45 37.69 47.45 37.71 47.45 37.72 47.44 37.74 47.44 37.76 47.43 37.77 47.43 37.79 47.43 37.81 47.42 37.83 47.42 37.84 47.42 37.86 47.42 37.88 47.42 37.9 47.42 37.91 47.41 37.93 47.41 37.95 47.43 46.1 47.43 46.04 55.86 46.75 55.87 51.58 36.7 55.15 36.7 55.14 18.41 53.57 18.41 53.57 18.4 53.57 18.4 53.57 18.39 53.57 18.38 53.56 18.38 53.56 18.37 53.56 18.36 53.55 18.35 53.55 18.34 53.53 18.33 53.52 18.32 53.52 18.32 53.5 18.31 53.49 18.31 53.48 18.31 53.47 18.31 53.45 18.31 53.44 18.3 48.97 18.3 48.87 18.3 48.86 18.3 48.85 18.3 48.84 18.3 48.84 18.3 48.83 18.31 48.82 18.31 48.81 18.32 48.8 18.32 48.8 18.33 48.79 18.34 48.78 18.34 48.78 18.35 48.77 18.35 48.77 32.72 46.09"/>
    <line class="cls-1" x1="36.69" y1="50.31" x2="36.7" y2="55.15"/>
    <line class="cls-1" x1="18.3" y1="48.97" x2="18.3" y2="48.87"/>
    <polyline class="cls-1" points="22.13 31.46 22.13 31.46 22.12 31.46 22.11 31.46 22.1 31.46 22.09 31.46 22.08 31.45 22.07 31.45 22.07 31.45 22.06 31.44 22.05 31.44 22.04 31.43 22.03 31.43 22.02 31.42 22.02 31.42 22.01 31.41 22 31.4 21.99 31.39 21.98 31.39 21.98 31.38 21.97 31.37 21.96 31.36 21.95 31.35 21.95 31.34 21.94 31.33 21.94 31.32 21.93 31.32 21.92 31.3 21.92 31.29 21.91 31.28 21.9 31.27 21.9 31.26 21.89 31.25 21.89 31.23 21.89 31.22 21.88 31.21 21.88 31.19 21.87 31.18 21.87 31.17 21.86 31.15 21.86 31.14 21.86 31.12 21.86 31.11 21.85 31.09 21.85 31.08 21.85 31.06 21.84 31.05 21.84 31.03 21.84 31.02 21.84 31 21.84 30.98 21.84 30.97 21.84 30.95 21.84 30.94 21.84 30.92 21.83 25.88 21.83 25.88 21.83 25.86 21.83 25.84 21.83 25.83 21.83 25.81 21.83 25.8 21.83 25.78 21.83 25.76 21.83 25.75 21.84 25.73 21.84 25.71 21.84 25.7 21.84 25.68 21.85 25.67 21.85 25.65 21.85 25.64 21.86 25.62 21.86 25.61 21.86 25.59 21.87 25.58 21.87 25.56 21.88 25.55 21.88 25.53 21.89 25.52 21.89 25.5 21.9 25.49 21.9 25.48 21.91 25.46 21.92 25.45 21.92 25.44 21.93 25.43 21.94 25.41 21.94 25.4 21.95 25.39 21.96 25.38 21.96 25.37 21.97 25.36 21.98 25.34 21.99 25.33 22 25.33 22 25.32 22.01 25.31 22.02 25.3 22.03 25.29 22.04 25.28 22.04 25.27 22.05 25.27 22.06 25.26 22.07 25.25 22.08 25.25 22.09 25.24 22.1 25.24 22.11 25.23 22.11 25.23 22.12 25.22 22.13 25.22 22.14 25.22 22.15 25.21 22.16 25.21 22.17 25.21 22.44 25.16 22.17 25.21 35.63 22.75"/>
    <polyline class="cls-1" points="22.45 25.16 22.45 25.16 22.45 25.16 22.44 25.16"/>
    <line class="cls-1" x1="19.35" y1="25.04" x2="17.47" y2="24.87"/>
    <line class="cls-1" x1="42.41" y1="20.84" x2="38.4" y2="21.58"/>
    <polyline class="cls-1" points="42.46 20.83 42.45 20.83 42.44 20.83 42.43 20.83 42.42 20.83 42.41 20.84 42.41 20.84"/>
    <polyline class="cls-1" points="50.28 32.44 50.29 35.96 50.72 36.83 50.72 36.85 50.73 36.87 50.73 36.88 50.74 36.89 50.74 36.91 50.74 36.93 50.74 36.94 50.74 36.95 50.74 36.95 50.74 36.97 50.74 36.98 50.74 36.99 50.73 37 50.73 37 50.73 37.01 50.73 37.02 50.72 37.02 50.72 37.03 50.72 37.03 50.71 37.03"/>
    <line class="cls-1" x1="26.94" y1="30.28" x2="49.8" y2="32.28"/>
    <polyline class="cls-1" points="32.71 38.17 32.71 38.17 32.71 38.17 32.71 38.17 32.71 38.17 32.71 38.17 32.72 38.17"/>
    <polyline class="cls-1" points="31.72 21.45 29.75 21.2 29.74 16.56 31.7 15.8"/>
    <polyline class="cls-1" points="49.72 29.89 49.72 32.26 50.4 32.44 50.48 32.42 50.61 32.4 50.74 32.38 50.87 32.36 51 32.34 51.13 32.32 51.26 32.3 51.39 32.28 51.52 32.26 51.65 32.23 51.78 32.21 51.91 32.19 52.03 32.17 52.16 32.15 52.29 32.13 52.42 32.11 52.54 32.08 52.67 32.06 52.8 32.04 52.92 32.02 53.05 32 53.17 31.98 53.3 31.95 53.42 31.93 53.55 31.91 53.67 31.89 53.79 31.87 53.92 31.85 54.04 31.82 54.16 31.8 54.28 31.78 54.41 31.76 54.53 31.74 54.65 31.71 54.77 31.69 54.89 31.67 55.01 31.65 55.13 31.63 55.25 31.61 55.37 31.58 55.49 31.56 55.61 31.54 55.73 31.52 55.84 31.5 55.96 31.47 56.08 31.45 56.2 31.43 56.31 31.41 56.43 31.38 56.53 31.36 57.63 31.16 57.63 31.16 57.64 31.16 57.65 31.15 57.65 31.15 57.66 31.15 57.67 31.14 57.67 31.14 57.68 31.14 57.68 31.13 57.69 31.13 57.69 31.12 57.7 31.11 57.7 31.11 57.7 31.1 57.71 31.1 57.71 31.09 57.72 31.08 57.72 31.07 57.72 31.07 57.72 31.06 57.72 31.05 57.73 31.05 57.73 31.04 57.73 31.03 57.73 31.02 57.72 28.75 57.72 28.75 57.72 28.74 57.72 28.73 57.72 28.72 57.72 28.71 57.72 28.7 57.71 28.7 57.71 28.69 57.71 28.68 57.7 28.68 57.7 28.67 57.7 28.66 57.69 28.66 57.69 28.65 57.68 28.64 57.68 28.64 57.67 28.63 57.67 28.63 57.66 28.62 57.66 28.61 57.65 28.61 57.64 28.61 57.64 28.6 57.63 28.6 57.62 28.6 57.62 28.6 57.61 28.59 57.6 28.59 57.59 28.59 56.84 28.53 49.72 29.89"/>
    <path class="cls-1" d="M29.75,21.2h-.06l-.14,0-.14,0-.13,0-.14,0-.14,0-.14,0-.13,0-.14,0-.14,0-.13,0-.14,0-.13,0-.14,0-.13,0-.13,0-.14,0-.13,0-.13,0-.13,0-.13,0-.13,0-.13,0-.13,0-.13,0-.13,0-.13,0-.13,0-.13,0-.12,0-.13,0-.13,0-.12,0-.13,0-.12,0-.13,0-.12,0-.13,0-.12,0-.12,0-.12,0-.13,0-.12,0-.12,0-.12,0-.12,0-.12,0-.12,0-.12,0-.12,0-.11,0-.12,0-.12,0-.11,0-.12,0-.12,0-.11,0-.12,0-.11,0-.11,0-.12,0-.11,0-.11,0-.11,0-.12,0-.11,0-.11,0-.11,0-.11,0-.11,0-.1,0-.11,0-.11,0-.11,0-.11,0-.1,0-.11,0-.1,0-.11,0-.1,0-.11,0-.1,0-.1,0-.11,0-.1,0-.1,0-.1,0-.1,0-.1,0-.1,0-.1,0-.1,0-.1,0-.1,0-.1,0-.09,0-.1,0-.1,0-.09,0-.1,0-.09,0-.1,0-.09,0,.09,0a.77.77,0,0,0-.58.81v4.28s-.06,1.08.66,1.13l1.65.39"/>
    <path class="cls-1" d="M22.58,31.09l-.45.37-2.66-.22h-.28v0h0v0h0v0h0v0h0v0h0v0h0v0h0v0h0V25.55h0v0h0v0h0v0h0v0h0v0h0v0h0v0h0v0h.25l12.29-2.3,0-20.86V1.46l0,0v0h0l0,0h0l0,0h.19l2.8-.52H35l1.83.16h.56l0,0h.07l0,0h0l0,0h0l0,0h0l0,0h0l0,0,0,0,0,0h0l0,0,0,0,0,0,0,0v0l0,0h0l0,0,0,0v0l0,0v0l0,0v0l0,0,0,0v0l0,0v0l0,0v.05l0,0V2l0,0v.86l.06,25.23h0v0h0v0h0v0h0v0h0v0h0v0h0v0h0v0h0v0h0v0H38l-2.79.52h-.1L33.7,29Z"/>
  </g>
</svg>