<?xml version="1.0" encoding="utf-8"?>
<!-- Generator: Adobe Illustrator 16.0.0, SVG Export Plug-In . SVG Version: 6.00 Build 0)  -->
<!DOCTYPE svg PUBLIC "-//W3C//DTD SVG 1.1//EN" "http://www.w3.org/Graphics/SVG/1.1/DTD/svg11.dtd">
<svg version="1.1" id="Layer_1" xmlns="http://www.w3.org/2000/svg" xmlns:xlink="http://www.w3.org/1999/xlink" x="0px" y="0px"
	 width="288px" height="612px" viewBox="0 0 288 612" enable-background="new 0 0 288 612" xml:space="preserve">
<g>
	<path fill="none" stroke="#DCDBDB" d="M85.283,436.938c0,0-0.628-2.696-5.199-3.121c-3.331-0.192-6.358-1.337-3.751-7.27"/>
	<path fill="none" stroke="#DCDBDB" d="M178.367,374.949l1.902,0.225l1.058,58.273l43.487-2.322c0,0-0.306-2.401,2.296-3.128
		c2.627-0.731,9.585-0.621,4.991-7.496c-3.341-9.378-19.692-57.328-24.389-76.59c-4.707-19.249-20.153-82.71-19.896-139.429
		c-0.423-15.829,0.92-48.82,6.515-74.619c5.613-25.834,18.786-67.778,20.544-72.051c1.774-4.262,3.021-8.842-2.594-9.048
		c-5.607-0.188-2.922,0.211-5.611-1.236c-4.07,0.11-123.64,4.662-136.237,5.813c-1.446,1.036-3.009,1.356-5.846,1.881
		c-2.809,0.514-5.275,2.188-1.226,8.939c3.439,7.797,27.735,57.241,37.864,120.798l2.191,22.816c0,0,7.579,86.999-12.958,165.051
		c-9.586,40.397-14.14,53.71-14.14,53.71s-7.385,3.438-1.552,10.934c2.701,3.527,9.448,2.807,10.51-0.31
		c8.429-0.33,42.56-1.596,42.56-1.596l-2.544-63.705l1.993-0.535l-0.009,5.653l0.006,0.822l50.886-1.59l0.017-6.46l-50.703,2.423"/>
	<path fill="none" stroke="#DCDBDB" d="M103.551,207.464c0,0-57.159-1.517-68.798-10.68"/>
	<path fill="none" stroke="#DCDBDB" d="M49.19,177.929c0,0,17.599,6.124,52.05,7.06"/>
	<path fill="none" stroke="#DCDBDB" d="M188.229,181.577c0,0,42.034-6.067,51.615-11.479"/>
	<path fill="none" stroke="#DCDBDB" d="M187.826,204.284c0,0,53.187-5.996,69.108-17.133"/>
	<path fill="none" stroke="#DCDBDB" d="M265.796,183.219c5.796-5.79,5.674-15.291-0.263-21.205
		c-5.918-5.919-15.409-6.017-21.192-0.208c-5.782,5.792-5.678,15.298,0.241,21.192C250.524,188.915,260.006,189.024,265.796,183.219
		z"/>
	<path fill="none" stroke="#DCDBDB" d="M261.371,178.506c3.232-3.245,3.179-8.585-0.144-11.894
		c-3.32-3.319-8.631-3.375-11.885-0.127c-3.25,3.26-3.197,8.599,0.123,11.895C252.789,181.697,258.135,181.745,261.371,178.506z"/>
	<path fill="none" stroke="#DCDBDB" d="M45.788,192.75c5.796-5.79,5.684-15.292-0.265-21.207
		c-5.912-5.908-15.392-6.027-21.175-0.218c-5.788,5.807-5.686,15.291,0.234,21.189C30.523,198.444,40.004,198.533,45.788,192.75z"/>
	<path fill="none" stroke="#DCDBDB" d="M40.446,188.072c3.138-3.121,3.082-8.274-0.121-11.469c-3.201-3.205-8.33-3.276-11.476-0.127
		c-3.138,3.146-3.064,8.274,0.136,11.468C32.203,191.159,37.338,191.211,40.446,188.072z"/>
	<path fill="none" stroke="#DCDBDB" d="M63.471,64.699c0,0-5.086-0.93-4.997-6.649c0.093-5.733,7.812-10.318,11.847-4.596"/>
	<path fill="none" stroke="#DCDBDB" d="M94.267,64.887c2.533-2.533,2.383-6.782-0.297-9.469c-2.711-2.701-6.958-2.843-9.476-0.31
		c-2.54,2.538-2.397,6.776,0.314,9.481C87.504,67.271,91.741,67.418,94.267,64.887z"/>
	<path fill="none" stroke="#DCDBDB" d="M193.578,61.082c2.676-2.65,2.577-7.026-0.155-9.772c-2.761-2.743-7.132-2.807-9.77-0.15
		c-2.663,2.649-2.615,7.049,0.145,9.77C186.55,63.677,190.937,63.767,193.578,61.082z"/>
	<path fill="none" stroke="#DCDBDB" d="M206.543,47.429c0,0,4.159-6.872,11.458,0.196c3.748,3.534,0.316,9.873-2.803,10.306"/>
	<path fill="none" stroke="#DCDBDB" d="M146.258,113.263c2.667-2.663,2.564-7.03-0.161-9.789c-2.762-2.727-7.111-2.801-9.76-0.135
		c-2.675,2.649-2.602,7.029,0.139,9.761C139.219,115.85,143.616,115.93,146.258,113.263z"/>
	<path fill="none" stroke="#DCDBDB" d="M149.337,172.477c2.657-2.663,2.558-7.043-0.183-9.785c-2.732-2.744-7.112-2.807-9.763-0.127
		c-2.658,2.641-2.593,7.02,0.16,9.774C142.272,175.06,146.674,175.132,149.337,172.477z"/>
	<path fill="none" stroke="#DCDBDB" d="M156.127,230.645c5.011-5.021,4.93-13.236-0.211-18.361
		c-5.135-5.124-13.38-5.221-18.358-0.191c-5.029,5.018-4.93,13.235,0.193,18.357C142.903,235.591,151.113,235.66,156.127,230.645z"
		/>
	<path fill="none" stroke="#DCDBDB" d="M153.064,281.583c2.309-2.315,2.28-6.103-0.072-8.438c-2.34-2.348-6.135-2.369-8.435-0.05
		c-2.306,2.308-2.277,6.101,0.063,8.426C146.974,283.875,150.75,283.899,153.064,281.583z"/>
	<path fill="none" stroke="#DCDBDB" d="M156.674,349.472c2.806-2.794,2.757-7.35-0.076-10.187c-2.833-2.84-7.392-2.864-10.191-0.072
		c-2.773,2.802-2.761,7.354,0.079,10.192C149.32,352.237,153.875,352.264,156.674,349.472z"/>
	<path fill="none" stroke="#DCDBDB" d="M108.428,421.324c2.806-2.803,2.76-7.357-0.083-10.195
		c-2.834-2.815-7.375-2.861-10.175-0.062c-2.785,2.786-2.753,7.351,0.097,10.19C101.1,424.092,105.649,424.11,108.428,421.324z"/>
	<path fill="none" stroke="#DCDBDB" d="M209.079,415.911c2.298-2.306,2.266-6.111-0.098-8.434c-2.349-2.34-6.114-2.398-8.439-0.066
		c-2.323,2.315-2.27,6.1,0.062,8.432C202.957,418.223,206.717,418.248,209.079,415.911z"/>
	<path fill="none" stroke="#DCDBDB" d="M224.63,430.916c0,0,3.326,5.404,9.371,1.241c4.15-3.325,3.326-10.414-1.775-11.961"/>
	<path fill="none" stroke="#DCDBDB" d="M127.275,378.006l0.951,5.117l2.214,0.284c0,0-0.553-1.959,0.69-2.363
		c1.25-0.437,11.853-2.736,24.021-2.837c12.199-0.112,20.408-0.852,20.631,2.266c0.208,3.131,0.117,12.176,0.117,12.176
		s0.831,1.66-1.664,2.507c-0.017,1.673,0.09,4.889,0.09,4.889"/>
	<path fill="none" stroke="#DCDBDB" d="M175.592,393.998c0,0-0.421-1.239-2.719-0.833c-0.095,3.018,0.113,6.562,0.113,6.562
		s2.695-0.416,3.436,0.715c0.204,3.126,0.204,6.874,0.204,6.874s-0.408,16.033-0.398,18.116c0.001,2.08,0.425,9.988-1.854,25.196
		c-2.275,15.201-5.711,40.886-5.711,40.886s0.857,1.458-2.271,2.071c-4.049,0.123-19.038,0.546-19.038,0.546
		s-0.957,0.934-1.675-2.078c-0.718-3.025-7.938-39.124-8.885-42.974c-0.941-3.854-3.239-13.209-3.347-18.522
		c-0.094-5.319-0.425-6.863-0.425-6.863s-0.917,0.92-1.124-1.773c-0.207-2.693-0.546-20.504-0.546-20.504l1.667-0.632l-0.105-3.835
		c0,0-2.199,0.511-2.078-2.504c0.092-3.011-0.21-10.823-0.21-10.823s34.341-3.762,45.167-0.04"/>
	<path fill="none" stroke="#DCDBDB" d="M137.741,452.93c0,0,15.717-3.656,36.318-1.383"/>
	<path fill="none" stroke="#DCDBDB" d="M148.281,494.237c0,0,0.65,8.945,0.631,9.981c0.01,1.073,1.97,4.918,3.251,6.972
		c1.226,2.097,1.767,2.407,3.103,2.299c1.34-0.111,6.139-0.121,6.139-0.121s0.934,0.952,2.4-2.372
		c1.433-3.352,3.45-6.798,3.104-10.82c-0.289-4.076-0.205-6.682-0.205-6.682"/>
	<path fill="none" stroke="#DCDBDB" d="M149.123,504.847c0,0,12.812-1.365,17.289-0.404"/>
	<polyline fill="none" stroke="#DCDBDB" points="154.963,513.603 157.299,579.991 164.169,579.782 161.82,513.597 	"/>
	<path fill="none" stroke="#DCDBDB" d="M165.485,589.79c2.218-2.254,2.199-5.892-0.085-8.174c-2.258-2.257-5.904-2.276-8.148-0.04
		c-2.209,2.229-2.188,5.875,0.083,8.143C159.593,591.994,163.239,592.012,165.485,589.79z"/>
</g>
</svg>
