<?xml version="1.0" encoding="utf-8"?>
<!-- Generator: Adobe Illustrator 16.0.0, SVG Export Plug-In . SVG Version: 6.00 Build 0)  -->
<!DOCTYPE svg PUBLIC "-//W3C//DTD SVG 1.1//EN" "http://www.w3.org/Graphics/SVG/1.1/DTD/svg11.dtd">
<svg version="1.1" id="Layer_1" xmlns="http://www.w3.org/2000/svg" xmlns:xlink="http://www.w3.org/1999/xlink" x="0px" y="0px"
	 width="432px" height="612px" viewBox="0 0 432 612" enable-background="new 0 0 432 612" xml:space="preserve">
<g>
	<path fill="none" stroke="#DCDBDB" d="M357.973,585.653"/>
	<path fill="none" stroke="#DCDBDB" d="M348.146,585.948"/>
	<path fill="none" stroke="#DCDBDB" d="M357.973,585.653l-7.729-26.195c0,0,3.023-0.417,3.536-1.206
		c1.659-2.611-1.3-12.333-1.3-12.333s1.721-20.652,1.773-28.131c0.047-7.018-1.396-28.048-1.396-28.048s-2.65-11.469-2.71-15.371
		c-0.044-2.069,0.624-6.181,1.155-8.181c0.502-1.849,2.879-7.109,2.879-7.109s32.775-2.97,34.155-3.544
		c0.837-0.346,1.893-2.023,2.166-2.881c0.344-1.064-0.431-2.7-0.174-3.803c0.153-0.695,1.369-3.252,1.369-3.252l13.147-1.798
		c1.62-0.87,3.876-4.465,3.752-6.29c-0.126-1.752-2.729-4.927-4.393-5.491l-12.288,0.873l0.991-49.979c0,0,21.105-1.81,22.111-2.899
		c0.788-0.852,1.613-3.132,1.83-4.27c0.146-0.76,0.146-2.354-0.09-3.085c-0.402-1.269-2.089-3.388-2.94-4.408
		c-1.033-1.236-20.727,2.023-20.727,2.023L392.1,355.98c0,0-0.281-2.18-0.644-2.79c-5.116-8.562-29.996-26.347-29.996-26.347
		s0.247-3.311,0.28-4.646c0.011-0.643,0.053-2.279-0.157-2.887c-0.277-0.798-1.752-2.251-2.399-2.801
		c-0.472-0.385-1.418-1.221-2.016-1.342c-3.064-0.626-12.283,2.335-12.283,2.335s-10.769-6.318-14.814-6.861
		c-3.015-0.396-12.012,2.045-12.012,2.045l-1.21-21.592c0,0-2.909-1.629-3.988-1.839c-0.829-0.167-2.562-0.138-3.373,0.095
		c-0.975,0.292-3.502,2.103-3.502,2.103l-1.615,24.385c0,0-30.353,5.049-34.005,8.394c-4.334,3.976-7.857,65.963-2.257,102.9
		c0.265,1.769,1.758,6.943,1.758,6.943l1.357,3.05l4.564,2.393l5.39,1.803l24.369,7.137c0,0,1.641,2.154,2.326,2.739
		c0.571,0.499,1.838,1.418,2.577,1.61c0.948,0.259,3.003-0.438,3.93-0.12c1.507,0.522,4.201,2.64,4.896,4.067
		c0.531,1.075-0.451,3.735,0.146,4.77c0.642,1.118,2.575,1.619,2.103,4.717c-0.472,3.102,0.23,5.05,0.23,5.05
		s-3.53,2.918-3.593,4.318c-0.07,1.688,3.894,5.504,3.894,5.504s-1.304,59.131-0.188,62.084c0.775,2.076,8.49,2.55,8.49,2.55
		s-1.154,11.717,1.133,14.209c1.529,1.657,7.159-0.411,7.159-0.411l9.494,26.404"/>
	<path fill="none" stroke="#DCDBDB" d="M328.473,336.818c0,0,18.704,3.785,28.753,8.131c8.818,3.805,20.134,10.017,24.899,15.609
		c0.318,0.361,0.654,1.273,0.762,1.734c0.111,0.514,0.213,1.601,0.057,2.103c-2.446,8.267-10.466,17.32-20.662,27.586
		c-13.225,13.326-31.62,18.083-31.62,18.083"/>
	<path fill="none" stroke="#DCDBDB" d="M292.798,402.512c0.099,4-1.018,7.266-3.218,7.333c-2.98,0.09-4.53-3.1-4.641-7.103
		c-0.127-3.984,1.993-7.278,4.192-7.354C291.99,395.305,292.712,398.8,292.798,402.512z"/>
	<path fill="none" stroke="#DCDBDB" d="M320.386,371.608c0.104,3.721-0.949,5.929-5.013,6.608l-38.416,6.491
		c-3.722,0.113-4.609,1.048-4.713-2.669l1.387-45.544c-0.118-3.73,3.268-5.416,6.615-6.236l37.716-6.75
		c3.712-0.118,2.39,7.159,2.506,10.881L320.386,371.608z"/>
	<path fill="none" stroke="#DCDBDB" d="M292.225,407.097c-0.248,1.033-1.28,2.432-2.283,2.454c-1.317,0.037-2.14-0.198-2.176-1.241
		c-0.024-1.051,1.893-2.438,3.207-2.479C292.294,405.793,292.483,406.086,292.225,407.097z"/>
	<path fill="none" stroke="#DCDBDB" d="M369.807,378.424c0,1.077-0.681,3.176-3.012,2.575c-1.191-0.306-5.396-4.334-5.39-11.066
		c0.007-5.723,2.897-11.052,5.488-6.688"/>
	<path fill="none" stroke="#DCDBDB" d="M372.566,362.606l-6.786,0.765c0,0-3.064,0.435-2.034,9.33
		c0.563,4.897,3.465,6.144,3.465,6.144l7.763-1.566"/>
	<path fill="none" stroke="#DCDBDB" d="M377.373,370.612c0.124,4.179,0,6.591-2.399,6.666c-2.4,0.078-5.029-3.663-5.153-7.85
		c-0.126-4.185,0.989-6.771,3.386-6.841C375.603,362.521,377.315,368.574,377.373,370.612z"/>
	<path fill="none" stroke="#DCDBDB" d="M393.093,370.275c-0.354,0.036-0.713,0.226-2.774,0.434c-1.517,0.15-3.095,0.514-2.58,6.185
		c0.349,3.786,1.218,6.223,2.939,6.162c1.727-0.051,0.627,0.079,2.23-0.142"/>
	<path fill="none" stroke="#DCDBDB" d="M392.231,432.603l-2.878,0.352c0,0-1.608,0.189-5.328,0.306l-0.273,0.007
		c-5.269,0.154-6.666,2.654-6.563,6.376v0.282c0.127,3.72,0.863,7.349,6.956,6.529l0.272-0.013c3.724-0.104,6.929-0.555,7.281-0.842
		"/>
	<path fill="none" stroke="#DCDBDB" d="M305.547,448.457c-9.097-9.92,10.367-9.017,24.617-9.442
		c14.27-0.424,37.093,6.197,37.206,10.268c0.058,1.911,0.188,6.403-14.278,10.074"/>
	<path fill="none" stroke="#DCDBDB" d="M320.978,463.443"/>
	<path fill="none" stroke="#DCDBDB" d="M321.193,470.736"/>
	<polyline fill="none" stroke="#DCDBDB" points="320.978,463.443 320.753,456.153 324.405,456.042 328.065,455.936 329.124,463.667 
		330.199,471.41 325.699,471.072 321.618,470.783 	"/>
	<path fill="none" stroke="#DCDBDB" d="M388.337,455.535l-55.593-24.273c0,0-1.799-1.072-2.214-1.617
		c-0.712-0.932-1.442-3.198-1.711-4.335c-3.628-15.761-3.832-48.416-4.363-64.594c-0.379-11.657,0.06-35.338,3.338-46.543
		c0.227-0.775,0.888-2.373,1.543-2.852c0.285-0.203,1.311-0.242,1.304-0.594"/>
	<path fill="none" stroke="#DCDBDB" d="M269.695,401.871c-1.47-11.563-2.452-6.753-3.189-31.36
		c-0.739-24.614,6.074-43.224,7.622-45.688"/>
	<path fill="none" stroke="#DCDBDB" d="M288.933,409.583"/>
	<path fill="none" stroke="#DCDBDB" d="M277.688,324.718"/>
	<path fill="none" stroke="#DCDBDB" d="M323.005,313.949c0,0,0.018,24.371-0.865,42.736c-0.822,17.005-2.25,39.197-2.25,39.197"/>
	<line fill="none" stroke="#DCDBDB" x1="304.37" y1="315.838" x2="318.059" y2="312.688"/>
	<path fill="none" stroke="#DCDBDB" d="M344.885,317.504c-4.107,0.123-4.011,3.737-3.885,7.698c0.12,3.947,3.64,9.162,6.163,6.005"
		/>
	<path fill="none" stroke="#DCDBDB" d="M347.163,331.207l11.817-2.601c0,0,1.326-0.864,1.644-1.273
		c0.164-0.208,0.446-0.947,0.446-0.947"/>
	<path fill="none" stroke="#DCDBDB" d="M193.777,375.632l-0.28-8.353l20.737-1.146l26.225-4.761c0,0,3.468-2.232,4.044-3.425
		c1.757-3.626-3.009-79.924-3.009-79.924l-1.978-28.552l-1.203-14.265c0,0-0.788-9.913-1.109-12.82
		c-0.305-2.904-1.483-9.278-1.929-12.16c-0.599-3.872-2.697-17.242-2.697-17.242s-3.372-12.792-4.336-16.594
		c-0.999-3.941-3.604-13.572-3.604-13.572l-4.435-14.378l-5.523-13.681l-5.533-11.615l-5.698-11.813l-6.736-10.802
		c0,0-4.553-8.067-6.22-10.659c-2.04-3.176-5.686-9.044-8.715-11.297c-0.745-0.563-1.686-1.262-2.326-1.541
		c-0.974-0.416-4.099-1.044-4.099-1.044s-3.398-1.453-4.567-1.851c-1.172-0.409-3.86-1.58-3.86-1.58l-5.74-3.592
		c0,0-3.335-2.457-4.628-3.254c-0.836-0.51-2.518-1.383-4.451-2.254c-1.929-0.872-4.171-1.859-5.411-2.301
		c-1.631-0.586-4.105-1.307-6.576-1.963c-2.495-0.651-4.986-1.243-6.702-1.564c-1.561-0.296-4.151-0.633-6.745-0.922
		c-2.586-0.292-5.183-0.531-6.779-0.626c-2.738-0.176-8.222-0.334-13.021-0.45c-4.791-0.112-8.903-0.182-8.903-0.182l-5.057-1.453
		l-5.044-1.452c0,0-1.525-0.323-3.289-0.649c-1.781-0.326-3.801-0.639-4.833-0.622c-0.234,0.007-0.605,0.077-0.962,0.173
		c-0.353,0.098-0.704,0.218-0.917,0.326c-0.503,0.247-1.214,0.702-1.882,1.207c-0.669,0.509-1.303,1.053-1.646,1.492
		c-2.005,2.514-5.071,8.176-7.625,13.205c-2.555,5.036-4.606,9.449-4.606,9.449c-8.095,15.963-13.722,30.496-17.346,41.045
		c-3.607,10.551-5.197,17.107-5.197,17.107s-2.628,8.176-5.295,19.826c-2.674,11.645-5.39,26.768-6.423,35.838
		c-0.738,6.363-1.644,14.549-2.417,23.561c-0.774,9.011-1.414,18.846-1.625,28.481c-0.154,6.738-0.486,20.238-0.794,32.058
		c-0.292,11.817-0.557,21.951-0.557,21.951s-0.164,10.713-0.332,23.209c-0.169,12.49-0.351,26.771-0.394,33.912
		c-0.01,0.621,0.099,1.571,0.281,2.493c0.188,0.923,0.458,1.835,0.76,2.374c0.228,0.427,0.592,0.854,0.994,1.234
		c0.405,0.376,0.85,0.707,1.285,0.947c0.5,0.279,1.099,0.524,1.715,0.735c0.609,0.205,1.236,0.371,1.801,0.515
		c1.874,0.433,5.247,0.638,8.145,0.729c2.898,0.099,5.337,0.083,5.337,0.083l1.029,0.522l1.04,0.524l15.764,0.509l15.763,0.501
		l1.187,1.727l1.188,1.725l-0.05,3.215l-0.056,3.215l1.347,37.523l-0.616,2.07l-0.209,5.086l-0.21,5.069l0.105,9.384l0.105,9.384
		l0.625,0.47l0.64,0.472l0.561,0.207l0.557,0.197l0.987,0.106l0.983,0.104l0.161,0.695l0.161,0.698l1.705-0.13l1.708-0.124
		l0.466,0.783l0.483,0.785l-0.377,2.219l-0.361,2.217l0.361,4.153l0.36,4.147l-1.242,1.089l-1.25,1.089l-0.878,7.052l-0.885,7.051
		l1.096,0.872l1.085,0.883c0,0,10.633,0.08,23.04,0.116c12.406,0.038,26.577,0.038,33.67-0.116
		c6.087-0.127,18.264-0.646,28.923-1.133c10.66-0.48,19.798-0.936,19.798-0.936l0.879-0.934l0.878-0.932l-1.183-6.84l-1.201-6.842
		l-0.676-0.825l-0.675-0.838c0,0,0.371-0.285,0.7-0.956c0.346-0.675,0.651-1.739,0.546-3.291c-0.112-1.656-0.546-2.848-0.966-3.631
		c-0.406-0.774-0.795-1.14-0.795-1.14l-0.458-2.278l-0.476-2.283l0.458-0.219l0.462-0.212l1.823-0.25l1.827-0.257l0.127-0.907
		l0.125-0.904c0,0,0.822,0,1.683-0.113c0.872-0.12,1.792-0.342,2.002-0.763c0.788-1.657,0.676-9.388,0.382-16.693
		c-0.309-7.306-0.801-14.202-0.801-14.202L193.777,375.632z"/>
	<path fill="none" stroke="#DCDBDB" d="M105.691,71.936c2.286-0.096,13.993,0.933,13.993,0.933s11.406,1.866,11.826,1.866
		c0.417,0,8.596,1.968,8.596,1.968s6.632,2.349,8.821,3.217c0.962,0.377,2.936,1.098,3.825,1.637
		c1.146,0.702,3.751,2.156,4.157,3.44c2.146,6.95-7.982,27.99-7.982,27.99l-19.05-3.531l-3.78-0.413l-5.276,0.42l-1.851,0.414
		l-4.361-13.578l-3.625-10.785l-3.119-8.705L105.691,71.936z"/>
	<path fill="none" stroke="#DCDBDB" d="M92.914,53.996l4.277,30.589l3.737,34l2.902,36.075l1.862,31.928l1.037,30.688l0.83,37.735
		l0.837,88.701c0,0,0.055,4.695-0.561,7.912c-0.395,2.095-1.585,3.593-4.417,4.288c-11.619,2.835-43.539,8.868-43.539,8.868"/>
	<path fill="none" stroke="#DCDBDB" d="M118.97,109.877l6.006,26.955l6.325,30.82l4.459,36.77l2.905,43.125l1.927,47.679
		l0.974,45.138c0,0,0.686,10.721-0.692,13.737c-0.407,0.864-1.841,1.816-2.629,2.087c-14.998,5.013-62.603,9.092-62.603,9.092"/>
	<path fill="none" stroke="#DCDBDB" d="M131.3,167.094l30.022-12.435c0,0,1.458-0.044,1.938,0
		c6.801,0.663,26.813,5.264,26.813,5.264"/>
	<path fill="none" stroke="#DCDBDB" d="M168.861,84.584c2.971,1.344,5.645,5.528,6.426,7.876c1.004,2.991,2.667,9.102,3.454,12.158
		c0.956,3.715,2.562,11.208,3.458,14.935c0.389,1.604,1.614,6.408,1.614,6.408"/>
	<path fill="none" stroke="#DCDBDB" d="M148.927,112.987l9.502,1.865l5.392,1.383l4.876,1.248c0,0,3.103,0.618,4.101,0.964
		c1.377,0.479,4.022,1.729,5.253,2.488c1.01,0.623,3.728,2.905,3.728,2.905l5.53,5.798l2.765,4.427l4.008,6.219l2.355,5.531
		l3.178,7.74l1.385,5.251l3.21,0.452l1.347,3.559l0.825,4.8l0.602,5.728l0.655,6.334l-0.42,6.637l-0.966,5.244l-0.898,4.772
		l-0.351,2.835l-0.697,1.104v0.69l-1.378,0.695h-1.1l-1.249,6.354l-1.385,5.254l-2.063,6.217l-2.355,6.775l-2.897,7.327
		l-4.011,7.738l-3.735,6.224l-3.868,5.803l-4.287,5.247l-5.111,5.251c0,0-5.28,4.216-7.191,5.394
		c-1.515,0.939-4.708,2.511-6.366,3.179c-0.822,0.341-3.414,1.112-3.414,1.112"/>
	<line fill="none" stroke="#DCDBDB" x1="139.658" y1="272.306" x2="172.249" y2="275.326"/>
	<path fill="none" stroke="#DCDBDB" d="M149.335,273.18c0,0,2.64,8.729,3.679,11.369c1.469,3.743,6.527,14.671,6.527,14.671
		s2.005,3.724,2.702,4.824c0.651,1.039,2.285,4.071,3.374,4.655c2.394,1.278,3.018,0.45,3.624,0.058
		c0.618-0.4,1.823-2.197,2.125-2.87c0.731-1.64,1.566-5.95,1.566-5.95s1.254-9.581,1.527-12.797
		c0.188-2.149,1.095-6.583,0.415-8.635c-0.324-0.974-2.624-3.178-2.624-3.178"/>
	<path fill="none" stroke="#DCDBDB" d="M166.857,189.907l-0.334,7.949v7.669l0.334,7.88c0,0,0.334,6.044,0.552,7.948
		c0.2,1.773,0.815,5.011,1.105,6.777c0.184,1.069,0.783,3.654,1.156,4.749c0.195,0.548,0.696,1.828,1.199,2.094
		c0.945,0.5,1.614,0.2,2.133,0.063c0.57-0.166,1.462-0.962,2.061-1.574c1.246-1.267,5.043-4.974,5.043-4.974l5.991-6.681l5.642-7.02
		l5.118-8.565l2.895-5.528l1.98-5.035l3.623,0.676"/>
	<path fill="none" stroke="#DCDBDB" d="M205.975,170.139c0,5.499-2.056,8.16-5.533,8.16c-3.477,0-7.142-3.708-8.114-9.118
		c-1.004-5.539,2.653-10.658,6.115-10.658C201.925,158.523,205.975,164.642,205.975,170.139z"/>
	<line fill="none" stroke="#DCDBDB" x1="185.1" y1="160.878" x2="197.396" y2="158.523"/>
	<line fill="none" stroke="#DCDBDB" x1="202.289" y1="177.995" x2="193.941" y2="182.585"/>
	<path fill="none" stroke="#DCDBDB" d="M193.941,182.585c-10.741,10.228-16.516-1.035-17.65-8.297
		c-0.826-5.337,0.444-15.004,8.809-13.409"/>
	<path fill="none" stroke="#DCDBDB" d="M173.627,161.706c0,0.878-0.541,1.596-1.208,1.596c-0.675,0-1.203-0.717-1.203-1.596
		c0-0.875,0.112-1.486,0.774-1.486C172.666,160.22,173.627,160.831,173.627,161.706z"/>
	<path fill="none" stroke="#DCDBDB" d="M174.597,167.619c0,1.392-0.815,2.52-1.833,2.52c-1.012,0-1.827-1.128-1.827-2.52
		c0-1.395,0.815-2.523,1.827-2.523C173.782,165.095,174.597,166.224,174.597,167.619z"/>
	<path fill="none" stroke="#DCDBDB" d="M174.185,172.767c0,0.95-0.578,1.729-1.282,1.729c-0.697,0-1.28-0.779-1.28-1.729
		c0-0.954,0.583-1.728,1.28-1.728C173.606,171.039,174.185,171.813,174.185,172.767z"/>
	<path fill="none" stroke="#DCDBDB" d="M200.305,184.445c0,1.034-0.497,1.873-1.096,1.873c-0.605,0-1.093-0.839-1.093-1.873
		c0-1.028,0.487-1.86,1.093-1.86C199.809,182.585,200.305,183.417,200.305,184.445z"/>
	<path fill="none" stroke="#DCDBDB" d="M195.516,154.972c0,0.933,0.323,1.691-0.182,1.691c-0.486,0-1.393-0.758-1.393-1.691
		c0-0.935,0.148-1.694,0.641-1.694C195.085,153.278,195.516,154.037,195.516,154.972z"/>
	<polyline fill="none" stroke="#DCDBDB" points="161.644,194.832 159.188,207.014 157.938,213.021 154.932,221.94 152.758,228.367 
		150.066,234.171 147.365,239.459 144.565,244.434 141.764,248.686 138.87,251.697 	"/>
	<polyline fill="none" stroke="#DCDBDB" points="134.628,195.1 162.106,185.203 166.857,185.55 202.649,191.429 203.139,190.804 
		203.898,177.536 	"/>
	<polyline fill="none" stroke="#DCDBDB" points="166.523,155.103 167.272,157.912 167.678,160.703 167.959,164.061 168.235,168.408 
		168.235,172.009 168.235,175.529 168.235,178.918 167.888,180.923 167.377,183.272 166.857,185.134 166.857,185.55 	"/>
	<polyline fill="none" stroke="#DCDBDB" points="199.989,154.972 201.69,154.636 203.208,154.972 203.898,155.697 203.898,156.663 
		203.898,157.912 203.458,159.157 	"/>
	<path fill="none" stroke="#DCDBDB" d="M160.015,150.93l4.356,0.272v-0.683v-2.286l-0.549-1.104l-1.715-0.486l-1.424,0.348
		l-0.945,1.034L160.015,150.93l-1.072,0.184l-2.034,0.088c0,0-1.287-6.291-2.146-11.074c-0.508-2.79-3.332-9.285-5.688-13.663
		c-1.162-2.158-3.44-4.901-5.025-6.774c-1.46-1.72-5.048-4.523-6.913-5.808c-1.694-1.164-7.193-4.005-7.193-4.005
		s-2.075-0.099-2.075-0.642"/>
	<path fill="none" stroke="#DCDBDB" d="M77.91,375.161l27.292-2.533l47.138-1.373l27.789,0.825c0,0,4.535,0.266,6.027,0.428
		c1.211,0.129,4.081,0.374,5.254,0.698c1.126,0.313,2.369,1.002,2.369,1.002"/>
	<path fill="none" stroke="#DCDBDB" d="M34.381,167.619c0,0-1.824,12.592-2.076,16.826c-0.364,5.713-0.125,17.163,0,22.875
		c0.126,6.072,0.71,18.199,1.028,24.262c0.217,4.042,0.35,12.956,0.62,17.002c0.399,5.809,1.529,16.593,2.08,22.392
		c0.416,4.463,1.539,13.377,2.068,17.824c0.612,5.148,1.746,15.459,2.492,20.583c0.752,5.192,2.286,15.362,3.521,20.7
		c0.287,1.217,1.063,4.937,1.666,5.268c0,0,5.551-30.569,7.049-39.536c1.323-7.964,3.062-23.472,4.025-31.488
		c1.243-10.351,3.577-30.337,4.473-40.725c0.718-8.406,1.498-25.269,2.076-33.694c0.555-8.251,2.48-33.012,2.48-33.012
		s1.457-12.855,1.457-17.162"/>
	<path fill="none" stroke="#DCDBDB" d="M193.497,367.279c0,0,23.851-4.522,30.792-6.117c0.64-0.152,1.977-1.509,2.418-2.007
		c0.522-0.594,1.232-2.461,1.317-3.244c0.264-2.631,0.119-6.098,0.069-8.018c-0.631-23.195-4.641-92.475-4.641-92.475
		s-1.996-27.864-3.108-37.109c-0.931-7.713-4.861-30.682-4.861-30.682l-4.207-24.327l-5.922-19.217l-6.146-17.202l-7.957-19.699
		l-9.879-19.287l-6.02-11.908"/>
	<path fill="none" stroke="#DCDBDB" d="M146.641,443.473c0,0,8.728-3.876,11.297-4.978c2.453-1.051,5.838-2.606,8.348-3.521
		c1.785-0.654,6.353-2.34,8.2-2.817c1.816-0.463,5.95-0.889,7.815-1.071c1.47-0.147,4.396,0.227,5.831,0.602
		c0.71,0.193,1.365,0.587,1.943,1.052c0.708,0.562,1.854,1.705,2.316,2.476c0.521,0.87,0.995,2.606,1.246,3.591
		c0.207,0.813,0.654,4.119,0.654,4.119"/>
	<path fill="none" stroke="#DCDBDB" d="M160.682,189.907c0,0-0.269,3.069-0.032,3.95c0.087,0.348,0.599,0.792,0.92,0.948
		c0.119,0.063,0.704,0.077,0.833,0.077c0.426,0,1.347-0.05,1.763-0.163c0.375-0.106,0.92-0.558,1.139-0.889
		c0.38-0.583,0.353-2.645,0.353-2.645l-0.105-1.279"/>
	<path fill="none" stroke="#DCDBDB" d="M38.624,241.738l3.698-1.348l4.488-1.63c0,0,4.553-1.566,5.838-2.066
		c0.934-0.363,2.046-0.757,2.754-0.849c0.158-0.024,0.651-0.112,0.812,0.051c0.197,0.215,0.182,1.724,0.182,2.018
		c0,1.293-0.083,5.069-0.083,5.069"/>
	<path fill="none" stroke="#DCDBDB" d="M165.659,151.202c0,0-1.075-10.137-1.218-13.534c-0.105-2.593,0.062-8.039,0.545-10.377
		c0.225-1.082,1.3-3.929,2.391-4.077c0.858-0.116,1.585,0.234,2.177,0.451c0.979,0.363,2.26,0.989,3.098,1.513
		c1.235,0.772,2.74,2.103,3.649,2.939c1.66,1.532,4.76,4.421,6.38,6.002c1.722,1.678,5.229,5.002,6.753,6.86
		c1.763,2.14,6.31,9.124,6.31,9.124l5.257,8.705"/>
	<path fill="none" stroke="#DCDBDB" d="M183.073,148.432c0,5.519-1.504,7.448-2.229,7.376c-2.566-0.262-8.512-5.646-10.874-11.41
		c-2.097-5.106-1.407-9.483,3.657-9.02C177.628,135.743,183.073,142.911,183.073,148.432z"/>
	<path fill="none" stroke="#DCDBDB" d="M180.542,275.326c3.362,0.984,4.283,10.36,4.838,13.823
		c0.438,2.761,1.548,10.449,1.874,13.225c0.335,2.861,1.424,9.766,1.715,12.62c0.32,3.081,0.514,9.219,0.814,12.307
		c0.245,2.545,0.437,7.148,0.621,9.705c0.167,2.764,0.359,5.498,0.503,8.263c0.123,2.241,0.416,8.98,0.416,8.98v4.627
		c0,0,3.427,0.347,4.431,0.104c0.903-0.208,2.653-1.408,3.259-2.104c0.515-0.582,0.676-1.801,0.81-2.556
		c0.857-4.958,0-20.116,0-20.116l-1.041-42.606l-3.307-67.346"/>
	<line fill="none" stroke="#DCDBDB" x1="83.425" y1="478.851" x2="75.345" y2="565.18"/>
	<line fill="none" stroke="#DCDBDB" x1="191.684" y1="475.711" x2="205.355" y2="583"/>
	<g>
		<path fill="none" stroke="#DCDBDB" d="M314.259,213.258c0,0-0.244-1.297-2.418-1.595c-1.585-0.16-3.003-0.767-1.641-3.545"/>
		<path fill="none" stroke="#DCDBDB" d="M359.938,185.564l0.903,0.146l-0.678,27.831l20.802-0.226c0,0-0.098-1.154,1.16-1.448
			c1.266-0.295,4.585-0.103,2.532-3.476c-1.405-4.544-8.234-27.756-10.087-37.043c-1.855-9.282-7.94-39.879-6.667-66.941
			c0.118-7.562,1.429-23.278,4.62-35.477c3.203-12.214,10.341-31.963,11.266-33.967c0.933-1.998,1.621-4.158-1.055-4.371
			c-2.672-0.204-1.398,0.042-2.652-0.704c-1.944-0.03-59.098-0.282-65.132,0.012c-0.71,0.465-1.463,0.586-2.826,0.779
			c-1.353,0.188-2.563,0.938-0.768,4.242c1.483,3.79,12.073,27.878,15.619,58.414l0.584,10.933c0,0,1.852,41.671-9.528,78.5
			c-5.394,19.084-7.838,25.346-7.838,25.346s-3.594,1.491-0.963,5.187c1.22,1.737,4.453,1.529,5.023,0.063
			c4.026,0.014,20.341,0.103,20.341,0.103l0.076-30.453l0.964-0.215l-0.117,2.698l-0.014,0.393l24.313,0.271l0.139-3.083
			l-24.245,0.13"/>
		<path fill="none" stroke="#DCDBDB" d="M327.631,104.122c0,0-27.247-1.882-32.614-6.491"/>
		<path fill="none" stroke="#DCDBDB" d="M302.288,88.926c0,0,8.272,3.278,24.696,4.423"/>
		<path fill="none" stroke="#DCDBDB" d="M368.564,93.484c0,0,20.182-2.043,24.863-4.432"/>
		<path fill="none" stroke="#DCDBDB" d="M367.91,104.312c0,0,25.504-1.783,33.327-6.775"/>
		<path fill="none" stroke="#DCDBDB" d="M405.547,95.84c2.884-2.645,3.018-7.182,0.305-10.124
			c-2.704-2.944-7.232-3.184-10.109-0.529c-2.876,2.646-3.02,7.185-0.314,10.118C398.143,98.249,402.666,98.494,405.547,95.84z"/>
		<path fill="none" stroke="#DCDBDB" d="M403.53,93.502c1.609-1.483,1.692-4.032,0.173-5.679c-1.518-1.651-4.051-1.785-5.668-0.301
			c-1.618,1.489-1.701,4.039-0.184,5.678C399.371,94.851,401.919,94.982,403.53,93.502z"/>
		<path fill="none" stroke="#DCDBDB" d="M300.364,95.929c2.882-2.646,3.023-7.182,0.304-10.125
			c-2.703-2.939-7.224-3.188-10.103-0.534c-2.88,2.654-3.023,7.182-0.317,10.117C292.965,98.336,297.484,98.571,300.364,95.929z"/>
		<path fill="none" stroke="#DCDBDB" d="M297.91,93.589c1.56-1.426,1.636-3.887,0.176-5.476c-1.465-1.595-3.911-1.732-5.476-0.293
			c-1.56,1.438-1.63,3.886-0.169,5.475C293.911,94.894,296.361,95.023,297.91,93.589z"/>
		<path fill="none" stroke="#DCDBDB" d="M311.398,35.181c0,0-2.409-0.548-2.252-3.275c0.163-2.734,3.939-4.766,5.748-1.953"/>
		<path fill="none" stroke="#DCDBDB" d="M326.09,35.895c1.26-1.158,1.273-3.188,0.049-4.525c-1.239-1.344-3.261-1.498-4.514-0.34
			c-1.264,1.159-1.283,3.186-0.044,4.531C322.815,36.894,324.836,37.051,326.09,35.895z"/>
		<path fill="none" stroke="#DCDBDB" d="M373.56,36.091c1.331-1.21,1.373-3.301,0.124-4.667c-1.261-1.365-3.346-1.484-4.659-0.269
			c-1.323,1.21-1.391,3.311-0.129,4.665C370.152,37.188,372.244,37.32,373.56,36.091z"/>
		<path fill="none" stroke="#DCDBDB" d="M380.023,29.839c0,0,2.124-3.195,5.464,0.326c1.717,1.763-0.048,4.719-1.547,4.861"/>
		<path fill="none" stroke="#DCDBDB" d="M349.92,60.034c1.327-1.217,1.366-3.303,0.121-4.674c-1.262-1.357-3.337-1.482-4.655-0.262
			c-1.331,1.209-1.382,3.301-0.13,4.66C346.509,61.125,348.605,61.252,349.92,60.034z"/>
		<path fill="none" stroke="#DCDBDB" d="M350.189,88.354c1.321-1.217,1.362-3.31,0.11-4.673c-1.248-1.365-3.338-1.484-4.654-0.259
			c-1.322,1.206-1.38,3.296-0.123,4.667C346.763,89.443,348.864,89.567,350.189,88.354z"/>
		<path fill="none" stroke="#DCDBDB" d="M352.25,116.249c2.493-2.294,2.62-6.216,0.273-8.766c-2.349-2.549-6.279-2.763-8.76-0.463
			c-2.5,2.292-2.62,6.216-0.277,8.764C345.839,118.342,349.757,118.541,352.25,116.249z"/>
		<path fill="none" stroke="#DCDBDB" d="M349.757,140.496c1.148-1.059,1.21-2.866,0.136-4.028c-1.069-1.169-2.88-1.255-4.026-0.195
			c-1.146,1.055-1.209,2.866-0.138,4.022C346.803,141.465,348.605,141.554,349.757,140.496z"/>
		<path fill="none" stroke="#DCDBDB" d="M350.104,172.964c1.394-1.275,1.463-3.449,0.168-4.861c-1.294-1.412-3.469-1.517-4.862-0.24
			c-1.378,1.28-1.465,3.454-0.167,4.865C346.537,174.137,348.71,174.242,350.104,172.964z"/>
		<path fill="none" stroke="#DCDBDB" d="M325.621,206.276c1.396-1.28,1.468-3.454,0.168-4.867c-1.296-1.4-3.459-1.512-4.855-0.236
			c-1.384,1.273-1.461,3.453-0.16,4.864C322.068,207.448,324.238,207.551,325.621,206.276z"/>
		<path fill="none" stroke="#DCDBDB" d="M373.763,205.734c1.144-1.054,1.207-2.87,0.125-4.028c-1.072-1.163-2.868-1.268-4.026-0.204
			c-1.156,1.061-1.207,2.867-0.141,4.028C370.796,206.714,372.588,206.801,373.763,205.734z"/>
		<path fill="none" stroke="#DCDBDB" d="M380.881,213.21c0,0,1.478,2.647,4.446,0.781c2.048-1.502,1.798-4.901-0.605-5.743"/>
		<path fill="none" stroke="#DCDBDB" d="M335.494,185.988l0.351,2.46l1.05,0.18c0,0-0.225-0.947,0.38-1.114
			c0.605-0.182,5.711-1.066,11.519-0.867c5.823,0.194,9.758,0.007,9.799,1.5c0.037,1.498-0.189,5.813-0.189,5.813
			s0.363,0.809-0.846,1.163c-0.041,0.796-0.055,2.334-0.055,2.334"/>
		<path fill="none" stroke="#DCDBDB" d="M358.228,194.599c0,0-0.177-0.603-1.28-0.453c-0.106,1.437-0.079,3.133-0.079,3.133
			s1.295-0.144,1.624,0.413c0.035,1.494-0.041,3.283-0.041,3.283s-0.521,7.642-0.558,8.638c-0.041,0.992,0,4.775-1.395,11.985
			c-1.394,7.208-3.556,19.396-3.556,19.396s0.379,0.714-1.125,0.943c-1.935-0.024-9.096-0.126-9.096-0.126s-0.476,0.427-0.757-1.024
			c-0.282-1.458-2.996-18.832-3.37-20.688c-0.369-1.858-1.278-6.37-1.221-8.907c0.061-2.541-0.064-3.286-0.064-3.286
			s-0.457,0.423-0.498-0.867c-0.047-1.289,0.151-9.794,0.151-9.794l0.809-0.27l0.029-1.832c0,0-1.06,0.199-0.941-1.237
			c0.104-1.435,0.117-5.17,0.117-5.17s16.465-1.098,21.557,0.897"/>
		<path fill="none" stroke="#DCDBDB" d="M338.97,221.953c0,0,7.574-1.426,17.359,0.077"/>
		<path fill="none" stroke="#DCDBDB" d="M343.163,241.881c0,0,0.129,4.281,0.097,4.774c-0.017,0.514,0.842,2.388,1.411,3.393
			c0.544,1.026,0.794,1.185,1.437,1.16c0.641-0.025,2.931,0.067,2.931,0.067s0.425,0.472,1.192-1.085
			c0.75-1.568,1.784-3.172,1.701-5.1c-0.056-1.951,0.037-3.192,0.037-3.192"/>
		<path fill="none" stroke="#DCDBDB" d="M343.348,246.961c0,0,6.144-0.394,8.26,0.156"/>
		<polyline fill="none" stroke="#DCDBDB" points="345.959,251.256 345.729,282.984 349.01,283.022 349.231,251.394 		"/>
		<path fill="none" stroke="#DCDBDB" d="M349.436,287.826c1.104-1.031,1.169-2.766,0.124-3.901c-1.03-1.124-2.771-1.206-3.887-0.185
			c-1.101,1.02-1.163,2.759-0.125,3.889C346.578,288.759,348.319,288.841,349.436,287.826z"/>
	</g>
</g>
</svg>
