<?xml version="1.0" encoding="utf-8"?>
<svg viewBox="21.182 0 32.759 75" xmlns="http://www.w3.org/2000/svg">
  <defs>
    <style>.cls-1{fill:none;stroke:#f4f4f4;stroke-linejoin:round;}</style>
  </defs>
  <title>f4_Laser_Tracker</title>
  <g id="Linework">
    <path class="cls-1" d="M45.72,45.46l0-1.14,2.82-.16,3.56-.64s.48-.31.55-.47c.24-.49-.41-10.87-.41-10.87L52,28.3l-.17-1.94s-.11-1.35-.15-1.75-.2-1.26-.26-1.65S51,20.61,51,20.61s-.46-1.74-.59-2.25-.49-1.85-.49-1.85l-.6-2-.75-1.87-.76-1.57L47,9.51,46.12,8s-.62-1.1-.84-1.45a7.2,7.2,0,0,0-1.19-1.54,3.42,3.42,0,0,0-.31-.21c-.14,0-.56-.14-.56-.14s-.46-.2-.62-.25l-.53-.22-.78-.48s-.45-.34-.63-.45a6.51,6.51,0,0,0-.6-.3c-.27-.12-.57-.26-.74-.32s-.56-.17-.89-.26l-.92-.22c-.21,0-.56-.08-.91-.12L35.68,2,33.9,1.93l-1.21,0L32,1.71l-.69-.2-.45-.09a5.26,5.26,0,0,0-.66-.08l-.13,0-.12,0a1.31,1.31,0,0,0-.26.16,2.41,2.41,0,0,0-.22.2,14.84,14.84,0,0,0-1,1.8c-.35.69-.62,1.29-.62,1.29a42.19,42.19,0,0,0-2.36,5.58c-.49,1.43-.71,2.33-.71,2.33s-.36,1.11-.72,2.69-.73,3.64-.87,4.88c-.1.86-.23,2-.33,3.2s-.2,2.56-.22,3.87c0,.92-.07,2.76-.11,4.36s-.08,3-.08,3,0,1.46,0,3.16-.05,3.64-.06,4.61a2.75,2.75,0,0,0,0,.34,1.52,1.52,0,0,0,.1.32,1.15,1.15,0,0,0,.14.17l.17.13a1.33,1.33,0,0,0,.24.1l.24.07a6.7,6.7,0,0,0,1.11.1,6.52,6.52,0,0,1,1,.15l2.14.07,2.15.07.16.23.16.24v.87l.19,5.11-.09.28,0,.69,0,.69v1.27l0,1.28.08.06.09.07.07,0,.08,0,.13,0h.14l0,.1,0,.09.23,0h.24l.06.1.06.11-.05.3-.05.3.05.57.05.56-.17.15-.17.15-.12,1-.12,1,.15.12.15.12h3.13c1.69,0,3.62,0,4.58,0s2.49-.09,3.94-.16l2.69-.12.12-.13.12-.13L45.4,58l-.17-.93L45.14,57l-.09-.12a.32.32,0,0,0,.1-.13,1,1,0,0,0,.07-.44,1.12,1.12,0,0,0-.13-.5.84.84,0,0,0-.11-.15l-.06-.31L44.85,55l.07,0L45,55l.25,0,.25,0v-.12l0-.13h.23c.12,0,.24,0,.27-.11a9.64,9.64,0,0,0,.05-2.27c0-1-.11-1.93-.11-1.93Z"/>
    <path class="cls-1" d="M33.74,4.15c.31,0,1.91.13,1.91.13l1.61.25c.05,0,1.16.27,1.16.27s.91.32,1.2.44a4.77,4.77,0,0,1,.52.22c.16.09.51.29.57.47.29.94-1.09,3.8-1.09,3.8L37,9.25l-.51-.05-.72.05-.25.06L35,7.46,34.46,6,34,4.81Z"/>
    <path class="cls-1" d="M32,1.71l.58,4.16.51,4.63.39,4.9.25,4.34.14,4.18L34,29.05l.11,12.06A6.19,6.19,0,0,1,34,42.19a.68.68,0,0,1-.6.58c-1.58.39-5.92,1.21-5.92,1.21"/>
    <path class="cls-1" d="M35.55,9.31,36.37,13l.86,4.19.6,5,.4,5.87.26,6.48.13,6.14a6.71,6.71,0,0,1-.09,1.87.76.76,0,0,1-.36.28c-2,.68-8.51,1.24-8.51,1.24"/>
    <path class="cls-1" d="M37.23,17.09l4.08-1.69h.26c.93.09,3.65.72,3.65.72"/>
    <path class="cls-1" d="M39.62,9.73l1.3.26.73.19.66.17a5.52,5.52,0,0,1,.56.13,4.69,4.69,0,0,1,.72.33c.13.09.5.4.5.4l.75.79.38.6.55.85.32.75.43,1.05.19.72.43.06.19.48.11.65.08.78.09.86-.06.91-.13.71-.12.65-.48.72-.17.87-.19.71-.28.85-.32.92-.39,1-.55,1.05-.51.85-.52.78-.59.72-.69.71s-.72.58-1,.74a8.79,8.79,0,0,1-.87.43l-.46.15"/>
    <path class="cls-1" d="M39.68,31.52s.36,1.19.5,1.55.89,2,.89,2,.27.51.36.66a2.69,2.69,0,0,0,.46.63c.33.18.41.06.5,0a1.65,1.65,0,0,0,.29-.39,5.37,5.37,0,0,0,.21-.81s.17-1.3.21-1.74a3.86,3.86,0,0,0,0-1.17,1.84,1.84,0,0,0-.35-.44l-4.44-.41"/>
    <path class="cls-1" d="M42.06,19.6l0,1.68v1l0,1.07s0,.82.08,1.08.11.68.15.92a3.85,3.85,0,0,0,.16.65c0,.07.09.25.16.28a.33.33,0,0,0,.29,0,.85.85,0,0,0,.28-.21l.68-.68.82-.91.77-1,.69-1.17.4-.75.27-.68.49.09"/>
    <path class="cls-1" d="M47.38,17.51c0,.74-.28,1.11-.75,1.11s-1-.51-1.1-1.24.36-1.45.83-1.45S47.38,16.76,47.38,17.51Z"/>
    <path class="cls-1" d="M46.22,15.93l-1.68.32c-1.13-.22-1.31,1.1-1.19,1.82.15,1,.94,2.52,2.4,1.13l1.13-.62"/>
    <polyline class="cls-1" points="41.62 19.57 41.02 22.52 40.85 23.34 40.44 24.55 40.15 25.43 39.78 26.22 39.41 26.93 39.03 27.61 38.65 28.19 38.26 28.6"/>
    <polyline class="cls-1" points="37.68 20.9 41.42 19.56 42.06 19.6 46.93 20.4 47 20.32 47.1 18.51"/>
    <polyline class="cls-1" points="42.02 15.46 42.12 15.84 42.17 16.22 42.21 16.68 42.25 17.27 42.25 17.76 42.25 18.24 42.25 18.7 42.2 18.97 42.13 19.29 42.06 19.55 42.06 19.6"/>
    <path class="cls-1" d="M41.13,14.89l-.14,0h-.28s-.18-.85-.29-1.5a9,9,0,0,0-.78-1.86,5.09,5.09,0,0,0-.68-.92A5.88,5.88,0,0,0,38,9.86c-.23-.16-1-.55-1-.55s-.28,0-.28-.09"/>
    <path class="cls-1" d="M30,45.39l3.72-.34,6.41-.19,3.78.11.82.06a5.77,5.77,0,0,1,.71.1,1.51,1.51,0,0,1,.32.13"/>
    <path class="cls-1" d="M23.77,16.66s0,2.22,0,2.79c-.05.78,0,2.34,0,3.11s.1,2.48.14,3.3c0,.55.05,1.77.09,2.32.05.79.2,2.25.28,3,.06.61.21,1.82.28,2.43s.24,2.1.34,2.8.31,2.08.48,2.81a2.56,2.56,0,0,0,.22.72s.76-4.16,1-5.38.42-3.19.55-4.28c.17-1.41.49-4.13.61-5.54.1-1.14.2-3.44.28-4.58s.34-4.49.34-4.49"/>
    <path class="cls-1" d="M45.69,44.32s3.24-.62,4.18-.83c.09,0,.27-.21.33-.27a1.25,1.25,0,0,0,.18-.45,8,8,0,0,0,0-1.09c-.08-3.15-.63-12.57-.63-12.57s-.27-3.79-.42-5.05c-.13-1-.66-4.17-.66-4.17l-.58-3.31L47.3,14l-.84-2.34L45.38,8.94,44,6.32,43.22,4.7"/>
    <path class="cls-1" d="M24,27.49l1.16-.43.61-.22.8-.28c.13,0,.89-.28,1-.29"/>
    <path class="cls-1" d="M41.72,14.93s0-1.38,0-1.84a8.16,8.16,0,0,1,.08-1.41,1.74,1.74,0,0,1,.32-.56,2.36,2.36,0,0,1,.79-.54"/>
    <path class="cls-1" d="M45.39,43.18v-.63s0-.92-.06-1.22l-.06-1.13c0-.35-.06-1-.09-1.32s-.07-1.25-.11-1.67-.19-1.33-.23-1.72-.2-1.42-.26-1.8-.2-1.74-.66-1.88H42.8"/>
    <line class="cls-1" x1="30.72" y1="59.5" x2="29.62" y2="71.24"/>
    <line class="cls-1" x1="45.44" y1="59.07" x2="47.3" y2="73.66"/>
  </g>
</svg>