<svg xmlns="http://www.w3.org/2000/svg" viewBox="-16691 2156 26 30">
  <defs>
    <style>
      .cls-1, .cls-2, .cls-3, .cls-4, .cls-5 {
        fill: #fff;
      }

      .cls-1 {
        opacity: 0.75;
      }

      .cls-2 {
        opacity: 0.4;
      }

      .cls-3 {
        opacity: 0.6;
      }

      .cls-4 {
        opacity: 0.9;
      }
    </style>
  </defs>
  <g id="Group_20" data-name="Group 20" transform="translate(-16691.037 2156)">
    <g id="Group_17" data-name="Group 17">
      <path id="Path_2" data-name="Path 2" class="cls-1" d="M.037,59.033h9l-3-4Z" transform="translate(0 -36.033)"/>
      <path id="Path_3" data-name="Path 3" class="cls-2" d="M41.958,37.4l9-15-13,7v8Z" transform="translate(-24.921 -14.4)"/>
      <path id="Path_4" data-name="Path 4" class="cls-3" d="M37.958,73.2l13-7h-9Z" transform="translate(-24.921 -43.2)"/>
      <path id="Path_5" data-name="Path 5" class="cls-4" d="M59.308,22.4l-9,15h9Z" transform="translate(-33.271 -14.4)"/>
      <path id="Path_6" data-name="Path 6" class="cls-3" d="M14.322,19l7-4V0l-9,15Z" transform="translate(-8.285)"/>
      <path id="Path_7" data-name="Path 7" class="cls-2" d="M25.673,66.2l4,7v-7Z" transform="translate(-16.636 -43.2)"/>
      <path id="Path_8" data-name="Path 8" class="cls-5" d="M25.53,43.8l-7,4,3,4h4Z" transform="translate(-12.493 -28.8)"/>
      <path id="Path_9" data-name="Path 9" class="cls-2" d="M.037,22.4v15l4-8Z" transform="translate(0 -14.4)"/>
      <path id="Path_10" data-name="Path 10" class="cls-4" d="M13.037,0l-13,8,4,7Z"/>
    </g>
  </g>
</svg>
