<?xml version="1.0" encoding="utf-8"?>
<!-- Generator: Adobe Illustrator 16.0.0, SVG Export Plug-In . SVG Version: 6.00 Build 0)  -->
<!DOCTYPE svg PUBLIC "-//W3C//DTD SVG 1.1//EN" "http://www.w3.org/Graphics/SVG/1.1/DTD/svg11.dtd">
<svg version="1.1" id="Layer_1" xmlns="http://www.w3.org/2000/svg" xmlns:xlink="http://www.w3.org/1999/xlink" x="0px" y="0px"
	 width="360px" height="612px" viewBox="0 0 360 612" enable-background="new 0 0 360 612" xml:space="preserve">
<g>
	<line fill="none" stroke="#232323" stroke-miterlimit="10" x1="296.707" y1="583.781" x2="297.538" y2="583.781"/>
	<line fill="none" stroke="#232323" stroke-miterlimit="10" x1="297.663" y1="594.263" x2="308.756" y2="594.184"/>
	<line fill="none" stroke="#232323" stroke-miterlimit="10" x1="308.539" y1="566.061" x2="298.631" y2="566.137"/>
	<line fill="none" stroke="#232323" stroke-miterlimit="10" x1="88.606" y1="595.857" x2="99.7" y2="595.778"/>
	<line fill="none" stroke="#232323" stroke-miterlimit="10" x1="99.482" y1="567.655" x2="89.588" y2="567.731"/>
	<line fill="none" stroke="#232323" stroke-miterlimit="10" x1="87.652" y1="585.376" x2="88.481" y2="585.376"/>
	<line fill="none" stroke="#232323" stroke-miterlimit="10" x1="259.021" y1="580.469" x2="270.114" y2="580.376"/>
	<line fill="none" stroke="#232323" stroke-miterlimit="10" x1="258.052" y1="569.974" x2="258.881" y2="569.974"/>
	<line fill="none" stroke="#232323" stroke-miterlimit="10" x1="49.009" y1="571.568" x2="49.839" y2="571.568"/>
	<line fill="none" stroke="#232323" stroke-miterlimit="10" x1="60.84" y1="553.848" x2="50.932" y2="553.924"/>
	<line fill="none" stroke="#232323" stroke-miterlimit="10" x1="49.964" y1="582.062" x2="61.058" y2="581.971"/>
	<polyline fill="none" stroke="#232323" stroke-miterlimit="10" points="138.609,225.598 138.787,225.662 139.107,225.763 
		139.423,225.878 139.742,225.967 140.062,226.068 140.382,226.158 140.701,226.249 141.017,226.325 141.337,226.414 
		141.656,226.489 141.986,226.566 142.305,226.644 142.625,226.707 142.954,226.771 143.286,226.835 143.606,226.897 
		143.939,226.948 144.272,227 144.6,227.051 144.93,227.089 145.253,227.128 145.583,227.178 145.913,227.203 146.244,227.241 
		146.578,227.268 146.906,227.293 147.239,227.306 147.585,227.319 147.915,227.333 148.247,227.344 148.58,227.356 148.91,227.356 
		149.242,227.356 149.575,227.344 149.904,227.344 150.237,227.333 150.579,227.319 150.912,227.293 151.241,227.268 
		151.574,227.241 151.906,227.217 152.236,227.19 152.569,227.14 152.901,227.102 153.231,227.063 153.563,227.025 153.896,226.975 
		154.225,226.924 154.559,226.859 154.878,226.795 155.219,226.732 155.54,226.668 155.873,226.591 156.188,226.515 
		156.521,226.439 156.854,226.362 157.17,226.273 157.489,226.184 157.821,226.094 158.139,225.993 158.461,225.903 
		158.777,225.789 159.098,225.688 159.417,225.585 159.732,225.469 160.051,225.356 160.372,225.227 160.677,225.112 
		160.998,224.985 161.3,224.859 161.61,224.73 161.914,224.59 162.219,224.45 162.54,224.311 162.845,224.157 163.138,224.017 
		163.445,223.864 163.75,223.71 164.041,223.544 164.336,223.393 164.63,223.227 164.923,223.047 165.216,222.882 165.509,222.704 
		165.802,222.525 166.096,222.347 166.376,222.168 166.656,221.977 166.936,221.799 167.217,221.594 167.499,221.404 
		167.779,221.212 168.046,221.008 168.313,220.791 168.579,220.586 168.863,220.382 169.117,220.167 169.383,219.949 
		169.653,219.733 169.907,219.503 170.16,219.287 170.417,219.059 170.662,218.828 170.916,218.585 171.169,218.356 
		171.412,218.113 171.657,217.872 171.896,217.629 172.137,217.387 172.368,217.131 172.61,216.878 172.841,216.623 
		173.069,216.367 173.287,216.1 173.513,215.845 173.731,215.577 173.961,215.31 174.166,215.042 174.383,214.761 174.601,214.48 
		174.804,214.213 175.009,213.933 175.209,213.64 175.415,213.358 175.604,213.065 175.799,212.772 175.99,212.479 176.182,212.173 
		176.359,211.879 176.537,211.611 176.689,211.331 176.853,211.064 177.008,210.784 177.163,210.502 177.315,210.222 
		177.453,209.941 177.608,209.661 177.75,209.381 177.888,209.101 178.029,208.808 178.158,208.526 178.296,208.246 
		178.421,207.953 178.539,207.672 178.666,207.379 178.781,207.099 178.896,206.818 178.998,206.55 179.086,206.321 179.15,206.143 
		179.224,205.938 179.291,205.786 	"/>
	<polyline fill="none" stroke="#232323" stroke-miterlimit="10" points="179.291,205.786 179.393,205.466 179.443,205.327 
		179.508,205.109 179.598,204.88 179.672,204.638 179.749,204.382 179.838,204.116 179.917,203.834 179.993,203.555 
		180.069,203.274 180.144,202.968 180.219,202.675 180.298,202.382 180.374,202.089 180.437,201.783 180.503,201.476 
		180.565,201.17 180.628,200.865 180.681,200.545 180.729,200.227 180.783,199.921 180.833,199.602 180.885,199.284 
		180.924,198.978 180.961,198.66 180.997,198.327 181.036,198.009 181.062,197.689 181.09,197.372 181.115,197.039 181.139,196.721 
		181.166,196.39 181.178,196.071 181.188,195.74 181.188,195.42 181.202,195.102 181.202,194.847 	"/>
	<line fill="none" stroke="#232323" stroke-miterlimit="10" x1="136.695" y1="224.921" x2="138.392" y2="225.52"/>
	<polyline fill="none" stroke="#232323" stroke-miterlimit="10" points="181.202,194.401 181.202,194.043 181.202,193.699 
		181.202,193.368 181.202,193.037 181.188,192.731 181.188,192.425 181.188,192.067 181.178,191.736 181.178,191.43 
		181.166,191.124 181.166,190.819 181.152,190.538 181.139,190.27 181.139,190.015 181.126,189.786 181.126,189.556 181.115,189.34 
		181.115,189.161 181.102,188.983 181.102,188.829 181.09,188.677 181.09,188.55 181.076,188.421 181.076,188.32 181.076,188.219 
		181.062,188.141 181.062,188.064 181.062,188.001 181.062,187.937 181.062,187.861 181.05,187.771 181.05,187.682 181.05,187.593 
		181.036,187.439 181.022,187.286 181.022,187.108 181.011,186.917 180.997,186.713 180.983,186.509 180.975,186.28 
		180.961,186.038 180.948,185.796 180.935,185.541 180.912,185.298 180.898,185.07 180.885,184.853 180.858,184.635 
		180.845,184.431 180.833,184.252 180.819,184.075 180.806,183.909 180.793,183.755 180.783,183.603 180.77,183.462 
		180.757,183.333 180.757,183.22 180.743,183.105 180.729,182.991 180.721,182.838 180.707,182.685 180.694,182.519 
		180.681,182.365 180.655,182.188 180.642,182.01 180.628,181.843 180.615,181.717 180.588,181.601 180.579,181.486 
		180.579,181.371 180.565,181.257 180.54,181.117 180.529,180.976 180.516,180.835 180.503,180.696 180.49,180.542 180.464,180.403 
		180.45,180.276 180.437,180.16 180.424,180.034 180.411,179.932 180.397,179.803 180.388,179.687 180.362,179.561 180.349,179.434 
		180.326,179.294 180.312,179.141 180.286,179.039 180.272,178.923 180.259,178.809 180.247,178.682 180.233,178.579 
		180.219,178.478 180.207,178.401 180.196,178.324 180.185,178.262 180.171,178.197 180.171,178.159 180.157,178.12 
		180.157,178.082 180.144,178.031 180.144,177.98 180.134,177.915 180.121,177.84 180.108,177.75 180.095,177.648 180.069,177.457 
		180.029,177.267 179.993,177.076 179.966,176.885 179.954,176.807 179.94,176.731 179.929,176.654 179.903,176.552 179.89,176.463 
		179.877,176.36 179.85,176.259 179.838,176.144 179.811,176.03 	"/>
	<line fill="none" stroke="#232323" stroke-miterlimit="10" x1="181.202" y1="194.847" x2="181.202" y2="194.401"/>
	<line fill="none" stroke="#232323" stroke-miterlimit="10" x1="179.811" y1="176.03" x2="178.488" y2="169.031"/>
	<polyline fill="none" stroke="#232323" stroke-miterlimit="10" points="178.488,169.031 178.474,168.942 178.46,168.864 
		178.448,168.802 178.435,168.75 178.421,168.687 178.412,168.648 178.412,168.61 178.412,168.584 178.398,168.571 178.398,168.547 
		178.398,168.533 178.398,168.509 178.386,168.482 178.372,168.419 178.372,168.355 178.35,168.265 178.336,168.151 
		178.322,168.049 178.283,167.845 178.257,167.641 178.22,167.425 178.194,167.31 178.181,167.194 178.167,167.092 178.158,166.977 
		178.145,166.888 178.132,166.786 178.119,166.697 178.105,166.608 178.093,166.533 178.079,166.443 178.065,166.341 
		178.053,166.213 178.04,166.086 178.017,165.946 178.003,165.804 177.977,165.665 177.967,165.511 177.941,165.36 177.914,165.116 
		177.888,164.862 177.862,164.607 177.834,164.365 177.825,164.25 177.812,164.148 177.812,164.032 177.799,163.931 
		177.786,163.841 177.772,163.739 177.772,163.663 177.772,163.612 177.763,163.562 177.763,163.511 177.763,163.473 
		177.75,163.433 177.75,163.422 177.75,163.384 177.75,163.332 177.736,163.254 177.736,163.192 177.724,163.102 177.71,162.988 
		177.71,162.873 177.696,162.744 177.67,162.593 177.657,162.427 177.645,162.26 177.634,162.083 177.62,161.891 177.608,161.687 
		177.594,161.47 177.581,161.24 177.572,160.985 177.558,160.731 177.546,160.488 177.519,160.221 177.506,159.953 177.493,159.66 
		177.479,159.367 177.467,159.061 177.453,158.742 177.439,158.41 177.43,158.067 177.417,157.71 177.403,157.339 177.391,156.958 
		177.391,156.6 177.377,156.218 177.377,155.823 177.368,155.427 177.368,155.147 	"/>
	<line fill="none" stroke="#232323" stroke-miterlimit="10" x1="177.368" y1="155.134" x2="176.346" y2="43.071"/>
	<polyline fill="none" stroke="#232323" stroke-miterlimit="10" points="176.346,43.084 176.346,42.943 176.333,42.612 
		176.333,42.268 176.32,41.924 176.306,41.566 176.294,41.224 176.28,40.867 176.267,40.496 176.244,40.127 176.218,39.756 
		176.195,39.387 176.182,39.106 	"/>
	<polyline fill="none" stroke="#232323" stroke-miterlimit="10" points="176.168,39.057 176.116,38.864 176.053,38.608 
		175.977,38.355 175.911,38.1 175.849,37.87 175.799,37.729 175.759,37.588 175.733,37.476 175.694,37.373 175.668,37.271 
		175.658,37.193 175.632,37.118 175.604,37.04 175.582,36.951 175.556,36.85 175.517,36.747 175.477,36.645 175.454,36.543 
		175.427,36.468 175.404,36.379 175.364,36.263 175.339,36.162 175.299,36.046 175.263,35.932 175.209,35.792 175.173,35.65 
		175.122,35.511 175.071,35.357 175.018,35.217 174.983,35.09 174.93,34.962 174.891,34.848 174.854,34.72 174.804,34.593 
		174.752,34.465 174.699,34.327 174.686,34.274 174.663,34.211 174.637,34.147 174.614,34.096 174.601,34.032 174.575,33.981 
		174.547,33.918 174.521,33.854 174.496,33.776 174.473,33.701 174.434,33.625 174.409,33.561 174.37,33.458 174.33,33.356 
		174.291,33.268 174.242,33.165 174.206,33.076 174.192,33.038 174.178,33.013 174.166,32.975 174.139,32.937 174.126,32.91 
		174.113,32.872 174.099,32.848 174.087,32.808 174.064,32.771 174.051,32.719 174.028,32.682 174.014,32.644 174,32.617 
		173.988,32.591 173.975,32.566 173.961,32.541 173.961,32.528 173.949,32.49 173.935,32.464 173.921,32.439 173.896,32.399 
		173.887,32.388 173.873,32.362 173.873,32.337 173.859,32.324 173.833,32.286 173.823,32.26 173.811,32.222 173.797,32.195 
		173.783,32.171 173.783,32.159 173.771,32.133 173.744,32.106 173.731,32.082 173.718,32.057 173.704,32.03 173.692,32.005 
		173.682,31.979 173.668,31.955 173.656,31.929 173.642,31.902 173.633,31.878 173.605,31.84 173.593,31.813 173.58,31.802 
		173.58,31.775 173.566,31.764 173.552,31.751 173.54,31.725 173.526,31.711 173.513,31.673 173.501,31.648 173.49,31.609 
		173.464,31.584 173.451,31.56 173.438,31.533 173.414,31.507 173.402,31.469 173.375,31.431 173.349,31.393 173.335,31.369 
		173.31,31.329 173.287,31.292 173.261,31.253 173.236,31.214 173.21,31.189 173.185,31.138 173.157,31.1 173.118,31.049 
		173.069,30.984 173.033,30.934 172.993,30.872 172.968,30.832 172.94,30.807 172.915,30.769 172.892,30.743 172.852,30.705 
		172.829,30.654 172.788,30.616 172.749,30.578 172.709,30.539 172.687,30.501 172.661,30.476 172.647,30.463 172.638,30.45 
		172.624,30.437 172.599,30.412 172.571,30.385 172.532,30.361 172.52,30.334 172.495,30.31 172.483,30.296 172.469,30.296 
		172.456,30.285 172.456,30.271 172.433,30.259 172.421,30.232 172.394,30.221 172.381,30.208 172.368,30.194 172.354,30.183 
		172.342,30.17 172.328,30.157 172.314,30.143 172.292,30.13 172.266,30.119 172.252,30.092 172.229,30.081 172.216,30.068 
		172.204,30.054 172.176,30.028 172.15,30.016 172.123,30.003 172.114,29.979 172.1,29.979 172.074,29.953 172.052,29.939 
		172.024,29.927 172.012,29.915 171.985,29.901 171.973,29.89 171.945,29.876 171.933,29.864 171.909,29.85 171.896,29.837 	"/>
	<line fill="none" stroke="#232323" stroke-miterlimit="10" x1="171.896" y1="29.837" x2="158.942" y2="21.716"/>
	<line fill="none" stroke="#232323" stroke-miterlimit="10" x1="169.791" y1="219.592" x2="283.091" y2="218.739"/>
	<line fill="none" stroke="#232323" stroke-miterlimit="10" x1="317.63" y1="193.317" x2="302.089" y2="168.024"/>
	<line fill="none" stroke="#232323" stroke-miterlimit="10" x1="299.411" y1="166.761" x2="178.257" y2="167.679"/>
	<line fill="none" stroke="#232323" stroke-miterlimit="10" x1="100.579" y1="168.278" x2="71.637" y2="168.495"/>
	<line fill="none" stroke="#232323" stroke-miterlimit="10" x1="301.26" y1="167.348" x2="299.794" y2="166.826"/>
	<line fill="none" stroke="#232323" stroke-miterlimit="10" x1="120.352" y1="241.318" x2="271.353" y2="240.169"/>
	<path fill="none" stroke="#232323" stroke-miterlimit="10" d="M97.533,208.781c-0.217-0.306-0.51-0.535-0.856-0.662"/>
	<line fill="none" stroke="#232323" stroke-miterlimit="10" x1="125.846" y1="249.157" x2="97.533" y2="208.781"/>
	<line fill="none" stroke="#232323" stroke-miterlimit="10" x1="96.663" y1="208.119" x2="89.193" y2="205.455"/>
	<line fill="none" stroke="#232323" stroke-miterlimit="10" x1="69.727" y1="198.493" x2="45.03" y2="189.685"/>
	<path fill="none" stroke="#232323" stroke-miterlimit="10" d="M91.373,251.898c0.217,0.076,0.461,0.114,0.702,0.114"/>
	<line fill="none" stroke="#232323" stroke-miterlimit="10" x1="39.74" y1="233.45" x2="50.142" y2="237.16"/>
	<line fill="none" stroke="#232323" stroke-miterlimit="10" x1="79.516" y1="247.653" x2="91.373" y2="251.898"/>
	<line fill="none" stroke="#232323" stroke-miterlimit="10" x1="120.8" y1="257.903" x2="124.394" y2="257.853"/>
	<path fill="none" stroke="#232323" stroke-miterlimit="10" d="M126.166,250.178c0-0.37-0.116-0.715-0.319-1.021"/>
	<line fill="none" stroke="#232323" stroke-miterlimit="10" x1="126.179" y1="256.029" x2="126.166" y2="250.178"/>
	<path fill="none" stroke="#232323" stroke-miterlimit="10" d="M124.394,257.853c0.753-0.013,1.425-0.498,1.683-1.212"/>
	<path fill="none" stroke="#232323" stroke-miterlimit="10" d="M126.077,256.64c0.075-0.191,0.102-0.407,0.102-0.611"/>
	<path fill="none" stroke="#232323" stroke-miterlimit="10" d="M40.277,189.633c-0.754,0.012-1.417,0.498-1.67,1.198"/>
	<path fill="none" stroke="#232323" stroke-miterlimit="10" d="M38.606,190.831c-0.079,0.205-0.102,0.409-0.102,0.612"/>
	<line fill="none" stroke="#232323" stroke-miterlimit="10" x1="38.505" y1="191.443" x2="38.39" y2="231.512"/>
	<line fill="none" stroke="#232323" stroke-miterlimit="10" x1="44.522" y1="189.582" x2="40.277" y2="189.633"/>
	<path fill="none" stroke="#232323" stroke-miterlimit="10" d="M45.03,189.685c-0.165-0.064-0.342-0.103-0.507-0.103"/>
	<path fill="none" stroke="#232323" stroke-miterlimit="10" d="M38.39,231.512c-0.013,0.868,0.534,1.646,1.35,1.938"/>
	<path fill="none" stroke="#232323" stroke-miterlimit="10" d="M94.292,278.114c0.408,0.14,0.83,0.216,1.265,0.216"/>
	<line fill="none" stroke="#232323" stroke-miterlimit="10" x1="95.557" y1="278.33" x2="117.319" y2="278.165"/>
	<line fill="none" stroke="#232323" stroke-miterlimit="10" x1="120.952" y1="274.519" x2="120.992" y2="257.903"/>
	<path fill="none" stroke="#232323" stroke-miterlimit="10" d="M117.319,278.165c1.999-0.014,3.62-1.646,3.633-3.659"/>
	<line fill="none" stroke="#232323" stroke-miterlimit="10" x1="43.235" y1="259.867" x2="50.069" y2="262.313"/>
	<line fill="none" stroke="#232323" stroke-miterlimit="10" x1="54.786" y1="263.997" x2="74.318" y2="270.975"/>
	<line fill="none" stroke="#232323" stroke-miterlimit="10" x1="79.021" y1="272.658" x2="94.305" y2="278.114"/>
	<path fill="none" stroke="#232323" stroke-miterlimit="10" d="M40.899,233.872c-0.023,0.165-0.036,0.332-0.036,0.498"/>
	<line fill="none" stroke="#232323" stroke-miterlimit="10" x1="40.863" y1="234.381" x2="40.814" y2="256.412"/>
	<path fill="none" stroke="#232323" stroke-miterlimit="10" d="M40.801,256.412c0,1.301,0.671,2.498,1.785,3.162"/>
	<path fill="none" stroke="#232323" stroke-miterlimit="10" d="M42.586,259.561c0.204,0.128,0.418,0.229,0.649,0.306"/>
	<line fill="none" stroke="#232323" stroke-miterlimit="10" x1="267.437" y1="256.169" x2="289.073" y2="256.004"/>
	<line fill="none" stroke="#232323" stroke-miterlimit="10" x1="289.225" y1="249.629" x2="289.53" y2="249.629"/>
	<line fill="none" stroke="#232323" stroke-miterlimit="10" x1="317.194" y1="249.425" x2="317.527" y2="249.425"/>
	<polyline fill="none" stroke="#232323" stroke-miterlimit="10" points="320.317,213.347 320.317,213.244 320.317,213.09 
		320.317,212.951 320.304,212.797 320.295,212.645 320.281,212.492 320.255,212.352 320.232,212.199 320.205,212.046 
		320.18,211.905 320.14,211.753 320.114,211.611 320.077,211.459 320.041,211.317 319.988,211.167 319.937,211.024 319.886,210.885 
		319.836,210.745 319.784,210.605 319.718,210.465 319.655,210.325 319.593,210.196 319.514,210.056 319.451,209.916 
		319.362,209.79 319.286,209.661 319.21,209.521 319.119,209.395 319.046,209.266 318.953,209.15 318.854,209.024 318.764,208.91 
		318.66,208.781 318.559,208.666 318.46,208.564 318.354,208.45 318.242,208.335 318.138,208.233 318.025,208.131 317.91,208.029 
		317.794,207.927 317.67,207.838 317.551,207.736 317.425,207.647 317.298,207.558 317.169,207.48 317.044,207.392 316.915,207.315 
		316.773,207.238 316.636,207.163 316.506,207.085 316.365,207.022 316.227,206.958 316.089,206.894 315.947,206.843 
		315.897,206.818 	"/>
	<line fill="none" stroke="#232323" stroke-miterlimit="10" x1="315.742" y1="206.768" x2="307.42" y2="203.785"/>
	<line fill="none" stroke="#232323" stroke-miterlimit="10" x1="320.232" y1="247.335" x2="320.317" y2="213.347"/>
	<line fill="none" stroke="#232323" stroke-miterlimit="10" x1="317.541" y1="249.412" x2="318.025" y2="249.132"/>
	<line fill="none" stroke="#232323" stroke-miterlimit="10" x1="318.025" y1="249.132" x2="318.446" y2="249.132"/>
	<path fill="none" stroke="#232323" stroke-miterlimit="10" d="M318.446,249.132c0.752-0.013,1.426-0.484,1.668-1.199"/>
	<path fill="none" stroke="#232323" stroke-miterlimit="10" d="M320.114,247.933c0.079-0.191,0.118-0.395,0.118-0.611"/>
	<line fill="none" stroke="#232323" stroke-miterlimit="10" x1="209.771" y1="279.389" x2="259.748" y2="297.236"/>
	<path fill="none" stroke="#232323" stroke-miterlimit="10" d="M291.111,276.609c0.408,0.153,0.826,0.217,1.261,0.217"/>
	<line fill="none" stroke="#232323" stroke-miterlimit="10" x1="292.36" y1="276.826" x2="314.124" y2="276.66"/>
	<path fill="none" stroke="#232323" stroke-miterlimit="10" d="M317.82,250.968c0-0.537-0.114-1.07-0.342-1.556"/>
	<line fill="none" stroke="#232323" stroke-miterlimit="10" x1="317.755" y1="273.014" x2="317.82" y2="250.982"/>
	<line fill="none" stroke="#232323" stroke-miterlimit="10" x1="277.445" y1="271.663" x2="291.111" y2="276.609"/>
	<path fill="none" stroke="#232323" stroke-miterlimit="10" d="M314.124,276.66c2.013-0.013,3.631-1.632,3.631-3.646"/>
	<line fill="none" stroke="#232323" stroke-miterlimit="10" x1="250.581" y1="293.96" x2="250.39" y2="360.767"/>
	<line fill="none" stroke="#232323" stroke-miterlimit="10" x1="50.043" y1="264.876" x2="49.773" y2="362.016"/>
	<line fill="none" stroke="#232323" stroke-miterlimit="10" x1="309.698" y1="370.621" x2="309.969" y2="276.698"/>
	<line fill="none" stroke="#232323" stroke-miterlimit="10" x1="74.305" y1="273.538" x2="74.021" y2="370.685"/>
	<line fill="none" stroke="#232323" stroke-miterlimit="10" x1="109.081" y1="371.88" x2="109.352" y2="278.228"/>
	<line fill="none" stroke="#232323" stroke-miterlimit="10" x1="293.217" y1="421.655" x2="108.839" y2="423.055"/>
	<line fill="none" stroke="#232323" stroke-miterlimit="10" x1="105.318" y1="408.816" x2="293.253" y2="407.387"/>
	<line fill="none" stroke="#232323" stroke-miterlimit="10" x1="293.253" y1="407.387" x2="293.217" y2="421.655"/>
	<line fill="none" stroke="#232323" stroke-miterlimit="10" x1="90.609" y1="403.562" x2="105.318" y2="408.816"/>
	<line fill="none" stroke="#232323" stroke-miterlimit="10" x1="287.808" y1="541.074" x2="287.771" y2="555.336"/>
	<line fill="none" stroke="#232323" stroke-miterlimit="10" x1="287.771" y1="555.336" x2="107.105" y2="556.714"/>
	<line fill="none" stroke="#232323" stroke-miterlimit="10" x1="99.891" y1="542.515" x2="287.808" y2="541.074"/>
	<line fill="none" stroke="#232323" stroke-miterlimit="10" x1="66.271" y1="533.064" x2="76.354" y2="536.674"/>
	<line fill="none" stroke="#232323" stroke-miterlimit="10" x1="92.842" y1="542.563" x2="93.185" y2="424.472"/>
	<line fill="none" stroke="#232323" stroke-miterlimit="10" x1="295.193" y1="422.354" x2="294.86" y2="541.021"/>
	<line fill="none" stroke="#232323" stroke-miterlimit="10" x1="66.271" y1="533.064" x2="66.604" y2="416.975"/>
	<line fill="none" stroke="#232323" stroke-miterlimit="10" x1="66.271" y1="533.064" x2="52.197" y2="533.184"/>
	<line fill="none" stroke="#232323" stroke-miterlimit="10" x1="52.197" y1="533.184" x2="49.773" y2="532.312"/>
	<line fill="none" stroke="#232323" stroke-miterlimit="10" x1="49.773" y1="532.312" x2="50.119" y2="411.085"/>
	<line fill="none" stroke="#232323" stroke-miterlimit="10" x1="52.54" y1="411.952" x2="50.119" y2="411.085"/>
	<line fill="none" stroke="#232323" stroke-miterlimit="10" x1="76.343" y1="541.812" x2="78.765" y2="542.665"/>
	<line fill="none" stroke="#232323" stroke-miterlimit="10" x1="76.343" y1="541.812" x2="76.687" y2="420.568"/>
	<line fill="none" stroke="#232323" stroke-miterlimit="10" x1="76.687" y1="420.568" x2="79.11" y2="421.438"/>
	<line fill="none" stroke="#232323" stroke-miterlimit="10" x1="92.842" y1="542.563" x2="93.185" y2="424.472"/>
	<line fill="none" stroke="#232323" stroke-miterlimit="10" x1="294.86" y1="541.021" x2="295.193" y2="422.354"/>
	<line fill="none" stroke="#232323" stroke-miterlimit="10" x1="308.934" y1="540.92" x2="309.277" y2="422.828"/>
	<line fill="none" stroke="#232323" stroke-miterlimit="10" x1="310.631" y1="572.933" x2="310.68" y2="557.813"/>
	<line fill="none" stroke="#232323" stroke-miterlimit="10" x1="307.646" y1="566.061" x2="307.673" y2="557.826"/>
	<polyline fill="none" stroke="#232323" stroke-miterlimit="10" points="296.121,581.371 296.121,581.486 296.135,581.602 
		296.148,581.717 296.148,581.818 296.16,581.921 296.174,582.022 296.188,582.126 296.197,582.228 296.211,582.326 
		296.223,582.419 296.236,582.507 296.25,582.597 296.26,582.685 296.273,582.761 296.287,582.854 296.299,582.926 296.326,583.005 
		296.338,583.079 296.365,583.144 296.378,583.209 296.392,583.271 296.414,583.333 296.428,583.4 296.44,583.448 296.465,583.488 
		296.477,583.538 296.504,583.578 296.516,583.617 296.543,583.653 296.556,583.68 296.583,583.702 296.592,583.729 
		296.619,583.742 296.646,583.756 296.654,583.77 296.682,583.781 296.693,583.781 296.721,583.781 296.747,583.781 296.761,583.77 
		296.786,583.756 296.797,583.742 	"/>
	<line fill="none" stroke="#232323" stroke-miterlimit="10" x1="295.61" y1="573.657" x2="296.121" y2="581.371"/>
	<line fill="none" stroke="#232323" stroke-miterlimit="10" x1="295.65" y1="557.927" x2="295.61" y2="573.657"/>
	<line fill="none" stroke="#232323" stroke-miterlimit="10" x1="298.658" y1="557.899" x2="298.621" y2="573.466"/>
	<line fill="none" stroke="#232323" stroke-miterlimit="10" x1="298.621" y1="573.455" x2="298.071" y2="581.641"/>
	<polyline fill="none" stroke="#232323" stroke-miterlimit="10" points="298.071,581.641 298.071,581.74 298.058,581.858 
		298.044,581.957 298.032,582.062 298.021,582.16 298.021,582.253 298.01,582.352 297.996,582.444 297.982,582.529 297.973,582.636 
		297.959,582.712 297.945,582.8 297.934,582.876 297.92,582.952 297.906,583.031 297.88,583.093 297.866,583.169 297.854,583.234 
		297.841,583.298 297.818,583.347 297.805,583.4 297.778,583.462 297.768,583.502 297.742,583.552 297.729,583.592 297.702,583.631 
		297.688,583.653 297.663,583.68 297.649,583.716 297.627,583.729 297.613,583.756 297.587,583.77 297.578,583.77 297.551,583.781 
		297.538,583.781 	"/>
	<polyline fill="none" stroke="#232323" stroke-miterlimit="10" points="295.18,579.358 295.18,578.986 295.193,578.617 
		295.193,578.262 295.205,577.893 295.205,577.523 295.216,577.164 295.228,576.806 295.241,576.449 295.255,576.107 
		295.268,575.752 295.292,575.405 295.304,575.06 295.331,574.718 295.357,574.385 295.383,574.052 295.41,573.723 295.433,573.393 
		295.459,573.071 295.483,572.767 295.522,572.448 295.549,572.142 295.588,571.848 295.61,571.622 	"/>
	<polyline fill="none" stroke="#232323" stroke-miterlimit="10" points="298.631,567.945 298.67,568.087 298.737,568.278 
		298.785,568.47 298.836,568.673 298.889,568.891 298.94,569.121 298.99,569.348 299.039,569.578 299.078,569.823 299.132,570.077 
		299.182,570.343 299.217,570.6 299.27,570.881 299.31,571.16 299.349,571.439 299.386,571.732 299.422,572.025 299.461,572.333 
		299.501,572.64 299.54,572.958 299.577,573.274 299.603,573.595 299.639,573.914 299.665,574.256 299.692,574.588 299.718,574.921 
		299.744,575.265 299.767,575.623 299.794,575.966 299.816,576.324 299.83,576.668 299.843,577.035 299.87,577.396 299.882,577.751 
		299.896,578.123 299.909,578.479 299.909,578.848 299.922,579.217 299.922,579.572 299.936,579.958 299.936,580.313 
		299.936,580.686 299.936,581.055 299.936,581.424 299.936,581.779 299.922,582.148 299.922,582.521 299.909,582.876 
		299.896,583.248 299.882,583.604 299.87,583.947 299.856,584.303 299.843,584.661 299.83,585.007 299.803,585.349 299.794,585.692 
		299.755,586.025 299.744,586.357 299.718,586.688 299.692,587.006 299.652,587.339 299.625,587.643 299.603,587.965 
		299.563,588.255 299.54,588.564 299.487,588.854 299.461,589.138 299.422,589.417 299.386,589.698 299.335,589.964 
		299.296,590.218 299.256,590.487 299.208,590.732 299.168,590.973 299.118,591.198 299.066,591.43 299.027,591.646 
		298.977,591.852 298.928,592.056 298.875,592.261 298.822,592.438 298.773,592.616 298.71,592.78 298.658,592.948 298.596,593.101 
		298.546,593.242 298.492,593.366 298.427,593.495 298.364,593.611 298.314,593.713 298.249,593.814 298.199,593.904 
		298.137,593.98 298.071,594.045 298.01,594.107 297.959,594.157 297.894,594.197 297.832,594.236 297.768,594.249 297.702,594.263 
		297.637,594.263 297.578,594.263 297.511,594.236 297.458,594.209 297.396,594.184 297.333,594.134 297.268,594.071 
		297.206,594.006 297.155,593.943 297.09,593.854 297.026,593.752 296.964,593.662 296.898,593.535 296.849,593.42 296.786,593.295 
		296.721,593.152 296.668,593.011 296.605,592.847 296.556,592.682 296.49,592.514 296.44,592.322 296.392,592.131 296.338,591.939 
		296.287,591.723 296.223,591.522 296.174,591.291 296.121,591.061 296.082,590.817 296.033,590.577 295.982,590.336 
		295.93,590.067 295.891,589.8 295.854,589.532 295.805,589.25 295.766,588.969 295.727,588.677 295.687,588.37 295.65,588.077 
		295.61,587.773 295.574,587.451 295.549,587.136 295.509,586.814 295.483,586.482 295.459,586.154 295.419,585.821 
		295.396,585.475 295.371,585.146 295.344,584.79 295.317,584.443 295.304,584.088 295.278,583.729 295.268,583.373 
		295.255,583.018 295.241,582.648 295.228,582.29 295.216,581.932 295.205,581.562 295.205,581.193 295.193,580.824 
		295.193,580.455 295.18,580.086 295.18,579.728 295.18,579.358 	"/>
	<polyline fill="none" stroke="#232323" stroke-miterlimit="10" points="308.539,566.061 308.564,566.061 308.627,566.061 
		308.678,566.088 308.742,566.11 308.818,566.15 308.869,566.187 308.934,566.24 308.999,566.314 309.063,566.391 309.125,566.469 
		309.179,566.568 309.241,566.674 309.303,566.773 309.368,566.9 309.419,567.029 309.48,567.168 309.534,567.31 309.586,567.478 
		309.649,567.642 309.712,567.808 309.765,567.997 309.813,568.188 309.876,568.38 309.929,568.598 309.982,568.814 310.03,569.032 
		310.067,569.26 310.12,569.503 310.172,569.744 310.222,570.001 310.272,570.255 310.312,570.521 310.352,570.791 310.399,571.072 
		310.439,571.352 310.476,571.645 310.516,571.938 310.555,572.257 310.591,572.563 310.631,572.866 310.653,573.189 
		310.693,573.505 310.732,573.838 310.758,574.171 310.782,574.5 310.809,574.842 310.834,575.188 310.857,575.534 310.885,575.876 
		310.898,576.231 310.924,576.592 310.938,576.947 310.963,577.306 310.977,577.661 310.986,578.03 311,578.399 311,578.76 
		311.012,579.127 311.012,579.499 311.025,579.868 311.025,580.237 311.025,580.593 311.025,580.976 311.025,581.334 
		311.025,581.703 311.012,582.072 311.012,582.431 311,582.786 310.986,583.155 310.977,583.513 310.963,583.871 310.949,584.229 
		310.938,584.572 310.91,584.914 310.898,585.261 310.871,585.607 310.845,585.949 310.834,586.278 310.809,586.598 
		310.782,586.931 310.746,587.246 310.719,587.569 310.693,587.872 310.653,588.179 310.617,588.472 310.58,588.766 
		310.541,589.059 310.516,589.343 310.476,589.608 310.426,589.876 310.386,590.146 310.338,590.399 310.298,590.64 
		310.259,590.883 310.208,591.127 310.16,591.342 310.106,591.572 310.054,591.775 310.017,591.977 309.969,592.171 
		309.915,592.349 309.853,592.526 309.8,592.704 309.751,592.859 309.686,593.011 309.636,593.152 309.573,593.295 309.521,593.406 
		309.458,593.535 309.405,593.637 309.343,593.727 309.277,593.828 309.228,593.904 309.165,593.967 309.1,594.031 309.036,594.085 
		308.974,594.121 308.92,594.144 308.858,594.17 308.796,594.184 308.756,594.184 	"/>
	<polyline fill="none" stroke="#232323" stroke-miterlimit="10" points="99.482,567.655 99.509,567.655 99.571,567.655 
		99.634,567.679 99.7,567.704 99.763,567.74 99.825,567.78 99.878,567.833 99.94,567.909 100.003,567.985 100.069,568.064 
		100.131,568.149 100.184,568.268 100.247,568.366 100.312,568.495 100.375,568.623 100.424,568.763 100.49,568.904 100.54,569.068 
		100.603,569.237 100.655,569.401 100.708,569.592 100.771,569.783 100.82,569.974 100.873,570.192 100.922,570.409 
		100.975,570.627 101.024,570.854 101.077,571.095 101.116,571.338 101.179,571.595 101.215,571.848 101.268,572.115 
		101.308,572.386 101.343,572.665 101.38,572.944 101.433,573.238 101.472,573.531 101.512,573.838 101.547,574.145 
		101.574,574.461 101.61,574.779 101.636,575.099 101.676,575.429 101.703,575.761 101.739,576.094 101.766,576.437 
		101.788,576.783 101.801,577.128 101.828,577.472 101.854,577.827 101.867,578.186 101.88,578.541 101.907,578.9 101.917,579.256 
		101.93,579.625 101.943,579.994 101.956,580.353 101.956,580.722 101.966,581.091 101.966,581.463 101.966,581.832 
		101.979,582.188 101.979,582.557 101.966,582.926 101.966,583.298 101.966,583.653 101.956,584.026 101.956,584.381 
		101.93,584.736 101.917,585.105 101.907,585.465 101.894,585.808 101.88,586.166 101.867,586.51 101.841,586.854 101.828,587.197 
		101.801,587.544 101.775,587.872 101.752,588.192 101.726,588.525 101.703,588.841 101.663,589.16 101.636,589.467 
		101.597,589.773 101.574,590.067 101.535,590.36 101.498,590.653 101.458,590.933 101.419,591.198 101.37,591.469 101.33,591.736 
		101.294,591.99 101.254,592.233 101.202,592.478 101.166,592.718 101.104,592.935 101.064,593.152 101.011,593.366 
		100.961,593.571 100.912,593.763 100.859,593.943 100.807,594.121 100.744,594.299 100.695,594.454 100.642,594.605 
		100.589,594.744 100.527,594.886 100.464,595.001 100.411,595.128 100.349,595.231 100.286,595.319 100.233,595.422 
		100.171,595.497 100.122,595.56 100.056,595.613 99.993,595.675 99.931,595.715 99.864,595.737 99.798,595.765 99.739,595.778 
		99.7,595.778 	"/>
	<polyline fill="none" stroke="#232323" stroke-miterlimit="10" points="86.137,580.948 86.137,580.581 86.137,580.212 
		86.146,579.856 86.146,579.487 86.159,579.115 86.159,578.76 86.172,578.399 86.186,578.044 86.199,577.701 86.222,577.342 
		86.235,577 86.261,576.654 86.275,576.311 86.301,575.979 86.327,575.634 86.351,575.317 86.376,574.984 86.4,574.664 
		86.439,574.362 86.465,574.041 86.505,573.736 86.531,573.443 86.554,573.198 	"/>
	<polyline fill="none" stroke="#232323" stroke-miterlimit="10" points="89.575,569.539 89.614,569.681 89.68,569.859 
		89.729,570.063 89.779,570.267 89.832,570.485 89.885,570.712 89.934,570.929 89.983,571.174 90.036,571.417 90.085,571.67 
		90.125,571.938 90.174,572.194 90.214,572.471 90.267,572.755 90.303,573.034 90.343,573.327 90.378,573.621 90.418,573.928 
		90.458,574.232 90.481,574.554 90.521,574.869 90.557,575.188 90.583,575.508 90.609,575.837 90.648,576.184 90.675,576.516 
		90.698,576.857 90.711,577.201 90.734,577.56 90.76,577.92 90.774,578.262 90.787,578.631 90.813,578.986 90.826,579.345 
		90.839,579.714 90.853,580.073 90.866,580.442 90.866,580.811 90.876,581.167 90.876,581.535 90.876,581.908 90.89,582.276 
		90.89,582.648 90.876,583.018 90.876,583.373 90.876,583.742 90.866,584.111 90.866,584.47 90.853,584.826 90.839,585.198 
		90.826,585.54 90.813,585.896 90.787,586.256 90.774,586.598 90.748,586.944 90.734,587.273 90.711,587.618 90.685,587.951 
		90.662,588.28 90.636,588.602 90.609,588.934 90.583,589.236 90.543,589.555 90.507,589.849 90.481,590.155 90.444,590.448 
		90.405,590.732 90.365,591.009 90.329,591.291 90.29,591.559 90.24,591.812 90.201,592.083 90.161,592.322 90.112,592.565 
		90.075,592.794 90.023,593.024 89.971,593.242 89.921,593.445 89.872,593.65 89.818,593.854 89.766,594.031 89.717,594.209 
		89.654,594.375 89.602,594.539 89.552,594.694 89.5,594.835 89.437,594.961 89.371,595.089 89.321,595.204 89.259,595.306 
		89.207,595.409 89.144,595.497 89.081,595.573 89.028,595.639 88.962,595.702 88.899,595.751 88.837,595.791 88.771,595.83 
		88.722,595.844 88.66,595.857 88.581,595.857 88.53,595.857 88.468,595.83 88.402,595.805 88.34,595.778 88.277,595.726 
		88.211,595.663 88.162,595.6 88.099,595.534 88.034,595.449 87.971,595.343 87.918,595.258 87.856,595.128 87.79,595.013 
		87.727,594.886 87.678,594.744 87.611,594.592 87.563,594.44 87.5,594.276 87.447,594.107 87.394,593.916 87.332,593.727 
		87.283,593.521 87.23,593.317 87.18,593.112 87.127,592.887 87.078,592.655 87.026,592.411 86.977,592.171 86.926,591.928 
		86.887,591.66 86.834,591.39 86.795,591.127 86.758,590.843 86.709,590.563 86.669,590.271 86.63,589.964 86.594,589.671 
		86.554,589.365 86.531,589.045 86.492,588.729 86.465,588.41 86.426,588.077 86.4,587.747 86.364,587.415 86.34,587.068 
		86.314,586.727 86.301,586.384 86.275,586.039 86.248,585.679 86.235,585.323 86.222,584.968 86.199,584.612 86.186,584.24 
		86.172,583.885 86.159,583.524 86.146,583.155 86.146,582.786 86.137,582.419 86.137,582.05 86.123,581.678 86.123,581.322 
		86.123,580.948 	"/>
	<line fill="none" stroke="#232323" stroke-miterlimit="10" x1="101.584" y1="574.526" x2="101.624" y2="559.404"/>
	<line fill="none" stroke="#232323" stroke-miterlimit="10" x1="98.59" y1="567.655" x2="98.626" y2="559.418"/>
	<line fill="none" stroke="#232323" stroke-miterlimit="10" x1="89.614" y1="559.494" x2="89.562" y2="575.047"/>
	<polyline fill="none" stroke="#232323" stroke-miterlimit="10" points="87.065,582.966 87.065,583.079 87.078,583.195 
		87.091,583.298 87.105,583.412 87.118,583.513 87.118,583.617 87.127,583.716 87.141,583.821 87.154,583.92 87.167,584.013 
		87.18,584.098 87.19,584.19 87.204,584.279 87.216,584.355 87.243,584.443 87.256,584.52 87.27,584.599 87.283,584.675 
		87.309,584.736 87.322,584.804 87.332,584.866 87.358,584.928 87.384,584.993 87.394,585.044 87.408,585.08 87.434,585.132 
		87.447,585.171 87.473,585.211 87.487,585.247 87.513,585.274 87.523,585.297 87.549,585.323 87.563,585.337 87.585,585.349 
		87.599,585.362 87.625,585.376 87.652,585.376 87.678,585.376 87.691,585.376 87.717,585.362 87.727,585.349 87.753,585.337 
		87.767,585.31 87.79,585.283 	"/>
	<line fill="none" stroke="#232323" stroke-miterlimit="10" x1="86.554" y1="575.251" x2="87.065" y2="582.966"/>
	<line fill="none" stroke="#232323" stroke-miterlimit="10" x1="86.604" y1="559.52" x2="86.554" y2="575.251"/>
	<line fill="none" stroke="#232323" stroke-miterlimit="10" x1="89.562" y1="575.047" x2="89.028" y2="583.223"/>
	<polyline fill="none" stroke="#232323" stroke-miterlimit="10" points="89.015,583.234 89.015,583.333 89.002,583.448 
		88.988,583.552 88.988,583.653 88.976,583.756 88.962,583.844 88.953,583.947 88.939,584.035 88.926,584.125 88.913,584.218 
		88.899,584.303 88.89,584.395 88.877,584.47 88.863,584.545 88.85,584.624 88.837,584.688 88.824,584.763 88.798,584.826 
		88.784,584.889 88.761,584.941 88.749,584.993 88.735,585.044 88.709,585.092 88.699,585.146 88.672,585.185 88.66,585.222 
		88.633,585.247 88.62,585.274 88.593,585.297 88.581,585.323 88.557,585.349 88.544,585.362 88.518,585.362 88.495,585.376 
		88.481,585.376 	"/>
	<polyline fill="none" stroke="#232323" stroke-miterlimit="10" points="261.293,567.247 261.293,566.878 261.293,566.506 
		261.279,566.15 261.279,565.768 261.279,565.409 261.266,565.04 261.254,564.671 261.24,564.315 261.227,563.943 261.214,563.588 
		261.2,563.229 261.187,562.872 261.164,562.517 261.139,562.161 261.125,561.815 261.102,561.456 261.076,561.114 261.049,560.785 
		261.022,560.449 260.986,560.106 260.961,559.79 260.934,559.467 260.898,559.15 260.859,558.832 260.819,558.524 260.783,558.231 
		260.743,557.927 260.707,557.633 260.668,557.353 260.628,557.072 260.578,556.793 260.529,556.535 260.49,556.27 260.437,556.016 
		260.387,555.784 260.335,555.554 	"/>
	<polyline fill="none" stroke="#232323" stroke-miterlimit="10" points="256.972,557.8 256.946,558.04 256.905,558.333 
		256.865,558.641 256.843,558.959 256.803,559.266 256.78,559.585 256.755,559.915 256.728,560.235 256.701,560.58 256.688,560.909 
		256.662,561.253 256.639,561.598 256.625,561.944 256.611,562.3 256.6,562.643 256.589,563.012 256.577,563.37 256.563,563.729 
		256.55,564.084 256.537,564.453 256.537,564.809 256.537,565.178 256.537,565.55 256.537,565.919 256.537,566.291 256.537,566.66 
		256.537,567.016 256.55,567.385 256.55,567.754 256.577,568.113 256.577,568.481 256.589,568.854 256.6,569.21 256.625,569.578 
		256.639,569.922 256.651,570.28 256.676,570.636 256.701,570.982 256.728,571.324 256.741,571.67 256.78,572.017 256.803,572.347 
		256.83,572.676 256.865,573.009 256.893,573.327 256.933,573.646 256.972,573.967 256.994,574.27 257.034,574.576 257.07,574.869 
		257.124,575.166 257.163,575.442 257.198,575.725 257.248,575.992 257.288,576.259 257.341,576.516 257.39,576.77 257.429,577.01 
		257.479,577.254 257.53,577.483 257.581,577.715 257.634,577.92 257.683,578.134 257.749,578.323 257.798,578.528 257.849,578.709 
		257.899,578.873 257.967,579.039 258.029,579.203 258.077,579.345 258.145,579.487 258.207,579.625 258.255,579.741 
		258.322,579.843 258.371,579.958 258.435,580.046 258.5,580.122 258.562,580.212 258.624,580.277 258.678,580.327 258.757,580.363 
		258.807,580.415 258.869,580.442 258.935,580.455 258.996,580.469 259.061,580.469 259.126,580.455 259.174,580.429 
		259.238,580.39 259.304,580.353 259.365,580.3 259.428,580.251 259.481,580.185 259.547,580.097 259.607,580.007 259.673,579.919 
		259.726,579.803 259.788,579.69 259.837,579.563 259.903,579.434 259.952,579.296 260.002,579.141 260.067,578.973 
		260.121,578.809 260.169,578.631 260.22,578.453 260.272,578.262 260.324,578.058 260.374,577.841 260.423,577.622 
		260.477,577.396 260.516,577.164 260.564,576.925 260.601,576.68 260.654,576.423 260.693,576.157 260.729,575.89 260.77,575.623 
		260.806,575.344 260.846,575.047 260.885,574.757 260.924,574.461 260.947,574.145 260.986,573.838 261.009,573.531 
		261.036,573.212 261.062,572.88 261.088,572.563 261.115,572.217 261.139,571.885 261.15,571.543 261.178,571.199 261.2,570.854 
		261.214,570.498 261.227,570.152 261.24,569.783 261.254,569.429 261.266,569.068 261.266,568.713 261.279,568.341 
		261.279,567.985 261.293,567.616 261.293,567.247 	"/>
	<polyline fill="none" stroke="#232323" stroke-miterlimit="10" points="272.384,567.154 272.384,566.799 272.384,566.43 
		272.37,566.061 272.37,565.693 272.37,565.321 272.356,564.952 272.347,564.592 272.333,564.225 272.319,563.855 272.308,563.498 
		272.294,563.143 272.269,562.784 272.255,562.426 272.229,562.082 272.218,561.727 272.192,561.381 272.166,561.039 
		272.142,560.692 272.116,560.363 272.077,560.03 272.037,559.697 272.015,559.382 271.975,559.062 271.952,558.756 
		271.913,558.437 271.873,558.144 271.834,557.837 271.783,557.558 271.747,557.264 271.708,556.983 271.668,556.714 
		271.619,556.447 271.58,556.193 271.53,555.937 271.477,555.696 271.428,555.466 	"/>
	<polyline fill="none" stroke="#232323" stroke-miterlimit="10" points="270.114,580.376 270.153,580.376 270.216,580.363 
		270.265,580.339 270.331,580.313 270.394,580.277 270.456,580.224 270.522,580.158 270.574,580.086 270.637,580.007 270.7,579.931 
		270.752,579.829 270.814,579.728 270.864,579.611 270.93,579.487 270.994,579.358 271.042,579.203 271.096,579.064 271.148,578.9 
		271.211,578.719 271.26,578.555 271.312,578.363 271.366,578.173 271.414,577.968 271.465,577.765 271.517,577.533 
		271.566,577.319 271.605,577.075 271.654,576.832 271.694,576.592 271.747,576.338 271.783,576.081 271.823,575.814 
		271.859,575.534 271.899,575.251 271.938,574.971 271.975,574.678 272.001,574.374 272.037,574.065 272.077,573.762 
		272.103,573.443 272.13,573.122 272.155,572.804 272.179,572.471 272.206,572.142 272.229,571.8 272.241,571.467 272.269,571.106 
		272.294,570.765 272.308,570.422 272.319,570.063 272.333,569.708 272.347,569.348 272.356,568.992 272.356,568.623 
		272.37,568.268 272.37,567.896 272.384,567.526 272.384,567.168 	"/>
	<line fill="none" stroke="#232323" stroke-miterlimit="10" x1="259.966" y1="560.616" x2="259.979" y2="555.554"/>
	<polyline fill="none" stroke="#232323" stroke-miterlimit="10" points="258.181,569.899 258.167,569.922 258.145,569.934 
		258.131,569.947 258.104,569.961 258.091,569.974 258.065,569.974 258.052,569.974 258.029,569.974 258.016,569.961 
		257.989,569.947 257.967,569.934 257.953,569.922 257.927,569.899 257.899,569.872 257.888,569.835 257.86,569.796 
		257.849,569.756 257.824,569.717 257.812,569.681 257.798,569.632 257.772,569.566 257.762,569.514 257.735,569.454 
		257.722,569.389 257.71,569.322 257.696,569.249 257.669,569.184 257.657,569.107 257.634,569.02 257.62,568.94 257.606,568.864 
		257.595,568.775 257.581,568.687 257.57,568.584 257.558,568.495 257.544,568.394 257.53,568.29 257.519,568.188 257.505,568.087 
		257.505,567.985 257.491,567.873 257.479,567.768 257.479,567.655 257.466,567.54 257.466,567.438 	"/>
	<line fill="none" stroke="#232323" stroke-miterlimit="10" x1="257.466" y1="567.438" x2="256.972" y2="558.88"/>
	<line fill="none" stroke="#232323" stroke-miterlimit="10" x1="256.972" y1="558.88" x2="256.972" y2="555.581"/>
	<line fill="none" stroke="#232323" stroke-miterlimit="10" x1="259.416" y1="567.958" x2="259.966" y2="560.616"/>
	<polyline fill="none" stroke="#232323" stroke-miterlimit="10" points="258.895,569.974 258.908,569.974 258.921,569.961 
		258.948,569.961 258.957,569.947 258.984,569.934 258.996,569.908 259.021,569.886 259.033,569.859 259.061,569.823 
		259.072,569.796 259.086,569.756 259.112,569.708 259.14,569.668 259.151,569.618 259.162,569.553 259.188,569.503 259.201,569.44 
		259.211,569.375 259.238,569.312 259.25,569.237 259.264,569.17 259.277,569.096 259.29,569.006 259.304,568.927 259.317,568.842 
		259.329,568.749 259.343,568.663 259.354,568.571 259.365,568.47 259.379,568.38 259.393,568.278 259.405,568.177 259.405,568.073 
		259.416,567.972 	"/>
	<line fill="none" stroke="#232323" stroke-miterlimit="10" x1="272.001" y1="555.455" x2="271.987" y2="559.125"/>
	<line fill="none" stroke="#232323" stroke-miterlimit="10" x1="62.968" y1="551.299" x2="62.931" y2="560.718"/>
	<line fill="none" stroke="#232323" stroke-miterlimit="10" x1="59.961" y1="550.225" x2="59.947" y2="553.848"/>
	<line fill="none" stroke="#232323" stroke-miterlimit="10" x1="50.909" y1="562.211" x2="50.958" y2="547.014"/>
	<polyline fill="none" stroke="#232323" stroke-miterlimit="10" points="48.969,571.568 48.959,571.555 48.933,571.543 
		48.92,571.529 48.896,571.516 48.884,571.489 48.857,571.467 48.844,571.428 48.817,571.404 48.805,571.352 48.778,571.312 
		48.765,571.262 48.742,571.226 48.716,571.174 48.702,571.106 48.693,571.045 48.667,570.982 48.653,570.917 48.64,570.854 
		48.613,570.778 48.6,570.699 48.587,570.627 48.574,570.534 48.564,570.446 48.551,570.37 48.538,570.267 48.524,570.179 
		48.511,570.089 48.501,569.987 48.489,569.886 48.462,569.783 48.462,569.681 48.448,569.578 48.436,569.463 48.422,569.361 
		48.422,569.249 48.409,569.131 48.409,569.032 	"/>
	<polyline fill="none" stroke="#232323" stroke-miterlimit="10" points="49.137,571.479 49.111,571.516 49.098,571.529 
		49.074,571.543 49.062,571.555 49.035,571.568 	"/>
	<line fill="none" stroke="#232323" stroke-miterlimit="10" x1="48.409" y1="569.032" x2="47.915" y2="560.476"/>
	<line fill="none" stroke="#232323" stroke-miterlimit="10" x1="47.915" y1="560.476" x2="47.952" y2="545.942"/>
	<line fill="none" stroke="#232323" stroke-miterlimit="10" x1="50.359" y1="569.553" x2="50.909" y2="562.211"/>
	<polyline fill="none" stroke="#232323" stroke-miterlimit="10" points="49.839,571.568 49.852,571.568 49.878,571.555 
		49.888,571.555 49.914,571.543 49.928,571.529 49.951,571.503 49.964,571.479 49.99,571.453 50.004,571.417 50.03,571.377 
		50.043,571.352 50.056,571.298 50.083,571.262 50.093,571.213 50.119,571.146 50.132,571.095 50.155,571.032 50.168,570.969 
		50.182,570.903 50.194,570.83 50.208,570.765 50.234,570.689 50.247,570.6 50.261,570.521 50.273,570.436 50.283,570.343 
		50.297,570.255 50.31,570.165 50.31,570.063 50.323,569.974 50.336,569.872 50.346,569.77 50.346,569.668 50.359,569.566 	"/>
	<polyline fill="none" stroke="#232323" stroke-miterlimit="10" points="52.237,568.842 52.237,568.47 52.237,568.101 
		52.237,567.74 52.237,567.359 52.223,567.004 52.21,566.635 52.21,566.266 52.197,565.907 52.184,565.538 52.158,565.178 
		52.144,564.822 52.131,564.467 52.108,564.111 52.095,563.752 52.069,563.407 52.045,563.052 52.02,562.708 51.993,562.375 
		51.966,562.043 51.94,561.699 51.904,561.381 51.877,561.062 51.841,560.745 51.802,560.425 51.762,560.12 51.736,559.812 
		51.7,559.52 51.65,559.227 51.611,558.947 51.571,558.666 51.522,558.387 51.482,558.13 51.433,557.862 51.394,557.608 
		51.328,557.366 51.291,557.135 51.242,556.904 51.189,556.678 51.136,556.461 51.087,556.256 51.024,556.064 50.972,555.874 
		50.932,555.731 	"/>
	<polyline fill="none" stroke="#232323" stroke-miterlimit="10" points="47.915,559.396 47.889,559.635 47.849,559.929 
		47.81,560.235 47.783,560.555 47.76,560.856 47.734,561.177 47.711,561.51 47.684,561.829 47.659,562.172 47.632,562.505 
		47.605,562.847 47.592,563.192 47.583,563.537 47.556,563.895 47.543,564.236 47.53,564.592 47.52,564.964 47.506,565.321 
		47.494,565.68 47.494,566.049 47.481,566.404 47.481,566.773 47.481,567.146 47.481,567.515 47.481,567.884 47.481,568.256 
		47.494,568.611 47.494,568.98 47.506,569.348 47.52,569.708 47.52,570.077 47.53,570.446 47.543,570.805 47.57,571.174 
		47.592,571.516 47.605,571.875 47.632,572.23 47.645,572.575 47.671,572.919 47.698,573.262 47.721,573.607 47.748,573.939 
		47.774,574.27 47.81,574.602 47.849,574.921 47.875,575.238 47.915,575.561 47.952,575.864 47.987,576.17 48.027,576.463 
		48.067,576.756 48.106,577.035 48.156,577.319 48.191,577.587 48.245,577.853 48.284,578.109 48.333,578.363 48.383,578.604 
		48.436,578.848 48.489,579.078 48.524,579.305 48.574,579.51 48.627,579.728 48.693,579.919 48.742,580.122 48.805,580.3 
		48.857,580.469 48.92,580.633 48.969,580.798 49.035,580.939 49.088,581.08 49.15,581.219 49.213,581.334 49.266,581.436 
		49.328,581.549 49.378,581.641 49.443,581.717 49.506,581.805 49.569,581.867 49.635,581.921 49.697,581.957 49.76,581.996 
		49.825,582.036 49.878,582.05 49.941,582.062 50.004,582.062 50.069,582.05 50.132,582.022 50.194,581.982 50.247,581.943 
		50.323,581.895 50.372,581.845 50.438,581.779 50.488,581.689 50.563,581.602 50.616,581.512 50.678,581.396 50.731,581.282 
		50.781,581.153 50.847,581.029 50.909,580.886 50.958,580.735 51.011,580.567 51.064,580.403 51.126,580.224 51.176,580.046 
		51.229,579.856 51.278,579.651 51.318,579.434 51.38,579.217 51.419,578.986 51.469,578.76 51.508,578.518 51.558,578.275 
		51.597,578.019 51.65,577.751 51.687,577.483 51.723,577.215 51.762,576.937 51.802,576.641 51.828,576.351 51.865,576.054 
		51.891,575.738 51.927,575.429 51.966,575.126 51.993,574.806 52.02,574.473 52.045,574.157 52.069,573.812 52.082,573.479 
		52.108,573.136 52.118,572.794 52.144,572.448 52.158,572.09 52.184,571.746 52.197,571.377 52.21,571.021 52.21,570.663 
		52.223,570.303 52.223,569.934 52.237,569.578 52.237,569.21 52.237,568.842 	"/>
	<polyline fill="none" stroke="#232323" stroke-miterlimit="10" points="63.327,568.749 63.327,568.394 63.327,568.024 
		63.313,567.655 63.313,567.286 63.313,566.914 63.3,566.545 63.288,566.187 63.278,565.817 63.264,565.448 63.251,565.093 
		63.238,564.734 63.225,564.378 63.198,564.02 63.185,563.678 63.158,563.32 63.136,562.976 63.109,562.629 63.086,562.286 
		63.06,561.958 63.02,561.625 62.994,561.292 62.968,560.975 62.931,560.653 62.892,560.337 62.856,560.03 62.83,559.737 
		62.776,559.43 62.741,559.15 62.701,558.857 62.665,558.578 62.612,558.308 62.572,558.04 62.523,557.786 62.473,557.53 
		62.421,557.29 62.381,557.047 62.332,556.819 62.283,556.602 62.217,556.385 62.164,556.167 62.115,555.976 62.065,555.784 
		62.012,555.606 61.95,555.429 61.901,555.265 61.834,555.11 61.782,554.955 61.719,554.816 61.657,554.688 61.604,554.559 
		61.542,554.46 61.479,554.342 61.413,554.257 61.364,554.178 61.301,554.102 61.235,554.039 61.172,553.974 61.11,553.938 
		61.044,553.897 60.992,553.874 60.929,553.861 60.866,553.848 60.84,553.848 	"/>
	<polyline fill="none" stroke="#232323" stroke-miterlimit="10" points="61.058,581.971 61.097,581.971 61.159,581.957 
		61.222,581.932 61.288,581.908 61.337,581.867 61.4,581.818 61.465,581.754 61.528,581.678 61.578,581.602 61.644,581.525 
		61.709,581.424 61.759,581.322 61.822,581.207 61.874,581.08 61.937,580.948 62,580.798 62.052,580.66 62.101,580.491 
		62.154,580.313 62.204,580.149 62.27,579.958 62.319,579.764 62.369,579.563 62.408,579.358 62.46,579.127 62.51,578.913 
		62.559,578.67 62.599,578.427 62.652,578.186 62.691,577.929 62.727,577.675 62.776,577.404 62.816,577.128 62.856,576.846 
		62.882,576.564 62.918,576.259 62.955,575.966 62.98,575.659 63.02,575.357 63.047,575.033 63.086,574.718 63.109,574.398 
		63.136,574.065 63.149,573.736 63.172,573.393 63.198,573.061 63.211,572.702 63.238,572.358 63.251,572.017 63.264,571.658 
		63.278,571.298 63.288,570.942 63.3,570.587 63.313,570.218 63.313,569.859 63.327,569.49 63.327,569.121 63.327,568.763 	"/>
	<line fill="none" stroke="#232323" stroke-miterlimit="10" x1="295.063" y1="543.66" x2="287.808" y2="541.074"/>
	<line fill="none" stroke="#232323" stroke-miterlimit="10" x1="316.188" y1="543.505" x2="308.934" y2="540.907"/>
	<line fill="none" stroke="#232323" stroke-miterlimit="10" x1="316.188" y1="543.505" x2="295.063" y2="543.674"/>
	<line fill="none" stroke="#232323" stroke-miterlimit="10" x1="295.024" y1="557.927" x2="287.771" y2="555.336"/>
	<line fill="none" stroke="#232323" stroke-miterlimit="10" x1="295.063" y1="543.66" x2="295.024" y2="557.927"/>
	<line fill="none" stroke="#232323" stroke-miterlimit="10" x1="295.024" y1="557.927" x2="316.137" y2="557.761"/>
	<line fill="none" stroke="#232323" stroke-miterlimit="10" x1="316.15" y1="557.761" x2="316.188" y2="543.505"/>
	<line fill="none" stroke="#232323" stroke-miterlimit="10" x1="86.004" y1="545.255" x2="107.131" y2="545.086"/>
	<line fill="none" stroke="#232323" stroke-miterlimit="10" x1="107.131" y1="545.1" x2="107.091" y2="559.355"/>
	<line fill="none" stroke="#232323" stroke-miterlimit="10" x1="107.091" y1="559.355" x2="85.968" y2="559.52"/>
	<line fill="none" stroke="#232323" stroke-miterlimit="10" x1="85.968" y1="559.52" x2="86.004" y2="545.255"/>
	<line fill="none" stroke="#232323" stroke-miterlimit="10" x1="85.968" y1="559.52" x2="42.494" y2="543.992"/>
	<line fill="none" stroke="#232323" stroke-miterlimit="10" x1="42.533" y1="529.725" x2="42.494" y2="543.992"/>
	<line fill="none" stroke="#232323" stroke-miterlimit="10" x1="86.004" y1="545.255" x2="42.533" y2="529.725"/>
	<line fill="none" stroke="#232323" stroke-miterlimit="10" x1="49.786" y1="529.674" x2="42.533" y2="529.725"/>
	<line fill="none" stroke="#232323" stroke-miterlimit="10" x1="107.131" y1="545.1" x2="99.891" y2="542.501"/>
	<line fill="none" stroke="#232323" stroke-miterlimit="10" x1="87.753" y1="410.242" x2="41.551" y2="393.743"/>
	<line fill="none" stroke="#232323" stroke-miterlimit="10" x1="87.717" y1="424.508" x2="87.753" y2="410.242"/>
	<line fill="none" stroke="#232323" stroke-miterlimit="10" x1="87.717" y1="424.508" x2="41.512" y2="408.013"/>
	<line fill="none" stroke="#232323" stroke-miterlimit="10" x1="41.512" y1="408.013" x2="41.551" y2="393.743"/>
	<line fill="none" stroke="#232323" stroke-miterlimit="10" x1="108.876" y1="410.091" x2="108.839" y2="424.343"/>
	<line fill="none" stroke="#232323" stroke-miterlimit="10" x1="108.839" y1="424.343" x2="87.717" y2="424.508"/>
	<line fill="none" stroke="#232323" stroke-miterlimit="10" x1="87.753" y1="410.242" x2="108.876" y2="410.091"/>
	<line fill="none" stroke="#232323" stroke-miterlimit="10" x1="41.551" y1="393.743" x2="55.333" y2="393.645"/>
	<line fill="none" stroke="#232323" stroke-miterlimit="10" x1="317.884" y1="422.762" x2="317.924" y2="408.497"/>
	<line fill="none" stroke="#232323" stroke-miterlimit="10" x1="296.761" y1="422.914" x2="317.884" y2="422.749"/>
	<line fill="none" stroke="#232323" stroke-miterlimit="10" x1="296.797" y1="408.652" x2="296.761" y2="422.914"/>
	<line fill="none" stroke="#232323" stroke-miterlimit="10" x1="317.924" y1="408.497" x2="296.797" y2="408.661"/>
	<line fill="none" stroke="#232323" stroke-miterlimit="10" x1="296.797" y1="408.652" x2="279.725" y2="401.827"/>
	<line fill="none" stroke="#232323" stroke-miterlimit="10" x1="296.761" y1="422.914" x2="293.217" y2="421.655"/>
	<line fill="none" stroke="#232323" stroke-miterlimit="10" x1="317.924" y1="408.497" x2="299.665" y2="401.968"/>
	<line fill="none" stroke="#232323" stroke-miterlimit="10" x1="157.196" y1="256.68" x2="157.209" y2="241.941"/>
	<line fill="none" stroke="#232323" stroke-miterlimit="10" x1="157.196" y1="256.68" x2="140.56" y2="257.215"/>
	<line fill="none" stroke="#232323" stroke-miterlimit="10" x1="140.573" y1="242.477" x2="140.56" y2="257.215"/>
	<line fill="none" stroke="#232323" stroke-miterlimit="10" x1="140.56" y1="257.215" x2="137.704" y2="252.944"/>
	<line fill="none" stroke="#232323" stroke-miterlimit="10" x1="137.704" y1="252.944" x2="137.704" y2="242.566"/>
	<polyline fill="none" stroke="#232323" stroke-miterlimit="10" points="116.057,177.012 116.132,177.406 116.194,177.826 
		116.273,178.248 116.35,178.682 116.413,179.127 116.479,179.574 116.527,180.007 116.591,180.454 116.656,180.899 
		116.705,181.359 116.755,181.831 116.808,182.29 116.848,182.774 116.896,183.258 116.946,183.755 116.986,184.252 
		117.025,184.737 117.065,185.234 117.102,185.745 117.127,186.254 117.164,186.777 117.203,187.3 117.229,187.823 117.256,188.358 
		117.279,188.894 117.292,189.429 117.319,189.951 117.331,190.475 117.341,191.01 117.355,191.558 117.367,192.105 
		117.381,192.655 117.381,193.202 117.395,193.75 117.395,194.298 117.395,194.86 	"/>
	<polyline fill="none" stroke="#232323" stroke-miterlimit="10" points="138.188,225.445 138.547,225.585 138.609,225.598 	"/>
	<line fill="none" stroke="#232323" stroke-miterlimit="10" x1="117.395" y1="194.86" x2="117.395" y2="195.307"/>
	<line fill="none" stroke="#232323" stroke-miterlimit="10" x1="115.701" y1="193.344" x2="115.688" y2="194.694"/>
	<line fill="none" stroke="#232323" stroke-miterlimit="10" x1="98.208" y1="166.799" x2="100.122" y2="167.487"/>
	<line fill="none" stroke="#232323" stroke-miterlimit="10" x1="98.208" y1="166.799" x2="98.257" y2="150.136"/>
	<polyline fill="none" stroke="#232323" stroke-miterlimit="10" points="113.57,155.593 113.57,156.104 113.583,156.613 
		113.583,157.11 113.593,157.619 113.606,158.117 113.62,158.614 113.646,159.111 113.659,159.609 113.685,160.105 113.712,160.603 
		113.735,161.088 113.761,161.571 113.798,162.045 113.823,162.528 113.863,162.988 113.902,163.459 113.939,163.918 
		113.979,164.378 114.015,164.823 114.068,165.269 114.12,165.703 114.156,166.137 114.206,166.557 114.258,166.977 
		114.311,167.386 114.361,167.78 114.423,168.176 114.489,168.558 114.539,168.942 114.601,169.311 114.667,169.668 114.73,170.012 
			"/>
	<line fill="none" stroke="#232323" stroke-miterlimit="10" x1="114.73" y1="170.012" x2="116.057" y2="177.012"/>
	<polyline fill="none" stroke="#232323" stroke-miterlimit="10" points="115.701,194.694 115.701,195.536 115.737,196.39 
		115.788,197.23 115.853,198.073 115.955,198.913 116.07,199.743 116.208,200.583 116.374,201.414 116.552,202.229 116.755,203.043 
		116.972,203.861 117.229,204.664 117.497,205.466 117.776,206.257 118.083,207.036 118.416,207.813 118.757,208.577 
		119.126,209.33 119.509,210.083 119.917,210.809 120.338,211.536 120.787,212.25 121.245,212.938 121.729,213.626 122.227,214.302 
		122.75,214.964 123.27,215.615 123.82,216.241 124.394,216.865 124.967,217.464 125.565,218.037 126.179,218.61 126.802,219.16 
		127.44,219.694 128.093,220.217 128.765,220.715 129.443,221.199 130.131,221.659 130.833,222.116 131.558,222.539 
		132.286,222.945 133.013,223.328 133.765,223.697 134.529,224.055 135.293,224.374 136.069,224.679 136.695,224.921 	"/>
	<line fill="none" stroke="#232323" stroke-miterlimit="10" x1="112.54" y1="43.529" x2="113.558" y2="155.593"/>
	<line fill="none" stroke="#232323" stroke-miterlimit="10" x1="98.257" y1="150.124" x2="98.577" y2="34.784"/>
	<polyline fill="none" stroke="#232323" stroke-miterlimit="10" points="112.371,39.718 112.397,40.049 112.421,40.407 
		112.434,40.751 112.461,41.108 112.487,41.464 112.5,41.821 112.513,42.165 112.513,42.498 112.526,42.854 112.54,43.187 
		112.54,43.529 	"/>
	<line fill="none" stroke="#232323" stroke-miterlimit="10" x1="170.431" y1="29.417" x2="114.947" y2="29.85"/>
	<polyline fill="none" stroke="#232323" stroke-miterlimit="10" points="112.421,39.68 112.411,39.692 112.411,39.705 
		112.397,39.718 112.385,39.718 112.385,39.718 	"/>
	<polyline fill="none" stroke="#232323" stroke-miterlimit="10" points="112.193,32.095 112.242,32.146 112.295,32.195 
		112.349,32.26 112.397,32.337 112.434,32.426 112.487,32.528 112.526,32.63 112.562,32.745 112.588,32.872 112.625,32.999 
		112.651,33.152 112.678,33.306 112.704,33.472 112.718,33.636 112.743,33.816 112.752,34.021 112.766,34.224 112.766,34.44 
		112.78,34.658 112.78,34.873 112.78,35.104 112.78,35.333 112.78,35.575 112.766,35.816 112.752,36.099 112.743,36.379 
		112.729,36.672 112.704,36.978 112.69,37.271 112.665,37.577 112.625,37.896 112.588,38.252 112.549,38.597 112.513,38.954 
		112.473,39.323 112.421,39.692 	"/>
	<polyline fill="none" stroke="#232323" stroke-miterlimit="10" points="112.193,32.095 112.242,31.902 112.295,31.725 
		112.371,31.547 112.461,31.38 112.549,31.214 112.665,31.049 112.766,30.896 112.907,30.756 113.034,30.616 113.188,30.487 
		113.33,30.374 113.494,30.259 113.659,30.17 113.837,30.092 114.015,30.016 114.192,29.953 114.373,29.915 114.564,29.876 
		114.756,29.85 114.947,29.85 	"/>
	<line fill="none" stroke="#232323" stroke-miterlimit="10" x1="98.577" y1="34.784" x2="100.807" y2="23.975"/>
	<line fill="none" stroke="#232323" stroke-miterlimit="10" x1="100.793" y1="23.975" x2="112.193" y2="32.095"/>
	<path fill="none" stroke="#232323" stroke-miterlimit="10" d="M103.409,21.716c0.04,0,0.076,0,0.115,0"/>
	<polyline fill="none" stroke="#232323" stroke-miterlimit="10" points="103.409,21.716 103.244,21.729 103.089,21.742 
		102.925,21.78 102.757,21.818 102.592,21.869 102.441,21.946 102.289,22.011 102.134,22.1 101.993,22.176 101.841,22.291 
		101.703,22.404 101.574,22.544 101.446,22.673 101.33,22.813 101.229,22.953 101.126,23.119 101.037,23.286 100.961,23.45 
		100.899,23.628 100.833,23.794 100.793,23.975 	"/>
	<line fill="none" stroke="#232323" stroke-miterlimit="10" x1="103.537" y1="21.716" x2="157.489" y2="21.296"/>
	<path fill="none" stroke="#232323" stroke-miterlimit="10" d="M158.942,21.716c-0.396-0.255-0.867-0.396-1.35-0.42"/>
	<path fill="none" stroke="#232323" stroke-miterlimit="10" d="M157.489,21.296c0.04,0,0.064,0,0.104,0"/>
	<line fill="none" stroke="#232323" stroke-miterlimit="10" x1="103.409" y1="21.716" x2="157.592" y2="21.296"/>
	<line fill="none" stroke="#232323" stroke-miterlimit="10" x1="293.572" y1="203.898" x2="179.621" y2="204.767"/>
	<line fill="none" stroke="#232323" stroke-miterlimit="10" x1="117.42" y1="205.238" x2="94.868" y2="205.402"/>
	<line fill="none" stroke="#232323" stroke-miterlimit="10" x1="293.572" y1="204.078" x2="293.572" y2="203.898"/>
	<path fill="none" stroke="#232323" stroke-miterlimit="10" d="M87.052,195.663c-0.026,0.116-0.04,0.244-0.04,0.357"/>
	<line fill="none" stroke="#232323" stroke-miterlimit="10" x1="71.433" y1="170.676" x2="87.012" y2="196.02"/>
	<line fill="none" stroke="#232323" stroke-miterlimit="10" x1="87.012" y1="196.02" x2="86.989" y2="205.48"/>
	<line fill="none" stroke="#232323" stroke-miterlimit="10" x1="86.989" y1="205.466" x2="69.727" y2="199.295"/>
	<line fill="none" stroke="#232323" stroke-miterlimit="10" x1="69.727" y1="199.309" x2="69.803" y2="170.089"/>
	<line fill="none" stroke="#232323" stroke-miterlimit="10" x1="69.803" y1="170.089" x2="71.433" y2="170.676"/>
	<path fill="none" stroke="#232323" stroke-miterlimit="10" d="M317.91,194.261c0-0.126-0.014-0.242-0.037-0.357"/>
	<line fill="none" stroke="#232323" stroke-miterlimit="10" x1="317.884" y1="203.707" x2="317.91" y2="194.261"/>
	<line fill="none" stroke="#232323" stroke-miterlimit="10" x1="317.884" y1="203.707" x2="179.621" y2="204.767"/>
	<line fill="none" stroke="#232323" stroke-miterlimit="10" x1="117.42" y1="205.238" x2="86.989" y2="205.48"/>
	<polyline fill="none" stroke="#232323" stroke-miterlimit="10" points="302.089,168.024 302.063,167.972 301.974,167.858 
		301.872,167.729 301.757,167.641 301.642,167.538 301.517,167.463 301.375,167.398 301.246,167.348 301.108,167.31 
		300.967,167.283 300.838,167.259 300.713,167.259 	"/>
	<polyline fill="none" stroke="#232323" stroke-miterlimit="10" points="71.755,168.495 71.601,168.495 71.433,168.509 
		71.281,168.533 71.117,168.558 70.952,168.61 70.833,168.66 70.708,168.712 70.592,168.775 70.491,168.852 70.379,168.928 
		70.273,169.018 70.185,169.12 70.096,169.221 70.033,169.324 69.97,169.439 69.918,169.552 69.865,169.655 69.842,169.771 
		69.815,169.885 69.803,169.987 69.803,170.089 	"/>
	<line fill="none" stroke="#232323" stroke-miterlimit="10" x1="299.323" y1="166.761" x2="300.699" y2="167.259"/>
	<path fill="none" stroke="#232323" stroke-miterlimit="10" d="M299.794,166.826c-0.155-0.052-0.307-0.078-0.459-0.052"/>
	<polyline fill="none" stroke="#232323" stroke-miterlimit="10" points="91.92,208.08 91.834,208.08 91.755,208.093 91.667,208.106 
		91.59,208.119 91.501,208.145 91.426,208.157 91.347,208.182 91.262,208.222 91.183,208.246 91.12,208.284 91.031,208.335 
		90.965,208.373 90.902,208.424 90.826,208.476 90.76,208.526 90.698,208.591 90.648,208.653 90.583,208.717 90.533,208.781 
		90.481,208.846 90.432,208.921 90.392,208.999 90.353,209.062 90.316,209.15 90.279,209.228 90.254,209.306 90.214,209.381 
		90.201,209.47 90.174,209.545 90.161,209.636 90.148,209.726 90.148,209.801 90.148,209.891 	"/>
	<line fill="none" stroke="#232323" stroke-miterlimit="10" x1="90.148" y1="209.891" x2="90.036" y2="249.96"/>
	<line fill="none" stroke="#232323" stroke-miterlimit="10" x1="96.169" y1="208.029" x2="91.92" y2="208.08"/>
	<polyline fill="none" stroke="#232323" stroke-miterlimit="10" points="38.505,191.443 38.505,191.368 38.518,191.276 
		38.528,191.188 38.542,191.112 38.567,191.021 38.581,190.946 38.606,190.856 38.646,190.781 38.67,190.704 38.709,190.626 
		38.745,190.55 38.798,190.475 38.851,190.397 38.9,190.333 38.949,190.27 39.002,190.206 39.064,190.142 39.128,190.092 
		39.193,190.029 39.256,189.977 39.318,189.938 39.41,189.889 39.473,189.849 39.549,189.812 39.628,189.773 39.7,189.747 
		39.793,189.722 39.868,189.697 39.957,189.671 40.033,189.658 40.109,189.645 40.201,189.633 40.29,189.633 	"/>
	<line fill="none" stroke="#232323" stroke-miterlimit="10" x1="38.403" y1="231.512" x2="38.505" y2="191.443"/>
	<line fill="none" stroke="#232323" stroke-miterlimit="10" x1="96.676" y1="208.119" x2="96.676" y2="208.119"/>
	<line fill="none" stroke="#232323" stroke-miterlimit="10" x1="44.522" y1="189.582" x2="69.727" y2="198.582"/>
	<line fill="none" stroke="#232323" stroke-miterlimit="10" x1="40.29" y1="189.633" x2="44.535" y2="189.582"/>
	<line fill="none" stroke="#232323" stroke-miterlimit="10" x1="91.373" y1="251.898" x2="91.373" y2="251.898"/>
	<line fill="none" stroke="#232323" stroke-miterlimit="10" x1="39.74" y1="233.45" x2="39.74" y2="233.45"/>
	<line fill="none" stroke="#232323" stroke-miterlimit="10" x1="38.505" y1="191.443" x2="38.491" y2="191.443"/>
	<line fill="none" stroke="#232323" stroke-miterlimit="10" x1="91.92" y1="274.697" x2="91.986" y2="252.664"/>
	<line fill="none" stroke="#232323" stroke-miterlimit="10" x1="40.863" y1="256.449" x2="40.913" y2="234.42"/>
	<line fill="none" stroke="#232323" stroke-miterlimit="10" x1="296.096" y1="208.018" x2="267.769" y2="249.095"/>
	<line fill="none" stroke="#232323" stroke-miterlimit="10" x1="289.225" y1="248.838" x2="289.211" y2="255.214"/>
	<polyline fill="none" stroke="#232323" stroke-miterlimit="10" points="267.769,249.095 267.716,249.17 267.68,249.234 
		267.64,249.31 267.604,249.387 267.563,249.463 267.538,249.552 267.512,249.629 267.488,249.705 267.476,249.783 267.462,249.872 
		267.448,249.947 267.448,250.036 267.448,250.126 	"/>
	<line fill="none" stroke="#232323" stroke-miterlimit="10" x1="267.448" y1="250.126" x2="267.426" y2="256.169"/>
	<polyline fill="none" stroke="#232323" stroke-miterlimit="10" points="289.073,256.004 289.085,256.004 289.099,255.992 
		289.109,255.978 289.109,255.965 289.121,255.952 289.135,255.927 289.135,255.903 289.148,255.876 289.161,255.85 
		289.172,255.812 289.172,255.774 289.186,255.723 289.186,255.685 289.197,255.634 289.197,255.596 289.197,255.545 
		289.211,255.481 289.211,255.43 289.211,255.378 289.211,255.328 289.211,255.263 289.211,255.214 	"/>
	<line fill="none" stroke="#232323" stroke-miterlimit="10" x1="223.685" y1="240.54" x2="267.426" y2="256.156"/>
	<polyline fill="none" stroke="#232323" stroke-miterlimit="10" points="298.977,206.474 298.861,206.474 298.749,206.485 
		298.631,206.499 298.52,206.512 298.404,206.525 298.289,206.55 298.173,206.577 298.058,206.615 297.945,206.641 297.841,206.679 
		297.729,206.716 297.613,206.768 297.511,206.805 297.409,206.87 297.308,206.921 297.206,206.983 297.103,207.036 
		297.001,207.099 296.912,207.176 296.81,207.252 296.721,207.315 296.646,207.404 296.543,207.48 296.465,207.558 296.392,207.647 
		296.299,207.736 296.236,207.826 296.16,207.927 296.096,208.018 	"/>
	<line fill="none" stroke="#232323" stroke-miterlimit="10" x1="293.302" y1="204.447" x2="298.977" y2="206.474"/>
	<polyline fill="none" stroke="#232323" stroke-miterlimit="10" points="315.897,206.818 315.818,206.792 315.666,206.743 
		315.587,206.716 	"/>
	<line fill="none" stroke="#232323" stroke-miterlimit="10" x1="277.14" y1="295.746" x2="277.202" y2="271.663"/>
	<polyline fill="none" stroke="#232323" stroke-miterlimit="10" points="277.14,295.746 277.14,295.834 277.126,295.91 277.112,296 
		277.1,296.089 277.086,296.166 277.063,296.243 277.038,296.319 276.998,296.408 276.971,296.485 276.935,296.561 276.895,296.636 
		276.86,296.714 276.807,296.778 276.754,296.841 276.705,296.918 276.642,296.983 276.59,297.032 276.514,297.096 276.451,297.147 
		276.385,297.198 276.322,297.25 276.26,297.3 276.167,297.338 276.105,297.378 276.029,297.403 275.939,297.44 275.865,297.467 
		275.786,297.492 275.699,297.504 275.621,297.518 275.532,297.529 275.457,297.542 275.367,297.542 	"/>
	<line fill="none" stroke="#232323" stroke-miterlimit="10" x1="275.367" y1="297.542" x2="262.133" y2="297.644"/>
	<polyline fill="none" stroke="#232323" stroke-miterlimit="10" points="262.133,297.644 261.968,297.644 261.801,297.631 
		261.635,297.631 261.471,297.62 261.306,297.593 261.139,297.582 260.986,297.556 260.819,297.518 260.654,297.492 260.49,297.454 
		260.335,297.416 260.183,297.378 260.015,297.327 259.864,297.276 259.712,297.224 259.557,297.161 259.405,297.109 
		259.238,297.045 259.1,296.969 258.948,296.894 258.807,296.816 258.651,296.739 258.525,296.65 258.371,296.574 258.243,296.485 
		258.104,296.383 257.967,296.294 257.835,296.192 257.71,296.089 257.581,295.988 257.452,295.872 257.327,295.757 
		257.212,295.655 257.097,295.528 256.985,295.415 256.879,295.286 256.767,295.159 256.662,295.031 256.563,294.904 
		256.458,294.764 256.372,294.636 256.279,294.495 256.181,294.355 256.102,294.216 256.014,294.075 255.938,293.923 
		255.861,293.781 255.785,293.629 255.72,293.476 255.658,293.323 255.594,293.17 255.528,293.017 255.476,292.852 255.427,292.697 
		255.377,292.546 255.337,292.379 255.298,292.213 255.262,292.048 255.235,291.895 255.199,291.729 255.187,291.564 
		255.147,291.398 255.134,291.232 255.12,291.067 255.107,290.9 255.107,290.734 255.107,290.569 	"/>
	<line fill="none" stroke="#232323" stroke-miterlimit="10" x1="255.222" y1="251.797" x2="255.107" y2="290.569"/>
	<line fill="none" stroke="#232323" stroke-miterlimit="10" x1="205.134" y1="272.708" x2="205.219" y2="240.667"/>
	<polyline fill="none" stroke="#232323" stroke-miterlimit="10" points="205.134,272.708 205.134,272.887 205.147,273.04 
		205.147,273.218 205.16,273.384 205.183,273.549 205.196,273.715 205.219,273.88 205.246,274.046 205.286,274.213 205.325,274.365 
		205.362,274.53 205.414,274.697 205.45,274.85 205.503,275.017 205.555,275.167 205.615,275.321 205.681,275.474 205.746,275.627 
		205.809,275.78 205.885,275.934 205.96,276.074 206.036,276.227 206.129,276.367 206.214,276.506 206.293,276.647 206.395,276.788 
		206.484,276.928 206.586,277.055 206.688,277.183 206.791,277.31 206.906,277.437 207.018,277.566 207.124,277.681 
		207.248,277.794 207.364,277.91 207.493,278.023 207.604,278.126 207.733,278.24 207.86,278.343 207.986,278.432 208.128,278.534 
		208.27,278.636 208.407,278.712 208.537,278.814 208.691,278.892 208.83,278.967 208.981,279.045 209.123,279.12 209.278,279.185 
		209.429,279.249 209.58,279.312 209.735,279.375 209.771,279.389 	"/>
	<polyline fill="none" stroke="#232323" stroke-miterlimit="10" points="293.025,251.35 292.834,251.16 292.653,250.982 
		292.462,250.789 292.271,250.598 292.08,250.42 291.875,250.215 291.684,250.025 291.48,249.833 291.303,249.667 291.134,249.502 
		290.956,249.336 290.778,249.17 290.614,249.017 290.449,248.864 290.294,248.724 290.232,248.659 	"/>
	<line fill="none" stroke="#232323" stroke-miterlimit="10" x1="293.025" y1="251.35" x2="314.783" y2="251.184"/>
	<line fill="none" stroke="#232323" stroke-miterlimit="10" x1="275.279" y1="362.156" x2="275.457" y2="297.631"/>
	<line fill="none" stroke="#232323" stroke-miterlimit="10" x1="250.482" y1="360.829" x2="253.414" y2="362.166"/>
	<line fill="none" stroke="#232323" stroke-miterlimit="10" x1="253.592" y1="362.18" x2="275.279" y2="362.156"/>
	<polyline fill="none" stroke="#232323" stroke-miterlimit="10" points="250.39,360.767 250.403,360.776 250.403,360.776 
		250.417,360.803 250.43,360.803 250.457,360.816 250.482,360.829 	"/>
	<line fill="none" stroke="#232323" stroke-miterlimit="10" x1="49.786" y1="362.024" x2="50.069" y2="264.89"/>
	<polyline fill="none" stroke="#232323" stroke-miterlimit="10" points="49.773,362.024 49.786,362.024 49.786,362.038 	"/>
	<path fill="none" stroke="#232323" stroke-miterlimit="10" d="M50.069,264.865l-0.026,0.011l0,0c0.013,0,0.026,0.014,0.026,0.014"
		/>
	<polyline fill="none" stroke="#232323" stroke-miterlimit="10" points="55.613,363.761 55.537,363.761 55.484,363.761 
		55.422,363.761 55.359,363.761 55.293,363.761 55.23,363.761 55.168,363.761 55.115,363.761 55.053,363.761 54.99,363.761 
		54.938,363.761 54.885,363.748 54.836,363.748 54.799,363.748 54.746,363.748 54.707,363.748 54.671,363.734 54.631,363.734 
		54.595,363.734 54.568,363.725 54.542,363.725 54.529,363.725 54.503,363.725 54.489,363.711 	"/>
	<line fill="none" stroke="#232323" stroke-miterlimit="10" x1="54.489" y1="363.711" x2="54.773" y2="266.573"/>
	<line fill="none" stroke="#232323" stroke-miterlimit="10" x1="74.048" y1="363.619" x2="55.613" y2="363.761"/>
	<line fill="none" stroke="#232323" stroke-miterlimit="10" x1="288.154" y1="370.8" x2="284.165" y2="369.205"/>
	<line fill="none" stroke="#232323" stroke-miterlimit="10" x1="288.154" y1="370.812" x2="288.229" y2="370.835"/>
	<line fill="none" stroke="#232323" stroke-miterlimit="10" x1="288.229" y1="370.835" x2="308.895" y2="370.685"/>
	<path fill="none" stroke="#232323" stroke-miterlimit="10" d="M308.908,370.685h0.052h0.063h0.062l0.065-0.014h0.053h0.049h0.05
		h0.054h0.049l0.039-0.014h0.05h0.04h0.025h0.037l0.025-0.013h0.027h0.022l0.014-0.014h0.013l0,0c0.014,0,0.014,0,0.014,0"/>
	<line fill="none" stroke="#232323" stroke-miterlimit="10" x1="74.318" y1="273.549" x2="74.318" y2="273.549"/>
	<polyline fill="none" stroke="#232323" stroke-miterlimit="10" points="74.318,273.524 74.305,273.538 74.305,273.549 
		74.318,273.549 	"/>
	<line fill="none" stroke="#232323" stroke-miterlimit="10" x1="74.035" y1="370.694" x2="74.318" y2="273.549"/>
	<polyline fill="none" stroke="#232323" stroke-miterlimit="10" points="74.021,370.685 74.035,370.694 74.035,370.694 	"/>
	<line fill="none" stroke="#232323" stroke-miterlimit="10" x1="74.035" y1="370.694" x2="74.035" y2="370.694"/>
	<polyline fill="none" stroke="#232323" stroke-miterlimit="10" points="79.861,372.43 79.786,372.43 79.733,372.43 79.671,372.43 
		79.608,372.43 79.542,372.43 79.479,372.43 79.417,372.43 79.364,372.417 79.302,372.417 79.239,372.417 79.186,372.417 
		79.134,372.417 79.084,372.417 79.048,372.403 78.996,372.403 78.956,372.403 78.917,372.403 78.88,372.403 78.844,372.394 
		78.817,372.394 78.792,372.394 78.778,372.38 78.765,372.38 78.752,372.38 	"/>
	<line fill="none" stroke="#232323" stroke-miterlimit="10" x1="78.738" y1="372.38" x2="79.021" y2="275.232"/>
	<line fill="none" stroke="#232323" stroke-miterlimit="10" x1="100.527" y1="372.265" x2="79.861" y2="372.43"/>
	<line fill="none" stroke="#232323" stroke-miterlimit="10" x1="100.527" y1="372.239" x2="104.404" y2="372.202"/>
	<polyline fill="none" stroke="#232323" stroke-miterlimit="10" points="104.404,372.202 104.555,372.202 104.697,372.202 
		104.852,372.202 104.99,372.202 105.128,372.202 105.27,372.189 105.425,372.189 105.549,372.189 105.692,372.189 105.833,372.176 
		105.972,372.176 106.099,372.176 106.242,372.176 106.353,372.163 106.496,372.163 106.61,372.163 106.736,372.15 106.851,372.15 
		106.979,372.137 107.091,372.137 107.196,372.137 107.309,372.123 107.424,372.123 107.525,372.11 107.627,372.11 107.73,372.097 
		107.819,372.084 107.922,372.084 108.001,372.071 108.1,372.071 108.179,372.061 108.253,372.048 108.329,372.048 108.408,372.035 
		108.467,372.035 108.534,372.021 108.61,372.008 108.662,372.008 108.712,371.998 108.765,371.998 108.813,371.985 
		108.864,371.973 108.903,371.973 108.943,371.959 108.969,371.945 108.995,371.945 109.019,371.932 109.044,371.919 
		109.058,371.906 109.067,371.906 109.067,371.893 109.081,371.88 109.081,371.88 	"/>
	<line fill="none" stroke="#232323" stroke-miterlimit="10" x1="78.663" y1="401.968" x2="79.11" y2="245.026"/>
	<line fill="none" stroke="#232323" stroke-miterlimit="10" x1="54.786" y1="262.034" x2="54.477" y2="367.65"/>
	<polyline fill="none" stroke="#232323" stroke-miterlimit="10" points="54.477,367.65 54.477,367.75 54.477,367.868 
		54.477,367.979 54.489,368.095 54.489,368.211 54.489,368.312 54.489,368.428 54.503,368.539 54.503,368.645 54.516,368.758 
		54.516,368.859 54.529,368.962 54.542,369.076 54.542,369.165 54.556,369.28 54.568,369.369 54.568,369.472 54.582,369.574 
		54.595,369.663 54.608,369.752 54.618,369.841 54.631,369.93 54.645,370.009 54.657,370.098 54.671,370.174 54.681,370.249 
		54.694,370.312 54.72,370.391 54.733,370.453 54.746,370.517 54.76,370.582 54.786,370.645 54.799,370.694 54.822,370.733 
		54.836,370.786 54.849,370.825 54.872,370.862 54.885,370.911 54.911,370.938 54.925,370.964 54.938,370.99 54.964,371.017 
		54.977,371.026 55.004,371.04 55.014,371.04 	"/>
	<line fill="none" stroke="#232323" stroke-miterlimit="10" x1="55.014" y1="371.04" x2="73.475" y2="377.644"/>
	<polyline fill="none" stroke="#232323" stroke-miterlimit="10" points="73.475,377.644 73.501,377.644 73.514,377.644 
		73.538,377.644 73.551,377.631 73.563,377.631 73.59,377.604 73.6,377.591 73.626,377.568 73.64,377.542 73.666,377.519 
		73.679,377.479 73.692,377.439 73.719,377.399 73.729,377.351 73.741,377.301 73.755,377.249 73.781,377.196 73.792,377.146 
		73.817,377.084 73.831,377.005 73.844,376.942 73.857,376.88 73.871,376.801 73.883,376.715 73.896,376.636 73.91,376.56 
		73.923,376.472 73.933,376.382 73.933,376.293 73.946,376.204 73.959,376.103 73.972,376.01 73.972,375.911 73.985,375.81 
		73.985,375.707 73.995,375.605 73.995,375.503 74.009,375.388 74.009,375.285 74.009,375.184 74.021,375.068 74.021,374.956 
		74.021,374.837 74.021,374.738 74.021,374.623 	"/>
	<line fill="none" stroke="#232323" stroke-miterlimit="10" x1="74.021" y1="374.623" x2="74.328" y2="269.012"/>
	<polyline fill="none" stroke="#232323" stroke-miterlimit="10" points="74.328,269.023 74.328,268.909 74.328,268.794 
		74.328,268.679 74.318,268.563 74.318,268.462 74.318,268.348 74.318,268.232 74.305,268.119 74.305,268.017 74.292,267.915 
		74.292,267.8 74.278,267.697 74.278,267.583 74.266,267.494 74.266,267.391 74.239,267.289 74.239,267.187 74.226,267.098 
		74.213,266.996 74.199,266.907 74.187,266.818 74.177,266.729 74.164,266.652 74.15,266.573 74.137,266.483 74.124,266.406 
		74.113,266.344 74.088,266.266 74.074,266.202 74.061,266.139 74.048,266.075 74.021,266.024 74.009,265.96 73.995,265.922 
		73.972,265.871 73.959,265.833 73.933,265.795 73.923,265.757 73.896,265.731 73.883,265.693 73.871,265.667 73.844,265.642 
		73.831,265.629 73.804,265.616 73.792,265.616 	"/>
	<line fill="none" stroke="#232323" stroke-miterlimit="10" x1="73.792" y1="265.616" x2="55.333" y2="259.025"/>
	<polyline fill="none" stroke="#232323" stroke-miterlimit="10" points="55.333,259.025 55.319,259.011 55.293,259.011 
		55.28,259.025 55.257,259.025 55.244,259.038 55.218,259.052 55.204,259.063 55.181,259.089 55.168,259.114 55.142,259.141 
		55.129,259.178 55.115,259.216 55.089,259.267 55.076,259.305 55.066,259.357 55.053,259.407 55.026,259.458 55.014,259.509 
		54.99,259.586 54.977,259.651 54.964,259.713 54.95,259.778 54.938,259.867 54.925,259.944 54.911,260.02 54.898,260.109 
		54.885,260.184 54.872,260.275 54.872,260.364 54.862,260.453 54.849,260.555 54.836,260.644 54.836,260.746 54.822,260.848 
		54.822,260.95 54.812,261.052 54.812,261.167 54.799,261.268 54.799,261.37 54.799,261.485 54.786,261.587 54.786,261.703 
		54.786,261.818 54.786,261.92 54.786,262.034 	"/>
	<line fill="none" stroke="#232323" stroke-miterlimit="10" x1="79.11" y1="245.026" x2="50.142" y2="234.674"/>
	<line fill="none" stroke="#232323" stroke-miterlimit="10" x1="49.71" y1="391.629" x2="78.663" y2="401.981"/>
	<line fill="none" stroke="#232323" stroke-miterlimit="10" x1="50.142" y1="234.688" x2="49.697" y2="391.629"/>
	<line fill="none" stroke="#232323" stroke-miterlimit="10" x1="309.686" y1="370.773" x2="309.686" y2="370.631"/>
	<line fill="none" stroke="#232323" stroke-miterlimit="10" x1="109.645" y1="408.79" x2="132.974" y2="408.612"/>
	<line fill="none" stroke="#232323" stroke-miterlimit="10" x1="288.816" y1="407.413" x2="265.588" y2="407.591"/>
	<line fill="none" stroke="#232323" stroke-miterlimit="10" x1="87.944" y1="375.503" x2="318.051" y2="373.757"/>
	<line fill="none" stroke="#232323" stroke-miterlimit="10" x1="318.051" y1="373.757" x2="317.972" y2="401.827"/>
	<line fill="none" stroke="#232323" stroke-miterlimit="10" x1="317.958" y1="401.827" x2="87.856" y2="403.589"/>
	<line fill="none" stroke="#232323" stroke-miterlimit="10" x1="87.869" y1="403.589" x2="87.944" y2="375.503"/>
	<line fill="none" stroke="#232323" stroke-miterlimit="10" x1="41.551" y1="387.041" x2="49.71" y2="389.946"/>
	<line fill="none" stroke="#232323" stroke-miterlimit="10" x1="79.084" y1="400.45" x2="87.869" y2="403.576"/>
	<line fill="none" stroke="#232323" stroke-miterlimit="10" x1="41.627" y1="358.968" x2="41.551" y2="387.041"/>
	<line fill="none" stroke="#232323" stroke-miterlimit="10" x1="41.627" y1="358.968" x2="49.773" y2="361.873"/>
	<line fill="none" stroke="#232323" stroke-miterlimit="10" x1="55.053" y1="363.761" x2="74.021" y2="370.529"/>
	<line fill="none" stroke="#232323" stroke-miterlimit="10" x1="79.302" y1="372.417" x2="87.944" y2="375.503"/>
	<line fill="none" stroke="#232323" stroke-miterlimit="10" x1="250.493" y1="357.374" x2="109.121" y2="358.444"/>
	<line fill="none" stroke="#232323" stroke-miterlimit="10" x1="49.786" y1="358.902" x2="41.627" y2="358.968"/>
	<line fill="none" stroke="#232323" stroke-miterlimit="10" x1="309.277" y1="370.746" x2="318.051" y2="373.757"/>
	<line fill="none" stroke="#232323" stroke-miterlimit="10" x1="275.279" y1="359.106" x2="284.179" y2="362.156"/>
	<polyline fill="none" stroke="#232323" stroke-miterlimit="10" points="117.395,195.307 117.395,196.146 117.434,196.99 
		117.483,197.83 117.559,198.685 117.651,199.513 117.776,200.355 117.905,201.183 118.069,202.013 118.251,202.841 
		118.455,203.656 118.683,204.46 118.923,205.275 119.193,206.065 119.473,206.856 119.779,207.647 120.107,208.413 
		120.454,209.177 120.823,209.941 121.209,210.682 121.613,211.409 122.035,212.135 122.48,212.85 122.954,213.549 123.425,214.238 
		123.922,214.901 124.443,215.577 124.967,216.214 125.517,216.838 126.089,217.464 126.664,218.063 127.262,218.65 
		127.876,219.223 128.501,219.771 129.137,220.306 129.799,220.83 130.464,221.328 131.136,221.812 131.828,222.27 132.539,222.716 
		133.253,223.149 133.982,223.558 134.719,223.939 135.471,224.311 136.224,224.654 136.988,224.985 137.769,225.292 
		138.188,225.445 	"/>
	<path fill="none" stroke="#232323" stroke-miterlimit="10" d="M171.896,29.837c-0.445-0.28-0.958-0.42-1.466-0.407"/>
	<line fill="none" stroke="#232323" stroke-miterlimit="10" x1="87.052" y1="195.663" x2="115.701" y2="195.447"/>
	<line fill="none" stroke="#232323" stroke-miterlimit="10" x1="181.202" y1="194.949" x2="317.873" y2="193.903"/>
	<line fill="none" stroke="#232323" stroke-miterlimit="10" x1="107.5" y1="222.997" x2="132.045" y2="222.818"/>
	<line fill="none" stroke="#232323" stroke-miterlimit="10" x1="283.22" y1="218.688" x2="286.189" y2="218.663"/>
	<polyline fill="none" stroke="#232323" stroke-miterlimit="10" points="96.663,208.119 96.65,208.119 96.577,208.093 
		96.499,208.067 96.41,208.056 96.333,208.042 96.245,208.029 96.169,208.029 	"/>
	<polyline fill="none" stroke="#232323" stroke-miterlimit="10" points="44.522,189.582 44.611,189.582 44.7,189.596 
		44.776,189.607 44.865,189.62 44.944,189.645 45.02,189.671 45.03,189.671 	"/>
	<polyline fill="none" stroke="#232323" stroke-miterlimit="10" points="90.036,249.96 90.036,250.049 90.036,250.152 
		90.049,250.229 90.075,250.318 90.085,250.407 90.099,250.496 90.125,250.586 90.161,250.662 90.188,250.751 90.227,250.827 
		90.267,250.917 90.303,250.993 90.353,251.071 90.405,251.146 90.458,251.21 90.507,251.286 90.557,251.35 90.636,251.413 
		90.698,251.477 90.76,251.542 90.826,251.592 90.902,251.644 90.979,251.694 91.043,251.746 91.12,251.784 91.208,251.821 
		91.284,251.861 91.373,251.898 	"/>
	<polyline fill="none" stroke="#232323" stroke-miterlimit="10" points="39.74,233.45 39.651,233.412 39.562,233.374 
		39.486,233.337 39.41,233.297 39.331,233.248 39.256,233.195 39.193,233.146 39.128,233.093 39.052,233.044 38.989,232.966 
		38.923,232.902 38.874,232.839 38.824,232.775 38.759,232.698 38.709,232.622 38.67,232.546 38.633,232.469 38.594,232.393 
		38.554,232.303 38.518,232.227 38.491,232.138 38.465,232.049 38.443,231.972 38.429,231.87 38.416,231.78 38.403,231.705 
		38.403,231.603 38.403,231.512 	"/>
	<line fill="none" stroke="#232323" stroke-miterlimit="10" x1="40.29" y1="189.633" x2="40.277" y2="189.633"/>
	<polyline fill="none" stroke="#232323" stroke-miterlimit="10" points="38.403,231.512 38.39,231.512 38.39,231.512 	"/>
	<polyline fill="none" stroke="#232323" stroke-miterlimit="10" points="91.986,252.651 91.986,252.536 91.999,252.407 
		92.012,252.294 92.025,252.179 92.039,252.065 92.052,252.013 	"/>
	<polyline fill="none" stroke="#232323" stroke-miterlimit="10" points="94.292,278.114 94.242,278.088 94.14,278.05 
		94.024,277.999 93.923,277.961 93.824,277.91 93.719,277.846 93.62,277.782 93.514,277.719 93.416,277.654 93.323,277.59 
		93.238,277.501 93.145,277.437 93.056,277.348 92.967,277.273 92.892,277.183 92.816,277.093 92.736,277.004 92.661,276.915 
		92.598,276.826 92.52,276.724 92.47,276.622 92.395,276.52 92.342,276.417 92.292,276.304 92.243,276.202 92.203,276.086 
		92.151,275.985 92.114,275.869 92.075,275.754 92.052,275.641 92.012,275.525 91.986,275.411 91.973,275.296 91.959,275.181 
		91.947,275.054 91.933,274.939 91.92,274.812 91.92,274.697 	"/>
	<polyline fill="none" stroke="#232323" stroke-miterlimit="10" points="40.913,234.407 40.913,234.292 40.925,234.176 
		40.939,234.049 40.952,233.937 40.952,233.884 	"/>
	<polyline fill="none" stroke="#232323" stroke-miterlimit="10" points="43.235,259.867 43.185,259.854 43.066,259.815 
		42.968,259.751 42.862,259.713 42.75,259.662 42.649,259.598 42.559,259.548 42.444,259.472 42.355,259.407 42.253,259.344 
		42.164,259.267 42.072,259.191 41.986,259.101 41.908,259.025 41.819,258.936 41.743,258.847 41.667,258.758 41.591,258.667 
		41.525,258.579 41.462,258.477 41.4,258.374 41.334,258.274 41.282,258.172 41.232,258.069 41.169,257.954 41.13,257.839 
		41.077,257.737 41.041,257.622 41.018,257.508 40.979,257.393 40.952,257.279 40.925,257.164 40.899,257.049 40.886,256.933 
		40.876,256.807 40.863,256.693 40.863,256.578 40.85,256.449 	"/>
	<polyline fill="none" stroke="#232323" stroke-miterlimit="10" points="40.913,234.407 40.899,234.407 40.886,234.395 
		40.876,234.395 40.863,234.381 40.863,234.369 	"/>
	<polyline fill="none" stroke="#232323" stroke-miterlimit="10" points="40.801,256.412 40.801,256.424 40.814,256.424 
		40.824,256.438 40.836,256.449 40.863,256.449 	"/>
	<line fill="none" stroke="#232323" stroke-miterlimit="10" x1="290.232" y1="248.838" x2="289.225" y2="248.838"/>
	<line fill="none" stroke="#232323" stroke-miterlimit="10" x1="240.255" y1="240.412" x2="267.448" y2="250.126"/>
	<polyline fill="none" stroke="#232323" stroke-miterlimit="10" points="315.587,206.716 315.502,206.69 315.348,206.641 
		315.192,206.588 315.028,206.55 314.876,206.512 314.711,206.485 314.544,206.461 314.378,206.436 314.225,206.41 314.059,206.396 
		313.895,206.385 313.729,206.373 313.562,206.373 313.396,206.373 	"/>
	<line fill="none" stroke="#232323" stroke-miterlimit="10" x1="288.776" y1="256.004" x2="288.74" y2="273.191"/>
	<polyline fill="none" stroke="#232323" stroke-miterlimit="10" points="288.74,273.191 288.74,273.32 288.74,273.435 
		288.754,273.562 288.766,273.677 288.776,273.791 288.803,273.906 288.828,274.021 288.855,274.148 288.882,274.25 
		288.918,274.377 288.957,274.479 288.994,274.595 289.06,274.697 289.099,274.812 289.148,274.914 289.211,275.017 
		289.265,275.118 289.339,275.221 289.402,275.321 289.468,275.423 289.544,275.514 289.62,275.603 289.695,275.678 
		289.784,275.768 289.877,275.856 289.952,275.934 290.041,276.009 290.144,276.086 290.232,276.149 290.321,276.213 
		290.424,276.291 290.525,276.34 290.627,276.405 290.739,276.456 290.844,276.506 290.942,276.558 291.062,276.597 
		291.111,276.609 	"/>
	<polyline fill="none" stroke="#232323" stroke-miterlimit="10" points="317.82,250.968 317.82,250.982 317.808,250.982 
		317.808,250.993 317.794,250.993 317.769,251.006 317.755,251.006 317.732,251.019 317.706,251.031 317.67,251.031 317.63,251.044 
		317.591,251.044 317.551,251.057 317.501,251.057 317.452,251.071 317.399,251.082 317.346,251.082 317.273,251.095 
		317.222,251.095 317.146,251.095 317.083,251.108 317.005,251.108 316.929,251.12 316.853,251.12 316.76,251.12 316.675,251.133 
		316.596,251.133 316.494,251.146 316.404,251.146 316.314,251.146 316.213,251.16 316.111,251.16 316.01,251.16 315.908,251.16 
		315.805,251.172 315.693,251.172 315.575,251.172 315.477,251.172 315.361,251.172 315.245,251.172 315.13,251.184 
		315.015,251.184 314.902,251.184 314.783,251.184 	"/>
	<line fill="none" stroke="#232323" stroke-miterlimit="10" x1="250.482" y1="360.829" x2="250.674" y2="293.999"/>
	<line fill="none" stroke="#232323" stroke-miterlimit="10" x1="284.165" y1="369.205" x2="284.441" y2="274.237"/>
	<line fill="none" stroke="#232323" stroke-miterlimit="10" x1="73.538" y1="377.644" x2="73.475" y2="377.644"/>
</g>
</svg>
