<?xml version="1.0" encoding="utf-8"?>
<!-- Generator: Adobe Illustrator 16.0.0, SVG Export Plug-In . SVG Version: 6.00 Build 0)  -->
<!DOCTYPE svg PUBLIC "-//W3C//DTD SVG 1.1//EN" "http://www.w3.org/Graphics/SVG/1.1/DTD/svg11.dtd">
<svg version="1.1" id="Layer_1" xmlns="http://www.w3.org/2000/svg" xmlns:xlink="http://www.w3.org/1999/xlink" x="0px" y="0px"
	 width="360px" height="612px" viewBox="0 0 360 612" enable-background="new 0 0 360 612" xml:space="preserve">
<g>
	<line fill="none" stroke="#232323" stroke-miterlimit="10" x1="190.164" y1="245.274" x2="190.867" y2="245.262"/>
	<polyline fill="none" stroke="#232323" stroke-miterlimit="10" points="190.877,245.262 190.899,245.262 190.945,245.262 
		190.994,245.262 191.063,245.255 191.147,245.255 191.226,245.255 191.322,245.25 191.439,245.25 191.558,245.246 191.684,245.239 
		191.825,245.233 191.975,245.228 192.15,245.222 192.28,245.216 192.423,245.204 192.573,245.198 192.723,245.187 192.898,245.174 
		193.064,245.162 193.24,245.14 193.462,245.128 193.687,245.104 193.907,245.081 194.104,245.057 194.305,245.034 194.493,245.012 
		194.666,244.994 194.832,244.969 194.995,244.952 195.144,244.928 195.288,244.905 195.428,244.881 195.555,244.872 
		195.672,244.847 195.757,244.835 195.835,244.824 195.919,244.813 195.991,244.799 196.05,244.788 196.095,244.777 196.141,244.77 
		196.177,244.766 196.213,244.759 196.232,244.754 196.258,244.754 196.28,244.748 196.33,244.741 196.375,244.729 196.434,244.725 
		196.491,244.712 196.563,244.701 196.642,244.683 196.714,244.671 196.785,244.648 196.866,244.637 196.947,244.624 
		197.146,244.589 197.345,244.542 197.592,244.491 197.847,244.438 198.12,244.38 198.364,244.321 198.62,244.256 198.878,244.191 
		199.123,244.123 199.382,244.064 199.637,243.988 200.21,243.83 200.782,243.654 201.354,243.467 201.463,243.432 201.558,243.397 
		201.648,243.361 201.732,243.338 201.813,243.315 201.883,243.286 201.954,243.261 202,243.243 202.058,243.228 202.104,243.209 
		202.144,243.198 202.163,243.185 202.188,243.18 202.211,243.174 202.222,243.162 202.27,243.151 202.318,243.126 202.377,243.115 
		202.424,243.093 202.514,243.058 202.611,243.022 202.716,242.982 202.833,242.941 202.961,242.894 203.088,242.847 
		203.23,242.788 203.38,242.729 203.533,242.659 203.699,242.601 203.875,242.524 204.051,242.454 204.233,242.377 204.435,242.297 
		204.656,242.192 204.903,242.087 205.138,241.981 205.373,241.877 205.593,241.765 205.828,241.653 206.062,241.537 
		206.284,241.419 206.771,241.18 207.24,240.928 207.722,240.671 208.26,240.366 208.783,240.05 209.311,239.734 209.839,239.408 
		210.366,239.067 210.867,238.723 211.265,238.442 211.661,238.156 212.039,237.875 212.423,237.595 212.787,237.312 
		213.148,237.026 213.501,236.74 213.849,236.454 214.19,236.155 214.519,235.874 214.844,235.583 215.183,235.271 215.521,234.963 
		215.63,234.857 215.725,234.764 215.828,234.67 215.919,234.577 216.017,234.482 216.134,234.365 216.238,234.266 216.328,234.178 
		216.414,234.085 216.495,234.009 216.563,233.934 216.622,233.875 216.681,233.816 216.726,233.77 216.753,233.746 
		216.775,233.722 216.798,233.7 216.823,233.664 216.856,233.641 216.893,233.594 216.928,233.553 217,233.494 217.067,233.418 
		217.137,233.337 217.221,233.249 217.303,233.161 217.397,233.068 217.476,232.974 217.572,232.879 217.65,232.775 
		217.748,232.681 217.84,232.577 218.087,232.295 218.34,232.003 218.565,231.733 218.787,231.458 219.021,231.172 219.255,230.881 
		219.396,230.716 219.513,230.552 219.643,230.401 219.746,230.25 219.863,230.108 219.955,229.972 220.053,229.851 220.157,229.71 
		220.238,229.582 220.333,229.471 220.401,229.359 220.469,229.259 220.527,229.185 220.577,229.126 220.627,229.062 
		220.658,229.002 220.694,228.955 220.729,228.903 220.763,228.845 220.821,228.769 220.88,228.693 220.938,228.599 
		220.997,228.504 221.068,228.4 221.149,228.283 221.23,228.154 221.316,228.032 221.407,227.886 221.502,227.746 221.608,227.582 
		221.7,227.417 221.816,227.248 221.922,227.061 222.039,226.867 222.155,226.669 222.272,226.47 222.403,226.253 222.53,226.031 
		222.67,225.791 222.813,225.545 222.939,225.288 223.093,225.025 223.23,224.751 223.373,224.47 223.522,224.176 223.667,223.872 
		223.815,223.557 223.97,223.236 224.122,222.902 224.271,222.557 224.429,222.212 224.578,221.849 224.718,221.486 224.87,221.112 
		225.001,220.767 225.138,220.411 225.268,220.048 225.398,219.673 225.516,219.299 225.643,218.913 225.769,218.516 
		225.887,218.105 226.004,217.72 226.11,217.316 226.215,216.902 226.321,216.491 226.413,216.064 226.508,215.639 226.602,215.217 
		226.683,214.802 226.766,214.374 226.838,213.941 226.905,213.498 226.974,213.052 227.032,212.596 227.091,212.141 
		227.139,211.672 227.175,211.194 227.208,210.725 227.247,210.256 227.267,209.771 227.279,209.286 	"/>
	<polyline fill="none" stroke="#232323" stroke-miterlimit="10" points="227.924,179.433 227.911,179.246 227.911,179.17 
		227.911,179.047 227.897,178.907 227.897,178.761 227.889,178.614 227.889,178.463 227.878,178.299 227.866,178.147 
		227.866,177.978 227.853,177.818 227.839,177.645 227.83,177.48 227.819,177.317 227.808,177.142 227.794,176.972 227.78,176.801 
		227.771,176.627 227.761,176.463 227.735,176.287 227.722,176.111 227.713,175.946 227.702,175.772 227.677,175.608 
		227.663,175.439 227.644,175.263 227.631,175.094 227.605,174.929 227.595,174.755 227.572,174.591 227.56,174.415 
		227.536,174.251 227.514,174.088 227.491,173.923 227.469,173.755 227.441,173.597 227.422,173.433 227.396,173.263 
		227.374,173.105 227.352,172.947 227.324,172.783 227.305,172.625 227.279,172.467 227.247,172.309 227.221,172.146 
		227.197,171.993 227.163,171.842 227.139,171.689 227.116,171.532 227.08,171.386 227.058,171.233 227.032,171.164 	"/>
	<path fill="none" stroke="#232323" stroke-miterlimit="10" d="M227.937,182.592c0.02-1.053,0.02-2.111-0.013-3.16"/>
	<polyline fill="none" stroke="#232323" stroke-miterlimit="10" points="227.032,171.168 226.974,170.836 226.896,170.449 
		226.811,170.063 226.732,169.671 226.648,169.292 226.557,168.9 226.485,168.521 226.401,168.139 226.31,167.76 226.225,167.373 
		226.146,166.998 226.052,166.624 225.971,166.25 225.887,165.875 225.808,165.514 225.71,165.14 225.632,164.777 225.535,164.408 
		225.457,164.04 225.362,163.683 225.281,163.327 225.187,162.964 225.104,162.601 225.01,162.249 224.929,161.888 224.835,161.548 
		224.74,161.191 224.648,160.846 224.555,160.495 224.474,160.145 224.379,159.805 224.284,159.466 224.193,159.126 
		224.096,158.787 224.004,158.447 223.911,158.12 223.815,157.781 223.726,157.455 223.631,157.125 223.536,156.799 
		223.445,156.471 223.337,156.143 223.242,155.826 223.152,155.5 223.059,155.184 222.964,154.868 222.858,154.552 222.765,154.236 
		222.67,153.927 222.566,153.617 222.472,153.312 222.367,153.008 222.272,152.705 222.169,152.401 222.064,152.108 
		221.967,151.804 221.863,151.506 221.771,151.213 221.667,150.926 221.561,150.635 221.466,150.342 221.361,150.06 
		221.258,149.773 221.16,149.494 221.043,149.212 220.952,148.933 220.847,148.658 220.743,148.375 220.636,148.107 
		220.527,147.839 220.424,147.568 220.319,147.3 220.216,147.038 220.112,146.774 220.004,146.517 219.896,146.26 219.779,146.001 
		219.676,145.744 219.571,145.494 219.468,145.241 219.35,144.995 219.246,144.749 219.138,144.503 219.021,144.258 
		218.913,144.019 218.81,143.779 218.692,143.545 218.588,143.311 218.471,143.076 218.354,142.855 218.25,142.621 218.146,142.399 
		218.028,142.176 217.911,141.953 217.795,141.732 217.689,141.516 217.572,141.299 217.456,141.089 217.339,140.878 
		217.234,140.668 217.104,140.456 217,140.252 216.883,140.047 216.765,139.849 216.647,139.65 216.531,139.45 216.414,139.258 
		216.283,139.064 216.166,138.877 216.05,138.689 215.933,138.503 215.805,138.315 215.688,138.142 215.571,137.959 
		215.453,137.779 215.327,137.603 215.21,137.427 215.08,137.263 214.961,137.1 214.832,136.924 214.705,136.766 214.577,136.608 
		214.461,136.445 214.33,136.286 214.199,136.14 214.073,135.984 213.957,135.837 213.829,135.684 213.699,135.538 213.568,135.404 
		213.441,135.257 213.315,135.123 213.185,134.987 213.041,134.854 212.915,134.725 212.787,134.597 212.657,134.473 
		212.518,134.351 212.391,134.233 212.26,134.117 212.224,134.082 	"/>
	<line fill="none" stroke="#232323" stroke-miterlimit="10" x1="227.396" y1="205.197" x2="227.924" y2="182.592"/>
	<path fill="none" stroke="#232323" stroke-miterlimit="10" d="M227.293,209.286c0.031-1.504,0.081-3.007,0.117-4.51"/>
	<line fill="none" stroke="#232323" stroke-miterlimit="10" x1="181.754" y1="244.987" x2="181.766" y2="244.362"/>
	<line fill="none" stroke="#232323" stroke-miterlimit="10" x1="182.943" y1="164.337" x2="183.097" y2="153.77"/>
	<polyline fill="none" stroke="#232323" stroke-miterlimit="10" points="212.201,134.069 212.17,134.04 212.039,133.929 
		211.896,133.825 211.768,133.719 211.643,133.613 211.498,133.515 211.372,133.415 211.231,133.32 211.101,133.233 
		210.961,133.145 210.834,133.059 210.691,132.976 210.564,132.888 210.425,132.813 210.294,132.743 210.153,132.666 
		210.027,132.596 209.884,132.531 209.747,132.467 209.617,132.409 209.475,132.351 209.347,132.292 209.207,132.24 
		209.066,132.187 208.94,132.139 208.797,132.093 208.666,132.051 208.53,132.012 208.386,131.977 208.26,131.94 208.119,131.906 
		207.977,131.882 207.85,131.848 207.71,131.824 207.579,131.8 207.443,131.782 207.312,131.764 207.169,131.753 207.046,131.742 
		206.901,131.73 206.771,131.724 206.635,131.719 	"/>
	<line fill="none" stroke="#232323" stroke-miterlimit="10" x1="348.325" y1="276.811" x2="349.146" y2="221.276"/>
	<line fill="none" stroke="#232323" stroke-miterlimit="10" x1="349.087" y1="221.136" x2="348.715" y2="220.803"/>
	<line fill="none" stroke="#232323" stroke-miterlimit="10" x1="314.569" y1="278.155" x2="347.954" y2="277.162"/>
	<line fill="none" stroke="#232323" stroke-miterlimit="10" x1="314.1" y1="277.81" x2="314.452" y2="278.116"/>
	<line fill="none" stroke="#232323" stroke-miterlimit="10" x1="271.357" y1="154.072" x2="248.698" y2="177.187"/>
	<line fill="none" stroke="#232323" stroke-miterlimit="10" x1="272.047" y1="154.623" x2="271.673" y2="154.295"/>
	<line fill="none" stroke="#232323" stroke-miterlimit="10" x1="15.412" y1="162.249" x2="15.187" y2="162.062"/>
	<line fill="none" stroke="#232323" stroke-miterlimit="10" x1="14.171" y1="162.262" x2="13.351" y2="217.79"/>
	<line fill="none" stroke="#232323" stroke-miterlimit="10" x1="13.449" y1="217.966" x2="13.797" y2="218.271"/>
	<line fill="none" stroke="#232323" stroke-miterlimit="10" x1="120.315" y1="256.988" x2="87.783" y2="224.733"/>
	<line fill="none" stroke="#232323" stroke-miterlimit="10" x1="87.773" y1="224.727" x2="87.562" y2="224.54"/>
	<line fill="none" stroke="#232323" stroke-miterlimit="10" x1="86.416" y1="280.911" x2="119.801" y2="279.916"/>
	<line fill="none" stroke="#232323" stroke-miterlimit="10" x1="85.947" y1="280.561" x2="86.299" y2="280.864"/>
	<line fill="none" stroke="#232323" stroke-miterlimit="10" x1="120.176" y1="279.566" x2="120.518" y2="257.241"/>
	<line fill="none" stroke="#232323" stroke-miterlimit="10" x1="348.715" y1="220.81" x2="337.951" y2="211.521"/>
	<line fill="none" stroke="#232323" stroke-miterlimit="10" x1="296.542" y1="175.766" x2="272.047" y2="154.623"/>
	<line fill="none" stroke="#232323" stroke-miterlimit="10" x1="270.618" y1="240.273" x2="314.1" y2="277.81"/>
	<line fill="none" stroke="#232323" stroke-miterlimit="10" x1="87.562" y1="224.54" x2="81.319" y2="219.147"/>
	<line fill="none" stroke="#232323" stroke-miterlimit="10" x1="65.57" y1="205.554" x2="15.412" y2="162.249"/>
	<line fill="none" stroke="#232323" stroke-miterlimit="10" x1="13.797" y1="218.271" x2="85.947" y2="280.561"/>
	<line fill="none" stroke="#232323" stroke-miterlimit="10" x1="106.501" y1="289.187" x2="106.631" y2="280.304"/>
	<line fill="none" stroke="#232323" stroke-miterlimit="10" x1="70.089" y1="266.868" x2="69.828" y2="284.456"/>
	<line fill="none" stroke="#232323" stroke-miterlimit="10" x1="332.349" y1="282.479" x2="332.421" y2="277.625"/>
	<line fill="none" stroke="#232323" stroke-miterlimit="10" x1="295.897" y1="262.101" x2="295.663" y2="277.742"/>
	<line fill="none" stroke="#232323" stroke-miterlimit="10" x1="255.111" y1="240.729" x2="255.084" y2="242.707"/>
	<line fill="none" stroke="#232323" stroke-miterlimit="10" x1="29.51" y1="231.828" x2="29.25" y2="249.409"/>
	<line fill="none" stroke="#232323" stroke-miterlimit="10" x1="290.061" y1="361.924" x2="291.595" y2="258.387"/>
	<line fill="none" stroke="#232323" stroke-miterlimit="10" x1="255.084" y1="242.707" x2="253.389" y2="357.193"/>
	<line fill="none" stroke="#232323" stroke-miterlimit="10" x1="64.226" y1="368.632" x2="65.782" y2="263.153"/>
	<line fill="none" stroke="#232323" stroke-miterlimit="10" x1="29.236" y1="249.409" x2="27.543" y2="363.893"/>
	<line fill="none" stroke="#232323" stroke-miterlimit="10" x1="330.65" y1="396.965" x2="332.349" y2="282.479"/>
	<line fill="none" stroke="#232323" stroke-miterlimit="10" x1="295.663" y1="277.742" x2="293.971" y2="392.225"/>
	<line fill="none" stroke="#232323" stroke-miterlimit="10" x1="104.805" y1="403.667" x2="106.501" y2="289.187"/>
	<line fill="none" stroke="#232323" stroke-miterlimit="10" x1="69.828" y1="284.456" x2="68.135" y2="398.935"/>
	<line fill="none" stroke="#232323" stroke-miterlimit="10" x1="103.552" y1="542.46" x2="103.623" y2="542.519"/>
	<line fill="none" stroke="#232323" stroke-miterlimit="10" x1="295.699" y1="458.054" x2="295.631" y2="457.995"/>
	<line fill="none" stroke="#232323" stroke-miterlimit="10" x1="62.237" y1="508.197" x2="66.918" y2="508.056"/>
	<line fill="none" stroke="#232323" stroke-miterlimit="10" x1="67.054" y1="497.962" x2="62.39" y2="498.102"/>
	<line fill="none" stroke="#232323" stroke-miterlimit="10" x1="40.421" y1="510.279" x2="66.54" y2="532.831"/>
	<line fill="none" stroke="#232323" stroke-miterlimit="10" x1="66.823" y1="513.642" x2="54.551" y2="503.037"/>
	<line fill="none" stroke="#232323" stroke-miterlimit="10" x1="41.521" y1="436.187" x2="67.641" y2="458.741"/>
	<line fill="none" stroke="#232323" stroke-miterlimit="10" x1="84.58" y1="453.93" x2="55.652" y2="428.956"/>
	<line fill="none" stroke="#232323" stroke-miterlimit="10" x1="288.177" y1="457.722" x2="288.271" y2="451.844"/>
	<line fill="none" stroke="#232323" stroke-miterlimit="10" x1="251.738" y1="452.928" x2="251.657" y2="458.809"/>
	<line fill="none" stroke="#232323" stroke-miterlimit="10" x1="62.214" y1="509.658" x2="63.031" y2="454.763"/>
	<line fill="none" stroke="#232323" stroke-miterlimit="10" x1="63.311" y1="435.57" x2="63.324" y2="435.213"/>
	<line fill="none" stroke="#232323" stroke-miterlimit="10" x1="27.039" y1="419.575" x2="25.532" y2="521.168"/>
	<line fill="none" stroke="#232323" stroke-miterlimit="10" x1="327.938" y1="554.133" x2="329.437" y2="452.55"/>
	<line fill="none" stroke="#232323" stroke-miterlimit="10" x1="292.939" y1="451.703" x2="292.845" y2="457.583"/>
	<line fill="none" stroke="#232323" stroke-miterlimit="10" x1="291.676" y1="537.425" x2="291.49" y2="549.579"/>
	<line fill="none" stroke="#232323" stroke-miterlimit="10" x1="102.641" y1="560.829" x2="104.15" y2="459.242"/>
	<line fill="none" stroke="#232323" stroke-miterlimit="10" x1="67.699" y1="454.679" x2="66.188" y2="556.274"/>
	<line fill="none" stroke="#232323" stroke-miterlimit="10" x1="198.07" y1="42.577" x2="197.462" y2="42.758"/>
	<line fill="none" stroke="#232323" stroke-miterlimit="10" x1="197.462" y1="42.758" x2="188.979" y2="43.003"/>
	<line fill="none" stroke="#232323" stroke-miterlimit="10" x1="188.979" y1="43.003" x2="188.01" y2="42.875"/>
	<line fill="none" stroke="#232323" stroke-miterlimit="10" x1="187.999" y1="42.875" x2="185.929" y2="41.068"/>
	<line fill="none" stroke="#232323" stroke-miterlimit="10" x1="185.929" y1="41.068" x2="188.29" y2="40.999"/>
	<line fill="none" stroke="#232323" stroke-miterlimit="10" x1="187.814" y1="40.588" x2="188.29" y2="40.999"/>
	<line fill="none" stroke="#232323" stroke-miterlimit="10" x1="193.173" y1="40.43" x2="187.814" y2="40.594"/>
	<line fill="none" stroke="#232323" stroke-miterlimit="10" x1="193.173" y1="40.43" x2="193.638" y2="40.839"/>
	<line fill="none" stroke="#232323" stroke-miterlimit="10" x1="193.638" y1="40.839" x2="196" y2="40.768"/>
	<line fill="none" stroke="#232323" stroke-miterlimit="10" x1="196" y1="40.768" x2="198.07" y2="42.577"/>
	<line fill="none" stroke="#232323" stroke-miterlimit="10" x1="188.374" y1="45.554" x2="188.406" y2="43.003"/>
	<line fill="none" stroke="#232323" stroke-miterlimit="10" x1="187.965" y1="45.418" x2="188.935" y2="45.554"/>
	<line fill="none" stroke="#232323" stroke-miterlimit="10" x1="188.935" y1="45.554" x2="197.417" y2="45.296"/>
	<line fill="none" stroke="#232323" stroke-miterlimit="10" x1="185.893" y1="43.612" x2="185.929" y2="41.062"/>
	<line fill="none" stroke="#232323" stroke-miterlimit="10" x1="185.893" y1="43.612" x2="187.965" y2="45.418"/>
	<line fill="none" stroke="#232323" stroke-miterlimit="10" x1="198.036" y1="45.121" x2="198.07" y2="42.57"/>
	<line fill="none" stroke="#232323" stroke-miterlimit="10" x1="197.43" y1="45.296" x2="198.036" y2="45.121"/>
	<line fill="none" stroke="#232323" stroke-miterlimit="10" x1="187.814" y1="41.014" x2="187.814" y2="40.588"/>
	<line fill="none" stroke="#232323" stroke-miterlimit="10" x1="186.187" y1="250.496" x2="185.217" y2="250.363"/>
	<line fill="none" stroke="#232323" stroke-miterlimit="10" x1="185.217" y1="250.363" x2="185.236" y2="248.895"/>
	<line fill="none" stroke="#232323" stroke-miterlimit="10" x1="194.034" y1="250.263" x2="186.187" y2="250.496"/>
	<line fill="none" stroke="#232323" stroke-miterlimit="10" x1="183.427" y1="248.825" x2="183.458" y2="247.356"/>
	<line fill="none" stroke="#232323" stroke-miterlimit="10" x1="185.217" y1="250.363" x2="183.438" y2="248.825"/>
	<line fill="none" stroke="#232323" stroke-miterlimit="10" x1="194.644" y1="250.081" x2="194.666" y2="248.741"/>
	<line fill="none" stroke="#232323" stroke-miterlimit="10" x1="194.644" y1="250.081" x2="194.034" y2="250.263"/>
	<line fill="none" stroke="#232323" stroke-miterlimit="10" x1="197.836" y1="45.308" x2="188.396" y2="45.588"/>
	<line fill="none" stroke="#232323" stroke-miterlimit="10" x1="188.396" y1="45.588" x2="188.231" y2="45.46"/>
	<line fill="none" stroke="#232323" stroke-miterlimit="10" x1="197.72" y1="45.213" x2="197.836" y2="45.308"/>
	<line fill="none" stroke="#232323" stroke-miterlimit="10" x1="197.836" y1="45.308" x2="196.069" y2="164.777"/>
	<line fill="none" stroke="#232323" stroke-miterlimit="10" x1="194.877" y1="244.964" x2="194.832" y2="248.741"/>
	<line fill="none" stroke="#232323" stroke-miterlimit="10" x1="194.818" y1="248.741" x2="185.379" y2="249.023"/>
	<line fill="none" stroke="#232323" stroke-miterlimit="10" x1="188.396" y1="45.588" x2="186.629" y2="165.057"/>
	<line fill="none" stroke="#232323" stroke-miterlimit="10" x1="185.45" y1="245.005" x2="185.379" y2="249.023"/>
	<line fill="none" stroke="#232323" stroke-miterlimit="10" x1="186.187" y1="43.858" x2="184.03" y2="165.126"/>
	<line fill="none" stroke="#232323" stroke-miterlimit="10" x1="183.215" y1="244.637" x2="183.18" y2="247.116"/>
	<line fill="none" stroke="#232323" stroke-miterlimit="10" x1="185.379" y1="249.023" x2="183.18" y2="247.116"/>
	<line fill="none" stroke="#232323" stroke-miterlimit="10" x1="152.941" y1="211.264" x2="153.222" y2="192.417"/>
	<polyline fill="none" stroke="#232323" stroke-miterlimit="10" points="153.222,192.417 153.222,192.266 153.222,192.12 
		153.222,191.973 153.222,191.827 153.222,191.676 153.222,191.518 153.222,191.371 153.222,191.225 153.211,191.074 
		153.211,190.921 153.211,190.77 153.199,190.623 153.199,190.465 153.186,190.312 153.186,190.165 153.172,190.021 
		153.163,189.868 153.163,189.716 153.153,189.563 153.141,189.423 153.127,189.271 153.114,189.125 153.105,188.979 
		153.094,188.833 153.082,188.686 153.069,188.546 153.046,188.399 153.036,188.254 153.022,188.113 153.01,187.973 
		152.991,187.833 152.978,187.691 152.952,187.551 152.941,187.418 152.919,187.283 152.905,187.147 152.883,187.014 
		152.86,186.884 152.833,186.757 152.824,186.627 152.802,186.498 152.775,186.37 152.755,186.252 152.73,186.124 152.708,186.009 
		152.685,185.885 152.658,185.761 152.639,185.65 152.613,185.54 152.58,185.423 152.555,185.318 152.532,185.213 152.508,185.101 
		152.482,185.003 152.45,184.897 152.424,184.791 	"/>
	<line fill="none" stroke="#232323" stroke-miterlimit="10" x1="152.424" y1="184.791" x2="140.097" y2="141.001"/>
	<line fill="none" stroke="#232323" stroke-miterlimit="10" x1="140.097" y1="141.001" x2="140.367" y2="136.117"/>
	<line fill="none" stroke="#232323" stroke-miterlimit="10" x1="226.029" y1="183.095" x2="162.404" y2="184.989"/>
	<line fill="none" stroke="#232323" stroke-miterlimit="10" x1="182.724" y1="152.507" x2="183.999" y2="152.471"/>
	<polyline fill="none" stroke="#232323" stroke-miterlimit="10" points="183.074,153.61 183.038,153.477 182.979,153.336 
		182.943,153.197 182.898,153.055 182.853,152.915 182.808,152.786 182.769,152.646 182.71,152.507 	"/>
	<polyline fill="none" stroke="#232323" stroke-miterlimit="10" points="183.074,153.61 183.097,153.675 183.097,153.733 
		183.097,153.803 183.088,153.862 183.074,153.921 183.038,153.979 183.002,154.038 182.957,154.09 182.912,154.144 
		182.853,154.178 182.782,154.214 182.71,154.248 182.641,154.277 182.573,154.295 182.488,154.313 182.407,154.324 182.357,154.33 
		182.299,154.33 	"/>
	<line fill="none" stroke="#232323" stroke-miterlimit="10" x1="181.212" y1="154.366" x2="182.299" y2="154.335"/>
	<polyline fill="none" stroke="#232323" stroke-miterlimit="10" points="181.212,154.366 181.135,154.372 181.062,154.377 
		180.99,154.388 180.92,154.406 180.851,154.424 180.793,154.446 180.737,154.482 180.689,154.505 180.631,154.541 180.581,154.577 
		180.548,154.623 180.512,154.665 180.476,154.717 180.454,154.762 180.431,154.809 180.418,154.868 180.418,154.927 
		180.418,154.985 180.418,155.044 180.445,155.103 	"/>
	<polyline fill="none" stroke="#232323" stroke-miterlimit="10" points="182.925,164.261 182.827,163.87 182.724,163.478 
		182.632,163.092 182.534,162.705 182.443,162.321 182.349,161.94 182.244,161.559 182.15,161.185 182.06,160.811 181.951,160.437 
		181.857,160.062 181.766,159.693 181.659,159.326 181.564,158.963 181.46,158.6 181.356,158.237 181.262,157.887 181.154,157.524 
		181.062,157.173 180.959,156.823 180.851,156.471 180.748,156.12 180.64,155.781 180.548,155.442 180.445,155.103 	"/>
	<polyline fill="none" stroke="#232323" stroke-miterlimit="10" points="182.925,164.261 182.943,164.333 182.971,164.408 
		183.002,164.479 183.049,164.554 183.097,164.624 183.146,164.688 183.205,164.752 183.273,164.811 183.341,164.869 
		183.413,164.922 183.485,164.964 183.566,165.009 183.635,165.034 183.705,165.068 183.788,165.093 183.869,165.104 
		183.953,165.126 184.044,165.133 184.13,165.133 	"/>
	<line fill="none" stroke="#232323" stroke-miterlimit="10" x1="199.592" y1="164.671" x2="184.13" y2="165.133"/>
	<polyline fill="none" stroke="#232323" stroke-miterlimit="10" points="199.592,164.671 199.662,164.671 199.734,164.659 
		199.804,164.642 199.858,164.624 199.917,164.601 199.976,164.576 200.034,164.547 200.082,164.508 200.151,164.461 
		200.21,164.402 200.259,164.344 200.294,164.285 200.326,164.227 200.354,164.168 200.365,164.098 200.385,164.017 
		200.385,163.945 200.385,163.863 200.376,163.782 200.365,163.735 	"/>
	<polyline fill="none" stroke="#232323" stroke-miterlimit="10" points="197.886,154.582 197.989,154.922 198.081,155.267 
		198.188,155.612 198.295,155.957 198.4,156.307 198.504,156.652 198.595,157.009 198.703,157.366 198.81,157.723 198.9,158.085 
		199.006,158.447 199.101,158.81 199.207,159.173 199.298,159.547 199.393,159.921 199.5,160.285 199.592,160.67 199.685,161.045 
		199.79,161.419 199.884,161.805 199.987,162.19 200.082,162.571 200.164,162.964 200.268,163.349 200.365,163.735 	"/>
	<polyline fill="none" stroke="#232323" stroke-miterlimit="10" points="197.886,154.582 197.859,154.519 197.827,154.446 
		197.788,154.388 197.73,154.324 197.67,154.261 197.616,154.214 197.547,154.155 197.462,154.102 197.381,154.061 197.3,154.027 
		196.456,153.733 	"/>
	<path fill="none" stroke="#232323" stroke-miterlimit="10" d="M182.943,244.583c2.377,0.498,4.799,0.726,7.221,0.685"/>
	<polyline fill="none" stroke="#232323" stroke-miterlimit="10" points="182.943,244.583 182.866,244.565 182.782,244.542 
		182.699,244.531 182.618,244.509 182.534,244.497 182.443,244.484 182.357,244.461 182.29,244.449 182.209,244.438 
		182.138,244.425 182.079,244.409 182.01,244.396 181.951,244.391 181.902,244.38 181.857,244.373 181.824,244.367 181.785,244.367 
		181.766,244.367 181.74,244.362 	"/>
	<line fill="none" stroke="#232323" stroke-miterlimit="10" x1="179.123" y1="244.402" x2="181.74" y2="244.367"/>
	<polyline fill="none" stroke="#232323" stroke-miterlimit="10" points="179.123,244.402 179.097,244.402 179.097,244.409 
		179.097,244.414 179.11,244.425 179.133,244.432 179.155,244.443 179.191,244.455 179.239,244.467 179.286,244.484 
		179.344,244.497 179.403,244.52 179.47,244.531 179.539,244.556 179.611,244.565 179.695,244.589 179.787,244.601 179.881,244.63 	
		"/>
	<polyline fill="none" stroke="#232323" stroke-miterlimit="10" points="180.968,244.835 180.418,244.729 179.881,244.624 	"/>
	<polyline fill="none" stroke="#232323" stroke-miterlimit="10" points="180.968,244.835 181.051,244.847 181.135,244.865 
		181.212,244.881 181.284,244.894 181.356,244.905 181.427,244.917 181.486,244.928 181.541,244.939 181.59,244.952 
		181.635,244.952 181.668,244.964 181.707,244.976 181.727,244.976 181.74,244.987 181.754,244.987 181.74,244.987 181.727,244.998 
			"/>
	<line fill="none" stroke="#232323" stroke-miterlimit="10" x1="181.356" y1="244.998" x2="181.718" y2="244.998"/>
	<path fill="none" stroke="#232323" stroke-miterlimit="10" d="M181.356,244.998c0.605,0.095,1.227,0.16,1.849,0.211"/>
	<polyline fill="none" stroke="#232323" stroke-miterlimit="10" points="152.941,211.264 152.933,211.801 152.941,212.357 
		152.952,212.906 152.978,213.463 153.01,214.024 153.046,214.579 153.094,215.14 153.153,215.708 153.211,216.211 153.28,216.726 
		153.349,217.229 153.433,217.743 153.524,218.257 153.631,218.762 153.726,219.276 153.844,219.791 153.97,220.305 
		154.097,220.814 154.24,221.329 154.39,221.838 154.542,222.346 154.709,222.855 154.895,223.417 155.106,223.966 155.314,224.528 
		155.536,225.078 155.771,225.627 155.981,226.125 156.215,226.616 156.451,227.112 156.695,227.6 156.942,228.084 157.209,228.57 
		157.479,229.049 157.724,229.476 157.997,229.909 158.263,230.342 158.544,230.764 158.824,231.184 159.103,231.6 159.396,232.015 
		159.703,232.423 160.019,232.822 160.322,233.219 160.64,233.617 160.965,234.002 161.362,234.46 161.759,234.904 162.17,235.337 
		162.593,235.757 162.977,236.155 163.374,236.535 163.785,236.916 164.182,237.279 164.604,237.642 165.024,237.98 
		165.436,238.325 165.867,238.659 166.288,238.986 166.733,239.308 167.176,239.618 167.631,239.922 168.087,240.227 
		168.557,240.52 169.012,240.799 169.494,241.069 169.949,241.338 170.432,241.595 170.907,241.841 171.389,242.08 171.88,242.31 
		172.358,242.53 172.85,242.741 173.387,242.964 173.94,243.185 174.487,243.385 175.028,243.578 175.574,243.764 176.079,243.922 
		176.571,244.068 177.072,244.204 177.577,244.338 178.081,244.461 178.583,244.572 179.083,244.683 179.625,244.788 
		180.17,244.881 180.737,244.976 181.284,245.052 181.824,245.116 182.371,245.174 182.912,245.222 183.205,245.246 	"/>
	<line fill="none" stroke="#232323" stroke-miterlimit="10" x1="212.224" y1="134.082" x2="212.215" y2="134.069"/>
	<polyline fill="none" stroke="#232323" stroke-miterlimit="10" points="142.88,133.613 142.789,133.613 142.704,133.625 
		142.612,133.636 142.528,133.649 142.45,133.661 142.366,133.683 142.248,133.719 142.131,133.754 142.04,133.79 141.956,133.825 
		141.877,133.871 141.792,133.907 141.722,133.941 141.653,133.988 141.545,134.053 141.441,134.128 141.324,134.222 
		141.247,134.304 141.147,134.385 141.08,134.457 141.011,134.538 140.953,134.62 140.881,134.689 140.822,134.778 140.777,134.865 
		140.719,134.949 140.669,135.041 140.625,135.134 140.575,135.235 140.543,135.327 140.507,135.427 140.483,135.508 
		140.458,135.602 140.425,135.684 140.413,135.766 140.399,135.86 140.391,135.941 140.38,136.029 140.367,136.117 	"/>
	<line fill="none" stroke="#232323" stroke-miterlimit="10" x1="206.518" y1="131.719" x2="197.592" y2="131.982"/>
	<line fill="none" stroke="#232323" stroke-miterlimit="10" x1="184.305" y1="132.38" x2="142.88" y2="133.607"/>
	<polyline fill="none" stroke="#232323" stroke-miterlimit="10" points="206.635,131.719 206.596,131.719 206.518,131.719 	"/>
	<line fill="none" stroke="#232323" stroke-miterlimit="10" x1="153.141" y1="192.711" x2="152.874" y2="211.526"/>
	<line fill="none" stroke="#232323" stroke-miterlimit="10" x1="152.86" y1="211.532" x2="151.526" y2="208.749"/>
	<line fill="none" stroke="#232323" stroke-miterlimit="10" x1="151.526" y1="208.749" x2="151.502" y2="210.402"/>
	<line fill="none" stroke="#232323" stroke-miterlimit="10" x1="140.425" y1="186.219" x2="140.458" y2="185.657"/>
	<line fill="none" stroke="#232323" stroke-miterlimit="10" x1="140.458" y1="185.657" x2="137.874" y2="180.276"/>
	<line fill="none" stroke="#232323" stroke-miterlimit="10" x1="137.874" y1="180.281" x2="140.074" y2="141.463"/>
	<line fill="none" stroke="#232323" stroke-miterlimit="10" x1="140.074" y1="141.463" x2="152.346" y2="185.025"/>
	<polyline fill="none" stroke="#232323" stroke-miterlimit="10" points="152.346,185.025 152.366,185.129 152.391,185.231 
		152.424,185.341 152.45,185.44 152.482,185.551 152.508,185.663 152.532,185.774 152.555,185.891 152.58,186.009 152.6,186.13 
		152.626,186.252 152.649,186.37 152.671,186.498 152.697,186.615 152.716,186.744 152.744,186.872 152.766,187.001 
		152.775,187.136 152.802,187.271 152.824,187.4 152.833,187.54 152.86,187.675 152.874,187.809 152.894,187.949 152.905,188.09 
		152.933,188.23 152.941,188.377 152.964,188.523 152.978,188.663 152.991,188.803 153,188.949 153.01,189.096 153.022,189.247 
		153.036,189.394 153.046,189.54 153.058,189.693 153.069,189.844 153.082,189.996 153.094,190.143 153.094,190.289 
		153.105,190.447 153.105,190.593 153.114,190.745 153.114,190.903 153.127,191.049 153.127,191.2 153.141,191.354 153.141,191.506 
		153.141,191.663 153.141,191.809 153.141,191.962 153.141,192.113 153.141,192.266 153.141,192.417 153.141,192.57 
		153.141,192.716 	"/>
	<line fill="none" stroke="#232323" stroke-miterlimit="10" x1="140.224" y1="141.457" x2="140.074" y2="141.463"/>
	<line fill="none" stroke="#232323" stroke-miterlimit="10" x1="152.941" y1="211.526" x2="152.874" y2="211.526"/>
	<line fill="none" stroke="#232323" stroke-miterlimit="10" x1="323.587" y1="174.965" x2="227.853" y2="177.807"/>
	<line fill="none" stroke="#232323" stroke-miterlimit="10" x1="137.968" y1="180.475" x2="65.909" y2="182.615"/>
	<line fill="none" stroke="#232323" stroke-miterlimit="10" x1="323.587" y1="174.965" x2="338.827" y2="206.742"/>
	<line fill="none" stroke="#232323" stroke-miterlimit="10" x1="338.827" y1="206.747" x2="227.257" y2="210.058"/>
	<line fill="none" stroke="#232323" stroke-miterlimit="10" x1="152.941" y1="212.27" x2="81.152" y2="214.398"/>
	<line fill="none" stroke="#232323" stroke-miterlimit="10" x1="65.909" y1="182.615" x2="81.152" y2="214.398"/>
	<line fill="none" stroke="#232323" stroke-miterlimit="10" x1="65.57" y1="205.759" x2="65.909" y2="182.615"/>
	<line fill="none" stroke="#232323" stroke-miterlimit="10" x1="81.152" y1="214.398" x2="81.084" y2="219.159"/>
	<line fill="none" stroke="#232323" stroke-miterlimit="10" x1="65.57" y1="205.759" x2="81.084" y2="219.147"/>
	<line fill="none" stroke="#232323" stroke-miterlimit="10" x1="312.812" y1="239.015" x2="336.698" y2="211.561"/>
	<line fill="none" stroke="#232323" stroke-miterlimit="10" x1="312.812" y1="239.015" x2="204.575" y2="242.233"/>
	<line fill="none" stroke="#232323" stroke-miterlimit="10" x1="173.833" y1="243.145" x2="108.327" y2="245.093"/>
	<line fill="none" stroke="#232323" stroke-miterlimit="10" x1="97.809" y1="234.547" x2="97.738" y2="234.606"/>
	<line fill="none" stroke="#232323" stroke-miterlimit="10" x1="338.827" y1="206.747" x2="338.749" y2="211.497"/>
	<line fill="none" stroke="#232323" stroke-miterlimit="10" x1="336.698" y1="211.555" x2="338.758" y2="211.497"/>
	<line fill="none" stroke="#232323" stroke-miterlimit="10" x1="96.872" y1="233.746" x2="97.809" y2="234.541"/>
	<path fill="none" stroke="#232323" stroke-miterlimit="10" d="M314.603,255.222c-0.022,0.088-0.033,0.176-0.047,0.271"/>
	<line fill="none" stroke="#232323" stroke-miterlimit="10" x1="314.407" y1="255.047" x2="347.896" y2="220.855"/>
	<path fill="none" stroke="#232323" stroke-miterlimit="10" d="M314.556,255.493c-0.045,0.039-0.093,0.093-0.129,0.152"/>
	<path fill="none" stroke="#232323" stroke-miterlimit="10" d="M314.1,277.542c0.061,0.21,0.177,0.403,0.327,0.55"/>
	<polyline fill="none" stroke="#232323" stroke-miterlimit="10" points="349.146,221.276 349.146,221.265 349.146,221.24 
		349.146,221.218 349.123,221.184 349.112,221.154 349.073,221.125 349.054,221.112 349.028,221.101 349.006,221.089 
		348.982,221.078 	"/>
	<path fill="none" stroke="#232323" stroke-miterlimit="10" d="M348.279,277.097c0.036-0.093,0.046-0.188,0.046-0.287"/>
	<polyline fill="none" stroke="#232323" stroke-miterlimit="10" points="314.23,255.468 314.23,255.435 314.23,255.387 
		314.241,255.347 314.25,255.304 314.264,255.264 314.289,255.222 314.299,255.187 314.322,255.152 314.349,255.119 
		314.368,255.076 314.407,255.042 	"/>
	<polyline fill="none" stroke="#232323" stroke-miterlimit="10" points="347.896,220.855 347.928,220.826 347.967,220.803 
		347.986,220.773 348.025,220.755 348.059,220.726 348.104,220.715 348.14,220.704 348.189,220.692 348.221,220.679 
		348.267,220.667 348.306,220.667 348.351,220.667 348.384,220.667 348.434,220.679 348.468,220.679 348.501,220.692 
		348.551,220.704 348.586,220.726 348.618,220.744 348.657,220.762 348.689,220.785 348.715,220.803 	"/>
	<line fill="none" stroke="#232323" stroke-miterlimit="10" x1="313.899" y1="277.368" x2="314.219" y2="255.474"/>
	<path fill="none" stroke="#232323" stroke-miterlimit="10" d="M314.438,278.099c0.036,0.041,0.083,0.063,0.131,0.052"/>
	<path fill="none" stroke="#232323" stroke-miterlimit="10" d="M347.954,277.167c0.116,0,0.222-0.03,0.325-0.077"/>
	<polyline fill="none" stroke="#232323" stroke-miterlimit="10" points="314.1,277.81 314.088,277.799 314.055,277.764 
		314.029,277.735 314.007,277.706 313.983,277.67 313.957,277.641 313.947,277.6 313.938,277.565 313.925,277.53 313.912,277.483 
		313.899,277.442 313.899,277.407 313.899,277.368 	"/>
	<path fill="none" stroke="#232323" stroke-miterlimit="10" d="M271.673,154.295c-0.071-0.059-0.143-0.105-0.221-0.146"/>
	<line fill="none" stroke="#232323" stroke-miterlimit="10" x1="14.418" y1="162.729" x2="13.599" y2="217.826"/>
	<polyline fill="none" stroke="#232323" stroke-miterlimit="10" points="15.412,162.249 15.375,162.227 15.343,162.197 
		15.305,162.175 15.271,162.157 15.235,162.145 15.187,162.132 15.155,162.121 15.119,162.115 15.07,162.109 15.024,162.109 
		14.992,162.109 14.956,162.115 14.907,162.121 14.874,162.132 14.829,162.145 14.79,162.161 14.757,162.179 14.711,162.197 
		14.686,162.227 14.653,162.249 14.614,162.273 14.595,162.308 14.556,162.343 14.536,162.373 14.51,162.407 14.487,162.443 
		14.464,162.483 14.452,162.52 14.438,162.565 14.429,162.601 14.418,162.642 14.418,162.682 14.418,162.729 	"/>
	<polyline fill="none" stroke="#232323" stroke-miterlimit="10" points="13.599,217.826 13.599,217.866 13.612,217.907 
		13.612,217.941 13.621,217.989 13.631,218.024 13.644,218.059 13.657,218.101 13.68,218.13 13.703,218.164 13.729,218.2 
		13.749,218.223 13.774,218.257 13.797,218.271 	"/>
	<polyline fill="none" stroke="#232323" stroke-miterlimit="10" points="14.207,162.553 14.185,162.447 14.171,162.343 
		14.171,162.296 14.171,162.237 14.171,162.19 14.185,162.132 14.197,162.062 14.217,161.986 14.266,161.917 14.275,161.875 
		14.302,161.853 14.321,161.816 14.36,161.793 	"/>
	<polyline fill="none" stroke="#232323" stroke-miterlimit="10" points="14.36,161.787 14.438,161.776 14.536,161.782 
		14.627,161.787 14.711,161.805 14.78,161.823 14.839,161.84 14.888,161.863 14.946,161.899 15.001,161.922 15.06,161.958 
		15.109,161.992 15.155,162.033 15.187,162.057 	"/>
	<polyline fill="none" stroke="#232323" stroke-miterlimit="10" points="13.4,217.925 13.39,217.907 13.377,217.883 13.364,217.86 
		13.364,217.837 13.351,217.815 13.351,217.79 13.351,217.768 13.364,217.743 13.377,217.697 13.4,217.65 	"/>
	<line fill="none" stroke="#232323" stroke-miterlimit="10" x1="13.449" y1="217.959" x2="13.4" y2="217.925"/>
	<path fill="none" stroke="#232323" stroke-miterlimit="10" d="M120.518,257.229c-0.06-0.088-0.13-0.171-0.202-0.246"/>
	<polyline fill="none" stroke="#232323" stroke-miterlimit="10" points="87.562,224.54 87.516,224.517 87.49,224.493 
		87.458,224.465 87.422,224.445 87.387,224.436 87.341,224.422 87.305,224.411 87.259,224.406 87.223,224.4 87.178,224.4 
		87.142,224.4 87.094,224.406 87.061,224.411 87.015,224.422 86.976,224.436 86.943,224.452 86.908,224.47 86.859,224.493 
		86.839,224.517 86.8,224.54 86.768,224.562 86.732,224.599 86.709,224.634 86.684,224.664 86.663,224.697 86.638,224.738 
		86.614,224.774 86.605,224.81 86.592,224.855 86.579,224.892 86.569,224.932 86.569,224.973 86.569,225.02 	"/>
	<line fill="none" stroke="#232323" stroke-miterlimit="10" x1="86.569" y1="225.02" x2="85.752" y2="280.115"/>
	<path fill="none" stroke="#232323" stroke-miterlimit="10" d="M119.801,279.916c0.117,0,0.222-0.023,0.328-0.069"/>
	<path fill="none" stroke="#232323" stroke-miterlimit="10" d="M86.286,280.852c0.039,0.036,0.085,0.06,0.13,0.047"/>
	<polyline fill="none" stroke="#232323" stroke-miterlimit="10" points="85.752,280.115 85.752,280.157 85.752,280.198 
		85.762,280.232 85.762,280.279 85.772,280.313 85.797,280.355 85.811,280.39 85.831,280.419 85.856,280.455 85.879,280.489 
		85.902,280.514 85.925,280.547 85.947,280.561 	"/>
	<line fill="none" stroke="#232323" stroke-miterlimit="10" x1="120.518" y1="257.229" x2="120.518" y2="257.234"/>
	<path fill="none" stroke="#232323" stroke-miterlimit="10" d="M120.129,279.847c0.036-0.093,0.046-0.188,0.046-0.28"/>
	<line fill="none" stroke="#232323" stroke-miterlimit="10" x1="343.846" y1="224.984" x2="347.896" y2="220.855"/>
	<polyline fill="none" stroke="#232323" stroke-miterlimit="10" points="347.896,220.855 347.928,220.826 347.967,220.803 
		347.986,220.773 348.025,220.755 348.059,220.726 348.104,220.715 348.14,220.704 348.189,220.692 348.221,220.679 
		348.267,220.667 348.306,220.667 348.351,220.667 348.384,220.667 348.434,220.679 348.468,220.679 348.501,220.692 
		348.551,220.704 348.586,220.726 348.618,220.744 348.657,220.762 348.689,220.785 348.715,220.803 	"/>
	<polyline fill="none" stroke="#232323" stroke-miterlimit="10" points="314.1,277.81 314.088,277.799 314.055,277.764 
		314.029,277.735 314.007,277.706 313.983,277.67 313.957,277.641 313.947,277.6 313.938,277.565 313.925,277.53 313.912,277.483 
		313.899,277.442 313.899,277.407 313.899,277.368 	"/>
	<line fill="none" stroke="#232323" stroke-miterlimit="10" x1="313.899" y1="277.368" x2="314.219" y2="255.474"/>
	<polyline fill="none" stroke="#232323" stroke-miterlimit="10" points="314.23,255.468 314.23,255.435 314.23,255.387 
		314.241,255.347 314.25,255.304 314.264,255.264 314.289,255.222 314.299,255.187 314.322,255.152 314.349,255.119 
		314.368,255.076 314.407,255.042 	"/>
	<line fill="none" stroke="#232323" stroke-miterlimit="10" x1="314.407" y1="255.047" x2="319.198" y2="250.146"/>
	<line fill="none" stroke="#232323" stroke-miterlimit="10" x1="319.198" y1="250.146" x2="306.529" y2="239.202"/>
	<line fill="none" stroke="#232323" stroke-miterlimit="10" x1="86.569" y1="225.02" x2="85.752" y2="280.115"/>
	<polyline fill="none" stroke="#232323" stroke-miterlimit="10" points="86.569,225.02 86.569,224.973 86.569,224.932 
		86.579,224.892 86.592,224.855 86.605,224.81 86.614,224.774 86.638,224.738 86.663,224.697 86.684,224.664 86.709,224.627 
		86.732,224.599 86.768,224.562 86.8,224.54 86.826,224.517 86.859,224.493 86.898,224.47 86.943,224.452 86.976,224.436 
		87.025,224.422 87.061,224.411 87.094,224.406 87.142,224.4 87.178,224.4 87.223,224.4 87.269,224.406 87.305,224.411 
		87.341,224.422 87.387,224.436 87.422,224.445 87.458,224.47 87.49,224.493 87.53,224.517 87.562,224.54 	"/>
	<polyline fill="none" stroke="#232323" stroke-miterlimit="10" points="15.412,162.249 15.375,162.227 15.343,162.197 
		15.305,162.175 15.271,162.157 15.235,162.145 15.187,162.132 15.155,162.121 15.119,162.115 15.07,162.109 15.024,162.109 
		14.992,162.109 14.956,162.115 14.907,162.121 14.874,162.132 14.829,162.145 14.79,162.161 14.757,162.179 14.711,162.197 
		14.686,162.227 14.653,162.249 14.614,162.273 14.595,162.308 14.556,162.343 14.536,162.373 14.51,162.407 14.487,162.443 
		14.464,162.483 14.452,162.52 14.438,162.565 14.429,162.601 14.418,162.642 14.418,162.682 14.418,162.729 	"/>
	<line fill="none" stroke="#232323" stroke-miterlimit="10" x1="14.418" y1="162.729" x2="13.599" y2="217.826"/>
	<polyline fill="none" stroke="#232323" stroke-miterlimit="10" points="13.599,217.826 13.599,217.866 13.612,217.907 
		13.612,217.941 13.621,217.989 13.631,218.024 13.644,218.059 13.657,218.101 13.68,218.13 13.703,218.164 13.729,218.2 
		13.749,218.223 13.774,218.257 13.797,218.271 	"/>
	<polyline fill="none" stroke="#232323" stroke-miterlimit="10" points="77.491,290.206 77.432,290.206 77.387,290.206 
		77.328,290.206 77.269,290.206 77.21,290.206 77.166,290.206 77.106,290.206 77.058,290.199 77.002,290.199 76.943,290.193 
		76.895,290.186 76.846,290.181 76.8,290.176 76.742,290.17 76.696,290.164 76.66,290.158 76.611,290.152 76.566,290.147 
		76.534,290.134 76.495,290.129 76.462,290.123 76.426,290.104 76.403,290.104 76.368,290.093 76.345,290.082 76.322,290.071 
		76.312,290.06 76.286,290.046 76.273,290.035 	"/>
	<line fill="none" stroke="#232323" stroke-miterlimit="10" x1="105.72" y1="289.369" x2="77.491" y2="290.206"/>
	<line fill="none" stroke="#232323" stroke-miterlimit="10" x1="76.273" y1="290.042" x2="69.854" y2="284.489"/>
	<line fill="none" stroke="#232323" stroke-miterlimit="10" x1="69.854" y1="284.496" x2="70.108" y2="266.886"/>
	<polyline fill="none" stroke="#232323" stroke-miterlimit="10" points="106.501,289.187 106.501,289.193 106.501,289.205 
		106.487,289.216 106.478,289.228 106.468,289.239 106.454,289.252 106.442,289.264 106.42,289.264 106.384,289.275 106.36,289.286 
		106.337,289.297 106.301,289.297 106.266,289.311 106.234,289.322 106.198,289.322 106.148,289.333 106.104,289.333 
		106.07,289.344 106.022,289.351 105.973,289.351 105.928,289.356 105.87,289.362 105.823,289.362 105.765,289.369 105.72,289.369 	
		"/>
	<polyline fill="none" stroke="#232323" stroke-miterlimit="10" points="69.854,284.496 69.841,284.485 69.828,284.474 
		69.828,284.467 69.828,284.456 	"/>
	<polyline fill="none" stroke="#232323" stroke-miterlimit="10" points="303.325,283.497 303.28,283.497 303.222,283.497 
		303.164,283.497 303.117,283.497 303.059,283.497 303,283.497 302.952,283.497 302.894,283.49 302.835,283.49 302.789,283.483 
		302.741,283.479 302.683,283.472 302.636,283.468 302.591,283.461 302.545,283.45 302.496,283.45 302.447,283.438 302.402,283.438 
		302.369,283.425 302.33,283.414 302.297,283.414 302.271,283.402 302.238,283.391 302.213,283.379 302.18,283.367 302.154,283.367 
		302.145,283.355 302.122,283.344 302.108,283.333 	"/>
	<line fill="none" stroke="#232323" stroke-miterlimit="10" x1="331.555" y1="282.654" x2="303.325" y2="283.497"/>
	<line fill="none" stroke="#232323" stroke-miterlimit="10" x1="302.108" y1="283.333" x2="295.688" y2="277.788"/>
	<line fill="none" stroke="#232323" stroke-miterlimit="10" x1="295.688" y1="277.788" x2="295.924" y2="262.118"/>
	<polyline fill="none" stroke="#232323" stroke-miterlimit="10" points="332.349,282.479 332.349,282.484 332.336,282.496 
		332.336,282.508 332.323,282.521 332.304,282.525 332.291,282.537 332.277,282.548 332.255,282.559 332.232,282.573 
		332.205,282.573 332.174,282.584 332.138,282.595 332.115,282.595 332.079,282.606 332.033,282.618 331.997,282.618 
		331.952,282.631 331.907,282.631 331.857,282.643 331.81,282.643 331.763,282.643 331.718,282.654 331.659,282.654 
		331.613,282.654 331.555,282.654 	"/>
	<polyline fill="none" stroke="#232323" stroke-miterlimit="10" points="295.688,277.788 295.677,277.776 295.677,277.764 
		295.663,277.751 295.663,277.742 	"/>
	<polyline fill="none" stroke="#232323" stroke-miterlimit="10" points="262.748,248.455 262.688,248.455 262.644,248.455 
		262.585,248.455 262.526,248.455 262.468,248.455 262.421,248.455 262.363,248.455 262.305,248.451 262.256,248.451 
		262.198,248.444 262.148,248.438 262.104,248.433 262.045,248.426 261.998,248.421 261.953,248.415 261.914,248.409 
		261.868,248.403 261.837,248.396 261.79,248.385 261.751,248.38 261.72,248.374 261.684,248.362 261.66,248.356 261.624,248.344 
		261.602,248.333 261.576,248.322 261.557,248.309 261.543,248.297 261.531,248.286 	"/>
	<line fill="none" stroke="#232323" stroke-miterlimit="10" x1="279.521" y1="247.959" x2="262.748" y2="248.455"/>
	<line fill="none" stroke="#232323" stroke-miterlimit="10" x1="261.531" y1="248.292" x2="255.111" y2="242.747"/>
	<line fill="none" stroke="#232323" stroke-miterlimit="10" x1="255.111" y1="242.747" x2="255.131" y2="240.729"/>
	<polyline fill="none" stroke="#232323" stroke-miterlimit="10" points="255.111,242.747 255.098,242.736 255.084,242.723 
		255.084,242.718 255.084,242.707 	"/>
	<polyline fill="none" stroke="#232323" stroke-miterlimit="10" points="36.899,255.164 36.853,255.164 36.795,255.164 
		36.749,255.164 36.69,255.164 36.632,255.164 36.574,255.164 36.528,255.164 36.47,255.164 36.411,255.164 36.361,255.152 
		36.313,255.152 36.254,255.142 36.208,255.142 36.163,255.128 36.118,255.128 36.072,255.119 36.023,255.112 35.987,255.105 
		35.955,255.094 35.906,255.089 35.871,255.083 35.847,255.072 35.812,255.065 35.789,255.054 35.767,255.042 35.74,255.036 
		35.721,255.024 35.708,255.012 35.694,255.001 	"/>
	<line fill="none" stroke="#232323" stroke-miterlimit="10" x1="55.887" y1="254.603" x2="36.912" y2="255.164"/>
	<line fill="none" stroke="#232323" stroke-miterlimit="10" x1="35.682" y1="255.001" x2="29.275" y2="249.456"/>
	<line fill="none" stroke="#232323" stroke-miterlimit="10" x1="29.262" y1="249.456" x2="29.529" y2="231.851"/>
	<polyline fill="none" stroke="#232323" stroke-miterlimit="10" points="29.262,249.456 29.25,249.444 29.25,249.432 
		29.236,249.427 29.236,249.416 	"/>
	<polyline fill="none" stroke="#232323" stroke-miterlimit="10" points="259.834,362.772 259.844,362.782 259.87,362.795 
		259.883,362.805 259.902,362.818 259.928,362.831 259.961,362.831 259.986,362.848 260.02,362.854 260.059,362.864 260.092,362.87 
		260.137,362.877 260.176,362.89 260.222,362.894 260.267,362.899 260.312,362.906 260.361,362.909 260.406,362.916 
		260.456,362.923 260.515,362.923 260.56,362.929 260.619,362.936 260.664,362.936 260.723,362.936 260.781,362.942 260.84,362.942 
		260.886,362.942 260.944,362.942 260.992,362.942 261.051,362.942 	"/>
	<polyline fill="none" stroke="#232323" stroke-miterlimit="10" points="262.748,248.455 262.688,248.455 262.644,248.455 
		262.585,248.455 262.526,248.455 262.468,248.455 262.421,248.455 262.363,248.455 262.305,248.451 262.256,248.451 
		262.198,248.444 262.148,248.438 262.104,248.433 262.045,248.426 261.998,248.421 261.953,248.415 261.914,248.409 
		261.868,248.403 261.837,248.396 261.79,248.385 261.751,248.38 261.72,248.374 261.684,248.362 261.66,248.356 261.624,248.344 
		261.602,248.333 261.576,248.322 261.557,248.309 261.543,248.297 261.531,248.286 	"/>
	<line fill="none" stroke="#232323" stroke-miterlimit="10" x1="261.531" y1="248.292" x2="255.111" y2="242.747"/>
	<polyline fill="none" stroke="#232323" stroke-miterlimit="10" points="255.111,242.747 255.098,242.736 255.084,242.723 
		255.084,242.718 255.084,242.707 	"/>
	<line fill="none" stroke="#232323" stroke-miterlimit="10" x1="279.521" y1="247.959" x2="262.748" y2="248.455"/>
	<line fill="none" stroke="#232323" stroke-miterlimit="10" x1="261.051" y1="362.936" x2="289.277" y2="362.105"/>
	<line fill="none" stroke="#232323" stroke-miterlimit="10" x1="253.411" y1="357.226" x2="259.834" y2="362.779"/>
	<line fill="none" stroke="#232323" stroke-miterlimit="10" x1="253.411" y1="357.226" x2="255.111" y2="242.747"/>
	<polyline fill="none" stroke="#232323" stroke-miterlimit="10" points="289.277,362.105 289.336,362.105 289.381,362.092 
		289.43,362.092 289.488,362.092 289.538,362.082 289.583,362.082 289.628,362.082 289.674,362.069 289.71,362.069 289.758,362.057 
		289.791,362.05 289.827,362.04 289.863,362.033 289.895,362.03 289.922,362.018 289.955,362.011 289.98,361.998 289.993,361.992 
		290.013,361.982 290.039,361.973 290.052,361.966 290.061,361.953 290.061,361.939 290.071,361.93 290.071,361.917 	"/>
	<polyline fill="none" stroke="#232323" stroke-miterlimit="10" points="253.389,357.187 253.389,357.196 253.399,357.213 
		253.399,357.226 253.411,357.226 	"/>
	<polyline fill="none" stroke="#232323" stroke-miterlimit="10" points="33.999,369.484 34.012,369.498 34.021,369.505 
		34.048,369.515 34.067,369.527 34.093,369.537 34.116,369.544 34.152,369.557 34.184,369.563 34.223,369.573 34.256,369.579 
		34.291,369.586 34.341,369.596 34.373,369.603 34.418,369.609 34.467,369.615 34.516,369.628 34.562,369.628 34.62,369.638 
		34.666,369.638 34.725,369.638 34.77,369.647 34.829,369.647 34.875,369.647 34.933,369.647 34.991,369.647 35.05,369.647 
		35.099,369.647 35.158,369.647 35.216,369.647 	"/>
	<polyline fill="none" stroke="#232323" stroke-miterlimit="10" points="36.899,255.164 36.853,255.164 36.795,255.164 
		36.749,255.164 36.69,255.164 36.632,255.164 36.574,255.164 36.528,255.164 36.47,255.164 36.411,255.164 36.361,255.152 
		36.313,255.152 36.254,255.142 36.208,255.142 36.163,255.128 36.118,255.128 36.072,255.119 36.023,255.112 35.987,255.105 
		35.955,255.094 35.906,255.089 35.871,255.083 35.847,255.072 35.812,255.065 35.789,255.054 35.767,255.042 35.74,255.036 
		35.721,255.024 35.708,255.012 35.694,255.001 	"/>
	<line fill="none" stroke="#232323" stroke-miterlimit="10" x1="35.682" y1="255.001" x2="29.275" y2="249.456"/>
	<polyline fill="none" stroke="#232323" stroke-miterlimit="10" points="29.262,249.456 29.25,249.444 29.25,249.432 
		29.236,249.427 29.236,249.416 	"/>
	<line fill="none" stroke="#232323" stroke-miterlimit="10" x1="55.887" y1="254.603" x2="36.912" y2="255.164"/>
	<line fill="none" stroke="#232323" stroke-miterlimit="10" x1="35.216" y1="369.647" x2="63.441" y2="368.808"/>
	<line fill="none" stroke="#232323" stroke-miterlimit="10" x1="27.577" y1="363.941" x2="33.999" y2="369.484"/>
	<line fill="none" stroke="#232323" stroke-miterlimit="10" x1="27.577" y1="363.941" x2="29.275" y2="249.456"/>
	<polyline fill="none" stroke="#232323" stroke-miterlimit="10" points="63.441,368.808 63.487,368.808 63.545,368.808 
		63.594,368.808 63.643,368.795 63.702,368.795 63.747,368.795 63.793,368.781 63.829,368.781 63.878,368.771 63.91,368.771 
		63.956,368.762 63.992,368.749 64.027,368.749 64.05,368.736 64.086,368.727 64.108,368.727 64.132,368.707 64.157,368.703 
		64.177,368.69 64.19,368.678 64.203,368.671 64.216,368.661 64.226,368.651 64.226,368.639 64.226,368.632 	"/>
	<polyline fill="none" stroke="#232323" stroke-miterlimit="10" points="27.553,363.893 27.553,363.905 27.553,363.919 
		27.563,363.932 27.577,363.941 	"/>
	<line fill="none" stroke="#232323" stroke-miterlimit="10" x1="302.108" y1="283.333" x2="295.688" y2="277.788"/>
	<polyline fill="none" stroke="#232323" stroke-miterlimit="10" points="295.688,277.788 295.677,277.776 295.677,277.764 
		295.663,277.751 295.663,277.742 	"/>
	<polyline fill="none" stroke="#232323" stroke-miterlimit="10" points="332.349,282.479 332.349,282.484 332.336,282.496 
		332.336,282.508 332.323,282.521 332.304,282.525 332.291,282.537 332.277,282.548 332.255,282.559 332.232,282.573 
		332.205,282.573 332.174,282.584 332.138,282.595 332.115,282.595 332.079,282.606 332.033,282.618 331.997,282.618 
		331.952,282.631 331.907,282.631 331.857,282.643 331.81,282.643 331.763,282.643 331.718,282.654 331.659,282.654 
		331.613,282.654 331.555,282.654 	"/>
	<line fill="none" stroke="#232323" stroke-miterlimit="10" x1="331.555" y1="282.654" x2="303.325" y2="283.497"/>
	<polyline fill="none" stroke="#232323" stroke-miterlimit="10" points="303.325,283.497 303.28,283.497 303.222,283.497 
		303.164,283.497 303.117,283.497 303.059,283.497 303,283.497 302.952,283.497 302.894,283.49 302.835,283.49 302.789,283.483 
		302.741,283.479 302.683,283.472 302.636,283.468 302.591,283.461 302.545,283.45 302.496,283.45 302.447,283.438 302.402,283.438 
		302.369,283.425 302.33,283.414 302.297,283.414 302.271,283.402 302.238,283.391 302.213,283.379 302.18,283.367 302.154,283.367 
		302.145,283.355 302.122,283.344 302.108,283.333 	"/>
	<polyline fill="none" stroke="#232323" stroke-miterlimit="10" points="300.426,397.811 300.436,397.83 300.448,397.83 
		300.475,397.84 300.494,397.854 300.521,397.863 300.543,397.876 300.579,397.89 300.602,397.89 300.646,397.899 300.683,397.912 
		300.716,397.912 300.765,397.922 300.8,397.935 300.846,397.935 300.891,397.948 300.94,397.951 300.988,397.958 301.049,397.964 
		301.094,397.964 301.151,397.968 301.196,397.974 301.255,397.974 301.302,397.974 301.36,397.98 301.419,397.98 301.477,397.98 
		301.522,397.98 301.582,397.98 301.63,397.98 	"/>
	<line fill="none" stroke="#232323" stroke-miterlimit="10" x1="301.641" y1="397.98" x2="329.868" y2="397.141"/>
	<line fill="none" stroke="#232323" stroke-miterlimit="10" x1="294.004" y1="392.271" x2="300.426" y2="397.817"/>
	<line fill="none" stroke="#232323" stroke-miterlimit="10" x1="294.004" y1="392.271" x2="295.699" y2="277.788"/>
	<polyline fill="none" stroke="#232323" stroke-miterlimit="10" points="329.855,397.141 329.914,397.141 329.973,397.134 
		330.018,397.134 330.067,397.127 330.115,397.121 330.174,397.121 330.221,397.114 330.253,397.107 330.301,397.104 
		330.337,397.098 330.37,397.092 330.418,397.082 330.454,397.075 330.477,397.068 330.513,397.056 330.536,397.049 
		330.559,397.033 330.582,397.033 330.591,397.023 330.617,397.011 330.63,396.998 330.64,396.988 330.65,396.975 330.65,396.965 
		330.65,396.965 	"/>
	<polyline fill="none" stroke="#232323" stroke-miterlimit="10" points="293.981,392.225 293.981,392.238 293.981,392.251 
		293.99,392.261 294.004,392.268 	"/>
	<line fill="none" stroke="#232323" stroke-miterlimit="10" x1="76.273" y1="290.042" x2="69.854" y2="284.489"/>
	<polyline fill="none" stroke="#232323" stroke-miterlimit="10" points="69.854,284.496 69.841,284.485 69.828,284.474 
		69.828,284.467 69.828,284.456 	"/>
	<polyline fill="none" stroke="#232323" stroke-miterlimit="10" points="106.501,289.187 106.501,289.193 106.501,289.205 
		106.487,289.216 106.478,289.228 106.468,289.239 106.454,289.252 106.442,289.264 106.42,289.264 106.384,289.275 106.36,289.286 
		106.337,289.297 106.301,289.297 106.266,289.311 106.234,289.322 106.198,289.322 106.148,289.333 106.104,289.333 
		106.07,289.344 106.022,289.351 105.973,289.351 105.928,289.356 105.87,289.362 105.823,289.362 105.765,289.369 105.72,289.369 	
		"/>
	<line fill="none" stroke="#232323" stroke-miterlimit="10" x1="105.72" y1="289.369" x2="77.491" y2="290.206"/>
	<polyline fill="none" stroke="#232323" stroke-miterlimit="10" points="77.491,290.206 77.432,290.206 77.387,290.206 
		77.328,290.206 77.269,290.206 77.21,290.206 77.166,290.206 77.106,290.206 77.058,290.199 77.002,290.199 76.943,290.193 
		76.895,290.186 76.846,290.181 76.8,290.176 76.742,290.17 76.696,290.164 76.66,290.158 76.611,290.152 76.566,290.147 
		76.534,290.134 76.495,290.129 76.462,290.123 76.426,290.104 76.403,290.104 76.368,290.093 76.345,290.082 76.322,290.071 
		76.312,290.06 76.286,290.046 76.273,290.035 	"/>
	<polyline fill="none" stroke="#232323" stroke-miterlimit="10" points="74.581,404.521 74.59,404.53 74.613,404.543 
		74.626,404.556 74.649,404.569 74.671,404.579 74.708,404.579 74.73,404.589 74.766,404.602 74.802,404.614 74.834,404.621 
		74.883,404.628 74.919,404.638 74.965,404.644 74.997,404.646 75.056,404.653 75.105,404.66 75.153,404.666 75.199,404.673 
		75.244,404.673 75.303,404.68 75.362,404.686 75.407,404.686 75.466,404.686 75.524,404.689 75.583,404.689 75.632,404.689 
		75.687,404.689 75.736,404.689 75.794,404.689 	"/>
	<line fill="none" stroke="#232323" stroke-miterlimit="10" x1="75.794" y1="404.686" x2="104.02" y2="403.853"/>
	<line fill="none" stroke="#232323" stroke-miterlimit="10" x1="68.155" y1="398.977" x2="74.581" y2="404.521"/>
	<line fill="none" stroke="#232323" stroke-miterlimit="10" x1="68.155" y1="398.977" x2="69.854" y2="284.489"/>
	<polyline fill="none" stroke="#232323" stroke-miterlimit="10" points="104.02,403.853 104.078,403.853 104.127,403.84 
		104.172,403.84 104.231,403.84 104.28,403.83 104.325,403.83 104.372,403.823 104.417,403.82 104.456,403.813 104.502,403.807 
		104.534,403.801 104.573,403.787 104.606,403.784 104.642,403.777 104.664,403.765 104.7,403.762 104.723,403.748 104.736,403.742 
		104.759,403.729 104.781,403.719 104.795,403.713 104.805,403.703 104.805,403.689 104.805,403.677 104.817,403.667 	"/>
	<polyline fill="none" stroke="#232323" stroke-miterlimit="10" points="68.135,398.935 68.135,398.947 68.145,398.957 
		68.145,398.97 68.155,398.977 	"/>
	<line fill="none" stroke="#232323" stroke-miterlimit="10" x1="102.969" y1="541.031" x2="104.092" y2="465.248"/>
	<polyline fill="none" stroke="#232323" stroke-miterlimit="10" points="104.092,465.245 104.092,465.173 104.092,465.095 
		104.105,465.02 104.114,464.952 104.127,464.873 104.137,464.803 104.164,464.73 104.183,464.658 104.208,464.581 104.231,464.517 
		104.267,464.447 104.3,464.378 104.339,464.308 104.372,464.236 104.408,464.178 104.444,464.111 104.489,464.05 104.534,463.991 
		104.583,463.934 104.642,463.875 104.691,463.822 104.736,463.767 104.805,463.708 104.853,463.663 104.912,463.617 
		104.98,463.578 105.039,463.522 105.106,463.486 105.167,463.455 105.237,463.419 105.309,463.383 105.381,463.353 
		105.439,463.324 105.508,463.302 105.589,463.278 105.661,463.253 105.729,463.243 105.798,463.22 105.882,463.207 
		105.954,463.207 106.022,463.194 106.104,463.194 	"/>
	<line fill="none" stroke="#232323" stroke-miterlimit="10" x1="106.104" y1="463.194" x2="294.401" y2="457.598"/>
	<polyline fill="none" stroke="#232323" stroke-miterlimit="10" points="294.401,457.598 294.472,457.598 294.554,457.598 
		294.621,457.605 294.693,457.608 294.766,457.622 294.833,457.642 294.901,457.65 294.974,457.673 295.058,457.687 
		295.127,457.709 295.186,457.744 295.253,457.774 295.324,457.803 295.383,457.839 295.441,457.875 295.514,457.908 
		295.572,457.953 295.631,457.992 295.688,458.045 295.735,458.09 295.794,458.142 295.839,458.187 295.885,458.247 
		295.934,458.306 295.982,458.356 296.027,458.422 296.061,458.48 296.1,458.545 296.133,458.611 296.169,458.683 296.191,458.741 
		296.227,458.809 296.25,458.878 296.272,458.95 296.295,459.021 296.308,459.089 296.321,459.161 296.33,459.242 296.341,459.314 
		296.341,459.382 296.353,459.464 296.353,459.534 	"/>
	<line fill="none" stroke="#232323" stroke-miterlimit="10" x1="296.353" y1="459.534" x2="295.234" y2="535.321"/>
	<polyline fill="none" stroke="#232323" stroke-miterlimit="10" points="295.234,535.321 295.234,535.393 295.221,535.479 
		295.208,535.546 295.208,535.627 295.186,535.699 295.175,535.768 295.149,535.843 295.136,535.921 295.116,535.993 
		295.077,536.054 295.058,536.129 295.019,536.188 294.985,536.266 294.951,536.33 294.915,536.399 294.869,536.457 
		294.824,536.523 294.774,536.582 294.729,536.646 294.68,536.691 294.635,536.751 294.576,536.803 294.518,536.857 294.46,536.904 
		294.401,536.949 294.343,536.994 294.271,537.044 294.212,537.08 294.144,537.125 294.085,537.16 294.016,537.183 293.945,537.219 
		293.873,537.241 293.805,537.271 293.737,537.294 293.665,537.313 293.593,537.33 293.512,537.347 293.443,537.36 293.373,537.366 
		293.29,537.372 293.223,537.383 	"/>
	<line fill="none" stroke="#232323" stroke-miterlimit="10" x1="293.223" y1="537.38" x2="104.922" y2="542.975"/>
	<polyline fill="none" stroke="#232323" stroke-miterlimit="10" points="104.922,542.975 104.853,542.975 104.769,542.975 
		104.7,542.961 104.631,542.961 104.561,542.952 104.476,542.938 104.408,542.916 104.339,542.902 104.267,542.88 104.195,542.857 
		104.127,542.827 104.069,542.799 104,542.769 103.928,542.729 103.87,542.69 103.812,542.658 103.739,542.623 103.694,542.571 
		103.636,542.529 103.577,542.482 103.519,542.424 103.473,542.379 103.424,542.326 103.379,542.269 103.344,542.213 
		103.297,542.157 103.252,542.085 103.213,542.026 103.18,541.955 103.155,541.896 103.122,541.829 103.096,541.763 
		103.077,541.688 103.038,541.63 103.027,541.552 103.005,541.477 102.991,541.409 102.978,541.331 102.978,541.259 
		102.969,541.185 102.969,541.115 102.969,541.037 	"/>
	<polyline fill="none" stroke="#232323" stroke-miterlimit="10" points="106.031,463.136 105.964,463.136 105.882,463.149 
		105.811,463.149 105.739,463.161 105.661,463.184 105.589,463.2 105.517,463.22 105.448,463.243 105.381,463.266 105.309,463.295 
		105.237,463.324 105.167,463.36 105.098,463.396 105.039,463.436 104.97,463.472 104.912,463.514 104.84,463.559 104.795,463.604 
		104.736,463.652 104.678,463.708 104.631,463.758 104.573,463.816 104.514,463.875 104.466,463.934 104.431,463.991 
		104.384,464.061 104.339,464.119 104.3,464.184 104.267,464.248 104.231,464.32 104.195,464.389 104.172,464.456 104.137,464.522 
		104.114,464.601 104.092,464.672 104.078,464.739 104.059,464.809 	"/>
	<line fill="none" stroke="#232323" stroke-miterlimit="10" x1="294.329" y1="457.539" x2="106.031" y2="463.136"/>
	<polyline fill="none" stroke="#232323" stroke-miterlimit="10" points="102.933,541.354 102.946,541.418 102.958,541.493 
		102.978,541.565 103.005,541.63 103.027,541.698 103.05,541.771 103.086,541.838 103.122,541.91 103.155,541.969 103.193,542.034 
		103.225,542.093 103.271,542.157 103.311,542.213 103.366,542.269 103.414,542.32 103.46,542.379 103.505,542.424 103.552,542.46 	
		"/>
	<polyline fill="none" stroke="#232323" stroke-miterlimit="10" points="295.631,457.995 295.618,457.986 295.56,457.934 
		295.502,457.895 295.441,457.85 295.383,457.816 295.312,457.78 295.253,457.744 295.186,457.716 295.127,457.687 295.058,457.65 
		294.985,457.628 294.915,457.614 294.844,457.592 294.774,457.583 294.707,457.569 294.621,457.55 294.554,457.547 
		294.485,457.539 294.401,457.539 294.329,457.539 	"/>
	<polyline fill="none" stroke="#232323" stroke-miterlimit="10" points="39.965,504.665 39.965,504.606 39.978,504.534 
		39.988,504.466 39.988,504.394 40.01,504.332 40.024,504.268 40.046,504.195 40.056,504.138 40.095,504.073 40.115,504.007 
		40.154,503.948 40.174,503.89 40.213,503.828 40.245,503.776 40.291,503.718 40.339,503.659 40.375,503.609 40.421,503.557 
		40.466,503.512 40.516,503.46 40.574,503.415 40.629,503.376 40.678,503.337 40.737,503.298 40.795,503.259 40.854,503.226 
		40.912,503.2 40.971,503.167 41.04,503.142 41.098,503.122 41.169,503.096 41.229,503.079 41.3,503.07 41.368,503.057 
		41.427,503.043 41.495,503.037 41.566,503.037 	"/>
	<line fill="none" stroke="#232323" stroke-miterlimit="10" x1="39.907" y1="509.137" x2="66.553" y2="532.147"/>
	<line fill="none" stroke="#232323" stroke-miterlimit="10" x1="39.907" y1="509.137" x2="39.965" y2="504.665"/>
	<line fill="none" stroke="#232323" stroke-miterlimit="10" x1="41.566" y1="503.037" x2="53.523" y2="502.687"/>
	<polyline fill="none" stroke="#232323" stroke-miterlimit="10" points="40.421,510.279 40.388,510.237 40.339,510.198 
		40.291,510.148 40.258,510.104 40.213,510.055 40.164,509.996 40.141,509.945 40.105,509.893 40.07,509.834 40.046,509.775 
		40.024,509.71 39.998,509.651 39.978,509.59 39.952,509.531 39.939,509.465 39.92,509.4 39.92,509.332 39.907,509.273 
		39.907,509.203 39.894,509.131 	"/>
	<polyline fill="none" stroke="#232323" stroke-miterlimit="10" points="53.523,502.682 53.591,502.682 53.65,502.682 
		53.722,502.687 53.78,502.692 53.852,502.712 53.92,502.721 53.979,502.734 54.037,502.757 54.105,502.78 54.164,502.803 
		54.223,502.835 54.282,502.861 54.34,502.895 54.398,502.926 54.447,502.968 54.503,503.004 54.551,503.037 	"/>
	<polyline fill="none" stroke="#232323" stroke-miterlimit="10" points="41.066,430.578 41.066,430.513 41.066,430.44 
		41.079,430.372 41.088,430.308 41.098,430.246 41.125,430.174 41.147,430.108 41.157,430.043 41.183,429.984 41.215,429.917 
		41.241,429.858 41.273,429.8 41.31,429.74 41.346,429.682 41.391,429.624 41.427,429.572 41.476,429.517 41.521,429.471 
		41.566,429.425 41.612,429.373 41.671,429.324 41.72,429.285 41.778,429.25 41.828,429.204 41.896,429.168 41.954,429.146 
		42.013,429.109 42.068,429.08 42.139,429.054 42.198,429.034 42.257,429.002 42.328,428.992 42.4,428.979 42.458,428.969 
		42.527,428.956 42.586,428.943 42.667,428.943 	"/>
	<line fill="none" stroke="#232323" stroke-miterlimit="10" x1="40.994" y1="435.05" x2="67.653" y2="458.061"/>
	<line fill="none" stroke="#232323" stroke-miterlimit="10" x1="40.994" y1="435.05" x2="41.066" y2="430.571"/>
	<line fill="none" stroke="#232323" stroke-miterlimit="10" x1="42.654" y1="428.943" x2="54.61" y2="428.595"/>
	<polyline fill="none" stroke="#232323" stroke-miterlimit="10" points="41.521,436.187 41.486,436.15 41.427,436.104 
		41.391,436.06 41.346,436.01 41.31,435.961 41.264,435.905 41.241,435.857 41.205,435.799 41.169,435.74 41.137,435.682 
		41.111,435.623 41.088,435.561 41.066,435.503 41.052,435.438 41.04,435.379 41.02,435.311 41.02,435.245 41.007,435.18 
		41.007,435.109 40.994,435.044 	"/>
	<polyline fill="none" stroke="#232323" stroke-miterlimit="10" points="54.62,428.595 54.678,428.595 54.75,428.595 
		54.809,428.595 54.88,428.604 54.952,428.617 55.01,428.631 55.079,428.641 55.138,428.67 55.206,428.689 55.264,428.709 
		55.323,428.741 55.381,428.768 55.44,428.807 55.485,428.84 55.544,428.875 55.603,428.917 55.652,428.949 	"/>
	<line fill="none" stroke="#232323" stroke-miterlimit="10" x1="90.01" y1="417.862" x2="346.092" y2="410.252"/>
	<line fill="none" stroke="#232323" stroke-miterlimit="10" x1="346.092" y1="410.252" x2="345.507" y2="450.141"/>
	<line fill="none" stroke="#232323" stroke-miterlimit="10" x1="345.507" y1="450.141" x2="89.424" y2="457.744"/>
	<line fill="none" stroke="#232323" stroke-miterlimit="10" x1="89.424" y1="457.752" x2="90.01" y2="417.862"/>
	<line fill="none" stroke="#232323" stroke-miterlimit="10" x1="26.736" y1="403.631" x2="89.424" y2="457.744"/>
	<line fill="none" stroke="#232323" stroke-miterlimit="10" x1="27.332" y1="363.742" x2="26.736" y2="403.631"/>
	<line fill="none" stroke="#232323" stroke-miterlimit="10" x1="27.332" y1="363.742" x2="90.01" y2="417.856"/>
	<line fill="none" stroke="#232323" stroke-miterlimit="10" x1="253.389" y1="357.027" x2="105.439" y2="361.425"/>
	<line fill="none" stroke="#232323" stroke-miterlimit="10" x1="68.669" y1="362.513" x2="64.307" y2="362.649"/>
	<line fill="none" stroke="#232323" stroke-miterlimit="10" x1="27.553" y1="363.742" x2="27.332" y2="363.742"/>
	<line fill="none" stroke="#232323" stroke-miterlimit="10" x1="290.061" y1="361.881" x2="294.368" y2="365.592"/>
	<line fill="none" stroke="#232323" stroke-miterlimit="10" x1="330.65" y1="396.916" x2="346.092" y2="410.252"/>
	<polyline fill="none" stroke="#232323" stroke-miterlimit="10" points="31.73,526.553 31.756,526.562 31.765,526.572 
		31.789,526.598 31.811,526.611 31.834,526.62 31.87,526.631 31.905,526.644 31.938,526.656 31.977,526.67 32.023,526.679 
		32.055,526.686 32.104,526.695 32.153,526.708 32.198,526.722 32.257,526.728 32.303,526.738 32.361,526.744 32.419,526.761 
		32.479,526.761 32.537,526.772 32.596,526.772 32.667,526.786 32.726,526.786 32.785,526.797 32.853,526.797 32.921,526.806 
		32.979,526.806 33.051,526.806 33.123,526.806 33.194,526.819 33.25,526.819 33.318,526.819 33.39,526.819 33.461,526.819 
		33.533,526.819 33.602,526.819 33.66,526.819 	"/>
	<polyline fill="none" stroke="#232323" stroke-miterlimit="10" points="35.167,425.226 35.099,425.226 35.04,425.226 
		34.959,425.239 34.9,425.239 34.829,425.226 34.757,425.226 34.688,425.226 34.62,425.226 34.562,425.226 34.49,425.226 
		34.418,425.213 34.35,425.213 34.291,425.199 34.223,425.199 34.165,425.199 34.106,425.184 34.048,425.18 33.976,425.174 
		33.917,425.167 33.872,425.154 33.813,425.147 33.754,425.138 33.709,425.131 33.66,425.122 33.611,425.109 33.565,425.103 
		33.533,425.09 33.484,425.08 33.435,425.063 33.416,425.051 33.377,425.037 33.345,425.024 33.318,425.015 33.299,425.005 
		33.272,424.992 33.25,424.979 33.24,424.969 	"/>
	<line fill="none" stroke="#232323" stroke-miterlimit="10" x1="33.24" y1="424.969" x2="27.075" y2="419.653"/>
	<polyline fill="none" stroke="#232323" stroke-miterlimit="10" points="27.075,419.646 27.062,419.634 27.049,419.62 
		27.049,419.61 27.039,419.598 27.039,419.588 27.039,419.575 27.039,419.562 27.049,419.539 27.062,419.529 27.075,419.517 
		27.088,419.504 27.098,419.494 27.133,419.48 27.156,419.471 27.179,419.458 27.205,419.445 27.238,419.436 27.273,419.426 
		27.309,419.412 27.342,419.399 27.391,419.386 27.427,419.376 27.472,419.376 27.517,419.366 27.563,419.354 27.622,419.354 
		27.68,419.341 27.729,419.327 27.788,419.327 27.846,419.317 27.915,419.317 27.973,419.308 28.032,419.308 28.091,419.308 
		28.162,419.295 28.234,419.295 28.292,419.295 	"/>
	<line fill="none" stroke="#232323" stroke-miterlimit="10" x1="28.292" y1="419.295" x2="44.314" y2="418.82"/>
	<line fill="none" stroke="#232323" stroke-miterlimit="10" x1="51.196" y1="424.751" x2="35.167" y2="425.232"/>
	<line fill="none" stroke="#232323" stroke-miterlimit="10" x1="33.66" y1="526.819" x2="58.715" y2="526.07"/>
	<line fill="none" stroke="#232323" stroke-miterlimit="10" x1="25.577" y1="521.239" x2="31.73" y2="526.553"/>
	<polyline fill="none" stroke="#232323" stroke-miterlimit="10" points="25.542,521.168 25.542,521.168 25.542,521.181 
		25.542,521.194 25.551,521.211 25.564,521.227 25.577,521.239 	"/>
	<line fill="none" stroke="#232323" stroke-miterlimit="10" x1="299.198" y1="453.376" x2="297.114" y2="451.58"/>
	<line fill="none" stroke="#232323" stroke-miterlimit="10" x1="327.316" y1="450.681" x2="329.412" y2="452.484"/>
	<polyline fill="none" stroke="#232323" stroke-miterlimit="10" points="329.412,452.484 329.426,452.498 329.426,452.511 
		329.437,452.527 329.437,452.539 329.437,452.55 329.437,452.562 329.437,452.575 329.426,452.586 329.412,452.598 329.4,452.622 
		329.387,452.634 329.367,452.645 329.342,452.656 329.319,452.667 329.295,452.681 329.26,452.692 329.236,452.695 
		329.201,452.709 329.165,452.72 329.134,452.731 329.084,452.739 329.039,452.751 328.989,452.756 328.944,452.768 
		328.898,452.771 328.84,452.778 328.795,452.798 328.736,452.798 328.687,452.81 328.628,452.81 328.561,452.82 328.501,452.82 
		328.442,452.82 328.384,452.829 328.312,452.829 328.253,452.829 328.183,452.829 	"/>
	<line fill="none" stroke="#232323" stroke-miterlimit="10" x1="328.183" y1="452.829" x2="301.126" y2="453.637"/>
	<polyline fill="none" stroke="#232323" stroke-miterlimit="10" points="301.126,453.637 301.058,453.637 300.988,453.637 
		300.918,453.643 300.859,453.643 300.774,453.637 300.716,453.637 300.646,453.637 300.579,453.637 300.507,453.634 
		300.436,453.634 300.377,453.626 300.31,453.62 300.24,453.617 300.182,453.617 300.123,453.611 300.064,453.592 299.993,453.592 
		299.935,453.578 299.876,453.578 299.817,453.568 299.759,453.559 299.713,453.546 299.668,453.546 299.618,453.532 299.57,453.52 
		299.523,453.51 299.479,453.501 299.442,453.487 299.394,453.474 299.374,453.462 299.335,453.451 299.304,453.442 
		299.268,453.429 299.245,453.415 299.231,453.406 299.209,453.39 299.187,453.376 	"/>
	<polyline fill="none" stroke="#232323" stroke-miterlimit="10" points="297.688,554.963 297.711,554.977 297.721,554.988 
		297.747,554.999 297.77,555.021 297.792,555.035 297.828,555.049 297.864,555.058 297.897,555.068 297.937,555.08 297.981,555.094 
		298.014,555.094 298.062,555.106 298.111,555.116 298.156,555.126 298.215,555.139 298.262,555.151 298.32,555.158 
		298.365,555.168 298.437,555.174 298.495,555.182 298.554,555.185 298.612,555.19 298.685,555.197 298.742,555.204 298.812,555.21 
		298.87,555.216 298.938,555.216 299.01,555.224 299.081,555.224 299.15,555.227 299.209,555.227 299.276,555.227 299.349,555.227 
		299.42,555.227 299.492,555.227 299.551,555.227 299.618,555.227 	"/>
	<line fill="none" stroke="#232323" stroke-miterlimit="10" x1="299.618" y1="555.227" x2="326.675" y2="554.426"/>
	<line fill="none" stroke="#232323" stroke-miterlimit="10" x1="291.536" y1="549.654" x2="297.688" y2="554.963"/>
	<polyline fill="none" stroke="#232323" stroke-miterlimit="10" points="326.686,554.426 326.744,554.426 326.815,554.416 
		326.874,554.416 326.946,554.416 327.005,554.403 327.063,554.403 327.121,554.403 327.18,554.391 327.238,554.391 
		327.283,554.377 327.344,554.368 327.389,554.368 327.447,554.357 327.492,554.346 327.541,554.338 327.577,554.326 
		327.622,554.315 327.655,554.31 327.694,554.299 327.728,554.285 327.764,554.273 327.785,554.26 327.821,554.257 327.844,554.24 
		327.857,554.227 327.88,554.215 327.889,554.204 327.902,554.19 327.928,554.182 327.928,554.168 327.938,554.156 327.938,554.146 
			"/>
	<polyline fill="none" stroke="#232323" stroke-miterlimit="10" points="291.49,549.582 291.49,549.582 291.49,549.596 
		291.5,549.605 291.511,549.618 291.511,549.641 291.536,549.654 	"/>
	<polyline fill="none" stroke="#232323" stroke-miterlimit="10" points="72.393,561.655 72.412,561.669 72.426,561.679 
		72.451,561.701 72.471,561.714 72.497,561.728 72.543,561.737 72.569,561.746 72.601,561.76 72.637,561.773 72.683,561.785 
		72.719,561.788 72.764,561.802 72.81,561.812 72.858,561.824 72.917,561.832 72.966,561.844 73.025,561.854 73.083,561.863 
		73.142,561.863 73.2,561.877 73.259,561.877 73.328,561.891 73.386,561.891 73.444,561.899 73.513,561.899 73.584,561.913 
		73.643,561.913 73.714,561.913 73.783,561.913 73.852,561.922 73.91,561.922 73.981,561.922 74.053,561.922 74.125,561.922 
		74.193,561.922 74.248,561.922 74.32,561.922 	"/>
	<polyline fill="none" stroke="#232323" stroke-miterlimit="10" points="75.831,460.329 75.759,460.329 75.687,460.329 
		75.619,460.343 75.563,460.343 75.492,460.329 75.42,460.329 75.349,460.329 75.28,460.329 75.222,460.329 75.14,460.329 
		75.082,460.317 75.01,460.317 74.951,460.307 74.883,460.307 74.824,460.307 74.766,460.29 74.708,460.284 74.639,460.276 
		74.581,460.271 74.531,460.257 74.473,460.254 74.415,460.242 74.366,460.237 74.32,460.226 74.274,460.212 74.229,460.206 
		74.18,460.195 74.145,460.18 74.099,460.167 74.076,460.153 74.041,460.141 74.007,460.131 73.981,460.121 73.958,460.108 
		73.936,460.096 73.91,460.082 73.9,460.073 	"/>
	<line fill="none" stroke="#232323" stroke-miterlimit="10" x1="73.9" y1="460.073" x2="67.735" y2="454.757"/>
	<polyline fill="none" stroke="#232323" stroke-miterlimit="10" points="67.735,454.757 67.725,454.737 67.712,454.727 
		67.712,454.715 67.699,454.704 67.699,454.69 67.699,454.679 67.699,454.668 67.712,454.646 67.725,454.633 67.735,454.62 
		67.745,454.61 67.757,454.598 67.793,454.588 67.816,454.574 67.842,454.562 67.862,454.552 67.9,454.538 67.934,454.529 
		67.97,454.516 68.005,454.51 68.051,454.493 68.086,454.484 68.135,454.484 68.181,454.471 68.227,454.457 68.285,454.457 
		68.344,454.443 68.389,454.435 68.448,454.435 68.506,454.424 68.578,454.424 68.637,454.412 68.695,454.412 68.754,454.412 
		68.826,454.398 68.894,454.398 68.952,454.398 	"/>
	<line fill="none" stroke="#232323" stroke-miterlimit="10" x1="68.952" y1="454.398" x2="84.978" y2="453.92"/>
	<line fill="none" stroke="#232323" stroke-miterlimit="10" x1="102.021" y1="457.377" x2="104.114" y2="459.184"/>
	<polyline fill="none" stroke="#232323" stroke-miterlimit="10" points="104.114,459.184 104.127,459.197 104.137,459.206 
		104.137,459.22 104.137,459.229 104.137,459.242 104.137,459.256 104.137,459.272 104.127,459.281 104.114,459.295 
		104.105,459.314 104.092,459.323 104.069,459.334 104.059,459.346 104.02,459.359 104,459.373 103.961,459.376 103.941,459.393 
		103.903,459.405 103.87,459.418 103.835,459.432 103.786,459.432 103.739,459.44 103.694,459.45 103.649,459.464 103.6,459.464 
		103.552,459.477 103.493,459.489 103.434,459.489 103.389,459.5 103.33,459.5 103.271,459.509 103.203,459.509 103.144,459.515 
		103.086,459.522 103.017,459.522 102.958,459.528 102.888,459.528 	"/>
	<line fill="none" stroke="#232323" stroke-miterlimit="10" x1="102.888" y1="459.528" x2="75.831" y2="460.329"/>
	<line fill="none" stroke="#232323" stroke-miterlimit="10" x1="74.32" y1="561.922" x2="101.39" y2="561.115"/>
	<line fill="none" stroke="#232323" stroke-miterlimit="10" x1="66.237" y1="556.344" x2="72.393" y2="561.655"/>
	<polyline fill="none" stroke="#232323" stroke-miterlimit="10" points="101.39,561.115 101.449,561.115 101.521,561.112 
		101.579,561.112 101.646,561.104 101.705,561.096 101.764,561.096 101.823,561.096 101.882,561.082 101.94,561.082 101.985,561.07 
		102.044,561.057 102.102,561.057 102.152,561.047 102.197,561.037 102.243,561.037 102.279,561.024 102.327,561.011 
		102.36,560.998 102.396,560.988 102.432,560.979 102.463,560.966 102.49,560.952 102.522,560.946 102.549,560.938 102.571,560.924 
		102.594,560.913 102.607,560.894 102.616,560.882 102.63,560.871 102.63,560.862 102.641,560.849 102.641,560.835 	"/>
	<polyline fill="none" stroke="#232323" stroke-miterlimit="10" points="66.202,556.274 66.202,556.274 66.202,556.285 
		66.202,556.297 66.215,556.316 66.228,556.333 66.237,556.344 	"/>
</g>
</svg>
