<?xml version="1.0" encoding="utf-8"?>
<!-- Generator: Adobe Illustrator 16.0.0, SVG Export Plug-In . SVG Version: 6.00 Build 0)  -->
<!DOCTYPE svg PUBLIC "-//W3C//DTD SVG 1.1//EN" "http://www.w3.org/Graphics/SVG/1.1/DTD/svg11.dtd">
<svg version="1.1" id="Layer_1" xmlns="http://www.w3.org/2000/svg" xmlns:xlink="http://www.w3.org/1999/xlink" x="0px" y="0px"
	 width="288px" height="612px" viewBox="0 0 288 612" enable-background="new 0 0 288 612" xml:space="preserve">
<g>
	<path fill="none" stroke="#232323" stroke-miterlimit="10" d="M95.662,472.181c-0.235,2.365,1.227,3.155,3.826,4.062
		c13.865,3.489,31.925,2.817,33.954,2.937c2.017,0.102,8.005,0.102,9.583-0.234c1.578-0.338,9.92-2.484,11.381-2.702
		c1.476-0.22,2.047-0.22,2.267,0.89c0.217,1.138,0.67,2.148,1.579,10.389c0.903,8.225,1.239,30.329,1.124,33.252
		c-0.103,2.937,0.45,3.84-1.798,4.633c-2.263,0.785-9.263,3.374-13.195,4.029c-3.958,0.645-12.971,0.366-22.221-0.203
		c-9.249-0.553-31.923-4.516-33.282-4.733c-1.358-0.217-1.227-1.155-1.227-1.155s-6.78-0.089-10.27-0.202
		c-3.495-0.104-3.274-1.127-3.274-1.127c-1.124-1.796-2.819-6.881-2.819-7.888c0.455-2.485-0.555-3.494-1.359-4.735
		c-1.241-1.242-0.438-6.209-0.438-6.209s2.251-25.244,2.701-27.512c0.454-2.248,0-3.708,2.37-3.942
		c4.279-0.793,20.073-3.828,21.532-3.828C96.097,467.899,95.882,469.813,95.662,472.181z"/>
	<path fill="none" stroke="#232323" stroke-miterlimit="10" d="M87.538,523.505c0,0-0.335-1.695,0.569-17.373
		c0.893-15.677,1.799-26.835,1.916-28.65c0.117-1.812,1.007-2.251,2.234-2.817c1.242-0.572,2.267-1.242,3.274-1.462"/>
	<path fill="none" stroke="#232323" stroke-miterlimit="10" d="M99.737,525.988v-19.17c0-8.617,1.447-21.766,1.564-24.822
		c0.117-3.052,0.555-4.63,2.131-4.732"/>
	<path fill="none" stroke="#232323" stroke-miterlimit="10" d="M96.229,459.06c0,0-0.67-9.586,1.012-16.818
		c1.679-7.218,6.046-26.618,6.501-30.68"/>
	<path fill="none" stroke="#232323" stroke-miterlimit="10" d="M96.889,443.747c-1.475-0.335-5.552-0.114-12.286-0.233
		c-6.752-0.102-9.717,3.608-9.717,3.608c-2.381,1.812-2.12,4.853,0.349,8.108c1.242,2.484,9.368,6.545,13.195,8.344
		c3.826,1.797,20.745,9.566,22.881,10.373c2.145,0.772,3.724,2.205,8.339,2.205c7.669-1.067,3.727-3.987,2.602-5.259
		c-1.124-1.256-10.038-4.618-10.038-4.618s-19.155-8.779-21.199-9.687c-2.017-0.904-14.319-5.975-7.891-6.076
		c6.429-0.116,12.069-0.233,13.089,0"/>
	<path fill="none" stroke="#232323" stroke-miterlimit="10" d="M114.728,475.54c0,0-6.414-2.148-4.719-5.625
		c1.68-3.479,6.633-1.563,8.984-0.671"/>
	<path fill="none" stroke="#232323" stroke-miterlimit="10" d="M112.009,400.854c2.82,0.567,3.492,3.052,3.492,4.295
		c0,1.241,1.578,18.495,2.602,22.993c1.021,4.516,4.733,18.381,8.913,23.685c4.165,5.305,9.013,12.067,14.317,11.499
		c4.164-1.126,4.164-3.946,4.164-6.883c0-2.92-0.334-9.129-0.334-9.129"/>
	<path fill="none" stroke="#232323" stroke-miterlimit="10" d="M144.604,529.245c0,0,4.047-12.754,3.492-20.642
		c-0.569-7.906-2-16.817-3.871-20.646c-1.87-3.842-5.715-11.848-9.658-16.815c-3.944-4.968-12.287-18.847-12.287-18.847
		c-3.592-6.766-6.135-16.465-7.101-23.581c-0.687-5.185-1.504-14.625-2.162-20.278"/>
	<path fill="none" stroke="#232323" stroke-miterlimit="10" d="M103.96,527.129c0,0,0.058,2.089,3.667,2.893
		c3.608,0.802,11.279,2.03,14.99,1.926c3.724-0.116,12.741-0.275,16.23-2.217"/>
	<path fill="none" stroke="#232323" stroke-miterlimit="10" d="M94.346,525.549c0,0-5.478-0.159-2.263,1.125
		c2.876,0.511,4.062,0.511,5.302,0.63c1.241,0.101,1.068,0.101,1.358,0.556c0.276,0.454,0.337,1.575,1.503,2.131
		c1.2,0.571,4.633,1.798,9.996,2.806c2.192,0.22,2.702,0.788,2.192,1.185c-0.497,0.394-1.857,1.345,0.173,1.402
		c2.03,0.06,3.551,0.336,4.516-0.513c0.496-0.496,1.006-0.89,2.309-0.89c1.283,0,9.642,0.118,12.74-0.219
		c3.096-0.338,9.467-1.696,10.767-2.367s2.425-0.571,4.049-0.499c1.648,0.046,4.179,0.162,4.965,0.162
		c0.789,0,3.33-0.788-0.904-1.006c-2.646-0.176-4.061-0.28-4.061-0.28s-0.338-0.292-0.22-0.788"/>
	<path fill="none" stroke="#232323" stroke-miterlimit="10" d="M91.072,525.988c0,0,0,7.655-0.056,8.504
		c-0.059,0.847,0.056,1.972,0.056,1.972s-0.173,0.73,1.344,0.789c1.522,0.058,5.421,0.569,6.197,0.569
		c0.056,0.833,0.056,2.309,1.695,2.923c1.635,0.612,5.185,2.365,11.044,3.49"/>
	<path fill="none" stroke="#232323" stroke-miterlimit="10" d="M111.498,535.019c0,0-0.173,8.938-0.173,9.627
		c0,0.673-0.103,1.504,0.949,1.579c1.065,0.043,3.244,0.335,3.578,0c0.334-0.351,0.616-1.081,0.672-3.333
		c0.059-2.251,0.177-7.655,0.177-7.655"/>
	<path fill="none" stroke="#232323" stroke-miterlimit="10" d="M115.648,546.268c0,0,1.52-0.671,2.088-1.184
		c0.394-0.278,2.03-0.334,3.33-0.334c1.302,0,15.167,0.669,21.199-2.589c0.905-0.334,2.53-0.672,3.888-0.614
		c1.358,0.06,5.129,0.28,5.916,0.177c0.792-0.117,1.637-0.072,1.637-1.854c0-1.813,0.335-8.957-0.218-9.352"/>
	<line fill="none" stroke="#232323" stroke-miterlimit="10" x1="98.468" y1="527.449" x2="98.626" y2="537.779"/>
	<line fill="none" stroke="#232323" stroke-miterlimit="10" x1="118.44" y1="534.054" x2="118.322" y2="544.879"/>
	<line fill="none" stroke="#232323" stroke-miterlimit="10" x1="143.831" y1="530.997" x2="143.831" y2="541.781"/>
	<path fill="none" stroke="#232323" stroke-miterlimit="10" d="M144.796,541.62c0,0,1.854,2.647,2.248,3.199
		c0.396,0.572,1.303,2.206-1.124,3.436c-2.427,1.241-10.988,3.199-16.511,3.492c-5.536,0.275-17.136,0.116-20.803-0.73
		c-3.667-0.849-10.038-2.134-12.068-4.837c-0.497-1.243-0.614-1.796,0.175-2.705c0.789-0.89,2.585-3.198,2.585-3.198"/>
	<path fill="none" stroke="#232323" stroke-miterlimit="10" d="M92.256,537.283c0,0,0.497,0.787-4.922,1.241
		c-1.359,0.059-2.366,0.334-2.31,1.124c0.059,0.789,0.059,4.397,0.059,5.068c0,0.675,0.058,0.848,0.396,0.967
		c0.056,0.849-0.178,7.714-0.178,7.714"/>
	<path fill="none" stroke="#232323" stroke-miterlimit="10" d="M86.776,538.538c0,0-3.052,0.673-0.787,1.286
		c2.192,1.361,3.55,2.761,3.433,4.003c-0.117,1.243-1.007,4.28-2.529,6.925c-1.518,2.658-3.724,5.642-6.047,7.262
		c-2.309,1.635-3.095,2.249-4.061,2.82c-0.951,0.571-1.522,1.082,0.628,1.518c2.147,0.454,12.52,2.821,14.829,2.997
		c2.31,0.159,5.64,1.008,10.431-0.744c4.805-1.74,13.032-4.342,18.276-5.509c5.246-1.185,9.308-3.04,17.036-3.608
		c7.728-0.572,13.311-1.187,17.708-0.968c4.398,0.237,13.646,0.689,17.431,0.689c3.771,0,6.822,0.116,8.796,0.058
		c1.974-0.058,2.367-1.022,2.425-2.147c0.059-1.124,0-2.806-1.065-3.491c-1.082-0.672-1.082-0.396-7.117-1.228
		c-6.019-0.849-12.007-1.593-14.142-2.089c-2.146-0.511-15.575-3.551-16.641-4.002"/>
	<path fill="none" stroke="#232323" stroke-miterlimit="10" d="M85.362,545.64c0,0,2.323,2.13,2.323,3.535"/>
	<path fill="none" stroke="#232323" stroke-miterlimit="10" d="M76.172,561.244c0,0-0.393,0.391-0.279,3.198
		c0.101,2.82-0.334,4.061,0.832,4.295c1.199,0.219,12.302,2.921,14.277,3.155c1.986,0.221,4.178,1.288,9.363,0
		c5.188-1.3,19.799-4.792,25.16-5.579c5.347-0.806,18.101-2.719,28.927-3.273c10.842-0.556,21.317-0.848,25.101-1.124
		c3.77-0.281,4.735-0.454,4.793-2.589c0.059-2.146,0.117-6.663,0-7.553"/>
	<line fill="none" stroke="#232323" stroke-miterlimit="10" x1="76.172" y1="568.476" x2="75.938" y2="569.598"/>
	<path fill="none" stroke="#232323" stroke-miterlimit="10" d="M79.209,569.963c0,0,12.551,2.471,13.516,2.705
		c0.951,0.217,2.806,0.335,2.862,2.819c0.061,2.473-0.393,20.153-0.393,20.153s0.159,1.693-1.3,1.575
		c-1.464-0.103-17.052-4.047-17.052-4.047s-1.911,0-1.794-3.608c0.101-3.607,0.394-18.706,0.394-18.706s0.117-1.562,1.283-1.402
		C77.91,569.63,79.209,569.963,79.209,569.963z"/>
	<path fill="none" stroke="#232323" stroke-miterlimit="10" d="M76.842,587.967c0,0-1.518-1.502-0.056-2.861
		c1.461-1.346,5.012-6.064,6.412-7.086c1.405-1.01,3.199-2.196,3.71-2.415c0.496-0.218,0.792-0.218,1.288,0.335
		c0.511,0.571,1.303,0.969,0.235,2.139c-1.068,1.182-4.895,5.07-5.522,5.784c-0.614,0.744-3.48,4.18-3.977,4.732
		c-0.511,0.556-1.18,0.396-1.635,0C76.842,588.201,76.842,587.967,76.842,587.967z"/>
	<path fill="none" stroke="#232323" stroke-miterlimit="10" d="M77.472,584.272c0,0-0.672-3.944,2.25-6.194
		c2.921-2.241,4.323-2.139,5.785-1.742"/>
	<path fill="none" stroke="#232323" stroke-miterlimit="10" d="M78.013,588.933c0,0,1.518,0.393,2.366-0.117
		c0.51-0.849,5.508-7.086,6.253-7.817c0.716-0.744,2.237-1.475,2.237-3.606"/>
	<path fill="none" stroke="#232323" stroke-miterlimit="10" d="M80.496,588.815c0,0,5.349,2.644,7.246-2.41
		c0.848-3.871,0.117-5.112-0.394-5.728"/>
	<path fill="none" stroke="#232323" stroke-miterlimit="10" d="M88.486,579.26c0,0,2.353,3.214,1.522,6.749
		c-0.848,3.538-2.485,4.165-3.713,4.385c-1.243,0.234-4.616-0.22-6.063-1.461"/>
	<path fill="none" stroke="#232323" stroke-miterlimit="10" d="M75.893,592.656l0.059,2.604l2.979,0.51c0,0,4.559-0.747,6.37-0.468
		c1.799,0.29,3.712,2.147,5.35,2.778c1.634,0.609,3.213,2.027,7.273,0.552c4.064-1.461,16.351-6.646,17.869-7.334
		c1.521-0.671,1.622-1.008,1.682-4.222c0.07-3.215,0.173-11.953,0.173-11.953l0.28-7.379"/>
	<path fill="none" stroke="#232323" stroke-miterlimit="10" d="M78.917,595.813c0,0,8.402,0.644,9.41,0.965"/>
	<path fill="none" stroke="#232323" stroke-miterlimit="10" d="M117.679,575.108c0,0,0.728-0.177,1.505-0.293
		c0.773-0.103,0.67-2.017,0.73-3.082c0.042-1.068,0.042-4.398,0.042-4.398"/>
	<path fill="none" stroke="#232323" stroke-miterlimit="10" d="M146.868,563.639c0,0,0.12,20.386,0.12,21.686
		c0,1.299,0,1.402,1.241,1.343c1.241-0.044,31.396,0.394,32.755,0.394c1.345,0,1.957-0.1,2.075-1.458
		c0.116-0.613,0.116-1.344,0.116-1.344s1.521,0.103,1.578-1.027c0.057-1.121,0.102-6.647,0.102-6.647h0.686
		c0,0,0.614,0.058,0.675-0.556c0.73-0.059,1.636-0.118,1.576-0.789c1.52-0.06,3.099-0.292,3.843-0.513
		c0.731-0.219,1.283-0.787,1.283-2.365c0-1.579-0.552-10.756-0.552-10.756s0.158-1.122-1.872-1.297
		c-2.017-0.161-3.098-0.278-2.98,1.518c-0.056,1.476-0.117,2.252-0.117,2.252l-1.065-0.046l-1.024-0.453l-0.057-1.855l-0.395-0.407
		l-0.045-1.405c0,0-0.057-0.276-0.394-0.394"/>
	<path fill="none" stroke="#232323" stroke-miterlimit="10" d="M183.514,561.185c0,0,0.1,4.062,0.1,6.15
		c0,2.09-0.395,17.11-0.395,17.11"/>
	<line fill="none" stroke="#232323" stroke-miterlimit="10" x1="185.25" y1="563.509" x2="185.073" y2="576.598"/>
	<path fill="none" stroke="#232323" stroke-miterlimit="10" d="M187.312,563.977c0,0,0.421-0.061,0.421,0.846v9.173l0.103,1.358"/>
	<path fill="none" stroke="#232323" stroke-miterlimit="10" d="M145.334,435.112l1.098-0.275c0,0,2.468,11.833,3.259,14.536
		c0.786,2.703,6.076,22.09,6.413,23.768c0.351,1.696,0.787,2.385-0.221,2.823"/>
	<path fill="none" stroke="#232323" stroke-miterlimit="10" d="M117.795,426.888c0,0,20.175,0.672,25.129-0.454
		c1.477-0.332,1.358-0.332,2.265-0.787v28.166c0,1.361-0.352,6.312-0.572,7.336"/>
	<path fill="none" stroke="#232323" stroke-miterlimit="10" d="M107.758,391.882c0,0,5.974-2.367,11.045-0.334
		c5.07,2.03,5.642,4.061,7.101,6.646c1.478,2.6,1.812,6.091,1.36,9.248c-0.454,3.154-2.266,6.767-2.937,8.124
		c-0.675,1.358-1.578,2.586,0.905,3.607c2.484,1.009,11.044,3.156,14.656,2.585c3.605-0.555,5.74-1.679,5.185-3.155
		c0.22,2.483,0.117,6.999,0.117,6.999"/>
	<path fill="none" stroke="#232323" stroke-miterlimit="10" d="M145.072,418.809c0,0-1.461-2.249-1.358-4.165
		c0.117-1.913,1.241-3.943,1.358-6.543c0.117-2.585,0.338-7.32-0.117-9.234c-0.438-1.93-2.131-7.891-5.96-9.031
		c-3.492-0.217-11.731,0-17.239-3.826"/>
	<path fill="none" stroke="#232323" stroke-miterlimit="10" d="M123.771,417.67l17.021-1.682c0,0,1.021-0.658,2.249-3.241"/>
	<path fill="none" stroke="#232323" stroke-miterlimit="10" d="M93.324,374.379c0,0-2.937,19.955-3.039,21.417
		c-0.118,1.461,0.337,5.524,1.123,8.345c0.775,2.819,1.345,4.515,4.502,5.188c3.154,0.67,7.653,2.365,8.998,2.482
		c1.359,0.117,6.197,1.124,7.335-1.93c1.11-3.038,1.227-3.155,0.557-5.172c-0.674-2.03-6.534-16.231-7.893-21.419
		c-1.344-5.199-4.717-16.581-4.951-18.042c-0.22-1.477-2.585-4.968-4.384-3.158c-0.904,0.909-1.124,3.729-1.358,5.408
		C93.994,369.191,93.324,374.379,93.324,374.379z"/>
	<path fill="none" stroke="#232323" stroke-miterlimit="10" d="M103.449,413.445c0,0-4.896,1.756-8.781-1.242
		c-3.887-2.979-7.555-9.027-7.948-11.451c-0.379-2.412-0.16-8.403,0.511-12.565c0.672-4.18,2.922-23.07,3.375-25.787"/>
	<path fill="none" stroke="#232323" stroke-miterlimit="10" d="M91.746,384.971c0,0-1.798-24.37-0.557-36.218
		c1.228-11.848,3.495-27.862,6.197-36.891c2.703-9.028,5.743-20.075,8.342-23.916c2.586-3.844,4.281-6.326,5.974-6.663
		c1.127-1.344,2.588-3.609,3.829-4.398c1.242-0.789,2.249-1.021,4.967-0.554c2.703,0.438,9.804,1.343,11.483,1.68
		c1.696,0.335,2.384,0.686,2.484,1.577c0.353,0.789,1.928,1.023,3.389,1.14c1.461,0.104,3.944,0.555,3.826,2.251
		c-0.114,1.694,0.234,4.849-3.037,4.747c-3.272-0.117-5.071-1.242-5.757,1.68c-0.672,2.937-1.796,13.763-2.133,16.145
		c-0.352,2.365-1.579,2.014-5.082,1.681c-3.495-0.337-9.354-1.244-10.813-1.244c-1.459,0-4.178-0.89-5.305,3.961
		c-1.124,4.85-3.709,14.888-3.944,18.832c-0.22,3.96-1.579,18.962-1.241,22.34c0.337,3.389,1.476,11.848,1.021,15.236
		c-0.452,3.391-1.927,11.951-1.241,14.772"/>
	<path fill="none" stroke="#232323" stroke-miterlimit="10" d="M109.236,311.029l-2.585-0.336c0,0,1.794-16.787,3.255-21.067
		c1.461-4.295,4.852-10.928,6.412-11.834c1.578-0.906,3.392-1.578,5.642-1.126"/>
	<path fill="none" stroke="#232323" stroke-miterlimit="10" d="M104.383,290.62c0,0,0.904-7.437,1.461-11.396
		c0.569-3.945,27.962-200.845,27.962-200.845s-0.218-1.915-0.103-2.601c0.44-0.672,1.113-1.11,3.929-1.11
		c2.82,0,4.063-0.687,5.19-0.35c1.138,0.35,1.241,2.365,0.903,5.083c-0.337,2.704-2.702,19.169-2.702,22.894
		c0,3.726,0.221,4.75,4.061,5.421c1.58,1.359,1.359,2.029,6.312,2.029c3.271,0.57,5.304,0.673,4.953,3.158
		c-0.337,2.482-13.63,97.726-13.63,97.726s-2.368,1.007-9.132-2.264c-6.545-2.135-7.335-3.493-7.553-0.455
		c-0.234,3.055-4.515,35.547-4.97,38.368c-0.451,2.82-1.578,12.302-1.678,13.763c-0.134,1.477-0.803,2.263,1.913,1.928
		c2.704-0.35,10.141-0.789,11.937-0.452c1.811,0.333,3.272,1.46,1.58,3.154c-0.337,2.601-1.914,13.543-1.914,13.543"/>
	<path fill="none" stroke="#232323" stroke-miterlimit="10" d="M119.254,260.975c0,0,12.961-1.008,15.111-0.452
		c2.13,0.554,4.716,1.898,3.037,3.125c-1.243,0.893-0.334,0.658-2.584,1.111"/>
	<path fill="none" stroke="#232323" stroke-miterlimit="10" d="M138.014,262.759c0,0,0-13.091,1.682-24.941
		c1.681-11.835,3.695-19.854,4.604-22.674c0.89-2.82,2.235-3.258-1.578-4.836"/>
	<path fill="none" stroke="#232323" stroke-miterlimit="10" d="M126.37,205.896c0,0,10.023,4.483,12.057,5.04
		c2.027,0.555,8.108,2.017,6.646,0.671"/>
	<path fill="none" stroke="#232323" stroke-miterlimit="10" d="M104.252,349.57c0,0,6.192,1.243,9.349,1.462
		c3.157,0.22,3.712,0.337,5.071,0.337c1.343,0,1.796,0,1.796,1.911c0,1.915-0.117,6.634-0.117,6.634"/>
	<path fill="none" stroke="#232323" stroke-miterlimit="10" d="M135.709,287.361c0,0-0.12,9.132-0.557,13.09
		c-0.455,3.946-2.586,16.013-3.141,18.395c-0.555,2.368-2.805,14.216-2.906,20.979c-0.117,6.767-0.572,13.764-0.117,15.239"/>
	<path fill="none" stroke="#232323" stroke-miterlimit="10" d="M128.14,307.45c0,0-3.595,24.02-3.812,26.387
		c-0.235,2.366-1.461,10.27-1.681,12.066c-0.234,1.799-0.118,1.357,0.555,2.149c0.672,0.787-0.115,3.375-2.134,2.703
		c-0.787-0.221-1.357-0.455-1.357-0.455"/>
	<path fill="none" stroke="#232323" stroke-miterlimit="10" d="M120.28,352.158l3.812,0.673c0,0,1.229-0.338,1.229,2.014
		c-0.104,1.023,0,2.25,0,2.25"/>
	<path fill="none" stroke="#232323" stroke-miterlimit="10" d="M133.5,374.03c0,0,2.017,11.95,4.575,15.56"/>
	<path fill="none" stroke="#232323" stroke-miterlimit="10" d="M139.578,280.947c0,0,2.586-1.008,4.384,0.116
		c1.799,1.243,1.914,1.243,2.014,3.039c0.12,1.814,0.12,2.603-0.435,3.844v4.951c0,0,0.101,0.469-0.792,0.688
		c0,0.453,0,1.126,1.127,1.126c0.774,0.116,0.438,0.671,0.556,2.03c0.116,1.359,1.124,33.167,1.124,33.167"/>
	<path fill="none" stroke="#232323" stroke-miterlimit="10" d="M139.025,287.698c0,0,0.333,0.905,0.89,1.576
		c0,1.477,0.104,4.296,0.104,4.296s0,0.57,0.89,0.453c0.116,0.336,0.219,0.789-0.539,0.789c-0.792,0-0.351,0.789-0.351,1.579
		c0,0.787,1.662,48.855,1.662,48.855"/>
	<path fill="none" stroke="#232323" stroke-miterlimit="10" d="M133.721,75.763c0,0-5.188-1.008-0.892-1.914
		c4.836-0.658,9.335-0.775,11.031-0.541c1.696,0.22,9.131,1.665,11.266,3.785"/>
	<path fill="none" stroke="#232323" stroke-miterlimit="10" d="M131.237,74.945c0,0-1.242,0.219-0.337-3.142
		c0.57-1.665,0.233-2.235,3.391-2.571c3.157-0.337,6.983-1.564,17.359,0.671c6.542,1.461,6.412,2.47,6.98,3.142
		c0.335-1.798,0.335-3.478,0.906-3.813c0.572-0.337,0.906-0.22,0.906-0.22"/>
	<path fill="none" stroke="#232323" stroke-miterlimit="10" d="M135.314,68.983l0.1-3.476c0,0-0.548-0.645,0.988-1.096
		c0.169-0.043-2.347,0.688-0.872,0.278"/>
	<path fill="none" stroke="#232323" stroke-miterlimit="10" d="M159.64,74.945c0,0-2.792-3.333-4.356-3.667
		c0,3.156-0.452,21.74-0.117,25.012c0.337,3.273,1.012,14.639,4.811,3.04c0.553-3.375,0.903-8.678,0.787-11.499
		C160.646,85.025,159.405,73.483,159.64,74.945z"/>
	<path fill="none" stroke="#232323" stroke-miterlimit="10" d="M156.379,113.194c0,0,1.579-0.22,1.579-3.155
		c0.44-2.806,0.338-3.594,1.109-4.835c0.572-1.126,0.572-3.609,0.572-4.72"/>
	<path fill="none" stroke="#232323" stroke-miterlimit="10" d="M135.531,64.689c0,0,1.01-1.476,0-2.938
		c-0.233-1.125-1.241-3.155-1.575-4.398c-0.337-1.022-0.672-1.577-0.456-4.062c-0.348-2.366-0.116-3.038-2.817-6.192
		c-1.578-3.842-2.705-8.007-1.125-12.739c1.575-4.735,5.304-10.272,9.686-11.631c4.398-1.344,6.763-1.46,9.483-0.337
		c2.702,1.127,7.1,3.945,8.445,4.632c1.24-1.242,4.512-4.515,7.113-4.967c2.586-0.455,7.668-1.346,11.616-1.346
		c3.944,0,10.929,0.557,14.317,2.47c3.374,1.913,4.792,2.645,3.843,3.608c-0.118,0.118,0.553-1.695,0.669-3.271
		c0.104-1.579-0.116-6.094-0.116-8.445c0-2.382-2.248-3.844-5.185-4.968c-2.938-1.126-10.039-2.147-16.567-1.477
		c-6.547,0.688-7.452,3.055-8.124,4.631c-0.688,1.579-1.359,9.131-1.359,9.131"/>
	<path fill="none" stroke="#232323" stroke-miterlimit="10" d="M134.861,59.488c0,0,1.125,0-0.119-1.578
		c-0.218-0.455-1.358-0.79,1.244-0.672c2.585,0.102,6.178,0.102,7.536-0.467c0.893-0.219,0.893-0.219,1.461,0.905
		c0.572,1.141,1.358,2.483,1.915,1.023c0.569-1.461,0.569-2.485,0.787-3.726c0.337-1.242,0.906-3.041,3.157-5.188
		c2.251-2.132,6.415-6.646,6.415-11.834c0-5.186,0.349-9.568-5.843-14.201"/>
	<path fill="none" stroke="#232323" stroke-miterlimit="10" d="M133.37,55.528c0,0,10.138,1.578,10.812-0.22
		c0.686-1.796,0.566-3.944,2.028-5.288c1.461-1.358,7.555-5.975,7.893-12.069c0.331-6.077-0.221-11.601-4.854-14.303
		c-2.584-1.139-6.426-2.03-9.568-0.905"/>
	<path fill="none" stroke="#232323" stroke-miterlimit="10" d="M157.768,26.438c0,0,1.244,14.786,1.462,16.92
		c0.218,2.147,3.492,6.544,5.069-1.243c1.242-6.865,1.125-10.489,4.517-8.679c3.372,1.814,20.73,12.741,22.089,13.529
		c1.345,0.79,2.03,1.696,2.03,1.696"/>
	<path fill="none" stroke="#232323" stroke-miterlimit="10" d="M148.492,52.752c0,0,3.053-1.329,9.699-0.116
		c4.854,0.672,5.522,0.891,6.983,1.65"/>
	<path fill="none" stroke="#232323" stroke-miterlimit="10" d="M161.025,53.103c0,0-0.771,17.649-0.771,19.256
		c0,1.606,0.54,18.219,0.54,19.592c0,1.386,0.231,1.386,1.562,1.841"/>
	<path fill="none" stroke="#232323" stroke-miterlimit="10" d="M194.045,26.89c0,0-0.893,19.974-1.11,23.13
		c-0.231,3.155-1.358,21.77-1.578,23.361c-0.218,1.577-2.92,17.035-3.257,19.403c-0.338,2.368-0.892,2.25-1.68,2.82"/>
	<path fill="none" stroke="#232323" stroke-miterlimit="10" d="M161.26,108.607l1.024-15.898c0,0,0.218-1.912,3.477-2.264
		c3.272-0.336,12.286-0.438,15.106,0.352c2.806,0.789,5.845,1.797,5.742,3.491c-0.117,1.696-1.021,16-1.021,16"/>
	<path fill="none" stroke="#232323" stroke-miterlimit="10" d="M159.114,113.706c0,0-0.233-2.147-0.233-2.601
		c0-0.453,0-1.125,1.138-1.696c1.125-0.555,3.944-2.482,10.694-1.913c6.763,0.569,12.506,1.461,13.749,2.148
		c1.241,0.671,2.147,1.241,2.82,1.798c0.672,0.569,0.335,1.46,0.335,2.264c0,0.788-0.456,0.905-0.456,1.242
		c0,0.335,0.235,0.773,0.793,1.46c0.569,0.672,0,4.851-0.118,6.531c-0.103,1.696-3.039,48.271-3.039,48.271l-1.345,21.886
		c0,0,0.337,1.695-1.357,3.039c-0.118,1.695-0.118,3.726-0.118,3.726s0.906,0.672-2.468,1.915c0.116-1.008,0.556-1.694-1.579-2.032
		c-2.134-0.334-9.7-1.794-19.958-1.794c-1.447,0.218-2.92,0.218-2.688,1.679c-1.021-0.219-2.146-0.438-1.911-2.25
		c0.101-1.126,0.67-1.008,0.553-2.149c-0.116-0.671-1.578-1.345-1.24-4.062c0.351-2.702,4.732-69.571,4.732-69.571l0.555-6.313
		C157.972,115.283,158.207,114.261,159.114,113.706z"/>
	<path fill="none" stroke="#232323" stroke-miterlimit="10" d="M155.228,199.219l-3.012,50.551c0,0-0.437,1.928,0.221,2.148
		c-0.321,0.569-0.439,1.241-0.439,2.38c0,1.125-0.555,1.68,0.556,1.68c0,0.687-0.116,1.141-0.672,1.141
		c-0.102,1.242-0.994,18.832-0.893,20.073"/>
	<path fill="none" stroke="#232323" stroke-miterlimit="10" d="M162.591,273.569c3.274,0.673,5.522,2.704,8.459,6.546
		c3.039,4.968-0.569,11.176-0.569,11.176c-0.789,2.016-2.251,4.5-3.829,8.007c-1.579,3.492-3.827,3.709-5.977,3.608
		c-2.131-0.116-6.296-0.906-9.467-2.03c-3.156-1.125-2.819-8.693-2.819-8.693s-0.103-6.881-0.221-8.226
		c-0.116-1.359,0.559-5.304,3.274-7.452c2.703-2.147,6.765-3.958,10.476-3.271c3.727,0.67,9.014,3.491,10.256,7.553
		c0.672,2.03,1.462,4.85,1.344,4.514c0,0,1.358-18.95,1.579-21.098c0.233-2.132,1.007-8.341,1.123-11.059
		c0.118-2.703,3.275-51.442,3.275-51.442"/>
	<path fill="none" stroke="#232323" stroke-miterlimit="10" d="M149.193,298.406c0,0,0.217,2.147,0.336,3.157
		c0.101,1.009,0.438,1.358,1.679,3.157c1.242,1.811,4.281,6.646,4.281,6.646s1.021,1.576,4.061-1.126
		c3.041-2.703,5.406-4.279,5.406-4.279s1.124-1.813,1.227-2.923c0.117-1.139,1.36-2.717,1.36-2.717l1.576-4.734
		c0,0,3.393-1.227,4.501-4.048c1.14-2.819,1.696-6.662,0.118-9.247"/>
	<path fill="none" stroke="#232323" stroke-miterlimit="10" d="M173.986,281.503c0,0,2.672,3.49,0.993,8.123
		c-1.682,4.618-4.689,12.609-4.689,12.609l2.015,2.716"/>
	<path fill="none" stroke="#232323" stroke-miterlimit="10" d="M150.654,303.944c0,0,0.116,5.974,0.116,7.114
		c0,1.111-0.116,0.891,0.893,2.249c0.116,1.243-0.559,2.019,5.829,9.469"/>
	<path fill="none" stroke="#232323" stroke-miterlimit="10" d="M158.881,321.666l-4.956,3.726l-0.334-0.454l-0.804,0.454
		l-1.008-1.241l-2.369,1.694l1.126,1.458l-0.906,0.675l0.118,0.687l-2.602,1.913c0,0-1.461,0.555-0.103,2.033
		c1.345,1.458,14.086,19.049,14.086,19.049l3.724,4.619c0,0,1.025,1.138,3.61-0.893c2.6-2.03,11.948-8.794,11.948-8.794
		s0.455-7.556-1.344-15.46c-1.808-7.888-5.972-20.849-7.099-22.879c-1.141-2.03-0.687-2.702,1.009-3.943
		c1.693-1.243,6.428-4.296,7.889-4.97c1.462-0.671,2.819-0.904,4.398,0.456c1.578,1.358,13.527,11.849,15.105,13.526
		c1.578,1.694,7.672,8.009,9.25,9.702c1.576,1.695,2.366,2.25,1.124,3.04c-1.24,0.789-8.225,5.637-9.352,6.546
		c-1.124,0.903-10.489,7.771-10.489,7.771l-7.438,6.211l-1.811,1.342l-1.244-1.241"/>
	<path fill="none" stroke="#232323" stroke-miterlimit="10" d="M211.43,325.289c0,0,4.18,6.312,5.422,8.124
		c1.243,1.796,3.039,4.616,3.492,6.194c0.453,1.593,1.124,3.607-2.937,5.082c-4.062,1.462-14.552,3.609-14.552,3.609
		s-1.578-0.687-2.368-1.811c-0.788-1.124-1.912-2.367-1.912-2.367l-2.265,1.578c0,0-0.891,0.117-2.249-1.578
		c-1.578,1.243-17.826,13.983-18.951,14.77c-1.124,0.79-2.248,2.603-3.491,0.79c-1.139,0.119-1.812,0-4.062-3.609
		c0,0-1.579,1.023-2.937,1.359c-1.361,0.337-8.795,4.062-11.952,5.421c-2.364,0.555-10.388,4.732-14.332,7.436
		c-3.944,2.719-11.848,10.373-14.437,13.194c-2.599,2.82-1.694,2.147-1.911,3.725c-0.57,3.945-2.266,2.252-5.203-0.57
		c-2.92-2.819-8.797-11.275-10.373-13.763c-1.576-2.469-1.342-2.687-0.906-3.827c0.454-1.124,1.578-0.672,3.273-0.904
		c1.693-0.22,2.265-1.347,3.391-2.367c1.125-1.01,7.096-5.07,12.739-8.562c5.639-2.382,13.208-8.021,14.785-9.482
		c1.578-1.461,1.915-2.365,2.481-4.178c0.221-3.827,0.674-3.26,1.127-4.047c0.452-0.79,1.009-1.813,2.133-3.157
		c1.139-1.358,1.709-2.263,1.477-3.389c-1.477-1.576,0.116-2.367,0.116-2.367"/>
	<path fill="none" stroke="#232323" stroke-miterlimit="10" d="M215.609,331.734c0,0-0.569-1.462-2.923-0.221
		c-2.365,1.228-12.943,9.438-12.943,9.438l-2.014,1.81l0.772,1.345"/>
	<path fill="none" stroke="#232323" stroke-miterlimit="10" d="M183.381,352.596c0,0,0.453,1.008,1.125,1.462
		c0.671,0.452,1.579,0.114,2.702-0.337c1.242,1.799,6.646,8.898,6.646,8.898l2.032,2.601c0,0,0.672,0.787,2.471,1.007
		c0.903,0.117,1.591,0.234,2.481,1.461c0.904,1.241,3.375,4.281,3.375,4.281s0.687,0.468,1.81,0.804
		c1.127,0.334,1.348,0.672,1.917,0.555c1.124,1.023,2.482,2.265,2.482,2.265s-0.687,2.588,1.915,1.68
		c1.578-1.008,0.335-2.586-1.24-2.483c-1.027-1.578-1.696-2.922-1.696-2.922s0.569-0.234,0.454-1.693
		c-0.119-1.464-0.454-2.485-1.243-3.609c-0.79-1.127-3.04-4.164-3.04-4.164l0.22-3.492c0,0-0.774-0.906-1.578-2.147
		c-0.774-1.24-7.876-10.93-7.876-10.93"/>
	<path fill="none" stroke="#232323" stroke-miterlimit="10" d="M196.338,365.54c0,0,8.666-5.156,9.569-6.618"/>
	<path fill="none" stroke="#232323" stroke-miterlimit="10" d="M200.066,366.781c0,0,4.368-2.686,5.391-4.484"/>
	<path fill="none" stroke="#232323" stroke-miterlimit="10" d="M207.982,373.341c0,0,0.22-1.431,1.446-1.431"/>
	<path fill="none" stroke="#232323" stroke-miterlimit="10" d="M152.566,362.852c0,0,1.461,2.12,2.251,2.688
		c0.774,0.555,1.462-0.672,2.572-1.797c1.125-1.109,1.912-2.235,2.702-2.571c0.774-0.337,1.564-1.344,0.438-1.899"/>
	<path fill="none" stroke="#232323" stroke-miterlimit="10" d="M145.014,366.357l2.237,55.722l-1.682,0.105v1.693l1.124,0.232
		l0.116,1.695l-0.451,0.103v1.695l-1.127,0.336l0.117,7.101l1.01-0.218c0,0,2.12-0.556,2.688-1.799
		c1.796-0.451,3.36-1.021,3.258-2.716c-0.117-1.58-0.352-1.914-1.241-2.483c-0.117-1.126-0.455-3.829-0.455-3.829l0.675-0.337v-2.03
		l-1.681,0.117l-2.017-56.746"/>
</g>
</svg>
