<?xml version="1.0" encoding="utf-8"?>
<!-- Generator: Adobe Illustrator 16.0.0, SVG Export Plug-In . SVG Version: 6.00 Build 0)  -->
<!DOCTYPE svg PUBLIC "-//W3C//DTD SVG 1.1//EN" "http://www.w3.org/Graphics/SVG/1.1/DTD/svg11.dtd">
<svg version="1.1" id="Layer_1" xmlns="http://www.w3.org/2000/svg" xmlns:xlink="http://www.w3.org/1999/xlink" x="0px" y="0px"
	 width="288px" height="612px" viewBox="0 0 288 612" enable-background="new 0 0 288 612" xml:space="preserve">
<g>
	<g>
		<path fill="none" stroke="#232323" stroke-miterlimit="10" d="M150.438,242.235c0,0,0,2.055-7.384,1.741
			c-6.968-0.298-8.913,0.109-11.062-1.634c-2.446-1.441-2.668-1.943-3.888-1.849c-1.223-1.335-1.944-1.944-1.944-1.944
			s-0.724-2.151-2.558-2.67c-0.833-1.332-1.339-2.353-1.339-2.353s-0.106-1.629-0.621-2.556c-0.51-0.926-1.95-1.334-1.95-4.001
			c-0.185-2.666-0.5-3.279-0.5-4.299c0-1.036,0.907-4.094-0.111-5.537c-0.204-1.853,0.427-3.169,0.611-4.206
			c0.223-1.02,0-2.148,0.315-3.592c0.315-1.428,0.927-2.857,0.611-3.781c-0.296-0.927,0.723-2.259,0.927-3.373
			c0.204-1.13-0.111-1.742,0.204-2.668c0.296-0.924,9.427-18.856,10.042-23.154c0.607-4.313,0.923-20.709,0.719-26.138
			c-0.204-5.426,0-31.139,0-31.139s-61.778-13.931-64.65-15.375c-2.871-1.427-13.336-14.132-13.336-14.132l26.655,0.515l0.296-0.923
			l58.929-0.409c0,0,7.166-2.575,10.034-2.15V56.992c0,0,1.023-1.743,0.819-3.594c-0.204-1.835,0.408-3.17-3.688-3.264
			c-4.108-0.107-19.988-0.421-21.318,0.502c-0.913,1.334-1.945,1.131-2.965,1.131c-1.023,0-68.133-0.298-68.133-0.298l11.262-15.28
			l67.632-16.396h57.78c0,0,3.688-1.224,3.688,4.928c0,6.15,0,9.836,4.925,9.836h31.968l-10.255,8.189l-26.638,4.924l-5.726,0.409
			c0,0-2.464-0.409-2.464,3.687c0,4.095,0.407,6.557,0.407,6.557h4.91l29.51,6.15l9.852,8.597h-25.417
			c0,0-11.072-4.502-11.479,3.279c0.406,7.798,0.813,13.523,0.813,13.523s5.741,2.465,5.741,13.133
			c0,10.636,0.407,52.869,0.407,52.869s6.04,23.656,5.943,28.473c-0.315,1.947-0.408,1.332,0.615,4.409
			c0.106,1.646,0.2,3.168,0.2,3.168s-1.015,1.742,0.615,2.981c0,2.148,0.106,3.984,0.106,3.984s-1.631,0.926-0.106,3.294
			c0.106,3.373-1.024,4.706-0.5,6.745c-0.315,2.166,0,4.928-0.524,7.076c-0.605,2.462-1.833,3.185-1.833,5.537
			c-0.723,2.151-3.497,3.375-4.312,5.744c-1.224,2.557-4.3,8.394-14.75,9.412"/>
		<path fill="none" stroke="#232323" stroke-miterlimit="10" d="M145.92,109.341l23.065,0.219c0,0,1.835,0.298,1.835,2.965
			s-0.298,57.372-0.298,57.372s0.298,2.164-3.391,2.054c-3.688-0.111-20.803-0.205-20.803-0.205s-2.039-0.108-1.929-2.667
			c0.098-2.556-0.11-58-0.11-58S144.4,109.749,145.92,109.341z"/>
	</g>
	<polyline fill="none" stroke="#232323" stroke-miterlimit="10" points="202.07,142.441 203.404,142.554 203.404,146.24 
		202.181,146.128 	"/>
	<g>
		<path fill="none" stroke="#232323" stroke-miterlimit="10" d="M207.091,138.851c0,0-0.097-1.428,1.538-1.428
			c1.645,0,6.055,0.314,6.055,0.314s1.224,0.188,1.224,2.649c0,2.463,0.111,8.818-0.723,10.245c-2.445,0.11-6.556,0.611-7.579,0.11
			c-0.481-0.251-0.657-0.533-0.705-0.91c-0.063-0.408,0-0.909-0.11-1.552C206.587,147.054,207.091,138.851,207.091,138.851z"/>
	</g>
	<polyline fill="none" stroke="#232323" stroke-miterlimit="10" points="206.587,149.721 203.607,149.721 203.516,139.054 
		206.994,138.96 	"/>
	<path fill="none" stroke="#232323" stroke-miterlimit="10" d="M196.141,90.091c0,0-14.556-7.374-35.252-4.72
		c-8.001,1.222-8.816,1.442-10.854,1.222"/>
	<path fill="none" stroke="#232323" stroke-miterlimit="10" d="M135.882,206.074c0,0-5.114-27.062,25.007-32.788
		c14.341-0.613,23.564,6.541,25.602,11.263c3.706,0.204,5.537,1.631,4.114,3.482c-0.815,2.258,0.607,4.315,2.052,4.724
		c1.427,0.405,2.452,0.813,2.043,2.242c-0.406,1.444-1.228,2.462-2.464,3.703c0.829,6.133,0,22.732-17.616,30.308
		c-11.062,4.723-25.011,2.056-32.794-9.412c-3.274,0.205-4.91-0.204-3.684-4.503c-0.202-1.238,0.204-2.478-2.042-3.295
		C133.845,210.982,132.806,208.332,135.882,206.074z"/>
	<path fill="none" stroke="#232323" stroke-miterlimit="10" d="M141.219,200.942c0,0,10.854-15.168,32.158-16.189
		c7.186,0.422,22.745,1.443,13.133,18.856c-4.108,4.911-11.688,13.321-29.935,15.579c-9.636,0.204-15.987-1.442-17.414-6.15
		C137.735,208.316,138.957,204.425,141.219,200.942z"/>
	<path fill="none" stroke="#232323" stroke-miterlimit="10" d="M185.223,166.32c0,3.53,1.315,6.401,2.918,6.401
		c1.611,0,2.919-2.871,2.919-6.401c0-3.544-1.308-6.402-2.919-6.402C186.538,159.918,185.223,162.775,185.223,166.32z"/>
	<g>
		<polygon fill="none" stroke="#232323" stroke-miterlimit="10" points="187.34,559.416 150.251,559.416 150.251,242.708 
			187.34,236.696 		"/>
		<rect x="167.364" y="559.416" fill="none" stroke="#232323" stroke-miterlimit="10" width="2.866" height="34.108"/>
	</g>
</g>
</svg>
