<?xml version="1.0" encoding="utf-8"?>
<!-- Generator: Adobe Illustrator 16.0.0, SVG Export Plug-In . SVG Version: 6.00 Build 0)  -->
<!DOCTYPE svg PUBLIC "-//W3C//DTD SVG 1.1//EN" "http://www.w3.org/Graphics/SVG/1.1/DTD/svg11.dtd">
<svg version="1.1" id="Layer_1" xmlns="http://www.w3.org/2000/svg" xmlns:xlink="http://www.w3.org/1999/xlink" x="0px" y="0px"
	 width="720px" height="612px" viewBox="0 0 720 612" enable-background="new 0 0 720 612" xml:space="preserve">
<g>
	<path fill="none" stroke="#232323" stroke-miterlimit="10" d="M177.956,344.008l-45.376,7.722l-35.498-0.621
		c0,0-6.786,0.926-9.256,2.793c-8.953,0-8.635-4.652-8.635-4.652v-28.695c0,0-0.318-1.859,4.001-3.694
		c4.322-1.853,136.732-54.647,136.732-54.647s1.862-2.765,11.431-1.537c9.568,1.246,27.157,3.077,27.157,3.077v-10.195l18.523,1.257
		c0,0,2.771-0.617,4.309,2.473c1.546,3.084,4.333,8.014,4.023,13.255c0,2.79-0.31,4.624-0.31,4.624l-4.628-0.927l-0.305,50.95
		c0,0,0,3.382-4.007,3.382c-4.02,0-50.634-2.455-50.634-2.455s-4.315,0.923-4.315-6.483v-54.638c0,0-0.766-4.166,1.999-4.166"/>
	<path fill="none" stroke="#232323" stroke-miterlimit="10" d="M178.26,335.37l15.748-3.073c0,0,5.856-0.319,9.25,0
		c3.394,0.283,43.52,1.834,43.52,1.834s5.258-1.228,5.568,4.951c0.31,6.164,0.31,227.167,0.31,227.167l-52.472,8.031
		c0,0-3.713,0.923-12.039-4.951c-8.34-5.862-9.264-4.625-9.264-13.577C178.881,546.812,178.26,335.37,178.26,335.37z"/>
	<path fill="none" stroke="#232323" stroke-miterlimit="10" d="M182.896,565.946c0,0-0.621,6.467-4.637,2.154
		c-0.304,1.846-0.304,6.786-0.304,6.786l25.62,16.664l3.394,0.923l47.535-8.635l-1.227-7.715c0,0-0.326,0.928-4.946,2.151
		c-4.638,1.246-40.437,6.199-40.437,6.199h-4.32l-4.937-4.03l0.301-6.48l-0.612-241.667"/>
	<path fill="none" stroke="#232323" stroke-miterlimit="10" d="M198.639,580.142c0,0,25.922-2.487,33.646-4.318
		c7.713-1.849,14.804-3.088,14.804-3.088l0.619-5.563"/>
	<line fill="none" stroke="#232323" stroke-miterlimit="10" x1="247.089" y1="572.735" x2="253.27" y2="576.443"/>
	<line fill="none" stroke="#232323" stroke-miterlimit="10" x1="178.26" y1="567.795" x2="182.744" y2="567.004"/>
	<g>
		<path fill="none" stroke="#232323" stroke-miterlimit="10" d="M132.277,351.729c0,0,3.699,0.621,3.699,3.382
			c0,2.786,0.612,151.568,0.612,151.568l-18.522,1.543l-19.133,2.165c0,0-2.152,0-5.243-2.481c-3.09-2.455-4.31-2.455-4.635-7.715
			c-0.303-5.241-0.303-146.911-0.303-146.911"/>
	</g>
	<g>
		<path fill="none" stroke="#232323" stroke-miterlimit="10" d="M91.84,506.355l-0.167,2.17c0,0-0.604,1.862-1.536,0.62
			c-0.463-0.454-0.757,0-0.757,1.696c0,1.686,0,2.005,1.22,2.761c1.241,0.784,8.333,6.646,8.333,6.646s1.696,0.473,5.407,0.167
			c3.712-0.314,31.484-3.693,31.484-3.693s1.228,0,1.075-2.647c0-1.548,0-2.456-2.932-3.688c0.16-1.559,0-3.556,0-3.556"/>
		<path fill="none" stroke="#232323" stroke-miterlimit="10" d="M98.477,510.388l0.153,3.999c0,0,0.922,2.173,3.24,1.849
			c2.32-0.301,32.712-3.708,32.712-3.708s1.543,0.937,1.863-0.291"/>
	</g>
	<line fill="none" stroke="#232323" stroke-miterlimit="10" x1="98.787" y1="514.238" x2="134.288" y2="510.693"/>
	<line fill="none" stroke="#232323" stroke-miterlimit="10" x1="101.713" y1="516.56" x2="101.713" y2="520.555"/>
	<line fill="none" stroke="#232323" stroke-miterlimit="10" x1="208.204" y1="584.445" x2="208.204" y2="592.168"/>
	<line fill="none" stroke="#232323" stroke-miterlimit="10" x1="203.727" y1="584.445" x2="203.727" y2="591.551"/>
	<g>
		<path fill="none" stroke="#232323" stroke-miterlimit="10" d="M97.392,510.071c0,0,0.616-158.963,0-158.963"/>
	</g>
	<line fill="none" stroke="#232323" stroke-miterlimit="10" x1="81.494" y1="352.489" x2="222.243" y2="324.099"/>
	<g>
		<path fill="none" stroke="#232323" stroke-miterlimit="10" d="M137.991,294.779c0,0,2.15-35.814,2.15-37.024
			c0-1.242,0.153-4.17-2.312-2.031c-1.08,0.955-1.384,0.316-1.535-3.697c-0.169-3.999,1.833-22.985,4.157-26.69
			c2.31-3.702,3.554-6.491,6.789-6.172c3.249,0.302,131.483,16.495,131.483,16.495l24.088,43.682c0,0-5.568-28.858-10.952-38.891
			c-2.621-4.791-5.713-8.482-13.136-5.093"/>
		<path fill="none" stroke="#232323" stroke-miterlimit="10" d="M145.24,219.639l17.595,47.524l-0.158,8.332
			c-0.309,2.913-1.083,7.095-2.008,8.017c0,0.305-2.318,0.636-3.537,1.228c-1.242,0.618-2.644,1.087-2.644,1.087l-0.302,2.636"/>
	</g>
	<line fill="none" stroke="#232323" stroke-miterlimit="10" x1="247.708" y1="334.131" x2="277.663" y2="328.269"/>
	<line fill="none" stroke="#232323" stroke-miterlimit="10" x1="162.835" y1="268.089" x2="197.563" y2="271.162"/>
	<line fill="none" stroke="#232323" stroke-miterlimit="10" x1="160.821" y1="283.512" x2="165.761" y2="283.98"/>
	<line fill="none" stroke="#232323" stroke-miterlimit="10" x1="156.034" y1="285.357" x2="160.821" y2="285.826"/>
	<line fill="none" stroke="#232323" stroke-miterlimit="10" x1="280.584" y1="276.425" x2="302.031" y2="278.118"/>
	<g>
		<path fill="none" stroke="#232323" stroke-miterlimit="10" d="M283.055,233.982l12.508,0.755c0,0,1.38,1.25,3.546,1.552
			c2.158,0.319,6.173-0.455,7.551,2.771c1.395,3.258,8.803,21.615,9.574,27.954c6.016,6.011,13.266,12.328,17.454,12.48
			c4.166,0.167,12.013-5.695,12.013-9.712c0-4.014-0.303-50.634-0.303-50.634l-0.766-196.136c0,0-11.884-11.892-30.248-9.411
			c-11.575,11.26-18.823,17.442-18.823,17.442s-1.856,0.759-1.704,4.166c0.167,3.378,1.704,199.528,1.704,199.528"/>
	</g>
	<line fill="none" stroke="#232323" stroke-miterlimit="10" x1="312.219" y1="253.723" x2="310.221" y2="17.604"/>
	<line fill="none" stroke="#232323" stroke-miterlimit="10" x1="314.546" y1="13.743" x2="315.925" y2="267.014"/>
	<g>
		<path fill="none" stroke="#232323" stroke-miterlimit="10" d="M302.963,279.342l60.497,4.94c0,0-4.787-22.36-8.634-30.391
			c-3.874-8.027-3.721-8.329-4.804-9.742c-2.153-0.454-4.469-0.621-4.469-0.621"/>
	</g>
	<polyline fill="none" stroke="#232323" stroke-miterlimit="10" points="350.339,244.316 404.509,250.803 409.154,257.286 
		429.364,288.906 	"/>
	<g>
		<path fill="none" stroke="#232323" stroke-miterlimit="10" d="M363.308,283.512l64.042,5.405c0,0,4.165,0,4.939,1.228
			c0.784,1.242,0.784,4.017,0.167,6.182c-0.639,2.169-1.242,4.625-2.176,6.019c-0.934,1.392-3.397,1.697-8.185,1.544
			c-4.776-0.152-141.82-10.664-141.82-10.664"/>
	</g>
	<line fill="none" stroke="#232323" stroke-miterlimit="10" x1="280.428" y1="295.553" x2="319.325" y2="298.48"/>
	<polyline fill="none" stroke="#232323" stroke-miterlimit="10" points="333.827,299.254 420.244,304.663 417.319,305.738 
		405.591,304.964 391.389,313.449 333.827,310.99 	"/>
	<line fill="none" stroke="#232323" stroke-miterlimit="10" x1="319.325" y1="309.282" x2="280.275" y2="306.831"/>
	<polyline fill="none" stroke="#232323" stroke-miterlimit="10" points="322.561,296.464 319.008,296.93 320.092,413.758 
		324.871,413.62 334.143,413.758 333.992,297.558 	"/>
	<line fill="none" stroke="#232323" stroke-miterlimit="10" x1="324.417" y1="296.464" x2="324.417" y2="413.453"/>
	<polyline fill="none" stroke="#232323" stroke-miterlimit="10" points="323.765,413.758 323.828,422.41 331.167,422.41 
		331.167,413.758 	"/>
	<polyline fill="none" stroke="#232323" stroke-miterlimit="10" points="324.934,422.512 324.934,423.213 330.251,423.213 
		330.251,422.396 	"/>
	<polyline fill="none" stroke="#232323" stroke-miterlimit="10" points="326.232,423.337 326.232,424.394 328.644,424.394 
		328.644,423.337 	"/>
	<g>
		<path fill="none" stroke="#232323" stroke-miterlimit="10" d="M326.856,424.503v4.209c0,0-1.363,0.851,0.06,1.482
			c0.07,3.335,0,8.818,0,8.818h1.245v-8.818c0,0,1.345-0.923,0-1.544c0-1.663-0.076-4.268-0.076-4.268"/>
	</g>
	<line fill="none" stroke="#232323" stroke-miterlimit="10" x1="328.703" y1="429.199" x2="332.097" y2="429.199"/>
	<line fill="none" stroke="#232323" stroke-miterlimit="10" x1="326.295" y1="429.442" x2="323.462" y2="429.442"/>
	<polyline fill="none" stroke="#232323" stroke-miterlimit="10" points="334.135,330.129 341.234,328.887 611.927,292.143 
		624.894,290.312 	"/>
	<path fill="none" stroke="#232323" stroke-miterlimit="10" d="M340.612,329.191c0,0-1.219-2.774,9.576-4.305
		c10.803-1.543,29.938-4.333,29.938-4.333"/>
	<path fill="none" stroke="#232323" stroke-miterlimit="10" d="M380.126,313.147c0,0-1.229,9.251,1.543,9.251
		c2.774,0,55.255-8.328,55.255-8.328s4.939-1.246,9.864,0.301"/>
	<path fill="none" stroke="#232323" stroke-miterlimit="10" d="M455.747,312.824c0,0,0.723-1.162,1.524-2.59
		c0.697-1.194,1.445-2.571,1.873-3.574c0.917-2.15,3.081-2.761,4.629-2.15c1.54,0.607,2.477,3.698,2.477,3.698h5.245
		c0-1.228-0.617-4.621-0.93-9.273c-2.158-8.924-22.839-18.198-28.1-20.058c-5.236-1.849-21.285-3.382-21.285-3.382
		s3.084,3.698,4.323,6.172c3.392,2.149,14.812,10.799,15.117,17.587c0.312,6.786,0.312,14.195,0.312,14.195"/>
	<path fill="none" stroke="#232323" stroke-miterlimit="10" d="M645.888,341.552c0,0-21.931-0.636-26.232-0.636
		c-4.336,0-3.719-3.072-3.719-3.072V309.45c0-2.79-0.918-2.79-2.463-3.073c-2.789-0.337-1.849-3.41-1.849-3.41v-10.824l11.726,0.944
		l3.708-8.031l8.943,0.922l5.256,12.35l5.866,0.621v40.133c0,0,0,3.072-4.017,3.378c-4.009,0.323-58.336,3.407-58.336,3.407
		l-28.4-0.923l-31.48,2.14l-0.321,2.165l-124.688,8.031l-24.395-0.309l-16.042,1.249v1.544l-24.999-0.621l182.42-12.35l100.63-6.168
		"/>
	<line fill="none" stroke="#232323" stroke-miterlimit="10" x1="334.135" y1="338.461" x2="611.625" y2="306.04"/>
	<line fill="none" stroke="#232323" stroke-miterlimit="10" x1="471.495" y1="307.587" x2="626.747" y2="285.056"/>
	<polyline fill="none" stroke="#232323" stroke-miterlimit="10" points="584.146,402.65 592.17,402.65 592.17,505.735 
		585.382,507.603 	"/>
	<g>
		<path fill="none" stroke="#232323" stroke-miterlimit="10" d="M585.077,346.488l0.305,170.071l-26.85,3.689
			c0,0-4.632,0-8.646-0.617c-4.017-0.606-23.152-4.926-23.152-4.926s-1.227,0.303-1.227-5.877c0-6.167-0.32-161.734-0.32-161.734"/>
	</g>
	<line fill="none" stroke="#232323" stroke-miterlimit="10" x1="556.069" y1="344.944" x2="557.305" y2="520.249"/>
	<g>
		<path fill="none" stroke="#232323" stroke-miterlimit="10" d="M529.206,515.312l-0.607,4.319l-6.484-1.532l-0.623,5.244
			l41.058,8.954c0,0,2.154,0.621,5.552,0c3.399-0.625,22.221-4.315,22.221-4.315l-0.301-5.26l-2.168-0.624"/>
		<path fill="none" stroke="#232323" stroke-miterlimit="10" d="M554.203,520.249c0,0-1.537,6.169,5.252,5.561"/>
	</g>
	<line fill="none" stroke="#232323" stroke-miterlimit="10" x1="568.101" y1="524.267" x2="580.144" y2="522.119"/>
	<g>
		<path fill="none" stroke="#232323" stroke-miterlimit="10" d="M523.029,518.1c0.026-0.833-0.188-1.45,0.619-1.864
			c0.282-0.152,0.649-0.04,0.944-0.287c0.279-0.243,0.355-0.515,0.552-0.85c-0.502-0.33-0.378-1.253,0.363-1.013"/>
		<path fill="none" stroke="#232323" stroke-miterlimit="10" d="M560.064,526.131c-0.071-0.019-0.148-0.045-0.24-0.081
			c-0.071-0.752-0.899-0.771-1.016-1.467c-0.121-0.832,0.631-0.923,1.22-0.971c0.189-0.758-0.413-2.63,0.985-2.451
			c0.461,0.048,0.636,0.56,1.234,0.338c0.541-0.152,0.606-0.517,1.213-0.64c1.05-0.186,1.986,0.123,2.408,1.015
			c0.225,0.515,0.375,0.496,0.69,0.849c0.61,0.649-0.279,0.483-0.036,1.257c0.247,0.756,2.557,0.653,1.524,2.165
			c-0.617,0.878-1.794,0.894-2.73,0.894c-0.45,0-1.112,0.119-1.555,0.032c-0.429-0.122-0.771-0.578-1.195-0.668l-0.657,0.029
			c-0.276-0.045-0.298-0.27-0.588-0.319c-0.541-0.132-1.079,0.166-1.258-0.617"/>
		<path fill="none" stroke="#232323" stroke-miterlimit="10" d="M586.392,519.255c0.316,0.515-0.014,1.562-0.306,2.03
			c-0.275,0.497-0.704,0.723-1.256,0.908c-0.356,0.115-0.504,0.301-0.992,0.229c-0.374-0.052-0.498-0.215-0.796-0.292
			c-0.472-0.104-0.596-0.104-1.053-0.333c-0.334-0.149-0.675-0.393-0.999-0.527c-0.555-0.247-0.773-0.501-0.847-1.081
			c-0.05-0.332-0.166-1.512,0.044-1.74c0.183-0.167,0.865-0.059,1.119-0.105c0.319-0.062,0.562-0.225,0.988-0.243
			c0.763-0.045,1.688-0.135,2.403,0.061C585.2,518.295,586.072,518.738,586.392,519.255"/>
		<path fill="none" stroke="#232323" stroke-miterlimit="10" d="M524.319,516.56c0.382-0.138,0.433,0.206,0.734,0.316
			c0.272,0.105,0.729-0.016,1.017-0.016c0.636,0,1.271,0,1.907,0h-0.167"/>
		<path fill="none" stroke="#232323" stroke-miterlimit="10" d="M580.138,519.962c-0.103,0.501-0.662,0.593-0.934,0.897
			c-0.303,0.334-0.287,0.033-0.244,0.545c0.022,0.148,0.379,0.636,0.472,0.789c0.741,1.089,2.224,1.706,3.48,1.768
			c1.351,0.052,2.594,0.152,3.717-0.617c0.606-0.428,0.686-0.544,0.915-1.245c0.155-0.436,0.657-1.33-0.251-1.269
			c-0.044-0.185-0.076-0.352-0.105-0.52c-0.498-0.072-0.759-0.133-1.181-0.349"/>
		<path fill="none" stroke="#232323" stroke-miterlimit="10" d="M359.134,358.522l0.932,121.292l14.505,3.698
			c0,0,0.931,0,3.706-0.288c2.782-0.333,21.604-2.793,21.604-2.793l0.306-123.46"/>
	</g>
	<line fill="none" stroke="#232323" stroke-miterlimit="10" x1="376.111" y1="356.972" x2="375.806" y2="483.513"/>
	<g>
		<path fill="none" stroke="#232323" stroke-miterlimit="10" d="M358.52,483.225l3.395,0.288l0.303-3.081
			c0,0-3.698,0.944-3.698,3.41c0,2.461-1.227,3.081,1.229,3.703c2.469,0.62,19.771,3.995,19.771,3.995s2.455,0.625,5.541,0.305
			c3.104-0.305,16.36-2.757,16.36-2.757l0.306-3.41l-1.224-0.622l-2.168-0.301l-23.45,1.863"/>
		<path fill="none" stroke="#232323" stroke-miterlimit="10" d="M374.885,483.513v3.41c0,0,4.308,1.242,7.707,1.242
			c3.41,0,19.446-2.168,19.446-2.168"/>
	</g>
	<line fill="none" stroke="#232323" stroke-miterlimit="10" x1="379.52" y1="487.846" x2="379.52" y2="491.54"/>
	<line fill="none" stroke="#232323" stroke-miterlimit="10" x1="381.975" y1="487.846" x2="381.975" y2="491.859"/>
	<line fill="none" stroke="#232323" stroke-miterlimit="10" x1="563.16" y1="527.038" x2="563.16" y2="531.996"/>
	<line fill="none" stroke="#232323" stroke-miterlimit="10" x1="566.247" y1="527.038" x2="566.247" y2="532.298"/>
	<line fill="none" stroke="#232323" stroke-miterlimit="10" x1="398.032" y1="480.756" x2="398.032" y2="484.755"/>
	<line fill="none" stroke="#232323" stroke-miterlimit="10" x1="237.515" y1="261.588" x2="258.511" y2="253.585"/>
	<line fill="none" stroke="#232323" stroke-miterlimit="10" x1="351.884" y1="247.105" x2="368.096" y2="283.512"/>
</g>
</svg>
