<?xml version="1.0" encoding="utf-8"?>
<!-- Generator: Adobe Illustrator 16.0.0, SVG Export Plug-In . SVG Version: 6.00 Build 0)  -->
<!DOCTYPE svg PUBLIC "-//W3C//DTD SVG 1.1//EN" "http://www.w3.org/Graphics/SVG/1.1/DTD/svg11.dtd">
<svg version="1.1" id="Layer_1" xmlns="http://www.w3.org/2000/svg" xmlns:xlink="http://www.w3.org/1999/xlink" x="0px" y="0px"
	 width="360px" height="612px" viewBox="0 0 360 612" enable-background="new 0 0 360 612" xml:space="preserve">
<g>
	<polyline fill="none" stroke="#232323" stroke-miterlimit="10" points="199.388,431.018 229.867,432.684 229.764,430.133 	"/>
	<line fill="none" stroke="#232323" stroke-miterlimit="10" x1="277.024" y1="430.414" x2="294.379" y2="430.963"/>
	<line fill="none" stroke="#232323" stroke-miterlimit="10" x1="254.824" y1="429.243" x2="278.027" y2="430.259"/>
	<path fill="none" stroke="#232323" stroke-miterlimit="10" d="M278.372,435.5c0,0,8.082-1.562,13.439-4.494"/>
	<path fill="none" stroke="#232323" stroke-miterlimit="10" d="M272.754,435.219c0,0,3.933-6.922,13.604-7.061"/>
	<line fill="none" stroke="#232323" stroke-miterlimit="10" x1="122.14" y1="444.001" x2="121.16" y2="531.017"/>
	<path fill="none" stroke="#232323" stroke-miterlimit="10" d="M53.791,513.664c0,0-5.779,0.747-6.468,1.043
		c-0.691,0.294-2.706,1.184,0.182,1.436c2.896,0.267,10.472,0.437,12.502,0.355c2.022-0.071,3.453-0.481,4.046-0.607"/>
	<path fill="none" stroke="#232323" stroke-miterlimit="10" d="M46.166,515.763l-0.269,8.725c0,0-0.682,1.169,1.98,1.369
		c2.671,0.212,9.32,0.563,12.955-0.168c3.646-0.721,4.053-0.383,4.152-2.691c0.086-2.315,0.171-6.897,0.171-6.897"/>
	<path fill="none" stroke="#232323" stroke-miterlimit="10" d="M53.775,512.804l0.145,2.089c0,0-0.34,1.207,0.813,1.195
		c1.158-0.017,2.61,0.605,2.652-1.354c0-0.464-0.063-0.874-0.063-0.874"/>
	<path fill="none" stroke="#232323" stroke-miterlimit="10" d="M117.547,548.171c0,0,2.803,2.056,11.009,1.337
		c8.201-0.704,10.697-1.073,11.839-2.241"/>
	<path fill="none" stroke="#232323" stroke-miterlimit="10" d="M117.632,530.746l-0.085,17.425c0,0-0.495,1.902,2.05,2.17
		c2.543,0.269,8.974,1.366,14.864,0.225c5.892-1.155,5.892-1.622,5.976-4.789c0.084-3.2,0.1-16.084,0.1-16.084"/>
	<path fill="none" stroke="#232323" stroke-miterlimit="10" d="M235.027,532.493c0,0,0.29,0.765,5.675,1.061
		c5.385,0.312,12.555,0.464,14.858-1.061"/>
	<path fill="none" stroke="#232323" stroke-miterlimit="10" d="M234.781,518.683l0.246,13.811c0,0-0.516,1.339,1.694,1.85
		c2.206,0.494,11.279,1.875,13.606,1.324c2.299-0.536,5.305-0.579,5.299-2.354c-0.021-1.805-0.207-17.068-0.207-17.068"/>
	<path fill="none" stroke="#232323" stroke-miterlimit="10" d="M275.207,437.915c0,0,0.19,1.393,0.151,3.185
		c-0.045,1.79,1.23,54.942,1.23,54.942l0.436,17.533"/>
	<path fill="none" stroke="#232323" stroke-miterlimit="10" d="M245.525,429.499l0.187,9.077c0,0,0.135,1.098-4.278,0.382
		l-0.256-9.19"/>
	<line fill="none" stroke="#232323" stroke-miterlimit="10" x1="241.308" y1="438.28" x2="229.867" y2="439.183"/>
	<polyline fill="none" stroke="#232323" stroke-miterlimit="10" points="245.712,438.054 256.363,438.942 242.308,439.646 
		229.867,439.183 230.069,441.606 242.227,442.551 256.151,441.787 256.363,438.942 	"/>
	<path fill="none" stroke="#232323" stroke-miterlimit="10" d="M134.347,438.112l22.441-0.904c0,0,24.638-0.494,30.772-0.141
		c6.147,0.351,38.672,2.496,38.672,2.496l3.635,0.194"/>
	<path fill="none" stroke="#232323" stroke-miterlimit="10" d="M127.779,434.458c0,0,2.666,0.437,4.863-0.099"/>
	<path fill="none" stroke="#232323" stroke-miterlimit="10" d="M132.517,432.852c0,0-0.691,1.058-0.114,1.396
		c0.594,0.336,1.22-0.138,1.516,0.396c0.289,0.519,0.363,1.381,0.303,2.016c-0.007,0.126,0,0.278,0.015,0.464
		c0.079,0.705,0.297,1.69-0.17,1.961c-0.578,0.35-3.46,0.507-3.46,0.507l-3.706,0.012l-0.521-0.339c0,0-0.464-0.45-0.417-1.25
		c-0.009-0.765,0.284-1.345,0.044-1.747c-0.241-0.399-0.481-1.145,0.04-1.498c0.521-0.351,1.327-0.254,1.734-0.311
		c0.412-0.069-0.014-1.847-0.014-1.847"/>
	<path fill="none" stroke="#232323" stroke-miterlimit="10" d="M134.221,436.375l13.701-0.59c0,0,2.72-0.606,1.947-3.018"/>
	<line fill="none" stroke="#232323" stroke-miterlimit="10" x1="121.749" y1="438.674" x2="125.913" y2="438.576"/>
	<line fill="none" stroke="#232323" stroke-miterlimit="10" x1="121.79" y1="436.828" x2="125.889" y2="436.729"/>
	<path fill="none" stroke="#232323" stroke-miterlimit="10" d="M113.062,431.755l-0.096,1.152l-1.11,0.298l0.021,1.859
		c0,0,0.818,0.622-3.635,0.311l-0.03-2.015l-1.212-0.339l0.044-1.692"/>
	<polyline fill="none" stroke="#232323" stroke-miterlimit="10" points="121.774,435.261 121.818,440.236 106.609,440.902 
		106.51,436.024 	"/>
	<line fill="none" stroke="#232323" stroke-miterlimit="10" x1="108.115" y1="434.813" x2="98.35" y2="435.419"/>
	<polyline fill="none" stroke="#232323" stroke-miterlimit="10" points="112.049,434.654 113.668,434.583 121.774,435.261 
		106.51,436.024 98.35,435.419 98.22,440.324 100.877,440.717 100.985,439.772 102.956,439.772 103.027,440.744 106.609,440.902 	
		"/>
	<line fill="none" stroke="#232323" stroke-miterlimit="10" x1="77.042" y1="440.337" x2="98.086" y2="439.632"/>
	<line fill="none" stroke="#232323" stroke-miterlimit="10" x1="66.563" y1="439.393" x2="98.079" y2="437.729"/>
	<line fill="none" stroke="#232323" stroke-miterlimit="10" x1="59.097" y1="438.646" x2="59.375" y2="431.176"/>
	<line fill="none" stroke="#232323" stroke-miterlimit="10" x1="55.525" y1="438.362" x2="55.618" y2="431.389"/>
	<path fill="none" stroke="#232323" stroke-miterlimit="10" d="M54.453,430.64c0,0-0.125-1.211,0.691-1.229
		c0.803,0,4.39-0.026,4.39-0.026s0.924,0.114,0.924,0.803c0.015,0.691-0.041,0.988-0.041,0.988l-5.321,0.213
		C55.096,431.389,54.405,430.99,54.453,430.64z"/>
	<path fill="none" stroke="#232323" stroke-miterlimit="10" d="M34.375,436.729c0,0,0.805-0.592,2.543-0.721
		c1.727-0.142,4.792-0.393,4.792-0.393s1.042-0.183,1.058,1.493"/>
	<path fill="none" stroke="#232323" stroke-miterlimit="10" d="M247.005,433.611c0,0,40.833,2.655,44.303,2.779
		c1.293,0.041,2.124,0.225,2.661,0.479c0.888,0.423,0.943,1.073,0.901,1.648c-0.068,0.916,0.593,15.731,0.537,18.042
		c-0.057,2.312,0.506,22.976,0.069,25.837c-0.435,2.862-3.446,11.759-4.187,14.533c-0.746,2.791-1.858,8.033-2.37,11.758
		c-0.506,3.706-1.829,3.326-1.829,3.326l-9.614,1.552l-119.515,13.996c0,0-23.959,3.06-32.283,3.455
		c-8.338,0.365-15.208-1.271-15.208-1.271s-74.167-22.173-76.33-22.623c-2.163-0.44-1.565-2.229-1.565-2.229
		s1.595-64.727,1.502-66.646c-0.093-1.928,0.917-1.857,0.917-1.857l20.529,1.972l55.667,5.231c0,0,6.552,0.407,9.949,0.536
		c3.395,0.11,11.252-0.099,11.252-0.099s2.153-0.65,2.253,1.352c0.096,2.016-0.114,4.329,5.355,4.045
		c5.467-0.268,104.234-5.227,104.234-5.227l9.716-0.552c0,0,2.638,0.519,2.665-3.648c0-1.229,0.301-1.622,1.689-1.622
		c1.388-0.017,33.929-0.847,33.929-0.847s2.774-0.409,1.383-0.704"/>
	<path fill="none" stroke="#232323" stroke-miterlimit="10" d="M174.368,356.904l-0.023,0.634l-1.818,0.14
		c0,0-0.626,0.213,0.203,0.257c0.84,0.055,1.797,0.125,1.797,0.125l0.073,5.442c0,0-0.105,0.237,0.083,0.281
		c0.207,0.071,0.065,0.508,0.065,0.508l0.268-0.044l0.021-0.578c0,0,0.272-0.197,0.14-0.41c-0.147-0.196,0.063-5.311,0.063-5.311
		l2.03-0.085c0,0,0.951-0.254-0.007-0.355c-0.95-0.07-2.056-0.109-2.056-0.109l0.062-0.466"/>
	<path fill="none" stroke="#232323" stroke-miterlimit="10" d="M173.717,354.482c0,0,2.023,0.068,2.277,0.068"/>
	<path fill="none" stroke="#232323" stroke-miterlimit="10" d="M173.451,353.772c0,0,2.191,0.114,2.566,0.114"/>
	<path fill="none" stroke="#232323" stroke-miterlimit="10" d="M173.141,349.633c0,0,2.38,0.235,2.955,0.126"/>
	<path fill="none" stroke="#232323" stroke-miterlimit="10" d="M172.26,346.896c0,0,4.139,0.17,4.799-0.044"/>
	<path fill="none" stroke="#232323" stroke-miterlimit="10" d="M170.348,252.216l0.528,72.156c0,0,0.123,1.209-0.71,1.917
		c-0.832,0.69-5.765,1.198-5.765,1.198"/>
	<path fill="none" stroke="#232323" stroke-miterlimit="10" d="M180.738,327.725c0,0,2.45-0.365,3.057-1.04"/>
	<path fill="none" stroke="#232323" stroke-miterlimit="10" d="M184.162,325.145c0,0,0.087,0.847-0.027,1.114
		c-0.113,0.256-0.422,0.862-3.113,0.775c-2.694-0.099-9.638-0.183-10.285-1.507"/>
	<polyline fill="none" stroke="#232323" stroke-miterlimit="10" points="162.497,325.768 170.876,324.372 184.418,325.117 
		184.052,256.16 	"/>
	<path fill="none" stroke="#232323" stroke-miterlimit="10" d="M164.942,327.613l9.015-0.661l6.744,0.448
		c0,0,0.271,6.979,0.079,8.165c-0.196,1.195,0.068,4.89-3.869,4.751c-2.836-0.114-3.646-0.173-3.646-0.173"/>
	<path fill="none" stroke="#232323" stroke-miterlimit="10" d="M166.712,329.008c1.883-0.972,3.596-0.183,4.905,0.705
		c1.312,0.888,1.474,3.144,1.474,3.144l0.126,7.626l4.279,0.166c0,0,0.163,1.722,0.1,2.415c-0.044,0.69-0.861,0.437-0.861,0.437
		l-3.383-0.03c0,0-1.55,0.478-2.211-1.537c-0.65-2.028-0.763-3.933-0.862-5.494c-0.1-1.551,0.099-5.642-1.099-6.472
		c-1.19-0.83-1.967-1.622-3.202,0.085"/>
	<path fill="none" stroke="#232323" stroke-miterlimit="10" d="M162.047,256.685l0.48,68.886l0.063,1.396
		c0,0,1.746,0.674,3.191,0.83c0.122,0.819,0.995,0.634,0.995,0.634c1.036-0.068,0.117,0.396,0.117,0.396s-0.303,0.312-0.662,0.763
		c-0.55,0.69-1.239,1.717-1.339,2.607c-0.154,1.523-0.24,4.822,0.873,7.174c1.842,4.737,3.913,4.24,3.913,4.24
		c2.769-0.027,2.543-0.14,2.543-0.14l0.038,3.427c0,0,0.693,0.394,0.755,1.027c0.063,0.634,0.039,1.327,0.039,1.327
		s-0.101,0.464,0.356,0.519c-0.021,0.903,0.042,4.003,0.042,4.003s0.605,0.399,0.203,0.836c-0.084,0.251-0.084,0.394-0.054,0.8
		c0.033,0.412,0.126,1.354,0.126,1.354s1.19,0.199,2.292,0.101c0.141-0.114,0.084-0.338,0.103-1.005
		c0.023-0.677-0.007-1.152-0.007-1.152s-0.322-0.48-0.21-0.649c0.114-0.17,0.231-0.055,0.255-1.07
		c0.018-0.999-0.062-3.228-0.062-3.228s0.413,0.081,0.398-0.945c0.107-0.975,0.14-1.354,0.396-1.649
		c0.256-0.283,0.282-0.396,0.31-1.1c0.015-0.69,0.112-2.466,0.112-2.466"/>
	<path fill="none" stroke="#232323" stroke-miterlimit="10" d="M97.834,366.896c0,0-0.184,1.792,1,1.947"/>
	<path fill="none" stroke="#232323" stroke-miterlimit="10" d="M108.495,368.562c0,0,1.554,0.184,2.139,0.071"/>
	<path fill="none" stroke="#232323" stroke-miterlimit="10" d="M98.567,368.224c0,0,1.852,0.24,2.46,0.196l2.543,0.099
		c0,0-0.74,0.988-0.699,2.469c0.046,1.463,0.496,10.513,0.496,10.513s0.077,1.943,0.03,2.468c-0.06,0.521-0.249,1.494-0.249,1.494"
		/>
	<path fill="none" stroke="#232323" stroke-miterlimit="10" d="M108.51,367.153l-0.016,1.703c0,0,0.327,0.284,0.637,0.339
		c0.317,0.055,0.491,3.381,0.491,3.381l0.41-3.31l0.607-0.383c0.014-0.803,0.07-1.846,0.07-1.761"/>
	<path fill="none" stroke="#232323" stroke-miterlimit="10" d="M98.475,366.855l0.092,1.368c0,0,0.148,0.747,0.787,0.731
		c0.208,0.142,0.178,0.552,0.186,0.929c0.007,0.368,0.07,1.595,0.07,1.595l0.374,0.055l0.21-2.49c0,0,0.803,0.139,0.887-0.737
		c0.085-0.872,0.052-1.41,0.052-1.41"/>
	<polyline fill="none" stroke="#232323" stroke-miterlimit="10" points="98.263,366.855 117.16,367.251 117.322,365.165 	"/>
	<path fill="none" stroke="#232323" stroke-miterlimit="10" d="M93.036,364.163c0,0,0.521-1.111,1.184-1.298
		c0.654-0.169,3.113-0.224,4.214-0.213c0.147,0.017,15.364,0.146,15.364,0.146s1.21,0.265,2.056,0.631
		c0.84,0.368,1.476,0.832,1.469,1.736c-1.25-0.057-18.889-0.339-18.889-0.339"/>
	<path fill="none" stroke="#232323" stroke-miterlimit="10" d="M92.625,364.247l4.978-0.45c0,0,0.753-0.211,0.753,0.494
		c0.011,0.688-0.093,2.564-0.093,2.564l-5.638,0.325V364.247z"/>
	<path fill="none" stroke="#232323" stroke-miterlimit="10" d="M104.339,385.743l4.241-0.224c-0.746-0.028-1.042-0.41-1.804-1.016
		c-0.754-0.593-1.213-3.455-1.213-3.455s-0.603-9.412-0.577-10.4c0.016-0.988,0.706-1.508,0.94-1.721
		c0.233-0.196,1.006-0.142,1.006-0.142l1.563,0.07"/>
	<path fill="none" stroke="#232323" stroke-miterlimit="10" d="M100.771,368.944c0,0,0.622,0.844,0.599,2.057
		c-0.019,1.209-0.074,11.192-0.074,11.192s-0.439,2.974-0.82,3.34"/>
	<path fill="none" stroke="#232323" stroke-miterlimit="10" d="M97.222,389.424l-0.06-3.102c0,0-0.033-0.677,0.751-0.722
		c0.788-0.04,5.236-0.139,5.236-0.139s1.213-0.268,1.246,0.521c0.028,0.775,0.07,1.128,0.07,1.128l3.85-0.027
		c0,0,0.31-0.156,0.31-0.789c-0.014-0.634-0.044-0.775-0.044-0.775s0.496-0.099,0.84,0.014c0.352,0.112,0.373,0.28,0.389,0.887
		c0,0.606-0.037,2.523-0.037,2.523"/>
	<line fill="none" stroke="#232323" stroke-miterlimit="10" x1="85.599" y1="389.889" x2="85.591" y2="388.692"/>
	<line fill="none" stroke="#232323" stroke-miterlimit="10" x1="75.985" y1="388.889" x2="76" y2="390.184"/>
	<line fill="none" stroke="#232323" stroke-miterlimit="10" x1="164.255" y1="364.433" x2="164.342" y2="388.154"/>
	<polyline fill="none" stroke="#232323" stroke-miterlimit="10" points="152.229,365.405 152.244,366.743 158.483,366.279 
		158.537,364.826 	"/>
	<path fill="none" stroke="#232323" stroke-miterlimit="10" d="M175.887,378.796c0,0,1.058,1.437,0.256,2.367"/>
	<path fill="none" stroke="#232323" stroke-miterlimit="10" d="M169.426,373.747c0,0,1.869,1.608,0.079,3.072"/>
	<path fill="none" stroke="#232323" stroke-miterlimit="10" d="M176.269,370.168c0,0,1.701,1.437,0.1,3.187"/>
	<path fill="none" stroke="#232323" stroke-miterlimit="10" d="M181.005,374.651c0,0,1.519,1.48,0.077,2.933"/>
	<path fill="none" stroke="#232323" stroke-miterlimit="10" d="M185.642,376.033c0.021,1.791-1.294,3.255-2.957,3.282
		c-1.663,0.017-3.04-1.409-3.063-3.201c-0.025-1.788,1.312-3.265,2.962-3.281C184.249,372.816,185.616,374.241,185.642,376.033z"/>
	<path fill="none" stroke="#232323" stroke-miterlimit="10" d="M179.202,379.921c0.007,1.158-0.789,2.087-1.776,2.101
		c-0.995,0-1.805-0.915-1.812-2.07c-0.015-1.155,0.784-2.086,1.767-2.1C178.369,377.835,179.186,378.769,179.202,379.921z"/>
	<path fill="none" stroke="#232323" stroke-miterlimit="10" d="M172.788,375.284c0.016,1.257-0.846,2.272-1.912,2.283
		c-1.064,0.017-1.952-0.999-1.958-2.238c-0.012-1.257,0.853-2.272,1.926-2.272C171.91,373.046,172.781,374.045,172.788,375.284z"/>
	<path fill="none" stroke="#232323" stroke-miterlimit="10" d="M179.645,371.732c0.014,1.283-0.859,2.354-1.944,2.354
		c-1.083,0.014-1.975-1.029-1.995-2.313c-0.006-1.293,0.873-2.351,1.953-2.364C178.743,369.392,179.637,370.436,179.645,371.732z"/>
	<path fill="none" stroke="#232323" stroke-miterlimit="10" d="M184.139,376.061c0.009,1.212-0.807,2.2-1.81,2.211
		c-0.997,0.017-1.816-0.955-1.831-2.185c-0.016-1.212,0.788-2.211,1.791-2.211C183.303,373.876,184.126,374.848,184.139,376.061z"/>
	<path fill="none" stroke="#232323" stroke-miterlimit="10" d="M187.378,368.42c0,1.07-0.734,1.947-1.636,1.961
		c-0.917,0-1.663-0.847-1.663-1.934c-0.016-1.07,0.713-1.944,1.627-1.944C186.607,366.489,187.354,367.35,187.378,368.42z"/>
	<path fill="none" stroke="#232323" stroke-miterlimit="10" d="M160.693,381.331c0.014,0.747-0.266,1.354-0.622,1.354
		c-0.344,0-0.631-0.606-0.647-1.338c0-0.762,0.281-1.367,0.622-1.367C160.398,379.965,160.693,380.585,160.693,381.331z"/>
	<path fill="none" stroke="#232323" stroke-miterlimit="10" d="M156.453,384.462c0,0.691-0.303,1.271-0.693,1.271
		c-0.387,0-0.706-0.565-0.706-1.257c-0.016-0.704,0.312-1.282,0.677-1.282C156.125,383.193,156.437,383.755,156.453,384.462z"/>
	<path fill="none" stroke="#232323" stroke-miterlimit="10" d="M155.591,372.86c0.014,0.761-0.305,1.364-0.677,1.364
		c-0.396,0-0.703-0.604-0.71-1.349c-0.007-0.747,0.295-1.354,0.68-1.354C155.268,371.506,155.575,372.111,155.591,372.86z"/>
	<path fill="none" stroke="#232323" stroke-miterlimit="10" d="M160.046,372.592c0,0.634-0.256,1.128-0.573,1.142
		c-0.321,0-0.583-0.508-0.583-1.125c-0.016-0.622,0.24-1.13,0.573-1.13C159.777,371.465,160.03,371.973,160.046,372.592z"/>
	<polyline fill="none" stroke="#232323" stroke-miterlimit="10" points="150.402,388.097 150.376,365.419 158.483,365.179 
		158.537,364.826 164.255,364.433 192.831,364.938 193.211,388.127 	"/>
	<line fill="none" stroke="#232323" stroke-miterlimit="10" x1="137.083" y1="388.141" x2="136.971" y2="433.219"/>
	<path fill="none" stroke="#232323" stroke-miterlimit="10" d="M293.639,427.976l-116.416,3.86l-40.251,1.383L13.97,425.381
		l0.876-32.35c0,0,0.281-0.772,0.987-0.789l73.859-2.496l19.931-0.759l27.459-0.847l67.564,0.055l80.57,0.114l11.601,0.099
		l5.362-0.043l38.842-0.238l2.883,0.027c0,0,1.695,0.353,2.185,1.777c0.473,1.423,3.312,8.627,3.942,10.923
		c0.645,2.31,1.66,4.582,1.465,13.374c-0.186,8.798-2.46,13.594-2.879,14.746c-0.407,1.171-0.815,3.594-2.97,3.807
		c-2.157,0.213-34.494,2.239-34.494,2.239s-8.094,0.102-9.562,0.114c-1.471,0.027-5.059,0.018-5.059,0.018s-0.884-0.23-1.36-1.693
		c-0.476-1.47-0.794-2.496-0.794-2.496l-1.12-5.046c0,0-2.318-12.897-1.549-21.425c0.235-4.217,1.582-14.211,1.582-14.211
		c0.254-0.885,0.745-1.239,1.788-1.408c1.043-0.153,3.935-0.448,3.935-0.448"/>
	<path fill="none" stroke="#232323" stroke-miterlimit="10" d="M304.64,389.296c0,0,1.762,43.654,2.127,45.686"/>
	<path fill="none" stroke="#232323" stroke-miterlimit="10" d="M293.934,389.211l9.83,0.085c0,0,10.125-0.254,12.031-0.265
		c1.917-0.018,27.875-0.877,27.875-0.877"/>
	<path fill="none" stroke="#232323" stroke-miterlimit="10" d="M328.367,411.002c0,0-1.562,2.018-3.4,2.256
		c-1.855,0.239-5.373-0.647-5.54-2.917c-0.186-2.267,0.374-4.819,1.333-5.906c0.955-1.101,3.358-3.465,5.444-2.832
		c2.086,0.634,3.949,1.239,3.962,3.13c0.014,1.887,0.296,3.085-0.275,3.976"/>
	<path fill="none" stroke="#232323" stroke-miterlimit="10" d="M318.588,421.066c0,0-2.263-7.271-0.98-10.977
		c1.268-3.725,3.101-6.739,4.74-8.107c1.645-1.368,7.482-5.229,12.54-4.159"/>
	<path fill="none" stroke="#232323" stroke-miterlimit="10" d="M318.425,421.066c0,0-5.809-7.851-6.122-13.137
		c-0.319-5.271,0.434-11.373,3.98-13.22c3.521-1.848,7.797-2.989,12.902-0.622l4.73,2.639c0,0,1.813,0.321,0.496,2.959
		c-1.329,2.635-4.402,9.399-5.392,10.611c-0.986,1.202-7.412,8.121-8.06,8.782C320.307,419.742,318.862,421.493,318.425,421.066z"/>
	<line fill="none" stroke="#232323" stroke-miterlimit="10" x1="69.129" y1="389.069" x2="69.226" y2="390.424"/>
	<path fill="none" stroke="#232323" stroke-miterlimit="10" d="M226.562,371.058c0,0,13.378-3.823,24.166-0.497"/>
	<line fill="none" stroke="#232323" stroke-miterlimit="10" x1="184.085" y1="270.948" x2="206.552" y2="273.302"/>
	<line fill="none" stroke="#232323" stroke-miterlimit="10" x1="183.979" y1="265.916" x2="207.732" y2="268.537"/>
	<path fill="none" stroke="#232323" stroke-miterlimit="10" d="M195.062,388.226c0,0,0.207-29.505,0.354-32.804
		c0.137-3.299,2.73-37.804,4.506-47.529c0.917-6.78,3.681-21.144,4.405-24.739c0.723-3.593,3.79-16.125,3.79-16.125l16.853-11.654
		l1.396,113.537c0,0-0.155,2.387,0.941,2.726c1.102,0.336,16.126,5.283,18.806,6.537c2.666,1.256,7.604,3.244,8.31,3.694
		c0.691,0.451,0.586,0.691,0.648,2.128c0.062,1.452,0.218,4.286,0.218,4.286"/>
	<path fill="none" stroke="#232323" stroke-miterlimit="10" d="M260.139,388.293c0,0,0.381-3.353,1.819-4.227
		c1.436-0.887,1.903-1.185,4.324-1.212c2.426-0.014,8.859,0.213,8.859,0.213s2.026,0.278,2.784,1.72
		c0.765,1.437,1.061,2.595,1.02,3.452"/>
	<path fill="none" stroke="#232323" stroke-miterlimit="10" d="M283.292,382.712c0,0-1.926-1.774-7.533-2.127
		c-5.62-0.353-11.461-0.254-12.504-0.068c-1.043,0.181-7.338,0.814-7.512,1.803c-0.159,0.985-0.093,1.846-0.138,3.129
		c-0.045,1.267,0.021,2.72,0.021,2.72"/>
	<path fill="none" stroke="#232323" stroke-miterlimit="10" d="M214.701,251.709l12.103,1.505l6.771,0.818
		c0,0,0.699,0.225,0.529,1.085c-0.573,0.648-1.382,1.17-1.382,1.17l-3.003-0.437l-16.852-1.874"/>
	<line fill="none" stroke="#232323" stroke-miterlimit="10" x1="259.407" y1="250.905" x2="276.023" y2="253.203"/>
	<path fill="none" stroke="#232323" stroke-miterlimit="10" d="M266.6,239.854l8.482,10.797c0,0,2.509,2.128-0.312,3.89
		c-2.819,1.747-17.886,11.84-17.886,11.84s-0.875,0.635-3.122,0.437c-1.444,0.875-5.24,3.509-5.24,3.509"/>
	<path fill="none" stroke="#232323" stroke-miterlimit="10" d="M233.357,255.907l17.557,2.256c0,0,1.723-0.056,1.797,1.101
		c0.072,1.155-0.229,1.226-0.818,1.859c-0.607,0.648-3.07,3.539-3.07,3.539s-0.34,0.112-0.318,3.269
		c0.019,3.146,1.308,70.408,1.308,70.408l0.568,31.151c0,0-0.11,1.311,1.19,1.736c1.309,0.421,20.988,5.314,26.311,7.979
		c5.321,2.676,5.693,3.069,5.688,4.745c-0.018,1.68,0.027,4.37,0.027,4.37"/>
	<path fill="none" stroke="#232323" stroke-miterlimit="10" d="M254.093,244.801l4.524,5.104c0,0,1.69,1.437,0.249,2.366
		c-1.436,0.944-8.798,5.893-8.798,5.893"/>
	<line fill="none" stroke="#232323" stroke-miterlimit="10" x1="217.046" y1="245.28" x2="259.407" y2="250.905"/>
	<line fill="none" stroke="#232323" stroke-miterlimit="10" x1="237.715" y1="223.996" x2="240.462" y2="227.589"/>
	<path fill="none" stroke="#232323" stroke-miterlimit="10" d="M216.806,235.412l48.745,6.979c0,0,2.16,0.676,1.86,2.143"/>
	<path fill="none" stroke="#232323" stroke-miterlimit="10" d="M211.538,223.276c0,0,43.011,6.258,44.57,6.865
		c1.546,0.591,5.185,2.1,7.668,5.088c2.496,2.987,3.539,6.92,3.702,7.993c0.164,1.086-0.589,3.397-0.589,3.397l-49.431-7.05"/>
	<path fill="none" stroke="#232323" stroke-miterlimit="10" d="M208.724,219.372l40.4,6.498l5.023,0.972
		c0,0,2.315,0.282,4.664,4.342"/>
	<path fill="none" stroke="#232323" stroke-miterlimit="10" d="M198.694,210.9c0,0,9.856,6.387,14.013,14.139
		c4.159,7.753,5.519,13.757,4.339,20.242c-1.176,6.498-5.382,11.078-9.919,12.276c-3.144,0.96-11.309,3.651-23.105,3.749"/>
	<line fill="none" stroke="#232323" stroke-miterlimit="10" x1="89.22" y1="260.673" x2="162.102" y2="268.594"/>
	<line fill="none" stroke="#232323" stroke-miterlimit="10" x1="89.256" y1="255.456" x2="161.866" y2="263.619"/>
	<path fill="none" stroke="#232323" stroke-miterlimit="10" d="M162.06,257.416l-1.17-0.591c0,0,3.653-0.284,5.872-2.003
		c2.226-1.719,2.573-1.79,2.883-2.1c0.303-0.312,0.606-0.62,1.269-0.324c0.656,0.295,8.557,3.426,13.833,3.807
		c1.392,0.225,1.475,0.451,0.172,1.281c-0.381,0.269-0.926,0.621-0.926,0.621"/>
	<path fill="none" stroke="#232323" stroke-miterlimit="10" d="M139.883,249.298c0,0,7.518,4.382,9.758,5.257
		c2.245,0.857,9.249,3.89,12.298,4.198"/>
	<polyline fill="none" stroke="#232323" stroke-miterlimit="10" points="140.507,242.446 95.183,236.738 93.767,237.878 
		93.893,238.88 140.186,244.842 	"/>
	<line fill="none" stroke="#232323" stroke-miterlimit="10" x1="140.733" y1="201.737" x2="143.384" y2="201.246"/>
	<path fill="none" stroke="#232323" stroke-miterlimit="10" d="M159.79,58.737c-1.274-0.861-1.453-0.861-1.453-0.861
		c0.186,1.79,3.047,51.294,3.259,55.339c0.203,4.046,1.984,49.322,2.14,53.664c0.165,4.34,1.354,54.888,1.354,54.888"/>
	<path fill="none" stroke="#232323" stroke-miterlimit="10" d="M191.315,64.657"/>
	<path fill="none" stroke="#232323" stroke-miterlimit="10" d="M164.273,221.317c0,0-2.726-7.554-8.211-12.487
		c-5.476-4.92-8.563-7.499-10.182-7.599c-1.623-0.099-2.496,0.015-2.496,0.015l0.1-21.863"/>
	<path fill="none" stroke="#232323" stroke-miterlimit="10" d="M134.856,211.336c0,0,0.57-0.76,1.276-0.421
		c0.691,0.339,2.436,1.592,3.432,2.805c1.003,1.211,2.756,4.144,3.346,6.048c0.6,1.901,1.136,3.58,1.264,4.384
		c0.112,0.802,0.063,1.211-0.45,2.324c-0.51,1.101-0.961,1.975-0.961,1.975s-0.521,0.521,0.303,1.606
		c0.817,1.101,3.109,4.779,3.109,4.779s1.571,1.903,0.02,3.184c-1.543,1.284-5.968,4.738-5.968,4.738l-0.034,2.367l-0.58,0.24
		l0.27,3.934c0,0,4.825,3.834,12.671,0.689c3.572-1.48,6.942-6.652,7.773-10.586c0.833-3.947,1.401-11.177-1.897-18.903
		c-1.711-3.396-2.838-6.399-5.346-9.036c0,0-7.192-7.806-12.351-9.727c0,0-5.876,2.13-7.089,2.552
		c-1.211,0.41-4.792,1.947-4.792,1.947"/>
	<path fill="none" stroke="#232323" stroke-miterlimit="10" d="M130.859,210.788l-2.219-3.283c0,0-0.932-0.903,0.507-1.509
		c1.495-0.522,1.439-1.043,1.479-1.973c0.34-1.791,2.086-12.392,2.086-12.392s0.06-1.283,1.087-1.521
		c0.466-0.41,0.748-1.863,1.197-3.428c0.444-1.562,2.763-7.483,6.005-7.919c1.55-0.127,1.903,0.155,2.19,0.45
		c0.293,0.282,0.533,0.563,0.51-1.395c-0.007-1.973-0.133-56.524-0.154-58.722c-0.023-2.2-0.023-35.224-0.037-36.904
		c-0.016-1.676,0-12.489,0.17-13.588c0.162-1.114,0.792-2.213,4.123-4.272c2.713-1.873,10.191-6.384,10.191-6.384
		s3.632-1.257,10.58-0.564c6.947,0.69,14.009,1.734,21.518,6.172c1.802,1.143,1.811,2.129,1.879,3.638
		c0.072,1.494,1.774,24.57,1.774,24.683c0,0.125,2.218,34.575,2.218,34.575s2.528,51.93,2.318,60.429
		c0.019,2.719,0.5,36.621,0.5,36.621s0.24,1.565-2.07,3.031c-2.301,1.467-7.867,6.133-7.867,6.133s-5.535,1.958-13.792-3.455
		c0,0-8.796-6.526-10.256-7.499c-1.45-0.972-8.148-6.343-9.43-7.331"/>
	<path fill="none" stroke="#232323" stroke-miterlimit="10" d="M75.985,219.837c0,0,2.044-4.185,4.83-3.905
		c2.777,0.282,15.598,2.171,15.598,2.171l47.804,7.076"/>
	<path fill="none" stroke="#232323" stroke-miterlimit="10" d="M74.834,202.26c0,0,4.556,1.269,6.937,9.431
		c0.966,3.678,1.128,4.989,0.522,6.386c-0.6,1.395-0.987,2.635-0.987,2.635"/>
	<line fill="none" stroke="#232323" stroke-miterlimit="10" x1="66.999" y1="197.284" x2="128.331" y2="207.025"/>
	<path fill="none" stroke="#232323" stroke-miterlimit="10" d="M142.707,229.196c0,0-60.85-8.416-64.163-8.782
		c-3.251-0.196-3.173-0.972-4.498-2.186c-1.323-1.227-3.982-4.664-5.468-7.582c-1.494-2.933-0.056-5.878-0.056-5.878
		s2.141-2.792,5.299-2.582c3.173,0.198,12.439,1.82,12.439,1.82l51.322,7.837"/>
	<line fill="none" stroke="#232323" stroke-miterlimit="10" x1="83.772" y1="228.703" x2="146.712" y2="237.26"/>
	<line fill="none" stroke="#232323" stroke-miterlimit="10" x1="75.696" y1="226.66" x2="60.572" y2="243.207"/>
	<path fill="none" stroke="#232323" stroke-miterlimit="10" d="M58.895,196.776l15.63,28.798c0,0,1.234,1.607,3.147,1.875
		c1.914,0.282,6.256,0.874,6.256,0.874"/>
	<path fill="none" stroke="#232323" stroke-miterlimit="10" d="M80.038,220.711l3.595,6.455c0,0,1.042,0.974-0.452,2.312
		c-1.487,1.353-6.187,6.428-6.187,6.428"/>
	<path fill="none" stroke="#232323" stroke-miterlimit="10" d="M70.29,203.218l-3.292-5.934l-1.097-0.099
		c0,0-2.327-0.381-4.929-0.479c-2.601-0.097-3.868,0.733-3.868,0.733s-8.979,4.989-10.883,6.047
		c-1.901,1.059-1.946,1.635-1.994,3.089c-0.043,1.437,0.29,6.991,2.5,14.489c2.682,8.951,11.279,20.029,11.279,20.029
		s1.93,2.297,3.849,2.694c1.084,0.281,3.176,0.494,0.312,3.353c-2.863,2.863-10.617,10.148-10.617,10.148"/>
	<path fill="none" stroke="#232323" stroke-miterlimit="10" d="M67.787,248.706c0,0,0.156-2.481-0.662-2.65
		c-1.364,1.509-11.685,11.614-11.685,11.614s0.24,0.989-3.305,0.03c-0.987-0.34-1.868-1.438-1.883-2.706
		c-0.015-1.269,0.13-25.4,0.13-25.4"/>
	<line fill="none" stroke="#232323" stroke-miterlimit="10" x1="67.366" y1="258.544" x2="55.892" y2="257.318"/>
	<line fill="none" stroke="#232323" stroke-miterlimit="10" x1="76.77" y1="388.846" x2="78.606" y2="235.314"/>
	<path fill="none" stroke="#232323" stroke-miterlimit="10" d="M65.661,389.184l1.753-130.864l0.277-8.683
		c0,0,0.535-4.64,2.591-6.966c2.061-2.339,5.273-5.594,5.273-5.594s2.179-2.101,4.039-1.777c1.853,0.339,8.571,1.311,8.571,1.311
		s1.388-0.705,1.302,3.229c-0.085,3.933-1.261,107.847-1.261,107.847l-0.569,40.963l-10.868,0.197L65.661,389.184z"/>
</g>
</svg>
