<?xml version="1.0" encoding="utf-8"?>
<!-- Generator: Adobe Illustrator 16.0.0, SVG Export Plug-In . SVG Version: 6.00 Build 0)  -->
<!DOCTYPE svg PUBLIC "-//W3C//DTD SVG 1.1//EN" "http://www.w3.org/Graphics/SVG/1.1/DTD/svg11.dtd">
<svg version="1.1" id="Layer_1" xmlns="http://www.w3.org/2000/svg" xmlns:xlink="http://www.w3.org/1999/xlink" x="0px" y="0px"
	 width="288px" height="612px" viewBox="0 0 288 612" enable-background="new 0 0 288 612" xml:space="preserve">
<path fill="none" stroke="#232323" stroke-miterlimit="10" d="M172.174,572.174"/>
<path fill="none" stroke="#232323" stroke-miterlimit="10" d="M154.688,572.7"/>
<path fill="none" stroke="#232323" stroke-miterlimit="10" d="M178.174,571.174l-13.76-46.639c0,0,5.387-0.741,6.306-2.148
	c2.953-4.65-2.322-21.957-2.322-21.957s3.07-36.771,3.161-50.088c0.082-12.493-2.485-49.938-2.485-49.938
	s-4.716-20.419-4.832-27.365c-0.074-3.688,1.12-11.008,2.065-14.567c0.89-3.292,5.12-12.657,5.12-12.657s58.357-5.287,60.812-6.309
	c1.489-0.616,3.373-3.604,3.858-5.131c0.609-1.896-0.764-4.807-0.312-6.77c0.276-1.239,2.437-5.789,2.437-5.789l23.415-3.202
	c2.884-1.551,6.896-7.949,6.678-11.2c-0.227-3.119-4.853-8.774-7.818-9.778l-21.879,1.557l1.761-88.988
	c0,0,37.586-3.224,39.372-5.162c1.404-1.517,2.873-5.578,3.26-7.603c0.264-1.352,0.264-4.193-0.165-5.494
	c-0.717-2.259-3.721-6.033-5.234-7.848c-1.835-2.201-36.903,3.599-36.903,3.599l-1.77-25.45c0,0-0.493-3.88-1.136-4.965
	c-9.111-15.248-53.412-46.91-53.412-46.91s0.444-5.897,0.501-8.275c0.018-1.14,0.093-4.055-0.283-5.138
	c-0.489-1.417-3.123-4.007-4.275-4.987c-0.831-0.684-2.521-2.173-3.579-2.387c-5.462-1.115-21.877,4.157-21.877,4.157
	s-19.174-11.25-26.375-12.217c-5.366-0.704-21.386,3.641-21.386,3.641l-2.155-38.443c0,0-5.182-2.901-7.1-3.275
	c-1.477-0.299-4.559-0.245-6.007,0.168c-1.734,0.52-6.238,3.745-6.238,3.745l-2.873,43.415c0,0-54.046,8.991-60.544,14.946
	c-7.716,7.077-13.991,117.445-4.02,183.21c0.473,3.149,3.127,12.362,3.127,12.362l2.42,5.432l8.123,4.259l9.596,3.209l43.392,12.708
	c0,0,2.926,3.835,4.145,4.876c1.017,0.889,3.271,2.526,4.584,2.868c1.691,0.461,5.35-0.782,7-0.214
	c2.679,0.93,7.477,4.699,8.719,7.242c0.947,1.913-0.806,6.649,0.263,8.493c1.136,1.988,4.576,2.881,3.745,8.395
	c-0.844,5.522,0.412,8.991,0.412,8.991s-6.289,5.197-6.403,7.69c-0.124,3.005,6.938,9.798,6.938,9.798s-2.325,105.282-0.338,110.542
	c1.375,3.694,15.119,4.538,15.119,4.538s-2.057,20.862,2.011,25.299c2.72,2.95,12.748-0.733,12.748-0.733l16.91,47.014"/>
<path fill="none" stroke="#232323" stroke-miterlimit="10" d="M125.66,128.131c0,0,33.298,6.739,51.189,14.475
	c15.695,6.773,35.843,17.834,44.331,27.794c0.563,0.643,1.165,2.268,1.358,3.088c0.201,0.916,0.382,2.85,0.098,3.743
	c-4.356,14.719-18.627,30.838-36.792,49.116c-23.537,23.729-56.292,32.196-56.292,32.196"/>
<path fill="none" stroke="#232323" stroke-miterlimit="10" d="M62.133,245.096c0.181,7.123-1.807,12.935-5.729,13.056
	c-5.308,0.161-8.061-5.518-8.262-12.643c-0.223-7.097,3.546-12.96,7.468-13.096C60.7,232.265,61.984,238.487,62.133,245.096z"/>
<path fill="none" stroke="#232323" stroke-miterlimit="10" d="M111.258,190.074c0.189,6.625-1.688,10.553-8.922,11.765
	l-68.407,11.559c-6.625,0.2-8.197,1.864-8.386-4.75l2.469-81.094c-0.214-6.64,5.818-9.639,11.777-11.1l67.149-12.02
	c6.612-0.21,4.254,12.748,4.46,19.373L111.258,190.074z"/>
<path fill="none" stroke="#232323" stroke-miterlimit="10" d="M61.12,253.261c-0.444,1.837-2.283,4.325-4.073,4.368
	c-2.341,0.066-3.802-0.354-3.869-2.209c-0.041-1.873,3.375-4.34,5.711-4.416C61.244,250.937,61.582,251.461,61.12,253.261z"/>
<path fill="none" stroke="#232323" stroke-miterlimit="10" d="M199.243,202.208c0,1.918-1.209,5.655-5.356,4.585
	c-2.119-0.546-9.609-7.716-9.597-19.705c0.012-10.187,5.16-19.678,9.77-11.905"/>
<path fill="none" stroke="#232323" stroke-miterlimit="10" d="M204.162,174.046l-12.082,1.362c0,0-5.461,0.773-3.621,16.61
	c1.004,8.721,6.168,10.939,6.168,10.939l13.822-2.79"/>
<path fill="none" stroke="#232323" stroke-miterlimit="10" d="M212.716,188.301c0.227,7.437,0,11.737-4.267,11.867
	c-4.276,0.138-8.954-6.522-9.181-13.972c-0.214-7.454,1.766-12.06,6.032-12.183C209.572,173.894,212.617,184.669,212.716,188.301z"
	/>
<path fill="none" stroke="#232323" stroke-miterlimit="10" d="M240.706,187.698c-0.625,0.067-1.267,0.407-4.938,0.776
	c-2.699,0.267-5.51,0.915-4.593,11.012c0.621,6.74,2.169,11.077,5.233,10.97c3.071-0.09,1.115,0.14,3.968-0.25"/>
<path fill="none" stroke="#232323" stroke-miterlimit="10" d="M239.176,298.672l-5.12,0.627c0,0-2.868,0.333-9.493,0.541
	l-0.485,0.013c-9.377,0.277-11.862,4.729-11.682,11.353v0.502c0.222,6.625,1.538,13.086,12.378,11.625l0.485-0.021
	c6.634-0.185,12.341-0.987,12.962-1.497"/>
<path fill="none" stroke="#232323" stroke-miterlimit="10" d="M84.834,326.901c-16.192-17.662,18.457-16.053,43.833-16.814
	c25.407-0.753,66.041,11.036,66.239,18.283c0.106,3.402,0.346,11.402-25.414,17.938"/>
<path fill="none" stroke="#232323" stroke-miterlimit="10" d="M112.311,353.582"/>
<path fill="none" stroke="#232323" stroke-miterlimit="10" d="M112.698,366.569"/>
<polyline fill="none" stroke="#232323" stroke-miterlimit="10" points="112.311,353.582 111.912,340.604 118.408,340.406 
	124.927,340.217 126.816,353.981 128.729,367.767 120.713,367.166 113.45,366.651 "/>
<path fill="none" stroke="#232323" stroke-miterlimit="10" d="M232.238,339.505l-98.979-43.22c0,0-3.206-1.909-3.946-2.88
	c-1.263-1.658-2.566-5.695-3.036-7.721c-6.465-28.058-6.827-86.198-7.774-115.006c-0.671-20.754,0.103-62.915,5.947-82.865
	c0.395-1.38,1.576-4.226,2.749-5.076c0.501-0.364,2.329-0.435,2.317-1.06"/>
<path fill="none" stroke="#232323" stroke-miterlimit="10" d="M15.008,244.955c-2.617-20.589-4.371-12.023-5.687-55.836
	c-1.312-43.825,10.822-76.96,13.575-81.345"/>
<path fill="none" stroke="#232323" stroke-miterlimit="10" d="M49.253,258.685"/>
<path fill="none" stroke="#232323" stroke-miterlimit="10" d="M29.233,107.585"/>
<path fill="none" stroke="#232323" stroke-miterlimit="10" d="M115.915,87.414c0,0,0.041,43.392-1.539,76.092
	c-1.466,30.275-4.003,69.788-4.003,69.788"/>
<line fill="none" stroke="#232323" stroke-miterlimit="10" x1="82.741" y1="90.775" x2="107.113" y2="85.166"/>
<path fill="none" stroke="#232323" stroke-miterlimit="10" d="M154.875,93.743c-7.314,0.218-7.139,6.651-6.912,13.709
	c0.209,7.028,6.477,16.31,10.97,10.687"/>
<path fill="none" stroke="#232323" stroke-miterlimit="10" d="M158.933,118.138l21.037-4.627c0,0,2.362-1.539,2.93-2.265
	c0.297-0.371,0.79-1.689,0.79-1.689"/>
</svg>
