<?xml version="1.0" encoding="utf-8"?>
<!-- Generator: Adobe Illustrator 16.0.0, SVG Export Plug-In . SVG Version: 6.00 Build 0)  -->
<!DOCTYPE svg PUBLIC "-//W3C//DTD SVG 1.1//EN" "http://www.w3.org/Graphics/SVG/1.1/DTD/svg11.dtd">
<svg version="1.1" id="Layer_1" xmlns="http://www.w3.org/2000/svg" xmlns:xlink="http://www.w3.org/1999/xlink" x="0px" y="0px"
	 width="720px" height="612px" viewBox="0 0 720 612" enable-background="new 0 0 720 612" xml:space="preserve">
<g>
	<path fill="none" stroke="#232323" stroke-miterlimit="10" d="M56.324,350.028c0,0-2.458-32.306,16.354-36.795
		c18.815-4.491,183.589-43.749,183.589-43.749l13.07,3.479l0.11,29.644L69.424,354.943c0,0-2.88-0.408-6.762-2.253
		C58.78,350.859,56.324,350.028,56.324,350.028z"/>
	<path fill="none" stroke="#232323" stroke-miterlimit="10" d="M67.969,354.535c0,0-2.661-15.946,3.676-25.559
		c6.339-9.607,4.712-10.015,20.863-13.896c16.153-3.896,176.641-41.914,176.641-41.914"/>
	<path fill="none" stroke="#232323" stroke-miterlimit="10" d="M239.506,310.369l-0.204,31.49c0,0,1.223,16.558,9.797,17.169
		c8.607,0.607,10.643-3.272,10.847-12.27c0.204-8.984,0-41.694,0-41.694"/>
	<path fill="none" stroke="#232323" stroke-miterlimit="10" d="M241.947,309.96l-0.204,33.321c0,0,1.439,11.254,6.542,11.865
		c5.116,0.609,8.185-0.829,8.593-8.184c0.407-7.357,0.407-41.291,0.407-41.291"/>
	<path fill="none" stroke="#232323" stroke-miterlimit="10" d="M252.168,359.028l9.203-1.019c0,0,5.318-0.828,5.727-9.405
		c0.408-8.592,0.219-45.39,0.219-45.39"/>
	<path fill="none" stroke="#232323" stroke-miterlimit="10" d="M248.286,308.13v31.066c0,0,0.829,13.494,7.576,12.475"/>
	<line fill="none" stroke="#232323" stroke-miterlimit="10" x1="250.335" y1="307.519" x2="250.335" y2="348.4"/>
	<polyline fill="none" stroke="#232323" stroke-miterlimit="10" points="250.54,359.028 250.54,415.858 259.335,418.721 
		259.335,416.063 273.233,420.162 285.284,413.415 292.046,415.858 298.166,413.212 301.045,414.028 302.47,413.212 302.47,412.178 
		304.723,410.958 304.723,304.03 	"/>
	<line fill="none" stroke="#232323" stroke-miterlimit="10" x1="273.028" y1="304.656" x2="273.028" y2="420.162"/>
	<line fill="none" stroke="#232323" stroke-miterlimit="10" x1="285.487" y1="307.1" x2="285.487" y2="412.994"/>
	<polyline fill="none" stroke="#232323" stroke-miterlimit="10" points="292.031,415.858 292.031,306.284 292.766,306.284 	"/>
	<line fill="none" stroke="#232323" stroke-miterlimit="10" x1="298.573" y1="413.212" x2="298.573" y2="305.672"/>
	<line fill="none" stroke="#232323" stroke-miterlimit="10" x1="301.031" y1="413.824" x2="301.031" y2="305.264"/>
	<path fill="none" stroke="#232323" stroke-miterlimit="10" d="M268.522,303.01c0,0,13.696,9,41.102-0.2
		c16.354-5.323,29.644-11.035,30.658-12.881c1.019-1.831,4.917-8.577,2.459-13.085c-2.459-4.492-7.154-15.748-7.78-30.864
		c0-2.865-1.017-4.916-3.864-7.766c-2.881-2.862-4.915-7.777-14.12-9.608c-9.203-1.846-13.488-2.865-13.488-2.865l-1.425,0.407
		l0.187,1.22h-2.238h-2.457l-5.934,1.849l0.203,1.832l-7.558,2.253l-9.813-2.661l-2.441,0.612v2.658c0,0-9.204,2.254-12.271,2.866
		c-3.068,0.611-4.508,1.846-3.679,4.288c0.815,2.458,0.407,5.12-1.031,6.747c-5.715,3.896,0,21.673,0,21.673"/>
	<path fill="none" stroke="#232323" stroke-miterlimit="10" d="M256.674,237.995l10.628,2.662c0,0,4.085,1.642,9.812,15.134
		c5.73,13.494,8.392,34.948-0.61,50.084"/>
	<path fill="none" stroke="#232323" stroke-miterlimit="10" d="M334.556,243.727c0,0-28.004,5.726-38.426,16.965
		c-10.424,11.25,0.612,20.033,11.239,20.862c10.642,0.812,22.49,2.239,35.999-2.662"/>
	<line fill="none" stroke="#232323" stroke-miterlimit="10" x1="256.47" y1="243.522" x2="234.184" y2="248.419"/>
	<polyline fill="none" stroke="#232323" stroke-miterlimit="10" points="252.793,260.082 238.065,264.166 238.285,273.57 	"/>
	<line fill="none" stroke="#232323" stroke-miterlimit="10" x1="241.335" y1="273.166" x2="241.54" y2="263.35"/>
	<line fill="none" stroke="#232323" stroke-miterlimit="10" x1="248.286" y1="271.739" x2="248.286" y2="261.3"/>
	<path fill="none" stroke="#232323" stroke-miterlimit="10" d="M237.001,264.431c2.754-0.294,4.602-4.176,4.147-8.653
		c-0.485-4.492-3.098-7.905-5.854-7.608c-2.754,0.284-4.619,4.164-4.131,8.658C231.632,261.3,234.246,264.713,237.001,264.431z"/>
	<line fill="none" stroke="#232323" stroke-miterlimit="10" x1="250.743" y1="244.742" x2="250.54" y2="45.22"/>
	<line fill="none" stroke="#232323" stroke-miterlimit="10" x1="271.998" y1="52.782" x2="271.998" y2="231.252"/>
	<polyline fill="none" stroke="#232323" stroke-miterlimit="10" points="274.659,230.846 274.454,62.798 277.114,62.186 
		277.114,55.235 	"/>
	<polyline fill="none" stroke="#232323" stroke-miterlimit="10" points="274.659,62.798 278.553,63.001 284.673,63.206 
		284.268,233.099 	"/>
	<line fill="none" stroke="#232323" stroke-miterlimit="10" x1="278.336" y1="63.206" x2="278.336" y2="231.675"/>
	<line fill="none" stroke="#232323" stroke-miterlimit="10" x1="291.622" y1="230.437" x2="292.031" y2="57.693"/>
	<polyline fill="none" stroke="#232323" stroke-miterlimit="10" points="302.063,56.664 302.063,61.17 303.284,61.374 
		303.894,225.536 	"/>
	<polyline fill="none" stroke="#232323" stroke-miterlimit="10" points="302.267,226.964 301.845,61.982 297.76,62.389 
		297.76,227.167 	"/>
	<line fill="none" stroke="#232323" stroke-miterlimit="10" x1="300.012" y1="227.571" x2="299.81" y2="62.594"/>
	<polyline fill="none" stroke="#232323" stroke-miterlimit="10" points="284.878,56.664 284.673,63.001 289.589,62.798 
		289.792,57.49 	"/>
	<path fill="none" stroke="#232323" stroke-miterlimit="10" d="M248.082,30.492v15.135c0,0,7.169-1.846,12.882,0.611
		c5.725,2.458,12.676,11.251,34.555,11.251c4.696,0,12.055-1.235,12.255-7.37c0.221-6.12,0-25.135,0-25.135
		s-35.777-0.206-44.966,1.218C253.607,27.646,248.082,30.492,248.082,30.492z"/>
	<path fill="none" stroke="#232323" stroke-miterlimit="10" d="M264.031,26.203c0,0,15.134,1.443,18.406,1.443
		c3.254,0,22.084,0.403,25.337-2.661"/>
	<line fill="none" stroke="#232323" stroke-miterlimit="10" x1="268.522" y1="241.064" x2="321.674" y2="230.03"/>
	<line fill="none" stroke="#232323" stroke-miterlimit="10" x1="278.963" y1="306.69" x2="279.369" y2="416.466"/>
	<path fill="none" stroke="#232323" stroke-miterlimit="10" d="M250.54,406.466c0,0-11.052,7.358-12.475,9.188
		c-1.424,1.846,0.22,1.846,3.27,3.066c3.07,1.238,48.661,18.611,48.661,18.611s5.305,3.066,15.949-0.814
		c10.626-3.882,38.625-16.355,38.625-16.355l-39.658-13.696"/>
	<path fill="none" stroke="#232323" stroke-miterlimit="10" d="M237.863,415.654c0,0-1.627,1.235-1.443,5.931
		c0.221,4.713,0.627,15.948,0.831,18.001c0.202,2.032,1.019,3.27,8.169,6.12c7.17,2.862,69.304,29.86,74.627,31.491
		c5.322,1.626,13.506,3.881,24.524,3.27c0.22-18.187,0.408-60.305,0.408-60.305"/>
	<polygon fill="none" stroke="#232323" stroke-miterlimit="10" points="325.774,470.044 326.385,457.364 341.099,451.434 
		341.301,462.888 	"/>
	<path fill="none" stroke="#232323" stroke-miterlimit="10" d="M335.995,257.624c0,0,50.695-10.832,53.357-11.035
		c3.269,0,11.862,0.815,13.289-0.404c1.423-1.239,9.2-0.611,9.813,1.423"/>
	<path fill="none" stroke="#232323" stroke-miterlimit="10" d="M343.148,283.998l53.965-18.393v-4.085l7.369-3.27
		c0,0,2.037-0.83,3.477,0.408"/>
	<polyline fill="none" stroke="#232323" stroke-miterlimit="10" points="388.74,246.792 397.113,250.065 397.113,261.52 	"/>
	<path fill="none" stroke="#232323" stroke-miterlimit="10" d="M338.231,264.997l58.896-14.728c0,0,3.458-1.428,6.118-1.428"/>
	<path fill="none" stroke="#232323" stroke-miterlimit="10" d="M413.671,249.25c0,0-3.473-5.319-5.915,2.661
		c0.815,3.27,2.237,6.543,2.237,6.543l3.678-1.646C413.671,256.808,416.143,250.877,413.671,249.25z"/>
	<polyline fill="none" stroke="#232323" stroke-miterlimit="10" points="407.756,256.808 409.993,261.927 419.402,290.133 
		421.045,293.81 417.771,282.163 411.232,258.454 	"/>
	<path fill="none" stroke="#232323" stroke-miterlimit="10" d="M406.52,258.031c0,0,0.221-2.443,2.658-1.831"/>
	<polyline fill="none" stroke="#232323" stroke-miterlimit="10" points="250.54,392.961 113.56,343.078 114.796,394.604 
		168.354,416.267 	"/>
	<polyline fill="none" stroke="#232323" stroke-miterlimit="10" points="250.947,395.822 116.018,346.759 116.424,392.977 
		167.947,413.824 	"/>
	<path fill="none" stroke="#232323" stroke-miterlimit="10" d="M236.641,426.909l-52.744-20.847c0,0-18.406-1.646-15.134,14.304
		c2.458,5.728,2.458,8.574,17.981,14.713c15.544,6.135,136.98,56.015,136.98,56.015l6.542-2.851v-4.507l-142.284-58.065
		c0,0-10.222-1.627-9.408-11.847"/>
	<path fill="none" stroke="#232323" stroke-miterlimit="10" d="M237.047,437.129L176.539,412.6c0,0-9.811,10.206,4.493,15.53
		c14.305,5.318,141.88,58.879,141.88,58.879l7.354-2.866"/>
	<line fill="none" stroke="#232323" stroke-miterlimit="10" x1="322.912" y1="487.009" x2="323.317" y2="491.094"/>
	<path fill="none" stroke="#232323" stroke-miterlimit="10" d="M170.813,410.551c0,0,1.219-3.677,10.627,0
		c9.405,3.681,55.607,22.897,55.607,22.897"/>
	<line fill="none" stroke="#232323" stroke-miterlimit="10" x1="118.474" y1="347.587" x2="118.88" y2="393.788"/>
	<line fill="none" stroke="#232323" stroke-miterlimit="10" x1="121.291" y1="348.809" x2="121.698" y2="395.027"/>
	<polyline fill="none" stroke="#232323" stroke-miterlimit="10" points="344.994,426.909 579.28,512.771 573.956,581.871 
		313.505,475.566 	"/>
	<polyline fill="none" stroke="#232323" stroke-miterlimit="10" points="344.994,430.179 575.196,513.99 571.514,576.548 
		327.809,479.247 	"/>
	<path fill="none" stroke="#232323" stroke-miterlimit="10" d="M578.872,512.771l13.897-9.001l-18.391-7.357l4.07-14.319
		l13.913-13.897l71.541-39.256c0,0,10.643-3.27,0-6.116c-10.626-2.865-358.977-105.082-358.977-105.082"/>
	<polyline fill="none" stroke="#232323" stroke-miterlimit="10" points="128.694,339.809 138.101,343.078 156.913,341.451 
		239.082,323.861 	"/>
	<polyline fill="none" stroke="#232323" stroke-miterlimit="10" points="573.956,581.871 588.684,572.463 592.77,503.771 	"/>
	<path fill="none" stroke="#232323" stroke-miterlimit="10" d="M591.957,517.668l75.234-43.744l3.68-44.562
		c0,0,0.812-3.269-3.289-5.318"/>
	<polyline fill="none" stroke="#232323" stroke-miterlimit="10" points="109.067,404.416 405.908,528.295 410.009,529.126 
		423.892,520.941 	"/>
	<polyline fill="none" stroke="#232323" stroke-miterlimit="10" points="330.266,487.009 416.129,522.16 412.454,525.025 
		406.726,527.887 	"/>
	<line fill="none" stroke="#232323" stroke-miterlimit="10" x1="410.401" y1="520.125" x2="413.671" y2="516.449"/>
	<line fill="none" stroke="#232323" stroke-miterlimit="10" x1="326.589" y1="489.875" x2="411.637" y2="525.025"/>
	<polyline fill="none" stroke="#232323" stroke-miterlimit="10" points="111.118,404.416 118.052,401.555 168.762,420.366 	"/>
	<line fill="none" stroke="#232323" stroke-miterlimit="10" x1="115.203" y1="402.773" x2="172.032" y2="426.486"/>
</g>
</svg>
