<?xml version="1.0" encoding="utf-8"?>
<!-- Generator: Adobe Illustrator 16.0.0, SVG Export Plug-In . SVG Version: 6.00 Build 0)  -->
<!DOCTYPE svg PUBLIC "-//W3C//DTD SVG 1.1//EN" "http://www.w3.org/Graphics/SVG/1.1/DTD/svg11.dtd">
<svg version="1.1" id="Layer_1" xmlns="http://www.w3.org/2000/svg" xmlns:xlink="http://www.w3.org/1999/xlink" x="0px" y="0px"
	 width="432px" height="612px" viewBox="0 0 432 612" enable-background="new 0 0 432 612" xml:space="preserve">
<g>
	<line fill="none" stroke="#232323" stroke-miterlimit="10" x1="170.069" y1="290.73" x2="170.224" y2="290.73"/>
	<line fill="none" stroke="#232323" stroke-miterlimit="10" x1="170.069" y1="290.73" x2="170.009" y2="290.682"/>
	<line fill="none" stroke="#232323" stroke-miterlimit="10" x1="165.433" y1="289.068" x2="165.42" y2="290.696"/>
	<line fill="none" stroke="#232323" stroke-miterlimit="10" x1="174.718" y1="290.778" x2="174.739" y2="288.993"/>
	<line fill="none" stroke="#232323" stroke-miterlimit="10" x1="143.123" y1="352.398" x2="143.782" y2="288.194"/>
	<line fill="none" stroke="#232323" stroke-miterlimit="10" x1="117.989" y1="284.142" x2="117.29" y2="352.975"/>
	<line fill="none" stroke="#232323" stroke-miterlimit="10" x1="100.347" y1="19.343" x2="88.8" y2="122.524"/>
	<line fill="none" stroke="#232323" stroke-miterlimit="10" x1="199.438" y1="17.002" x2="101.222" y2="19.205"/>
	<line fill="none" stroke="#232323" stroke-miterlimit="10" x1="216.476" y1="281.147" x2="222.791" y2="57.004"/>
	<line fill="none" stroke="#232323" stroke-miterlimit="10" x1="392.463" y1="116.772" x2="361.108" y2="117.479"/>
	<line fill="none" stroke="#232323" stroke-miterlimit="10" x1="360.829" y1="119.609" x2="220.935" y2="122.733"/>
	<line fill="none" stroke="#232323" stroke-miterlimit="10" x1="92.244" y1="125.631" x2="71.146" y2="126.098"/>
	<line fill="none" stroke="#232323" stroke-miterlimit="10" x1="68.352" y1="124.042" x2="37" y2="124.741"/>
	<line fill="none" stroke="#232323" stroke-miterlimit="10" x1="348.646" y1="379.406" x2="347.747" y2="378.521"/>
	<line fill="none" stroke="#232323" stroke-miterlimit="10" x1="348.671" y1="385.132" x2="348.733" y2="379.581"/>
	<line fill="none" stroke="#232323" stroke-miterlimit="10" x1="113.544" y1="353.656" x2="112.633" y2="354.528"/>
	<line fill="none" stroke="#232323" stroke-miterlimit="10" x1="112.541" y1="354.699" x2="112.487" y2="360.254"/>
	<line fill="none" stroke="#232323" stroke-miterlimit="10" x1="347.76" y1="397.019" x2="347.887" y2="385.625"/>
	<line fill="none" stroke="#232323" stroke-miterlimit="10" x1="311.603" y1="406.405" x2="311.466" y2="406.292"/>
	<line fill="none" stroke="#232323" stroke-miterlimit="10" x1="348.414" y1="409.953" x2="348.549" y2="397.032"/>
	<line fill="none" stroke="#232323" stroke-miterlimit="10" x1="112.362" y1="372.154" x2="112.227" y2="385.07"/>
	<line fill="none" stroke="#232323" stroke-miterlimit="10" x1="151.891" y1="535.712" x2="151.381" y2="585.603"/>
	<line fill="none" stroke="#232323" stroke-miterlimit="10" x1="203.767" y1="586.145" x2="204.278" y2="536.254"/>
	<line fill="none" stroke="#232323" stroke-miterlimit="10" x1="331.637" y1="533.779" x2="331.139" y2="581.562"/>
	<line fill="none" stroke="#232323" stroke-miterlimit="10" x1="383.529" y1="582.104" x2="384.044" y2="532.212"/>
	<line fill="none" stroke="#232323" stroke-miterlimit="10" x1="301.66" y1="534.773" x2="301.601" y2="540.417"/>
	<line fill="none" stroke="#232323" stroke-miterlimit="10" x1="81.251" y1="496.988" x2="80.747" y2="545.365"/>
	<line fill="none" stroke="#232323" stroke-miterlimit="10" x1="133.141" y1="545.897" x2="133.398" y2="520.945"/>
	<line fill="none" stroke="#232323" stroke-miterlimit="10" x1="149.165" y1="441.874" x2="148.388" y2="441.887"/>
	<line fill="none" stroke="#232323" stroke-miterlimit="10" x1="148.388" y1="441.887" x2="104.24" y2="406.008"/>
	<line fill="none" stroke="#232323" stroke-miterlimit="10" x1="104.246" y1="406.008" x2="81.129" y2="406.527"/>
	<line fill="none" stroke="#232323" stroke-miterlimit="10" x1="89.036" y1="387.165" x2="113.988" y2="386.611"/>
	<line fill="none" stroke="#232323" stroke-miterlimit="10" x1="215.258" y1="440.259" x2="183.576" y2="414.509"/>
	<line fill="none" stroke="#232323" stroke-miterlimit="10" x1="410.327" y1="436.014" x2="409.712" y2="436.022"/>
	<line fill="none" stroke="#232323" stroke-miterlimit="10" x1="410.323" y1="436.528" x2="410.327" y2="436.014"/>
	<line fill="none" stroke="#232323" stroke-miterlimit="10" x1="149.009" y1="532.336" x2="147.458" y2="532.374"/>
	<line fill="none" stroke="#232323" stroke-miterlimit="10" x1="147.458" y1="532.374" x2="148.388" y2="441.887"/>
	<line fill="none" stroke="#232323" stroke-miterlimit="10" x1="147.458" y1="532.374" x2="103.31" y2="496.495"/>
	<line fill="none" stroke="#232323" stroke-miterlimit="10" x1="103.31" y1="496.495" x2="104.246" y2="406.021"/>
	<line fill="none" stroke="#232323" stroke-miterlimit="10" x1="313.116" y1="412.981" x2="343.143" y2="437.393"/>
	<line fill="none" stroke="#232323" stroke-miterlimit="10" x1="348.706" y1="381.353" x2="358.613" y2="381.13"/>
	<line fill="none" stroke="#232323" stroke-miterlimit="10" x1="381.592" y1="399.803" x2="366.188" y2="400.147"/>
	<line fill="none" stroke="#232323" stroke-miterlimit="10" x1="366.179" y1="400.147" x2="410.327" y2="436.014"/>
	<line fill="none" stroke="#232323" stroke-miterlimit="10" x1="80.2" y1="497.015" x2="81.129" y2="406.54"/>
	<line fill="none" stroke="#232323" stroke-miterlimit="10" x1="103.31" y1="496.495" x2="80.204" y2="497.015"/>
	<line fill="none" stroke="#232323" stroke-miterlimit="10" x1="80.2" y1="497.015" x2="77.102" y2="494.501"/>
	<line fill="none" stroke="#232323" stroke-miterlimit="10" x1="102.806" y1="135.912" x2="102.829" y2="134.228"/>
	<polyline fill="none" stroke="#232323" stroke-miterlimit="10" points="165.42,290.682 165.42,290.708 165.426,290.73 
		165.433,290.743 165.445,290.77 165.457,290.792 165.48,290.804 165.507,290.831 165.531,290.844 165.555,290.865 165.582,290.892 
		165.625,290.905 165.659,290.926 165.704,290.953 165.753,290.979 165.804,290.987 165.851,291.014 165.913,291.027 
		165.97,291.049 166.037,291.062 166.098,291.088 166.173,291.102 166.239,291.123 166.319,291.136 166.393,291.163 
		166.474,291.175 166.564,291.188 166.639,291.21 166.732,291.224 166.824,291.25 166.922,291.258 167.016,291.271 167.119,291.285 
		167.217,291.297 167.328,291.311 167.427,291.323 167.531,291.332 167.65,291.346 167.761,291.358 167.872,291.372 
		167.988,291.384 168.099,291.398 168.216,291.407 168.34,291.407 168.463,291.42 168.585,291.433 168.71,291.433 168.833,291.445 
		168.955,291.445 169.084,291.459 169.215,291.459 169.343,291.468 169.473,291.468 169.595,291.468 169.731,291.48 169.854,291.48 
		169.988,291.48 170.12,291.494 170.248,291.494 170.376,291.494 170.508,291.494 170.637,291.494 170.765,291.48 170.89,291.48 
		171.025,291.48 171.147,291.468 171.272,291.468 171.4,291.468 171.516,291.459 171.64,291.459 171.765,291.445 171.887,291.445 
		172.004,291.433 172.12,291.433 172.237,291.42 172.353,291.407 172.464,291.398 172.577,291.398 172.675,291.384 172.786,291.372 
		172.897,291.358 172.995,291.346 173.093,291.332 173.191,291.323 173.284,291.311 173.377,291.297 173.463,291.285 
		173.556,291.271 173.648,291.25 173.721,291.236 173.802,291.224 173.876,291.197 173.956,291.188 174.022,291.175 
		174.085,291.149 174.15,291.136 174.214,291.114 174.263,291.102 174.327,291.075 174.374,291.062 174.425,291.04 174.461,291.027 
		174.509,291.001 174.547,290.987 174.577,290.966 174.607,290.94 174.634,290.926 174.658,290.905 174.682,290.879 
		174.694,290.865 174.706,290.844 174.718,290.818 174.718,290.804 174.718,290.778 	"/>
	<line fill="none" stroke="#232323" stroke-miterlimit="10" x1="138.189" y1="362.004" x2="138.196" y2="361.192"/>
	<polyline fill="none" stroke="#232323" stroke-miterlimit="10" points="203.421,17.211 203.576,17.249 203.719,17.296 
		203.871,17.346 204.019,17.408 204.167,17.47 204.313,17.531 204.469,17.593 204.61,17.667 204.764,17.741 204.919,17.815 
		205.066,17.887 205.212,17.988 205.361,18.073 205.51,18.16 205.658,18.258 205.812,18.356 205.952,18.455 206.112,18.565 
		206.26,18.664 206.409,18.788 206.556,18.897 206.705,19.022 206.851,19.144 207,19.28 207.159,19.404 207.301,19.539 
		207.455,19.674 207.598,19.823 207.75,19.969 207.899,20.117 208.046,20.266 208.194,20.425 208.341,20.586 208.49,20.746 
		208.639,20.918 208.787,21.077 208.933,21.25 209.082,21.436 209.229,21.621 209.383,21.804 209.523,21.989 209.679,22.186 
		209.822,22.372 209.967,22.567 210.115,22.777 210.264,22.986 210.41,23.196 210.559,23.406 210.706,23.615 210.855,23.838 
		211.004,24.058 211.15,24.293 211.291,24.514 211.434,24.75 211.581,24.983 	"/>
	<polyline fill="none" stroke="#232323" stroke-miterlimit="10" points="100.7,19.515 100.853,19.552 100.995,19.6 101.15,19.65 
		101.303,19.712 101.444,19.772 101.599,19.833 101.745,19.897 101.894,19.969 102.042,20.043 102.195,20.117 102.336,20.191 
		102.492,20.29 102.644,20.376 102.793,20.462 102.942,20.561 103.087,20.66 103.235,20.759 103.384,20.868 103.536,20.968 
		103.681,21.091 103.84,21.202 103.986,21.324 104.135,21.448 104.283,21.583 104.432,21.706 104.579,21.841 104.727,21.979 
		104.874,22.125 105.029,22.273 105.182,22.421 105.324,22.567 105.478,22.729 105.619,22.888 105.772,23.05 105.916,23.222 
		106.067,23.395 106.217,23.554 106.364,23.739 106.513,23.922 106.662,24.108 106.808,24.293 106.955,24.49 107.104,24.675 
		107.247,24.872 107.399,25.081 107.546,25.291 107.695,25.5 107.841,25.709 107.984,25.919 108.125,26.139 108.28,26.362 
		108.421,26.595 108.569,26.817 108.716,27.051 108.865,27.284 	"/>
	<polyline fill="none" stroke="#232323" stroke-miterlimit="10" points="100.7,19.515 100.626,19.489 100.556,19.465 
		100.502,19.452 100.452,19.415 100.41,19.404 100.38,19.378 100.359,19.367 100.347,19.354 100.347,19.33 100.354,19.316 
		100.374,19.306 100.404,19.292 100.44,19.28 100.491,19.269 100.551,19.255 100.62,19.255 100.7,19.242 100.771,19.231 
		100.867,19.231 100.972,19.219 101.081,19.219 101.198,19.205 	"/>
	<line fill="none" stroke="#232323" stroke-miterlimit="10" x1="101.198" y1="19.205" x2="199.487" y2="17.002"/>
	<polyline fill="none" stroke="#232323" stroke-miterlimit="10" points="199.487,17.002 199.758,17.002 200.005,17.002 
		200.262,17.002 200.495,17.002 200.731,17.002 200.964,17.002 201.173,17.002 201.384,17.002 201.593,17.015 201.79,17.026 
		201.982,17.026 202.158,17.039 202.332,17.052 202.492,17.063 202.65,17.076 202.8,17.089 202.922,17.113 203.033,17.125 
		203.144,17.137 203.25,17.161 203.34,17.188 203.415,17.211 	"/>
	<line fill="none" stroke="#232323" stroke-miterlimit="10" x1="103.817" y1="135.026" x2="89.11" y2="123.083"/>
	<line fill="none" stroke="#232323" stroke-miterlimit="10" x1="103.817" y1="135.026" x2="103.817" y2="135.026"/>
	<line fill="none" stroke="#232323" stroke-miterlimit="10" x1="211.581" y1="24.983" x2="211.581" y2="24.983"/>
	<line fill="none" stroke="#232323" stroke-miterlimit="10" x1="101.198" y1="19.205" x2="101.229" y2="19.205"/>
	<polyline fill="none" stroke="#232323" stroke-miterlimit="10" points="88.8,122.524 88.8,122.542 88.8,122.611 88.814,122.686 
		88.84,122.76 88.875,122.82 88.914,122.882 88.975,122.943 89.036,123.022 89.11,123.083 	"/>
	<line fill="none" stroke="#232323" stroke-miterlimit="10" x1="199.438" y1="17.002" x2="199.492" y2="17.002"/>
	<polyline fill="none" stroke="#232323" stroke-miterlimit="10" points="211.581,24.994 211.735,25.203 211.882,25.426 
		212.038,25.66 212.177,25.893 212.333,26.128 212.474,26.362 212.627,26.608 212.771,26.855 212.924,27.102 213.073,27.348 
		213.214,27.605 213.366,27.865 213.509,28.123 213.649,28.393 213.805,28.666 213.944,28.936 214.093,29.207 214.241,29.491 
		214.39,29.774 214.539,30.056 214.685,30.34 214.826,30.636 214.968,30.931 215.116,31.228 215.263,31.535 215.406,31.83 
		215.547,32.137 215.694,32.458 215.837,32.766 215.978,33.087 216.127,33.407 216.274,33.739 216.411,34.059 216.554,34.391 
		216.697,34.736 216.842,35.07 216.981,35.402 217.121,35.759 217.27,36.104 217.409,36.449 217.554,36.806 217.688,37.162 
		217.828,37.52 217.968,37.889 218.108,38.26 218.251,38.628 218.391,38.997 218.527,39.368 218.662,39.761 218.806,40.132 
		218.945,40.525 219.08,40.906 219.217,41.301 219.352,41.696 219.486,42.102 219.635,42.497 219.77,42.902 219.906,43.308 
		220.046,43.728 220.176,44.133 220.314,44.553 220.446,44.971 220.586,45.39 220.718,45.822 220.848,46.252 220.979,46.684 
		221.114,47.114 221.25,47.559 221.385,47.989 221.52,48.445 221.651,48.888 221.783,49.331 221.908,49.787 	"/>
	<polyline fill="none" stroke="#232323" stroke-miterlimit="10" points="221.908,49.787 222.053,50.293 222.179,50.81 
		222.296,51.327 222.401,51.857 222.493,52.374 222.567,52.903 222.642,53.432 222.699,53.974 222.742,54.504 222.776,55.047 
		222.791,55.588 222.804,56.143 222.804,56.697 222.776,57.238 222.751,57.792 222.717,58.346 222.672,58.901 222.611,59.467 
		222.532,60.059 222.436,60.674 222.341,61.278 222.224,61.894 222.092,62.498 221.952,63.114 221.809,63.678 221.656,64.246 
		221.494,64.824 221.32,65.392 221.131,65.958 220.944,66.537 220.735,67.104 220.517,67.669 220.29,68.25 220.054,68.815 
		219.802,69.395 219.548,69.96 219.276,70.527 219.003,71.095 218.719,71.673 218.422,72.228 218.108,72.795 217.803,73.36 
		217.449,73.951 217.096,74.555 216.72,75.146 216.341,75.738 215.954,76.329 215.547,76.907 215.127,77.511 214.685,78.101 
		214.241,78.692 213.786,79.284 213.318,79.864 212.836,80.442 212.345,81.01 211.839,81.587 211.329,82.155 210.798,82.709 
		210.264,83.264 209.709,83.818 209.297,84.224 208.872,84.629 208.442,85.024 208.003,85.43 207.553,85.812 207.104,86.207 
		206.648,86.588 206.186,86.981 205.681,87.389 205.165,87.782 204.635,88.177 204.104,88.57 203.563,88.951 203.015,89.347 
		202.462,89.715 201.901,90.086 201.36,90.418 200.817,90.763 200.262,91.097 199.698,91.415 199.13,91.725 198.562,92.032 
		197.984,92.327 197.399,92.624 196.802,92.905 196.21,93.189 195.602,93.459 194.991,93.719 194.375,93.965 193.753,94.212 
		193.132,94.446 192.564,94.642 191.999,94.84 191.431,95.023 190.861,95.196 190.287,95.368 189.708,95.53 189.042,95.702 
		188.377,95.861 187.705,96.009 187.036,96.158 186.353,96.28 185.663,96.402 184.979,96.514 184.289,96.612 183.6,96.687 
		182.897,96.761 182.193,96.822 181.493,96.872 180.791,96.909 180.082,96.933 179.375,96.946 178.729,96.957 178.082,96.946 
		177.435,96.933 176.787,96.909 176.135,96.872 175.482,96.811 174.854,96.761 174.225,96.699 173.598,96.625 172.978,96.551 
		172.353,96.466 171.726,96.368 171.105,96.257 170.481,96.145 169.86,96.023 169.238,95.886 168.622,95.75 168,95.604 
		167.392,95.443 166.775,95.294 166.165,95.122 165.52,94.925 164.865,94.729 164.227,94.531 163.578,94.31 162.945,94.087 
		162.28,93.854 161.614,93.608 160.955,93.351 160.31,93.09 159.65,92.82 159.005,92.549 158.363,92.266 157.729,91.969 
		157.093,91.674 156.461,91.38 155.825,91.059 155.21,90.752 154.458,90.37 153.733,89.961 153,89.569 152.273,89.15 
		151.552,88.744 150.919,88.36 150.284,87.967 149.654,87.573 149.033,87.191 148.424,86.785 147.808,86.379 147.083,85.886 
		146.367,85.393 145.66,84.889 144.963,84.383 144.262,83.865 143.579,83.349 142.907,82.831 142.235,82.301 141.562,81.773 
		140.917,81.23 140.271,80.688 139.625,80.147 138.99,79.604 138.369,79.05 137.757,78.496 137.142,77.928 136.551,77.363 
		135.956,76.809 135.332,76.205 134.717,75.589 134.1,74.975 133.496,74.357 132.917,73.741 132.333,73.126 131.797,72.535 
		131.274,71.957 130.755,71.365 130.245,70.774 129.741,70.183 129.261,69.605 128.768,69 128.298,68.409 127.833,67.831 
		127.376,67.239 126.934,66.635 126.501,66.057 126.071,65.465 125.656,64.874 125.257,64.283 124.859,63.692 124.471,63.101 
		124.1,62.522 123.805,62.054 123.521,61.573 123.237,61.106 122.966,60.65 122.695,60.182 122.437,59.714 122.191,59.245 
		121.944,58.792 121.649,58.211 121.365,57.646 121.094,57.079 120.834,56.511 120.59,55.957 120.355,55.402 120.134,54.849 
		119.924,54.294 119.766,53.852 119.604,53.408 119.455,52.965 119.32,52.521 119.192,52.09 	"/>
	<polyline fill="none" stroke="#232323" stroke-miterlimit="10" points="119.192,52.09 119.064,51.635 118.927,51.191 
		118.793,50.736 118.661,50.304 118.533,49.861 118.398,49.418 118.262,48.986 118.133,48.557 118.003,48.124 117.854,47.705 
		117.726,47.276 117.598,46.856 117.455,46.437 117.327,46.019 117.184,45.613 117.043,45.205 116.915,44.812 116.771,44.403 
		116.637,44.011 116.502,43.605 116.366,43.224 116.231,42.829 116.087,42.447 115.947,42.052 115.812,41.684 115.676,41.301 
		115.529,40.932 115.393,40.551 115.251,40.193 115.109,39.835 114.974,39.466 114.825,39.108 114.69,38.764 114.542,38.408 
		114.407,38.063 114.259,37.716 114.123,37.372 113.976,37.027 113.839,36.695 113.692,36.375 113.544,36.043 113.41,35.709 
		113.261,35.391 113.113,35.07 112.971,34.749 112.831,34.441 112.684,34.134 112.535,33.837 112.394,33.53 112.251,33.235 
		112.104,32.927 111.956,32.644 111.809,32.347 111.666,32.063 111.525,31.781 111.379,31.509 111.23,31.238 111.081,30.968 
		110.934,30.697 110.791,30.427 110.639,30.167 110.49,29.909 110.349,29.65 110.195,29.404 110.053,29.156 109.899,28.91 
		109.758,28.666 109.603,28.431 109.463,28.197 109.308,27.964 109.16,27.741 109.013,27.521 108.865,27.298 	"/>
	<polyline fill="none" stroke="#232323" stroke-miterlimit="10" points="112.72,281.728 112.88,281.85 113.032,281.963 
		113.201,282.085 113.386,282.208 113.583,282.317 113.779,282.444 114.001,282.552 114.221,282.662 114.454,282.789 
		114.703,282.911 114.968,283.033 115.245,283.146 115.54,283.268 115.836,283.39 116.144,283.513 116.471,283.626 116.803,283.748 
		117.154,283.87 117.517,283.979 117.894,284.105 118.273,284.229 118.682,284.351 119.087,284.464 119.47,284.572 119.871,284.673 
		120.281,284.783 120.695,284.891 121.118,284.992 121.563,285.101 122.048,285.214 122.554,285.324 123.064,285.437 
		123.596,285.546 124.13,285.655 124.68,285.769 125.233,285.878 125.761,285.979 126.292,286.061 126.835,286.162 127.389,286.261 
		127.943,286.345 128.516,286.445 129.086,286.532 129.671,286.628 130.269,286.716 130.86,286.803 131.478,286.877 
		132.093,286.973 132.685,287.047 133.276,287.121 133.873,287.208 134.482,287.27 135.097,287.344 135.812,287.431 136.54,287.515 
		137.261,287.588 137.998,287.663 138.744,287.75 139.483,287.811 140.222,287.885 140.967,287.959 141.718,288.02 142.488,288.081 
		143.27,288.142 144.046,288.217 144.833,288.269 145.621,288.33 146.415,288.378 147.212,288.439 148.006,288.487 148.807,288.54 
		149.605,288.587 150.412,288.623 151.221,288.675 152.021,288.709 152.834,288.749 153.571,288.784 154.312,288.81 
		155.055,288.845 155.789,288.871 156.527,288.897 157.268,288.919 158.079,288.946 158.88,288.972 159.682,288.993 
		160.482,289.007 161.27,289.02 162.071,289.042 162.858,289.054 163.578,289.054 164.301,289.068 165.014,289.068 165.729,289.081 
		166.436,289.081 167.146,289.081 167.845,289.081 168.549,289.081 169.245,289.081 169.928,289.068 170.617,289.068 
		171.296,289.054 172.096,289.042 172.884,289.033 173.672,289.02 174.449,289.007 175.162,288.98 175.883,288.972 176.604,288.946 
		177.317,288.919 178.043,288.897 178.754,288.871 179.462,288.845 180.176,288.823 180.882,288.784 181.608,288.762 
		182.33,288.709 183.057,288.675 183.785,288.636 184.511,288.601 185.224,288.562 185.952,288.513 186.667,288.465 
		187.386,288.417 188.093,288.365 188.81,288.317 189.517,288.256 190.225,288.208 190.926,288.142 191.555,288.081 
		192.195,288.034 192.825,287.973 193.457,287.898 194.082,287.837 194.697,287.776 195.369,287.715 196.026,287.628 
		196.686,287.553 197.331,287.479 197.978,287.392 198.612,287.309 199.248,287.235 199.813,287.161 200.373,287.074 
		200.928,286.986 201.482,286.912 202.023,286.816 202.552,286.728 203.071,286.641 203.589,286.554 204.104,286.472 
		204.597,286.371 205.09,286.27 205.577,286.188 206.027,286.087 206.457,286 206.896,285.917 207.32,285.817 207.726,285.716 
		208.194,285.607 208.648,285.498 209.092,285.385 209.523,285.262 209.944,285.153 210.338,285.026 210.731,284.918 
		211.103,284.809 211.47,284.682 211.822,284.572 212.166,284.438 212.491,284.329 212.812,284.189 213.12,284.067 213.41,283.945 
		213.688,283.823 213.954,283.688 214.205,283.565 214.438,283.438 214.661,283.316 214.87,283.181 215.073,283.059 
		215.258,282.923 215.411,282.81 215.56,282.688 215.694,282.566 215.816,282.453 215.931,282.33 216.032,282.221 216.137,282.085 
		216.211,281.963 216.292,281.828 216.354,281.702 216.411,281.566 216.432,281.444 216.458,281.309 216.471,281.199 
		216.471,281.161 	"/>
	<line fill="none" stroke="#232323" stroke-miterlimit="10" x1="112.72" y1="281.728" x2="119.186" y2="52.09"/>
	<line fill="none" stroke="#232323" stroke-miterlimit="10" x1="108.385" y1="248.227" x2="105.286" y2="245.714"/>
	<polyline fill="none" stroke="#232323" stroke-miterlimit="10" points="108.925,246.058 108.925,246.159 108.919,246.246 
		108.919,246.342 108.913,246.442 108.913,246.529 108.908,246.625 108.902,246.712 108.889,246.8 108.889,246.896 108.878,246.97 
		108.865,247.057 108.865,247.145 108.853,247.219 108.838,247.293 108.827,247.367 108.814,247.441 108.803,247.511 
		108.803,247.577 108.778,247.638 108.767,247.712 108.754,247.76 108.743,247.821 108.723,247.87 108.71,247.922 108.692,247.97 
		108.68,248.018 108.662,248.057 108.642,248.091 108.629,248.118 108.605,248.152 108.594,248.179 108.569,248.206 
		108.558,248.213 108.534,248.241 108.52,248.253 108.494,248.253 108.477,248.267 108.459,248.267 108.439,248.253 
		108.421,248.253 108.402,248.241 108.385,248.227 	"/>
	<line fill="none" stroke="#232323" stroke-miterlimit="10" x1="109.986" y1="142.65" x2="108.925" y2="246.058"/>
	<polyline fill="none" stroke="#232323" stroke-miterlimit="10" points="109.498,139.648 109.517,139.669 109.537,139.683 
		109.555,139.709 109.579,139.735 109.591,139.77 109.615,139.805 109.629,139.84 109.653,139.892 109.666,139.927 109.689,139.979 
		109.702,140.027 109.72,140.089 109.74,140.154 109.751,140.197 109.771,140.258 109.781,140.337 109.8,140.407 109.812,140.468 
		109.824,140.547 109.851,140.634 109.862,140.704 109.875,140.778 109.886,140.865 109.886,140.948 109.899,141.036 
		109.913,141.123 109.922,141.21 109.937,141.306 109.937,141.393 109.948,141.494 109.96,141.576 109.967,141.677 109.967,141.777 
		109.973,141.874 109.979,141.973 109.986,142.074 109.986,142.17 109.986,142.266 109.991,142.353 109.991,142.467 
		109.991,142.554 109.991,142.65 	"/>
	<line fill="none" stroke="#232323" stroke-miterlimit="10" x1="104.641" y1="135.703" x2="109.493" y2="139.648"/>
	<line fill="none" stroke="#232323" stroke-miterlimit="10" x1="107.561" y1="277.539" x2="112.727" y2="281.728"/>
	<line fill="none" stroke="#232323" stroke-miterlimit="10" x1="107.017" y1="271.914" x2="107.561" y2="277.539"/>
	<polyline fill="none" stroke="#232323" stroke-miterlimit="10" points="106.581,270.225 106.599,270.238 106.618,270.26 
		106.635,270.286 106.662,270.312 106.671,270.347 106.697,270.386 106.709,270.434 106.733,270.469 106.746,270.521 106.77,270.57 
		106.791,270.617 106.808,270.678 106.82,270.731 106.838,270.792 106.857,270.866 106.871,270.927 106.882,271.002 
		106.901,271.075 106.919,271.15 106.932,271.225 106.942,271.294 106.955,271.381 106.966,271.469 106.98,271.556 106.993,271.639 
		107.006,271.739 107.006,271.827 107.017,271.923 	"/>
	<line fill="none" stroke="#232323" stroke-miterlimit="10" x1="101.431" y1="266.036" x2="106.587" y2="270.225"/>
	<polyline fill="none" stroke="#232323" stroke-miterlimit="10" points="101.013,264.548 101.025,264.635 101.032,264.718 
		101.044,264.805 101.056,264.892 101.07,264.966 101.081,265.041 101.094,265.124 101.117,265.198 101.13,265.272 101.141,265.346 
		101.154,265.407 101.181,265.468 101.192,265.534 101.211,265.595 101.229,265.656 101.241,265.704 101.258,265.752 
		101.279,265.792 101.296,265.839 101.315,265.879 101.333,265.914 101.35,265.952 101.377,265.975 101.39,266.001 101.414,266.022 
		101.425,266.036 	"/>
	<line fill="none" stroke="#232323" stroke-miterlimit="10" x1="103.817" y1="135.026" x2="104.641" y2="135.703"/>
	<polyline fill="none" stroke="#232323" stroke-miterlimit="10" points="100.94,263.033 100.94,263.129 100.94,263.23 
		100.94,263.338 100.94,263.439 100.944,263.535 100.944,263.648 100.951,263.744 100.957,263.858 100.963,263.954 100.972,264.054 
		100.982,264.15 100.982,264.251 100.995,264.352 101.006,264.447 101.019,264.535 	"/>
	<line fill="none" stroke="#232323" stroke-miterlimit="10" x1="101.117" y1="245.801" x2="100.94" y2="263.033"/>
	<line fill="none" stroke="#232323" stroke-miterlimit="10" x1="55.646" y1="155.719" x2="60.215" y2="143.34"/>
	<line fill="none" stroke="#232323" stroke-miterlimit="10" x1="60.215" y1="143.34" x2="109.986" y2="142.222"/>
	<line fill="none" stroke="#232323" stroke-miterlimit="10" x1="220.464" y1="139.744" x2="415.529" y2="135.371"/>
	<line fill="none" stroke="#232323" stroke-miterlimit="10" x1="415.529" y1="135.371" x2="420.012" y2="148.035"/>
	<line fill="none" stroke="#232323" stroke-miterlimit="10" x1="420.012" y1="148.035" x2="419.139" y2="238.67"/>
	<line fill="none" stroke="#232323" stroke-miterlimit="10" x1="419.139" y1="238.67" x2="217.541" y2="243.191"/>
	<line fill="none" stroke="#232323" stroke-miterlimit="10" x1="108.925" y1="245.631" x2="54.478" y2="246.848"/>
	<line fill="none" stroke="#232323" stroke-miterlimit="10" x1="54.478" y1="246.848" x2="55.646" y2="155.733"/>
	<line fill="none" stroke="#232323" stroke-miterlimit="10" x1="47.898" y1="149.422" x2="55.646" y2="155.719"/>
	<line fill="none" stroke="#232323" stroke-miterlimit="10" x1="52.47" y1="137.047" x2="60.215" y2="143.34"/>
	<line fill="none" stroke="#232323" stroke-miterlimit="10" x1="407.784" y1="129.079" x2="220.639" y2="133.268"/>
	<line fill="none" stroke="#232323" stroke-miterlimit="10" x1="407.784" y1="129.079" x2="415.524" y2="135.371"/>
	<polyline fill="none" stroke="#232323" stroke-miterlimit="10" points="51.119,203.629 51.041,203.555 50.966,203.48 
		50.886,203.381 50.813,203.271 50.732,203.158 50.659,203.014 50.584,202.879 50.511,202.704 50.436,202.534 50.358,202.347 
		50.29,202.15 50.216,201.953 50.155,201.73 50.085,201.509 50.02,201.277 49.956,201.016 49.882,200.758 49.821,200.487 
		49.76,200.19 49.698,199.898 49.648,199.602 49.587,199.305 49.538,198.986 49.489,198.676 49.439,198.345 49.391,198 
		49.341,197.655 49.297,197.297 49.26,196.926 49.223,196.56 49.182,196.189 49.155,195.831 49.118,195.465 49.094,195.081 
		49.063,194.697 49.04,194.304 49.02,193.911 49.002,193.505 48.983,193.108 48.973,192.703 48.966,192.384 48.953,192.061 
		48.946,191.729 48.946,191.411 48.946,191.092 48.935,190.756 48.946,190.424 48.946,190.105 48.953,189.722 48.966,189.342 
		48.973,188.958 48.99,188.578 49.002,188.208 49.02,187.828 49.046,187.457 49.071,187.086 49.094,186.72 49.132,186.361 
		49.155,186.03 49.193,185.686 49.23,185.363 49.267,185.044 49.304,184.734 49.352,184.416 49.402,184.106 49.439,183.813 
		49.496,183.53 49.55,183.26 49.601,182.997 49.662,182.753 49.709,182.504 49.771,182.286 49.834,182.063 49.895,181.854 
		49.956,181.658 50.03,181.47 50.091,181.299 50.166,181.125 50.227,180.977 50.301,180.855 50.375,180.719 50.45,180.624 
		50.523,180.523 50.598,180.436 50.67,180.362 50.744,180.313 50.825,180.265 50.905,180.24 50.979,180.213 51.059,180.213 
		51.132,180.227 51.213,180.24 51.288,180.279 51.372,180.327 51.447,180.388 51.534,180.462 51.607,180.558 51.686,180.658 
		51.767,180.768 51.841,180.894 51.916,181.038 51.987,181.186 52.062,181.348 52.136,181.531 52.204,181.719 52.284,181.928 
		52.346,182.137 52.42,182.369 52.487,182.591 52.555,182.84 52.616,183.084 52.679,183.342 52.74,183.613 52.801,183.909 
		52.862,184.206 52.919,184.512 52.974,184.834 53.024,185.153 53.072,185.485 53.122,185.808 53.17,186.14 53.214,186.483 
		53.258,186.842 53.295,187.2 53.332,187.579 53.369,187.95 53.406,188.33 53.436,188.714 53.46,189.093 53.484,189.478 
		53.511,189.857 53.528,190.254 53.554,190.634 53.565,191.04 53.578,191.437 53.589,191.843 53.589,192.249 53.603,192.654 
		53.603,192.964 53.603,193.27 53.603,193.579 53.589,193.885 53.589,194.269 53.578,194.648 53.565,195.033 53.554,195.413 
		53.534,195.783 53.515,196.163 53.498,196.534 53.473,196.905 53.443,197.271 53.417,197.629 53.38,197.96 53.345,198.296 
		53.305,198.628 53.271,198.947 53.233,199.27 53.189,199.575 53.146,199.886 53.096,200.168 53.048,200.461 52.991,200.732 
		52.937,200.994 52.875,201.251 52.826,201.474 52.764,201.705 52.71,201.927 52.646,202.137 52.581,202.333 52.518,202.521 
		52.445,202.691 52.375,202.866 52.308,203.001 52.236,203.137 52.167,203.259 52.088,203.367 52.027,203.468 51.946,203.555 
		51.872,203.629 51.792,203.69 51.717,203.726 51.632,203.764 51.571,203.778 51.508,203.778 51.447,203.778 51.378,203.764 
		51.317,203.751 51.25,203.712 51.189,203.677 51.119,203.629 	"/>
	<line fill="none" stroke="#232323" stroke-miterlimit="10" x1="46.729" y1="240.556" x2="54.478" y2="246.848"/>
	<line fill="none" stroke="#232323" stroke-miterlimit="10" x1="47.898" y1="149.422" x2="46.736" y2="240.556"/>
	<polyline fill="none" stroke="#232323" stroke-miterlimit="10" points="345.146,370.823 345.211,368.396 345.285,365.564 
		345.377,362.72 345.46,359.874 345.544,357.042 345.63,354.197 345.719,351.373 345.813,348.528 345.9,345.71 346,342.877 
		346.089,340.045 346.185,337.227 346.281,334.403 346.386,331.584 346.485,328.773 346.59,325.955 346.694,323.149 
		346.799,320.339 346.908,317.532 347.014,314.723 347.132,311.916 347.24,309.119 347.354,306.322 347.472,303.529 347.59,300.745 
		347.712,297.948 347.834,295.164 347.951,292.38 348.074,289.596 348.205,286.816 348.327,284.045 348.449,281.274 348.584,278.49 
		348.724,275.731 348.851,272.957 348.994,270.199 349.121,267.441 349.266,264.683 349.396,261.925 349.545,259.176 
		349.685,256.418 349.833,253.682 349.976,250.937 350.125,248.192 350.273,245.456 350.421,242.725 350.558,240.21 	"/>
	<polyline fill="none" stroke="#232323" stroke-miterlimit="10" points="361.615,117.671 361.57,117.637 361.523,117.61 
		361.483,117.576 361.432,117.549 361.384,117.541 361.336,117.515 361.292,117.502 361.234,117.488 361.195,117.488 
		361.147,117.479 361.1,117.479 361.048,117.479 361.003,117.488 360.951,117.502 360.916,117.515 360.864,117.523 360.816,117.549 
		360.771,117.576 360.729,117.602 360.682,117.637 360.629,117.671 360.593,117.724 360.545,117.759 360.502,117.811 
		360.445,117.859 360.41,117.908 360.358,117.969 360.313,118.03 360.275,118.091 360.236,118.152 360.188,118.239 360.149,118.313 
		360.102,118.387 360.062,118.461 360.022,118.562 359.978,118.649 359.935,118.732 359.891,118.833 359.855,118.928 
		359.816,119.042 359.773,119.138 359.738,119.252 359.695,119.36 359.659,119.47 359.621,119.596 359.606,119.63 	"/>
	<line fill="none" stroke="#232323" stroke-miterlimit="10" x1="361.615" y1="117.671" x2="375.011" y2="128.563"/>
	<line fill="none" stroke="#232323" stroke-miterlimit="10" x1="375.003" y1="128.563" x2="374.995" y2="129.803"/>
	<line fill="none" stroke="#232323" stroke-miterlimit="10" x1="373.863" y1="239.691" x2="373.863" y2="239.731"/>
	<line fill="none" stroke="#232323" stroke-miterlimit="10" x1="373.863" y1="239.731" x2="383.155" y2="247.28"/>
	<line fill="none" stroke="#232323" stroke-miterlimit="10" x1="383.155" y1="247.28" x2="381.592" y2="399.79"/>
	<line fill="none" stroke="#232323" stroke-miterlimit="10" x1="358.613" y1="381.117" x2="381.592" y2="399.803"/>
	<line fill="none" stroke="#232323" stroke-miterlimit="10" x1="381.592" y1="399.803" x2="389.289" y2="399.628"/>
	<line fill="none" stroke="#232323" stroke-miterlimit="10" x1="383.155" y1="247.28" x2="419.108" y2="246.468"/>
	<line fill="none" stroke="#232323" stroke-miterlimit="10" x1="413.355" y1="486.951" x2="416.637" y2="486.878"/>
	<line fill="none" stroke="#232323" stroke-miterlimit="10" x1="389.289" y1="399.619" x2="389.093" y2="418.759"/>
	<line fill="none" stroke="#232323" stroke-miterlimit="10" x1="419.108" y1="246.468" x2="416.637" y2="486.878"/>
	<line fill="none" stroke="#232323" stroke-miterlimit="10" x1="373.863" y1="239.731" x2="409.816" y2="238.915"/>
	<line fill="none" stroke="#232323" stroke-miterlimit="10" x1="409.816" y1="238.915" x2="419.108" y2="246.468"/>
	<line fill="none" stroke="#232323" stroke-miterlimit="10" x1="406.727" y1="129.104" x2="406.286" y2="127.856"/>
	<line fill="none" stroke="#232323" stroke-miterlimit="10" x1="409.821" y1="238.88" x2="409.821" y2="238.915"/>
	<line fill="none" stroke="#232323" stroke-miterlimit="10" x1="406.286" y1="127.856" x2="392.894" y2="116.973"/>
	<polyline fill="none" stroke="#232323" stroke-miterlimit="10" points="392.463,116.772 392.476,116.772 392.527,116.786 
		392.59,116.799 392.654,116.825 392.732,116.86 392.816,116.912 392.898,116.973 	"/>
	<line fill="none" stroke="#232323" stroke-miterlimit="10" x1="364.979" y1="122.794" x2="361.265" y2="119.779"/>
	<line fill="none" stroke="#232323" stroke-miterlimit="10" x1="364.904" y1="129.253" x2="364.979" y2="122.786"/>
	<polyline fill="none" stroke="#232323" stroke-miterlimit="10" points="361.265,119.779 361.222,119.74 361.18,119.719 
		361.135,119.696 361.087,119.67 361.048,119.644 361,119.63 360.961,119.618 360.921,119.609 360.878,119.609 360.829,119.609 	"/>
	<line fill="none" stroke="#232323" stroke-miterlimit="10" x1="357.844" y1="381.143" x2="348.706" y2="381.34"/>
	<line fill="none" stroke="#232323" stroke-miterlimit="10" x1="113.988" y1="386.611" x2="89.036" y2="387.165"/>
	<line fill="none" stroke="#232323" stroke-miterlimit="10" x1="344.596" y1="370.378" x2="337.92" y2="370.526"/>
	<line fill="none" stroke="#232323" stroke-miterlimit="10" x1="112.326" y1="375.588" x2="89.147" y2="376.107"/>
	<line fill="none" stroke="#232323" stroke-miterlimit="10" x1="344.596" y1="370.378" x2="357.844" y2="381.143"/>
	<line fill="none" stroke="#232323" stroke-miterlimit="10" x1="45.154" y1="247.097" x2="54.453" y2="254.646"/>
	<line fill="none" stroke="#232323" stroke-miterlimit="10" x1="54.453" y1="254.646" x2="51.977" y2="495.056"/>
	<line fill="none" stroke="#232323" stroke-miterlimit="10" x1="51.977" y1="495.056" x2="17.381" y2="466.948"/>
	<polyline fill="none" stroke="#232323" stroke-miterlimit="10" points="17.381,466.948 17.418,464.068 17.448,461.196 
		17.479,458.316 17.516,455.459 17.553,452.591 17.59,449.72 17.627,446.849 17.675,443.981 17.719,441.11 17.763,438.252 
		17.806,435.398 17.861,432.527 17.911,429.668 17.958,426.823 18.009,423.965 18.064,421.111 18.12,418.253 18.181,415.408 
		18.236,412.562 18.299,409.704 18.36,406.872 18.428,404.027 18.489,401.182 18.557,398.336 18.624,395.505 18.699,392.672 
		18.772,389.84 18.847,387.008 18.919,384.172 18.994,381.353 19.081,378.521 19.154,375.701 19.24,372.878 19.327,370.06 
		19.407,367.24 19.499,364.417 19.585,361.611 19.672,358.801 19.77,355.994 19.857,353.185 19.956,350.379 20.054,347.568 
		20.145,344.775 20.25,341.979 20.348,339.182 20.446,336.389 20.557,333.604 20.663,330.808 20.767,328.023 20.878,325.239 
		20.989,322.459 21.101,319.675 21.217,316.903 21.334,314.133 21.45,311.362 21.568,308.592 21.686,305.82 21.814,303.058 
		21.932,300.3 22.061,297.542 22.183,294.785 22.318,292.035 22.442,289.277 22.578,286.532 22.707,283.783 22.837,281.051 
		22.977,278.302 23.119,275.571 23.257,272.834 23.392,270.103 23.538,267.38 23.686,264.644 23.828,261.934 23.97,259.215 
		24.125,256.492 24.265,253.782 24.426,251.072 24.579,248.362 24.734,245.666 24.886,242.956 25.042,240.259 25.213,237.562 
		25.369,234.878 25.534,232.19 25.694,229.506 25.859,226.823 26.027,224.139 26.198,221.464 26.372,218.79 26.542,216.119 
		26.71,213.457 26.89,210.794 27.062,208.137 27.241,205.476 27.417,202.826 27.603,200.177 27.789,197.533 27.972,194.885 
		28.157,192.249 28.342,189.612 28.533,186.99 28.725,184.355 28.921,181.731 29.106,179.105 29.302,176.495 29.499,173.886 
		29.698,171.272 29.894,168.662 30.097,166.066 30.3,163.452 30.509,160.864 30.706,158.281 30.915,155.693 31.124,153.105 
		31.333,150.522 31.543,147.947 31.759,145.373 31.976,142.811 32.191,140.237 32.407,137.675 	"/>
	<line fill="none" stroke="#232323" stroke-miterlimit="10" x1="32.407" y1="137.675" x2="46.171" y2="148.855"/>
	<line fill="none" stroke="#232323" stroke-miterlimit="10" x1="80.229" y1="494.427" x2="81.129" y2="406.54"/>
	<line fill="none" stroke="#232323" stroke-miterlimit="10" x1="80.229" y1="494.427" x2="51.977" y2="495.056"/>
	<line fill="none" stroke="#232323" stroke-miterlimit="10" x1="90.402" y1="253.843" x2="54.453" y2="254.646"/>
	<line fill="none" stroke="#232323" stroke-miterlimit="10" x1="81.129" y1="406.54" x2="88.84" y2="406.366"/>
	<line fill="none" stroke="#232323" stroke-miterlimit="10" x1="90.402" y1="253.843" x2="88.833" y2="406.354"/>
	<line fill="none" stroke="#232323" stroke-miterlimit="10" x1="81.112" y1="246.294" x2="45.159" y2="247.097"/>
	<line fill="none" stroke="#232323" stroke-miterlimit="10" x1="81.112" y1="246.294" x2="90.402" y2="253.843"/>
	<line fill="none" stroke="#232323" stroke-miterlimit="10" x1="82.25" y1="135.126" x2="82.237" y2="136.371"/>
	<line fill="none" stroke="#232323" stroke-miterlimit="10" x1="81.112" y1="246.259" x2="81.112" y2="246.294"/>
	<line fill="none" stroke="#232323" stroke-miterlimit="10" x1="50.979" y1="135.825" x2="37.579" y2="124.941"/>
	<polyline fill="none" stroke="#232323" stroke-miterlimit="10" points="32.407,137.675 33.712,131.348 34.733,126.355 	"/>
	<polyline fill="none" stroke="#232323" stroke-miterlimit="10" points="34.74,126.355 34.905,126.16 35.073,125.976 
		35.239,125.801 35.398,125.64 35.554,125.509 35.707,125.369 35.855,125.248 35.99,125.151 36.119,125.064 36.247,124.99 
		36.365,124.915 36.483,124.863 36.601,124.819 36.705,124.793 36.814,124.767 36.919,124.758 37.011,124.741 37.116,124.758 
		37.203,124.767 37.308,124.793 37.406,124.828 37.493,124.88 37.579,124.941 	"/>
	<line fill="none" stroke="#232323" stroke-miterlimit="10" x1="68.862" y1="124.252" x2="82.255" y2="135.126"/>
	<polyline fill="none" stroke="#232323" stroke-miterlimit="10" points="68.862,124.252 68.818,124.2 68.764,124.173 
		68.727,124.139 68.677,124.112 68.627,124.104 68.579,124.078 68.535,124.069 68.48,124.051 68.444,124.051 68.393,124.042 
		68.352,124.042 	"/>
	<polyline fill="none" stroke="#232323" stroke-miterlimit="10" points="148.296,383.854 148.326,383.889 148.361,383.914 
		148.401,383.94 148.448,383.962 148.493,383.988 148.54,384.002 148.597,384.023 148.659,384.05 148.719,384.075 148.781,384.098 
		148.854,384.124 148.916,384.149 148.997,384.172 149.071,384.198 149.152,384.225 149.236,384.233 149.323,384.259 
		149.409,384.285 149.509,384.298 149.601,384.32 149.705,384.347 149.804,384.359 149.902,384.381 150.013,384.407 
		150.124,384.421 150.233,384.442 150.352,384.456 150.469,384.481 150.585,384.494 150.713,384.508 150.831,384.529 
		150.962,384.543 151.091,384.556 151.221,384.569 151.355,384.591 151.49,384.604 151.626,384.616 151.761,384.63 151.902,384.643 
		152.045,384.651 152.186,384.665 152.329,384.678 152.476,384.691 152.625,384.704 152.771,384.704 152.926,384.717 
		153.067,384.726 153.221,384.726 153.375,384.738 153.528,384.738 153.684,384.752 153.842,384.752 153.991,384.765 
		154.153,384.765 154.299,384.765 154.458,384.765 154.613,384.778 154.768,384.778 154.927,384.778 155.082,384.778 
		155.234,384.778 155.39,384.778 155.548,384.778 155.703,384.765 155.857,384.765 156.011,384.765 	"/>
	<line fill="none" stroke="#232323" stroke-miterlimit="10" x1="148.239" y1="389.421" x2="148.296" y2="383.866"/>
	<line fill="none" stroke="#232323" stroke-miterlimit="10" x1="124.704" y1="354.346" x2="302.407" y2="350.353"/>
	<line fill="none" stroke="#232323" stroke-miterlimit="10" x1="158.88" y1="382.116" x2="124.704" y2="354.333"/>
	<line fill="none" stroke="#232323" stroke-miterlimit="10" x1="302.407" y1="350.353" x2="337.92" y2="379.986"/>
	<polyline fill="none" stroke="#232323" stroke-miterlimit="10" points="305.453,348.751 305.593,348.751 305.74,348.751 
		305.872,348.751 306.017,348.751 306.156,348.751 306.304,348.751 306.439,348.751 306.587,348.751 306.729,348.751 
		306.871,348.751 307.02,348.751 307.154,348.764 307.304,348.764 307.438,348.764 307.578,348.777 307.722,348.777 307.861,348.79 
		308.001,348.79 308.133,348.803 308.276,348.803 308.411,348.812 308.548,348.825 308.673,348.839 308.805,348.839 
		308.935,348.852 309.066,348.864 309.193,348.878 309.319,348.887 309.441,348.899 309.568,348.912 309.686,348.926 
		309.803,348.938 309.922,348.961 310.034,348.974 310.136,348.987 310.253,349.013 310.357,349.021 310.463,349.034 
		310.567,349.061 310.664,349.074 310.759,349.096 310.846,349.109 310.947,349.121 311.035,349.147 311.122,349.156 
		311.199,349.183 311.283,349.21 311.354,349.23 311.426,349.244 311.501,349.271 311.562,349.292 311.637,349.306 311.685,349.332 
		311.746,349.357 311.807,349.366 311.859,349.393 311.894,349.419 311.946,349.44 311.99,349.467 312.025,349.492 312.056,349.515 
		312.086,349.527 	"/>
	<line fill="none" stroke="#232323" stroke-miterlimit="10" x1="312.086" y1="349.527" x2="347.712" y2="378.481"/>
	<polyline fill="none" stroke="#232323" stroke-miterlimit="10" points="113.576,353.988 113.552,353.962 113.525,353.935 
		113.508,353.913 113.495,353.887 113.484,353.874 113.472,353.839 113.472,353.812 113.464,353.8 113.472,353.777 113.478,353.752 
		113.484,353.73 113.495,353.704 113.514,353.69 113.532,353.664 113.556,353.643 113.595,353.616 113.619,353.591 113.657,353.568 
		113.692,353.556 113.735,353.529 113.779,353.508 113.822,353.481 113.877,353.468 113.926,353.446 113.995,353.433 
		114.048,353.407 114.123,353.381 114.185,353.372 114.259,353.346 114.332,353.319 114.407,353.311 114.494,353.285 
		114.573,353.272 114.665,353.259 114.752,353.237 114.839,353.224 114.938,353.21 115.036,353.185 115.134,353.172 
		115.231,353.163 115.344,353.149 115.455,353.137 115.559,353.123 115.668,353.11 115.786,353.102 115.903,353.088 
		116.022,353.075 116.138,353.05 116.266,353.036 116.383,353.036 116.513,353.027 116.642,353.015 116.771,353.001 116.9,353.001 
		117.03,352.988 117.165,352.988 117.3,352.975 117.436,352.975 117.572,352.962 117.708,352.962 117.843,352.962 117.989,352.953 	
		"/>
	<line fill="none" stroke="#232323" stroke-miterlimit="10" x1="117.989" y1="352.953" x2="305.453" y2="348.751"/>
	<line fill="none" stroke="#232323" stroke-miterlimit="10" x1="156.011" y1="384.765" x2="343.474" y2="380.554"/>
	<line fill="none" stroke="#232323" stroke-miterlimit="10" x1="113.576" y1="353.988" x2="112.669" y2="354.908"/>
	<line fill="none" stroke="#232323" stroke-miterlimit="10" x1="112.669" y1="354.908" x2="148.301" y2="383.854"/>
	<line fill="none" stroke="#232323" stroke-miterlimit="10" x1="112.609" y1="360.464" x2="112.669" y2="354.908"/>
	<line fill="none" stroke="#232323" stroke-miterlimit="10" x1="161.36" y1="383.854" x2="130.123" y2="358.442"/>
	<polyline fill="none" stroke="#232323" stroke-miterlimit="10" points="343.474,380.562 343.623,380.554 343.775,380.554 
		343.934,380.554 344.081,380.541 344.225,380.541 344.374,380.528 344.521,380.528 344.666,380.516 344.806,380.502 
		344.944,380.502 345.094,380.488 345.233,380.48 345.365,380.467 345.508,380.453 345.635,380.44 345.766,380.428 345.896,380.419 
		346.022,380.406 346.149,380.393 346.271,380.38 346.394,380.366 346.513,380.345 346.63,380.331 346.739,380.318 346.849,380.305 
		346.961,380.279 347.058,380.271 347.17,380.244 347.262,380.231 347.367,380.209 347.459,380.184 347.546,380.171 
		347.638,380.145 347.721,380.135 347.8,380.109 347.887,380.082 347.956,380.074 348.026,380.048 348.096,380.021 348.156,380.009 
		348.218,379.986 348.279,379.961 348.332,379.935 348.388,379.913 348.437,379.887 348.477,379.864 348.523,379.838 
		348.554,379.812 348.594,379.791 348.624,379.764 348.646,379.738 348.671,379.717 348.686,379.704 348.706,379.664 
		348.724,379.642 348.724,379.615 348.733,379.59 348.733,379.568 348.724,379.542 348.724,379.52 348.706,379.493 348.698,379.468 
		348.671,379.446 348.658,379.42 348.646,379.406 	"/>
	<line fill="none" stroke="#232323" stroke-miterlimit="10" x1="324.68" y1="378.398" x2="299.571" y2="358.002"/>
	<line fill="none" stroke="#232323" stroke-miterlimit="10" x1="296.49" y1="357.631" x2="133.634" y2="361.288"/>
	<polyline fill="none" stroke="#232323" stroke-miterlimit="10" points="112.633,354.528 112.622,354.528 112.597,354.555 
		112.582,354.577 112.573,354.603 112.552,354.629 112.547,354.664 112.541,354.69 112.541,354.712 112.541,354.738 
		112.547,354.765 112.559,354.786 112.573,354.812 112.597,354.838 112.622,354.86 112.646,354.887 112.669,354.908 	"/>
	<polyline fill="none" stroke="#232323" stroke-miterlimit="10" points="112.609,360.464 112.582,360.441 112.559,360.415 
		112.535,360.39 112.518,360.367 112.505,360.341 112.492,360.314 112.487,360.293 112.487,360.268 112.487,360.254 	"/>
	<polyline fill="none" stroke="#232323" stroke-miterlimit="10" points="299.574,358.002 299.554,357.989 299.531,357.963 
		299.5,357.954 299.47,357.941 299.431,357.928 299.396,357.902 299.36,357.889 299.309,357.88 299.261,357.866 299.213,357.841 
		299.151,357.828 299.099,357.819 299.039,357.806 298.977,357.793 298.902,357.779 298.842,357.767 298.768,357.753 
		298.693,357.753 298.619,357.744 298.546,357.731 298.462,357.719 298.375,357.706 298.287,357.706 298.21,357.692 298.113,357.68 
		298.025,357.68 297.938,357.671 297.842,357.671 297.755,357.657 297.66,357.657 297.559,357.657 297.463,357.645 297.371,357.645 
		297.274,357.645 297.17,357.645 297.08,357.631 296.979,357.631 296.873,357.631 296.786,357.631 296.687,357.631 296.587,357.631 
		296.49,357.645 	"/>
	<line fill="none" stroke="#232323" stroke-miterlimit="10" x1="148.956" y1="401.344" x2="149.065" y2="389.766"/>
	<line fill="none" stroke="#232323" stroke-miterlimit="10" x1="113.261" y1="372.337" x2="113.373" y2="361.079"/>
	<line fill="none" stroke="#232323" stroke-miterlimit="10" x1="311.515" y1="367.891" x2="311.515" y2="367.694"/>
	<line fill="none" stroke="#232323" stroke-miterlimit="10" x1="313.129" y1="411.48" x2="312.793" y2="408.608"/>
	<line fill="none" stroke="#232323" stroke-miterlimit="10" x1="313.129" y1="411.48" x2="187.296" y2="414.299"/>
	<line fill="none" stroke="#232323" stroke-miterlimit="10" x1="186.961" y1="411.428" x2="187.296" y2="414.299"/>
	<polyline fill="none" stroke="#232323" stroke-miterlimit="10" points="186.961,411.428 186.949,411.258 186.938,411.083 
		186.938,410.926 186.949,410.752 186.974,410.568 187.012,410.407 187.047,410.232 187.096,410.088 187.158,409.927 
		187.221,409.778 187.299,409.643 187.38,409.495 187.478,409.373 187.583,409.237 187.702,409.115 187.824,409.002 
		187.958,408.906 188.093,408.806 188.229,408.73 188.377,408.657 188.513,408.608 188.648,408.57 188.783,408.535 188.919,408.509 
		189.054,408.5 189.191,408.486 	"/>
	<line fill="none" stroke="#232323" stroke-miterlimit="10" x1="309.887" y1="405.777" x2="189.191" y2="408.486"/>
	<polyline fill="none" stroke="#232323" stroke-miterlimit="10" points="309.887,405.777 310.034,405.777 310.184,405.789 
		310.346,405.812 310.507,405.852 310.659,405.887 310.812,405.947 310.978,406.008 311.122,406.082 311.262,406.169 
		311.41,406.257 311.535,406.354 311.675,406.467 311.812,406.576 311.938,406.724 312.056,406.858 312.183,407.021 
		312.287,407.182 312.374,407.339 312.47,407.501 312.539,407.671 312.623,407.858 312.684,408.055 312.728,408.237 
		312.768,408.426 312.788,408.596 	"/>
	<line fill="none" stroke="#232323" stroke-miterlimit="10" x1="187.296" y1="414.299" x2="187.269" y2="416.887"/>
	<line fill="none" stroke="#232323" stroke-miterlimit="10" x1="187.269" y1="416.887" x2="186.235" y2="416.049"/>
	<line fill="none" stroke="#232323" stroke-miterlimit="10" x1="186.235" y1="416.049" x2="186.253" y2="414.461"/>
	<line fill="none" stroke="#232323" stroke-miterlimit="10" x1="313.104" y1="414.063" x2="313.129" y2="411.48"/>
	<polyline fill="none" stroke="#232323" stroke-miterlimit="10" points="147.982,414.238 148.017,414.261 148.054,414.286 
		148.092,414.312 148.134,414.334 148.179,414.36 148.227,414.387 148.287,414.408 148.337,414.435 148.405,414.461 
		148.466,414.482 148.536,414.496 148.608,414.521 148.683,414.543 148.756,414.569 148.841,414.597 148.922,414.618 
		149.016,414.644 149.102,414.657 149.195,414.679 149.287,414.705 149.385,414.719 149.49,414.74 149.594,414.753 149.699,414.779 
		149.814,414.792 149.926,414.814 150.037,414.827 150.149,414.854 150.272,414.875 150.395,414.888 150.517,414.901 
		150.653,414.914 150.777,414.94 150.912,414.95 151.042,414.963 151.171,414.976 151.311,414.988 151.454,415.002 151.591,415.015 
		151.726,415.023 151.872,415.037 152.021,415.05 152.168,415.063 152.311,415.076 152.463,415.076 152.612,415.085 152.76,415.098 
		152.907,415.098 153.067,415.11 153.215,415.11 153.368,415.124 153.524,415.137 153.676,415.137 153.831,415.137 153.985,415.15 
		154.145,415.15 154.299,415.15 154.453,415.15 154.606,415.15 154.768,415.15 154.92,415.15 155.076,415.15 155.234,415.15 
		155.383,415.15 155.542,415.15 155.69,415.15 	"/>
	<line fill="none" stroke="#232323" stroke-miterlimit="10" x1="147.982" y1="414.238" x2="148.117" y2="401.304"/>
	<line fill="none" stroke="#232323" stroke-miterlimit="10" x1="145.918" y1="370.378" x2="305.086" y2="366.956"/>
	<polyline fill="none" stroke="#232323" stroke-miterlimit="10" points="305.086,366.956 305.235,366.956 305.392,366.956 
		305.541,366.956 305.701,366.956 305.854,366.943 306.012,366.943 306.169,366.956 306.317,366.956 306.475,366.956 
		306.64,366.956 306.783,366.956 306.945,366.956 307.103,366.97 307.251,366.979 307.413,366.979 307.561,366.979 307.714,366.991 
		307.871,367.005 308.019,367.005 308.167,367.019 308.316,367.019 308.464,367.031 308.621,367.039 308.76,367.053 
		308.899,367.065 309.049,367.079 309.188,367.079 309.328,367.092 309.467,367.114 309.606,367.127 309.738,367.141 
		309.87,367.152 310,367.166 310.131,367.179 310.258,367.201 310.383,367.214 310.507,367.24 310.619,367.249 310.738,367.262 
		310.855,367.288 310.973,367.301 311.035,367.314 	"/>
	<line fill="none" stroke="#232323" stroke-miterlimit="10" x1="347.772" y1="396.294" x2="348.427" y2="396.822"/>
	<polyline fill="none" stroke="#232323" stroke-miterlimit="10" points="112.487,372.363 112.46,372.337 112.437,372.311 
		112.413,372.289 112.4,372.25 112.386,372.229 112.37,372.202 112.362,372.176 112.362,372.154 112.362,372.128 112.362,372.102 
		112.373,372.079 112.386,372.053 112.4,372.032 112.424,372.006 112.448,371.979 112.475,371.957 112.498,371.932 112.535,371.905 
		112.573,371.884 112.609,371.857 112.657,371.831 112.708,371.822 112.757,371.797 112.812,371.771 112.866,371.748 
		112.928,371.722 112.991,371.695 113.066,371.674 113.137,371.661 113.211,371.635 113.261,371.621 	"/>
	<line fill="none" stroke="#232323" stroke-miterlimit="10" x1="155.69" y1="415.137" x2="186.511" y2="414.447"/>
	<line fill="none" stroke="#232323" stroke-miterlimit="10" x1="313.129" y1="411.615" x2="343.16" y2="410.935"/>
	<line fill="none" stroke="#232323" stroke-miterlimit="10" x1="112.355" y1="385.28" x2="112.487" y2="372.363"/>
	<line fill="none" stroke="#232323" stroke-miterlimit="10" x1="145.974" y1="406.872" x2="145.925" y2="412.562"/>
	<line fill="none" stroke="#232323" stroke-miterlimit="10" x1="138.744" y1="400.999" x2="145.974" y2="406.872"/>
	<line fill="none" stroke="#232323" stroke-miterlimit="10" x1="138.688" y1="406.689" x2="138.744" y2="400.999"/>
	<line fill="none" stroke="#232323" stroke-miterlimit="10" x1="121.709" y1="387.152" x2="121.649" y2="392.83"/>
	<line fill="none" stroke="#232323" stroke-miterlimit="10" x1="114.481" y1="381.278" x2="121.709" y2="387.152"/>
	<line fill="none" stroke="#232323" stroke-miterlimit="10" x1="114.419" y1="386.955" x2="114.481" y2="381.278"/>
	<line fill="none" stroke="#232323" stroke-miterlimit="10" x1="112.355" y1="385.28" x2="114.424" y2="386.955"/>
	<line fill="none" stroke="#232323" stroke-miterlimit="10" x1="121.649" y1="392.83" x2="138.688" y2="406.689"/>
	<line fill="none" stroke="#232323" stroke-miterlimit="10" x1="145.918" y1="412.562" x2="147.987" y2="414.238"/>
	<polyline fill="none" stroke="#232323" stroke-miterlimit="10" points="343.16,410.935 343.313,410.926 343.461,410.926 
		343.61,410.926 343.767,410.912 343.911,410.912 344.063,410.9 344.208,410.9 344.352,410.887 344.496,410.874 344.631,410.874 
		344.78,410.86 344.915,410.852 345.05,410.839 345.188,410.825 345.32,410.825 345.46,410.812 345.582,410.799 345.704,410.778 
		345.836,410.765 345.962,410.752 346.08,410.738 346.197,410.726 346.315,410.703 346.429,410.69 346.533,410.678 346.647,410.651 
		346.752,410.643 346.856,410.616 346.948,410.604 347.048,410.581 347.145,410.568 347.232,410.542 347.324,410.529 
		347.406,410.507 347.489,410.494 347.563,410.468 347.643,410.441 347.712,410.42 347.785,410.394 347.847,410.381 
		347.909,410.358 347.965,410.332 348.017,410.307 348.07,410.285 348.121,410.258 348.166,410.245 348.21,410.223 348.24,410.197 
		348.279,410.162 348.314,410.136 348.34,410.109 348.353,410.088 348.375,410.075 348.393,410.049 348.41,410.022 348.414,410.001 
		348.419,409.975 348.419,409.953 	"/>
	<line fill="none" stroke="#232323" stroke-miterlimit="10" x1="145.556" y1="406.527" x2="138.693" y2="406.676"/>
	<line fill="none" stroke="#232323" stroke-miterlimit="10" x1="121.292" y1="386.808" x2="114.419" y2="386.955"/>
	<polyline fill="none" stroke="#232323" stroke-miterlimit="10" points="112.227,385.07 112.227,385.083 112.233,385.109 
		112.238,385.132 112.251,385.158 112.264,385.185 112.278,385.205 112.302,385.232 112.326,385.259 112.349,385.28 	"/>
	<polyline fill="none" stroke="#232323" stroke-miterlimit="10" points="411.706,437.65 409.704,437.798 407.705,437.934 
		405.701,438.082 403.69,438.218 401.684,438.353 399.654,438.487 397.629,438.623 395.609,438.758 393.566,438.894 
		391.532,439.016 389.495,439.151 387.444,439.278 385.398,439.413 383.347,439.535 381.286,439.656 379.223,439.766 
		377.158,439.893 375.09,440.015 373.009,440.137 370.94,440.25 368.859,440.359 366.764,440.469 364.683,440.582 362.592,440.691 
		360.488,440.792 358.39,440.901 356.291,441.001 354.18,441.11 352.071,441.211 349.955,441.307 347.834,441.406 345.719,441.503 
		343.583,441.591 341.467,441.678 339.338,441.777 337.195,441.861 335.057,441.948 332.919,442.049 330.775,442.122 
		328.634,442.205 326.479,442.293 324.33,442.367 322.175,442.441 320.011,442.528 317.855,442.603 315.69,442.677 313.521,442.738 
		311.354,442.812 309.188,442.887 307.007,442.947 304.834,443.021 302.661,443.083 300.479,443.144 298.292,443.191 
		296.106,443.253 293.916,443.313 291.729,443.366 289.529,443.414 287.339,443.476 285.139,443.523 282.94,443.576 280.75,443.623 
		278.537,443.659 276.339,443.711 274.129,443.746 271.918,443.785 269.713,443.834 267.497,443.868 265.281,443.895 
		263.068,443.93 260.855,443.968 258.635,443.995 256.412,444.017 254.196,444.043 251.971,444.077 249.75,444.104 247.528,444.13 
		245.303,444.139 243.072,444.165 240.844,444.178 238.618,444.191 236.383,444.204 234.149,444.213 231.915,444.226 
		229.685,444.239 227.446,444.239 225.216,444.252 222.973,444.252 220.743,444.252 218.5,444.252 216.267,444.252 214.032,444.252 
		211.792,444.239 209.551,444.239 207.308,444.226 205.066,444.213 202.825,444.213 200.582,444.191 198.342,444.178 
		196.101,444.165 193.858,444.152 191.625,444.13 189.377,444.104 187.134,444.077 184.893,444.056 182.656,444.03 180.409,444.003 
		178.175,443.968 175.926,443.942 173.691,443.907 171.454,443.868 169.207,443.846 166.967,443.808 164.73,443.759 162.489,443.72 
		160.248,443.672 158.013,443.637 155.776,443.585 153.541,443.536 151.308,443.488 	"/>
	<polyline fill="none" stroke="#232323" stroke-miterlimit="10" points="413.789,445.335 413.396,443.881 413.002,442.454 
		412.619,441.015 412.165,439.325 411.706,437.65 	"/>
	<polyline fill="none" stroke="#232323" stroke-miterlimit="10" points="153.389,451.173 155.623,451.221 157.857,451.273 
		160.101,451.309 162.331,451.356 164.57,451.396 166.812,451.431 169.048,451.47 171.282,451.505 173.523,451.544 175.766,451.579 
		178.007,451.618 180.25,451.64 182.483,451.666 184.731,451.692 186.968,451.715 189.203,451.74 191.446,451.762 193.686,451.775 
		195.927,451.802 198.169,451.814 200.411,451.828 202.65,451.837 204.894,451.85 207.128,451.875 209.365,451.875 211.606,451.889 
		213.85,451.889 216.083,451.897 218.317,451.897 220.551,451.897 222.791,451.897 225.024,451.889 227.26,451.889 229.497,451.889 
		231.73,451.875 233.956,451.863 236.191,451.85 238.417,451.837 240.646,451.828 242.877,451.802 245.105,451.788 247.328,451.762 
		249.554,451.754 251.774,451.728 253.995,451.701 256.213,451.68 258.438,451.652 260.664,451.627 262.872,451.592 
		265.084,451.557 267.301,451.518 269.518,451.492 271.721,451.457 273.93,451.417 276.142,451.37 278.346,451.334 280.554,451.282 
		282.744,451.234 284.947,451.199 287.143,451.147 289.346,451.099 291.533,451.038 293.731,450.99 295.914,450.938 
		298.105,450.876 300.296,450.828 302.477,450.754 304.65,450.706 306.833,450.646 309.001,450.571 311.183,450.51 313.351,450.436 
		315.516,450.374 317.685,450.301 319.845,450.227 322.009,450.151 324.164,450.078 326.32,449.991 328.476,449.916 
		330.623,449.843 332.767,449.755 334.908,449.672 337.056,449.585 339.189,449.511 341.318,449.41 343.453,449.327 345.587,449.24 
		347.712,449.14 349.833,449.044 351.949,448.943 354.065,448.847 356.177,448.747 358.285,448.646 360.393,448.551 362.492,448.45 
		364.591,448.341 366.686,448.228 368.78,448.119 370.866,448.01 372.947,447.896 375.03,447.787 377.106,447.674 379.18,447.552 
		381.246,447.442 383.32,447.32 385.376,447.193 387.432,447.071 389.482,446.949 391.532,446.813 393.575,446.691 395.622,446.564 
		397.65,446.43 399.685,446.294 401.718,446.172 403.739,446.037 405.759,445.902 407.766,445.753 409.778,445.618 411.785,445.482 
		413.789,445.335 	"/>
	<polyline fill="none" stroke="#232323" stroke-miterlimit="10" points="151.308,443.488 151.687,444.915 152.081,446.334 
		152.463,447.774 152.926,449.472 153.389,451.173 	"/>
	<line fill="none" stroke="#232323" stroke-miterlimit="10" x1="412.925" y1="529.354" x2="413.789" y2="445.335"/>
	<polyline fill="none" stroke="#232323" stroke-miterlimit="10" points="412.925,529.354 410.926,529.49 408.922,529.638 
		406.911,529.774 404.89,529.909 402.874,530.044 400.85,530.18 398.825,530.314 396.792,530.454 394.745,530.589 392.715,530.711 
		390.665,530.833 388.617,530.957 386.566,531.079 384.512,531.214 382.443,531.327 380.388,531.449 378.319,531.562 
		376.242,531.685 374.164,531.794 372.088,531.916 370.002,532.03 367.908,532.125 365.83,532.252 363.722,532.349 361.628,532.461 
		359.52,532.558 357.416,532.657 355.312,532.767 353.206,532.867 351.085,532.964 348.968,533.063 346.844,533.15 344.718,533.247 
		342.593,533.334 340.464,533.435 338.325,533.519 336.183,533.605 334.054,533.692 331.91,533.779 329.755,533.85 327.604,533.937 
		325.456,534.011 323.3,534.099 321.145,534.171 318.98,534.246 316.815,534.32 314.656,534.382 312.488,534.457 310.313,534.529 
		308.142,534.592 305.959,534.651 303.796,534.713 301.605,534.773 299.427,534.835 297.239,534.897 295.054,534.949 
		292.858,535.01 290.678,535.058 288.478,535.106 286.278,535.159 284.088,535.206 281.88,535.254 279.677,535.307 277.481,535.355 
		275.273,535.391 273.065,535.429 270.857,535.463 268.654,535.503 266.437,535.538 264.224,535.577 262.016,535.612 
		259.79,535.639 257.569,535.66 255.352,535.699 253.136,535.727 250.915,535.747 248.689,535.761 246.463,535.786 244.229,535.796 
		242.009,535.821 239.786,535.849 237.558,535.861 235.327,535.869 233.098,535.883 230.863,535.883 228.624,535.896 
		226.398,535.908 224.168,535.908 221.926,535.908 219.697,535.908 217.454,535.908 215.214,535.908 212.975,535.908 
		210.738,535.896 208.503,535.896 206.26,535.883 204.019,535.869 201.782,535.861 199.549,535.849 197.306,535.834 
		195.064,535.809 192.825,535.796 190.582,535.773 188.347,535.761 186.099,535.734 183.862,535.712 181.629,535.687 
		179.381,535.651 177.145,535.625 174.903,535.6 172.664,535.564 170.427,535.525 168.19,535.49 165.949,535.45 163.709,535.416 
		161.467,535.376 159.231,535.328 156.997,535.281 154.762,535.241 152.525,535.193 	"/>
	<line fill="none" stroke="#232323" stroke-miterlimit="10" x1="152.525" y1="535.193" x2="153.389" y2="451.173"/>
	<line fill="none" stroke="#232323" stroke-miterlimit="10" x1="151.308" y1="443.488" x2="149.165" y2="441.738"/>
	<line fill="none" stroke="#232323" stroke-miterlimit="10" x1="219.802" y1="443.61" x2="215.67" y2="440.25"/>
	<line fill="none" stroke="#232323" stroke-miterlimit="10" x1="343.043" y1="437.393" x2="347.175" y2="440.752"/>
	<line fill="none" stroke="#232323" stroke-miterlimit="10" x1="409.555" y1="435.9" x2="411.706" y2="437.65"/>
	<line fill="none" stroke="#232323" stroke-miterlimit="10" x1="152.525" y1="535.193" x2="148.239" y2="531.706"/>
	<polyline fill="none" stroke="#232323" stroke-miterlimit="10" points="204.179,535.869 204.215,535.956 204.253,536.065 
		204.278,536.18 204.278,536.289 204.266,536.401 204.229,536.511 204.174,536.625 204.104,536.734 204.019,536.842 
		203.908,536.943 203.791,537.053 203.645,537.166 203.489,537.262 203.31,537.375 203.113,537.472 202.911,537.584 
		202.678,537.681 202.43,537.78 202.172,537.89 201.901,537.978 201.604,538.077 201.299,538.174 201.224,538.2 	"/>
	<polyline fill="none" stroke="#232323" stroke-miterlimit="10" points="198.945,538.741 198.692,538.802 198.255,538.876 
		197.812,538.963 197.356,539.037 196.889,539.112 196.407,539.187 195.903,539.26 195.399,539.331 194.879,539.396 
		194.351,539.456 193.811,539.518 193.256,539.58 192.682,539.64 192.108,539.688 191.53,539.739 190.926,539.789 190.33,539.836 
		189.721,539.884 189.104,539.924 188.475,539.958 187.849,539.998 187.208,540.033 186.562,540.059 185.902,540.093 
		185.248,540.12 184.585,540.146 183.919,540.16 183.248,540.181 182.579,540.194 181.898,540.207 181.22,540.207 180.539,540.22 
		179.855,540.22 179.166,540.22 178.481,540.207 177.798,540.207 177.115,540.194 176.425,540.181 175.742,540.168 175.063,540.146 
		174.387,540.133 173.702,540.107 173.032,540.072 172.359,540.046 171.69,540.011 171.025,539.985 170.372,539.95 169.717,539.896 
		169.078,539.861 168.43,539.81 167.797,539.762 167.17,539.715 166.555,539.667 165.938,539.605 165.334,539.54 164.976,539.505 	
		"/>
	<polyline fill="none" stroke="#232323" stroke-miterlimit="10" points="162.243,539.187 161.911,539.146 161.381,539.072 
		160.85,538.985 160.346,538.911 159.84,538.841 159.36,538.741 158.886,538.667 158.425,538.579 157.981,538.482 157.552,538.396 
		157.133,538.309 156.724,538.213 156.344,538.111 155.961,538.024 155.605,537.93 155.261,537.83 154.933,537.721 154.619,537.619 
		154.323,537.523 154.041,537.409 153.782,537.314 153.535,537.213 153.302,537.105 153.084,536.991 152.888,536.882 152.71,536.77 
		152.55,536.66 152.403,536.559 152.279,536.45 152.168,536.341 152.081,536.228 152.007,536.118 151.947,536.005 151.909,535.896 
		151.896,535.786 151.896,535.674 151.909,535.564 151.947,535.45 151.997,535.341 152.07,535.233 152.156,535.119 152.26,535.01 
		152.284,534.997 	"/>
	<polyline fill="none" stroke="#232323" stroke-miterlimit="10" points="151.381,585.603 151.381,585.665 151.404,585.787 
		151.436,585.887 151.49,586.009 151.564,586.123 151.656,586.232 151.761,586.342 151.885,586.441 152.032,586.551 152.2,586.663 
		152.378,586.772 152.574,586.887 152.784,586.982 153.018,587.096 153.264,587.205 153.528,587.306 153.808,587.415 
		154.103,587.515 154.422,587.611 154.741,587.711 155.087,587.82 155.443,587.907 155.825,588.004 156.214,588.104 
		156.613,588.204 157.032,588.286 157.471,588.375 157.907,588.475 158.376,588.55 158.843,588.645 159.336,588.719 
		159.834,588.807 160.346,588.881 160.864,588.955 161.4,589.028 161.942,589.112 162.5,589.178 163.067,589.247 163.648,589.313 
		164.227,589.374 164.824,589.436 165.42,589.496 166.037,589.543 166.659,589.605 167.281,589.657 167.919,589.705 
		168.555,589.754 169.2,589.792 169.854,589.827 170.519,589.867 171.177,589.914 171.849,589.941 172.515,589.964 173.191,590.002 
		173.87,590.011 174.547,590.036 175.225,590.063 175.915,590.076 176.598,590.086 177.28,590.099 177.969,590.099 178.659,590.099 
		179.337,590.099 180.026,590.099 180.707,590.099 181.382,590.086 182.059,590.076 182.737,590.063 183.403,590.051 
		184.072,590.023 184.737,590.011 185.397,589.989 186.039,589.949 186.69,589.929 187.331,589.889 187.965,589.854 
		188.586,589.814 189.209,589.779 189.818,589.732 190.422,589.68 191.013,589.631 191.598,589.583 192.171,589.531 
		192.732,589.471 193.291,589.409 193.834,589.349 194.364,589.287 194.879,589.212 195.399,589.152 195.892,589.077 
		196.372,589.003 196.846,588.929 197.306,588.854 197.751,588.767 198.174,588.685 198.588,588.609 198.994,588.522 
		199.387,588.436 199.758,588.349 200.116,588.252 200.447,588.151 200.779,588.064 201.089,587.97 201.384,587.868 201.66,587.772 
		201.918,587.672 202.167,587.576 202.394,587.462 202.608,587.367 202.8,587.266 202.973,587.158 203.131,587.057 203.28,586.947 
		203.397,586.835 203.502,586.738 203.589,586.611 203.662,586.516 203.711,586.406 203.749,586.292 203.767,586.185 
		203.767,586.133 	"/>
	<line fill="none" stroke="#232323" stroke-miterlimit="10" x1="162.698" y1="539.553" x2="162.743" y2="535.403"/>
	<line fill="none" stroke="#232323" stroke-miterlimit="10" x1="162.698" y1="539.553" x2="157.452" y2="535.294"/>
	<line fill="none" stroke="#232323" stroke-miterlimit="10" x1="201.224" y1="538.693" x2="201.248" y2="535.861"/>
	<line fill="none" stroke="#232323" stroke-miterlimit="10" x1="201.224" y1="538.693" x2="162.698" y2="539.553"/>
	<polyline fill="none" stroke="#232323" stroke-miterlimit="10" points="383.529,531.375 383.651,531.487 383.761,531.597 
		383.862,531.698 383.927,531.82 383.984,531.93 384.019,532.043 384.036,532.152 384.036,532.252 384.027,532.374 383.987,532.471 
		383.939,532.598 383.87,532.692 383.778,532.807 383.674,532.916 383.552,533.023 383.407,533.138 383.25,533.234 383.071,533.347 
		382.879,533.443 382.67,533.544 382.443,533.653 382.194,533.753 381.938,533.85 381.662,533.949 381.365,534.049 381.06,534.146 
		380.99,534.158 	"/>
	<polyline fill="none" stroke="#232323" stroke-miterlimit="10" points="378.704,534.713 378.45,534.761 378.022,534.848 
		377.577,534.936 377.114,535.01 376.653,535.084 376.163,535.159 375.665,535.233 375.165,535.294 374.637,535.368 
		374.104,535.429 373.562,535.49 373.009,535.551 372.441,535.6 371.869,535.66 371.294,535.712 370.691,535.761 370.089,535.809 
		369.479,535.849 368.859,535.896 368.244,535.931 367.61,535.971 366.96,536.005 366.318,536.03 365.668,536.065 365.011,536.093 
		364.352,536.105 363.679,536.132 363.007,536.14 362.34,536.152 361.668,536.167 360.978,536.18 360.297,536.18 359.621,536.18 
		358.932,536.18 358.242,536.18 357.553,536.167 356.876,536.167 356.187,536.152 355.505,536.132 354.829,536.118 354.14,536.093 
		353.463,536.065 352.788,536.045 352.119,536.018 351.456,535.983 350.792,535.956 350.138,535.908 349.479,535.869 
		348.833,535.821 348.191,535.786 347.551,535.734 346.936,535.687 346.315,535.625 345.704,535.577 345.102,535.516 
		344.735,535.478 	"/>
	<polyline fill="none" stroke="#232323" stroke-miterlimit="10" points="342.004,535.159 341.676,535.106 341.136,535.032 
		340.616,534.957 340.105,534.875 339.607,534.801 339.124,534.713 338.644,534.626 338.19,534.544 337.745,534.457 
		337.308,534.368 336.898,534.268 336.488,534.186 336.095,534.084 335.72,533.989 335.358,533.901 335.026,533.788 
		334.695,533.692 334.611,533.666 	"/>
	<line fill="none" stroke="#232323" stroke-miterlimit="10" x1="383.402" y1="531.278" x2="383.529" y2="531.375"/>
	<polyline fill="none" stroke="#232323" stroke-miterlimit="10" points="331.139,581.575 331.139,581.637 331.174,581.75 
		331.195,581.859 331.256,581.969 331.33,582.095 331.418,582.191 331.531,582.305 331.653,582.414 331.801,582.523 
		331.958,582.636 332.137,582.745 332.329,582.847 332.553,582.954 332.784,583.068 333.033,583.178 333.289,583.277 
		333.573,583.374 333.87,583.486 334.176,583.583 334.507,583.684 334.855,583.78 335.209,583.88 335.59,583.979 335.973,584.076 
		336.384,584.164 336.802,584.261 337.23,584.348 337.676,584.435 338.139,584.521 338.609,584.604 339.102,584.691 
		339.595,584.778 340.101,584.854 340.63,584.928 341.158,585.002 341.698,585.075 342.266,585.149 342.824,585.211 
		343.409,585.284 343.985,585.346 344.583,585.408 345.188,585.455 345.796,585.516 346.421,585.577 347.048,585.63 
		347.681,585.678 348.314,585.712 348.968,585.765 349.624,585.8 350.277,585.839 350.941,585.874 351.608,585.914 352.28,585.936 
		352.953,585.961 353.63,585.988 354.314,586.009 354.991,586.035 355.681,586.048 356.355,586.058 357.045,586.07 357.739,586.07 
		358.421,586.07 359.102,586.07 359.786,586.07 360.473,586.07 361.147,586.058 361.824,586.048 362.505,586.035 363.169,586.009 
		363.831,585.996 364.498,585.974 365.15,585.948 365.805,585.922 366.459,585.9 367.092,585.861 367.725,585.826 368.352,585.787 
		368.972,585.739 369.584,585.704 370.186,585.652 370.773,585.603 371.358,585.556 371.938,585.503 372.489,585.434 
		373.049,585.381 373.589,585.319 374.13,585.259 374.645,585.185 375.152,585.11 375.657,585.05 376.138,584.976 376.604,584.888 
		377.066,584.813 377.503,584.739 377.936,584.656 378.354,584.569 378.76,584.495 379.148,584.396 379.523,584.311 
		379.869,584.226 380.213,584.124 380.54,584.042 380.855,583.94 381.146,583.84 381.423,583.745 381.68,583.644 381.924,583.549 
		382.159,583.435 382.369,583.34 382.561,583.226 382.74,583.129 382.892,583.016 383.031,582.919 383.155,582.807 383.268,582.697 
		383.354,582.588 383.425,582.476 383.477,582.379 383.512,582.252 383.529,582.157 383.529,582.104 	"/>
	<line fill="none" stroke="#232323" stroke-miterlimit="10" x1="380.978" y1="534.666" x2="381.017" y2="531.415"/>
	<line fill="none" stroke="#232323" stroke-miterlimit="10" x1="380.978" y1="534.666" x2="342.458" y2="535.525"/>
	<line fill="none" stroke="#232323" stroke-miterlimit="10" x1="342.467" y1="535.525" x2="342.488" y2="533.347"/>
	<line fill="none" stroke="#232323" stroke-miterlimit="10" x1="342.467" y1="535.525" x2="339.901" y2="533.456"/>
	<polyline fill="none" stroke="#232323" stroke-miterlimit="10" points="301.601,540.417 301.601,540.479 301.621,540.586 
		301.66,540.7 301.71,540.81 301.792,540.932 301.884,541.031 301.979,541.153 302.11,541.255 302.25,541.364 302.425,541.477 
		302.599,541.586 302.795,541.695 303.005,541.796 303.236,541.905 303.485,542.018 303.756,542.114 304.025,542.229 
		304.323,542.323 304.643,542.423 304.969,542.52 305.305,542.62 305.663,542.722 306.047,542.816 306.439,542.918 306.841,543.013 
		307.259,543.101 307.696,543.188 308.133,543.284 308.596,543.358 309.066,543.445 309.556,543.533 310.062,543.62 
		310.567,543.694 311.082,543.765 311.623,543.837 312.165,543.912 312.723,543.986 313.29,544.061 313.865,544.121 
		314.447,544.183 315.05,544.248 315.638,544.31 316.258,544.357 316.886,544.419 317.505,544.467 318.143,544.519 318.779,544.566 
		319.426,544.602 320.071,544.641 320.738,544.676 321.407,544.715 322.07,544.75 322.734,544.775 323.414,544.803 324.086,544.824 
		324.767,544.85 325.448,544.872 326.133,544.885 326.817,544.897 327.507,544.912 328.188,544.912 328.878,544.912 
		329.559,544.912 330.248,544.912 330.93,544.912 331.513,544.897 	"/>
	<polyline fill="none" stroke="#232323" stroke-miterlimit="10" points="107.591,499.968 107.166,499.968 106.486,499.955 
		105.798,499.947 105.121,499.921 104.437,499.908 103.753,499.881 103.077,499.86 102.398,499.833 101.734,499.812 
		101.062,499.773 100.404,499.746 99.745,499.711 99.085,499.664 98.445,499.624 97.805,499.576 97.166,499.527 96.541,499.475 
		95.92,499.428 95.311,499.367 94.707,499.306 94.344,499.266 	"/>
	<polyline fill="none" stroke="#232323" stroke-miterlimit="10" points="91.61,498.947 91.29,498.909 90.746,498.825 
		90.232,498.751 89.712,498.678 89.22,498.591 88.728,498.504 88.259,498.429 87.797,498.332 87.36,498.245 86.924,498.158 
		86.505,498.062 86.093,497.974 85.711,497.874 85.329,497.777 84.972,497.69 84.633,497.591 84.306,497.481 83.987,497.386 
		83.691,497.284 83.42,497.177 83.149,497.075 82.903,496.966 82.866,496.953 	"/>
	<polyline fill="none" stroke="#232323" stroke-miterlimit="10" points="80.747,545.365 80.747,545.431 80.777,545.553 
		80.808,545.649 80.863,545.775 80.944,545.885 81.031,545.98 81.136,546.107 81.264,546.204 81.406,546.316 81.571,546.426 
		81.744,546.54 81.941,546.647 82.156,546.749 82.39,546.858 82.639,546.966 82.903,547.067 83.18,547.176 83.475,547.277 
		83.788,547.372 84.123,547.474 84.46,547.573 84.816,547.67 85.193,547.77 85.586,547.865 85.995,547.967 86.407,548.054 
		86.844,548.136 87.286,548.236 87.742,548.311 88.215,548.407 88.708,548.481 89.208,548.568 89.719,548.644 90.235,548.716 
		90.773,548.791 91.313,548.865 91.875,548.939 92.436,549.014 93.014,549.074 93.591,549.136 94.197,549.196 94.794,549.258 
		95.403,549.311 96.031,549.371 96.654,549.42 97.288,549.468 97.927,549.52 98.58,549.555 99.228,549.59 99.887,549.629 
		100.551,549.664 101.216,549.702 101.888,549.725 102.56,549.764 103.235,549.776 103.921,549.799 104.603,549.826 
		105.286,549.838 105.969,549.851 106.662,549.863 107.344,549.863 108.027,549.863 108.71,549.863 109.393,549.863 
		110.084,549.863 110.755,549.851 111.439,549.838 112.11,549.826 112.782,549.812 113.448,549.791 114.11,549.776 114.765,549.751 
		115.417,549.717 116.063,549.689 116.697,549.654 117.339,549.615 117.965,549.58 118.583,549.542 119.192,549.493 119.79,549.445 
		120.381,549.393 120.971,549.346 121.544,549.296 122.104,549.236 122.659,549.174 123.199,549.109 123.743,549.049 
		124.26,548.975 124.764,548.9 125.265,548.838 125.743,548.766 126.217,548.69 126.674,548.606 127.116,548.534 127.549,548.446 
		127.967,548.359 128.367,548.285 128.755,548.201 129.131,548.102 129.481,548.014 129.827,547.917 130.146,547.83 130.46,547.73 
		130.755,547.635 131.033,547.533 131.293,547.438 131.539,547.337 131.767,547.229 131.982,547.128 132.168,547.019 
		132.347,546.919 132.499,546.81 132.648,546.709 132.77,546.6 132.875,546.487 132.967,546.378 133.03,546.264 133.084,546.167 
		133.121,546.055 133.141,545.945 133.141,545.897 	"/>
	<line fill="none" stroke="#232323" stroke-miterlimit="10" x1="106.396" y1="498.996" x2="92.065" y2="499.318"/>
	<line fill="none" stroke="#232323" stroke-miterlimit="10" x1="92.071" y1="499.318" x2="92.095" y2="496.744"/>
	<line fill="none" stroke="#232323" stroke-miterlimit="10" x1="92.071" y1="499.318" x2="88.986" y2="496.818"/>
	<line fill="none" stroke="#232323" stroke-miterlimit="10" x1="108.551" y1="248.227" x2="108.385" y2="248.227"/>
	<line fill="none" stroke="#232323" stroke-miterlimit="10" x1="186.543" y1="411.083" x2="186.961" y2="411.415"/>
	<line fill="none" stroke="#232323" stroke-miterlimit="10" x1="189.191" y1="408.486" x2="189.141" y2="408.447"/>
	<line fill="none" stroke="#232323" stroke-miterlimit="10" x1="309.838" y1="405.737" x2="309.887" y2="405.789"/>
</g>
</svg>
