<?xml version="1.0" encoding="utf-8"?>
<!-- Generator: Adobe Illustrator 16.0.0, SVG Export Plug-In . SVG Version: 6.00 Build 0)  -->
<!DOCTYPE svg PUBLIC "-//W3C//DTD SVG 1.1//EN" "http://www.w3.org/Graphics/SVG/1.1/DTD/svg11.dtd">
<svg version="1.1" id="Layer_1" xmlns="http://www.w3.org/2000/svg" xmlns:xlink="http://www.w3.org/1999/xlink" x="0px" y="0px"
	 width="540px" height="612px" viewBox="0 0 540 612" enable-background="new 0 0 540 612" xml:space="preserve">
<g>
	<path fill-rule="evenodd" clip-rule="evenodd" fill="none" stroke="#232323" stroke-miterlimit="10" d="M60.925,432.664
		c-7.65-4.144-16.247-7.355-23.878-11.514c-0.175-14.971,0.489-29.109,0.275-44.123c5.268-1.832,11.406-2.833,16.858-4.493
		c0.014-4.649,2.015-7.337,1.406-12.641c-5.466-3.697-12.789-5.564-18.264-9.269c0.12-8.079-0.356-18.077,0.561-24.436
		c4.668-2.267,10.878-2.991,16.298-4.493c0.868-1.107-0.43-4.368,0.842-5.064c2.186-2.007,5.038-0.634,7.586-0.835
		c3.26-0.271,6.899-1.664,10.396-2.532c10.186-2.548,20.825-5.287,30.907-7.861c0-9.48,0-18.924,0-28.381
		c-15.919-7.784-32.248-15.567-49.174-23.318c-4.5-2.072-13.689-4.604-15.443-8.43c-1.545-3.354-0.286-19.508-0.286-26.974
		c0-26.607,0.286-46.524,0.286-73.036c0-5.174-0.681-10.711,0.275-14.332c1.661-6.25,13.472-11.771,19.384-14.62
		c23.317-11.199,48.646-18.348,75.017-26.131c0.182-16.593-1.956-32.651,5.05-42.696c5.239-7.498,12.745-13.067,20.796-17.985
		c8.156-4.97,18.116-9.589,28.381-10.395c12.987-1.014,22.533,2.293,31.455,6.47c23.712,11.057,46.62,21.989,70.808,33.156
		c2.19,0.996,4.786,2.5,6.453,2.801c6.002,1.076,12.714,0.014,18.264,0.568c5.854,0.571,9.83,1.742,14.618,3.923
		c21.08,9.65,41.764,19.49,63.213,29.502c5.411,2.532,9.752,5.333,16.017,6.456c3.251,1.391,6.605,2.862,10.108,4.491
		c3.173,1.489,7.339,2.705,9.832,4.51c0.82,0.601,1.201,1.377,1.684,2.247c5.133,2.452,10.922,4.239,15.17,7.577
		c0.414,30.975-0.269,66.74-0.269,98.902c0,4.856,0.743,10.36-0.292,14.044c-0.981,3.497-4.522,4.034-7.023,6.457
		c0.221,35.99-0.442,71.119-0.278,107.048 M60.64,500.656 M71.318,529.306 M413.515,516.947l-0.062,16.882l-3.309,13.179
		c-23.201,5.885-47.322,11.832-70.805,17.98c-3.351,0.888-10.108,2.532-10.108,2.532l-17.7-0.835l-17.704-0.854
		c-0.259,0.188-14.045-6.171-14.045-6.171c0-2.436,0-4.87,0-7.308c-11.682,2.451-24.431,6.281-36.806,8.983 M477.324,519.576
		c-5.145-0.646-8.156-5.25-3.966-8.242c1.067-0.758,3.583-1.231,3.373-2.532c-0.272-1.583-4.274-1.295-5.899-1.678
		c-2.441-0.568-5.08-1.913-6.8-2.479 M477.291,522.847 M510.158,515.543 M510.721,497.853 M511.287,388.276 M511.002,370.021
		 M494.147,362.714 M471.675,363.268 M134.809,61.818c38.677,18.366,77.882,36.194,116.599,54.495
		c4.734-4.714,18.493-11.325,18.493-11.325c-42.122-19.109-86.277-40.308-128.348-59.465
		C137.813,49.447,135.395,54.715,134.809,61.818z M323.333,73.886c0-2.797,0-5.614,0-8.415c-6.21-2.137-15.282-2.895-23.327-2.245
		C308.034,66.532,315.533,70.359,323.333,73.886z M324.178,74.456c3.522,1.125,6.993,3.275,11.516,5.333
		c3.022,1.392,9.729,2.911,10.954,6.185c1.385,3.701-0.44,8.952,0.278,14.332c7.674-2.214,15.875-3.844,23.609-5.9
		c2.571-0.68,5.68-2.166,7.854-1.978c1.37,0.144,3.639,1.455,5.35,2.262c5.464,2.546,10.492,5.016,15.442,7.595
		c0.583,0.9,0.163,2.83,0.285,4.189c2.338,0,4.012-1.563,6.178-1.393c2.248,0.191,3.982,2.962,5.627,1.964
		c-6.615-4.383-14.098-7.024-21.358-10.393c-21.654-10.063-43.997-20.947-65.735-30.627
		C324.178,68.842,324.178,71.643,324.178,74.456z M329.231,83.728c-11.263,0.822-22.486,4.84-32.318,8.7
		c-10.164,4.019-19.838,8.479-27.809,13.493c0.022,23.715,0.064,47.458-0.278,70.809c25.97-5.412,51.058-11.691,75.852-18.272
		c0-24.25,0.485-48.025,0.285-72.482C341.185,83.583,334.681,83.331,329.231,83.728z M134.245,109.005
		c23.373,10.442,46.05,21.58,69.399,32.034c0.188-1.107-0.491-3.114,0.561-3.371c3.325,2.202,7.8,3.245,10.954,5.618
		c-1.225,3.827,1.933,3.259,2.53,5.061c0.604,1.758-0.281,6.392-0.281,9.271c0,9.729,0,20.407,0,28.934
		c1.888-0.173,3.536-0.601,5.339-0.839c0-14.792,0-29.598,0-44.389c-29.67-13.494-58.896-27.445-88.502-41.018
		C134.245,103.201,134.245,106.111,134.245,109.005z M359.012,101.983c-3.913,1.154-8.078,2.042-12.086,3.098
		c-0.119,3.15-0.418,6.123-0.278,9.542c8.288-2.373,17.393-3.957,25.28-6.739C367.498,106.049,363.354,103.927,359.012,101.983z
		 M346.647,117.169c0,13.573,0,27.147,0,40.734c9.681-2.593,19.212-5.316,28.66-8.146c0.187-12.182-0.376-25.089,0.278-36.812
		c6.861-2.783,15.783-3.512,22.476-6.471c-0.466-0.996,0.948-2.244-0.285-2.244C380.772,108.578,363.719,112.883,346.647,117.169z
		 M412.955,109.575c-2.183-1.026-6.721-3.908-8.432-3.37c-7.88,2.485-16.887,4.131-25.84,6.472
		c9.546,5.312,19.993,9.775,30.341,14.313c9.166-1.866,17.472-4.617,26.686-6.453C428.704,116.504,420.673,113.215,412.955,109.575z
		 M376.143,149.472c10.703-2.973,20.692-6.66,31.192-9.839c0-3.466,0-6.931,0-10.393c-10.367-4.716-20.544-9.618-30.906-14.317
		C376.47,126.566,376.477,138.191,376.143,149.472z M152.509,118.291c-11.973,7.769-19.918,19.616-22.47,36.795
		c1.377-0.396,2.927-0.616,4.206-1.122c2.736-15.898,10.908-26.355,21.642-34.281C154.669,119.321,153.624,118.768,152.509,118.291z
		 M409.859,129.523c0,2.99,0,5.996,0,8.984c9.756-3.446,19.397-7.006,27.812-11.782c0-1.41,0-2.816,0-4.225c-0.181,0-0.361,0-0.56,0
		C428.27,125.077,418.809,127.04,409.859,129.523z M163.466,123.337c-9.778,6.518-16.904,15.678-20.511,28.38
		c1.677-0.014,2.639-0.727,4.226-0.838c4.105-11.167,10.919-19.616,19.652-26.132C165.355,124.636,164.645,123.75,163.466,123.337z
		 M161.509,302.584c13.431,2.516,27.431,0.272,40.449-1.409c13.09-1.677,25.898-3.873,38.206-6.165
		c49.837-9.324,96.409-20.76,142.164-34.851c16.984-5.225,33.309-10.445,48.882-17.704c4.352-2.026,12.53-5.361,13.489-8.703
		c1.004-3.464,0-8.997,0-13.76c0-4.84-0.089-9.952,0-14.044c0.536-24.602,0.116-55.117,0.56-82.04
		c-0.01-0.176-0.038-0.334-0.269-0.287c-6.392,6.548-19.556,10.994-30.071,14.885c-32.591,12.103-67.124,21.722-102.263,30.059
		c-35.553,8.447-71.945,16.784-110.422,21.924c-13.08,1.74-26.828,3.719-40.456,1.391 M177.226,143.286
		c1.082-0.601,2.674-0.696,3.949-1.122c-0.184-3.736,0.211-6.897,0.276-10.393c-1.441-0.712-2.814-1.49-4.492-1.963
		C177.142,134.206,176.579,139.362,177.226,143.286z M171.903,131.771c-6.547,4.031-11.648,9.521-15.178,16.575
		c5.245-1.313,10.489-2.626,15.742-3.937C172.094,140.377,173.201,134.871,171.903,131.771z M182.012,136.832
		c2.064-0.745,4.865-0.76,6.462-1.961c-2.363-0.729-4.177-2.01-6.462-2.816C182.012,133.638,182.012,135.234,182.012,136.832z
		 M192.129,139.362c0.852,0.19,0.819-0.489,1.684-0.284c0-0.571,0-1.125,0-1.677c-0.823,0.063-0.865-0.649-1.684-0.57
		C192.129,137.668,192.129,138.507,192.129,139.362z M196.059,139.362c-27.381,7.798-59.971,14.667-88.217,22.194l8.987,4.493
		c2.655,1.251,6.058,3.149,9.27,4.207c0,0,7.8-1.881,11.523-2.813c3.923-0.966,7.695-1.694,11.231-3.086
		c-4.61-2.023-9.435-3.859-13.475-6.454c21.449-6.186,44.323-10.93,65.734-17.132C199.249,140.091,197.623,138.902,196.059,139.362z
		 M214.322,145.818c0-0.474,0-0.934,0-1.408c-2.998,0.096-5.189-0.617-7.311-1.407C207.109,146.117,212.044,145.818,214.322,145.818
		z M194.087,155.658c0.178,6.786-0.33,11.39-0.275,18.255c7.688-1.772,14.91-4.003,22.758-5.617
		c0.022-6.153-0.13-12.498,0.278-18.271c-0.186,0-0.369,0-0.563,0C209.094,152.112,201.573,153.853,194.087,155.658z
		 M142.955,295.011c0.347-37.589,0.385-73.784,0.56-110.42c-6.721-3.291-13.566-6.47-20.501-9.556c0,0.285,0,0.57,0,0.839
		c0.191,37.508-0.473,72.42-0.285,109.864 M193.812,184.02c-8.788,2.564-18.209,4.464-26.979,7.042
		c8.845,1.201,18.713-0.317,27.254-1.125C193.91,188.054,194.462,185.43,193.812,184.02z M160.655,302.03
		c-0.165-37.078,0.493-73.32,0.285-110.414c-4.532-2.5-9.468-4.576-14.33-6.757c0,0.286,0,0.571,0,0.854
		c0.166,36.874-0.491,72.926-0.278,109.848 M409.303,252.008c-0.025,22.275,0.13,44.722-0.278,66.586l14.039,7.043l-0.278,5.041
		c0,0-10.636,3.626-10.954,3.655c1.046,0.19,1.201-0.477,2.244-0.282c0.058,0.888-0.187,2.053,0.279,2.525
		c7.556,3.215,14.627,6.919,22.198,10.127c0.057-35.245,0.613-71.5,0.283-106.209C428.513,245.196,418.945,248.641,409.303,252.008z
		 M348.334,270.838c0,6.47,0,12.918,0,19.394c17.728,8.525,37.039,17.287,54.791,25.565c1.032,0.473,2.125,1.58,3.367,1.12
		c0.144-21.194,0.416-42.301,0.279-63.782c-0.188,0-0.373,0-0.564,0C387.614,259.733,368.067,265.379,348.334,270.838z
		 M342.995,272.244c-10.134,2.784-20.439,5.414-30.9,7.861c0.181,1.218-0.369,3.183,0.274,3.924
		c5.347-0.603,9.823-4.222,15.179-3.354c2.484,0.394,5.361,2.482,7.862,3.651c2.799,1.302,5.426,2.52,7.871,3.655
		C343.079,282.827,343.643,276.925,342.995,272.244z M308.725,280.959c0,1.205,0,2.422,0,3.64c0.456,0.476,1.642,0.239,2.521,0.285
		c0-1.409,0-2.801,0-4.208C310.32,280.675,309.848,281.15,308.725,280.959z M307.316,281.231
		c-7.363,1.991-15.046,3.685-22.756,5.343c0.014,1.33-1.022,2.768-0.562,3.658c3.788,0.725,7.693-1.237,11.523-2.25
		c4.115-1.09,8.298-1.861,12.354-2.813C307.568,283.983,308.539,281.516,307.316,281.231z M327.263,281.516
		c-5.229-0.777-9.933,2.749-15.168,3.367c0.33,2.202-0.233,3.51-1.411,4.222c-0.625,1.126,0.063,2.816-0.275,3.639
		c-1.267-0.757-2.64,0.252-3.092-1.389c0.729-0.826,2.221,0.599,2.246-0.573c0.474-2.629-2.36-1.942-1.687-4.778
		c-8.447,1.677-16.065,4.18-24.441,5.905c-0.608,0.978-0.285,2.892-1.405,3.367c-1.302-0.094-0.428-2.374-1.684-2.532
		c-28.485,7.291-56.996,14.556-85.695,21.64c0.188,3.277-0.363,7.312,0.286,10.122c9.039-2.668,18.746-4.683,27.812-7.321
		c-0.53-0.488-1.961-0.094-1.678-1.389c2.332-2.234,4.604-0.143,7.292,0c1.788,0.09,5.039-1.049,7.593-1.697
		c17.306-4.352,35.776-9.078,51.69-13.481c-0.758-0.265-1.931-0.123-1.684-1.402c2.894-2.214,4.959,0.146,7.306,0.282
		c3.022,0.175,7.927-2.149,11.523-3.101c12.245-3.245,24.86-5.695,35.683-8.981C335.879,286.56,332.091,282.225,327.263,281.516z
		 M276.127,288.536c-7.109,0.748-15.179,3.61-22.193,4.779c3.085,0.272,6.335-0.124,9.278,0.839
		c1.121,0.381,1.947,1.359,3.086,1.408c2.214,0.123,4.712-1.379,7.022-1.962c2.46-0.619,4.823-0.919,7.311-1.69
		c-0.113-1.013-0.366-1.884-0.573-2.804C278.856,288.018,277.535,288.393,276.127,288.536z M341.312,288.254 M349.743,291.909
		 M325.576,293.029c-43.431,10.979-86.702,22.113-130.355,32.872c20.326,10.396,41.746,19.695,62.648,29.505
		c43.544-11.247,87.793-21.786,130.919-33.444C367.476,312.565,347.188,302.144,325.576,293.029z M252.813,293.599
		c-11.598,1.425-22.988,5.472-34.56,7.861c2.064,1.962,5.559,2.503,7.86,4.209c9.817-2.357,19.372-4.986,29.224-7.291
		C255.209,296.083,254.455,294.376,252.813,293.599z M257.31,297.809c2.176-0.729,4.937-0.871,6.738-1.962
		c-2.007-0.622-4.079-1.152-6.738-1.124C257.31,295.749,257.31,296.778,257.31,297.809z M207.575,301.46
		c5.909,1.218,10.948,7.878,17.419,4.209C219.098,304.2,214.641,298.456,207.575,301.46z M201.398,302.872
		c0.521,1.639,2.959,2.655,5.054,3.653c4.414,2.071,7.929,3.366,12.363,0.835C213.54,306.077,206.817,298.864,201.398,302.872z
		 M165.71,304.277c-0.063,62.293-0.331,124.385-0.829,186.271c7.646-1.819,14.987-3.925,22.753-5.634
		c-0.214-31.57,0.451-62.277,0.276-93.838c1.515-0.729,4.099-0.396,5.057-1.674c0.022-26.96,0.712-55.623,0.56-82.043
		c-0.006-1.12,0.745-3.461-0.838-4.209C184.226,303.915,174.875,305.132,165.71,304.277z M194.65,307.647c0,1.962,0,3.921,0,5.899
		c5.608-1.344,11.254-2.613,16.577-4.226C206.429,306.512,200.615,304.77,194.65,307.647z M103.629,309.891
		c-11.678,3.216-24.033,5.764-35.404,9.273c2.166-0.288,1.754,1.991,2.817,2.798c2.26-0.11,4.276,0.035,5.614,0.854
		c0.576,0.537,0.434,1.807,0.838,2.519c8.92,3.827,17.48,8.004,26.135,12.083 M55.864,317.474c1.547,0.486,5.498,1.321,6.185-0.557
		C60.3,316.408,56.81,315.777,55.864,317.474z M255.338,367.49c2.532,0.174,8.8-1.927,12.369-2.817
		c51.194-12.704,104.829-26.62,154.233-39.338 M409.108,318.989c0.564-0.554-1.35,0.123-1.495,0.175
		c-13.663,3.781-32.585,8.098-46.643,12.083c0.68,0.33,1.83,0.24,1.972,1.123c-2.05,1.839-5.506,1.409-7.586,0
		c-19.52,5.113-39.104,10.142-59.003,14.888c-0.137,1.266,1.93,0.316,1.693,1.693c-2.736,2.324-5.235,0.097-7.587,0
		c-3.004-0.126-8.004,1.852-11.801,2.804c-11.885,2.984-25.604,6.358-36.346,9.376 M56.709,323.081
		c-0.538,0.541-0.703,0.039-1.409,0c0,0.952,0,1.885,0,2.82c1.12,0.9,4.177,1.201,5.902,0.554c-0.373-2.467,0.482-6.579,0.282-7.006
		c-1.606,0.078-0.528,2.849-0.845,4.209c-0.664-0.179-2.043,0.347-2.247-0.272c0-1.229,0-2.454,0-3.672
		c-0.981,0.227-1.075-0.407-1.972-0.265C56.44,320.744,56.305,322.186,56.709,323.081z M62.608,320.572
		c1.55,0.647,5.365,1.092,6.462-0.288C67.743,319.607,63.479,319.112,62.608,320.572z M39.854,326.189
		c11.357,5.439,25.248,11.676,37.641,17.413c2.847,1.317,9.594,5.711,12.641,5.899c1.913,0.116,4.752-1.121,7.029-1.675
		c2.247-0.569,4.765-0.9,6.465-2.244c-0.168-0.585,0.347-1.871-0.278-1.98c-2.917,0.686-5.584,1.941-8.434,2.247
		c-6.3,0.666-10.558-2.61-15.175-4.779c-6.556-3.069-13.249-6.437-19.377-9.27c-3.497-1.609-7.547-2.354-9.273-5.346
		c0.729-1.172,5.025-1.645,2.81-3.924C49.249,323.781,44.306,324.746,39.854,326.189z M67.387,322.816c0,1.314,0,2.625,0,3.943
		c-1.068-0.252-1.797,0.44-2.253,0c0-1.318,0-2.629,0-3.943c-0.563,0-1.124,0-1.687,0c0,1.123,0,2.246,0,3.373
		c-0.531,0.518-0.703,0.029-1.399,0c0,1.023,0,2.053,0,3.079c1.438,0.713,3.733,0.59,5.899,0.573
		c-0.434-2.629,0.596-6.679,0.278-7.311C68.177,322.868,67.782,322.833,67.387,322.816z M69.631,323.939
		c2.042,0.396,4.908,1.014,6.18-0.554C74.426,322.803,70.162,322.039,69.631,323.939z M75.251,325.637
		c-0.042,0.313-0.446,0.281-0.842,0.265c-0.75,1.111,0.111,3.403-0.284,4.226c-0.807-0.046-1.833,0.143-2.248-0.285
		c-0.22-1.66,0.855-4.624-1.684-3.94c0,1.218,0,2.438,0,3.655c-0.654,0.095-1.075-0.051-1.405-0.288c0,0.936,0,1.885,0,2.82
		c1.603,1.516,5.598,1.308,7.583,0.281C76.197,329.923,76.109,327.391,75.251,325.637z M194.65,338.272
		c16.208,7.007,31.6,14.842,47.76,21.909c4.335-1.395,9.347-2.068,13.491-3.655c-1.462-1.55-4.024,1.853-5.336-0.55
		c-0.2-1.143,1.4-0.476,1.684-1.124c-1.606-0.553-3.059-1.252-4.5-1.979c0.259,1.772-3.164,1.309-3.361,0.283
		c0.1-0.819,1.321-0.555,1.684-1.124c-2.577-0.344-4.235-2.862-7.033-3.082c-2.405-0.204-5.789,2.198-7.015-1.124
		c0.575-0.741,2.224-0.398,2.807-1.124c-4.002-1.437-7.466-3.398-11.241-5.062c0.375,1.631-3.383,1.519-3.375,0.271
		c-0.188-1.127,1.398-0.473,1.689-1.127c-3.93-0.741-6.404-4.315-10.398-4.487c-2.617-0.116-5.641,1.926-7.017-1.126
		c0.735-0.667,2.296-0.506,3.085-1.121c-2.894-1.029-5.393-2.474-8.146-3.652c-0.175,1.402-3.221,1.548-3.37,0
		c0.111-0.829,1.651-0.226,1.969-0.842c-1.486-0.109-2.199-0.997-3.378-1.411C194.65,331.52,194.65,334.886,194.65,338.272z
		 M60.076,330.966c0-0.567,0-1.124,0-1.697c-1.334,0.366-3.17-0.677-3.367,0.288 M66.817,334.051c0-0.554,0-1.127,0-1.681
		c-1.227,0.431-2.247-0.44-3.37,0.272 M410.987,341.07c-0.169-1.991,0.347-6.132-0.279-6.737
		C410.877,336.324,410.361,340.475,410.987,341.07z M404.809,343.035c1.756-0.476,3.678-0.806,5.336-1.395
		c-0.355-2.273,0.713-5.964-0.56-7.308c-1.576,0.489-3.48,0.647-4.776,1.407 M74.409,336.01c1.075,2.405,8.409,2.386,9.843,0.288
		C82.452,334.19,76.644,334.65,74.409,336.01z M73.562,337.152c-0.084-0.653,0.049-1.095,0.278-1.412
		c-1.097,0.017-2.712-0.301-3.646,0 M403.683,336.01c-43.722,10.429-88.254,22.447-132.609,33.157c0,2.531,0,5.063,0,7.596
		c44.372-10.982,88.383-22.308,132.609-33.445C403.683,340.882,403.683,338.461,403.683,336.01z M399.111,363.915
		c12.548,5.712,26.245,12.245,38.56,18.177c15.6-4.086,31.607-7.719,46.922-12.07 M411.831,336.298
		c-0.663,4.507,1.92,5.753,1.124,10.405c-1.162,0.524,0.796-4.652,0,0c-1.162,0.524-2.777,0.583-3.931,1.124 M81.15,339.665
		c2.332,1.632,8.241,2.104,10.109-0.269C89.034,337.625,83.015,337.418,81.15,339.665z M80.587,340.234
		c-0.702-0.048-0.078-0.944,0-1.126c-0.764,0.182-2.231-0.359-2.532,0.288 M88.183,342.764c1.865,2.011,7.55,1.696,9.829,0.271
		C97.015,340.545,89.542,340.727,88.183,342.764z M194.65,347.827c22.204,9.827,43.7,20.361,65.745,30.324
		c-0.182-1.959,0.369-4.665-0.279-6.167c-4.31,1.152-7.213-0.934-11.244-2.817c-18.127-8.509-36.353-17.399-54.222-25.277
		C194.65,345.201,194.65,346.497,194.65,347.827z M89.011,370.021c0-6.378,0-12.75,0-19.108 M82.834,370.021 M263.771,384.338
		c0.183,4.494-0.378,9.746,0.276,13.765c12.451-3.559,25.552-6.485,38.204-9.826c0,0,30.144,15.645,31.758,15.741
		c2.737,0.155,7.769-2.024,10.954-2.817c11.597-2.894,22.726-5.568,33.426-8.716c-1.774-3.399-9.538-21.07-9.538-21.07
		c13.074-3.212,25.973-6.599,39.041-9.823c-0.188-4.416,0.375-9.558-0.279-13.491C359.676,360.198,311.981,372.521,263.771,384.338z
		 M99.696,349.223c0.673,1.386,2.701,1.422,3.934,2.244C104.458,347.364,102.14,348.854,99.696,349.223z M194.65,352.603
		c22.622,10.237,44.778,20.961,67.429,31.18c0-1.121,0-2.244,0-3.368c-21.978-11.088-45.02-21.086-67.429-31.748
		C194.65,349.978,194.65,351.275,194.65,352.603z M97.728,370.856c2.214,0.117,3.988,0.699,5.902,1.128c0-6.185,0-12.368,0-18.54
		c-2.088-0.729-3.798-1.835-5.902-2.531C97.728,357.557,97.728,364.22,97.728,370.856z M56.709,366.081
		c2.182-0.677,5.772-0.33,6.459,1.409c0.097,2.801-0.058,5.361-0.282,7.86c4.374-2.658,9.943-4.111,16.017-5.06
		c-7.595-3.352-14.965-6.945-22.482-10.397C56.615,361.875,56.058,364.579,56.709,366.081z M242.702,365.246
		c4.399,1.677,8.227,3.934,12.636,5.61c0-1.12,0-2.243,0-3.366c-4.41-1.678-8.185-3.982-12.636-5.615
		C242.702,362.996,242.702,364.119,242.702,365.246z M493.587,371.146c-0.516-1.756-3.117-2.879-5.055-2.264
		c0.107,1.172-1.551,2.946-1.687,4.779 M492.464,373.107c0.125,0.554-3.68,1.389-5.618,1.677c0.144,1.726-0.324,4.079,0.277,5.346
		c4.8-0.476,9.312-0.635,14.047-1.979c3.827-1.059,12.173-4.315,8.423-8.984c-4.926-6.12-26.043-7.438-36.234-5.048
		c2.776,0.871,5.023,2.279,7.588,3.371c-0.252-3.433,5.702-2.895,7.586-1.69c0.166,0.681,0.396,1.282,0.276,2.247
		C491.582,367.931,496.17,371.116,492.464,373.107z M487.969,366.636c-1.156,1.677-5.616,0.459-6.462,0.287
		C482.646,368.072,488.121,368.218,487.969,366.636z M56.421,367.204c-0.33,0.065-0.162,0.317,0,0.555
		c1.143,0.236,4.494,0.935,4.782-0.555C60.069,366.842,57.522,366.687,56.421,367.204z M313.183,415.294
		c-8.981-4.192-21.511-10.014-30.868-14.378c-2.937-1.36-7.278-4.112-9.829-4.209c-3.219-0.143-6.754,2.584-10.121,2.247
		c-2.08-0.221-5.602-2.61-8.431-3.938c-19.86-9.253-41.841-19.284-60.598-27.935 M188.279,390.995
		c20.601,9.448,45.445,20.933,66.501,30.723c2.928,1.344,10.313,5.728,10.313,5.728 M264.611,370.856c0,2.532,0,5.051,0,7.583
		c1.825-0.224,3.231-0.887,5.054-1.123c0-2.532,0-5.048,0-7.58C267.842,369.957,266.437,370.621,264.611,370.856z M81.996,370.856
		c-5.717,0.369-20.025,2.598-19.947,8.438c0.065,4.189,6.967,5.882,10.393,6.733c9.751,2.423,21.705,2.409,30.91,0
		c-0.152-4.649,0.489-8.496,0.278-13.209C97.546,371.271,90.41,370.326,81.996,370.856z M261.24,371.698
		c0.049,2.39,0.027,4.715-0.281,6.741c0.527,0.505,1.858,0.201,2.812,0.278C263.283,375.811,265.349,369.39,261.24,371.698z
		 M410.145,391.364c2.258,5.395,9.724,20.392,9.724,20.392c-30.095,6.702-61.009,15.42-90.637,22.599
		c3.883-8.392,7.793-16.752,11.241-25.577c-24.816,5.633-50.484,12.834-75.861,18.823c-0.266,30.836-0.072,62.125-0.563,92.714
		c73.994-18.425,147.658-37.2,221.389-55.9c0.357-30.643,0.062-61.932,0.563-92.43C461.353,377.964,434.619,384.294,410.145,391.364
		z M56.709,373.661c-0.846-0.654-0.846,0.016,0,0.285c1.816,0.248,5.637-0.27,5.053-0.558
		C60.377,373.771,58.48,373.661,56.709,373.661z M39.569,377.316c7.269,3.131,14.174,6.628,21.356,9.839
		c0.142-2.292,0.411-4.465,0.278-7.025c-3.348-0.143-7.239,0.427-7.865-1.979c-0.57-2.179,1.448-2.007,1.399-4.49
		C50.072,374.153,44.241,375.892,39.569,377.316z M55.586,376.475c2.065,0.553,4.785,0.857,6.462-0.282
		c-0.168-0.589,0.34-1.852-0.286-1.962c-1.385,1.03-4.985,0.618-6.462,0C55.184,375.195,55.411,375.798,55.586,376.475z
		 M378.39,392.484c13.659,5.728,27.378,13.271,40.718,18.381c-3.264-5.333-6.042-13.809-8.963-19.501
		c-13.521-5.87-26.938-13.4-40.52-19.219L378.39,392.484z M458.468,471.613c0,0-0.366,8.102,0.553,10.789
		c2.033,5.821,12.149,5.582,18.553,7.291c0,10.865,0,21.731,0,32.587c6.105,0.411,12.189,0.288,18.546-0.835
		c4.749-0.843,12.128-2.344,13.474-6.459c1.226-3.733,0.286-11.767,0.286-17.134c0-41.235,0.784-84.789,0.219-124.573
		 M486.285,465.537 M486.561,380.117 M61.763,381.807c0.279,39.328-0.56,83.099-0.56,123.34c0,5.093-1.11,13.89,0.282,17.7
		c1.14,3.137,6.653,4.67,10.393,5.621c4.614,1.185,9.5,1.926,14.019,1.608c-0.129-0.375-0.255-20.989-0.255-20.989
		c35.042,15.897,69.351,32.541,104.516,48.329 M113.459,469.192c-3.18-1.694-7.987-3.167-10.393-5.621
		c0.133-25.525,0.417-50.903,0.285-76.701 M112.058,491.099 M101.088,496.449 M86.496,497.853 M85.641,498.693 M60.925,397.83
		c-0.56-2.813,1.492-8.256-1.972-8.143C56.748,392.09,59.082,398.688,60.925,397.83z M58.393,415.53
		c1.004-0.025,1.623-0.439,2.532-0.566c0-4.303,0-8.622,0-12.925c-1.046-0.172-1.648-0.793-2.532-1.123
		C58.393,405.785,58.393,410.661,58.393,415.53z M58.393,416.372c0,1.123,0,2.247,0,3.368c0.689,0.617,1.519,1.106,2.532,1.41
		C60.837,418.367,61.776,414.41,58.393,416.372z M199.429,434.089c-3.134,0.978-8.062,2.626-7.863,6.453
		c0.175,3.467,6.202,5.759,10.107,6.737c9.834,2.468,20.906,2.483,30.626,0c3.847-0.962,10.259-2.927,10.111-7.006
		c-0.146-4.242-8.955-6.372-12.07-7.026c-5.773-1.23-12.767-1.482-17.99-1.12C208.09,432.412,203.833,432.697,199.429,434.089z
		 M191.566,441.938c-0.017-0.305-0.36-0.224-0.282,0.278c0.252,38.966-0.563,83.071-0.563,122.772l0.286,17.704
		c1.01,2.882,6.714,4.986,10.392,5.905c13.326,3.336,34.161,2.387,40.18-5.905c0.097-15.846,0.563-29.441,0.563-44.673
		c0-32.097,0.35-63.99,0.269-95.804 M113.459,475.93c2.697-0.966,6.297-1.014,8.434-2.516c-1.521-1.581-5.688-2.943-8.434-4.222
		C113.459,471.438,113.459,473.686,113.459,475.93z M121.045,474.806c-2.318,0.871-4.982,1.396-7.585,1.979c0,1.299,0,2.613,0,3.921
		c2.998-0.375,5.332-1.424,8.149-1.975C121.297,477.543,122.263,475.095,121.045,474.806z M421.662,491.099
		c1.964,0.129,6.196-1.467,9.269-2.243c6.954-1.756,11.377-3.009,18.549-4.776c2.71-0.667,8.007-1.519,8.415-2.798
		c1.228-3.719-7.771-4.26-8.975-6.187c-11.3,2.654-22.367,5.532-33.439,8.431c0,1.583,0,3.179,0,4.775
		C416.84,488.396,419.561,490.975,421.662,491.099z M141.831,485.2c-7.815-1.134-14.838-2.676-19.103-7.293
		c-0.013-0.301-0.355-0.239-0.275,0.266c0.585,4.495,6.453,7.059,11.231,8.438c7.078,2.036,14.642,2.372,21.917,1.955
		C151.946,486.216,147.164,485.977,141.831,485.2z M120.767,481.548c-1.858-0.807-5.083,1.819-7.019,1.978
		c6.277,2.008,12.39,8.428,19.937,4.205C129.768,486.261,124.739,483.289,120.767,481.548z M457.895,482.668
		c-13.893,3.892-28.466,7.122-42.414,10.963c0.188,1.224-0.366,3.179,0.285,3.942c14.852-4.066,30.078-7.755,45.234-11.519
		C460.659,485.345,458.84,483.714,457.895,482.668z M113.184,488.301c1.771-0.11,3.279-0.472,4.494-1.12
		c-1.729-0.353-2.694-1.44-4.494-1.694C113.184,486.416,113.184,487.353,113.184,488.301z M182.575,488.016
		c2.926,0.823,5.092,2.406,7.868,3.371c0-1.124,0-2.265,0-3.371C188.292,486.493,184.789,486.293,182.575,488.016z M329.231,567.521
		 M409.108,547.166l1.14-60.62c-26.445,6.611-55.216,13.983-81.751,20.501 M135.379,489.424c-2.794,0.854-5.831,1.474-8.719,2.244
		c-3.779-3.001-8.289-3.396-13.476-1.405c-2.114,4.714-7.925,5.743-13.217,7.311c2.856,0.359,5.171,3.478,8.438,3.652
		c2.461,0.11,7.188-1.726,10.393-2.532c8.716-2.2,17.639-4.71,25.85-6.754c1.574-0.382,4.073-0.193,4.769-1.961
		c-4.329-1.095-9.904-0.965-14.038-2.248C135.379,488.301,135.379,488.855,135.379,489.424z M180.612,488.016
		c-2.027,1.062-5.284,0.903-7.025,2.247c5.789,2.337,10.963,5.316,16.856,7.59c0-1.781,0-3.556,0-5.342
		C187.195,490.991,184.031,489.36,180.612,488.016z M190.934,500.465c-3.206-1.425-6.803-3.525-10.322-5.158
		c-2.421-1.106-7.971-4.363-10.392-4.487c-2.302-0.116-4.484,1.658-6.754,1.403c-2.202-0.238-3.737-2.132-5.893-2.529
		c-1.616-0.285-6.55-0.208-7.311,0.569c0,0.188,0,0.362,0,0.557c13.185,6.295,27.346,12.984,40.797,19.012 M477.427,491.26
		c-20.739,5.603-42.885,10.853-63.912,16.137c0,3.18,0,6.372,0,9.551c21.294-5.024,42.881-10.836,64.188-15.851 M190.157,510.764
		 M190.157,540.269c-25.786-11.801-54.394-24.933-80.913-37.365c-6.939-3.257-12.038-6.87-20.501-3.922
		c34.057,15.356,67.405,31.461,101.414,46.898 M327.739,567.287c0.084-19.853-0.152-40.736,0.369-60.163
		c0,0-22.534,4.986-34.002,7.008c0,5.808,0,11.629,0,17.418c4.346,0.175,8.858,0.158,12.646,0.854c0,4.491,0,8.988,0,13.476
		l-12.646,2.531l-0.279,16.577 M280.905,517.519c-5.71,1.314-12.167,2.99-17.694,4.493c-6.669-3.276-14.128-6.484-20.772-9.774
		 M280.905,517.519c0,2.421,0,4.868,0,7.294c4.103,1.608,7.813,3.622,11.803,5.345c-0.195-5.156,0.369-11.056-0.285-15.741
		C288.829,515.699,284.6,516.332,280.905,517.519z M85.641,517.835c0,1.218,0,2.421,0,3.639c4.827-1.077,11.215-2.58,15.738-3.955
		C97.339,514.183,90.808,516.634,85.641,517.835z M271.168,529.954c-9.089-3.746-19.728-9.335-28.599-13.292 M86.02,526.027
		c0,0.854,0,1.695,0,2.531c6.456-1.23,17.901-4.287,24.172-5.695c0-0.741,0-1.498,0-2.244
		C103.969,521.804,92.042,525.573,86.02,526.027z M260.033,532.738c-5.514-2.243-12.414-5.76-17.846-8.098 M242.977,534.081
		 M284.328,526.79c-11.461,3.181-30.166,7.369-42.142,10.503c0,1.298,0,2.623,0,3.925c14.984-4.021,32.959-7.645,47.458-12.148
		 M294.106,531.55c-16.332,4.448-35.608,9.144-51.92,13.336c0,1.312,0,2.627,0,3.922c20.819-5.11,43.896-10.646,64.417-16.069
		 M160.94,191.616L41.388,133.429c0,0-2.95-1.61,0.845-6.801 M126.099,170.256l91.157-21.989 M103.993,353.917l-0.082-76.895
		l58.13,25.814 M340.901,408.46l-38.649-20.184 M251.408,116.313v64.021l-28.66,5.379v-44.389l-88.502-41.018l-0.275-10.124
		 M486.688,371.129l-48.731-23.871 M279.782,552.353l14.324-3.941 M212.827,439.088c-6.453,1.392,1.14,2.23,3.52,2.23
		c3.464,0,6.265-0.553,6.265-1.252c0-0.693-2.571-1.108-2.571-1.108 M221.805,433.959c0-0.692-2.438-1.242-5.442-1.242
		c-3.005,0-5.443,0.55-5.443,1.242c0,0.699,2.438,1.25,5.443,1.25C219.367,435.209,221.805,434.658,221.805,433.959z
		 M213.587,441.108l-2.508-6.955 M221.727,434.153l-2.43,6.8 M83.235,379.353c-6.452,1.396,1.14,2.23,3.522,2.23
		c3.465,0,6.262-0.547,6.262-1.246s-2.568-1.107-2.568-1.107 M92.214,374.23c0-0.699-2.435-1.249-5.442-1.249
		c-3.005,0-5.44,0.55-5.44,1.249c0,0.696,2.435,1.25,5.44,1.25C89.779,375.48,92.214,374.927,92.214,374.23z M83.997,381.379
		l-2.506-6.961 M92.136,374.418l-2.429,6.806 M326.826,293.269l61.182,28.298 M329.112,293.994c0,0,2.208-2.61,5.119-1.056
		c1.709,0.9-0.451,3.257-0.451,3.257 M335.633,297.161c0,0,2.205-2.61,5.116-1.062c1.709,0.903-0.454,3.263-0.454,3.263
		 M380.785,317.752c0,0,1.474-1.754,3.412-0.712c1.137,0.605-0.303,2.173-0.303,2.173 M385.131,319.86c0,0,1.47-1.739,3.415-0.713
		c1.14,0.599-0.3,2.18-0.3,2.18 M347.519,302.743c0,0,2.816-3.354,6.537-1.373c2.172,1.149-0.583,4.17-0.583,4.17 M373.06,314.385
		c0,0,2.817-3.335,6.542-1.359c2.175,1.152-0.585,4.16-0.585,4.16 M362.444,309.309c0,0,1.852-2.202,4.297-0.9
		c1.431,0.758-0.383,2.732-0.383,2.732"/>
</g>
</svg>
