<?xml version="1.0" encoding="utf-8"?>
<!-- Generator: Adobe Illustrator 16.0.0, SVG Export Plug-In . SVG Version: 6.00 Build 0)  -->
<!DOCTYPE svg PUBLIC "-//W3C//DTD SVG 1.1//EN" "http://www.w3.org/Graphics/SVG/1.1/DTD/svg11.dtd">
<svg version="1.1" id="Layer_1" xmlns="http://www.w3.org/2000/svg" xmlns:xlink="http://www.w3.org/1999/xlink" x="0px" y="0px"
	 width="432px" height="612px" viewBox="0 0 432 612" enable-background="new 0 0 432 612" xml:space="preserve">
<g>
	<path fill="none" stroke="#232323" stroke-miterlimit="10" d="M106.312,485.811h62.675c0,0,4.842-1.608,0,6.148
		c-4.841,7.756-10.017,17.115-10.017,17.115h141.834l-11.299-20.026c0,0-3.887-3.878,3.217-3.878h61.392v85.931
		c0,0,0.973,3.244-4.196,3.244H108.574c0,0-2.58,0.977-2.58-5.489C105.994,562.385,106.312,485.811,106.312,485.811z"/>
	<polyline fill="none" stroke="#232323" stroke-miterlimit="10" points="139.59,574.337 139.59,587.906 171.575,587.906 
		171.575,574.337 	"/>
	<polyline fill="none" stroke="#232323" stroke-miterlimit="10" points="214.225,574.337 214.225,587.906 246.212,587.906 
		246.212,574.337 	"/>
	<polyline fill="none" stroke="#232323" stroke-miterlimit="10" points="288.852,574.663 288.852,587.906 320.512,587.906 
		320.512,574.663 	"/>
	<polyline fill="none" stroke="#232323" stroke-miterlimit="10" points="354.114,566.904 384.485,566.904 384.485,485.651 	"/>
	<g>
		<path fill="none" stroke="#232323" stroke-miterlimit="10" d="M354.114,552.368c0,0,2.263,0.976,2.263,4.199v4.532l-2.263,2.58"/>
	</g>
	<polyline fill="none" stroke="#232323" stroke-miterlimit="10" points="356.059,554.952 382.216,554.952 384.478,552.689 	"/>
	<g>
		<path fill="none" stroke="#232323" stroke-miterlimit="10" d="M354.114,551.401c0,0,14.859,6.792,30.036,0"/>
		<path fill="none" stroke="#232323" stroke-miterlimit="10" d="M384.478,485.811h7.6c0,0,2.735-0.485,2.735,2.107v73.337
			c0,0,0,2.433-2.415,2.433h-7.92l-2.572-2.588v-5.83"/>
	</g>
	<line fill="none" stroke="#232323" stroke-miterlimit="10" x1="356.377" y1="561.1" x2="381.897" y2="561.1"/>
	<g>
		<path fill="none" stroke="#232323" stroke-miterlimit="10" d="M192.9,508.756v-29.402c0,0-1.298-1.932,2.58-1.932h70.757
			c0,0,1.299,0.314,1.299,3.221v28.432"/>
	</g>
	<line fill="none" stroke="#232323" stroke-miterlimit="10" x1="137.964" y1="486.465" x2="137.964" y2="476.128"/>
	<line fill="none" stroke="#232323" stroke-miterlimit="10" x1="322.455" y1="485.496" x2="322.455" y2="475.794"/>
	<polyline fill="none" stroke="#232323" stroke-miterlimit="10" points="137.009,447.37 323.419,447.37 323.419,475.794 
		140.234,475.794 137.009,475.794 137.009,447.37 	"/>
	<g>
		<path fill="none" stroke="#232323" stroke-miterlimit="10" d="M137.328,355.297h185.127c0,0,1.608,0,1.608,2.583
			c0,2.585-0.311,3.561-0.311,3.561s0.311,0.959-4.539,0.959H159.297h-21.005c0,0-1.944,0-1.944-3.551
			C136.348,357.22,136.03,355.606,137.328,355.297z"/>
	</g>
	<line fill="none" stroke="#232323" stroke-miterlimit="10" x1="162.849" y1="426.368" x2="297.58" y2="426.368"/>
	<line fill="none" stroke="#232323" stroke-miterlimit="10" x1="297.58" y1="362.399" x2="297.58" y2="447.37"/>
	<line fill="none" stroke="#232323" stroke-miterlimit="10" x1="304.354" y1="362.727" x2="304.354" y2="447.37"/>
	<polyline fill="none" stroke="#232323" stroke-miterlimit="10" points="162.522,433.152 297.58,433.152 304.354,433.152 	"/>
	<line fill="none" stroke="#232323" stroke-miterlimit="10" x1="155.746" y1="362.399" x2="155.746" y2="447.697"/>
	<line fill="none" stroke="#232323" stroke-miterlimit="10" x1="162.849" y1="362.399" x2="162.849" y2="447.37"/>
	<line fill="none" stroke="#232323" stroke-miterlimit="10" x1="155.746" y1="433.316" x2="162.693" y2="433.316"/>
	<line fill="none" stroke="#232323" stroke-miterlimit="10" x1="158.645" y1="433.479" x2="158.645" y2="362.55"/>
	<line fill="none" stroke="#232323" stroke-miterlimit="10" x1="159.942" y1="362.399" x2="159.942" y2="433.152"/>
	<line fill="none" stroke="#232323" stroke-miterlimit="10" x1="162.693" y1="430.573" x2="297.58" y2="430.573"/>
	<line fill="none" stroke="#232323" stroke-miterlimit="10" x1="163.012" y1="428.952" x2="297.407" y2="428.952"/>
	<line fill="none" stroke="#232323" stroke-miterlimit="10" x1="300.642" y1="433.152" x2="300.642" y2="362.248"/>
	<line fill="none" stroke="#232323" stroke-miterlimit="10" x1="301.947" y1="362.55" x2="301.947" y2="433.002"/>
	<line fill="none" stroke="#232323" stroke-miterlimit="10" x1="299.359" y1="354.974" x2="299.359" y2="362.248"/>
	<line fill="none" stroke="#232323" stroke-miterlimit="10" x1="311.467" y1="355.297" x2="311.467" y2="362.248"/>
	<line fill="none" stroke="#232323" stroke-miterlimit="10" x1="311.467" y1="358.035" x2="323.9" y2="358.035"/>
	<line fill="none" stroke="#232323" stroke-miterlimit="10" x1="311.467" y1="359.329" x2="324.063" y2="359.329"/>
	<line fill="none" stroke="#232323" stroke-miterlimit="10" x1="299.188" y1="357.88" x2="236.193" y2="357.88"/>
	<line fill="none" stroke="#232323" stroke-miterlimit="10" x1="299.359" y1="359.488" x2="236.015" y2="359.488"/>
	<line fill="none" stroke="#232323" stroke-miterlimit="10" x1="236.193" y1="355.297" x2="236.193" y2="362.248"/>
	<line fill="none" stroke="#232323" stroke-miterlimit="10" x1="223.907" y1="355.133" x2="223.907" y2="362.248"/>
	<line fill="none" stroke="#232323" stroke-miterlimit="10" x1="160.914" y1="355.297" x2="160.914" y2="362.399"/>
	<line fill="none" stroke="#232323" stroke-miterlimit="10" x1="148.634" y1="355.297" x2="148.634" y2="362.081"/>
	<line fill="none" stroke="#232323" stroke-miterlimit="10" x1="136.348" y1="357.88" x2="148.634" y2="357.88"/>
	<line fill="none" stroke="#232323" stroke-miterlimit="10" x1="136.519" y1="359.488" x2="148.479" y2="359.488"/>
	<line fill="none" stroke="#232323" stroke-miterlimit="10" x1="161.077" y1="357.88" x2="223.907" y2="357.88"/>
	<line fill="none" stroke="#232323" stroke-miterlimit="10" x1="160.914" y1="359.329" x2="223.907" y2="359.329"/>
	<g>
		<path fill="none" stroke="#232323" stroke-miterlimit="10" d="M75.779,551.564c0,0,10.344,5.481,30.207,0.155"/>
	</g>
	<polyline fill="none" stroke="#232323" stroke-miterlimit="10" points="75.624,552.213 77.87,554.463 77.87,561.092 
		75.779,563.189 75.779,567.072 105.815,567.072 	"/>
	<polyline fill="none" stroke="#232323" stroke-miterlimit="10" points="75.779,563.353 75.779,542.771 74.808,542.771 
		74.808,485.644 	"/>
	<polyline fill="none" stroke="#232323" stroke-miterlimit="10" points="77.87,561.255 103.725,561.255 105.994,563.517 	"/>
	<polyline fill="none" stroke="#232323" stroke-miterlimit="10" points="103.888,561.255 103.888,554.463 105.994,552.371 	"/>
	<line fill="none" stroke="#232323" stroke-miterlimit="10" x1="78.041" y1="554.634" x2="103.725" y2="554.634"/>
	<g>
		<path fill="none" stroke="#232323" stroke-miterlimit="10" d="M74.808,485.651H67.86c0,0-2.417-0.314-2.417,2.755v72.362
			c0,0-0.163,2.748,2.581,2.748h7.592"/>
	</g>
	<polyline fill="none" stroke="#232323" stroke-miterlimit="10" points="67.86,485.496 65.443,485.496 65.443,265.644 
		86.76,265.644 	"/>
	<polyline fill="none" stroke="#232323" stroke-miterlimit="10" points="65.281,270.003 116.158,270.003 116.158,265.316 
		95.169,265.316 	"/>
	<line fill="none" stroke="#232323" stroke-miterlimit="10" x1="72.391" y1="270.003" x2="72.391" y2="485.811"/>
	<polyline fill="none" stroke="#232323" stroke-miterlimit="10" points="105.668,270.003 105.668,482.912 118.591,482.912 
		118.591,263.855 	"/>
	<line fill="none" stroke="#232323" stroke-miterlimit="10" x1="116.158" y1="263.692" x2="116.158" y2="265.961"/>
	<line fill="none" stroke="#232323" stroke-miterlimit="10" x1="117.939" y1="482.912" x2="117.939" y2="485.811"/>
	<polyline fill="none" stroke="#232323" stroke-miterlimit="10" points="87.405,263.774 87.405,264.508 86.523,264.508 
		86.523,266.443 82.082,266.443 82.082,269.754 	"/>
	<polyline fill="none" stroke="#232323" stroke-miterlimit="10" points="94.442,263.692 94.442,264.353 95.079,264.353 
		95.079,266.61 99.773,266.61 99.773,269.93 	"/>
	<line fill="none" stroke="#232323" stroke-miterlimit="10" x1="86.449" y1="266.529" x2="95.079" y2="266.529"/>
	<line fill="none" stroke="#232323" stroke-miterlimit="10" x1="87.405" y1="264.59" x2="94.516" y2="264.59"/>
	<g>
		<path fill="none" stroke="#232323" stroke-miterlimit="10" d="M189.34,263.692H63.337c0,0-1.698,0.661-1.698-2.58v-93.686
			c0,0-0.245-1.147,2.098-1.216c2.343-0.084,96.523-0.084,96.523-0.084"/>
		<path fill="none" stroke="#232323" stroke-miterlimit="10" d="M61.558,200.213H42.666c0,0-1.126,0-1.126-1.935v-51.772
			c0,0-0.172-1.375,1.926-1.375h31.661c0,0,1.372-0.324,1.461,2.257c0.074,2.586,0,9.778,0,9.778"/>
	</g>
	<line fill="none" stroke="#232323" stroke-miterlimit="10" x1="47.744" y1="145.048" x2="47.744" y2="200.213"/>
	<polyline fill="none" stroke="#232323" stroke-miterlimit="10" points="61.802,151.106 67.305,151.106 67.305,157.082 	"/>
	<line fill="none" stroke="#232323" stroke-miterlimit="10" x1="67.542" y1="162.818" x2="67.542" y2="166.21"/>
	<line fill="none" stroke="#232323" stroke-miterlimit="10" x1="61.802" y1="145.048" x2="61.802" y2="166.93"/>
	<line fill="none" stroke="#232323" stroke-miterlimit="10" x1="61.893" y1="157.409" x2="160.195" y2="157.409"/>
	<line fill="none" stroke="#232323" stroke-miterlimit="10" x1="61.893" y1="162.575" x2="160.261" y2="162.575"/>
	<g>
		<path fill="none" stroke="#232323" stroke-miterlimit="10" d="M189.831,124.129c-3.397-0.486-25.04,1.293-27.618,1.457
			c-2.581,0.153-1.952,1.616-1.952,1.616s-0.163,34.885-0.163,37.55c0,2.666,0.727,19.069,2.115,27.709
			c1.371,8.641,4.669,26.162,9.936,37.795c5.232,11.638,10.254,22.218,12.67,26.17c2.433,3.967,2.262,4.041,3.723,6.147
			c1.445,2.099,1.518,2.099,4.359,1.935c2.833-0.163,77.044,0,77.044,0s0.4,0.478,1.616-1.22
			c1.217-1.689,8.972-13.552,14.458-27.292c5.504-13.731,10.9-30.697,12.206-41.6c1.282-10.906,2.009-21.484,2.009-35.46
			c0-13.973,0.072-31.977,0.072-31.977s0.336-1.221-1.354-1.374c-1.699-0.164-21.488-1.296-28.199-1.457"/>
		<path fill="none" stroke="#232323" stroke-miterlimit="10" d="M205.897,264.427c0,0-6.058-18.981-7.919-28.676
			c-1.854-9.682-6.376-33.599-7.348-48.784c-0.971-15.177-0.971-17.769-0.882-19.385c0.082-1.608,0.082-1.852,1.29-1.943
			c1.2-0.074,78.342,0,78.342,0s1.461-0.398,1.371,1.788c-0.073,2.169-1.444,27.86-2.416,35.207
			c-0.972,7.36-4.768,30.056-5.747,34.571c-0.956,4.531-5.56,22.14-6.286,24.385c-0.736,2.266-1.054,2.837-1.054,2.837"/>
		<path fill="none" stroke="#232323" stroke-miterlimit="10" d="M190.958,165.648c0,0-1.298,0.069-1.209-1.861
			c0.082-1.943,0.082-150.147,0.082-150.147s0.326-0.89,1.935-0.89h77.942c0,0,1.045,0.082,1.045,1.694v112.592v36.585
			c0,0,0.262,1.781-0.71,2.026"/>
	</g>
	<polyline fill="none" stroke="#232323" stroke-miterlimit="10" points="270.752,102.965 273.186,102.965 273.186,119.285 
		270.842,119.285 	"/>
	<polyline fill="none" stroke="#232323" stroke-miterlimit="10" points="273.324,104.021 274.148,104.021 274.148,104.102 
		274.148,105.631 273.079,105.631 	"/>
	<polyline fill="none" stroke="#232323" stroke-miterlimit="10" points="273.332,107.817 274.23,107.817 274.23,109.429 
		273.104,109.429 	"/>
	<polyline fill="none" stroke="#232323" stroke-miterlimit="10" points="273.186,112.821 274.312,112.821 274.312,114.756 
		273.504,114.756 	"/>
	<polyline fill="none" stroke="#232323" stroke-miterlimit="10" points="273.186,116.701 274.557,116.701 274.557,118.319 
		273.332,118.319 	"/>
	<path fill="none" stroke="#232323" stroke-miterlimit="10" d="M214.861,264.508l3.642,15.753c0,0,0.408,1.612,3.878,1.612"/>
	<line fill="none" stroke="#232323" stroke-miterlimit="10" x1="222.381" y1="264.427" x2="222.381" y2="289.711"/>
	<line fill="none" stroke="#232323" stroke-miterlimit="10" x1="238.202" y1="264.508" x2="238.202" y2="289.784"/>
	<line fill="none" stroke="#232323" stroke-miterlimit="10" x1="222.381" y1="287.531" x2="238.202" y2="287.531"/>
	<g>
		<path fill="none" stroke="#232323" stroke-miterlimit="10" d="M238.301,281.881h2.407c0,0,1.29,0.151,1.618-1.702
			c0.334-1.87,3.232-15.671,3.232-15.671"/>
	</g>
	<line fill="none" stroke="#232323" stroke-miterlimit="10" x1="215.833" y1="268.452" x2="222.372" y2="268.452"/>
	<line fill="none" stroke="#232323" stroke-miterlimit="10" x1="238.301" y1="268.452" x2="244.677" y2="268.452"/>
	<polygon fill="none" stroke="#232323" stroke-miterlimit="10" points="216.56,289.784 243.77,289.784 243.77,303.925 
		216.633,303.925 	"/>
	<polyline fill="none" stroke="#232323" stroke-miterlimit="10" points="222.78,308.366 222.78,319.677 237.639,319.677 
		237.639,308.439 	"/>
	<polyline fill="none" stroke="#232323" stroke-miterlimit="10" points="218.185,304.006 218.185,308.439 242.326,308.439 
		242.326,303.925 	"/>
	<line fill="none" stroke="#232323" stroke-miterlimit="10" x1="227.337" y1="319.681" x2="227.337" y2="320.212"/>
	<line fill="none" stroke="#232323" stroke-miterlimit="10" x1="233.934" y1="319.751" x2="233.934" y2="320.277"/>
	<polyline fill="none" stroke="#232323" stroke-miterlimit="10" points="224.944,320.277 235.532,320.277 235.532,321.951 
		224.944,321.951 224.879,320.335 	"/>
	<line fill="none" stroke="#232323" stroke-miterlimit="10" x1="228.242" y1="322.073" x2="228.242" y2="325.188"/>
	<line fill="none" stroke="#232323" stroke-miterlimit="10" x1="232.242" y1="322.073" x2="232.242" y2="325.114"/>
	<polyline fill="none" stroke="#232323" stroke-miterlimit="10" points="228.879,325.049 225.663,325.049 225.663,327.438 
		229.019,327.438 229.019,330.474 231.346,330.474 231.606,327.642 	"/>
	<polyline fill="none" stroke="#232323" stroke-miterlimit="10" points="231.476,325.114 234.766,325.114 234.766,327.575 
		231.654,327.575 	"/>
	<line fill="none" stroke="#232323" stroke-miterlimit="10" x1="225.523" y1="325.698" x2="207.18" y2="325.698"/>
	<line fill="none" stroke="#232323" stroke-miterlimit="10" x1="225.523" y1="326.861" x2="207.245" y2="326.861"/>
	<line fill="none" stroke="#232323" stroke-miterlimit="10" x1="234.83" y1="325.567" x2="253.388" y2="325.567"/>
	<line fill="none" stroke="#232323" stroke-miterlimit="10" x1="234.83" y1="326.861" x2="253.388" y2="326.861"/>
	<line fill="none" stroke="#232323" stroke-miterlimit="10" x1="229.662" y1="330.548" x2="229.662" y2="349.283"/>
	<line fill="none" stroke="#232323" stroke-miterlimit="10" x1="230.569" y1="330.612" x2="230.569" y2="349.283"/>
	<line fill="none" stroke="#232323" stroke-miterlimit="10" x1="228.364" y1="324.338" x2="232.12" y2="324.338"/>
	<path fill="none" stroke="#232323" stroke-miterlimit="10" d="M230.267,327.865c0.801,0,1.438-0.608,1.438-1.355
		c0-0.771-0.637-1.367-1.438-1.367c-0.783,0-1.421,0.596-1.421,1.367C228.846,327.257,229.483,327.865,230.267,327.865z"/>
	<path fill="none" stroke="#232323" stroke-miterlimit="10" d="M230.21,326.637c0.188,0,0.334-0.146,0.334-0.318
		c0-0.188-0.146-0.326-0.334-0.326c-0.18,0-0.327,0.139-0.327,0.326C229.883,326.49,230.03,326.637,230.21,326.637z"/>
	<path fill="none" stroke="#232323" stroke-miterlimit="10" d="M230.08,350.554c0.334,0,0.579-0.27,0.579-0.584
		c0-0.335-0.245-0.597-0.579-0.597c-0.32,0-0.581,0.262-0.581,0.597C229.499,350.284,229.76,350.554,230.08,350.554z"/>
	<path fill="none" stroke="#232323" stroke-miterlimit="10" d="M253.959,326.898c0.343,0,0.62-0.372,0.62-0.82
		c0-0.438-0.277-0.812-0.62-0.812c-0.344,0-0.629,0.375-0.629,0.812C253.33,326.526,253.615,326.898,253.959,326.898z"/>
	<path fill="none" stroke="#232323" stroke-miterlimit="10" d="M206.493,327.086c0.474,0,0.85-0.352,0.85-0.78
		c0-0.428-0.376-0.771-0.85-0.771c-0.456,0-0.841,0.344-0.841,0.771C205.652,326.734,206.037,327.086,206.493,327.086z"/>
	<path fill="none" stroke="#232323" stroke-miterlimit="10" d="M230.153,302.022c0.922,0,1.681-0.747,1.681-1.69
		c0-0.927-0.759-1.682-1.681-1.682c-0.932,0-1.698,0.755-1.698,1.682C228.455,301.275,229.222,302.022,230.153,302.022z"/>
	<path fill="none" stroke="#232323" stroke-miterlimit="10" d="M230.602,251.197c7.152,0,12.965-5.805,12.965-12.96
		s-5.812-12.969-12.965-12.969c-7.16,0-12.965,5.813-12.965,12.969S223.441,251.197,230.602,251.197z"/>
	<path fill="none" stroke="#232323" stroke-miterlimit="10" d="M271.087,263.863L271.087,263.863h126.469
		c0,0,1.143,0.959,1.143-3.873v-92.726c0,0,0.328-0.969-2.743-0.969h-95.797"/>
	<line fill="none" stroke="#232323" stroke-miterlimit="10" x1="300.323" y1="156.921" x2="389.654" y2="156.921"/>
	<line fill="none" stroke="#232323" stroke-miterlimit="10" x1="300.323" y1="162.74" x2="389.654" y2="162.74"/>
	<polyline fill="none" stroke="#232323" stroke-miterlimit="10" points="389.645,166.295 389.645,153.849 394.82,153.849 
		394.82,165.973 	"/>
	<line fill="none" stroke="#232323" stroke-miterlimit="10" x1="341.999" y1="263.692" x2="341.999" y2="485.178"/>
	<polyline fill="none" stroke="#232323" stroke-miterlimit="10" points="344.261,263.863 344.261,269.836 354.753,269.836 
		354.753,482.904 351.045,482.904 351.045,485.012 	"/>
	<polyline fill="none" stroke="#232323" stroke-miterlimit="10" points="354.753,270.003 394.82,270.003 394.82,265.464 
		378.02,265.464 	"/>
	<polyline fill="none" stroke="#232323" stroke-miterlimit="10" points="361.055,269.836 361.055,265.464 378.02,265.464 
		378.02,269.836 	"/>
	<line fill="none" stroke="#232323" stroke-miterlimit="10" x1="369.292" y1="265.464" x2="369.292" y2="269.836"/>
	<line fill="none" stroke="#232323" stroke-miterlimit="10" x1="363.479" y1="263.692" x2="363.479" y2="265.464"/>
	<line fill="none" stroke="#232323" stroke-miterlimit="10" x1="375.587" y1="263.863" x2="375.587" y2="265.636"/>
	<line fill="none" stroke="#232323" stroke-miterlimit="10" x1="385.578" y1="270.003" x2="385.578" y2="485.651"/>
	<polyline fill="none" stroke="#232323" stroke-miterlimit="10" points="394.657,270.003 394.657,485.337 388.201,485.496 	"/>
	<line fill="none" stroke="#232323" stroke-miterlimit="10" x1="344.424" y1="265.636" x2="361.055" y2="265.636"/>
	<path fill="none" stroke="#232323" stroke-miterlimit="10" d="M369.619,311.55c5.649,0,10.222-4.572,10.222-10.221
		c0-5.629-4.572-10.197-10.222-10.197c-5.642,0-10.214,4.567-10.214,10.197C359.405,306.978,363.978,311.55,369.619,311.55z"/>
	<path fill="none" stroke="#232323" stroke-miterlimit="10" d="M369.864,463.078c5.502,0,9.977-4.462,9.977-9.969
		c0-4.648-4.475-9.979-9.977-9.979c-5.511,0-9.978,4.473-9.978,9.979S364.354,463.078,369.864,463.078z"/>
	<path fill="none" stroke="#232323" stroke-miterlimit="10" d="M90.965,463.233c5.649,0,10.221-4.568,10.221-10.205
		c0-5.638-4.571-10.213-10.221-10.213c-5.642,0-10.214,4.575-10.214,10.213C80.751,458.665,85.323,463.233,90.965,463.233z"/>
	<path fill="none" stroke="#232323" stroke-miterlimit="10" d="M90.965,312.031c5.992,0,10.866-4.85,10.866-10.85
		c0-6.001-4.874-10.862-10.866-10.862c-6.001,0-10.859,4.861-10.859,10.862C80.106,307.182,84.963,312.031,90.965,312.031z"/>
</g>
</svg>
