<?xml version="1.0" encoding="utf-8"?>
<!-- Generator: Adobe Illustrator 16.0.0, SVG Export Plug-In . SVG Version: 6.00 Build 0)  -->
<!DOCTYPE svg PUBLIC "-//W3C//DTD SVG 1.1//EN" "http://www.w3.org/Graphics/SVG/1.1/DTD/svg11.dtd">
<svg version="1.1" id="Layer_1" xmlns="http://www.w3.org/2000/svg" xmlns:xlink="http://www.w3.org/1999/xlink" x="0px" y="0px"
	 width="288px" height="612px" viewBox="0 0 288 612" enable-background="new 0 0 288 612" xml:space="preserve">
<g>
	<g>
		<path fill="none" stroke="#232323" stroke-miterlimit="10" d="M92.984,217.243c0,0,0.46-48.735,0.7-53.155
			c0.239-4.439,0.462-12.377,19.118-17.021c18.657-4.658,49.896-7.697,73.454,0.463c13.738,5.36,17.715,9.097,17.478,21.678
			c-0.22,12.598,0.101,48.035,0.101,48.035"/>
		<path fill="none" stroke="#232323" stroke-miterlimit="10" d="M93.444,175.967c0,0-19.955-9.08-10.26-22.839
			c8.639-10.788,31.955-15.62,44.297-16.796c-0.22,2.099-0.22,3.14,1.639,3.738c-18.179,4.319-20.86,4.421-32.517,11.18
			c-13.298,8.859-3.04,18.436-3.04,18.436"/>
		<path fill="none" stroke="#232323" stroke-miterlimit="10" d="M80.385,161.049l0.241-8.621c0,0,0.46-4.898,3.037-7.477
			c2.562-2.542,7.921-11.881,44.058-17.241c0,5.121-0.223,8.398-0.223,8.398"/>
		<path fill="none" stroke="#232323" stroke-miterlimit="10" d="M86.462,141.931c0,0-0.237-19.699,42.318-22.499
			c3.02,0.46,3.38,1.28,3.38,3.602c0,2.339,0.459,5.018-2.458,4.796c-1.281-0.239-1.862-0.239-1.862-0.239"/>
		<path fill="none" stroke="#232323" stroke-miterlimit="10" d="M83.185,145.429c0,0-7.338-8.739,4.081-18.538
			c6.657-4.899,16.899-10.157,40.575-13.758c0.701-5.479,4.32-21.919,21.562-22.739c7.355,0.582,19.596,5.139,20.996,22.977
			c11.18,1.502,25.417,3.604,37.997,12.701c2.44,1.759,12.118,10.379,5.24,18.879c2.218,4.217,3.736,9.56,1.297,19.357
			c-2.457,4.677-5.718,7.357-11.198,10.84"/>
		<path fill="none" stroke="#232323" stroke-miterlimit="10" d="M213.53,144.951c0,0-7.459-12.461-43.133-17.121
			c0,5.122,0.339,8.501,0.339,8.501s26.459,2.338,39.757,13.638c3.037,2.339,5.957,5.361,5.359,9.68"/>
		<path fill="none" stroke="#232323" stroke-miterlimit="10" d="M170.855,136.332c0,0-0.458,0.939,1.981,1.279
			c2.441,0.342,20.52,2.92,30.778,9.1c7,4.438,12.477,8.398,11.896,15.158"/>
		<path fill="none" stroke="#232323" stroke-miterlimit="10" d="M170.736,136.81c0,0,2.461,3.481-1.52,3.14
			c-0.34-5.14-0.461-11.54-0.461-11.54l1.642-0.701"/>
		<path fill="none" stroke="#232323" stroke-miterlimit="10" d="M169.217,139.83c0,0-1.739,0.581,2.102,1.161
			c3.739,0.598,19.356,3.26,28.574,9.338c6.521,4.898,12.34,11.657,3.841,19.356"/>
		<path fill="none" stroke="#232323" stroke-miterlimit="10" d="M168.756,128.173c0,0,1.162-0.702-1.4-0.939
			c-2.558-0.223-1.62-1.86-1.516-3.483c0.116-1.639-0.582-3.858,2.576-3.976c0-3.74,0.223-15.842-10.019-20.059
			c-10.278-4.062-22.055-1.98-26.238,6.539c-1.98,3.498-3.261,6.64-2.918,13.178"/>
		<path fill="none" stroke="#232323" stroke-miterlimit="10" d="M170.514,113.474l0.463,1.059c0,0,25.18,2.201,38.476,13.519
			c3.022,3.039,7.803,8.057,5.599,14.578"/>
		<path fill="none" stroke="#232323" stroke-miterlimit="10" d="M168.416,119.774c0,0,21.215,2.337,31.7,9.917
			c8.057,5.837,8.754,8.041,9.559,11.437"/>
		<path fill="none" stroke="#232323" stroke-miterlimit="10" d="M80.744,138.908c0,0,0.582-13.075,0.701-14.475
			c0.118-1.399,0.341-4.762,0-8.859c-0.241-4.183-0.82-8.86,1.86-11.88c2.678-3.04,11.318-14.118,36.256-18.42
			c22.616-3.499,35.096-3.039,52.454-0.836c17.379,2.458,32.539,8.756,38.138,14.697c5.582,5.958,5.582,6.999,5.699,18.777
			c0.119,11.778,0.119,20.877,0.119,20.877"/>
		<path fill="none" stroke="#232323" stroke-miterlimit="10" d="M97.764,92.258l2.799-44.878c0,0,0.579-6.879,10.139-11.659
			c9.559-4.779,16.098-6.657,19.699-6.657c3.158,0.836,4.438,1.757,4.438,5.838V47.26"/>
		<path fill="none" stroke="#232323" stroke-miterlimit="10" d="M129.36,29.2c0,0-1.16,4.541-1.639,6.761
			c-0.459,2.201-1.52,3.379-2.439,4.658c-0.701,2.101-2.681,6.282-0.36,6.282c2.34,0,3.619,0.479,4.781,0.837
			c1.177,0.341,3.38,0,6.877-0.599c3.501-0.58,16.218-1.382,26.819,0.599c3.618,0.563,4.66,0,5.818-0.701
			c1.181-0.717,2.118-0.136,3.278,0c1.16,0.103,1.981-0.478,0.923-3.619c-1.042-3.157-2.562-3.038-3.141-5.717
			c-0.582-2.681-0.701-7.46-1.742-7.919c-1.058-0.48-5.257-1.18-5.837,1.98c0,3.721,0.119,15.618,0.119,15.618"/>
		<path fill="none" stroke="#232323" stroke-miterlimit="10" d="M165.84,29.2c0,0,16.914,1.518,25.895,10.601
			c3.959,4.438,4.422,3.739,5.24,16.439c0.818,12.717,2.441,36.154,2.441,36.154"/>
		<path fill="none" stroke="#232323" stroke-miterlimit="10" d="M141.718,75.598c0,0,9.798,1.74,14.798-0.24"/>
		<path fill="none" stroke="#232323" stroke-miterlimit="10" d="M143.338,77.577c0,0,5.258-2.34,10.961,0.459"/>
		<path fill="none" stroke="#232323" stroke-miterlimit="10" d="M149.059,79.573c4.83,0,8.755-3.892,8.755-8.705
			c0-4.796-3.925-8.706-8.755-8.706c-4.831,0-8.756,3.91-8.756,8.706C140.302,75.681,144.228,79.573,149.059,79.573z"/>
		<path fill="none" stroke="#232323" stroke-miterlimit="10" d="M217.032,239.041c0.818-1.981-0.239-3.142-0.702-4.899
			c-13.178-16.796-47.574-20.057-70.892-19.579c-23.316,0.461-40.335,4.438-52.796,9.081c-11.675,5.139-12.376,12.598-12.376,12.598
			l-0.341,3.857c0,0-2.799-5.478,0.341-9.677c1.059-3.978,4.319-10.379,15.518-14.339c11.179-3.978,32.518-9.679,67.851-8.057
			c22.379,2.578,40.561,7.818,46.159,12.837c5.599,5.001,6.298,6.76,6.759,8.978c1.059,2.902,2.1,6.06,0.479,9.321
			c-0.239,10.958-0.239,36.716-0.239,36.716s3.72,3.381,0,10.038c0.239,11.539,0.699,48.137,0.699,48.137s2.34,2.92,0.939,8.739
			c-0.122,5.379,0.921,7.597-1.997,11.199c-0.924,3.96-2.324,3.96-2.441,5.957c0,2.202,0.239,44.637,0.239,44.637"/>
		<path fill="none" stroke="#232323" stroke-miterlimit="10" d="M80.385,230.3c0,0,4.9-11.198,29.498-15.857
			c24.599-4.661,42.436-4.779,60.631-2.799c18.182,2.799,32.639,5.359,42.779,13.877c1.86,1.862,3.157,4.081,3.157,4.081"/>
		<path fill="none" stroke="#232323" stroke-miterlimit="10" d="M217.032,285.557c0,0,2.56-6.401-8.281-11.42
			c-10.837-5.019-29.616-11.078-58.993-11.437c-17.256,0-35.674,1.878-53.514,7.699c-7.921,2.918-16.66,6.179-16.541,14.578
			c0,0-6.656-7.579,7.801-15.38c13.401-6.897,28.201-10.278,47.916-11.079c19.699-0.819,38.356,0.221,57.715,4.66
			c12.461,3.38,20.396,7.801,23.537,12.699"/>
	</g>
	<line fill="none" stroke="#232323" stroke-miterlimit="10" x1="79.926" y1="239.859" x2="79.465" y2="276.356"/>
	<g>
		<path fill="none" stroke="#232323" stroke-miterlimit="10" d="M79.687,284.977l-1.161,49.896c0,0-1.759,1.758-0.239,7.117
			c0.118,5.36-0.119,9.201,2.098,11.301c0.701,3.723,0.701,4.778,1.862,6.06c-0.103,5.839-0.223,44.776-0.223,44.776"/>
		<path fill="none" stroke="#232323" stroke-miterlimit="10" d="M78.646,327.994c0,0,1.518-10.722,22.838-15.16
			c21.218-3.96,43.033-7.22,72.53-3.499c28.099,4.199,41.738,10.977,43.356,16.32"/>
		<path fill="none" stroke="#232323" stroke-miterlimit="10" d="M78.646,334.872c0,0,2.322-14.697,58.055-16.899
			c33.799-1.177,68.194,2.1,80.67,16.318"/>
		<path fill="none" stroke="#232323" stroke-miterlimit="10" d="M78.287,342.108c0,0-0.119-10.496,18.317-14.356
			c18.418-3.841,23.539-6.161,49.896-6.28c24.237,0.803,51.53,1.979,64.935,11.54c4.199,3.26,7.696,5.701,7.101,9.438"/>
		<path fill="none" stroke="#232323" stroke-miterlimit="10" d="M80.385,353.188c0,0-1.621-8.178,8.399-12.256
			c10.02-4.08,27.739-8.979,48.036-9.319c20.279-0.36,50.715,0.8,68.075,8.398c5.599,2.679,13.179,6.639,11.436,14.101"/>
		<path fill="none" stroke="#232323" stroke-miterlimit="10" d="M213.993,360.05c-0.463-6.76-21.679-12.119-39.178-14.338
			c-17.479-2.22-46.052-0.581-66.213,2.098c-20.159,2.682-26.459,11.422-26.459,11.422s-2.337-6.181,6.521-9.901
			c8.858-3.738,32.997-10.14,53.396-10.498c20.277,0,72.396,3.276,72.751,18.775"/>
		<path fill="none" stroke="#232323" stroke-miterlimit="10" d="M137.519,462.061c-20.877-1.861-30.896-6.301-33.577-8.501
			c-1.638-2.221-22.156-38.237-22.156-38.237l-1.161-2.218c0,0-0.819-1.761-0.582-3.621c0.223-1.859,0-4.66,3.842-6.641
			c3.857-1.995,16.096-9.455,46.977-10.838c30.897-1.416,55.732,0.579,71.353,6.06c8.056,3.021,12.816,5.819,13.654,8.74
			c0.802,2.919,0.924,5.258-0.938,8.159c-1.862,2.918-21.798,37.196-21.798,37.196s0.236,6.178-34.174,9.678"/>
		<path fill="none" stroke="#232323" stroke-miterlimit="10" d="M104.643,454.021c0,0-5.139-4.661,5.717-7.82
			c10.841-3.142,22.601-5.002,40.917-4.421c18.299,0.582,47.437,3.843,41.617,11.198"/>
		<path fill="none" stroke="#232323" stroke-miterlimit="10" d="M137.739,456.698c0,0-25.057-3.022-5.939-8.618
			c8.16-1.282,23.66-2.34,35.338,1.041c5.58,1.759,9.779,4.9-8.161,7.817"/>
		<path fill="none" stroke="#232323" stroke-miterlimit="10" d="M80.267,411.823c0,0-1.16-3.5,5.258-6.539
			c6.417-3.021,30.316-9.9,55.136-10.138c24.836-0.239,76.832,3.497,75.192,17.479"/>
		<path fill="none" stroke="#232323" stroke-miterlimit="10" d="M154.538,467.776c4.539-0.579,4.2-2.916,4.2-2.916
			s0.222-7.7,0.222-10.619c0-2.902-1.043-3.142-3.483-3.721c-2.458-0.581-7.238-0.698-12.717-0.239
			c-5.479,0.479-5.12,3.039-5.12,3.039v11.42c0,0,0.222,2.56,4.659,2.92"/>
		<path fill="none" stroke="#232323" stroke-miterlimit="10" d="M142.76,450.179l0.119,12.344c0,0,0,1.757-2.439,1.994
			c-2.459,0.224-1.998-0.578-2.1-1.994c-0.121-1.4,0-10.722,0-10.722"/>
		<path fill="none" stroke="#232323" stroke-miterlimit="10" d="M142.878,459.959c0,0,0,3.963,1.162,3.963
			c1.179,0,2.695,0.236,2.695-2.323v-11.54"/>
		<path fill="none" stroke="#232323" stroke-miterlimit="10" d="M146.722,461.958c0,0,0.596,1.98,3.396,1.98
			c2.781,0,3.72-0.361,3.72-2.919v-10.738"/>
		<path fill="none" stroke="#232323" stroke-miterlimit="10" d="M153.837,462.061c0,0-0.339,1.739,1.163,1.979
			c1.517,0.24,1.637-0.239,1.637-2.44c0-2.221,0.12-10.838,0.12-10.838"/>
		<path fill="none" stroke="#232323" stroke-miterlimit="10" d="M156.517,463.461c0,0,1.52,3.736,2.222,1.516"/>
		<path fill="none" stroke="#232323" stroke-miterlimit="10" d="M139.96,467.3c0,0-3.482-2.439,3.158-3.021
			c6.64-0.58,18.536,0,13.639,2.918"/>
		<path fill="none" stroke="#232323" stroke-miterlimit="10" d="M152.2,467.197V466.6c-0.121-1.381-4.183-1.16-4.183-1.16
			s-3.978-0.699-3.86,1.86c-1.755,0.477-3.258-0.562-3.258,8.861c-0.12,9.455-0.239,14.113,0.938,17.616
			c1.041,4.077,1.623,7.459,2.32,8.276c0.94-0.698,2.219-0.817,3.621-0.817c1.399,0,4.199-0.46,3.96,0.921
			c1.059-3.362,3.14-11.644,3.14-11.644s0.24-1.757,0.122-4.199c-0.122-2.457,0.236-17.255,0.236-17.255s0.462-1.399-3.498-1.642
			c-3.96-0.221-7.46-0.118-7.46-0.118"/>
		<path fill="none" stroke="#232323" stroke-miterlimit="10" d="M141.358,491.095c0,0-0.458-1.279,1.999-1.398
			c2.424-0.118,11.54-1.281,11.42,1.621"/>
		<path fill="none" stroke="#232323" stroke-miterlimit="10" d="M144.278,502.054v62.257c0,0-0.222,1.501,0.819,1.859
			c1.279-0.358,5.48-0.699,6.299,0.358c0.342-1.758,0.223-2.457,0.223-3.857s0.119-60.617,0.119-60.617"/>
		<path fill="none" stroke="#232323" stroke-miterlimit="10" d="M148.068,578.887c3.397,0,6.145-2.919,6.145-6.539
			s-2.747-6.536-6.145-6.536c-3.396,0-6.146,2.916-6.146,6.536S144.672,578.887,148.068,578.887z"/>
		<path fill="none" stroke="#232323" stroke-miterlimit="10" d="M99.436,206.369c2.972,0.477,6.249-4.643,7.323-11.419
			c1.076-6.778-0.46-12.65-3.431-13.128c-2.97-0.46-6.247,4.644-7.324,11.42C94.929,200.019,96.467,205.891,99.436,206.369z"/>
		<path fill="none" stroke="#232323" stroke-miterlimit="10" d="M198.186,206.728c2.988-0.394,4.677-6.213,3.773-13.025
			c-0.888-6.793-4.029-11.999-7.017-11.607c-2.988,0.393-4.678,6.231-3.772,13.041C192.059,201.931,195.198,207.121,198.186,206.728
			z"/>
	</g>
</g>
</svg>
