<?xml version="1.0" encoding="utf-8"?>
<!-- Generator: Adobe Illustrator 16.0.0, SVG Export Plug-In . SVG Version: 6.00 Build 0)  -->
<!DOCTYPE svg PUBLIC "-//W3C//DTD SVG 1.1//EN" "http://www.w3.org/Graphics/SVG/1.1/DTD/svg11.dtd">
<svg version="1.1" id="Layer_1" xmlns="http://www.w3.org/2000/svg" xmlns:xlink="http://www.w3.org/1999/xlink" x="0px" y="0px"
	 width="792px" height="612px" viewBox="0 0 792 612" enable-background="new 0 0 792 612" xml:space="preserve">
<g>
	<path fill="none" stroke="#232323" stroke-miterlimit="10" d="M396.893,413.496c12.75,0,23.098-10.343,23.098-23.097
		c0-12.775-10.348-23.118-23.098-23.118c-12.763,0-23.106,10.343-23.106,23.118C373.786,403.153,384.129,413.496,396.893,413.496z"
		/>
	<path fill="none" stroke="#232323" stroke-miterlimit="10" d="M397.27,433.622c23.239,0,42.092-19.496,42.092-43.511
		c0-24.046-18.853-43.538-42.092-43.538c-23.24,0-42.077,19.492-42.077,43.538C355.192,414.126,374.029,433.622,397.27,433.622z"/>
	<path fill="none" stroke="#232323" stroke-miterlimit="10" d="M397.646,420.625c16.684,0,30.205-13.36,30.205-29.836
		s-13.521-29.836-30.205-29.836c-16.67,0-30.186,13.36-30.186,29.836S380.976,420.625,397.646,420.625z"/>
	<path fill="none" stroke="#232323" stroke-miterlimit="10" d="M397.076,453.091c0,0-43.709-0.391-48.308-0.391
		c-4.613,0-97.016-3.456-110.45-5.742"/>
	<path fill="none" stroke="#232323" stroke-miterlimit="10" d="M345.312,452.7c0,0-23.009-20.317-28.376-39.108
		c-5.364-18.786-6.899-26.477-6.143-41.809c0.779-15.332,12.275-45.63,29.154-57.531"/>
	<path fill="none" stroke="#232323" stroke-miterlimit="10" d="M339.558,452.313c0,0-15.709-4.212-24.156-29.521
		c-8.431-25.31-11.511-43.705-4.221-75.541c5.754-21.487,18.021-31.05,21.477-32.218"/>
	<path fill="none" stroke="#232323" stroke-miterlimit="10" d="M274.361,408.994l-22.999-57.531c0,0-3.831-12.654,8.433-14.942
		c12.264-1.924,34.143-6.156,34.143-6.156s15.322-2.286,12.643,13.823c-3.456,17.253-7.68,33.729-3.078,57.141
		c-0.378,9.587-4.602,10.343-8.422,11.874c-3.846,1.534-8.443,2.313-9.977,2.313C283.561,415.516,277.062,415.88,274.361,408.994z"
		/>
	<path fill="none" stroke="#232323" stroke-miterlimit="10" d="M282.038,404.006l-22.633-54.077c0,0-1.92-2.678,2.3-3.454
		c4.223-0.757,31.066-5.352,31.066-5.352s4.221-2.314,2.311,5.738c-1.92,8.06-6.145,30.691-2.703,51.765
		c0.392,4.208-0.753,4.989-3.064,5.38c-2.287,0.39-5.355,1.144-5.355,1.144S282.427,405.93,282.038,404.006z"/>
	<line fill="none" stroke="#232323" stroke-miterlimit="10" x1="251.363" y1="351.1" x2="258.652" y2="348.396"/>
	<line fill="none" stroke="#232323" stroke-miterlimit="10" x1="259.405" y1="336.884" x2="259.405" y2="346.861"/>
	<polyline fill="none" stroke="#232323" stroke-miterlimit="10" points="306.582,344.188 295.46,341.123 295.072,330.364 	"/>
	<line fill="none" stroke="#232323" stroke-miterlimit="10" x1="292.379" y1="402.081" x2="303.126" y2="400.938"/>
	<line fill="none" stroke="#232323" stroke-miterlimit="10" x1="291.626" y1="403.225" x2="295.46" y2="412.425"/>
	<line fill="none" stroke="#232323" stroke-miterlimit="10" x1="283.193" y1="405.539" x2="286.249" y2="415.126"/>
	<line fill="none" stroke="#232323" stroke-miterlimit="10" x1="274.751" y1="408.994" x2="282.038" y2="404.759"/>
	<path fill="none" stroke="#232323" stroke-miterlimit="10" d="M238.318,334.597c0,0,69.796-14.188,86.284-13.432"/>
	<path fill="none" stroke="#232323" stroke-miterlimit="10" d="M234.486,331.143c0,0,69.029-14.941,92.805-16.109
		c6.523,0,16.111-0.367,26.465-3.85c10.721-0.753,36.811-1.529,43.32-1.529"/>
	<path fill="none" stroke="#232323" stroke-miterlimit="10" d="M329.981,446.57c0,0-79.396-3.066-87.44-4.992"/>
	<path fill="none" stroke="#232323" stroke-miterlimit="10" d="M228.73,455.015c0,0,112.749,8.419,168.346,8.031"/>
	<path fill="none" stroke="#232323" stroke-miterlimit="10" d="M216.854,463.824c0,0,103.151,8.056,180.223,7.666"/>
	<path fill="none" stroke="#232323" stroke-miterlimit="10" d="M210.708,466.498c0,0,113.894,8.836,141.503,8.836"/>
	<path fill="none" stroke="#232323" stroke-miterlimit="10" d="M209.177,466.888l2.299,29.521c0,0,10.356,5.012,26.076,4.234
		c15.721-0.777,27.622-4.234,28.767-5.77v-2.677"/>
	<path fill="none" stroke="#232323" stroke-miterlimit="10" d="M397.076,495.656c-74.396,2.286-140.346-3.846-160.279-4.603
		c-19.943-0.777-18.799-5.742-18.799-5.742l0.755-9.224c0,0,1.534-3.431,7.677-3.431c6.134,0,75.93,6.886,129.238,4.966h41.408"/>
	<line fill="none" stroke="#232323" stroke-miterlimit="10" x1="225.663" y1="467.668" x2="225.663" y2="472.657"/>
	<line fill="none" stroke="#232323" stroke-miterlimit="10" x1="217.609" y1="484.144" x2="211.087" y2="492.588"/>
	<g>
		<path fill="none" stroke="#232323" stroke-miterlimit="10" d="M211.855,491.444c0,0,13.042,4.965,42.185,0.753"/>
	</g>
	<polyline fill="none" stroke="#232323" stroke-miterlimit="10" points="345.312,478.398 345.312,495.656 347.613,492.978 
		345.312,489.521 351.835,489.133 354.899,492.197 354.899,479.934 352.588,478.008 	"/>
	<line fill="none" stroke="#232323" stroke-miterlimit="10" x1="397.076" y1="492.978" x2="347.613" y2="492.978"/>
	<line fill="none" stroke="#232323" stroke-miterlimit="10" x1="355.279" y1="480.323" x2="397.09" y2="480.323"/>
	<line fill="none" stroke="#232323" stroke-miterlimit="10" x1="351.835" y1="477.623" x2="351.835" y2="489.133"/>
	<g>
		<path fill="none" stroke="#232323" stroke-miterlimit="10" d="M224.131,322.333c0,0,82.828-19.177,139.97-21.489"/>
		<path fill="none" stroke="#232323" stroke-miterlimit="10" d="M209.565,314.643c0,0,82.451-19.177,137.669-23.751"/>
		<path fill="none" stroke="#232323" stroke-miterlimit="10" d="M156.648,310.041c0,0,2.675-5.352,10.341-7.664
			c7.678-2.312,25.31-6.912,27.608-8.811c2.313-1.922,8.823-13.821,13.045-14.187c4.221-0.39,12.277,1.144,18.787,6.132
			c0,0,56.375-14.188,61.353-16.111c4.989-1.922,26.855-16.476,29.908-21.853"/>
	</g>
	<g>
		<path fill="none" stroke="#232323" stroke-miterlimit="10" d="M201.511,311.184c0,0-0.779,3.85,8.054-10.34
			c4.587-6.522,7.288-14.942,18.774-12.266c4.224,1.923,17.644,12.266,21.479,12.266c3.845,0,27.61-2.677,34.142-4.988
			c6.523-2.289,31.82-13.409,40.642-30.3"/>
		<path fill="none" stroke="#232323" stroke-miterlimit="10" d="M226.82,285.512c0,0,6.133-0.389,14.566,4.989
			c8.445,5.354,15.344,9.2,15.344,9.2"/>
	</g>
	<path fill="none" stroke="#232323" stroke-miterlimit="10" d="M199.587,285.901l-5.365-118.127c0,0-1.922-3.457,4.211-4.989
		c6.144-1.534,15.72-7.666,41.419-3.433c12.667,1.534,9.979,8.809,10.367,14.189c0.366,5.353,5.743,104.304,5.743,104.304"/>
	<line fill="none" stroke="#232323" stroke-miterlimit="10" x1="228.354" y1="285.512" x2="223.754" y2="204.985"/>
	<g>
		<path fill="none" stroke="#232323" stroke-miterlimit="10" d="M193.832,164.951c0,0,8.433,20.613,11.889,25.771
			c3.456,5.135,6.899,15.43,19.942,14.236c3.067-0.779,8.446-1.167,15.723-19.006c5.744-13.069,8.056-21.393,8.056-21.393"/>
	</g>
	<path fill="none" stroke="#232323" stroke-miterlimit="10" d="M397.174,307.074c45.324,0,82.073-36.091,82.073-80.625
		c0-44.512-36.749-80.602-82.073-80.602c-45.328,0-82.063,36.089-82.063,80.602C315.111,270.983,351.846,307.074,397.174,307.074z"
		/>
	<path fill="none" stroke="#232323" stroke-miterlimit="10" d="M397.27,275.242c26.637,0,48.211-21.245,48.211-47.431
		c0-26.209-21.574-47.457-48.211-47.457c-26.635,0-48.22,21.248-48.22,47.457C349.049,253.998,370.634,275.242,397.27,275.242z"/>
	<path fill="none" stroke="#232323" stroke-miterlimit="10" d="M397.845,266.797c22.508,0,40.75-18.057,40.75-40.348
		c0-22.293-18.242-40.351-40.75-40.351c-22.488,0-40.73,18.057-40.73,40.351C357.115,248.74,375.356,266.797,397.845,266.797z"/>
	<path fill="none" stroke="#232323" stroke-miterlimit="10" d="M397.27,253.461c14.141,0,25.603-11.463,25.603-25.626
		c0-14.163-11.462-25.626-25.603-25.626c-14.139,0-25.589,11.464-25.589,25.626C371.68,241.999,383.13,253.461,397.27,253.461z"/>
	<path fill="none" stroke="#232323" stroke-miterlimit="10" d="M328.06,183.13c0,0-3.848-1.534,3.832-9.977
		c7.667-8.445,26.843-31.444,65.185-31.079"/>
	<path fill="none" stroke="#232323" stroke-miterlimit="10" d="M324.602,188.483"/>
	<path fill="none" stroke="#232323" stroke-miterlimit="10" d="M469.937,189.238"/>
	<path fill="none" stroke="#232323" stroke-miterlimit="10" d="M375.611,213.428c0,0-1.534-20.709,21.465-22.267"/>
	<path fill="none" stroke="#232323" stroke-miterlimit="10" d="M321.537,195.005c0,0,1.155-29.519,10.744-42.952
		c9.589-13.409,24.909-37.966,64.796-37.966"/>
	<path fill="none" stroke="#232323" stroke-miterlimit="10" d="M322.303,185.417c0,0-2.336-32.732,23.398-54.83
		c24.544-21.098,44.866-19.954,51.375-19.954"/>
	<path fill="none" stroke="#232323" stroke-miterlimit="10" d="M179.266,473.119c44.317,0,80.238-36.6,80.238-81.769
		c0-45.168-35.921-81.769-80.238-81.769c-44.303,0-80.234,36.601-80.234,81.769C99.031,436.52,134.963,473.119,179.266,473.119z"/>
	<path fill="none" stroke="#232323" stroke-miterlimit="10" d="M180.033,438.61c25.88,0,46.873-21.417,46.873-47.846
		c0-26.404-20.993-47.82-46.873-47.82c-25.893,0-46.871,21.416-46.871,47.82C133.162,417.193,154.14,438.61,180.033,438.61z"/>
	<path fill="none" stroke="#232323" stroke-miterlimit="10" d="M178.999,432.089c22.56,0,40.861-18.668,40.861-41.689
		c0-23.043-18.301-41.71-40.861-41.71c-22.57,0-40.86,18.667-40.86,41.71C138.139,413.421,156.429,432.089,178.999,432.089z"/>
	<path fill="none" stroke="#232323" stroke-miterlimit="10" d="M180.605,415.979c13.933,0,25.213-11.024,25.213-24.628
		c0-13.606-11.28-24.631-25.213-24.631c-13.919,0-25.211,11.024-25.211,24.631C155.394,404.954,166.686,415.979,180.605,415.979z"/>
	<path fill="none" stroke="#232323" stroke-miterlimit="10" d="M163.157,410.138c0,0-19.177-2.287-19.177-20.321
		c0.39-7.275,8.822-21.854,21.099-18.399"/>
	<path fill="none" stroke="#232323" stroke-miterlimit="10" d="M168.146,349.929c0,0,35.287,0,39.107,39.107
		c-0.753,12.292-2.676,32.999-34.508,42.202"/>
	<path fill="none" stroke="#232323" stroke-miterlimit="10" d="M178.5,473.023c0,0-50.229,3.454-73.239-41.032
		c-8.445-15.721-14.967-40.25-8.822-60.961c6.132-20.711,5.365-14.966,6.508-18.424h2.678l1.924-4.211l-1.146-2.288
		c0,0,29.143-47.186,83.984-36.066"/>
	<path fill="none" stroke="#232323" stroke-miterlimit="10" d="M138.236,464.967l-29.92-3.063c0,0-31.441-6.526-47.553-39.868
		c-16.099-33.361-7.278-67.114,20.721-93.181c0,0,20.698-19.957,63.653-14.966"/>
	<path fill="none" stroke="#232323" stroke-miterlimit="10" d="M115.993,462.678c0,0-44.486-9.197-55.608-54.074
		c-3.455-16.499-6.132-44.096,18.412-72.083c9.588-8.833,28.754-22.241,50.242-23.021"/>
	<path fill="none" stroke="#232323" stroke-miterlimit="10" d="M397.453,313.036c9.601,0,26.467,1.145,46.783,1.921
		c23.79,19.934,30.692,46.023,31.459,61.743c0.388,51.375-32.226,70.549-32.226,70.549l-46.017,1.171l-46.398-1.462
		c0,0-32.599-19.177-32.209-70.576c0.768-15.695,7.678-41.785,31.456-61.739c20.308-0.754,37.186-1.896,46.774-1.896"/>
	<path fill="none" stroke="#232323" stroke-miterlimit="10" d="M397.453,453.385c0,0,43.72-0.367,48.318-0.367
		c4.622,0,97.029-3.454,110.45-5.769"/>
	<path fill="none" stroke="#232323" stroke-miterlimit="10" d="M449.229,453.018c0,0,23.01-20.345,28.379-39.131
		c5.375-18.79,6.908-26.453,6.142-41.785s-12.277-45.633-29.144-57.535"/>
	<path fill="none" stroke="#232323" stroke-miterlimit="10" d="M454.982,452.627c0,0,15.723-4.234,24.164-29.544
		c8.424-25.282,11.491-43.706,4.212-75.537c-5.745-21.468-18.02-31.055-21.474-32.198"/>
	<path fill="none" stroke="#232323" stroke-miterlimit="10" d="M520.179,409.285l23.009-57.507c0,0,3.82-12.655-8.443-14.966
		c-12.278-1.922-34.116-6.133-34.116-6.133s-15.346-2.311-12.667,13.798c3.454,17.257,7.675,33.753,3.066,57.146
		c0.388,9.586,4.608,10.363,8.444,11.897c3.834,1.533,8.43,2.287,9.963,2.287C510.982,415.808,517.491,416.197,520.179,409.285z"/>
	<path fill="none" stroke="#232323" stroke-miterlimit="10" d="M512.502,404.32l22.633-54.076c0,0,1.91-2.698-2.302-3.451
		c-4.218-0.781-31.062-5.383-31.062-5.383s-4.21-2.287-2.3,5.77c1.91,8.029,6.142,30.664,2.677,51.766
		c-0.377,4.208,0.767,4.984,3.065,5.375c2.296,0.366,5.364,1.144,5.364,1.144S512.111,406.217,512.502,404.32z"/>
	<line fill="none" stroke="#232323" stroke-miterlimit="10" x1="543.188" y1="351.391" x2="535.888" y2="348.689"/>
	<line fill="none" stroke="#232323" stroke-miterlimit="10" x1="535.135" y1="337.202" x2="535.135" y2="347.155"/>
	<polyline fill="none" stroke="#232323" stroke-miterlimit="10" points="487.961,344.478 499.081,341.41 499.472,330.68 	"/>
	<line fill="none" stroke="#232323" stroke-miterlimit="10" x1="502.148" y1="402.396" x2="491.415" y2="401.231"/>
	<line fill="none" stroke="#232323" stroke-miterlimit="10" x1="502.915" y1="403.543" x2="499.095" y2="412.743"/>
	<line fill="none" stroke="#232323" stroke-miterlimit="10" x1="511.358" y1="405.854" x2="508.291" y2="415.42"/>
	<line fill="none" stroke="#232323" stroke-miterlimit="10" x1="519.788" y1="409.285" x2="512.502" y2="405.074"/>
	<path fill="none" stroke="#232323" stroke-miterlimit="10" d="M556.222,334.891c0,0-69.796-14.188-86.285-13.407"/>
	<path fill="none" stroke="#232323" stroke-miterlimit="10" d="M560.054,331.433c0,0-69.026-14.941-92.805-16.085
		c-6.523,0-16.095-0.391-26.456-3.845c-10.73-0.753-36.82-1.53-43.326-1.53"/>
	<path fill="none" stroke="#232323" stroke-miterlimit="10" d="M464.572,446.887c0,0,79.381-3.093,87.428-5.014"/>
	<path fill="none" stroke="#232323" stroke-miterlimit="10" d="M565.812,455.306c0,0-112.741,8.446-168.345,8.057"/>
	<path fill="none" stroke="#232323" stroke-miterlimit="10" d="M577.7,464.138c0,0-103.162,8.034-180.233,7.644"/>
	<path fill="none" stroke="#232323" stroke-miterlimit="10" d="M583.828,466.816c0,0-113.892,8.81-141.511,8.81"/>
	<path fill="none" stroke="#232323" stroke-miterlimit="10" d="M585.375,467.207l-2.311,29.517c0,0-10.356,4.992-26.065,4.212
		c-15.729-0.753-27.617-4.212-28.764-5.742v-2.678"/>
	<path fill="none" stroke="#232323" stroke-miterlimit="10" d="M397.453,495.971c74.408,2.286,140.358-3.845,160.299-4.622
		c19.948-0.753,18.791-5.745,18.791-5.745l-0.768-9.197c0,0-1.521-3.457-7.662-3.457c-6.136,0-75.932,6.911-129.23,4.99h-41.43"/>
	<line fill="none" stroke="#232323" stroke-miterlimit="10" x1="568.875" y1="467.96" x2="568.875" y2="472.949"/>
	<line fill="none" stroke="#232323" stroke-miterlimit="10" x1="576.932" y1="484.46" x2="583.452" y2="492.882"/>
	<g>
		<path fill="none" stroke="#232323" stroke-miterlimit="10" d="M582.678,491.738c0,0-13.034,4.985-42.165,0.777"/>
	</g>
	<polyline fill="none" stroke="#232323" stroke-miterlimit="10" points="449.229,478.693 449.229,495.946 446.942,493.27 
		449.229,489.815 442.703,489.452 439.642,492.516 439.642,480.229 441.937,478.303 	"/>
	<line fill="none" stroke="#232323" stroke-miterlimit="10" x1="397.453" y1="493.27" x2="446.942" y2="493.27"/>
	<line fill="none" stroke="#232323" stroke-miterlimit="10" x1="439.263" y1="480.613" x2="397.453" y2="480.613"/>
	<line fill="none" stroke="#232323" stroke-miterlimit="10" x1="442.703" y1="477.939" x2="442.703" y2="489.452"/>
	<g>
		<path fill="none" stroke="#232323" stroke-miterlimit="10" d="M570.41,322.627c0,0-82.827-19.179-139.971-21.466"/>
		<path fill="none" stroke="#232323" stroke-miterlimit="10" d="M584.985,314.957c0,0-82.461-19.175-137.681-23.775"/>
		<path fill="none" stroke="#232323" stroke-miterlimit="10" d="M637.904,310.359c0,0-2.688-5.379-10.354-7.666
			c-7.666-2.311-25.296-6.912-27.609-8.834c-2.312-1.922-8.82-13.798-13.031-14.188c-4.232-0.365-12.278,1.169-18.797,6.133
			c0,0-56.364-14.188-61.356-16.11c-4.985-1.899-26.844-16.476-29.907-21.854"/>
	</g>
	<g>
		<path fill="none" stroke="#232323" stroke-miterlimit="10" d="M593.032,311.503c0,0,0.766,3.845-8.047-10.342
			c-4.598-6.522-7.285-14.968-18.798-12.29c-4.21,1.922-17.632,12.29-21.466,12.29c-3.842,0-27.617-2.702-34.144-4.991
			c-6.519-2.311-31.817-13.434-40.642-30.297"/>
		<path fill="none" stroke="#232323" stroke-miterlimit="10" d="M567.723,285.805c0,0-6.136-0.366-14.565,4.989
			c-8.436,5.377-15.346,9.198-15.346,9.198"/>
	</g>
	<g>
		<path fill="none" stroke="#232323" stroke-miterlimit="10" d="M594.952,286.193l5.365-118.103c0,0,1.924-3.457-4.212-4.988
			c-6.128-1.534-15.729-7.667-41.414-3.457c-12.654,1.532-9.97,8.81-10.357,14.188c-0.381,5.377-5.742,104.305-5.742,104.305"/>
	</g>
	<line fill="none" stroke="#232323" stroke-miterlimit="10" x1="566.188" y1="285.805" x2="570.787" y2="205.275"/>
	<g>
		<path fill="none" stroke="#232323" stroke-miterlimit="10" d="M600.708,166.557c0,0-8.43,19.932-11.888,24.921
			c-3.459,4.988-6.899,14.966-19.945,13.798c-3.063-0.754-8.433-1.143-15.718-18.398c-5.759-12.655-8.06-20.709-8.06-20.709"/>
	</g>
	<path fill="none" stroke="#232323" stroke-miterlimit="10" d="M397.27,253.754c-14.139,0-25.589-11.463-25.589-25.626
		c0-14.141,11.45-25.602,25.589-25.602c14.141,0,25.603,11.461,25.603,25.602C422.872,242.291,411.41,253.754,397.27,253.754z"/>
	<path fill="none" stroke="#232323" stroke-miterlimit="10" d="M466.492,183.423c0,0,3.836-1.534-3.841-9.979
		c-7.669-8.419-26.829-31.417-65.185-31.053"/>
	<path fill="none" stroke="#232323" stroke-miterlimit="10" d="M469.937,188.8"/>
	<path fill="none" stroke="#232323" stroke-miterlimit="10" d="M418.942,213.721c0,0,1.533-20.711-21.476-22.243"/>
	<path fill="none" stroke="#232323" stroke-miterlimit="10" d="M473.005,195.298c0,0-1.157-29.521-10.744-42.93
		c-9.576-13.434-24.908-37.963-64.794-37.963"/>
	<path fill="none" stroke="#232323" stroke-miterlimit="10" d="M472.238,185.734c0,0,2.335-32.733-23.399-54.854
		c-24.527-21.076-44.866-19.932-51.372-19.932"/>
	<path fill="none" stroke="#232323" stroke-miterlimit="10" d="M615.287,473.414c-44.319,0-80.248-36.604-80.248-81.772
		c0-45.144,35.929-81.744,80.248-81.744c44.304,0,80.234,36.601,80.234,81.744C695.521,436.81,659.591,473.414,615.287,473.414z"/>
	<path fill="none" stroke="#232323" stroke-miterlimit="10" d="M614.507,438.901c-25.871,0-46.873-21.413-46.873-47.817
		c0-26.433,21.002-47.845,46.873-47.845c25.894,0,46.871,21.412,46.871,47.845C661.378,417.488,640.4,438.901,614.507,438.901z"/>
	<path fill="none" stroke="#232323" stroke-miterlimit="10" d="M615.541,432.383c-22.57,0-40.861-18.667-40.861-41.689
		c0-23.021,18.291-41.713,40.861-41.713c22.562,0,40.86,18.691,40.86,41.713C656.401,413.716,638.104,432.383,615.541,432.383z"/>
	<path fill="none" stroke="#232323" stroke-miterlimit="10" d="M613.938,416.298c-13.921,0-25.213-11.053-25.213-24.656
		c0-13.603,11.292-24.628,25.213-24.628c13.916,0,25.211,11.025,25.211,24.628C639.148,405.245,627.854,416.298,613.938,416.298z"/>
	<path fill="none" stroke="#232323" stroke-miterlimit="10" d="M631.387,410.429c0,0,19.174-2.287,19.174-20.317
		c-0.393-7.279-8.82-21.858-21.1-18.399"/>
	<path fill="none" stroke="#232323" stroke-miterlimit="10" d="M626.394,350.224c0,0-35.272,0-39.106,39.131
		c0.767,12.269,2.69,32.976,34.509,42.175"/>
	<path fill="none" stroke="#232323" stroke-miterlimit="10" d="M616.04,473.339c0,0,50.241,3.458,73.239-41.031
		c8.447-15.723,14.967-40.275,8.834-60.986c-6.133-20.708-5.364-14.941-6.522-18.399h-2.69l-1.918-4.232l1.154-2.287
		c0,0-29.141-47.164-83.97-36.043"/>
	<path fill="none" stroke="#232323" stroke-miterlimit="10" d="M656.306,465.286l29.921-3.068c0,0,31.427-6.521,47.539-39.888
		c16.113-33.366,7.301-67.094-20.701-93.184c0,0-20.707-19.954-63.649-14.966"/>
	<path fill="none" stroke="#232323" stroke-miterlimit="10" d="M678.561,462.972c0,0,44.476-9.196,55.596-54.077
		c3.454-16.476,6.144-44.096-18.413-72.082c-9.587-8.811-28.761-22.246-50.229-22.999"/>
</g>
</svg>
