<?xml version="1.0" encoding="utf-8"?>
<!-- Generator: Adobe Illustrator 16.0.0, SVG Export Plug-In . SVG Version: 6.00 Build 0)  -->
<!DOCTYPE svg PUBLIC "-//W3C//DTD SVG 1.1//EN" "http://www.w3.org/Graphics/SVG/1.1/DTD/svg11.dtd">
<svg version="1.1" id="Layer_1" xmlns="http://www.w3.org/2000/svg" xmlns:xlink="http://www.w3.org/1999/xlink" x="0px" y="0px"
	 width="504px" height="612px" viewBox="0 0 504 612" enable-background="new 0 0 504 612" xml:space="preserve">
<g>
	<path fill="none" stroke="#232323" stroke-miterlimit="10" d="M131.438,378.738l10.27-11.613c0,0,12.001-4.2,25.148,7.015
		c3.859,3.621,9.084,11.059,9.045,21.508c-4.177,5.396-7.559,9.968-9.667,12.42"/>
	<path fill="none" stroke="#232323" stroke-miterlimit="10" d="M130.179,377.651c0,0,9.549-11.181,10.554-12.357
		c1.029-1.181,21.935-24.214,25.422-27.146"/>
	<path fill="none" stroke="#232323" stroke-miterlimit="10" d="M209.077,358.122c0,0-0.825-1.023,0.904,4.317
		c0.68,2.597,2.257,5.1-0.922,7.496c-1.385,0.653-6.973,1.862-7.814,2.855c-0.825,0.981-5.294,7.684-6.101,9.854
		c-0.841,2.17-3.456,11.109-1.029,17.015"/>
	<path fill="none" stroke="#232323" stroke-miterlimit="10" d="M167.704,409.33c-9.846,11.669-8.528,28.919,2.909,38.602
		c11.451,9.65,28.715,8.023,38.558-3.629c9.812-11.661,8.474-28.946-2.945-38.574C194.753,396.069,177.497,397.678,167.704,409.33z"
		/>
	<path fill="none" stroke="#232323" stroke-miterlimit="10" d="M213.132,415.798c0,0,8.694,6.332,8.78,17.367
		c0.07,10.594-4.47,15.419-5.846,17.042"/>
	<path fill="none" stroke="#232323" stroke-miterlimit="10" d="M183.854,399.816l5.832-8.94c0,0,2.213-2.361,2.701-0.586
		c-0.062,2.315-0.266,7.521,0.427,9.299"/>
	<path fill="none" stroke="#232323" stroke-miterlimit="10" d="M172.252,317.262c-9.631,11.445-7.998,28.589,3.633,38.404
		c11.606,9.784,28.825,8.494,38.42-2.908c9.604-11.404,7.994-28.583-3.625-38.367C199.089,304.607,181.869,305.903,172.252,317.262z
		"/>
	<path fill="none" stroke="#232323" stroke-miterlimit="10" d="M181.731,310.171l8.788-8.716c0,0,8.508-6.68,20.564-3.548
		c12.1,3.082,18.869,12.671,19.49,25.506c0,0-1.383,12.255-11.978,22.219"/>
	<path fill="none" stroke="#232323" stroke-miterlimit="10" d="M131.286,378.754l-9.667,12.075c0,0-2.135,12.569,11.154,23.597
		c4.188,3.207,12.4,7.07,22.672,5.303c4.626-5.068,8.56-9.15,10.64-11.63"/>
	<path fill="none" stroke="#232323" stroke-miterlimit="10" d="M129.984,377.663c0,0-9.358,11.345-10.368,12.518
		c-0.98,1.177-20.142,25.7-22.481,29.642"/>
	<path fill="none" stroke="#232323" stroke-miterlimit="10" d="M167.568,409.311c9.819-11.652,27.091-13.284,38.564-3.629
		c11.426,9.659,12.746,26.96,2.906,38.598c-9.838,11.66-27.096,13.271-38.53,3.621C159.077,438.257,157.739,420.964,167.568,409.311
		z"/>
	<path fill="none" stroke="#232323" stroke-miterlimit="10" d="M181.481,453.156c0,0,7.676,7.468,18.605,5.701
		c10.446-1.658,14.438-7.012,15.823-8.639"/>
	<path fill="none" stroke="#232323" stroke-miterlimit="10" d="M160.923,426.854l-7.83,7.266c0,0-1.963,2.541-0.102,2.733
		c2.234-0.45,7.325-1.514,9.226-1.138"/>
	<path fill="none" stroke="#232323" stroke-miterlimit="10" d="M77.605,429.333c9.62-11.396,26.807-12.694,38.437-2.902
		c11.629,9.8,13.226,26.979,3.622,38.382c-9.608,11.388-26.831,12.697-38.429,2.914C69.628,457.911,67.994,440.735,77.605,429.333z"
		/>
	<path fill="none" stroke="#232323" stroke-miterlimit="10" d="M86.659,436.637c5.604-6.663,15.653-7.39,22.473-1.688
		c6.789,5.732,7.72,15.783,2.124,22.446c-5.612,6.633-15.682,7.391-22.482,1.65C81.966,453.328,81.016,443.294,86.659,436.637z"/>
	<path fill="none" stroke="#232323" stroke-miterlimit="10" d="M92.591,441.385c3.011-3.597,8.298-4.098,11.791-1.153
		c3.496,2.991,3.91,8.259,0.88,11.837c-3.019,3.574-8.306,4.113-11.798,1.143C89.983,450.246,89.583,444.951,92.591,441.385z"/>
	<path fill="none" stroke="#232323" stroke-miterlimit="10" d="M72.425,439.062l-7.317,10.961c0,0-5.135,9.46-0.043,20.847
		c5.068,11.396,15.677,16.439,28.433,14.907c0,0,9.624-1.005,17.649-13.108l3.495-2.135c0,0,1.979,0.477,4.205-0.993
		c2.279-1.486,7.276-5.014,8.258-5.201c1.002-0.188,5.455,0.731,6.468-0.289c1.036-1.001,2.374-3.427,2.535-6.14
		c0,0,15.845-11.411,17.42-12.291c1.573-0.88,10.066-3.328,12.108-2.96"/>
	<line fill="none" stroke="#232323" stroke-miterlimit="10" x1="376.329" y1="516.498" x2="376.329" y2="346.547"/>
	<line fill="none" stroke="#232323" stroke-miterlimit="10" x1="485.432" y1="502.564" x2="485.432" y2="540.316"/>
	<path fill="none" stroke="#232323" stroke-miterlimit="10" d="M466.646,281.028L466.646,281.028
		c11.746,1.938,11.316,2.243,13.944,4.492c1.463,1.237,2.684,5.082,3.52,10.042c0.838,4.943,1.322,11.004,1.322,16.752v85.273"/>
	<path fill="none" stroke="#232323" stroke-miterlimit="10" d="M274.178,70.229c2.276-2.336,8.385-0.096,13.655,5.02
		l135.851,132.253c5.28,5.105,7.674,11.186,5.413,13.515"/>
	<line fill="none" stroke="#232323" stroke-miterlimit="10" x1="335.448" y1="244.016" x2="226.162" y2="138.835"/>
	<path fill="none" stroke="#232323" stroke-miterlimit="10" d="M93.486,281.691c0,0,63.331-106.22,85.753-125.952
		c16.55-14.562,31.449-17.495,29.65-18.727"/>
	<path fill="none" stroke="#232323" stroke-miterlimit="10" d="M93.561,309.765"/>
	<line fill="none" stroke="#232323" stroke-miterlimit="10" x1="169.628" y1="89.816" x2="48.41" y2="265.562"/>
	<path fill="none" stroke="#232323" stroke-miterlimit="10" d="M122.784,388.175c-3.379,3.766-13.022,0.582-21.531-7.105
		l-47.137-42.477c-8.521-7.664-12.678-16.939-9.296-20.686l17.562-19.467c3.364-3.758,13.006-0.583,21.52,7.1l47.134,42.485
		c8.509,7.68,12.686,16.933,9.307,20.687L122.784,388.175z"/>
	<path fill="none" stroke="#232323" stroke-miterlimit="10" d="M487.903,579.333c0-53.513-4.591-69.42-56.437-67.996
		c-91.529,2.472-94.729,14.483-94.729,67.996"/>
	<path fill="none" stroke="#232323" stroke-miterlimit="10" d="M466.646,281.028c0,37.574-30.455,68.037-68.02,68.037
		c-37.563,0-68.042-30.463-68.042-68.037c0-37.541,30.479-68.007,68.042-68.007C436.19,213.021,466.646,243.488,466.646,281.028z"/>
	<path fill="none" stroke="#232323" stroke-miterlimit="10" d="M275.444,85.888c0,29.228-23.7,52.916-52.918,52.916
		c-29.22,0-52.897-23.688-52.897-52.916c0-29.221,23.677-52.907,52.897-52.907C251.745,32.98,275.444,56.667,275.444,85.888z"/>
	<path fill="none" stroke="#232323" stroke-miterlimit="10" d="M100.756,301.275"/>
	<path fill="none" stroke="#232323" stroke-miterlimit="10" d="M66.845,355.193"/>
	<path fill="none" stroke="#232323" stroke-miterlimit="10" d="M99.994,320.05c15.775-36.554-28.887-58.229-53.152-52.698
		c-24.272,5.52-39.453,29.659-33.928,53.918c5.518,24.245,35.887,43.344,58.475,32.888"/>
	<path fill="none" stroke="#232323" stroke-miterlimit="10" d="M226.909,125.296c-22.654,0-40.991-18.352-40.991-40.99"/>
	<path fill="none" stroke="#232323" stroke-miterlimit="10" d="M86.956,276.864c64.112-94.316,78.597-127.506,115.106-142.165"/>
	<line fill="none" stroke="#232323" stroke-miterlimit="10" x1="170.649" y1="97.035" x2="55.809" y2="266.519"/>
	<path fill="none" stroke="#232323" stroke-miterlimit="10" d="M88.051,309.269c8.564-19.086-18.133-35.977-36.677-31.75
		c-18.532,4.21-31.492,21.5-27.264,40.056c4.212,18.516,18.982,32,37.534,27.78"/>
	<path fill="none" stroke="#232323" stroke-miterlimit="10" d="M407.44,235.01c24.534,0,44.438,19.873,44.438,44.408"/>
	<path fill="none" stroke="#232323" stroke-miterlimit="10" d="M422.262,281.06c0,10.975-8.9,19.864-19.867,19.864
		c-10.973,0-19.873-8.889-19.873-19.864c0-10.984,8.9-19.873,19.873-19.873C413.361,261.187,422.262,270.075,422.262,281.06z"/>
	<path fill="none" stroke="#232323" stroke-miterlimit="10" d="M477.556,579.333c0-46.055-25.724-39.16-104.755-37.941"/>
	<path fill="none" stroke="#232323" stroke-miterlimit="10" d="M470.259,502.564c-3.262,0.036-5.921-9.271-5.921-20.729
		l-0.07-63.451c-0.023-11.474,2.612-20.761,5.897-20.765l17.012-0.031c3.26-0.008,5.927,9.26,5.935,20.718l0.055,63.471
		c0.008,11.454-2.62,20.77-5.896,20.77L470.259,502.564z"/>
	<path fill="none" stroke="#232323" stroke-miterlimit="10" d="M137.03,383.26c5.608-6.672,15.686-7.392,22.454-1.686
		c6.789,5.721,7.747,15.771,2.101,22.446c-5.58,6.647-15.642,7.378-22.424,1.685C132.372,399.973,131.391,389.899,137.03,383.26z"/>
	<path fill="none" stroke="#232323" stroke-miterlimit="10" d="M142.959,388.026c3.031-3.59,8.298-4.134,11.793-1.138
		c3.507,2.936,3.891,8.219,0.896,11.81c-3.031,3.582-8.322,4.102-11.822,1.142C140.327,396.899,139.931,391.588,142.959,388.026z"/>
	<path fill="none" stroke="#232323" stroke-miterlimit="10" d="M180.968,324.648c5.627-6.64,15.678-7.414,22.49-1.689
		c6.785,5.717,7.728,15.783,2.115,22.431c-5.599,6.648-15.668,7.407-22.454,1.686C176.315,341.361,175.333,331.305,180.968,324.648z
		"/>
	<path fill="none" stroke="#232323" stroke-miterlimit="10" d="M186.928,329.411c2.992-3.586,8.286-4.103,11.786-1.165
		c3.513,2.979,3.876,8.26,0.88,11.841c-3.034,3.586-8.314,4.075-11.798,1.134C184.309,338.272,183.895,332.946,186.928,329.411z"/>
	<path fill="none" stroke="#232323" stroke-miterlimit="10" d="M175.807,416.553c5.619-6.632,15.668-7.383,22.451-1.649
		c6.812,5.705,7.781,15.759,2.154,22.407c-5.611,6.647-15.67,7.398-22.458,1.689C171.146,433.267,170.188,423.217,175.807,416.553z"
		/>
	<path fill="none" stroke="#232323" stroke-miterlimit="10" d="M181.771,421.331c2.995-3.581,8.283-4.104,11.77-1.149
		c3.521,2.965,3.908,8.244,0.877,11.842c-3.004,3.566-8.286,4.09-11.798,1.134C179.138,430.197,178.739,424.914,181.771,421.331z"/>
</g>
</svg>
