<?xml version="1.0" encoding="utf-8"?>
<!-- Generator: Adobe Illustrator 16.0.0, SVG Export Plug-In . SVG Version: 6.00 Build 0)  -->
<!DOCTYPE svg PUBLIC "-//W3C//DTD SVG 1.1//EN" "http://www.w3.org/Graphics/SVG/1.1/DTD/svg11.dtd">
<svg version="1.1" id="Layer_1" xmlns="http://www.w3.org/2000/svg" xmlns:xlink="http://www.w3.org/1999/xlink" x="0px" y="0px"
	 width="360px" height="612px" viewBox="0 0 360 612" enable-background="new 0 0 360 612" xml:space="preserve">
<g>
	<path fill="none" stroke="#232323" stroke-miterlimit="10" d="M62.729,252.208c0.197,0.016,0.381,0.016,0.579-0.031"/>
	<line fill="none" stroke="#232323" stroke-miterlimit="10" x1="42.012" y1="250.466" x2="62.729" y2="252.208"/>
	<path fill="none" stroke="#232323" stroke-miterlimit="10" d="M65.891,203.44c-0.169-0.168-0.382-0.292-0.627-0.307"/>
	<path fill="none" stroke="#232323" stroke-miterlimit="10" d="M66.12,204.067c0-0.229-0.076-0.444-0.245-0.627"/>
	<line fill="none" stroke="#232323" stroke-miterlimit="10" x1="65.249" y1="203.134" x2="44.532" y2="201.393"/>
	<polyline fill="none" stroke="#232323" stroke-miterlimit="10" points="42.133,201.791 42.117,201.806 42.042,201.822 
		41.965,201.835 41.873,201.867 41.797,201.896 41.72,201.928 41.644,201.959 41.567,201.988 41.475,202.02 41.399,202.064 
		41.322,202.112 41.247,202.172 41.17,202.217 41.094,202.28 41.017,202.325 40.941,202.386 40.864,202.449 40.789,202.522 
		40.712,202.601 40.651,202.676 40.575,202.754 40.514,202.828 40.438,202.92 40.375,202.996 40.314,203.075 40.254,203.165 
		40.207,203.257 40.148,203.333 40.101,203.425 40.041,203.517 39.994,203.607 39.948,203.686 39.902,203.776 39.856,203.883 
		39.811,203.975 39.78,204.067 39.735,204.173 39.704,204.265 39.659,204.373 39.627,204.479 39.596,204.571 39.566,204.678 
		39.522,204.785 39.49,204.876 39.459,204.983 39.444,205.092 39.414,205.197 39.398,205.305 39.369,205.412 39.353,205.518 
		39.338,205.625 39.322,205.731 39.306,205.839 39.29,205.931 39.275,206.023 39.275,206.083 39.261,206.16 39.261,206.236 	"/>
	<path fill="none" stroke="#232323" stroke-miterlimit="10" d="M39.261,206.236c-0.016,0.214-0.032,0.427-0.032,0.641"/>
	<line fill="none" stroke="#232323" stroke-miterlimit="10" x1="39.229" y1="206.892" x2="39.306" y2="246.144"/>
	<line fill="none" stroke="#232323" stroke-miterlimit="10" x1="44.287" y1="201.393" x2="42.133" y2="201.791"/>
	<polyline fill="none" stroke="#232323" stroke-miterlimit="10" points="39.306,246.128 39.306,246.205 39.306,246.296 
		39.322,246.404 39.322,246.51 39.322,246.617 39.338,246.723 39.338,246.831 39.369,246.922 39.369,247.028 39.382,247.136 
		39.398,247.242 39.414,247.35 39.444,247.457 39.459,247.549 39.475,247.655 39.506,247.763 39.522,247.854 39.551,247.962 
		39.583,248.068 39.612,248.16 39.643,248.252 39.688,248.358 39.719,248.45 39.765,248.542 39.796,248.634 39.841,248.726 
		39.888,248.816 39.917,248.894 39.964,248.985 40.025,249.076 40.07,249.153 40.117,249.229 40.177,249.306 40.223,249.397 
		40.285,249.458 40.346,249.534 40.406,249.595 40.467,249.674 40.528,249.734 40.591,249.795 40.651,249.855 40.712,249.916 
		40.789,249.963 40.849,250.023 40.911,250.069 40.986,250.116 41.064,250.161 41.141,250.192 41.201,250.237 41.278,250.269 
		41.354,250.313 41.431,250.345 41.507,250.359 41.583,250.39 41.659,250.405 41.736,250.421 41.812,250.437 41.889,250.452 
		41.965,250.466 42.012,250.466 	"/>
	<path fill="none" stroke="#232323" stroke-miterlimit="10" d="M44.532,201.393c-0.077-0.016-0.169,0-0.245,0.015"/>
	<line fill="none" stroke="#232323" stroke-miterlimit="10" x1="29.085" y1="247.365" x2="39.688" y2="248.358"/>
	<line fill="none" stroke="#232323" stroke-miterlimit="10" x1="24.899" y1="206.939" x2="24.975" y2="240.397"/>
	<path fill="none" stroke="#232323" stroke-miterlimit="10" d="M221.315,169.554c-0.137-0.031-0.258-0.047-0.411-0.063"/>
	<path fill="none" stroke="#232323" stroke-miterlimit="10" d="M225.243,174.213c0-2.308-1.648-4.277-3.928-4.674"/>
	<line fill="none" stroke="#232323" stroke-miterlimit="10" x1="225.349" y1="221.209" x2="225.243" y2="174.198"/>
	<line fill="none" stroke="#232323" stroke-miterlimit="10" x1="220.904" y1="169.491" x2="189.342" y2="166.833"/>
	<polyline fill="none" stroke="#232323" stroke-miterlimit="10" points="281.912,259.909 282.339,259.832 283.346,259.679 
		284.372,259.511 285.394,259.358 286.4,259.19 287.41,259.023 288.437,258.855 289.441,258.703 290.448,258.535 291.459,258.366 
		292.453,258.197 293.447,258.029 294.454,257.861 295.444,257.708 296.439,257.54 297.419,257.372 298.413,257.205 
		299.402,257.036 300.382,256.868 301.357,256.7 302.336,256.534 303.315,256.365 304.294,256.196 305.256,256.028 306.235,255.86 
		307.195,255.691 308.158,255.523 309.121,255.354 310.085,255.188 311.028,255.02 311.992,254.852 312.938,254.668 
		313.887,254.501 314.834,254.333 315.782,254.165 316.714,253.996 317.662,253.828 318.593,253.644 319.541,253.475 
		320.473,253.309 321.404,253.141 322.337,252.957 323.253,252.79 324.169,252.622 325.085,252.453 326.017,252.27 326.934,252.101 
		327.838,251.917 328.754,251.75 329.654,251.583 330.403,251.43 	"/>
	<line fill="none" stroke="#232323" stroke-miterlimit="10" x1="277.434" y1="240.642" x2="277.464" y2="258.397"/>
	<line fill="none" stroke="#232323" stroke-miterlimit="10" x1="330.403" y1="251.43" x2="338.978" y2="249.84"/>
	<path fill="none" stroke="#232323" stroke-miterlimit="10" d="M339.815,230.574c-0.185-0.396-0.563-0.672-0.995-0.701"/>
	<path fill="none" stroke="#232323" stroke-miterlimit="10" d="M339.908,231.047c0-0.168-0.03-0.32-0.108-0.473"/>
	<line fill="none" stroke="#232323" stroke-miterlimit="10" x1="339.937" y1="248.663" x2="339.908" y2="231.032"/>
	<line fill="none" stroke="#232323" stroke-miterlimit="10" x1="338.82" y1="229.857" x2="332.955" y2="229.368"/>
	<path fill="none" stroke="#232323" stroke-miterlimit="10" d="M338.978,249.84c0.564-0.106,0.976-0.596,0.976-1.162"/>
	<path fill="none" stroke="#232323" stroke-miterlimit="10" d="M332.955,229.368c-0.109,0-0.211,0-0.306,0.015"/>
	<line fill="none" stroke="#232323" stroke-miterlimit="10" x1="121.962" y1="136.231" x2="122.038" y2="171.112"/>
	<line fill="none" stroke="#232323" stroke-miterlimit="10" x1="162.175" y1="13.256" x2="140.403" y2="17.291"/>
	<line fill="none" stroke="#232323" stroke-miterlimit="10" x1="164.666" y1="234.148" x2="186.42" y2="230.1"/>
	<line fill="none" stroke="#232323" stroke-miterlimit="10" x1="285.162" y1="295.507" x2="326.479" y2="287.822"/>
	<line fill="none" stroke="#232323" stroke-miterlimit="10" x1="222.142" y1="304.935" x2="285.162" y2="295.507"/>
	<polyline fill="none" stroke="#232323" stroke-miterlimit="10" points="221.226,305.147 222.084,304.935 222.142,304.935 	"/>
	<path fill="none" stroke="#232323" stroke-miterlimit="10" d="M145.033,304.371c0-0.477-0.047-0.92-0.123-1.378"/>
	<polyline fill="none" stroke="#232323" stroke-miterlimit="10" points="141.122,298.12 141.167,298.12 141.259,298.166 
		141.365,298.197 141.457,298.241 141.549,298.273 141.656,298.318 141.749,298.363 141.839,298.425 141.946,298.471 
		142.038,298.531 142.13,298.594 142.223,298.639 142.328,298.7 142.42,298.776 142.496,298.853 142.588,298.915 142.68,298.989 
		142.77,299.067 142.862,299.142 142.954,299.22 143.031,299.311 143.123,299.403 143.198,299.479 143.291,299.571 143.367,299.663 
		143.444,299.769 143.521,299.861 143.596,299.953 143.672,300.061 143.749,300.168 143.826,300.273 143.886,300.382 
		143.962,300.487 144.024,300.595 144.085,300.701 144.131,300.794 144.191,300.9 144.254,301.008 144.298,301.114 144.345,301.221 
		144.407,301.327 144.452,301.45 144.497,301.558 144.529,301.678 144.588,301.787 144.621,301.893 144.665,302.014 
		144.697,302.124 144.727,302.245 144.757,302.366 144.786,302.476 144.818,302.578 144.849,302.688 144.865,302.782 
		144.88,302.856 144.911,302.93 144.911,302.993 	"/>
	<line fill="none" stroke="#232323" stroke-miterlimit="10" x1="145.033" y1="304.371" x2="145.17" y2="367.771"/>
	<line fill="none" stroke="#232323" stroke-miterlimit="10" x1="78.068" y1="278.075" x2="141.122" y2="298.104"/>
	<line fill="none" stroke="#232323" stroke-miterlimit="10" x1="72.169" y1="248.237" x2="72.216" y2="267.548"/>
	<path fill="none" stroke="#232323" stroke-miterlimit="10" d="M72.216,267.548c0,0.261,0.044,0.519,0.153,0.764"/>
	<path fill="none" stroke="#232323" stroke-miterlimit="10" d="M72.369,268.295c0.015,0.047,0.045,0.092,0.061,0.124"/>
	<line fill="none" stroke="#232323" stroke-miterlimit="10" x1="72.43" y1="268.419" x2="76.968" y2="277.143"/>
	<path fill="none" stroke="#232323" stroke-miterlimit="10" d="M76.952,277.143c0.245,0.443,0.626,0.78,1.116,0.933"/>
	<line fill="none" stroke="#232323" stroke-miterlimit="10" x1="46.747" y1="429.59" x2="47.054" y2="572.977"/>
	<line fill="none" stroke="#232323" stroke-miterlimit="10" x1="157.683" y1="186.267" x2="63.035" y2="203.533"/>
	<line fill="none" stroke="#232323" stroke-miterlimit="10" x1="153.481" y1="233.111" x2="66.212" y2="249.337"/>
	<polyline fill="none" stroke="#232323" stroke-miterlimit="10" points="63.035,203.533 62.958,203.546 62.897,203.562 
		62.819,203.593 62.745,203.607 62.682,203.639 62.606,203.67 62.545,203.699 62.469,203.747 62.392,203.776 62.331,203.838 
		62.255,203.883 62.192,203.929 62.118,203.975 62.056,204.036 61.995,204.097 61.934,204.159 61.858,204.22 61.797,204.296 
		61.734,204.357 61.674,204.449 61.613,204.51 61.553,204.586 61.492,204.678 61.429,204.755 61.384,204.847 61.323,204.939 
		61.276,205.029 61.216,205.121 61.17,205.213 61.107,205.305 61.063,205.412 61.018,205.518 60.971,205.61 60.926,205.718 
		60.895,205.839 60.85,205.945 60.802,206.053 60.758,206.16 60.726,206.281 60.697,206.389 60.666,206.511 60.634,206.618 
		60.605,206.755 60.574,206.863 60.544,206.984 60.528,207.108 60.497,207.229 60.468,207.351 60.452,207.474 60.437,207.595 
		60.421,207.734 60.407,207.855 60.391,207.977 60.391,208.101 60.375,208.222 60.375,208.36 60.36,208.482 60.36,208.604 
		60.36,208.743 	"/>
	<line fill="none" stroke="#232323" stroke-miterlimit="10" x1="60.36" y1="208.727" x2="60.452" y2="247.992"/>
	<line fill="none" stroke="#232323" stroke-miterlimit="10" x1="65.172" y1="203.134" x2="63.035" y2="203.533"/>
	<line fill="none" stroke="#232323" stroke-miterlimit="10" x1="42.317" y1="201.791" x2="44.455" y2="201.393"/>
	<line fill="none" stroke="#232323" stroke-miterlimit="10" x1="137.774" y1="183.945" x2="43.539" y2="201.47"/>
	<line fill="none" stroke="#232323" stroke-miterlimit="10" x1="43.539" y1="201.47" x2="43.797" y2="201.485"/>
	<line fill="none" stroke="#232323" stroke-miterlimit="10" x1="43.539" y1="201.47" x2="43.539" y2="201.53"/>
	<polyline fill="none" stroke="#232323" stroke-miterlimit="10" points="29.33,201.148 30.185,200.874 31.024,200.613 
		31.896,200.338 32.751,200.08 33.623,199.819 34.494,199.545 35.365,199.285 36.237,199.01 37.122,198.75 38.008,198.49 
		38.895,198.215 39.796,197.955 40.696,197.679 41.599,197.42 42.5,197.16 43.418,196.9 44.334,196.625 45.25,196.368 
		46.182,196.107 47.114,195.847 48.03,195.588 48.978,195.312 49.925,195.052 50.857,194.793 51.82,194.533 52.768,194.272 
		53.729,194.014 54.692,193.738 55.654,193.478 56.633,193.234 57.609,192.959 58.588,192.698 59.565,192.44 60.56,192.18 
		61.553,191.935 62.545,191.661 63.537,191.4 64.546,191.14 65.554,190.882 66.562,190.637 67.573,190.377 68.61,190.118 
		69.634,189.857 70.658,189.598 71.682,189.355 72.721,189.094 73.759,188.834 74.812,188.576 75.868,188.329 76.922,188.071 
		77.976,187.81 79.045,187.55 80.1,187.291 81.169,187.046 82.238,186.786 83.322,186.543 84.409,186.283 85.493,186.039 
		86.578,185.777 87.678,185.52 88.777,185.275 89.877,185.014 90.978,184.77 92.093,184.511 93.207,184.266 94.324,184.006 
		95.455,183.761 96.568,183.517 97.701,183.258 98.83,183.013 99.978,182.753 101.123,182.509 102.269,182.264 103.415,182.005 
		104.573,181.761 105.721,181.516 106.898,181.271 108.06,181.011 109.235,180.768 110.412,180.523 111.573,180.278 
		112.766,180.034 113.956,179.773 115.133,179.544 116.341,179.286 117.531,179.041 118.739,178.796 119.946,178.552 
		121.152,178.307 122.358,178.062 123.583,177.819 124.804,177.588 126.025,177.33 127.249,177.085 128.487,176.841 
		129.724,176.612 130.962,176.367 132.214,176.123 133.467,175.878 134.704,175.648 135.973,175.404 137.227,175.161 
		137.761,175.053 	"/>
	<polyline fill="none" stroke="#232323" stroke-miterlimit="10" points="189.095,227.748 189.143,227.748 189.264,227.748 
		189.385,227.748 189.506,227.748 189.632,227.748 189.753,227.733 189.89,227.733 189.995,227.733 190.132,227.717 
		190.242,227.717 190.363,227.717 190.484,227.701 190.594,227.701 190.712,227.701 190.82,227.688 190.943,227.688 
		191.048,227.672 191.158,227.672 191.265,227.656 191.37,227.641 191.479,227.641 191.569,227.625 191.676,227.625 191.77,227.609 
		191.859,227.596 191.948,227.596 192.059,227.58 192.138,227.565 192.228,227.549 192.302,227.549 192.396,227.535 
		192.474,227.503 192.549,227.503 192.606,227.488 	"/>
	<line fill="none" stroke="#232323" stroke-miterlimit="10" x1="224.526" y1="221.56" x2="192.606" y2="227.488"/>
	<polyline fill="none" stroke="#232323" stroke-miterlimit="10" points="224.526,221.56 224.585,221.544 224.663,221.528 
		224.723,221.515 224.784,221.5 224.848,221.483 224.895,221.468 224.953,221.454 224.996,221.454 225.044,221.439 225.074,221.407 
		225.122,221.391 225.169,221.376 225.2,221.362 225.228,221.347 225.259,221.331 225.273,221.315 225.291,221.301 225.316,221.286 
		225.316,221.27 225.334,221.255 225.334,221.238 225.349,221.223 225.349,221.223 	"/>
	<line fill="none" stroke="#232323" stroke-miterlimit="10" x1="277.633" y1="239.986" x2="178.262" y2="231.628"/>
	<line fill="none" stroke="#232323" stroke-miterlimit="10" x1="225.074" y1="221.423" x2="328.602" y2="230.131"/>
	<path fill="none" stroke="#232323" stroke-miterlimit="10" d="M281.224,259.877c0.564-0.09,0.963-0.596,0.963-1.161"/>
	<line fill="none" stroke="#232323" stroke-miterlimit="10" x1="276.838" y1="239.986" x2="332.846" y2="229.383"/>
	<line fill="none" stroke="#232323" stroke-miterlimit="10" x1="332.846" y1="229.383" x2="338.715" y2="229.873"/>
	<polyline fill="none" stroke="#232323" stroke-miterlimit="10" points="338.715,229.873 338.773,229.873 338.82,229.886 
		338.884,229.902 338.93,229.918 338.978,229.933 339.035,229.947 339.078,229.994 339.126,230.01 339.189,230.039 339.22,230.086 
		339.268,230.115 339.311,230.163 339.357,230.207 339.386,230.238 339.432,230.299 339.462,230.347 339.494,230.407 
		339.542,230.453 339.558,230.513 339.588,230.56 339.615,230.636 339.631,230.681 339.646,230.742 339.663,230.805 
		339.679,230.865 339.693,230.926 339.693,231.002 339.693,231.063 339.693,231.125 	"/>
	<line fill="none" stroke="#232323" stroke-miterlimit="10" x1="339.693" y1="231.125" x2="339.736" y2="248.755"/>
	<line fill="none" stroke="#232323" stroke-miterlimit="10" x1="137.684" y1="137.026" x2="128.546" y2="136.476"/>
	<polyline fill="none" stroke="#232323" stroke-miterlimit="10" points="128.546,136.491 128.41,136.476 128.271,136.476 	"/>
	<line fill="none" stroke="#232323" stroke-miterlimit="10" x1="128.271" y1="136.459" x2="123.23" y2="136.033"/>
	<line fill="none" stroke="#232323" stroke-miterlimit="10" x1="123.23" y1="136.033" x2="122.268" y2="136.186"/>
	<line fill="none" stroke="#232323" stroke-miterlimit="10" x1="122.343" y1="171.539" x2="123.307" y2="172.303"/>
	<polyline fill="none" stroke="#232323" stroke-miterlimit="10" points="122.268,136.186 122.207,136.186 122.145,136.202 
		122.101,136.215 122.053,136.215 122.009,136.215 121.977,136.231 121.977,136.231 121.962,136.231 	"/>
	<polyline fill="none" stroke="#232323" stroke-miterlimit="10" points="122.038,171.112 122.053,171.157 122.053,171.203 
		122.084,171.265 122.116,171.31 122.161,171.371 122.222,171.417 122.285,171.479 122.343,171.539 	"/>
	<polyline fill="none" stroke="#232323" stroke-miterlimit="10" points="158.37,19.229 158.599,19.352 158.828,19.505 
		159.059,19.642 159.286,19.781 159.501,19.95 159.729,20.103 159.96,20.269 160.204,20.468 160.434,20.666 160.678,20.866 
		160.922,21.079 161.149,21.292 161.381,21.521 161.609,21.735 161.839,21.979 162.053,22.208 162.266,22.453 162.481,22.683 
		162.679,22.927 162.877,23.187 163.076,23.432 163.29,23.69 163.487,23.982 163.702,24.272 163.9,24.562 164.113,24.867 
		164.313,25.188 164.512,25.493 164.695,25.799 164.879,26.12 165.062,26.441 165.246,26.762 165.413,27.099 165.597,27.434 
		165.766,27.771 165.933,28.121 166.085,28.473 166.238,28.826 166.391,29.176 166.545,29.542 166.682,29.911 	"/>
	<polyline fill="none" stroke="#232323" stroke-miterlimit="10" points="149.172,26.044 149.477,26.075 149.769,26.105 
		150.059,26.151 150.349,26.212 150.64,26.273 150.915,26.35 151.188,26.426 151.449,26.502 151.709,26.594 151.967,26.702 
		152.213,26.808 152.457,26.931 152.702,27.052 152.916,27.175 153.13,27.312 153.344,27.434 153.542,27.572 153.741,27.726 
		153.954,27.894 154.152,28.061 154.352,28.245 154.55,28.426 154.734,28.626 154.917,28.81 155.085,29.024 155.252,29.221 
		155.406,29.421 155.542,29.635 155.682,29.848 155.834,30.062 155.972,30.292 156.095,30.537 156.216,30.764 156.322,30.995 
		156.444,31.238 156.554,31.483 156.643,31.743 156.734,32.003 156.827,32.262 156.919,32.538 156.996,32.828 157.072,33.102 
		157.132,33.393 157.195,33.683 157.253,33.975 157.301,34.28 157.362,34.615 157.393,34.951 157.422,35.287 157.454,35.639 
		157.47,35.992 157.485,36.341 157.485,36.708 	"/>
	<line fill="none" stroke="#232323" stroke-miterlimit="10" x1="157.485" y1="36.708" x2="157.881" y2="224.387"/>
	<path fill="none" stroke="#232323" stroke-miterlimit="10" d="M167.354,33.53c0-1.237-0.229-2.458-0.672-3.62"/>
	<line fill="none" stroke="#232323" stroke-miterlimit="10" x1="167.767" y1="229.81" x2="167.354" y2="33.53"/>
	<path fill="none" stroke="#232323" stroke-miterlimit="10" d="M167.552,231.032c0.152-0.396,0.215-0.809,0.215-1.222"/>
	<polyline fill="none" stroke="#232323" stroke-miterlimit="10" points="155.605,18.45 155.88,18.481 156.139,18.512 
		156.416,18.557 156.69,18.604 156.934,18.666 157.195,18.757 157.438,18.833 157.683,18.909 157.912,19.001 158.14,19.124 
		158.37,19.229 	"/>
	<polyline fill="none" stroke="#232323" stroke-miterlimit="10" points="189.047,29.497 189.047,29.284 189.047,29.068 
		189.036,28.855 189.036,28.642 189.021,28.426 189.004,28.213 188.988,28 188.958,27.787 188.942,27.557 188.91,27.357 
		188.88,27.128 188.848,26.915 188.82,26.702 188.773,26.488 188.743,26.273 188.699,26.075 188.652,25.862 188.605,25.647 
		188.56,25.433 188.515,25.22 188.453,25.004 188.394,24.807 188.332,24.593 188.27,24.378 188.209,24.18 188.131,23.982 
		188.058,23.783 187.994,23.569 187.916,23.371 187.843,23.172 187.752,22.973 187.674,22.774 187.583,22.577 187.505,22.377 
		187.414,22.193 187.321,21.995 187.23,21.813 187.126,21.614 187.016,21.43 186.925,21.248 186.819,21.063 186.71,20.881 
		186.604,20.697 186.498,20.529 186.374,20.345 186.269,20.177 186.147,19.994 186.024,19.826 185.92,19.657 185.779,19.489 
		185.657,19.323 185.536,19.155 185.41,19.001 185.277,18.833 185.136,18.681 185.015,18.528 184.863,18.375 184.74,18.236 
		184.604,18.084 184.451,17.946 184.313,17.794 184.157,17.657 184.023,17.518 183.867,17.381 183.735,17.259 183.562,17.123 
		183.43,16.999 183.271,16.878 183.107,16.754 182.951,16.633 182.802,16.511 182.646,16.404 182.481,16.296 182.325,16.19 
		182.161,16.083 181.989,15.991 181.823,15.885 181.67,15.793 181.503,15.701 181.334,15.609 181.166,15.517 180.998,15.441 
		180.813,15.364 180.645,15.288 180.476,15.211 180.295,15.135 180.126,15.074 179.957,14.998 179.792,14.938 179.607,14.875 
		179.438,14.83 179.255,14.769 179.088,14.722 178.905,14.677 178.721,14.647 178.552,14.585 178.371,14.554 178.187,14.524 
		178.002,14.495 177.834,14.463 177.651,14.448 177.484,14.432 177.3,14.417 	"/>
	<line fill="none" stroke="#232323" stroke-miterlimit="10" x1="155.116" y1="227.473" x2="149.569" y2="226.999"/>
	<line fill="none" stroke="#232323" stroke-miterlimit="10" x1="137.958" y1="25.157" x2="149.172" y2="26.044"/>
	<polyline fill="none" stroke="#232323" stroke-miterlimit="10" points="157.881,224.387 157.881,224.601 157.867,224.798 
		157.85,224.998 157.819,225.182 157.79,225.364 157.743,225.548 157.698,225.716 157.654,225.885 157.591,226.037 157.514,226.19 
		157.454,226.311 157.393,226.435 157.301,226.556 157.224,226.648 157.147,226.756 157.055,226.861 156.948,226.953 
		156.842,227.03 156.734,227.106 156.598,227.198 156.475,227.259 156.353,227.304 156.216,227.367 156.08,227.396 155.941,227.428 
		155.79,227.457 155.636,227.488 155.469,227.488 155.3,227.488 155.116,227.473 	"/>
	<line fill="none" stroke="#232323" stroke-miterlimit="10" x1="155.605" y1="18.45" x2="141.335" y2="17.244"/>
	<polyline fill="none" stroke="#232323" stroke-miterlimit="10" points="140.235,17.336 140.403,17.291 140.571,17.275 
		140.739,17.244 140.891,17.244 141.044,17.228 141.197,17.228 141.335,17.244 	"/>
	<line fill="none" stroke="#232323" stroke-miterlimit="10" x1="189.458" y1="225.777" x2="189.047" y2="29.497"/>
	<line fill="none" stroke="#232323" stroke-miterlimit="10" x1="177.3" y1="14.417" x2="163.029" y2="13.211"/>
	<polyline fill="none" stroke="#232323" stroke-miterlimit="10" points="137.469,20.421 137.484,20.239 137.515,20.055 
		137.561,19.872 137.607,19.689 137.668,19.521 137.729,19.352 137.79,19.199 137.882,19.031 137.974,18.862 138.081,18.726 
		138.173,18.573 138.294,18.436 138.4,18.329 138.523,18.207 138.647,18.099 138.784,17.992 138.938,17.886 139.074,17.794 
		139.228,17.702 139.427,17.612 139.608,17.534 139.806,17.457 140.022,17.396 140.235,17.336 	"/>
	<line fill="none" stroke="#232323" stroke-miterlimit="10" x1="137.44" y1="21.614" x2="137.774" y2="183.945"/>
	<path fill="none" stroke="#232323" stroke-miterlimit="10" d="M137.469,20.421c-0.029,0.397-0.029,0.795-0.029,1.192"/>
	<polyline fill="none" stroke="#232323" stroke-miterlimit="10" points="163.029,13.211 162.923,13.195 162.815,13.195 
		162.708,13.195 162.617,13.195 162.51,13.211 162.402,13.211 162.297,13.226 162.205,13.242 162.175,13.242 	"/>
	<polyline fill="none" stroke="#232323" stroke-miterlimit="10" points="167.552,231.032 167.477,231.231 167.398,231.431 
		167.31,231.613 167.217,231.797 167.125,231.979 167.033,232.147 166.924,232.316 166.82,232.484 166.711,232.653 166.59,232.806 
		166.467,232.958 166.361,233.079 166.254,233.203 166.133,233.311 166.025,233.416 165.902,233.523 165.78,233.629 
		165.659,233.706 165.519,233.798 165.382,233.89 165.246,233.951 165.092,234.027 164.94,234.074 164.787,234.119 	"/>
	<line fill="none" stroke="#232323" stroke-miterlimit="10" x1="152.794" y1="233.248" x2="163.871" y2="234.18"/>
	<polyline fill="none" stroke="#232323" stroke-miterlimit="10" points="164.787,234.119 164.666,234.148 164.543,234.164 
		164.422,234.18 164.282,234.196 164.146,234.196 164.008,234.196 163.871,234.18 	"/>
	<polyline fill="none" stroke="#232323" stroke-miterlimit="10" points="186.42,230.1 186.498,230.086 186.589,230.07 
		186.695,230.039 186.788,230.01 186.895,229.979 186.984,229.933 187.094,229.902 187.185,229.857 187.273,229.81 187.368,229.765 
		187.462,229.72 187.553,229.657 187.626,229.596 187.736,229.552 187.811,229.474 187.889,229.415 187.979,229.336 
		188.058,229.275 188.131,229.199 188.209,229.123 188.284,229.031 188.362,228.954 188.437,228.878 188.499,228.788 
		188.574,228.694 188.638,228.604 188.699,228.512 188.759,228.404 188.82,228.314 188.88,228.222 188.926,228.114 188.988,228.009 
		189.036,227.901 189.079,227.793 189.127,227.688 189.153,227.58 189.2,227.473 189.231,227.351 189.264,227.229 189.311,227.106 
		189.342,226.999 189.357,226.877 189.385,226.756 189.4,226.633 189.415,226.524 189.433,226.388 189.447,226.267 189.458,226.143 
		189.458,226.022 189.458,225.898 189.458,225.777 	"/>
	<line fill="none" stroke="#232323" stroke-miterlimit="10" x1="203.395" y1="374.036" x2="149.279" y2="369.471"/>
	<line fill="none" stroke="#232323" stroke-miterlimit="10" x1="285.178" y1="293.996" x2="281.697" y2="286.951"/>
	<line fill="none" stroke="#232323" stroke-miterlimit="10" x1="327.623" y1="251.948" x2="327.701" y2="286.096"/>
	<polyline fill="none" stroke="#232323" stroke-miterlimit="10" points="285.178,293.996 285.24,294.117 285.303,294.24 
		285.335,294.362 285.366,294.467 285.394,294.59 285.394,294.714 285.394,294.82 	"/>
	<polyline fill="none" stroke="#232323" stroke-miterlimit="10" points="285.162,295.507 285.178,295.493 285.21,295.493 
		285.24,295.462 285.272,295.43 285.303,295.385 285.318,295.324 285.335,295.278 285.366,295.201 285.378,295.125 285.378,295.033 
		285.394,294.941 285.394,294.88 285.394,294.82 	"/>
	<polyline fill="none" stroke="#232323" stroke-miterlimit="10" points="326.479,287.822 326.511,287.822 326.568,287.807 
		326.629,287.792 326.689,287.762 326.753,287.746 326.815,287.715 326.858,287.686 326.917,287.654 326.98,287.607 
		327.043,287.577 327.091,287.533 327.134,287.485 327.18,287.441 327.227,287.393 327.27,287.333 327.333,287.288 327.363,287.228 
		327.411,287.165 327.441,287.104 327.47,287.043 327.502,286.983 327.532,286.906 327.56,286.844 327.591,286.769 327.605,286.707 
		327.623,286.63 327.653,286.554 327.669,286.477 327.685,286.401 327.685,286.325 327.701,286.249 327.701,286.172 
		327.701,286.096 	"/>
	<polyline fill="none" stroke="#232323" stroke-miterlimit="10" points="221.226,305.147 221.12,305.162 220.979,305.178 
		220.873,305.209 220.752,305.24 220.626,305.272 220.524,305.303 220.399,305.346 220.277,305.389 220.172,305.436 
		220.062,305.483 219.941,305.546 219.836,305.593 219.726,305.651 219.621,305.71 219.516,305.773 219.404,305.852 
		219.299,305.914 219.21,305.988 219.1,306.063 218.993,306.141 218.903,306.235 218.81,306.31 218.721,306.399 218.63,306.493 
		218.536,306.584 218.445,306.674 218.353,306.783 218.277,306.874 218.199,306.979 218.125,307.089 218.034,307.194 
		217.956,307.301 217.894,307.41 217.819,307.531 217.757,307.652 217.682,307.762 217.62,307.88 217.558,308.005 217.497,308.127 
		217.437,308.248 217.376,308.389 217.33,308.506 217.282,308.647 217.235,308.769 217.192,308.905 217.146,309.047 217.114,309.18 
		217.071,309.321 217.04,309.454 217.008,309.61 216.978,309.744 216.946,309.884 216.93,310.021 216.899,310.174 216.887,310.312 
		216.871,310.464 216.856,310.605 216.856,310.754 216.841,310.91 216.841,311.043 216.841,311.2 	"/>
	<line fill="none" stroke="#232323" stroke-miterlimit="10" x1="204.647" y1="374.068" x2="216.978" y2="373.888"/>
	<line fill="none" stroke="#232323" stroke-miterlimit="10" x1="216.841" y1="310.464" x2="216.978" y2="373.888"/>
	<polyline fill="none" stroke="#232323" stroke-miterlimit="10" points="259.496,302.688 259.496,302.551 259.512,302.413 
		259.512,302.273 259.527,302.14 259.527,301.983 259.543,301.865 259.56,301.725 259.59,301.588 259.603,301.45 259.633,301.313 
		259.664,301.19 259.696,301.053 259.727,300.916 259.759,300.794 259.805,300.656 259.848,300.534 259.896,300.411 259.938,300.29 
		259.986,300.168 260.032,300.045 260.095,299.921 260.153,299.815 260.201,299.694 260.259,299.587 260.322,299.463 260.4,299.357 
		260.46,299.25 260.506,299.189 	"/>
	<polyline fill="none" stroke="#232323" stroke-miterlimit="10" points="203.395,374.036 203.456,374.036 203.531,374.036 
		203.609,374.052 203.688,374.052 203.762,374.052 203.837,374.068 203.915,374.068 203.993,374.068 204.068,374.068 
		204.157,374.068 204.236,374.068 204.326,374.068 204.404,374.068 204.495,374.068 204.573,374.068 204.647,374.068 	"/>
	<polyline fill="none" stroke="#232323" stroke-miterlimit="10" points="216.978,373.888 217.056,373.888 217.129,373.888 
		217.22,373.888 217.298,373.888 217.376,373.888 217.451,373.872 217.525,373.872 217.604,373.872 217.682,373.856 
		217.741,373.856 217.819,373.856 217.894,373.841 217.956,373.841 218.02,373.841 218.077,373.825 218.136,373.81 218.199,373.81 
		218.246,373.794 218.292,373.794 218.353,373.778 	"/>
	<line fill="none" stroke="#232323" stroke-miterlimit="10" x1="259.496" y1="302.688" x2="259.633" y2="366.107"/>
	<line fill="none" stroke="#232323" stroke-miterlimit="10" x1="259.633" y1="365.618" x2="218.077" y2="373.825"/>
	<polyline fill="none" stroke="#232323" stroke-miterlimit="10" points="148.53,369.346 148.546,369.346 148.576,369.361 
		148.608,369.377 148.653,369.377 148.682,369.393 148.729,369.393 148.76,369.408 148.807,369.424 148.866,369.424 
		148.914,369.439 148.974,369.439 149.035,369.456 149.097,369.456 149.156,369.456 149.219,369.471 149.296,369.471 	"/>
	<line fill="none" stroke="#232323" stroke-miterlimit="10" x1="145.247" y1="367.85" x2="148.53" y2="369.33"/>
	<polyline fill="none" stroke="#232323" stroke-miterlimit="10" points="145.17,367.771 145.17,367.787 145.186,367.803 
		145.186,367.803 145.199,367.818 145.216,367.835 145.247,367.85 	"/>
	<line fill="none" stroke="#232323" stroke-miterlimit="10" x1="185.946" y1="441.247" x2="161.686" y2="441.783"/>
	<polyline fill="none" stroke="#232323" stroke-miterlimit="10" points="163.305,441.783 163.213,441.783 163.138,441.783 
		163.045,441.783 162.955,441.783 162.863,441.783 162.771,441.783 162.694,441.783 162.602,441.783 162.51,441.783 
		162.418,441.783 162.343,441.783 162.25,441.783 162.16,441.767 162.083,441.767 162.007,441.767 161.915,441.767 161.839,441.752 
		161.763,441.752 161.686,441.752 161.609,441.736 161.534,441.736 	"/>
	<line fill="none" stroke="#232323" stroke-miterlimit="10" x1="161.534" y1="441.736" x2="51.742" y2="432.492"/>
	<polyline fill="none" stroke="#232323" stroke-miterlimit="10" points="51.728,432.492 51.667,432.479 51.589,432.479 
		51.515,432.464 51.453,432.464 51.392,432.464 51.331,432.449 51.27,432.433 51.223,432.433 51.163,432.417 51.117,432.417 
		51.057,432.401 51.025,432.386 50.979,432.37 50.933,432.37 50.904,432.354 50.857,432.354 50.826,432.339 50.811,432.323 
		50.78,432.323 50.765,432.308 50.736,432.291 	"/>
	<line fill="none" stroke="#232323" stroke-miterlimit="10" x1="50.75" y1="432.291" x2="46.792" y2="429.653"/>
	<polyline fill="none" stroke="#232323" stroke-miterlimit="10" points="46.792,429.653 46.777,429.637 46.777,429.622 
		46.761,429.622 46.761,429.59 46.761,429.59 46.761,429.574 46.761,429.559 46.777,429.559 46.777,429.543 46.792,429.527 
		46.824,429.512 46.839,429.512 46.853,429.496 46.885,429.48 46.915,429.48 46.945,429.465 46.993,429.449 47.022,429.449 
		47.066,429.434 47.129,429.434 47.175,429.422 	"/>
	<line fill="none" stroke="#232323" stroke-miterlimit="10" x1="47.175" y1="429.422" x2="61.2" y2="426.81"/>
	<line fill="none" stroke="#232323" stroke-miterlimit="10" x1="291.396" y1="415.044" x2="315.293" y2="417.061"/>
	<line fill="none" stroke="#232323" stroke-miterlimit="10" x1="315.293" y1="417.061" x2="185.963" y2="441.109"/>
	<polyline fill="none" stroke="#232323" stroke-miterlimit="10" points="185.946,441.109 185.903,441.125 185.842,441.125 
		185.794,441.141 185.731,441.156 185.673,441.156 185.614,441.173 185.536,441.173 185.474,441.173 185.398,441.188 
		185.32,441.188 185.262,441.204 185.184,441.204 185.105,441.204 185.015,441.219 184.941,441.219 184.863,441.219 184.772,441.23 
		184.694,441.23 184.604,441.23 184.525,441.23 184.435,441.23 	"/>
	<line fill="none" stroke="#232323" stroke-miterlimit="10" x1="184.74" y1="584.617" x2="163.61" y2="585.17"/>
	<polyline fill="none" stroke="#232323" stroke-miterlimit="10" points="163.61,585.17 163.518,585.17 163.443,585.17 
		163.334,585.17 163.26,585.17 163.168,585.17 163.076,585.17 162.984,585.17 162.907,585.17 162.815,585.17 162.723,585.17 
		162.634,585.17 162.556,585.17 162.465,585.154 162.389,585.154 162.297,585.154 162.22,585.154 162.145,585.138 162.053,585.138 
		161.976,585.138 161.915,585.122 161.839,585.122 	"/>
	<line fill="none" stroke="#232323" stroke-miterlimit="10" x1="161.839" y1="585.122" x2="161.534" y2="441.736"/>
	<line fill="none" stroke="#232323" stroke-miterlimit="10" x1="161.839" y1="585.122" x2="52.034" y2="575.878"/>
	<line fill="none" stroke="#232323" stroke-miterlimit="10" x1="186.251" y1="584.496" x2="185.963" y2="441.109"/>
	<polyline fill="none" stroke="#232323" stroke-miterlimit="10" points="186.251,584.496 186.193,584.496 186.147,584.512 
		186.084,584.512 186.037,584.527 185.979,584.542 185.92,584.56 185.842,584.56 185.764,584.56 185.704,584.574 185.625,584.574 
		185.552,584.59 185.474,584.59 185.398,584.59 185.32,584.603 185.246,584.603 185.151,584.603 185.078,584.617 184.999,584.617 
		184.909,584.617 184.815,584.617 184.74,584.617 	"/>
	<line fill="none" stroke="#232323" stroke-miterlimit="10" x1="315.601" y1="560.446" x2="315.293" y2="417.061"/>
	<line fill="none" stroke="#232323" stroke-miterlimit="10" x1="315.601" y1="560.446" x2="186.251" y2="584.496"/>
	<polyline fill="none" stroke="#232323" stroke-miterlimit="10" points="52.034,575.867 51.958,575.867 51.896,575.851 
		51.82,575.851 51.758,575.851 51.697,575.835 51.637,575.835 51.576,575.819 51.515,575.804 51.468,575.804 51.423,575.787 
		51.362,575.787 51.315,575.771 51.27,575.757 51.238,575.757 51.194,575.741 51.163,575.741 51.131,575.726 51.117,575.711 
		51.086,575.711 51.07,575.693 51.041,575.679 	"/>
	<line fill="none" stroke="#232323" stroke-miterlimit="10" x1="47.098" y1="573.023" x2="46.792" y2="429.637"/>
	<line fill="none" stroke="#232323" stroke-miterlimit="10" x1="51.041" y1="575.679" x2="47.098" y2="573.023"/>
	<polyline fill="none" stroke="#232323" stroke-miterlimit="10" points="47.098,573.023 47.083,573.023 47.066,573.009 
		47.066,572.991 47.054,572.977 47.054,572.977 	"/>
	<polyline fill="none" stroke="#232323" stroke-miterlimit="10" points="174.045,399.401 174.001,399.401 173.985,399.401 	"/>
	<line fill="none" stroke="#232323" stroke-miterlimit="10" x1="173.969" y1="399.401" x2="150.15" y2="404.883"/>
	<line fill="none" stroke="#232323" stroke-miterlimit="10" x1="150.15" y1="404.867" x2="34.067" y2="395.091"/>
	<line fill="none" stroke="#232323" stroke-miterlimit="10" x1="33.821" y1="424.257" x2="176.094" y2="436.481"/>
	<polyline fill="none" stroke="#232323" stroke-miterlimit="10" points="149.723,405.878 149.723,405.815 149.723,405.769 
		149.738,405.709 149.738,405.65 149.753,405.588 149.753,405.541 149.769,405.479 149.782,405.432 149.799,405.389 
		149.814,405.346 149.83,405.282 149.845,405.235 149.875,405.188 149.907,405.142 149.922,405.113 149.951,405.067 
		149.983,405.039 149.999,405.008 150.028,404.961 150.059,404.945 150.088,404.914 150.12,404.899 150.15,404.867 	"/>
	<line fill="none" stroke="#232323" stroke-miterlimit="10" x1="149.723" y1="405.878" x2="149.782" y2="433.897"/>
	<line fill="none" stroke="#232323" stroke-miterlimit="10" x1="176.017" y1="398.881" x2="174.045" y2="399.401"/>
	<polyline fill="none" stroke="#232323" stroke-miterlimit="10" points="32.936,396.038 32.936,395.979 32.952,395.932 
		32.952,395.869 32.967,395.807 32.981,395.764 32.996,395.717 33.028,395.658 33.042,395.611 33.073,395.563 33.104,395.517 
		33.135,395.471 33.18,395.428 33.209,395.399 33.257,395.353 33.302,395.321 33.349,395.29 33.394,395.259 33.441,395.227 
		33.502,395.212 33.546,395.181 33.607,395.165 33.654,395.148 33.715,395.138 33.776,395.138 	"/>
	<polyline fill="none" stroke="#232323" stroke-miterlimit="10" points="33.318,386.903 33.257,386.95 33.209,386.981 
		33.149,387.024 33.104,387.083 33.057,387.13 33.012,387.192 32.981,387.271 32.952,387.33 32.936,387.404 32.92,387.451 
		32.92,387.498 32.904,387.561 32.904,387.619 	"/>
	<line fill="none" stroke="#232323" stroke-miterlimit="10" x1="32.904" y1="388.446" x2="32.981" y2="423.23"/>
	<polyline fill="none" stroke="#232323" stroke-miterlimit="10" points="32.904,388.446 32.904,388.398 32.904,388.352 	"/>
	<polyline fill="none" stroke="#232323" stroke-miterlimit="10" points="32.981,423.325 32.981,423.277 32.981,423.23 	"/>
	<polyline fill="none" stroke="#232323" stroke-miterlimit="10" points="32.967,422.15 32.967,422.197 32.981,422.256 
		32.981,422.314 32.996,422.378 33.012,422.425 33.028,422.487 33.057,422.53 33.073,422.573 33.104,422.637 33.135,422.684 
		33.165,422.73 33.209,422.776 33.257,422.823 33.288,422.852 33.333,422.883 33.378,422.926 33.425,422.957 33.486,422.973 
		33.531,423.004 33.593,423.035 33.638,423.051 33.699,423.066 33.747,423.082 33.807,423.082 	"/>
	<polyline fill="none" stroke="#232323" stroke-miterlimit="10" points="32.981,423.325 32.981,423.435 32.996,423.536 
		33.028,423.631 33.073,423.725 33.12,423.814 33.18,423.89 33.241,423.968 33.302,424.046 33.394,424.104 33.454,424.132 
		33.515,424.163 33.578,424.194 33.638,424.21 33.699,424.226 33.73,424.241 33.776,424.241 	"/>
	<polyline fill="none" stroke="#232323" stroke-miterlimit="10" points="33.776,424.241 33.807,424.241 33.821,424.257 	"/>
	<line fill="none" stroke="#232323" stroke-miterlimit="10" x1="145.17" y1="366.064" x2="33.318" y2="386.856"/>
	<line fill="none" stroke="#232323" stroke-miterlimit="10" x1="325.195" y1="371.135" x2="259.633" y2="365.618"/>
	<line fill="none" stroke="#232323" stroke-miterlimit="10" x1="176.017" y1="398.881" x2="325.195" y2="371.135"/>
	<line fill="none" stroke="#232323" stroke-miterlimit="10" x1="33.318" y1="386.856" x2="176.017" y2="398.881"/>
	<line fill="none" stroke="#232323" stroke-miterlimit="10" x1="325.195" y1="371.135" x2="325.27" y2="408.752"/>
	<line fill="none" stroke="#232323" stroke-miterlimit="10" x1="325.27" y1="408.752" x2="176.094" y2="436.497"/>
	<line fill="none" stroke="#232323" stroke-miterlimit="10" x1="176.017" y1="398.881" x2="176.094" y2="436.497"/>
	<line fill="none" stroke="#232323" stroke-miterlimit="10" x1="32.904" y1="388.478" x2="32.904" y2="387.678"/>
	<polyline fill="none" stroke="#232323" stroke-miterlimit="10" points="60.452,247.992 60.452,248.115 60.452,248.237 
		60.452,248.358 60.468,248.481 60.468,248.603 60.481,248.726 60.497,248.848 60.513,248.969 60.528,249.092 60.544,249.213 
		60.56,249.321 60.589,249.443 60.605,249.55 60.634,249.658 60.649,249.779 60.681,249.887 60.726,249.993 60.758,250.1 
		60.787,250.206 60.818,250.3 60.865,250.405 60.895,250.513 60.939,250.605 60.971,250.695 61.018,250.788 61.079,250.88 
		61.124,250.956 61.17,251.048 61.216,251.125 61.261,251.2 61.308,251.277 61.368,251.353 61.429,251.43 61.476,251.49 
		61.537,251.566 61.597,251.627 61.645,251.674 61.719,251.735 61.781,251.796 61.843,251.842 61.902,251.888 61.965,251.933 
		62.026,251.98 62.086,252.011 62.163,252.041 62.224,252.072 62.284,252.116 62.361,252.132 62.437,252.164 62.498,252.178 
		62.561,252.193 62.637,252.208 62.713,252.208 62.729,252.208 	"/>
	<polyline fill="none" stroke="#232323" stroke-miterlimit="10" points="65.249,203.134 65.235,203.134 65.204,203.134 
		65.172,203.134 	"/>
	<polyline fill="none" stroke="#232323" stroke-miterlimit="10" points="44.532,201.393 44.516,201.393 44.486,201.393 
		44.455,201.393 	"/>
	<polyline fill="none" stroke="#232323" stroke-miterlimit="10" points="42.133,201.791 42.178,201.791 42.226,201.791 
		42.27,201.791 42.317,201.791 	"/>
	<polyline fill="none" stroke="#232323" stroke-miterlimit="10" points="44.287,201.393 44.318,201.393 44.363,201.393 
		44.411,201.393 44.455,201.393 	"/>
	<line fill="none" stroke="#232323" stroke-miterlimit="10" x1="41.109" y1="202.249" x2="29.33" y2="201.148"/>
	<line fill="none" stroke="#232323" stroke-miterlimit="10" x1="220.51" y1="169.507" x2="189.357" y2="175.298"/>
	<line fill="none" stroke="#232323" stroke-miterlimit="10" x1="189.342" y1="166.896" x2="220.51" y2="169.522"/>
	<polyline fill="none" stroke="#232323" stroke-miterlimit="10" points="220.904,169.491 220.857,169.491 220.782,169.491 
		220.704,169.491 220.643,169.491 220.567,169.507 220.51,169.522 	"/>
	<polyline fill="none" stroke="#232323" stroke-miterlimit="10" points="332.846,229.383 332.803,229.383 332.744,229.383 
		332.697,229.383 332.649,229.383 	"/>
	<polyline fill="none" stroke="#232323" stroke-miterlimit="10" points="338.978,249.84 339.021,249.826 339.067,249.81 
		339.126,249.795 339.174,249.779 339.22,249.748 339.268,249.718 339.311,249.688 339.357,249.658 339.386,249.626 
		339.432,249.579 339.462,249.534 339.51,249.489 339.542,249.443 339.572,249.397 339.601,249.352 339.631,249.306 
		339.646,249.245 339.679,249.184 339.693,249.121 339.706,249.061 339.706,249.016 339.722,248.955 339.736,248.879 
		339.736,248.816 339.736,248.755 	"/>
	<polyline fill="none" stroke="#232323" stroke-miterlimit="10" points="338.82,229.857 338.79,229.857 338.763,229.857 
		338.715,229.873 	"/>
	<polyline fill="none" stroke="#232323" stroke-miterlimit="10" points="339.908,231.047 339.908,231.047 339.894,231.063 
		339.894,231.063 339.878,231.079 339.862,231.079 339.848,231.094 339.815,231.094 339.8,231.11 339.769,231.11 339.736,231.125 
		339.706,231.125 	"/>
	<polyline fill="none" stroke="#232323" stroke-miterlimit="10" points="339.937,248.663 339.937,248.679 339.937,248.695 
		339.921,248.695 339.908,248.71 339.894,248.71 339.878,248.726 339.862,248.726 339.83,248.742 339.8,248.742 339.769,248.755 
		339.736,248.755 	"/>
	<polyline fill="none" stroke="#232323" stroke-miterlimit="10" points="332.955,229.368 332.924,229.368 332.892,229.368 
		332.861,229.383 	"/>
	<line fill="none" stroke="#232323" stroke-miterlimit="10" x1="281.882" y1="287.654" x2="281.818" y2="260.596"/>
	<line fill="none" stroke="#232323" stroke-miterlimit="10" x1="100.176" y1="243.027" x2="276.379" y2="257.953"/>
	<polyline fill="none" stroke="#232323" stroke-miterlimit="10" points="145.033,304.371 145.033,304.383 145.047,304.383 
		145.047,304.399 145.062,304.414 145.095,304.414 145.107,304.43 	"/>
	<polyline fill="none" stroke="#232323" stroke-miterlimit="10" points="72.43,268.419 72.43,268.435 72.461,268.479 72.49,268.526 
		72.522,268.556 72.553,268.587 72.583,268.632 72.628,268.664 72.674,268.693 72.721,268.725 72.767,268.754 72.812,268.77 
		72.874,268.801 72.919,268.832 72.98,268.846 73.041,268.862 73.101,268.877 	"/>
	<line fill="none" stroke="#232323" stroke-miterlimit="10" x1="121.962" y1="136.231" x2="137.164" y2="130.35"/>
	<line fill="none" stroke="#232323" stroke-miterlimit="10" x1="122.343" y1="172.303" x2="136.384" y2="174.213"/>
	<path fill="none" stroke="#232323" stroke-miterlimit="10" d="M282.734,259.771c0,0-5.102,1.39-5.102-2.2"/>
	<path fill="none" stroke="#232323" stroke-miterlimit="10" d="M30.185,200.874c0,0-6.63,1.527-5.286,8.982"/>
	<path fill="none" stroke="#232323" stroke-miterlimit="10" d="M24.975,239.07c0,0-0.489,8.097,6.005,8.508"/>
	<line fill="none" stroke="#232323" stroke-miterlimit="10" x1="62.163" y1="252.88" x2="67.312" y2="249.137"/>
</g>
</svg>
