<?xml version="1.0" encoding="utf-8"?>
<!-- Generator: Adobe Illustrator 16.0.0, SVG Export Plug-In . SVG Version: 6.00 Build 0)  -->
<!DOCTYPE svg PUBLIC "-//W3C//DTD SVG 1.1//EN" "http://www.w3.org/Graphics/SVG/1.1/DTD/svg11.dtd">
<svg version="1.1" id="Layer_1" xmlns="http://www.w3.org/2000/svg" xmlns:xlink="http://www.w3.org/1999/xlink" x="0px" y="0px"
	 width="432px" height="612px" viewBox="0 0 432 612" enable-background="new 0 0 432 612" xml:space="preserve">
<path fill="none" stroke="#232323" stroke-miterlimit="10" d="M355.307,584.223"/>
<path fill="none" stroke="#232323" stroke-miterlimit="10" d="M345.496,584.518"/>
<path fill="none" stroke="#232323" stroke-miterlimit="10" d="M355.307,584.223l-7.72-26.164c0,0,3.022-0.416,3.536-1.205
	c1.658-2.609-1.302-12.318-1.302-12.318s1.722-20.629,1.772-28.1c0.047-7.009-1.394-28.017-1.394-28.017s-2.646-11.454-2.71-15.351
	c-0.042-2.069,0.627-6.176,1.158-8.173c0.499-1.847,2.871-7.102,2.871-7.102s32.741-2.966,34.117-3.538
	c0.835-0.346,1.892-2.022,2.165-2.878c0.341-1.065-0.43-2.697-0.176-3.798c0.155-0.695,1.366-3.249,1.366-3.249l13.135-1.796
	c1.619-0.869,3.871-4.46,3.747-6.283c-0.126-1.749-2.722-4.921-4.386-5.485l-12.273,0.873l0.987-49.922
	c0,0,21.086-1.808,22.087-2.897c0.788-0.85,1.612-3.128,1.829-4.264c0.148-0.759,0.148-2.352-0.092-3.082
	c-0.402-1.268-2.087-3.384-2.938-4.402c-1.029-1.234-20.701,2.021-20.701,2.021l-0.993-14.278c0,0-0.277-2.178-0.637-2.786
	c-5.112-8.553-29.965-26.317-29.965-26.317s0.248-3.306,0.281-4.641c0.01-0.642,0.051-2.275-0.159-2.883
	c-0.274-0.797-1.752-2.249-2.398-2.798c-0.467-0.383-1.416-1.219-2.009-1.339c-3.063-0.625-12.271,2.332-12.271,2.332
	s-10.758-6.312-14.798-6.854c-3.011-0.395-11.998,2.043-11.998,2.043l-1.209-21.567c0,0-2.907-1.627-3.982-1.838
	c-0.829-0.167-2.558-0.137-3.37,0.095c-0.973,0.292-3.5,2.102-3.5,2.102l-1.611,24.355c0,0-30.32,5.044-33.966,8.385
	c-4.327,3.971-7.848,65.887-2.254,102.781c0.265,1.766,1.753,6.936,1.753,6.936l1.358,3.047l4.557,2.39l5.384,1.801l24.344,7.128
	c0,0,1.641,2.151,2.324,2.736c0.57,0.498,1.835,1.417,2.572,1.609c0.948,0.258,3-0.439,3.927-0.121
	c1.502,0.521,4.193,2.637,4.891,4.063c0.531,1.073-0.453,3.73,0.148,4.765c0.637,1.114,2.566,1.615,2.101,4.709
	c-0.474,3.098,0.23,5.045,0.23,5.045s-3.527,2.915-3.592,4.314c-0.069,1.685,3.892,5.496,3.892,5.496s-1.305,59.062-0.189,62.014
	c0.771,2.073,8.481,2.547,8.481,2.547s-1.153,11.704,1.13,14.192c1.525,1.654,7.151-0.411,7.151-0.411l9.486,26.374"/>
<path fill="none" stroke="#232323" stroke-miterlimit="10" d="M325.846,335.675c0,0,18.68,3.781,28.717,8.121
	c8.806,3.8,20.107,10.005,24.87,15.592c0.316,0.359,0.654,1.272,0.763,1.731c0.112,0.515,0.214,1.6,0.055,2.101
	c-2.444,8.257-10.45,17.3-20.641,27.555c-13.204,13.311-31.58,18.062-31.58,18.062"/>
<path fill="none" stroke="#232323" stroke-miterlimit="10" d="M290.207,401.292c0.102,3.995-1.014,7.258-3.214,7.324
	c-2.978,0.09-4.522-3.096-4.635-7.094c-0.125-3.979,1.989-7.27,4.189-7.346C289.403,394.094,290.124,397.584,290.207,401.292z"/>
<path fill="none" stroke="#232323" stroke-miterlimit="10" d="M317.766,370.425c0.105,3.717-0.946,5.921-5.005,6.6l-38.376,6.484
	c-3.717,0.113-4.599,1.046-4.706-2.666l1.386-45.491c-0.119-3.726,3.264-5.409,6.607-6.229l37.67-6.743
	c3.709-0.118,2.387,7.151,2.502,10.868L317.766,370.425z"/>
<path fill="none" stroke="#232323" stroke-miterlimit="10" d="M289.64,405.872c-0.25,1.031-1.282,2.428-2.286,2.451
	c-1.314,0.037-2.133-0.198-2.17-1.239c-0.023-1.051,1.893-2.436,3.204-2.477C289.708,404.57,289.897,404.863,289.64,405.872z"/>
<path fill="none" stroke="#232323" stroke-miterlimit="10" d="M367.126,377.232c0,1.075-0.679,3.172-3.006,2.571
	c-1.188-0.305-5.391-4.328-5.384-11.053c0.009-5.716,2.895-11.04,5.481-6.681"/>
<path fill="none" stroke="#232323" stroke-miterlimit="10" d="M369.885,361.433l-6.777,0.765c0,0-3.063,0.434-2.031,9.319
	c0.563,4.892,3.46,6.136,3.46,6.136l7.754-1.565"/>
<path fill="none" stroke="#232323" stroke-miterlimit="10" d="M374.684,369.43c0.128,4.174,0,6.584-2.394,6.657
	c-2.398,0.079-5.022-3.658-5.15-7.84c-0.119-4.18,0.99-6.764,3.385-6.833C372.921,361.348,374.629,367.394,374.684,369.43z"/>
<path fill="none" stroke="#232323" stroke-miterlimit="10" d="M390.388,369.093c-0.352,0.037-0.712,0.226-2.771,0.434
	c-1.515,0.149-3.091,0.513-2.576,6.178c0.348,3.781,1.217,6.215,2.937,6.154c1.723-0.051,0.626,0.079,2.226-0.141"/>
<path fill="none" stroke="#232323" stroke-miterlimit="10" d="M389.528,431.349l-2.872,0.351c0,0-1.608,0.189-5.326,0.305
	l-0.271,0.007c-5.262,0.155-6.656,2.652-6.555,6.369v0.282c0.125,3.717,0.863,7.34,6.944,6.521l0.272-0.012
	c3.721-0.104,6.923-0.554,7.271-0.841"/>
<path fill="none" stroke="#232323" stroke-miterlimit="10" d="M302.943,447.185c-9.085-9.908,10.353-9.005,24.59-9.432
	c14.253-0.423,37.049,6.191,37.16,10.257c0.06,1.908,0.193,6.396-14.257,10.062"/>
<path fill="none" stroke="#232323" stroke-miterlimit="10" d="M318.357,462.153"/>
<path fill="none" stroke="#232323" stroke-miterlimit="10" d="M318.574,469.439"/>
<polyline fill="none" stroke="#232323" stroke-miterlimit="10" points="318.357,462.153 318.132,454.872 321.777,454.761 
	325.435,454.655 326.494,462.377 327.567,470.11 323.071,469.774 318.996,469.484 "/>
<path fill="none" stroke="#232323" stroke-miterlimit="10" d="M385.637,454.256l-55.527-24.246c0,0-1.799-1.072-2.215-1.616
	c-0.708-0.931-1.44-3.195-1.702-4.33c-3.628-15.742-3.831-48.359-4.361-64.52c-0.376-11.644,0.058-35.297,3.335-46.488
	c0.223-0.776,0.885-2.371,1.542-2.849c0.283-0.203,1.308-0.242,1.301-0.593"/>
<path fill="none" stroke="#232323" stroke-miterlimit="10" d="M267.135,400.652c-1.468-11.55-2.451-6.745-3.189-31.324
	c-0.736-24.586,6.071-43.174,7.615-45.635"/>
<path fill="none" stroke="#232323" stroke-miterlimit="10" d="M286.347,408.355"/>
<path fill="none" stroke="#232323" stroke-miterlimit="10" d="M275.115,323.588"/>
<path fill="none" stroke="#232323" stroke-miterlimit="10" d="M320.379,312.832c0,0,0.022,24.344-0.864,42.687
	c-0.821,16.986-2.245,39.152-2.245,39.152"/>
<line fill="none" stroke="#232323" stroke-miterlimit="10" x1="301.768" y1="314.718" x2="315.44" y2="311.571"/>
<path fill="none" stroke="#232323" stroke-miterlimit="10" d="M342.236,316.383c-4.105,0.122-4.005,3.732-3.879,7.688
	c0.118,3.943,3.635,9.151,6.154,5.998"/>
<path fill="none" stroke="#232323" stroke-miterlimit="10" d="M344.512,330.069l11.802-2.598c0,0,1.325-0.862,1.644-1.271
	c0.166-0.208,0.443-0.946,0.443-0.946"/>
<path fill="none" stroke="#232323" stroke-miterlimit="10" d="M191.3,374.443l-0.277-8.343l20.712-1.146l26.195-4.755
	c0,0,3.465-2.23,4.041-3.421c1.755-3.622-3.007-79.832-3.007-79.832l-1.975-28.52l-1.204-14.248c0,0-0.785-9.901-1.108-12.805
	c-0.303-2.901-1.482-9.268-1.926-12.146c-0.598-3.867-2.695-17.222-2.695-17.222s-3.367-12.778-4.331-16.575
	c-0.998-3.936-3.598-13.556-3.598-13.556l-4.427-14.362l-5.517-13.665l-5.528-11.604l-5.692-11.798l-6.729-10.791
	c0,0-4.548-8.058-6.212-10.646c-2.036-3.172-5.678-9.035-8.702-11.284c-0.747-0.563-1.686-1.26-2.328-1.539
	c-0.969-0.416-4.093-1.043-4.093-1.043s-3.396-1.451-4.562-1.848c-1.17-0.408-3.858-1.579-3.858-1.579l-5.732-3.587
	c0,0-3.331-2.455-4.621-3.251c-0.835-0.509-2.516-1.381-4.446-2.25c-1.928-0.872-4.167-1.857-5.404-2.298
	c-1.63-0.585-4.1-1.305-6.57-1.961c-2.493-0.65-4.981-1.241-6.694-1.563c-1.559-0.295-4.146-0.632-6.736-0.921
	c-2.583-0.292-5.176-0.53-6.771-0.626c-2.736-0.175-8.212-0.333-13.004-0.448c-4.788-0.113-8.894-0.183-8.894-0.183l-5.052-1.451
	l-5.039-1.45c0,0-1.524-0.323-3.285-0.648c-1.78-0.326-3.798-0.639-4.827-0.622c-0.235,0.007-0.604,0.078-0.96,0.174
	c-0.355,0.098-0.704,0.217-0.918,0.325c-0.504,0.247-1.212,0.701-1.879,1.206c-0.67,0.507-1.302,1.052-1.644,1.49
	c-2.003,2.512-5.065,8.167-7.618,13.19c-2.551,5.031-4.598,9.437-4.598,9.437c-8.087,15.945-13.708,30.461-17.328,40.999
	c-3.601,10.538-5.189,17.087-5.189,17.087s-2.627,8.166-5.292,19.804c-2.668,11.631-5.383,26.737-6.413,35.797
	c-0.739,6.355-1.644,14.533-2.415,23.534c-0.776,9-1.413,18.823-1.625,28.447c-0.152,6.731-0.484,20.216-0.792,32.021
	c-0.291,11.804-0.556,21.927-0.556,21.927s-0.164,10.7-0.333,23.182c-0.166,12.476-0.349,26.739-0.393,33.873
	c-0.009,0.621,0.1,1.569,0.282,2.491c0.189,0.921,0.457,1.833,0.757,2.37c0.228,0.428,0.59,0.854,0.992,1.233
	c0.406,0.376,0.85,0.706,1.284,0.946c0.501,0.279,1.099,0.524,1.713,0.734c0.609,0.205,1.235,0.371,1.801,0.514
	c1.87,0.433,5.24,0.638,8.135,0.728c2.895,0.1,5.333,0.084,5.333,0.084l1.025,0.521l1.039,0.523l15.747,0.508l15.747,0.502
	l1.184,1.724l1.184,1.723l-0.048,3.211l-0.056,3.211l1.346,37.481l-0.614,2.067l-0.212,5.079l-0.208,5.064l0.104,9.374l0.104,9.371
	l0.628,0.47l0.637,0.471l0.561,0.208l0.556,0.196l0.986,0.105l0.981,0.104l0.162,0.694l0.162,0.697l1.701-0.129l1.706-0.125
	l0.466,0.783l0.479,0.785l-0.376,2.215l-0.36,2.215l0.36,4.147l0.36,4.145l-1.24,1.087l-1.251,1.088l-0.877,7.043l-0.882,7.043
	l1.095,0.871l1.082,0.881c0,0,10.622,0.081,23.014,0.116c12.392,0.038,26.548,0.038,33.63-0.116
	c6.082-0.127,18.244-0.644,28.889-1.131c10.649-0.48,19.777-0.936,19.777-0.936l0.878-0.932l0.877-0.93l-1.18-6.831l-1.2-6.837
	l-0.674-0.823l-0.673-0.835c0,0,0.369-0.287,0.697-0.957c0.346-0.673,0.65-1.738,0.544-3.287c-0.111-1.655-0.544-2.844-0.966-3.627
	c-0.403-0.772-0.793-1.138-0.793-1.138l-0.458-2.276l-0.475-2.281l0.459-0.217l0.459-0.213l1.823-0.248l1.823-0.257l0.125-0.906
	l0.128-0.903c0,0,0.822,0,1.682-0.113c0.869-0.12,1.789-0.342,1.999-0.762c0.785-1.656,0.675-9.377,0.381-16.675
	c-0.307-7.297-0.801-14.186-0.801-14.186L191.3,374.443z"/>
<path fill="none" stroke="#232323" stroke-miterlimit="10" d="M103.319,71.096c2.281-0.096,13.976,0.933,13.976,0.933
	s11.392,1.864,11.812,1.864c0.415,0,8.585,1.965,8.585,1.965s6.625,2.348,8.809,3.214c0.963,0.376,2.935,1.097,3.824,1.635
	c1.145,0.702,3.746,2.154,4.15,3.436c2.145,6.943-7.974,27.958-7.974,27.958l-19.027-3.527l-3.776-0.412l-5.268,0.42l-1.849,0.413
	l-4.357-13.562l-3.619-10.773l-3.117-8.695L103.319,71.096z"/>
<path fill="none" stroke="#232323" stroke-miterlimit="10" d="M90.555,53.178l4.273,30.553l3.73,33.961l2.9,36.034l1.86,31.891
	l1.034,30.652l0.829,37.691l0.835,88.599c0,0,0.056,4.691-0.561,7.904c-0.392,2.092-1.583,3.588-4.409,4.282
	c-11.607,2.833-43.49,8.857-43.49,8.857"/>
<path fill="none" stroke="#232323" stroke-miterlimit="10" d="M116.582,108.995l6,26.923l6.315,30.785l4.456,36.728l2.9,43.076
	l1.925,47.625l0.976,45.085c0,0,0.683,10.709-0.693,13.722c-0.406,0.863-1.838,1.814-2.627,2.085
	c-14.978,5.007-62.528,9.082-62.528,9.082"/>
<path fill="none" stroke="#232323" stroke-miterlimit="10" d="M128.896,166.146l29.988-12.42c0,0,1.458-0.045,1.936,0
	c6.795,0.661,26.782,5.258,26.782,5.258"/>
<path fill="none" stroke="#232323" stroke-miterlimit="10" d="M166.416,83.73c2.968,1.344,5.637,5.522,6.417,7.867
	c1.004,2.989,2.665,9.092,3.452,12.144c0.954,3.711,2.56,11.195,3.453,14.918c0.388,1.602,1.613,6.4,1.613,6.4"/>
<path fill="none" stroke="#232323" stroke-miterlimit="10" d="M146.501,112.101l9.493,1.863l5.388,1.382l4.869,1.245
	c0,0,3.101,0.618,4.098,0.964c1.373,0.478,4.017,1.727,5.245,2.485c1.009,0.622,3.727,2.901,3.727,2.901l5.521,5.792l2.762,4.422
	l4.003,6.212l2.354,5.524l3.172,7.731l1.384,5.245l3.208,0.453l1.346,3.554l0.823,4.794l0.602,5.722l0.654,6.327l-0.421,6.628
	l-0.964,5.238l-0.899,4.767l-0.35,2.832l-0.696,1.102v0.689l-1.377,0.694h-1.098l-1.249,6.347l-1.383,5.249l-2.059,6.209
	l-2.352,6.767l-2.895,7.319l-4.007,7.729l-3.732,6.217l-3.862,5.797l-4.282,5.24l-5.104,5.245c0,0-5.275,4.21-7.182,5.389
	c-1.515,0.937-4.705,2.508-6.362,3.175c-0.82,0.34-3.408,1.11-3.408,1.11"/>
<line fill="none" stroke="#232323" stroke-miterlimit="10" x1="137.245" y1="271.235" x2="169.799" y2="274.253"/>
<path fill="none" stroke="#232323" stroke-miterlimit="10" d="M146.913,272.109c0,0,2.636,8.72,3.673,11.356
	c1.468,3.738,6.521,14.654,6.521,14.654s2.001,3.719,2.696,4.818c0.652,1.038,2.284,4.065,3.371,4.649
	c2.391,1.276,3.016,0.45,3.619,0.058c0.619-0.402,1.819-2.195,2.123-2.867c0.731-1.638,1.565-5.943,1.565-5.943
	s1.253-9.569,1.526-12.782c0.187-2.147,1.093-6.576,0.416-8.625c-0.325-0.973-2.623-3.174-2.623-3.174"/>
<path fill="none" stroke="#232323" stroke-miterlimit="10" d="M164.411,188.932l-0.332,7.939v7.66l0.332,7.871
	c0,0,0.337,6.038,0.554,7.939c0.199,1.771,0.812,5.005,1.103,6.769c0.183,1.067,0.781,3.649,1.154,4.744
	c0.195,0.547,0.696,1.826,1.199,2.092c0.944,0.499,1.613,0.199,2.131,0.062c0.568-0.165,1.458-0.96,2.059-1.572
	c1.242-1.265,5.037-4.968,5.037-4.968l5.984-6.674l5.635-7.011l5.11-8.555l2.894-5.522l1.976-5.029l3.619,0.675"/>
<path fill="none" stroke="#232323" stroke-miterlimit="10" d="M203.484,169.187c0,5.492-2.051,8.15-5.526,8.15
	c-3.472,0-7.133-3.704-8.103-9.107c-1.004-5.533,2.65-10.646,6.106-10.646C199.44,157.584,203.484,163.696,203.484,169.187z"/>
<line fill="none" stroke="#232323" stroke-miterlimit="10" x1="182.635" y1="159.937" x2="194.915" y2="157.584"/>
<line fill="none" stroke="#232323" stroke-miterlimit="10" x1="199.805" y1="177.034" x2="191.468" y2="181.618"/>
<path fill="none" stroke="#232323" stroke-miterlimit="10" d="M191.468,181.618c-10.73,10.216-16.498-1.033-17.631-8.288
	c-0.823-5.33,0.446-14.986,8.798-13.394"/>
<path fill="none" stroke="#232323" stroke-miterlimit="10" d="M171.175,160.763c0,0.877-0.541,1.594-1.205,1.594
	c-0.675,0-1.203-0.717-1.203-1.594c0-0.873,0.114-1.483,0.774-1.483C170.214,159.279,171.175,159.89,171.175,160.763z"/>
<path fill="none" stroke="#232323" stroke-miterlimit="10" d="M172.145,166.669c0,1.39-0.815,2.518-1.833,2.518
	c-1.008,0-1.823-1.127-1.823-2.518c0-1.392,0.815-2.52,1.823-2.52C171.33,164.149,172.145,165.277,172.145,166.669z"/>
<path fill="none" stroke="#232323" stroke-miterlimit="10" d="M171.733,171.812c0,0.949-0.576,1.727-1.281,1.727
	c-0.694,0-1.279-0.778-1.279-1.727c0-0.953,0.584-1.728,1.279-1.728C171.157,170.084,171.733,170.859,171.733,171.812z"/>
<path fill="none" stroke="#232323" stroke-miterlimit="10" d="M197.822,183.477c0,1.032-0.497,1.87-1.095,1.87
	c-0.605,0-1.092-0.837-1.092-1.87c0-1.027,0.487-1.858,1.092-1.858C197.326,181.618,197.822,182.449,197.822,183.477z"/>
<path fill="none" stroke="#232323" stroke-miterlimit="10" d="M193.039,154.038c0,0.932,0.321,1.688-0.181,1.688
	c-0.486,0-1.39-0.756-1.39-1.688c0-0.934,0.146-1.692,0.639-1.692C192.609,152.345,193.039,153.104,193.039,154.038z"/>
<polyline fill="none" stroke="#232323" stroke-miterlimit="10" points="159.208,193.851 156.751,206.019 155.504,212.019 
	152.501,220.929 150.33,227.348 147.642,233.146 144.943,238.427 142.148,243.396 139.35,247.643 136.46,250.651 "/>
<polyline fill="none" stroke="#232323" stroke-miterlimit="10" points="132.221,194.119 159.67,184.233 164.411,184.58 
	200.166,190.452 200.654,189.827 201.412,176.575 "/>
<polyline fill="none" stroke="#232323" stroke-miterlimit="10" points="164.079,154.168 164.827,156.974 165.233,159.761 
	165.514,163.116 165.79,167.458 165.79,171.055 165.79,174.572 165.79,177.956 165.443,179.958 164.933,182.305 164.411,184.165 
	164.411,184.58 "/>
<polyline fill="none" stroke="#232323" stroke-miterlimit="10" points="197.505,154.038 199.206,153.702 200.724,154.038 
	201.412,154.761 201.412,155.726 201.412,156.974 200.974,158.217 "/>
<path fill="none" stroke="#232323" stroke-miterlimit="10" d="M157.578,150l4.352,0.271v-0.682v-2.283l-0.547-1.102l-1.712-0.486
	l-1.424,0.348l-0.945,1.033L157.578,150l-1.07,0.183l-2.032,0.088c0,0-1.284-6.284-2.143-11.062
	c-0.508-2.786-3.329-9.274-5.679-13.647c-1.163-2.154-3.437-4.895-5.021-6.766c-1.456-1.718-5.042-4.518-6.905-5.801
	c-1.692-1.162-7.184-4-7.184-4s-2.073-0.1-2.073-0.643"/>
<path fill="none" stroke="#232323" stroke-miterlimit="10" d="M75.568,373.973l27.262-2.53l47.082-1.371l27.756,0.824
	c0,0,4.532,0.266,6.02,0.427c1.21,0.129,4.078,0.374,5.25,0.697c1.125,0.314,2.364,1.002,2.364,1.002"/>
<path fill="none" stroke="#232323" stroke-miterlimit="10" d="M32.089,166.669c0,0-1.821,12.578-2.073,16.808
	c-0.362,5.707-0.127,17.143,0,22.848c0.126,6.066,0.708,18.179,1.027,24.234c0.217,4.038,0.351,12.941,0.619,16.982
	c0.399,5.803,1.528,16.574,2.077,22.367c0.416,4.458,1.538,13.361,2.066,17.803c0.612,5.142,1.743,15.441,2.489,20.56
	c0.75,5.188,2.283,15.345,3.516,20.677c0.287,1.215,1.062,4.932,1.665,5.261c0,0,5.545-30.534,7.041-39.49
	c1.323-7.955,3.059-23.445,4.019-31.452c1.242-10.339,3.573-30.302,4.469-40.679c0.715-8.396,1.496-25.24,2.073-33.655
	c0.554-8.242,2.479-32.974,2.479-32.974s1.455-12.84,1.455-17.142"/>
<path fill="none" stroke="#232323" stroke-miterlimit="10" d="M191.023,366.101c0,0,23.824-4.518,30.755-6.11
	c0.641-0.152,1.976-1.508,2.416-2.004c0.52-0.593,1.23-2.458,1.314-3.241c0.268-2.627,0.119-6.09,0.068-8.008
	c-0.627-23.168-4.635-92.369-4.635-92.369s-1.99-27.833-3.104-37.067c-0.93-7.703-4.856-30.646-4.856-30.646l-4.202-24.298
	l-5.915-19.195l-6.138-17.183l-7.948-19.676l-9.867-19.265l-6.013-11.895"/>
<path fill="none" stroke="#232323" stroke-miterlimit="10" d="M144.222,442.205c0,0,8.716-3.871,11.283-4.97
	c2.452-1.051,5.832-2.604,8.339-3.519c1.782-0.653,6.344-2.336,8.19-2.814c1.815-0.461,5.942-0.886,7.805-1.068
	c1.468-0.147,4.39,0.227,5.824,0.601c0.712,0.193,1.363,0.586,1.94,1.05c0.707,0.563,1.854,1.704,2.316,2.472
	c0.519,0.872,0.992,2.604,1.243,3.588c0.208,0.813,0.654,4.114,0.654,4.114"/>
<path fill="none" stroke="#232323" stroke-miterlimit="10" d="M158.246,188.932c0,0-0.27,3.065-0.03,3.945
	c0.085,0.347,0.596,0.792,0.918,0.947c0.118,0.063,0.703,0.077,0.832,0.077c0.428,0,1.346-0.049,1.764-0.163
	c0.373-0.106,0.918-0.558,1.136-0.888c0.378-0.583,0.35-2.641,0.35-2.641l-0.103-1.277"/>
<path fill="none" stroke="#232323" stroke-miterlimit="10" d="M36.326,240.704l3.695-1.346l4.48-1.628c0,0,4.548-1.565,5.832-2.064
	c0.933-0.362,2.046-0.756,2.752-0.847c0.156-0.024,0.651-0.112,0.812,0.051c0.194,0.214,0.181,1.722,0.181,2.015
	c0,1.292-0.084,5.062-0.084,5.062"/>
<path fill="none" stroke="#232323" stroke-miterlimit="10" d="M163.215,150.271c0,0-1.07-10.125-1.214-13.517
	c-0.105-2.59,0.061-8.03,0.545-10.365c0.222-1.081,1.298-3.925,2.387-4.073c0.857-0.115,1.584,0.234,2.174,0.451
	c0.98,0.362,2.258,0.988,3.094,1.511c1.233,0.772,2.739,2.1,3.648,2.937c1.658,1.53,4.753,4.416,6.372,5.995
	c1.719,1.677,5.222,4.996,6.745,6.852c1.76,2.138,6.303,9.114,6.303,9.114l5.249,8.693"/>
<path fill="none" stroke="#232323" stroke-miterlimit="10" d="M180.613,147.506c0,5.512-1.505,7.438-2.228,7.367
	c-2.563-0.262-8.502-5.639-10.862-11.397c-2.094-5.1-1.404-9.471,3.652-9.009C175.173,134.83,180.613,141.99,180.613,147.506z"/>
<path fill="none" stroke="#232323" stroke-miterlimit="10" d="M178.083,274.253c3.355,0.982,4.277,10.348,4.833,13.807
	c0.437,2.757,1.545,10.437,1.87,13.209c0.335,2.858,1.423,9.755,1.713,12.605c0.32,3.078,0.512,9.209,0.812,12.293
	c0.244,2.542,0.439,7.141,0.62,9.693c0.168,2.762,0.358,5.492,0.503,8.253c0.122,2.239,0.416,8.971,0.416,8.971v4.622
	c0,0,3.423,0.346,4.426,0.104c0.902-0.207,2.649-1.405,3.254-2.101c0.513-0.582,0.675-1.798,0.808-2.553
	c0.856-4.952,0-20.094,0-20.094l-1.039-42.556l-3.304-67.269"/>
<line fill="none" stroke="#232323" stroke-miterlimit="10" x1="81.079" y1="477.544" x2="73.006" y2="563.773"/>
<line fill="none" stroke="#232323" stroke-miterlimit="10" x1="189.212" y1="474.407" x2="202.866" y2="581.572"/>
<g>
	<path fill="none" stroke="#232323" stroke-miterlimit="10" d="M311.648,212.257c0,0-0.244-1.296-2.415-1.593
		c-1.583-0.159-3.006-0.766-1.641-3.541"/>
	<path fill="none" stroke="#232323" stroke-miterlimit="10" d="M357.274,184.594l0.899,0.146l-0.679,27.799l20.78-0.225
		c0,0-0.099-1.153,1.157-1.446c1.265-0.295,4.578-0.103,2.531-3.472c-1.406-4.539-8.227-27.724-10.076-37.001
		c-1.854-9.271-7.931-39.833-6.659-66.864c0.121-7.553,1.427-23.251,4.615-35.436c3.197-12.2,10.325-31.927,11.253-33.928
		c0.929-1.996,1.616-4.153-1.057-4.366c-2.667-0.203-1.394,0.042-2.65-0.703c-1.938-0.03-59.025-0.282-65.054,0.013
		c-0.711,0.464-1.462,0.585-2.825,0.778c-1.349,0.188-2.559,0.936-0.765,4.236c1.482,3.786,12.062,27.847,15.604,58.347l0.582,10.92
		c0,0,1.851,41.623-9.521,78.41c-5.386,19.062-7.827,25.316-7.827,25.316s-3.589,1.489-0.96,5.182
		c1.216,1.735,4.446,1.527,5.015,0.063c4.026,0.014,20.32,0.103,20.32,0.103l0.078-30.418l0.96-0.214l-0.12,2.694l-0.015,0.393
		l24.287,0.271l0.14-3.079l-24.215,0.13"/>
	<path fill="none" stroke="#232323" stroke-miterlimit="10" d="M325,103.246c0,0-27.213-1.88-32.577-6.484"/>
	<path fill="none" stroke="#232323" stroke-miterlimit="10" d="M299.688,88.067c0,0,8.265,3.275,24.666,4.418"/>
	<path fill="none" stroke="#232323" stroke-miterlimit="10" d="M365.889,92.621c0,0,20.158-2.041,24.835-4.427"/>
	<path fill="none" stroke="#232323" stroke-miterlimit="10" d="M365.235,103.436c0,0,25.475-1.781,33.286-6.767"/>
	<path fill="none" stroke="#232323" stroke-miterlimit="10" d="M402.826,94.974c2.881-2.642,3.018-7.174,0.304-10.113
		c-2.697-2.94-7.222-3.179-10.095-0.529c-2.874,2.644-3.013,7.177-0.313,10.107C395.434,97.38,399.948,97.624,402.826,94.974z"/>
	<path fill="none" stroke="#232323" stroke-miterlimit="10" d="M400.812,92.638c1.609-1.481,1.694-4.027,0.176-5.672
		c-1.516-1.649-4.049-1.783-5.662-0.301c-1.615,1.487-1.7,4.033-0.183,5.671C396.661,93.985,399.205,94.117,400.812,92.638z"/>
	<path fill="none" stroke="#232323" stroke-miterlimit="10" d="M297.766,95.062c2.88-2.643,3.018-7.174,0.305-10.113
		c-2.699-2.936-7.217-3.185-10.09-0.534c-2.875,2.651-3.019,7.174-0.318,10.105C290.375,97.467,294.893,97.702,297.766,95.062z"/>
	<path fill="none" stroke="#232323" stroke-miterlimit="10" d="M295.313,92.724c1.561-1.424,1.639-3.881,0.175-5.469
		c-1.459-1.593-3.903-1.73-5.466-0.292c-1.562,1.436-1.63,3.881-0.166,5.468C291.324,94.029,293.771,94.158,295.313,92.724z"/>
	<path fill="none" stroke="#232323" stroke-miterlimit="10" d="M308.788,34.384c0,0-2.405-0.547-2.246-3.271
		c0.159-2.731,3.931-4.76,5.738-1.95"/>
	<path fill="none" stroke="#232323" stroke-miterlimit="10" d="M323.464,35.097c1.259-1.157,1.272-3.185,0.051-4.521
		c-1.238-1.342-3.26-1.496-4.512-0.339c-1.264,1.158-1.278,3.181-0.041,4.526C320.191,36.095,322.207,36.252,323.464,35.097z"/>
	<path fill="none" stroke="#232323" stroke-miterlimit="10" d="M370.878,35.293c1.327-1.208,1.371-3.297,0.127-4.661
		c-1.263-1.363-3.348-1.482-4.659-0.269c-1.32,1.208-1.385,3.307-0.129,4.66C367.478,36.389,369.564,36.52,370.878,35.293z"/>
	<path fill="none" stroke="#232323" stroke-miterlimit="10" d="M377.335,29.049c0,0,2.124-3.192,5.457,0.325
		c1.718,1.76-0.049,4.713-1.547,4.856"/>
	<path fill="none" stroke="#232323" stroke-miterlimit="10" d="M347.269,59.208c1.325-1.215,1.362-3.298,0.118-4.669
		c-1.259-1.356-3.332-1.479-4.65-0.262c-1.326,1.208-1.383,3.298-0.131,4.655C343.859,60.299,345.952,60.426,347.269,59.208z"/>
	<path fill="none" stroke="#232323" stroke-miterlimit="10" d="M347.531,87.496c1.323-1.215,1.364-3.306,0.113-4.668
		c-1.249-1.363-3.331-1.482-4.648-0.258c-1.324,1.205-1.379,3.292-0.123,4.662C344.115,88.584,346.211,88.708,347.531,87.496z"/>
	<path fill="none" stroke="#232323" stroke-miterlimit="10" d="M349.591,115.359c2.493-2.292,2.618-6.209,0.271-8.756
		c-2.345-2.546-6.27-2.76-8.743-0.463c-2.501,2.29-2.619,6.208-0.282,8.754C343.192,117.45,347.103,117.648,349.591,115.359z"/>
	<path fill="none" stroke="#232323" stroke-miterlimit="10" d="M347.103,139.578c1.146-1.058,1.21-2.863,0.136-4.024
		c-1.069-1.167-2.876-1.253-4.019-0.195c-1.148,1.054-1.21,2.863-0.142,4.018C344.152,140.546,345.952,140.635,347.103,139.578z"/>
	<path fill="none" stroke="#232323" stroke-miterlimit="10" d="M347.448,172.009c1.393-1.273,1.461-3.445,0.169-4.856
		c-1.296-1.411-3.465-1.514-4.854-0.239c-1.382,1.278-1.467,3.45-0.171,4.859C343.887,173.181,346.059,173.286,347.448,172.009z"/>
	<path fill="none" stroke="#232323" stroke-miterlimit="10" d="M322.997,205.283c1.394-1.278,1.464-3.45,0.166-4.861
		c-1.292-1.399-3.459-1.511-4.849-0.236c-1.384,1.272-1.463,3.449-0.16,4.858C319.446,206.453,321.614,206.556,322.997,205.283z"/>
	<path fill="none" stroke="#232323" stroke-miterlimit="10" d="M371.081,204.742c1.142-1.053,1.208-2.868,0.127-4.024
		c-1.076-1.162-2.868-1.267-4.025-0.203c-1.153,1.06-1.201,2.864-0.139,4.024C368.116,205.721,369.91,205.807,371.081,204.742z"/>
	<path fill="none" stroke="#232323" stroke-miterlimit="10" d="M378.19,212.208c0,0,1.476,2.645,4.44,0.78
		c2.045-1.5,1.798-4.895-0.605-5.737"/>
	<path fill="none" stroke="#232323" stroke-miterlimit="10" d="M332.855,185.018l0.349,2.458l1.051,0.18
		c0,0-0.224-0.945,0.376-1.113c0.605-0.182,5.708-1.066,11.511-0.866c5.817,0.194,9.747,0.007,9.784,1.499
		c0.039,1.495-0.189,5.805-0.189,5.805s0.364,0.808-0.842,1.162c-0.041,0.795-0.055,2.332-0.055,2.332"/>
	<path fill="none" stroke="#232323" stroke-miterlimit="10" d="M355.563,193.619c0,0-0.176-0.603-1.282-0.453
		c-0.104,1.435-0.073,3.129-0.073,3.129s1.292-0.144,1.62,0.412c0.035,1.492-0.041,3.279-0.041,3.279s-0.518,7.633-0.558,8.628
		c-0.041,0.99,0,4.769-1.394,11.971c-1.392,7.201-3.548,19.373-3.548,19.373s0.379,0.713-1.126,0.942
		c-1.935-0.024-9.087-0.126-9.087-0.126s-0.477,0.426-0.755-1.023c-0.284-1.457-2.992-18.81-3.366-20.664
		c-0.371-1.855-1.276-6.362-1.222-8.897c0.064-2.537-0.062-3.281-0.062-3.281s-0.457,0.423-0.501-0.866
		c-0.044-1.288,0.156-9.783,0.156-9.783l0.806-0.269l0.029-1.831c0,0-1.061,0.198-0.94-1.235c0.105-1.434,0.119-5.165,0.119-5.165
		s16.444-1.096,21.53,0.896"/>
	<path fill="none" stroke="#232323" stroke-miterlimit="10" d="M336.328,220.942c0,0,7.565-1.425,17.339,0.076"/>
	<path fill="none" stroke="#232323" stroke-miterlimit="10" d="M340.516,240.847c0,0,0.13,4.275,0.1,4.769
		c-0.019,0.512,0.839,2.384,1.408,3.389c0.54,1.024,0.794,1.184,1.431,1.158c0.643-0.025,2.932,0.067,2.932,0.067
		s0.423,0.472,1.188-1.084c0.753-1.566,1.784-3.168,1.699-5.094c-0.056-1.948,0.039-3.188,0.039-3.188"/>
	<path fill="none" stroke="#232323" stroke-miterlimit="10" d="M340.703,245.921c0,0,6.133-0.394,8.25,0.156"/>
	<polyline fill="none" stroke="#232323" stroke-miterlimit="10" points="343.309,250.211 343.078,281.902 346.358,281.94 
		346.578,250.348 	"/>
	<path fill="none" stroke="#232323" stroke-miterlimit="10" d="M346.781,286.739c1.105-1.03,1.166-2.763,0.128-3.897
		c-1.035-1.122-2.771-1.205-3.886-0.185c-1.098,1.018-1.162,2.756-0.128,3.884C343.928,287.67,345.666,287.752,346.781,286.739z"/>
</g>
</svg>
