<?xml version="1.0" encoding="utf-8"?>
<!-- Generator: Adobe Illustrator 16.0.0, SVG Export Plug-In . SVG Version: 6.00 Build 0)  -->
<!DOCTYPE svg PUBLIC "-//W3C//DTD SVG 1.1//EN" "http://www.w3.org/Graphics/SVG/1.1/DTD/svg11.dtd">
<svg version="1.1" id="Layer_1" xmlns="http://www.w3.org/2000/svg" xmlns:xlink="http://www.w3.org/1999/xlink" x="0px" y="0px"
	 width="288px" height="612px" viewBox="0 0 288 612" enable-background="new 0 0 288 612" xml:space="preserve">
<g>
	<path fill="none" stroke="#232323" stroke-miterlimit="10" d="M84.602,430.48c0,0-0.639-2.719-5.255-3.144
		c-3.366-0.191-6.43-1.345-3.8-7.344"/>
	<path fill="none" stroke="#232323" stroke-miterlimit="10" d="M178.584,367.731l1.922,0.225l1.135,58.882l43.95-2.396
		c0,0-0.318-2.43,2.312-3.168c2.651-0.743,9.676-0.636,5.03-7.579c-3.393-9.476-19.967-57.904-24.734-77.358
		c-4.781-19.45-20.467-83.554-20.275-140.866c-0.445-15.994,0.869-49.329,6.488-75.405c5.637-26.112,18.897-68.51,20.677-72.83
		c1.779-4.31,3.035-8.938-2.641-9.14c-5.662-0.184-2.947,0.217-5.671-1.242c-4.106,0.115-124.922,4.86-137.65,6.04
		c-1.461,1.047-3.037,1.375-5.906,1.907c-2.835,0.524-5.327,2.218-1.227,9.036c3.486,7.872,28.098,57.804,38.411,122.013
		l2.239,23.053c0,0,7.766,87.9-12.893,166.793c-9.635,40.832-14.221,54.287-14.221,54.287s-7.456,3.486-1.553,11.05
		c2.73,3.564,9.549,2.826,10.615-0.327c8.521-0.343,43.003-1.663,43.003-1.663l-2.644-64.367l2.012-0.543l-0.005,5.71l0.007,0.832
		l51.415-1.667l0.011-6.528l-51.227,2.514"/>
	<path fill="none" stroke="#232323" stroke-miterlimit="10" d="M102.777,198.587c0,0-57.755-1.464-69.531-10.708"/>
	<path fill="none" stroke="#232323" stroke-miterlimit="10" d="M47.814,168.812c0,0,17.79,6.163,52.599,7.067"/>
	<path fill="none" stroke="#232323" stroke-miterlimit="10" d="M188.314,172.324c0,0,42.463-6.181,52.139-11.661"/>
	<path fill="none" stroke="#232323" stroke-miterlimit="10" d="M187.928,195.27c0,0,53.739-6.123,69.81-17.396"/>
	<path fill="none" stroke="#232323" stroke-miterlimit="10" d="M266.685,173.891c5.854-5.857,5.727-15.459-0.288-21.427
		c-5.979-5.973-15.578-6.061-21.41-0.183c-5.838,5.857-5.711,15.465,0.269,21.413C251.265,179.663,260.842,179.764,266.685,173.891z
		"/>
	<path fill="none" stroke="#232323" stroke-miterlimit="10" d="M262.212,169.134c3.266-3.284,3.211-8.679-0.158-12.018
		c-3.357-3.352-8.731-3.401-12.008-0.115c-3.274,3.298-3.222,8.694,0.138,12.018C253.553,172.368,258.945,172.41,262.212,169.134z"
		/>
	<path fill="none" stroke="#232323" stroke-miterlimit="10" d="M44.392,183.79c5.852-5.857,5.725-15.46-0.291-21.43
		c-5.982-5.959-15.563-6.07-21.396-0.196c-5.84,5.877-5.725,15.46,0.262,21.413C28.978,189.562,38.559,189.64,44.392,183.79z"/>
	<path fill="none" stroke="#232323" stroke-miterlimit="10" d="M38.989,179.069c3.168-3.159,3.106-8.365-0.137-11.588
		c-3.231-3.234-8.419-3.3-11.593-0.114c-3.168,3.183-3.09,8.363,0.154,11.587C30.667,182.198,35.857,182.245,38.989,179.069z"/>
	<path fill="none" stroke="#232323" stroke-miterlimit="10" d="M62.106,54.379c0,0-5.141-0.937-5.056-6.715
		c0.085-5.792,7.879-10.435,11.964-4.658"/>
	<path fill="none" stroke="#232323" stroke-miterlimit="10" d="M93.224,54.53c2.559-2.562,2.403-6.854-0.311-9.568
		c-2.742-2.726-7.035-2.865-9.576-0.301c-2.564,2.567-2.412,6.85,0.331,9.581C86.393,56.946,90.674,57.093,93.224,54.53z"/>
	<path fill="none" stroke="#232323" stroke-miterlimit="10" d="M193.57,50.563c2.693-2.68,2.597-7.102-0.166-9.875
		c-2.797-2.767-7.217-2.825-9.883-0.139c-2.678,2.68-2.625,7.126,0.157,9.872C186.476,53.196,190.9,53.281,193.57,50.563z"/>
	<path fill="none" stroke="#232323" stroke-miterlimit="10" d="M206.654,36.753c0,0,4.2-6.951,11.577,0.183
		c3.794,3.566,0.333,9.977-2.826,10.419"/>
	<path fill="none" stroke="#232323" stroke-miterlimit="10" d="M145.823,103.348c2.691-2.694,2.579-7.106-0.183-9.889
		c-2.787-2.755-7.185-2.824-9.863-0.127c-2.697,2.681-2.621,7.106,0.154,9.864C138.71,105.971,143.152,106.047,145.823,103.348z"/>
	<path fill="none" stroke="#232323" stroke-miterlimit="10" d="M148.994,163.179c2.689-2.694,2.581-7.121-0.189-9.889
		c-2.768-2.768-7.187-2.826-9.863-0.117c-2.687,2.672-2.612,7.096,0.171,9.875C141.867,165.797,146.314,165.866,148.994,163.179z"/>
	<path fill="none" stroke="#232323" stroke-miterlimit="10" d="M155.928,221.946c5.064-5.08,4.968-13.379-0.23-18.553
		c-5.201-5.17-13.523-5.261-18.547-0.171c-5.078,5.078-4.966,13.38,0.212,18.548C142.581,226.96,150.877,227.019,155.928,221.946z"
		/>
	<path fill="none" stroke="#232323" stroke-miterlimit="10" d="M152.9,273.421c2.332-2.342,2.299-6.167-0.083-8.527
		c-2.37-2.37-6.203-2.386-8.521-0.042c-2.331,2.337-2.296,6.17,0.073,8.515C146.75,275.744,150.568,275.766,152.9,273.421z"/>
	<path fill="none" stroke="#232323" stroke-miterlimit="10" d="M156.631,342.013c2.831-2.826,2.778-7.427-0.093-10.292
		c-2.87-2.865-7.472-2.885-10.292-0.059c-2.804,2.832-2.784,7.433,0.089,10.298C149.204,344.819,153.811,344.839,156.631,342.013z"
		/>
	<path fill="none" stroke="#232323" stroke-miterlimit="10" d="M107.97,414.679c2.834-2.836,2.776-7.442-0.098-10.308
		c-2.864-2.835-7.456-2.874-10.279-0.048c-2.812,2.821-2.778,7.437,0.107,10.296C100.565,417.48,105.162,417.494,107.97,414.679z"/>
	<path fill="none" stroke="#232323" stroke-miterlimit="10" d="M209.661,409.085c2.322-2.332,2.293-6.181-0.104-8.521
		c-2.381-2.362-6.18-2.415-8.537-0.059c-2.337,2.341-2.272,6.17,0.08,8.521C203.48,411.427,207.285,411.446,209.661,409.085z"/>
	<path fill="none" stroke="#232323" stroke-miterlimit="10" d="M225.399,424.228c0,0,3.364,5.456,9.466,1.241
		c4.187-3.363,3.349-10.526-1.813-12.081"/>
	<path fill="none" stroke="#232323" stroke-miterlimit="10" d="M126.961,370.885l0.963,5.168l2.239,0.283
		c0,0-0.559-1.976,0.695-2.391c1.261-0.439,11.976-2.776,24.272-2.895c12.331-0.127,20.624-0.885,20.843,2.265
		c0.221,3.163,0.132,12.306,0.132,12.306s0.852,1.672-1.667,2.532c-0.014,1.692,0.098,4.938,0.098,4.938"/>
	<path fill="none" stroke="#232323" stroke-miterlimit="10" d="M175.802,386.984c0,0-0.429-1.256-2.753-0.84
		c-0.088,3.051,0.133,6.63,0.133,6.63s2.724-0.42,3.466,0.719c0.21,3.158,0.215,6.948,0.215,6.948s-0.39,16.197-0.381,18.305
		c0.005,2.103,0.44,10.092-1.843,25.459c-2.279,15.367-5.717,41.32-5.717,41.32s0.866,1.476-2.296,2.097
		c-4.094,0.133-19.239,0.577-19.239,0.577s-0.965,0.943-1.691-2.098c-0.734-3.056-8.068-39.525-9.033-43.412
		c-0.956-3.893-3.288-13.343-3.405-18.711c-0.097-5.374-0.436-6.939-0.436-6.939s-0.929,0.935-1.139-1.788
		c-0.212-2.724-0.575-20.717-0.575-20.717l1.683-0.641l-0.114-3.877c0,0-2.222,0.519-2.1-2.522
		c0.092-3.047-0.224-10.942-0.224-10.942s34.692-3.839,45.639-0.094"/>
	<path fill="none" stroke="#232323" stroke-miterlimit="10" d="M137.627,446.576c0,0,15.875-3.711,36.693-1.442"/>
	<path fill="none" stroke="#232323" stroke-miterlimit="10" d="M148.33,488.307c0,0,0.669,9.036,0.648,10.082
		c0.01,1.085,1.995,4.968,3.292,7.041c1.242,2.116,1.789,2.43,3.139,2.316c1.354-0.112,6.208-0.127,6.208-0.127
		s0.939,0.964,2.412-2.4c1.447-3.388,3.481-6.874,3.123-10.937c-0.298-4.118-0.215-6.753-0.215-6.753"/>
	<path fill="none" stroke="#232323" stroke-miterlimit="10" d="M149.193,499.024c0,0,12.942-1.398,17.471-0.431"/>
	<polyline fill="none" stroke="#232323" stroke-miterlimit="10" points="155.105,507.864 157.546,574.94 164.488,574.722 
		162.034,507.85 	"/>
	<path fill="none" stroke="#232323" stroke-miterlimit="10" d="M165.827,584.831c2.244-2.278,2.21-5.954-0.092-8.252
		c-2.293-2.278-5.971-2.299-8.238-0.034c-2.226,2.254-2.201,5.94,0.093,8.229C159.878,587.071,163.564,587.082,165.827,584.831z"/>
</g>
</svg>
