<?xml version="1.0" encoding="utf-8"?>
<!-- Generator: Adobe Illustrator 16.0.0, SVG Export Plug-In . SVG Version: 6.00 Build 0)  -->
<!DOCTYPE svg PUBLIC "-//W3C//DTD SVG 1.1//EN" "http://www.w3.org/Graphics/SVG/1.1/DTD/svg11.dtd">
<svg version="1.1" id="Layer_1" xmlns="http://www.w3.org/2000/svg" xmlns:xlink="http://www.w3.org/1999/xlink" x="0px" y="0px"
	 width="288px" height="612px" viewBox="0 0 288 612" enable-background="new 0 0 288 612" xml:space="preserve">
<path fill="none" stroke="#232323" stroke-miterlimit="10" d="M208.391,370.729l-0.302-9.038l22.438-1.24l28.376-5.152
	c0,0,3.754-2.415,4.379-3.705c1.901-3.925-3.258-86.482-3.258-86.482l-2.139-30.895l-1.306-15.435c0,0-0.851-10.726-1.199-13.872
	c-0.328-3.142-1.606-10.039-2.087-13.158c-0.647-4.188-2.92-18.655-2.92-18.655s-3.647-13.842-4.692-17.956
	c-1.079-4.264-3.896-14.686-3.896-14.686l-4.797-15.558l-5.978-14.803l-5.986-12.568l-6.168-12.782l-7.289-11.688
	c0,0-4.927-8.729-6.729-11.534c-2.207-3.437-6.153-9.787-9.429-12.224c-0.808-0.611-1.826-1.366-2.521-1.667
	c-1.051-0.45-4.434-1.13-4.434-1.13s-3.678-1.571-4.941-2.001c-1.269-0.443-4.179-1.711-4.179-1.711l-6.209-3.886
	c0,0-3.609-2.658-5.007-3.521c-0.905-0.552-2.727-1.497-4.817-2.439c-2.088-0.944-4.514-2.012-5.854-2.489
	c-1.764-0.634-4.44-1.414-7.116-2.125c-2.7-0.704-5.396-1.344-7.252-1.692c-1.688-0.32-4.492-0.686-7.298-0.999
	c-2.798-0.316-5.607-0.574-7.334-0.677c-2.964-0.19-8.896-0.362-14.087-0.486c-5.186-0.122-9.635-0.198-9.635-0.198l-5.472-1.571
	l-5.459-1.571c0,0-1.651-0.35-3.56-0.703c-1.927-0.353-4.113-0.692-5.229-0.673c-0.255,0.007-0.655,0.083-1.041,0.188
	c-0.385,0.106-0.763,0.235-0.996,0.352c-0.545,0.267-1.313,0.759-2.035,1.306c-0.725,0.55-1.411,1.139-1.78,1.614
	c-2.171,2.72-5.487,8.846-8.253,14.288c-2.763,5.449-4.981,10.223-4.981,10.223c-8.76,17.274-14.849,32.999-18.771,44.413
	c-3.901,11.417-5.622,18.511-5.622,18.511s-2.846,8.847-5.731,21.454c-2.891,12.6-5.832,28.963-6.947,38.778
	c-0.8,6.884-1.781,15.744-2.616,25.494c-0.84,9.75-1.531,20.391-1.761,30.817c-0.165,7.291-0.525,21.899-0.858,34.688
	c-0.315,12.787-0.603,23.753-0.603,23.753s-0.177,11.591-0.36,25.112c-0.18,13.515-0.377,28.967-0.425,36.694
	c-0.01,0.673,0.108,1.7,0.306,2.698c0.205,0.998,0.495,1.986,0.82,2.568c0.247,0.463,0.64,0.926,1.075,1.335
	c0.441,0.408,0.921,0.766,1.391,1.026c0.543,0.303,1.19,0.567,1.855,0.795c0.661,0.223,1.338,0.402,1.951,0.558
	c2.025,0.468,5.676,0.69,8.812,0.788c3.136,0.107,5.776,0.09,5.776,0.09l1.11,0.564l1.126,0.567l17.057,0.551l17.059,0.543
	l1.283,1.868l1.283,1.865l-0.053,3.479l-0.06,3.479l1.458,40.604l-0.665,2.24l-0.23,5.502l-0.225,5.486l0.113,10.154l0.112,10.153
	l0.68,0.507l0.69,0.51l0.608,0.225l0.603,0.213l1.068,0.115l1.062,0.113l0.175,0.752l0.175,0.756l1.843-0.141l1.847-0.136
	l0.505,0.85l0.521,0.849l-0.408,2.4l-0.39,2.399l0.39,4.493l0.39,4.489l-1.343,1.178l-1.354,1.179l-0.951,7.629l-0.955,7.63
	l1.185,0.943l1.173,0.955c0,0,11.506,0.089,24.931,0.125c13.424,0.042,28.758,0.042,36.431-0.125
	c6.588-0.137,19.765-0.697,31.296-1.226c11.536-0.52,21.423-1.012,21.423-1.012l0.951-1.012l0.95-1.008l-1.277-7.399l-1.301-7.404
	l-0.731-0.893l-0.729-0.905c0,0,0.399-0.311,0.754-1.035c0.376-0.73,0.706-1.884,0.591-3.562c-0.12-1.792-0.591-3.081-1.045-3.929
	c-0.438-0.837-0.86-1.231-0.86-1.231l-0.496-2.467l-0.515-2.47l0.498-0.235l0.497-0.23l1.976-0.271l1.976-0.277l0.135-0.983
	l0.138-0.977c0,0,0.891,0,1.823-0.123c0.941-0.131,1.938-0.37,2.166-0.825c0.851-1.793,0.73-10.158,0.412-18.063
	c-0.332-7.905-0.867-15.367-0.867-15.367L208.391,370.729z"/>
<path fill="none" stroke="#232323" stroke-miterlimit="10" d="M113.08,42.116c2.471-0.104,15.139,1.01,15.139,1.01
	s12.341,2.019,12.797,2.019c0.449,0,9.3,2.13,9.3,2.13s7.177,2.542,9.544,3.481c1.042,0.407,3.178,1.188,4.141,1.771
	c1.241,0.759,4.059,2.333,4.496,3.722c2.323,7.521-8.637,30.287-8.637,30.287l-20.612-3.821l-4.091-0.446l-5.707,0.455l-2.002,0.448
	l-4.72-14.692l-3.921-11.67l-3.376-9.419L113.08,42.116z"/>
<path fill="none" stroke="#232323" stroke-miterlimit="10" d="M99.253,22.705l4.628,33.098l4.042,36.79l3.14,39.035l2.016,34.547
	l1.121,33.206l0.896,40.831l0.906,95.978c0,0,0.061,5.081-0.607,8.562c-0.425,2.266-1.716,3.887-4.777,4.639
	c-12.574,3.069-47.113,9.596-47.113,9.596"/>
<path fill="none" stroke="#232323" stroke-miterlimit="10" d="M127.448,83.171l6.5,29.166l6.841,33.349l4.827,39.787l3.142,46.663
	l2.085,51.591l1.057,48.84c0,0,0.738,11.602-0.751,14.865c-0.44,0.936-1.991,1.966-2.846,2.258
	c-16.226,5.425-67.737,9.839-67.737,9.839"/>
<path fill="none" stroke="#232323" stroke-miterlimit="10" d="M140.789,145.082l32.486-13.454c0,0,1.58-0.049,2.098,0
	c7.36,0.716,29.012,5.696,29.012,5.696"/>
<path fill="none" stroke="#232323" stroke-miterlimit="10" d="M181.432,55.803c3.216,1.455,6.106,5.982,6.952,8.522
	c1.087,3.237,2.886,9.849,3.738,13.155c1.034,4.02,2.774,12.128,3.741,16.161c0.421,1.735,1.749,6.933,1.749,6.933"/>
<path fill="none" stroke="#232323" stroke-miterlimit="10" d="M159.86,86.536l10.282,2.018l5.837,1.497l5.274,1.349
	c0,0,3.358,0.669,4.439,1.044c1.488,0.517,4.351,1.87,5.682,2.692c1.092,0.674,4.036,3.144,4.036,3.144l5.981,6.274l2.991,4.791
	l4.336,6.729l2.552,5.985l3.436,8.375l1.501,5.682l3.474,0.49l1.457,3.85l0.893,5.194l0.653,6.198l0.707,6.854l-0.455,7.181
	l-1.044,5.674l-0.974,5.164l-0.38,3.067l-0.753,1.194v0.746l-1.493,0.752h-1.188l-1.353,6.875l-1.497,5.686l-2.231,6.728
	l-2.549,7.331l-3.136,7.929l-4.341,8.373l-4.041,6.734l-4.185,6.28l-4.638,5.677l-5.529,5.682c0,0-5.716,4.562-7.781,5.837
	c-1.64,1.015-5.096,2.717-6.892,3.439c-0.888,0.369-3.69,1.203-3.69,1.203"/>
<line fill="none" stroke="#232323" stroke-miterlimit="10" x1="149.831" y1="258.925" x2="185.098" y2="262.194"/>
<path fill="none" stroke="#232323" stroke-miterlimit="10" d="M160.306,259.872c0,0,2.855,9.445,3.979,12.301
	c1.59,4.05,7.064,15.875,7.064,15.875s2.168,4.029,2.92,5.22c0.705,1.124,2.474,4.405,3.652,5.037
	c2.591,1.381,3.266,0.487,3.922,0.062c0.67-0.435,1.97-2.379,2.298-3.106c0.792-1.775,1.695-6.438,1.695-6.438
	s1.356-10.367,1.652-13.847c0.203-2.325,1.186-7.123,0.451-9.343c-0.354-1.054-2.842-3.438-2.842-3.438"/>
<path fill="none" stroke="#232323" stroke-miterlimit="10" d="M179.262,169.766l-0.36,8.602v8.297l0.36,8.527
	c0,0,0.364,6.54,0.6,8.6c0.215,1.917,0.88,5.421,1.195,7.332c0.197,1.157,0.845,3.954,1.25,5.139
	c0.21,0.593,0.754,1.979,1.299,2.266c1.021,0.54,1.747,0.216,2.308,0.067c0.615-0.179,1.581-1.04,2.23-1.702
	c1.346-1.371,5.457-5.382,5.457-5.382l6.481-7.229l6.105-7.595l5.536-9.268l3.134-5.982l2.141-5.447l3.921,0.731"/>
<path fill="none" stroke="#232323" stroke-miterlimit="10" d="M221.59,148.376c0,5.95-2.224,8.829-5.987,8.829
	c-3.761,0-7.728-4.012-8.777-9.866c-1.089-5.993,2.871-11.532,6.614-11.532C217.208,135.808,221.59,142.428,221.59,148.376z"/>
<line fill="none" stroke="#232323" stroke-miterlimit="10" x1="199.002" y1="138.356" x2="212.307" y2="135.808"/>
<line fill="none" stroke="#232323" stroke-miterlimit="10" x1="217.604" y1="156.876" x2="208.57" y2="161.843"/>
<path fill="none" stroke="#232323" stroke-miterlimit="10" d="M208.57,161.843c-11.624,11.067-17.87-1.119-19.1-8.978
	c-0.893-5.774,0.483-16.234,9.531-14.509"/>
<path fill="none" stroke="#232323" stroke-miterlimit="10" d="M186.589,139.251c0,0.95-0.586,1.727-1.307,1.727
	c-0.729,0-1.303-0.777-1.303-1.727c0-0.946,0.123-1.608,0.838-1.608C185.548,137.643,186.589,138.305,186.589,139.251z"/>
<path fill="none" stroke="#232323" stroke-miterlimit="10" d="M187.639,145.65c0,1.505-0.883,2.727-1.986,2.727
	c-1.093,0-1.976-1.222-1.976-2.727c0-1.509,0.883-2.731,1.976-2.731C186.756,142.919,187.639,144.141,187.639,145.65z"/>
<path fill="none" stroke="#232323" stroke-miterlimit="10" d="M187.192,151.22c0,1.028-0.625,1.871-1.387,1.871
	c-0.753,0-1.386-0.842-1.386-1.871c0-1.031,0.633-1.87,1.386-1.87C186.567,149.35,187.192,150.188,187.192,151.22z"/>
<path fill="none" stroke="#232323" stroke-miterlimit="10" d="M215.455,163.856c0,1.118-0.538,2.026-1.186,2.026
	c-0.655,0-1.184-0.908-1.184-2.026c0-1.112,0.528-2.013,1.184-2.013C214.917,161.843,215.455,162.744,215.455,163.856z"/>
<path fill="none" stroke="#232323" stroke-miterlimit="10" d="M210.273,131.965c0,1.009,0.348,1.829-0.197,1.829
	c-0.525,0-1.506-0.82-1.506-1.829c0-1.012,0.159-1.833,0.693-1.833C209.809,130.132,210.273,130.954,210.273,131.965z"/>
<polyline fill="none" stroke="#232323" stroke-miterlimit="10" points="173.624,175.095 170.963,188.277 169.612,194.776 
	166.359,204.428 164.006,211.381 161.095,217.662 158.172,223.384 155.144,228.767 152.112,233.367 148.982,236.625 "/>
<polyline fill="none" stroke="#232323" stroke-miterlimit="10" points="144.391,175.385 174.125,164.677 179.262,165.052 
	217.993,171.412 218.522,170.736 219.344,156.38 "/>
<polyline fill="none" stroke="#232323" stroke-miterlimit="10" points="178.901,132.107 179.711,135.146 180.151,138.166 
	180.457,141.8 180.754,146.504 180.754,150.4 180.754,154.21 180.754,157.875 180.379,160.045 179.826,162.587 179.262,164.602 
	179.262,165.052 "/>
<polyline fill="none" stroke="#232323" stroke-miterlimit="10" points="215.112,131.965 216.953,131.601 218.599,131.965 
	219.344,132.75 219.344,133.794 219.344,135.146 218.869,136.493 "/>
<path fill="none" stroke="#232323" stroke-miterlimit="10" d="M171.858,127.591l4.714,0.294v-0.739v-2.474l-0.593-1.194
	l-1.854-0.526l-1.543,0.376l-1.023,1.119L171.858,127.591l-1.16,0.199l-2.201,0.095c0,0-1.39-6.808-2.32-11.983
	c-0.551-3.018-3.606-10.047-6.151-14.783c-1.261-2.334-3.725-5.303-5.439-7.33c-1.578-1.861-5.462-4.894-7.48-6.285
	c-1.832-1.259-7.783-4.334-7.783-4.334s-2.246-0.107-2.246-0.695"/>
<path fill="none" stroke="#232323" stroke-miterlimit="10" d="M83.018,370.219l29.531-2.741l51.004-1.485l30.066,0.893
	c0,0,4.909,0.288,6.522,0.464c1.311,0.14,4.417,0.404,5.687,0.755c1.218,0.34,2.562,1.085,2.562,1.085"/>
<path fill="none" stroke="#232323" stroke-miterlimit="10" d="M35.918,145.65c0,0-1.973,13.625-2.246,18.207
	c-0.393,6.183-0.138,18.571,0,24.751c0.137,6.571,0.767,19.692,1.113,26.252c0.234,4.374,0.38,14.019,0.67,18.396
	c0.432,6.286,1.655,17.955,2.25,24.229c0.451,4.829,1.666,14.474,2.239,19.286c0.663,5.571,1.888,16.728,2.696,22.272
	c0.812,5.619,2.473,16.623,3.809,22.399c0.311,1.315,1.15,5.342,1.803,5.7c0,0,6.007-33.079,7.627-42.78
	c1.433-8.618,3.313-25.398,4.354-34.072c1.346-11.199,3.872-32.825,4.842-44.066c0.775-9.096,1.621-27.342,2.246-36.459
	c0.6-8.928,2.686-35.72,2.686-35.72s1.575-13.909,1.575-18.569"/>
<path fill="none" stroke="#232323" stroke-miterlimit="10" d="M208.089,361.691c0,0,25.81-4.894,33.317-6.619
	c0.695-0.166,2.14-1.634,2.617-2.171c0.563-0.643,1.333-2.664,1.424-3.512c0.29-2.846,0.129-6.597,0.074-8.675
	c-0.68-25.098-5.021-100.062-5.021-100.062s-2.156-30.151-3.361-40.154c-1.008-8.345-5.262-33.199-5.262-33.199l-4.552-26.322
	l-6.407-20.794l-6.649-18.613l-8.61-21.316l-10.688-20.869L188.456,46.5"/>
<path fill="none" stroke="#232323" stroke-miterlimit="10" d="M157.39,444.134c0,0,9.441-4.192,12.223-5.383
	c2.657-1.139,6.317-2.821,9.034-3.812c1.93-0.708,6.871-2.53,8.871-3.049c1.966-0.5,6.438-0.96,8.456-1.157
	c1.591-0.16,4.756,0.245,6.309,0.649c0.771,0.211,1.476,0.636,2.102,1.138c0.766,0.61,2.009,1.847,2.509,2.679
	c0.562,0.943,1.075,2.821,1.348,3.888c0.225,0.88,0.708,4.454,0.708,4.454"/>
<path fill="none" stroke="#232323" stroke-miterlimit="10" d="M172.582,169.766c0,0-0.293,3.322-0.032,4.274
	c0.091,0.377,0.645,0.858,0.993,1.025c0.129,0.069,0.761,0.083,0.901,0.083c0.462,0,1.458-0.053,1.911-0.176
	c0.405-0.116,0.995-0.604,1.23-0.962c0.41-0.631,0.38-2.861,0.38-2.861l-0.112-1.384"/>
<path fill="none" stroke="#232323" stroke-miterlimit="10" d="M40.507,225.85l4.003-1.458l4.854-1.764c0,0,4.927-1.696,6.317-2.236
	c1.01-0.393,2.215-0.818,2.981-0.918c0.17-0.026,0.705-0.121,0.88,0.056c0.21,0.232,0.195,1.866,0.195,2.183
	c0,1.399-0.089,5.484-0.089,5.484"/>
<path fill="none" stroke="#232323" stroke-miterlimit="10" d="M177.966,127.886c0,0-1.16-10.969-1.316-14.644
	c-0.114-2.806,0.066-8.7,0.592-11.229c0.239-1.17,1.405-4.251,2.585-4.412c0.928-0.125,1.715,0.254,2.355,0.488
	c1.061,0.392,2.445,1.07,3.352,1.637c1.334,0.836,2.966,2.275,3.95,3.181c1.797,1.658,5.149,4.784,6.902,6.495
	c1.864,1.815,5.657,5.412,7.308,7.422c1.906,2.316,6.827,9.873,6.827,9.873l5.688,9.418"/>
<path fill="none" stroke="#232323" stroke-miterlimit="10" d="M196.811,124.889c0,5.972-1.63,8.059-2.413,7.981
	c-2.775-0.284-9.21-6.108-11.766-12.346c-2.268-5.526-1.521-10.261,3.957-9.76C190.92,111.159,196.811,118.915,196.811,124.889z"/>
<path fill="none" stroke="#232323" stroke-miterlimit="10" d="M194.071,262.194c3.636,1.064,4.634,11.21,5.236,14.958
	c0.472,2.987,1.673,11.306,2.026,14.309c0.361,3.096,1.54,10.566,1.854,13.656c0.349,3.333,0.557,9.976,0.882,13.317
	c0.265,2.752,0.475,7.733,0.672,10.5c0.183,2.991,0.389,5.949,0.546,8.94c0.133,2.426,0.449,9.718,0.449,9.718v5.007
	c0,0,3.709,0.375,4.795,0.112c0.977-0.225,2.87-1.523,3.525-2.275c0.556-0.63,0.73-1.948,0.876-2.767c0.928-5.363,0-21.767,0-21.767
	l-1.125-46.101l-3.579-72.871"/>
<line fill="none" stroke="#232323" stroke-miterlimit="10" x1="88.987" y1="482.417" x2="80.242" y2="575.829"/>
<line fill="none" stroke="#232323" stroke-miterlimit="10" x1="206.127" y1="479.018" x2="220.919" y2="595.109"/>
</svg>
