<svg xmlns="http://www.w3.org/2000/svg" viewBox="-14120.134 3406.831 15.691 17.136">
  <defs>
    <style>
      .cls-1 {
        fill: #9aabaf;
      }
    </style>
  </defs>
  <g id="Group_386" data-name="Group 386" transform="translate(-14120.134 3406.831)">
    <path id="Path_885" data-name="Path 885" class="cls-1" d="M15.875,10.108l-1.591-4.9A.9.9,0,0,0,13.55,4.6H12.326a.685.685,0,0,0-.734.612L10,10.108Z" transform="translate(-4.981 -4.6)"/>
    <path id="Path_886" data-name="Path 886" class="cls-1" d="M20.833,18.077h-.857L17.651,11.1H9.939L7.614,18.077H6.757a.989.989,0,0,0-.857,1.1.989.989,0,0,0,.857,1.1H20.711a.989.989,0,0,0,.857-1.1A.844.844,0,0,0,20.833,18.077Z" transform="translate(-5.9 -3.144)"/>
  </g>
</svg>
