<svg xmlns="http://www.w3.org/2000/svg" viewBox="-14030.884 3469.026 13.644 18.533">
  <defs>
    <style>
      .cls-1 {
        fill: #efc446;
      }
    </style>
  </defs>
  <g id="Group_394" data-name="Group 394" transform="translate(-14030.884 3469.026)">
    <path id="Path_889" data-name="Path 889" class="cls-1" d="M226.945,20.191h12.73a.263.263,0,0,0,.245-.245v-1.1a.263.263,0,0,0-.245-.245h-12.73a.263.263,0,0,0-.245.245v1.1A.263.263,0,0,0,226.945,20.191Z" transform="translate(-226.277 -1.658)"/>
    <path id="Path_890" data-name="Path 890" class="cls-1" d="M239.752,18.029H236.57a.263.263,0,0,1-.122-.49,6.618,6.618,0,0,0,3.55-6,6.731,6.731,0,0,0-7.589-6.732,7.01,7.01,0,0,0-6,5.875,6.927,6.927,0,0,0,3.55,6.977.263.263,0,0,1-.122.49H226.9a.263.263,0,0,0-.245.245v1.1a.263.263,0,0,0,.245.245h12.73a.263.263,0,0,0,.245-.245V18.4C240,18.151,239.875,18.029,239.752,18.029Zm-5.019-6.487a1.469,1.469,0,1,1-1.469-1.469.917.917,0,0,1,.612.122l1.714-.734-.857,1.591Z" transform="translate(-226.354 -4.759)"/>
  </g>
</svg>
