<svg xmlns="http://www.w3.org/2000/svg" viewBox="-14163.073 3468.219 13.098 20.319">
  <defs>
    <style>
      .cls-1 {
        fill: #efc446;
      }
    </style>
  </defs>
  <path id="Path_911" data-name="Path 911" class="cls-1" d="M179.91,24.419a6.582,6.582,0,0,1-6.61-6.61,6.02,6.02,0,0,1,.49-2.57,85.8,85.8,0,0,1,5.019-10.159l.245-.49a1.03,1.03,0,0,1,.857-.49h0a1.239,1.239,0,0,1,.857.49h0l.245.49c.122.245,3.672,6.977,4.9,10.159a6.392,6.392,0,0,1,.49,2.57A6.637,6.637,0,0,1,179.91,24.419Z" transform="translate(-14336.373 3464.119)"/>
</svg>
