<svg xmlns="http://www.w3.org/2000/svg" viewBox="-14079.813 3408.531 23.23 15.694">
  <defs>
    <style>
      .cls-1 {
        fill: #9aabaf;
      }
    </style>
  </defs>
  <g id="Group_387" data-name="Group 387" transform="translate(-14079.813 3408.531)">
    <path id="Path_879" data-name="Path 879" class="cls-1" d="M76.079,15.858l-.979-1.1,1.591-1.346-1.346-1.591a.786.786,0,0,1,.122-1.1L77.058,9.37,75.712,7.779l1.1-.979L78.65,9a.786.786,0,0,1-.122,1.1l-1.591,1.346,1.346,1.591a.786.786,0,0,1-.122,1.1Z" transform="translate(-55.59 -5.807)"/>
    <path id="Path_880" data-name="Path 880" class="cls-1" d="M61.167,19.08l-1.836-2.2a.786.786,0,0,1,.122-1.1l1.591-1.346L59.7,12.838a.786.786,0,0,1,.122-1.1l2.2-1.836L63,11l-1.591,1.346,1.346,1.591a.786.786,0,0,1-.122,1.1l-1.591,1.346,1.346,1.591Z" transform="translate(-59.161 -5.113)"/>
    <path id="Path_881" data-name="Path 881" class="cls-1" d="M75.12,6.737,66.062,6a1.839,1.839,0,0,0-2.081,1.714L63,18.855a2,2,0,0,0,1.836,2.081l9.058.734a1.839,1.839,0,0,0,2.081-1.714L76.956,8.7A1.907,1.907,0,0,0,75.12,6.737Z" transform="translate(-58.303 -5.989)"/>
  </g>
</svg>
