<svg id="Group_401" data-name="Group 401" xmlns="http://www.w3.org/2000/svg" viewBox="-13990.851 3498.215 22.082 22.082">
  <defs>
    <style>
      .cls-1 {
        fill: #cd3127;
      }
    </style>
  </defs>
  <path id="Path_915" data-name="Path 915" class="cls-1" d="M5.332,3.849l-.941-.883a.6.6,0,0,0-.878,0l-.5.5a.612.612,0,0,0,0,.883l.878.883a.6.6,0,0,0,.878,0l.5-.5A.567.567,0,0,0,5.332,3.849ZM2.384,10.031H.627A.594.594,0,0,0,0,10.662v.757a.594.594,0,0,0,.627.631H2.384a.594.594,0,0,0,.627-.631v-.757A.63.63,0,0,0,2.384,10.031ZM11.417,0h-.753a.594.594,0,0,0-.627.631v1.7a.594.594,0,0,0,.627.631h.753a.594.594,0,0,0,.627-.631V.631A.63.63,0,0,0,11.417,0Zm7.653,3.47-.5-.5a.6.6,0,0,0-.878,0l-.878.883a.612.612,0,0,0,0,.883l.5.5a.6.6,0,0,0,.878,0l.878-.82A.689.689,0,0,0,19.071,3.47ZM16.749,18.233l.941.946a.6.6,0,0,0,.878,0l.5-.5a.612.612,0,0,0,0-.883l-.941-.946a.6.6,0,0,0-.878,0l-.5.5A.611.611,0,0,0,16.749,18.233Zm2.321-7.571v.757a.594.594,0,0,0,.627.631h1.756a.594.594,0,0,0,.627-.631v-.757a.594.594,0,0,0-.627-.631H19.7A.594.594,0,0,0,19.071,10.662ZM10.664,22.082h.753a.594.594,0,0,0,.627-.631v-1.7a.594.594,0,0,0-.627-.631h-.753a.594.594,0,0,0-.627.631v1.7A.594.594,0,0,0,10.664,22.082Zm-7.653-3.47.5.5a.6.6,0,0,0,.878,0l.941-.946a.612.612,0,0,0,0-.883l-.5-.5a.6.6,0,0,0-.878,0l-.941.883A.689.689,0,0,0,3.011,18.612Z" transform="translate(-13990.851 3498.215)"/>
  <ellipse id="Ellipse_140" data-name="Ellipse 140" class="cls-1" cx="5.019" cy="5.019" rx="5.019" ry="5.019" transform="translate(-13984.828 3504.238)"/>
</svg>
