<svg xmlns="http://www.w3.org/2000/svg" viewBox="-11256.268 8697.271 46.613 46.613">
  <defs>
    <style>
      .cls-1 {
        fill: #d32c2a;
      }

      .cls-2 {
        fill: #f4f4f4;
      }
    </style>
  </defs>
  <g id="MiniCrash_Red" transform="translate(-11256.268 8697.271)">
    <circle id="Ellipse_14" data-name="Ellipse 14" class="cls-1" cx="23.307" cy="23.307" r="23.307" transform="translate(0)"/>
    <g id="Group_311" data-name="Group 311" transform="translate(11.18 8.717)">
      <path id="Path_885" data-name="Path 885" class="cls-2" d="M19.1,13.127,16.632,5.547A1.4,1.4,0,0,0,15.5,4.6H13.6a1.061,1.061,0,0,0-1.137.947L10,13.127Z" transform="translate(-2.231 -4.6)"/>
      <path id="Path_886" data-name="Path 886" class="cls-2" d="M29.017,21.9H27.691l-3.6-10.8H12.153l-3.6,10.8H7.226A1.531,1.531,0,0,0,5.9,23.606a1.531,1.531,0,0,0,1.326,1.705h21.6a1.531,1.531,0,0,0,1.326-1.705A1.306,1.306,0,0,0,29.017,21.9Z" transform="translate(-5.9 1.217)"/>
    </g>
  </g>
</svg>
