<svg xmlns="http://www.w3.org/2000/svg" viewBox="-11324.634 8545 46.613 46.613">
  <defs>
    <style>
      .cls-1 {
        fill: #4c9d45;
      }

      .cls-2 {
        fill: #f4f4f4;
      }
    </style>
  </defs>
  <g id="MiniHumidity_Green" transform="translate(-11324.634 8545)">
    <circle id="Ellipse_11" data-name="Ellipse 11" class="cls-1" cx="23.307" cy="23.307" r="23.307" transform="translate(0 0)"/>
    <path id="Path_875" data-name="Path 875" class="cls-2" d="M183.532,35.555A10.19,10.19,0,0,1,173.3,25.322a9.319,9.319,0,0,1,.758-3.979,132.82,132.82,0,0,1,7.769-15.727l.379-.758a1.6,1.6,0,0,1,1.326-.758h0a1.918,1.918,0,0,1,1.326.758h0l.379.758c.189.379,5.685,10.8,7.579,15.727a9.9,9.9,0,0,1,.758,3.979A10.274,10.274,0,0,1,183.532,35.555Z" transform="translate(-160.226 3.669)"/>
  </g>
</svg>
