<svg xmlns="http://www.w3.org/2000/svg" viewBox="-11051.168 8621.136 46.613 46.613">
  <defs>
    <style>
      .cls-1 {
        fill: #efc446;
      }

      .cls-2 {
        fill: #f3f3f3;
      }

      .cls-3 {
        fill: #f4f4f4;
      }
    </style>
  </defs>
  <g id="MiniLumi_Yellow" transform="translate(-11051.168 8621.136)">
    <g id="Group_344" data-name="Group 344" transform="translate(0 0)">
      <ellipse id="Ellipse_11" data-name="Ellipse 11" class="cls-1" cx="23.307" cy="23.307" rx="23.307" ry="23.307" transform="translate(0)"/>
    </g>
    <g id="Group_343" data-name="Group 343" transform="translate(6.215 6.215)">
      <path id="Path_902" data-name="Path 902" class="cls-2" d="M8.254,5.958,6.8,4.59a.935.935,0,0,0-1.36,0l-.777.781a.948.948,0,0,0,0,1.367l1.36,1.367a.935.935,0,0,0,1.36,0l.777-.781A.877.877,0,0,0,8.254,5.958ZM3.69,15.529H.971A.92.92,0,0,0,0,16.506v1.172a.92.92,0,0,0,.971.977H3.69a.92.92,0,0,0,.971-.977V16.506A.976.976,0,0,0,3.69,15.529ZM17.674,0H16.509a.92.92,0,0,0-.971.977V3.614a.92.92,0,0,0,.971.977h1.165a.92.92,0,0,0,.971-.977V.977A.976.976,0,0,0,17.674,0ZM29.522,5.372l-.777-.781a.935.935,0,0,0-1.36,0l-1.36,1.367a.948.948,0,0,0,0,1.367l.777.781a.935.935,0,0,0,1.36,0l1.36-1.27A1.067,1.067,0,0,0,29.522,5.372ZM25.929,28.226l1.457,1.465a.935.935,0,0,0,1.36,0l.777-.781a.948.948,0,0,0,0-1.367l-1.457-1.465a.935.935,0,0,0-1.36,0l-.777.781A.946.946,0,0,0,25.929,28.226Zm3.593-11.72v1.172a.92.92,0,0,0,.971.977h2.719a.92.92,0,0,0,.971-.977V16.506a.92.92,0,0,0-.971-.977H30.493A.92.92,0,0,0,29.522,16.506ZM16.509,34.183h1.165a.92.92,0,0,0,.971-.977V30.57a.92.92,0,0,0-.971-.977H16.509a.92.92,0,0,0-.971.977v2.637A.92.92,0,0,0,16.509,34.183ZM4.661,28.812l.777.781a.935.935,0,0,0,1.36,0l1.457-1.465a.948.948,0,0,0,0-1.367l-.777-.781a.935.935,0,0,0-1.36,0L4.661,27.347A1.067,1.067,0,0,0,4.661,28.812Z" transform="translate(0 0)"/>
    </g>
    <circle id="Ellipse_16" data-name="Ellipse 16" class="cls-3" cx="7.769" cy="7.769" r="7.769" transform="translate(15.538 15.538)"/>
  </g>
</svg>
