<svg xmlns="http://www.w3.org/2000/svg" viewBox="-11119.534 8621.136 46.613 46.613">
  <defs>
    <style>
      .cls-1 {
        fill: #efc446;
      }

      .cls-2 {
        fill: #f4f4f4;
      }
    </style>
  </defs>
  <g id="MiniPress_Yellow" transform="translate(-11119.534 8621.136)">
    <circle id="Ellipse_15" data-name="Ellipse 15" class="cls-1" cx="23.307" cy="23.307" r="23.307" transform="translate(0 0)"/>
    <g id="Group_314" data-name="Group 314" transform="translate(12.609 9.018)">
      <path id="Path_889" data-name="Path 889" class="cls-2" d="M227.079,21.063h19.707a.408.408,0,0,0,.379-.379V18.979a.408.408,0,0,0-.379-.379H227.079a.408.408,0,0,0-.379.379v1.705A.408.408,0,0,0,227.079,21.063Z" transform="translate(-226.045 7.626)"/>
      <path id="Path_890" data-name="Path 890" class="cls-2" d="M247.095,25.3h-4.927a.407.407,0,0,1-.189-.758,10.245,10.245,0,0,0,5.5-9.285A10.42,10.42,0,0,0,235.726,4.836a10.852,10.852,0,0,0-9.285,9.1,10.724,10.724,0,0,0,5.5,10.8.407.407,0,0,1-.189.758H227.2a.408.408,0,0,0-.379.379v1.705a.408.408,0,0,0,.379.379h19.706a.407.407,0,0,0,.379-.379V25.869C247.474,25.49,247.284,25.3,247.095,25.3Zm-7.769-10.043a2.274,2.274,0,1,1-2.274-2.274,1.42,1.42,0,0,1,.947.189l2.653-1.137L239.326,14.5Z" transform="translate(-226.354 -4.759)"/>
    </g>
  </g>
</svg>
