<svg xmlns="http://www.w3.org/2000/svg" viewBox="-11187.9 8545 46.613 46.613">
  <defs>
    <style>
      .cls-1 {
        fill: #4c9d45;
      }

      .cls-2 {
        fill: #f4f4f4;
      }
    </style>
  </defs>
  <g id="MiniVib_Green" transform="translate(-11187.9 8545)">
    <circle id="Ellipse_13" data-name="Ellipse 13" class="cls-1" cx="23.307" cy="23.307" r="23.307" transform="translate(0 0)"/>
    <g id="Group_308" data-name="Group 308" transform="translate(5.231 11.348)">
      <path id="Path_879" data-name="Path 879" class="cls-2" d="M76.616,20.822,75.1,19.117l2.463-2.084-2.084-2.463a1.217,1.217,0,0,1,.189-1.705l2.463-2.084L76.047,8.316,77.753,6.8,80.6,10.211a1.217,1.217,0,0,1-.189,1.705L77.942,14l2.084,2.463a1.217,1.217,0,0,1-.189,1.705Z" transform="translate(-44.897 -5.264)"/>
      <path id="Path_880" data-name="Path 880" class="cls-2" d="M62.267,24.111,59.425,20.7A1.217,1.217,0,0,1,59.614,19l2.463-2.084-2.084-2.463a1.217,1.217,0,0,1,.189-1.705L63.593,9.9l1.516,1.705L62.646,13.69l2.084,2.463a1.217,1.217,0,0,1-.189,1.705l-2.463,2.084,2.084,2.463Z" transform="translate(-59.161 -2.489)"/>
      <path id="Path_881" data-name="Path 881" class="cls-2" d="M81.768,7.147,67.746,6.01a2.847,2.847,0,0,0-3.221,2.653L63.009,25.906a3.1,3.1,0,0,0,2.842,3.221l14.022,1.137a2.847,2.847,0,0,0,3.221-2.653L84.61,10.178a2.951,2.951,0,0,0-2.842-3.032Z" transform="translate(-55.733 -5.989)"/>
    </g>
  </g>
</svg>
