<svg xmlns="http://www.w3.org/2000/svg" viewBox="-10903.998 8373.352 29.604 29.604">
  <defs>
    <style>
      .cls-1 {
        fill: #f4f4f4;
      }
    </style>
  </defs>
  <path id="Path_656" data-name="Path 656" class="cls-1" d="M18.4,178.319a5.117,5.117,0,1,1,5.117-5.117,5.108,5.108,0,0,1-5.117,5.117m14.8-3.289v-3.655l-4.386-.731a8.4,8.4,0,0,0-1.279-2.924l2.558-3.655-2.558-2.558-3.655,2.558a14.144,14.144,0,0,0-2.924-1.279l-.731-4.386H16.574l-.731,4.386a8.4,8.4,0,0,0-2.924,1.279l-3.655-2.558-2.558,2.558,2.558,3.655a14.145,14.145,0,0,0-1.279,2.924l-4.386.731v3.655l4.386.731a8.4,8.4,0,0,0,1.279,2.924l-2.558,3.655L9.265,184.9l3.655-2.558a14.145,14.145,0,0,0,2.924,1.279L16.574,188h3.655l.731-4.386a8.4,8.4,0,0,0,2.924-1.279l3.655,2.558,2.558-2.558-2.558-3.655a14.144,14.144,0,0,0,1.279-2.924Z" transform="translate(-10907.598 8214.951)"/>
</svg>
