<svg xmlns="http://www.w3.org/2000/svg" viewBox="-11467.772 2369.686 152.816 222.543">
  <defs>
    <style>
      .cls-1 {
        fill: none;
        stroke: #dcdbdb;
      }
    </style>
  </defs>
  <g id="Group_39" data-name="Group 39" transform="translate(-11467.26 2370.475)">
    <path id="Path_46" data-name="Path 46" class="cls-1" d="M66.8,134.276l13.719.752V133.9" transform="translate(16.646 33.128)"/>
    <line id="Line_1" data-name="Line 1" class="cls-1" x2="7.803" y2="0.251" transform="translate(118.435 167.154)"/>
    <line id="Line_2" data-name="Line 2" class="cls-1" x2="10.446" y2="0.376" transform="translate(108.366 166.652)"/>
    <path id="Path_47" data-name="Path 47" class="cls-1" d="M95.1,136.205a28.011,28.011,0,0,0,6.041-2.005" transform="translate(23.964 33.204)"/>
    <path id="Path_48" data-name="Path 48" class="cls-1" d="M93.1,136.334a7.074,7.074,0,0,1,6.167-3.134" transform="translate(23.447 32.951)"/>
    <line id="Line_3" data-name="Line 3" class="cls-1" x1="0.503" y2="39.107" transform="translate(48.205 173.17)"/>
    <path id="Path_49" data-name="Path 49" class="cls-1" d="M15.516,163.8s-2.643.376-2.895.5-1.259.5.126.627a43.645,43.645,0,0,0,5.664.125,11.112,11.112,0,0,0,1.762-.251" transform="translate(2.482 40.706)"/>
    <path id="Path_50" data-name="Path 50" class="cls-1" d="M12.031,164.5l-.126,3.886s-.252.5.881.627a22.7,22.7,0,0,0,5.79-.125c1.636-.376,1.762-.125,1.888-1.253,0-1,.126-3.134.126-3.134" transform="translate(2.443 40.884)"/>
    <path id="Path_51" data-name="Path 51" class="cls-1" d="M14.7,163.4l.126.877s-.126.5.378.5,1.133.251,1.133-.627v-.376" transform="translate(3.172 40.605)"/>
    <path id="Path_52" data-name="Path 52" class="cls-1" d="M37.6,176.176s1.259.877,4.909.627c3.65-.376,4.783-.5,5.286-1" transform="translate(9.094 43.747)"/>
    <path id="Path_53" data-name="Path 53" class="cls-1" d="M37.6,170v7.771s-.252.877.881,1a22.141,22.141,0,0,0,6.671.125c2.643-.5,2.643-.752,2.643-2.131V169.5" transform="translate(9.089 42.151)"/>
    <path id="Path_54" data-name="Path 54" class="cls-1" d="M79.6,170.5s.126.376,2.517.5,5.664.251,6.671-.5" transform="translate(19.956 42.404)"/>
    <path id="Path_55" data-name="Path 55" class="cls-1" d="M79.5,165.7l.126,6.142s-.252.627.755.877,5.034.877,6.167.627c1.007-.251,2.391-.251,2.391-1s-.126-7.646-.126-7.646" transform="translate(19.93 40.934)"/>
    <path id="Path_56" data-name="Path 56" class="cls-1" d="M93.9,136.7a7.826,7.826,0,0,1,.126,1.379c0,.752.5,24.567.5,24.567l.252,7.9" transform="translate(23.654 33.838)"/>
    <path id="Path_57" data-name="Path 57" class="cls-1" d="M83.688,133.7l.126,4.011s0,.5-1.888.125L81.8,133.7" transform="translate(20.525 33.078)"/>
    <line id="Line_4" data-name="Line 4" class="cls-1" x1="5.16" y2="0.376" transform="translate(97.165 170.663)"/>
    <path id="Path_58" data-name="Path 58" class="cls-1" d="M84.874,136.7l4.783.376-6.293.376L77.7,137.2l.126,1.128,5.412.376,6.293-.376.126-1.253" transform="translate(19.465 33.838)"/>
    <path id="Path_59" data-name="Path 59" class="cls-1" d="M43.6,136.808l10.069-.376s11.076-.251,13.845-.125,17.369,1.128,17.369,1.128l1.636.125" transform="translate(10.646 33.729)"/>
    <path id="Path_60" data-name="Path 60" class="cls-1" d="M41.2,135.4a5.564,5.564,0,0,0,2.14,0" transform="translate(10.025 33.508)"/>
    <path id="Path_61" data-name="Path 61" class="cls-1" d="M43.525,134.9s-.252.5,0,.627.5-.125.629.125a2.125,2.125,0,0,1,.126.877v.251c0,.376.126.752-.126.877a9.327,9.327,0,0,1-1.51.251H41.007l-.252-.125s-.252-.251-.126-.5c0-.376.126-.627,0-.752s-.252-.5,0-.627a1.877,1.877,0,0,1,.755-.125c.126,0,0-.877,0-.877" transform="translate(9.84 33.382)"/>
    <path id="Path_62" data-name="Path 62" class="cls-1" d="M43.5,136.43l6.167-.251s1.259-.251.881-1.379" transform="translate(10.62 33.356)"/>
    <line id="Line_5" data-name="Line 5" class="cls-1" x2="1.762" transform="translate(48.582 170.789)"/>
    <line id="Line_6" data-name="Line 6" class="cls-1" y1="0.125" x2="1.762" transform="translate(48.582 169.911)"/>
    <path id="Path_63" data-name="Path 63" class="cls-1" d="M36.543,134.525v.5l-.5.125v.877s.378.251-1.636.125v-.877l-.5-.125V134.4" transform="translate(8.137 33.255)"/>
    <path id="Path_64" data-name="Path 64" class="cls-1" d="M40.522,135.7v2.256l-6.922.251v-2.131" transform="translate(8.06 33.585)"/>
    <line id="Line_7" data-name="Line 7" class="cls-1" x1="4.405" y2="0.251" transform="translate(38.01 169.159)"/>
    <path id="Path_65" data-name="Path 65" class="cls-1" d="M36.893,135.5h.755l3.65.251-6.922.376-3.65-.251-.126,2.131,1.259.251v-.5h.881l.126.5h1.51" transform="translate(7.284 33.534)"/>
    <line id="Line_8" data-name="Line 8" class="cls-1" y1="0.251" x2="9.44" transform="translate(28.445 171.29)"/>
    <line id="Line_9" data-name="Line 9" class="cls-1" y1="0.752" x2="14.222" transform="translate(23.662 170.413)"/>
    <line id="Line_10" data-name="Line 10" class="cls-1" y1="3.259" x2="0.126" transform="translate(20.389 167.53)"/>
    <line id="Line_11" data-name="Line 11" class="cls-1" y1="3.134" transform="translate(18.753 167.53)"/>
    <path id="Path_66" data-name="Path 66" class="cls-1" d="M15,134.2s0-.5.252-.5h2.014a.369.369,0,0,1,.378.376v.5l-2.391.125C15.252,134.452,15,134.327,15,134.2Z" transform="translate(3.25 33.078)"/>
    <path id="Path_67" data-name="Path 67" class="cls-1" d="M7.8,136.3a3.125,3.125,0,0,1,1.133-.376,17.593,17.593,0,0,1,2.14-.125s.5-.125.5.627" transform="translate(1.388 33.608)"/>
    <path id="Path_68" data-name="Path 68" class="cls-1" d="M103.715,135.1s18.376,1.128,19.886,1.253a2.717,2.717,0,0,1,1.259.251.749.749,0,0,1,.378.752c0,.376.252,7.019.252,8.147,0,1,.252,10.278,0,11.532s-1.51,5.264-1.888,6.518a30.124,30.124,0,0,0-1.007,5.264c-.252,1.63-.881,1.5-.881,1.5l-4.279.752-53.743,6.267s-10.824,1.379-14.474,1.5a27.469,27.469,0,0,1-6.8-.627s-33.353-9.9-34.36-10.153-.755-1-.755-1,.755-28.954.629-29.832c0-.877.378-.877.378-.877l9.188.877,25.046,2.382s2.895.125,4.531.251h5.034s1.007-.251,1.007.627,0,1.88,2.391,1.755c2.517-.125,46.946-2.382,46.946-2.382l4.405-.251s1.133.251,1.259-1.629c0-.5.126-.752.755-.752s15.229-.376,15.229-.376,1.259-.125.629-.376" transform="translate(1.253 33.432)"/>
    <path id="Path_69" data-name="Path 69" class="cls-1" d="M58.1,107.7v.251l-.881.125s-.252.125.126.125H58.1v2.507c.126,0,0,.251,0,.251h.126v-.251l.126-.125a15.021,15.021,0,0,1,0-2.382h.881s.378-.125,0-.125H58.35v-.251" transform="translate(14.146 26.488)"/>
    <path id="Path_70" data-name="Path 70" class="cls-1" d="M57.6,106.8h1.007" transform="translate(14.266 26.26)"/>
    <path id="Path_71" data-name="Path 71" class="cls-1" d="M57.5,106.6h1.133" transform="translate(14.241 26.209)"/>
    <path id="Path_72" data-name="Path 72" class="cls-1" d="M57.4,105.1a5.026,5.026,0,0,0,1.384,0" transform="translate(14.215 25.829)"/>
    <path id="Path_73" data-name="Path 73" class="cls-1" d="M57.1,104.1a12.1,12.1,0,0,0,2.14,0" transform="translate(14.137 25.576)"/>
    <path id="Path_74" data-name="Path 74" class="cls-1" d="M56.969,70.3l.252,32.339a1.353,1.353,0,0,1-.378.877,13.56,13.56,0,0,1-2.643.5" transform="translate(13.387 17.01)"/>
    <path id="Path_75" data-name="Path 75" class="cls-1" d="M60.2,97.4s1.133-.125,1.384-.5" transform="translate(14.939 23.751)"/>
    <path id="Path_76" data-name="Path 76" class="cls-1" d="M62.641,96.3v.5c0,.125-.252.376-1.384.376-1.259,0-4.279-.125-4.657-.627" transform="translate(14.008 23.599)"/>
    <path id="Path_77" data-name="Path 77" class="cls-1" d="M53.6,102.911l3.776-.627,6.167.251L63.291,71.7" transform="translate(13.232 17.364)"/>
    <path id="Path_78" data-name="Path 78" class="cls-1" d="M54.5,97.251,58.528,97l3.021.251a34.641,34.641,0,0,1,0,3.635c-.126.5,0,2.131-1.762,2.131a6.3,6.3,0,0,1-1.636-.125" transform="translate(13.465 23.776)"/>
    <path id="Path_79" data-name="Path 79" class="cls-1" d="M55.178,97.737a2.107,2.107,0,0,1,2.266.376,1.768,1.768,0,0,1,.629,1.379v3.384L59.96,103a3.186,3.186,0,0,1,0,1.128c0,.251-.378.251-.378.251h-1.51a.783.783,0,0,1-1.007-.627,9.327,9.327,0,0,1-.378-2.507c0-.752,0-2.507-.5-2.883s-.881-.752-1.384,0" transform="translate(13.542 23.917)"/>
    <path id="Path_80" data-name="Path 80" class="cls-1" d="M53.5,71.9l.252,30.835v.627a13.862,13.862,0,0,0,1.384.376c0,.376.5.251.5.251.5,0,0,.125,0,.125a1.552,1.552,0,0,0-.252.376,3.283,3.283,0,0,0-.629,1.128,6.325,6.325,0,0,0,.378,3.259c.881,2.131,1.762,1.88,1.762,1.88,1.259,0,1.133-.125,1.133-.125v1.5a.869.869,0,0,1,.378.5v.627s0,.251.126.251v1.755a.274.274,0,0,1,.126.376v1a2.348,2.348,0,0,0,1.007,0c.126,0,0-.125,0-.5v-.5l-.126-.251c0-.125.126,0,.126-.5v-1.5s.126,0,.126-.376a4.416,4.416,0,0,1,.126-.752c.126-.125.126-.125.126-.5v-1.128" transform="translate(13.206 17.415)"/>
    <path id="Path_81" data-name="Path 81" class="cls-1" d="M30.5,111.3s-.126.752.5.877" transform="translate(7.256 27.401)"/>
    <path id="Path_82" data-name="Path 82" class="cls-1" d="M34.3,111.9a2.626,2.626,0,0,0,1.007,0" transform="translate(8.241 27.553)"/>
    <path id="Path_83" data-name="Path 83" class="cls-1" d="M30.8,111.7s.881.125,1.133.125h1.133a1.535,1.535,0,0,0-.252,1.128c0,.627.252,4.763.252,4.763v1.128a2.541,2.541,0,0,1-.126.627" transform="translate(7.336 27.502)"/>
    <path id="Path_84" data-name="Path 84" class="cls-1" d="M34.3,111.4v.752a.44.44,0,0,0,.252.125,6.268,6.268,0,0,1,.252,1.5l.126-1.5.252-.125V111.4" transform="translate(8.241 27.422)"/>
    <path id="Path_85" data-name="Path 85" class="cls-1" d="M30.7,111.3v.627s.126.376.378.376a.459.459,0,0,1,.126.376v.752h.126l.126-1.128s.378.125.378-.376V111.3" transform="translate(7.31 27.401)"/>
    <path id="Path_86" data-name="Path 86" class="cls-1" d="M30.7,111.477l8.433.125.126-1" transform="translate(7.31 27.223)"/>
    <path id="Path_87" data-name="Path 87" class="cls-1" d="M28.8,110.452a1.75,1.75,0,0,1,.5-.627,8.368,8.368,0,0,1,1.888-.125c.126,0,6.922.125,6.922.125s.5.125.881.251a.8.8,0,0,1,.629.752c-.5,0-8.559-.125-8.559-.125" transform="translate(6.819 26.995)"/>
    <path id="Path_88" data-name="Path 88" class="cls-1" d="M28.6,110.355l2.265-.251s.378-.125.378.251v1.128l-2.517.125v-1.253Z" transform="translate(6.767 27.092)"/>
    <path id="Path_89" data-name="Path 89" class="cls-1" d="M32.8,119.546l1.888-.125c-.378,0-.5-.125-.755-.5-.378-.251-.5-1.5-.5-1.5s-.252-4.262-.252-4.638c0-.5.378-.627.378-.752.126-.125.5-.125.5-.125h.755" transform="translate(7.853 27.553)"/>
    <path id="Path_90" data-name="Path 90" class="cls-1" d="M31.626,112a1.729,1.729,0,0,1,.252.877v5.014a8.726,8.726,0,0,1-.378,1.5" transform="translate(7.517 27.578)"/>
    <path id="Path_91" data-name="Path 91" class="cls-1" d="M30.3,119.684v-1.379s0-.251.378-.376c.378,0,2.391-.125,2.391-.125s.5-.125.5.251v.5h1.762a.548.548,0,0,0,.126-.376V117.8h.378c.126,0,.126.125.126.376v1.128" transform="translate(7.207 29.044)"/>
    <line id="Line_12" data-name="Line 12" class="cls-1" y1="0.501" transform="translate(32.22 148.477)"/>
    <line id="Line_13" data-name="Line 13" class="cls-1" y2="0.627" transform="translate(27.941 148.477)"/>
    <line id="Line_14" data-name="Line 14" class="cls-1" y2="10.654" transform="translate(67.713 137.573)"/>
    <path id="Path_92" data-name="Path 92" class="cls-1" d="M50,110.751v.627l2.769-.251V110.5" transform="translate(12.301 27.198)"/>
    <path id="Path_93" data-name="Path 93" class="cls-1" d="M58.4,115.5s.5.627.126,1" transform="translate(14.473 28.465)"/>
    <path id="Path_94" data-name="Path 94" class="cls-1" d="M56.1,113.7s.881.752,0,1.379" transform="translate(13.879 28.009)"/>
    <path id="Path_95" data-name="Path 95" class="cls-1" d="M58.6,112.4a.886.886,0,0,1,0,1.379" transform="translate(14.525 27.679)"/>
    <path id="Path_96" data-name="Path 96" class="cls-1" d="M60.2,114a.866.866,0,0,1,0,1.253" transform="translate(14.939 28.085)"/>
    <ellipse id="Ellipse_7" data-name="Ellipse 7" class="cls-1" cx="1.385" cy="1.504" rx="1.385" ry="1.504" transform="translate(74.487 141.228) rotate(-0.806)"/>
    <ellipse id="Ellipse_8" data-name="Ellipse 8" class="cls-1" cx="0.755" cy="0.877" rx="0.755" ry="0.877" transform="translate(72.868 143.6) rotate(-0.478)"/>
    <path id="Path_97" data-name="Path 97" class="cls-1" d="M57.662,114.5a.888.888,0,1,1-.881-1A.9.9,0,0,1,57.662,114.5Z" transform="translate(13.827 27.958)"/>
    <ellipse id="Ellipse_9" data-name="Ellipse 9" class="cls-1" cx="0.881" cy="1.003" rx="0.881" ry="1.003" transform="matrix(1, -0.011, 0.011, 1, 72.86, 139.831)"/>
    <ellipse id="Ellipse_10" data-name="Ellipse 10" class="cls-1" cx="0.881" cy="1.003" rx="0.881" ry="1.003" transform="matrix(1, -0.008, 0.008, 1, 74.881, 141.72)"/>
    <path id="Path_98" data-name="Path 98" class="cls-1" d="M62.81,111.977a.764.764,0,1,1-.755-.877C62.559,111.1,62.81,111.476,62.81,111.977Z" transform="translate(15.223 27.35)"/>
    <path id="Path_99" data-name="Path 99" class="cls-1" d="M53.1,116.527c0,.376-.126.627-.252.627s-.252-.251-.252-.627.126-.627.252-.627S53.1,116.276,53.1,116.527Z" transform="translate(12.973 28.566)"/>
    <path id="Path_100" data-name="Path 100" class="cls-1" d="M51.629,117.6c0,.251-.126.627-.252.627a.56.56,0,0,1-.378-.5c0-.376.126-.627.252-.627C51.5,117.1,51.629,117.351,51.629,117.6Z" transform="translate(12.56 28.871)"/>
    <ellipse id="Ellipse_11" data-name="Ellipse 11" class="cls-1" cx="0.252" cy="0.627" rx="0.252" ry="0.627" transform="translate(63.173 140.703) rotate(-0.625)"/>
    <path id="Path_101" data-name="Path 101" class="cls-1" d="M52.9,113.4c0,.251-.126.5-.252.5s-.252-.251-.252-.5.126-.5.252-.5S52.778,113.151,52.9,113.4Z" transform="translate(12.922 27.806)"/>
    <path id="Path_102" data-name="Path 102" class="cls-1" d="M49.3,120.929V110.776h3.65v-.251l2.643-.125,12.838.251.126,10.4" transform="translate(12.12 27.172)"/>
    <line id="Line_15" data-name="Line 15" class="cls-1" y2="20.18" transform="translate(55.379 148.227)"/>
    <path id="Path_103" data-name="Path 103" class="cls-1" d="M126.361,136.75,74,138.5l-18.124.627L.5,135.621l.378-14.54a.561.561,0,0,1,.5-.376l33.227-1.128,8.936-.376,12.334-.376h74.258l17.495-.125h1.259a1.4,1.4,0,0,1,1.007.752c.252.627,1.51,3.886,1.762,4.888a15.51,15.51,0,0,1,.629,6.017A21.053,21.053,0,0,1,151.03,137c-.126.5-.378,1.63-1.384,1.755s-15.481,1-15.481,1h-6.545a1.226,1.226,0,0,1-.629-.752,9.732,9.732,0,0,1-.378-1.128l-.5-2.256a51.483,51.483,0,0,1-.755-9.651c.126-1.88.755-6.393.755-6.393.126-.376.378-.5.755-.627.5-.125,1.762-.251,1.762-.251" transform="translate(-0.5 29.276)"/>
    <path id="Path_104" data-name="Path 104" class="cls-1" d="M104.5,119.3s.755,19.554,1.007,20.431" transform="translate(26.395 29.428)"/>
    <path id="Path_105" data-name="Path 105" class="cls-1" d="M100.6,119.3h4.405s4.531-.125,5.412-.125S123,118.8,123,118.8" transform="translate(25.387 29.301)"/>
    <path id="Path_106" data-name="Path 106" class="cls-1" d="M113.834,127.844a3.274,3.274,0,0,1-1.51,1c-.881.125-2.391-.251-2.517-1.253a3.46,3.46,0,0,1,.629-2.632c.378-.5,1.51-1.5,2.391-1.253s1.762.5,1.762,1.379.126,1.379-.126,1.755" transform="translate(27.759 30.535)"/>
    <path id="Path_107" data-name="Path 107" class="cls-1" d="M109.632,132.722s-1.007-3.259-.5-4.888a9.536,9.536,0,0,1,2.14-3.635c.755-.627,3.4-2.382,5.664-1.88" transform="translate(27.556 30.17)"/>
    <path id="Path_108" data-name="Path 108" class="cls-1" d="M109.974,133.165s-2.643-3.51-2.769-5.891.252-5.139,1.762-5.891a5.869,5.869,0,0,1,5.79-.251l2.14,1.128s.755.125.252,1.379c-.629,1.128-2.014,4.262-2.391,4.763-.5.5-3.4,3.635-3.65,3.886C110.855,132.664,110.225,133.416,109.974,133.165Z" transform="translate(27.089 29.727)"/>
    <line id="Line_16" data-name="Line 16" class="cls-1" x2="0.126" y2="0.627" transform="translate(24.795 148.603)"/>
    <path id="Path_109" data-name="Path 109" class="cls-1" d="M76.5,112.974s6.041-1.755,10.824-.251" transform="translate(19.154 27.607)"/>
    <line id="Line_17" data-name="Line 17" class="cls-1" x2="10.069" y2="1.003" transform="translate(76.649 95.708)"/>
    <line id="Line_18" data-name="Line 18" class="cls-1" x2="10.698" y2="1.128" transform="translate(76.523 93.451)"/>
    <path id="Path_110" data-name="Path 110" class="cls-1" d="M65.3,130.938s.126-13.286.126-14.665c0-1.5,1.259-16.921,2.014-21.308.378-3.008,1.636-9.526,2.014-11.03.378-1.629,1.762-7.27,1.762-7.27L78.767,71.4l.629,50.89s-.126,1.128.378,1.253,7.3,2.382,8.433,2.883c1.259.5,3.4,1.5,3.776,1.629.252.251.252.251.252,1,0,.627.126,1.88.126,1.88" transform="translate(16.258 17.288)"/>
    <path id="Path_111" data-name="Path 111" class="cls-1" d="M88.5,119.382s.126-1.5.881-1.88a2.822,2.822,0,0,1,1.888-.5c1.133,0,4.028.125,4.028.125a1.934,1.934,0,0,1,1.259.752,2.981,2.981,0,0,1,.5,1.5" transform="translate(22.257 28.845)"/>
    <path id="Path_112" data-name="Path 112" class="cls-1" d="M99.372,117.122a6.567,6.567,0,0,0-3.4-1,39.67,39.67,0,0,0-5.664,0c-.5.125-3.272.376-3.4.752a5.059,5.059,0,0,0,0,1.379V119.5" transform="translate(21.832 28.598)"/>
    <path id="Path_113" data-name="Path 113" class="cls-1" d="M72.481,70.1l5.412.627,3.021.376a.543.543,0,0,1,.252.5,4.92,4.92,0,0,1-.629.5l-1.384-.251L71.6,70.977" transform="translate(17.887 16.959)"/>
    <line id="Line_19" data-name="Line 19" class="cls-1" x2="7.426" y2="1.003" transform="translate(110.506 86.683)"/>
    <path id="Path_114" data-name="Path 114" class="cls-1" d="M92.581,65.8l3.776,4.888s1.133,1-.126,1.755-8.055,5.264-8.055,5.264a2.712,2.712,0,0,1-1.384.251c-.629.376-2.391,1.629-2.391,1.629" transform="translate(21.197 15.869)"/>
    <path id="Path_115" data-name="Path 115" class="cls-1" d="M79,71.6l7.929,1s.755,0,.755.5-.126.5-.378.877c-.252.251-1.384,1.629-1.384,1.629s-.126,0-.126,1.5c0,1.379.629,31.587.629,31.587l.252,13.913s0,.627.5.752c.629.251,9.44,2.382,11.831,3.635s2.517,1.379,2.517,2.131v2.006" transform="translate(19.801 17.339)"/>
    <path id="Path_116" data-name="Path 116" class="cls-1" d="M86.762,67.6l2.014,2.256s.755.627.126,1S85,73.491,85,73.491" transform="translate(21.352 16.325)"/>
    <line id="Line_20" data-name="Line 20" class="cls-1" x2="19.131" y2="2.507" transform="translate(91.375 84.176)"/>
    <line id="Line_21" data-name="Line 21" class="cls-1" x2="1.259" y2="1.504" transform="translate(100.689 74.65)"/>
    <path id="Path_117" data-name="Path 117" class="cls-1" d="M73.1,64.2,95,67.334s1.007.251.881,1" transform="translate(18.275 15.464)"/>
    <path id="Path_118" data-name="Path 118" class="cls-1" d="M71.2,59.9s19.383,2.758,20.012,3.134a7.945,7.945,0,0,1,3.4,2.256,7.568,7.568,0,0,1,1.636,3.635,3.587,3.587,0,0,1-.252,1.5L73.717,67.3" transform="translate(17.784 14.374)"/>
    <path id="Path_119" data-name="Path 119" class="cls-1" d="M70.2,58.5l18.124,2.883,2.265.376s1.007.125,2.14,2.005" transform="translate(17.525 14.019)"/>
    <path id="Path_120" data-name="Path 120" class="cls-1" d="M67.945,55.5s4.405,2.883,6.293,6.393,2.517,6.142,2.014,9.025-2.391,5.014-4.405,5.515A34.862,34.862,0,0,1,61.4,78.062" transform="translate(15.249 13.259)"/>
    <line id="Line_22" data-name="Line 22" class="cls-1" x2="32.85" y2="3.51" transform="translate(33.857 91.07)"/>
    <line id="Line_23" data-name="Line 23" class="cls-1" x2="32.724" y2="3.635" transform="translate(33.857 88.688)"/>
    <path id="Path_121" data-name="Path 121" class="cls-1" d="M53.6,72.567l-.5-.251a5.938,5.938,0,0,0,2.643-.877c1.007-.752,1.133-.752,1.259-1a.5.5,0,0,1,.629-.125A30.226,30.226,0,0,0,63.8,72.065c.629.125.629.251.126.627a1.81,1.81,0,0,1-.378.251" transform="translate(13.103 16.999)"/>
    <path id="Path_122" data-name="Path 122" class="cls-1" d="M45.5,69.2s3.4,2.005,4.405,2.382,4.153,1.755,5.538,1.88" transform="translate(11.137 16.731)"/>
    <path id="Path_123" data-name="Path 123" class="cls-1" d="M50.119,67.332,29.729,64.7l-.629.5v.5l20.893,2.632" transform="translate(6.896 15.59)"/>
    <line id="Line_24" data-name="Line 24" class="cls-1" y1="0.251" x2="1.259" transform="translate(57.015 64.372)"/>
    <path id="Path_124" data-name="Path 124" class="cls-1" d="M52.829,1.176,52.2.8c.126.752,1.384,22.938,1.51,24.818.126,1.755.881,22.061,1.007,24.066s.629,24.567.629,24.567" transform="translate(12.87 -0.604)"/>
    <path id="Path_125" data-name="Path 125" class="cls-1" d="M63.9,3.2" transform="translate(15.896 0.004)"/>
    <path id="Path_126" data-name="Path 126" class="cls-1" d="M56.214,63a16.985,16.985,0,0,0-3.65-5.64c-2.517-2.256-3.9-3.384-4.531-3.384H46.9V44.2" transform="translate(11.499 10.395)"/>
    <path id="Path_127" data-name="Path 127" class="cls-1" d="M44.217,56.512a.588.588,0,0,1,.629-.251,6.083,6.083,0,0,1,1.51,1.253,8.264,8.264,0,0,1,1.51,2.758c.252.877.5,1.629.629,2.005a1.68,1.68,0,0,1-.252,1,7.436,7.436,0,0,0-.378.877s-.252.251.126.752,1.384,2.131,1.384,2.131.755.877,0,1.379c-.755.627-2.643,2.131-2.643,2.131v1l-.252.125.126,1.755s2.14,1.755,5.664.251c1.636-.627,3.147-3.008,3.524-4.763a14.339,14.339,0,0,0-.881-8.523,14.154,14.154,0,0,0-2.391-4.011S49.252,52.877,46.986,52c0,0-2.643,1-3.147,1.128a23.107,23.107,0,0,0-2.14.877" transform="translate(10.155 12.372)"/>
    <path id="Path_128" data-name="Path 128" class="cls-1" d="M42.53,69.277l-1.007-1.5s-.378-.376.252-.627.629-.5.629-.877c.126-.752.881-5.515.881-5.515s0-.627.5-.627c.252-.125.378-.877.5-1.5.252-.752,1.259-3.384,2.643-3.51.755,0,.881.125,1.007.251s.252.251.252-.627,0-25.319-.126-26.322V11.87c0-.752,0-5.64.126-6.142s.378-1,1.888-1.88C51.34,2.97,54.613.965,54.613.965A14.125,14.125,0,0,1,59.4.714a21.149,21.149,0,0,1,9.691,2.758A1.971,1.971,0,0,1,69.968,5.1c0,.627.755,11.03.755,11.03L71.73,31.674s1.133,23.314,1.007,27.074c0,1.253.252,16.42.252,16.42s.126.752-.881,1.379S68.583,79.3,68.583,79.3s-2.517.877-6.167-1.5c0,0-3.9-2.883-4.657-3.384-.629-.376-3.65-2.883-4.279-3.259" transform="translate(10.08 -0.644)"/>
    <path id="Path_129" data-name="Path 129" class="cls-1" d="M22.7,59.056s.881-1.88,2.14-1.755,7.048,1,7.048,1L53.41,61.438" transform="translate(5.241 13.714)"/>
    <path id="Path_130" data-name="Path 130" class="cls-1" d="M22.3,52.4s2.014.627,3.147,4.262c.378,1.629.5,2.256.252,2.883s-.5,1.128-.5,1.128" transform="translate(5.138 12.473)"/>
    <line id="Line_25" data-name="Line 25" class="cls-1" x2="27.564" y2="4.387" transform="translate(23.914 62.617)"/>
    <path id="Path_131" data-name="Path 131" class="cls-1" d="M53.511,64.435s-27.438-3.76-28.822-3.886c-1.51-.125-1.384-.376-2.014-1a16.866,16.866,0,0,1-2.517-3.384,3.353,3.353,0,0,1,0-2.632A3.092,3.092,0,0,1,22.549,52.4c1.384.125,5.538.877,5.538.877l23.158,3.51" transform="translate(4.511 12.471)"/>
    <line id="Line_26" data-name="Line 26" class="cls-1" x2="28.319" y2="3.886" transform="translate(31.465 76.655)"/>
    <line id="Line_27" data-name="Line 27" class="cls-1" x1="6.796" y2="7.395" transform="translate(21.019 75.778)"/>
    <path id="Path_132" data-name="Path 132" class="cls-1" d="M16.6,50.4l7.048,12.91a2.2,2.2,0,0,0,1.384.877c.881.125,2.769.376,2.769.376" transform="translate(3.664 11.966)"/>
    <path id="Path_133" data-name="Path 133" class="cls-1" d="M24.384,59l1.636,2.883s.5.376-.252,1C25.14,63.512,23,65.769,23,65.769" transform="translate(5.319 14.146)"/>
    <path id="Path_134" data-name="Path 134" class="cls-1" d="M23.131,53.283l-1.51-2.632h-.5s-1.007-.125-2.265-.251a3.672,3.672,0,0,0-1.762.376s-4.028,2.256-4.909,2.758-.881.752-.881,1.379a25.173,25.173,0,0,0,1.133,6.518c1.259,4.011,5.034,9.025,5.034,9.025a4.7,4.7,0,0,0,1.762,1.253c.5.125,1.384.251.126,1.5s-4.783,4.512-4.783,4.512" transform="translate(2.293 11.966)"/>
    <path id="Path_135" data-name="Path 135" class="cls-1" d="M21.429,70.723s.126-1.128-.252-1.128L15.891,74.86s.126.5-1.51,0a1.246,1.246,0,0,1-.881-1.253V62.2" transform="translate(2.862 14.957)"/>
    <line id="Line_28" data-name="Line 28" class="cls-1" x1="5.16" y1="0.501" transform="translate(18.879 89.566)"/>
    <line id="Line_29" data-name="Line 29" class="cls-1" y1="68.814" x2="0.755" transform="translate(28.319 79.664)"/>
    <path id="Path_136" data-name="Path 136" class="cls-1" d="M19,133.147l.755-58.661.126-3.886a7.1,7.1,0,0,1,1.133-3.134c.881-1,2.391-2.507,2.391-2.507s1.007-1,1.762-.752c.881.125,3.9.627,3.9.627s.629-.376.629,1.5c0,1.755-.629,48.383-.629,48.383L28.943,132.9l-4.909.125Z" transform="translate(4.284 15.455)"/>
  </g>
</svg>
