<svg xmlns="http://www.w3.org/2000/svg" viewBox="-16589.709 2856.282 96.617 104.989">
  <defs>
    <style>
      .cls-1 {
        fill: none;
        stroke: #dcdbdb;
      }
    </style>
  </defs>
  <g id="Group_226" data-name="Group 226" transform="translate(-16589.209 2856.781)">
    <line id="Line_33" data-name="Line 33" class="cls-1" y1="0.264" x2="5.552" transform="translate(24.323 0)"/>
    <line id="Line_34" data-name="Line 34" class="cls-1" x2="2.732" y2="0.529" transform="translate(29.875 0)"/>
    <path id="Path_164" data-name="Path 164" class="cls-1" d="M36.74,1.1H37v.088h.176v.088h0v.088H37v.088h-.441l-.088.088H35.242l-.088.088H33.479l-.088-.088h-1.41l-.088-.088h-.617l-.088-.088H31.1" transform="translate(-4.133 -0.571)"/>
    <line id="Line_35" data-name="Line 35" class="cls-1" x1="2.644" y1="0.529" transform="translate(24.323 0.264)"/>
    <path id="Path_165" data-name="Path 165" class="cls-1" d="M69.939,116.4v-.176l-.088-.088V115.6l-.088-.088v-.441l-.088-.088v-.441l-.088-.088v-.264l-.088-.088v-.353l-.088-.088V113.4l-.088-.088v-.176l-.088-.088v-.264l-.088-.088v-.176l-.088-.088v-.088h0v-.088l-.088-.088v-.176l-.088-.088v-.176l-.088-.088v-.176l-.088-.088V111.2l-.088-.088v-.088l-.088-.088v-.176l-.088-.088v-.176h-.088v-.088l-.088-.088v-.176l-.088-.088v-.088l-.088-.088V109.7H68" transform="translate(-8.515 -13.466)"/>
    <path id="Path_166" data-name="Path 166" class="cls-1" d="M64.515,109.7h0l-.088.088v.088l-.088.088v.088l-.088.088v.176l-.088.088h0l-.088.088v.088l-.088.088v.176l-.088.088v.088l-.088.088v.176l-.088.088v.176l-.088.088v.176h-.088v.088l-.088.088v.176l-.088.088v.176l-.088.088v.264l-.088.088v.176l-.088.088v.176l-.088.088v.264l-.088.088v.264l-.088.088v.264l-.088.088v.353l-.088.088v.264l-.088.088v.441l-.088.088v.441H62.4" transform="translate(-7.85 -13.466)"/>
    <line id="Line_36" data-name="Line 36" class="cls-1" y1="0.441" transform="translate(59.309 95.794)"/>
    <line id="Line_37" data-name="Line 37" class="cls-1" y2="0.353" transform="translate(56.93 95.882)"/>
    <path id="Path_167" data-name="Path 167" class="cls-1" d="M40.069,110.918h0v-.441l-.088-.088v-.529l-.088-.088v-.353l-.088-.088v-.353l-.088-.088v-.352l-.088-.088v-.264l-.088-.088v-.264l-.088-.088v-.176l-.088-.088v-.264l-.088-.088v-.176l-.088-.088v-.176H39.1V106.6" transform="translate(-5.083 -13.098)"/>
    <path id="Path_168" data-name="Path 168" class="cls-1" d="M33.91,105.6v.088l-.088.088v.088l-.088.088v.176l-.088.088h0v.088l-.088.088v.176l-.088.088v.176l-.088.088v.176l-.088.088v.176l-.088.088v.264l-.088.088v.176l-.088.088v.264l-.088.088v.264l-.088.088v.264l-.088.088v.353l-.088.088v.353l-.088.088v.441l-.088.088v.176h0" transform="translate(-4.299 -12.979)"/>
    <line id="Line_38" data-name="Line 38" class="cls-1" y1="1.146" x2="0.705" transform="translate(53.669 39.745)"/>
    <line id="Line_39" data-name="Line 39" class="cls-1" x2="2.291" y2="0.441" transform="translate(88.92 92.357)"/>
    <path id="Path_169" data-name="Path 169" class="cls-1" d="M108.676,98.976a.19.19,0,0,0-.176-.176" transform="translate(-13.323 -12.172)"/>
    <path id="Path_170" data-name="Path 170" class="cls-1" d="M108.7,99.091h0" transform="translate(-13.347 -12.198)"/>
    <path id="Path_171" data-name="Path 171" class="cls-1" d="M108.6,105.841h0l.088-.088v-.088h0v-.176h0V105.4h0" transform="translate(-13.335 -12.955)"/>
    <path id="Path_172" data-name="Path 172" class="cls-1" d="M108.7,104.652l.088-.088h0v-.176h0V104.3h0v-.176h0l.088-.088v-.088h0v-.264h0v-.176h0l.088-.088v-.176h0v-.264h0v-.264h0v-.264h0v-.176h0v-.264h0v-.264h0v-.264h0v-.264h0v-.264h0v-.264h0v-.264h0v-.088l-.088-.088v-.088h0v-.264h0v-.264h0l-.088-.088v-.176h0v-.176h0L108.7,99.1h0" transform="translate(-13.347 -12.207)"/>
    <line id="Line_40" data-name="Line 40" class="cls-1" x1="2.291" y1="0.441" transform="translate(92.974 86.276)"/>
    <path id="Path_173" data-name="Path 173" class="cls-1" d="M55.688,110.581h0v-.353l-.088-.088V109.7" transform="translate(-7.042 -13.466)"/>
    <path id="Path_174" data-name="Path 174" class="cls-1" d="M48.353,108.4h0v.088l-.088.088v.353l-.088.088v.353l-.088.088v.441l-.088.088v.353" transform="translate(-6.14 -13.311)"/>
    <path id="Path_175" data-name="Path 175" class="cls-1" d="M85.439,115.509h0l-.088-.088v-.529l-.088-.088v-.441l-.088-.088v-.353l-.088-.088v-.353L85,113.394v-.353l-.088-.088v-.264l-.088-.088v-.264l-.088-.088v-.176l-.088-.088v-.264l-.088-.088v-.176l-.088-.088v-.176l-.088-.088v-.176l-.088-.088h0v-.088l-.088-.088v-.176l-.088-.088v-.176l-.088-.088v-.176l-.088-.088v-.088l-.088-.088v-.176l-.088-.088v-.088l-.088-.088h0v-.088l-.088-.088v-.088L83.5,108.9h0" transform="translate(-10.355 -13.371)"/>
    <path id="Path_176" data-name="Path 176" class="cls-1" d="M80.015,108.8l-.088.088v.088l-.088.088v.176l-.088.088h0l-.088.088v.088l-.088.088v.176l-.088.088v.088l-.088.088v.176l-.088.088v.088l-.088.088v.088h0l-.088.088v.176l-.088.088v.176l-.088.088v.176l-.088.088v.176l-.088.088v.176l-.088.088v.176l-.088.088v.264l-.088.088v.176l-.088.088v.264l-.088.088v.264l-.088.088v.088h0v.176h0l-.088.088v.176h0v.088l-.088.088v.264h0v.088l-.088.176v.441l-.088.088v.088h0" transform="translate(-9.69 -13.359)"/>
    <line id="Line_41" data-name="Line 41" class="cls-1" y2="0.264" transform="translate(70.501 95.177)"/>
    <line id="Line_42" data-name="Line 42" class="cls-1" y1="0.441" transform="translate(72.969 95.089)"/>
    <line id="Line_43" data-name="Line 43" class="cls-1" x1="36.484" y1="6.962" transform="translate(56.489 79.314)"/>
    <line id="Line_44" data-name="Line 44" class="cls-1" y1="4.318" x2="0.088" transform="translate(32.519 36.22)"/>
    <line id="Line_45" data-name="Line 45" class="cls-1" y1="35.515" x2="0.529" transform="translate(32.607 0.705)"/>
    <line id="Line_46" data-name="Line 46" class="cls-1" x1="0.264" y2="0.088" transform="translate(23.618 29.17)"/>
    <line id="Line_47" data-name="Line 47" class="cls-1" y1="1.058" transform="translate(45.65 95.882)"/>
    <line id="Line_48" data-name="Line 48" class="cls-1" y2="1.058" transform="translate(43.27 95.882)"/>
    <line id="Line_49" data-name="Line 49" class="cls-1" y1="0.264" transform="translate(45.033 95.617)"/>
    <line id="Line_50" data-name="Line 50" class="cls-1" y2="0.529" transform="translate(43.887 95.353)"/>
    <path id="Path_177" data-name="Path 177" class="cls-1" d="M54.451,117.2h0v-.264l-.088-.088v-.617l-.088-.088V115.7l-.088-.088v-.353l-.088-.088v-.264l-.088-.088v-.176h0l-.088-.176h0v-.176l-.088-.088v-.264l-.088-.088v-.264l-.088-.088v-.176l-.088-.088v-.176l-.088-.088V112.7l-.088-.088v-.176l-.088-.088v-.176l-.088-.088V112l-.088-.088v-.176l-.088-.088h0v-.088l-.088-.088v-.088l-.088-.088v-.176l-.088-.088v-.088l-.088-.088v-.176l-.088-.088V110.5h0" transform="translate(-6.686 -13.561)"/>
    <path id="Path_178" data-name="Path 178" class="cls-1" d="M49.027,110.5h0l-.088.088v.088l-.088.088v.176l-.088.088v.088l-.088.088v.088l-.088.088v.176H48.5v.088l-.088.088v.176l-.088.088v.176l-.088.088v.088l-.088.088v.176l-.088.088v.176l-.088.088v.176l-.088.088v.088h0l-.088.088v.176l-.088.088v.264l-.088.088v.176l-.088.088v.264l-.088.088v.264l-.088.088v.264l-.088.088v.353l-.088.088v.353l-.088.088v.353l-.088.088v.441" transform="translate(-6.021 -13.561)"/>
    <path id="Path_179" data-name="Path 179" class="cls-1" d="M24.539,111.5h0l-.088-.088v-.617l-.088-.088v-.441l-.088-.088v-.353l-.088-.088v-.353l-.088-.088v-.264l-.088-.088v-.353l-.088-.088v-.264h-.088v-.176l-.088-.088v-.264l-.088-.088v-.176l-.088-.088v-.176l-.088-.088v-.176l-.088-.088v-.176l-.088-.088v-.176l-.088-.088v-.176l-.088-.088v-.088l-.088-.088v-.088h0l-.088-.088v-.176l-.088-.088v-.088l-.088-.088v-.176l-.088-.088v-.088L22.6,104.8h0" transform="translate(-3.124 -12.884)"/>
    <path id="Path_180" data-name="Path 180" class="cls-1" d="M19.115,104.8h-.088v.088l-.088.088v.176l-.088.088v.088l-.088.088v.088l-.088.088v.176h-.088v.088l-.088.088v.176l-.088.088v.088l-.088.088v.176l-.088.088v.176l-.088.088v.176l-.088.088v.176h-.088v.176l-.088.088v.176l-.088.088v.176l-.088.088v.264l-.088.088v.176l-.088.088v.264l-.088.088v.264l-.088.088v.264l-.088.088v.353l-.088.088v.353l-.088.088v.441l-.088.088v.176" transform="translate(-2.459 -12.884)"/>
    <line id="Line_51" data-name="Line 51" class="cls-1" x1="0.088" y2="1.146" transform="translate(16.832 90.77)"/>
    <line id="Line_52" data-name="Line 52" class="cls-1" y1="1.058" transform="translate(19.3 90.858)"/>
    <line id="Line_53" data-name="Line 53" class="cls-1" y2="0.529" transform="translate(17.449 90.33)"/>
    <line id="Line_54" data-name="Line 54" class="cls-1" y1="0.264" transform="translate(18.683 90.594)"/>
    <line id="Line_55" data-name="Line 55" class="cls-1" y1="0.176" x2="2.732" transform="translate(25.821 47.236)"/>
    <line id="Line_56" data-name="Line 56" class="cls-1" y1="0.264" x2="4.583" transform="translate(31.285 46.883)"/>
    <line id="Line_57" data-name="Line 57" class="cls-1" y1="2.203" x2="40.979" transform="translate(48.998 94.119)"/>
    <line id="Line_58" data-name="Line 58" class="cls-1" y1="7.755" x2="0.088" transform="translate(48.998 88.567)"/>
    <line id="Line_59" data-name="Line 59" class="cls-1" x1="34.898" y2="1.851" transform="translate(49.087 86.717)"/>
    <line id="Line_60" data-name="Line 60" class="cls-1" y1="1.586" transform="translate(89.977 92.533)"/>
    <line id="Line_61" data-name="Line 61" class="cls-1" x1="48.998" y1="9.341" transform="translate(34.986 77.375)"/>
    <line id="Line_62" data-name="Line 62" class="cls-1" x1="48.998" y1="9.253" transform="translate(0.088 79.314)"/>
    <line id="Line_63" data-name="Line 63" class="cls-1" x1="23.177" y2="1.234" transform="translate(11.809 77.375)"/>
    <line id="Line_64" data-name="Line 64" class="cls-1" x1="5.376" y2="0.264" transform="translate(0.088 78.961)"/>
    <line id="Line_65" data-name="Line 65" class="cls-1" x1="48.998" y1="9.341" transform="translate(0 86.981)"/>
    <line id="Line_66" data-name="Line 66" class="cls-1" x1="0.088" y2="7.667" transform="translate(0 79.314)"/>
    <path id="Path_181" data-name="Path 181" class="cls-1" d="M62.4,117.1v.088h.088l.088.088h.176l.088.088h.441l.088.088h.793l.088.088h3.878l.088-.088h.617l.088-.088h.264v-.088h.088" transform="translate(-7.85 -14.344)"/>
    <path id="Path_182" data-name="Path 182" class="cls-1" d="M64.976,109.776h0l-.088-.088H64.8V109.6h.264" transform="translate(-8.135 -13.454)"/>
    <path id="Path_183" data-name="Path 183" class="cls-1" d="M67.468,109.6h.088l.088.088h0v.088h-.529l-.088.088H65.793l-.088-.088H65" transform="translate(-8.158 -13.454)"/>
    <path id="Path_184" data-name="Path 184" class="cls-1" d="M67.8,109.6h0" transform="translate(-8.491 -13.454)"/>
    <path id="Path_185" data-name="Path 185" class="cls-1" d="M65.064,109.6H64.8v.088h.088l.088.088h.705l.088.088H67l.088-.088h.529v-.088h0l-.088-.088h-.088" transform="translate(-8.135 -13.454)"/>
    <path id="Path_186" data-name="Path 186" class="cls-1" d="M67.479,109.7h-.088v.088h-2.2V109.7H65.1" transform="translate(-8.17 -13.466)"/>
    <path id="Path_187" data-name="Path 187" class="cls-1" d="M32.5,111.4h0v.088h.088v.088h.264l.088.088h.441l.088.088h.881l.088.088h3.7l.088-.088h.617l.088-.088H39.2v-.088h.088v-.088h0" transform="translate(-4.299 -13.668)"/>
    <path id="Path_188" data-name="Path 188" class="cls-1" d="M52,83.7h0v.088h0v.088h0v.088h.088" transform="translate(-6.615 -10.379)"/>
    <path id="Path_189" data-name="Path 189" class="cls-1" d="M52.1,84l.088.088.088.088h.088l.088.088v.088h.088l.088.088.088.088h.088l.088.088.088.088h.088l.088.088.088.088h.088l.088.088.088.088.088.088h.088v.088l.088.088.088.088h.088l.088.088.088.088.088.088H54.3l.088.088.088.088.088.088h.088v.088l.088.088.088.088.088.088h.088l.088.088.088.088.088.088.088.088h.088l.088.088v.088l.088.088.088.088H55.8l.088.088.088.088.088.088.088.088.088.088.088.088h0l.088.088.088.088.088.088.088.088.088.088.088.088" transform="translate(-6.627 -10.414)"/>
    <line id="Line_67" data-name="Line 67" class="cls-1" x2="0.088" y2="0.264" transform="translate(50.232 77.639)"/>
    <line id="Line_68" data-name="Line 68" class="cls-1" x1="0.088" y2="2.203" transform="translate(50.232 77.904)"/>
    <line id="Line_69" data-name="Line 69" class="cls-1" y1="2.203" x2="0.088" transform="translate(37.013 75.348)"/>
    <line id="Line_70" data-name="Line 70" class="cls-1" y1="0.176" x2="0.088" transform="translate(37.101 75.172)"/>
    <path id="Path_190" data-name="Path 190" class="cls-1" d="M42.7,85.693l.088-.088.088-.088h.088l.088-.088h.088l.088-.088h.088v-.088h.088l.088-.088.088-.088h.088l.088-.088h.088l.088-.088" transform="translate(-5.511 -10.521)"/>
    <path id="Path_191" data-name="Path 191" class="cls-1" d="M44.1,81.029v-.793l.088-.264V78.033l.088-.264v-1.41l.088-.264V75.3l.088-.353V73.891l.088-.264v-.793l.088-.264v-.617l.088-.264v-.529l.088-.264v-.529l.088-.264v-.529l.088-.264V68.78l.088-.264v-.529l.088-.264v-.264l.088-.264v-.529l.088-.264v-.264l.088-.264v-.264l.088-.264v-.264l.088-.264V64.55l.088-.264v-.264l.088-.264v-.264l.088-.264v-.264l.088-.264v-.264l.088-.264v-.264l.088-.264v-.264l.088-.264v-.264l.088-.176v-.264l.088-.264.088-.264v-.264l.088-.264v-.264l.088-.264.088-.176v-.264l.088-.264.088-.264v-.264l.088-.264.088-.264v-.176l.088-.264v-.264l.088-.264.088-.264.088-.176v-.264l.088-.264.088-.264v-.176l.088-.264.088-.264.088-.264V53.71l.088-.264.088-.264v-.264l.088-.176.088-.264V52.3" transform="translate(-5.677 -6.65)"/>
    <line id="Line_71" data-name="Line 71" class="cls-1" x1="0.353" y2="27.848" transform="translate(45.385 45.473)"/>
    <path id="Path_192" data-name="Path 192" class="cls-1" d="M59.2,83.7h.088l.088.088h.088v.088l.088.088h.088l.088.088.088.088.088.088h.088l.088.088.088.088h.088l.088.088.088.088h.088l.088.088v.088l.088.088h.088l.088.088.088.088h.088l.088.088.088.088.088.088.088.088h.088l.088.088v.088l.088.088h.088l.088.088.088.088.088.088.088.088H62.2l.088.088.088.088.088.088v.088h.088l.088.088.088.088.088.088.088.088.088.088h.088l.088.088.088.088v.088l.088.088.088.088.088.088h.088l.088.088.088.088.088.088.088.088" transform="translate(-7.47 -10.379)"/>
    <line id="Line_72" data-name="Line 72" class="cls-1" x1="6.257" y2="0.353" transform="translate(50.232 77.287)"/>
    <line id="Line_73" data-name="Line 73" class="cls-1" x2="0.088" y2="0.264" transform="translate(56.489 77.287)"/>
    <line id="Line_74" data-name="Line 74" class="cls-1" x1="0.088" y2="2.468" transform="translate(56.489 77.551)"/>
    <line id="Line_75" data-name="Line 75" class="cls-1" x1="5.111" y2="0.264" transform="translate(51.378 80.019)"/>
    <line id="Line_76" data-name="Line 76" class="cls-1" x1="6.257" y2="0.353" transform="translate(45.738 43.358)"/>
    <line id="Line_77" data-name="Line 77" class="cls-1" x1="6.257" y2="0.353" transform="translate(45.385 72.969)"/>
    <line id="Line_78" data-name="Line 78" class="cls-1" x1="0.353" y2="29.611" transform="translate(51.642 43.358)"/>
    <path id="Path_193" data-name="Path 193" class="cls-1" d="M59.1,83.3h0v.088h0v.088h0v.088h.088v.088" transform="translate(-7.458 -10.331)"/>
    <line id="Line_79" data-name="Line 79" class="cls-1" x1="0.793" y1="1.674" transform="translate(52.083 41.243)"/>
    <line id="Line_80" data-name="Line 80" class="cls-1" y1="0.441" transform="translate(52.876 42.918)"/>
    <line id="Line_81" data-name="Line 81" class="cls-1" y1="0.176" x2="0.881" transform="translate(51.995 43.358)"/>
    <line id="Line_82" data-name="Line 82" class="cls-1" y2="0.176" transform="translate(47.236 33.488)"/>
    <line id="Line_83" data-name="Line 83" class="cls-1" x1="1.41" y1="0.353" transform="translate(47.236 33.488)"/>
    <line id="Line_84" data-name="Line 84" class="cls-1" x1="2.203" y1="4.583" transform="translate(48.646 33.841)"/>
    <line id="Line_85" data-name="Line 85" class="cls-1" x1="0.176" y2="0.176" transform="translate(51.73 38.247)"/>
    <line id="Line_86" data-name="Line 86" class="cls-1" x1="0.881" y1="1.939" transform="translate(51.907 38.159)"/>
    <line id="Line_87" data-name="Line 87" class="cls-1" y1="1.146" x2="0.705" transform="translate(52.083 40.098)"/>
    <line id="Line_88" data-name="Line 88" class="cls-1" y1="0.088" x2="0.969" transform="translate(52.083 41.155)"/>
    <path id="Path_194" data-name="Path 194" class="cls-1" d="M60.7,47.164h.353v-.088h.088l.088-.088h0l.088-.088h0" transform="translate(-7.648 -6.009)"/>
    <line id="Line_89" data-name="Line 89" class="cls-1" x1="1.498" y1="3.173" transform="translate(54.374 39.569)"/>
    <line id="Line_90" data-name="Line 90" class="cls-1" x1="2.291" y1="4.935" transform="translate(51.642 33.664)"/>
    <line id="Line_91" data-name="Line 91" class="cls-1" x2="0.969" transform="translate(52.788 40.098)"/>
    <line id="Line_92" data-name="Line 92" class="cls-1" y1="0.088" x2="0.881" transform="translate(51.907 38.159)"/>
    <path id="Path_195" data-name="Path 195" class="cls-1" d="M60.4,43.8h.441v.088h.264v.088h.176v.088h.176v.088h.088v.088h.088v.088h.088v.088h.088v.088h0l.088.088h0v.088h0l.088.088h0v.088h0v.088h0v.088h0v.088h0v.088h0V45.3h0v.088H61.9v.088h0l-.088.088h-.088v.088h-.176v.088h-.176" transform="translate(-7.612 -5.641)"/>
    <line id="Line_93" data-name="Line 93" class="cls-1" y1="0.441" transform="translate(55.872 42.741)"/>
    <line id="Line_94" data-name="Line 94" class="cls-1" y1="0.264" x2="0.969" transform="translate(51.995 43.623)"/>
    <line id="Line_95" data-name="Line 95" class="cls-1" y1="0.441" x2="2.379" transform="translate(53.493 43.182)"/>
    <line id="Line_96" data-name="Line 96" class="cls-1" x2="0.529" transform="translate(52.964 43.623)"/>
    <line id="Line_97" data-name="Line 97" class="cls-1" y1="0.088" x2="2.996" transform="translate(47.236 33.4)"/>
    <line id="Line_98" data-name="Line 98" class="cls-1" x1="1.41" y1="0.264" transform="translate(50.232 33.4)"/>
    <path id="Path_196" data-name="Path 196" class="cls-1" d="M97.893,102.7h-.088l-.088-.088h-.088v-.088h-.088v-.088h-.088v-.088h0v-.088h-.088v-.088h0l-.088-.088h0v-.088h0V101.9h-.088v-.088h0v-.088h0v-.088h0v-.088h0l-.088-.088h0v-.088h0v-.088h0V101.2h0v-.088h.088v-.088h0v-.088h0v-.088h0v-.088h0v-.088h.088v-.088h0v-.088h0l.088-.088h0v-.088h.088v-.088h0v-.088h.088v-.088h0l.088-.088h.088v-.088h0l.088-.088h.088V99.7h0" transform="translate(-11.97 -12.278)"/>
    <path id="Path_197" data-name="Path 197" class="cls-1" d="M97.988,99.664h0v-.088h0v-.088H97.9V99.4h0" transform="translate(-12.065 -12.243)"/>
    <line id="Line_99" data-name="Line 99" class="cls-1" transform="translate(85.923 87.422)"/>
    <line id="Line_100" data-name="Line 100" class="cls-1" y1="0.529" x2="9.341" transform="translate(85.923 86.893)"/>
    <line id="Line_101" data-name="Line 101" class="cls-1" x1="0.353" transform="translate(94.824 93.062)"/>
    <path id="Path_198" data-name="Path 198" class="cls-1" d="M106.9,105.779h-1.763l-.088-.088h-.793l-.088-.088h-.441l-.088-.088H103.2l-.088-.088h-.353l-.088-.088h-.264l-.088-.088h-.264l-.088-.088h-.176l-.088-.088h-.176l-.088-.088h-.176l-.088-.088H101l-.088-.088h-.176l-.088-.088h-.176l-.088-.088h0l-.088-.088h-.176l-.088-.088h-.088l-.088-.088h-.176l-.088-.088H99.5v-.088h-.176l-.088-.088h-.088v-.088h-.176l-.088-.088h-.088l-.088-.088h0l-.088-.088h-.088l-.088-.088h-.088l-.088-.088h-.088l-.088-.088h0L98,103.4" transform="translate(-12.077 -12.718)"/>
    <path id="Path_199" data-name="Path 199" class="cls-1" d="M95.269,98.9v.088h-.088l-.088.088h-.088v.088h-.088v.088h-.088v.088h-.088v.088h0l-.088.088h0v.088h-.088v.088h0v.088h-.088v.088h0v.088h-.088v.088h0v.088h0v.088h0v.088H94.3v.088h0v.088h0v.088h0v.088h0v.088h0v.088h0v.088h0v.088h0v.088h0v.088h0l.088.088h0v.088h0v.088h0v.088h.088v.088h0v.088h.088v.088h0v.088h.088v.088h.088v.088h0l.088.088h.088v.088h.088v.088h.088v.088h.088" transform="translate(-11.637 -12.183)"/>
    <line id="Line_102" data-name="Line 102" class="cls-1" x2="2.203" y2="0.441" transform="translate(83.632 86.717)"/>
    <path id="Path_200" data-name="Path 200" class="cls-1" d="M97.9,99.4h0l.088.088h0v.088h0v.088h0" transform="translate(-12.065 -12.243)"/>
    <path id="Path_201" data-name="Path 201" class="cls-1" d="M108.588,99.076h0v-.088h0V98.9H108.5" transform="translate(-13.323 -12.183)"/>
    <line id="Line_103" data-name="Line 103" class="cls-1" x1="2.203" y1="0.441" transform="translate(92.974 86.276)"/>
    <path id="Path_202" data-name="Path 202" class="cls-1" d="M95.3,102.9l.088.088h.088l.088.088h0l.088.088h.176l.088.088h0l.088.088h.088l.088.088h.088v.088h.176l.088.088h.088l.088.088H96.8l.088.088h.088l.088.088h.088l.088.088h.176l.088.088h.088l.088.088h.088l.088.088h.176l.088.088H98.3l.088.088h.176v.088h.264l.088.088h.176v.088h.264l.088.088h.264l.088.088h.264l.088.088h.353l.088.088h.088" transform="translate(-11.756 -12.658)"/>
    <path id="Path_203" data-name="Path 203" class="cls-1" d="M108.5,106.1h0" transform="translate(-13.323 -13.038)"/>
    <path id="Path_204" data-name="Path 204" class="cls-1" d="M108.5,106.088V106h.088" transform="translate(-13.323 -13.027)"/>
    <path id="Path_205" data-name="Path 205" class="cls-1" d="M106,98.4h0" transform="translate(-13.026 -12.124)"/>
    <path id="Path_206" data-name="Path 206" class="cls-1" d="M48,110.6h0v.088h.088l.088.088h.353v.088h.441" transform="translate(-6.14 -13.573)"/>
    <path id="Path_207" data-name="Path 207" class="cls-1" d="M52.8,111.053h1.058v-.088h.881l.088-.088h.353v-.088h.176V110.7h0" transform="translate(-6.71 -13.585)"/>
    <path id="Path_208" data-name="Path 208" class="cls-1" d="M77.9,116.3h0v.088h.176v.088h.264l.088.088h.529l.088.088h.881l.088.088h3.349l.088-.088h.705l.088-.088H84.6v-.088h.176v-.088h0" transform="translate(-9.69 -14.249)"/>
    <path id="Path_209" data-name="Path 209" class="cls-1" d="M83.3,108.8h0" transform="translate(-10.331 -13.359)"/>
    <path id="Path_210" data-name="Path 210" class="cls-1" d="M80.476,108.7h0v.088H80.3v.088h.264v.088h2.468v-.088h.088v-.088h-.176" transform="translate(-9.975 -13.347)"/>
    <path id="Path_211" data-name="Path 211" class="cls-1" d="M80.476,108.876H80.3v-.088h.176V108.7h0" transform="translate(-9.975 -13.347)"/>
    <path id="Path_212" data-name="Path 212" class="cls-1" d="M82.968,108.8h.176v.088h-.088v.088H80.588v-.088H80.5" transform="translate(-9.999 -13.359)"/>
    <path id="Path_213" data-name="Path 213" class="cls-1" d="M80.7,108.9h.176v.088h1.939V108.9h.176" transform="translate(-10.022 -13.371)"/>
    <path id="Path_214" data-name="Path 214" class="cls-1" d="M80.5,108.8h0v.088h.176" transform="translate(-9.999 -13.359)"/>
    <path id="Path_215" data-name="Path 215" class="cls-1" d="M106,98.4h0" transform="translate(-13.026 -12.124)"/>
    <line id="Line_104" data-name="Line 104" class="cls-1" x1="0.793" transform="translate(89.977 92.709)"/>
    <line id="Line_105" data-name="Line 105" class="cls-1" y1="0.176" transform="translate(89.977 92.533)"/>
    <line id="Line_106" data-name="Line 106" class="cls-1" transform="translate(34.986 77.375)"/>
    <line id="Line_107" data-name="Line 107" class="cls-1" transform="translate(89.977 92.709)"/>
    <line id="Line_108" data-name="Line 108" class="cls-1" x1="0.441" y2="35.515" transform="translate(26.526 0.793)"/>
    <line id="Line_109" data-name="Line 109" class="cls-1" y1="35.515" x2="0.529" transform="translate(23.794 0.264)"/>
    <line id="Line_110" data-name="Line 110" class="cls-1" y2="0.176" transform="translate(23.089 42.653)"/>
    <line id="Line_111" data-name="Line 111" class="cls-1" x1="0.529" y2="0.088" transform="translate(23.089 42.741)"/>
    <line id="Line_112" data-name="Line 112" class="cls-1" x1="1.058" transform="translate(19.123 35.339)"/>
    <line id="Line_113" data-name="Line 113" class="cls-1" y1="0.176" transform="translate(17.713 35.074)"/>
    <line id="Line_114" data-name="Line 114" class="cls-1" x2="1.41" y2="0.264" transform="translate(17.713 35.074)"/>
    <line id="Line_115" data-name="Line 115" class="cls-1" x1="0.529" transform="translate(22.913 39.745)"/>
    <line id="Line_116" data-name="Line 116" class="cls-1" x1="0.529" transform="translate(23.794 41.684)"/>
    <line id="Line_117" data-name="Line 117" class="cls-1" x2="0.881" y2="1.939" transform="translate(22.913 39.745)"/>
    <line id="Line_118" data-name="Line 118" class="cls-1" y1="0.176" x2="0.176" transform="translate(22.737 39.745)"/>
    <line id="Line_119" data-name="Line 119" class="cls-1" x1="0.705" y2="1.146" transform="translate(23.089 41.684)"/>
    <line id="Line_120" data-name="Line 120" class="cls-1" x1="0.088" y2="6.521" transform="translate(23.794 29.258)"/>
    <path id="Path_216" data-name="Path 216" class="cls-1" d="M25,37.489V37.4h0v-.176h0v-.088h0v-.176h0v-.088h0v-.088l.088-.088h0V36.52h0v-.088h0v-.088h0v-.176h.088v-.088h0v-.088h0v-.176h0l.088-.088h0v-.088h0v-.088h0l.088-.088h0v-.088h0v-.088h0l.088-.088h0V35.11h0v-.088h.088v-.088h0v-.088h.088v-.088h0v-.088h.088v-.088h0l.088-.088h0v-.088h.088v-.088h0l.088-.088h.088v-.088h0l.088-.088h.088v-.088h.088v-.088h.088l.088-.088h.088l.088-.088h.617" transform="translate(-3.409 -4.442)"/>
    <line id="Line_121" data-name="Line 121" class="cls-1" y1="2.379" transform="translate(20.357 32.783)"/>
    <line id="Line_122" data-name="Line 122" class="cls-1" x2="1.234" y2="0.264" transform="translate(20.357 32.783)"/>
    <line id="Line_123" data-name="Line 123" class="cls-1" x1="1.234" transform="translate(20.357 32.783)"/>
    <line id="Line_124" data-name="Line 124" class="cls-1" x1="3.878" y1="0.793" transform="translate(5.904 44.856)"/>
    <line id="Line_125" data-name="Line 125" class="cls-1" y1="35.251" x2="0.529" transform="translate(9.253 45.65)"/>
    <line id="Line_126" data-name="Line 126" class="cls-1" x2="3.789" y2="0.793" transform="translate(5.464 80.107)"/>
    <line id="Line_127" data-name="Line 127" class="cls-1" y1="35.251" x2="0.441" transform="translate(5.464 44.856)"/>
    <line id="Line_128" data-name="Line 128" class="cls-1" y1="35.251" x2="0.529" transform="translate(11.809 45.473)"/>
    <line id="Line_129" data-name="Line 129" class="cls-1" y1="0.176" x2="2.556" transform="translate(9.253 80.724)"/>
    <line id="Line_130" data-name="Line 130" class="cls-1" x1="0.353" y2="26.35" transform="translate(28.729 47.148)"/>
    <line id="Line_131" data-name="Line 131" class="cls-1" x1="1.41" y1="0.264" transform="translate(27.319 73.233)"/>
    <line id="Line_132" data-name="Line 132" class="cls-1" y1="25.909" x2="0.441" transform="translate(27.319 47.324)"/>
    <line id="Line_133" data-name="Line 133" class="cls-1" y1="26.262" x2="0.353" transform="translate(30.932 47.06)"/>
    <line id="Line_134" data-name="Line 134" class="cls-1" y1="0.176" x2="2.203" transform="translate(28.729 73.321)"/>
    <path id="Path_217" data-name="Path 217" class="cls-1" d="M52.3,110.4h0" transform="translate(-6.65 -13.549)"/>
    <path id="Path_218" data-name="Path 218" class="cls-1" d="M49.564,110.4h-.176l-.088.088h.088v.088h.529v.088h1.939v-.088h.353v-.088h-.176V110.4h-.088" transform="translate(-6.294 -13.549)"/>
    <path id="Path_219" data-name="Path 219" class="cls-1" d="M51.979,110.5h0v.088h-.529v.088H50.393l-.088-.088h-.617L49.6,110.5h0" transform="translate(-6.33 -13.561)"/>
    <path id="Path_220" data-name="Path 220" class="cls-1" d="M52.041,109.2H51.6" transform="translate(-6.567 -13.406)"/>
    <path id="Path_221" data-name="Path 221" class="cls-1" d="M50.217,109.1h-.264v.088H49.6v.088h.264v.088h2.027v-.088h.088v-.088H51.8" transform="translate(-6.33 -13.395)"/>
    <path id="Path_222" data-name="Path 222" class="cls-1" d="M51.446,109.3H50.3" transform="translate(-6.413 -13.418)"/>
    <path id="Path_223" data-name="Path 223" class="cls-1" d="M47,118h0v.088h.264v.088h.441v.088h.705l.088.088h1.586l.088.088h1.234l.088-.088H52.9l.088-.088h.529v-.088H53.7l.088-.088h0" transform="translate(-6.021 -14.451)"/>
    <path id="Path_224" data-name="Path 224" class="cls-1" d="M49.564,110.576h-.176v-.088h0V110.4h.176" transform="translate(-6.294 -13.549)"/>
    <path id="Path_225" data-name="Path 225" class="cls-1" d="M51.979,110.4h.088v.088h.176v.088h-.353v.088H49.953v-.088H49.6" transform="translate(-6.33 -13.549)"/>
    <path id="Path_226" data-name="Path 226" class="cls-1" d="M17,112.3h.088v.088h.176l.088.088h.353l.088.088h.793l.088.088H22.9l.088-.088h.529v-.088h.264v-.088h.088" transform="translate(-2.459 -13.775)"/>
    <path id="Path_227" data-name="Path 227" class="cls-1" d="M19.6,104.876h.441v.088h1.851v-.088h.353v-.088h-.088l-.088-.088h0" transform="translate(-2.768 -12.872)"/>
    <path id="Path_228" data-name="Path 228" class="cls-1" d="M19.576,104.7H19.4v.088h.088v.088h.088" transform="translate(-2.744 -12.872)"/>
    <path id="Path_229" data-name="Path 229" class="cls-1" d="M19.6,104.8h.088l.088.088h.705v.088h.881l.088-.088h.529V104.8h.088" transform="translate(-2.768 -12.884)"/>
    <path id="Path_230" data-name="Path 230" class="cls-1" d="M22.044,104.7h0l.088.088h.088v.088h-.353v.088H20.017v-.088h-.529v-.088H19.4V104.7h.176" transform="translate(-2.744 -12.872)"/>
    <path id="Path_231" data-name="Path 231" class="cls-1" d="M22.4,104.7h0" transform="translate(-3.1 -12.872)"/>
    <path id="Path_232" data-name="Path 232" class="cls-1" d="M20.3,103.6h1.234" transform="translate(-2.851 -12.742)"/>
    <path id="Path_233" data-name="Path 233" class="cls-1" d="M21.9,103.488h.088v.088H21.9v.088H19.964v-.088H19.7v-.088h.264V103.4h.264" transform="translate(-2.78 -12.718)"/>
    <path id="Path_234" data-name="Path 234" class="cls-1" d="M21.7,103.4h0v.088h.441" transform="translate(-3.017 -12.718)"/>
    <line id="Line_135" data-name="Line 135" class="cls-1" y1="0.441" x2="8.108" transform="translate(37.63 43.711)"/>
    <line id="Line_136" data-name="Line 136" class="cls-1" x1="8.372" y2="0.529" transform="translate(37.366 45.473)"/>
    <line id="Line_137" data-name="Line 137" class="cls-1" x1="11.721" y2="0.617" transform="translate(12.25 46.707)"/>
    <line id="Line_138" data-name="Line 138" class="cls-1" x1="0.088" y2="1.851" transform="translate(12.25 45.473)"/>
    <line id="Line_139" data-name="Line 139" class="cls-1" y1="1.763" transform="translate(45.738 43.711)"/>
    <line id="Line_140" data-name="Line 140" class="cls-1" x2="0.793" y2="1.763" transform="translate(9.782 43.446)"/>
    <line id="Line_141" data-name="Line 141" class="cls-1" y2="0.264" transform="translate(10.575 45.209)"/>
    <line id="Line_142" data-name="Line 142" class="cls-1" x1="0.969" y1="0.176" transform="translate(4.935 46.178)"/>
    <line id="Line_143" data-name="Line 143" class="cls-1" y1="10.223" x2="0.088" transform="translate(4.935 35.956)"/>
    <line id="Line_144" data-name="Line 144" class="cls-1" x2="1.322" y2="0.264" transform="translate(5.023 35.956)"/>
    <line id="Line_145" data-name="Line 145" class="cls-1" x2="2.644" y2="5.552" transform="translate(6.345 36.22)"/>
    <line id="Line_146" data-name="Line 146" class="cls-1" y1="1.146" x2="0.617" transform="translate(8.989 40.626)"/>
    <line id="Line_147" data-name="Line 147" class="cls-1" x2="0.793" y2="1.763" transform="translate(9.606 40.626)"/>
    <line id="Line_148" data-name="Line 148" class="cls-1" x1="0.617" y2="1.058" transform="translate(9.782 42.389)"/>
    <line id="Line_149" data-name="Line 149" class="cls-1" x1="16.039" y2="0.881" transform="translate(36.661 40.098)"/>
    <line id="Line_150" data-name="Line 150" class="cls-1" x1="0.353" transform="translate(24.323 41.596)"/>
    <line id="Line_151" data-name="Line 151" class="cls-1" x1="13.307" y2="0.705" transform="translate(10.399 41.684)"/>
    <line id="Line_152" data-name="Line 152" class="cls-1" y1="0.705" x2="13.307" transform="translate(9.606 39.921)"/>
    <line id="Line_153" data-name="Line 153" class="cls-1" x2="0.353" transform="translate(23.53 39.921)"/>
    <line id="Line_154" data-name="Line 154" class="cls-1" y1="0.881" x2="16.127" transform="translate(35.779 38.423)"/>
    <line id="Line_155" data-name="Line 155" class="cls-1" y1="0.617" x2="13.307" transform="translate(9.782 42.829)"/>
    <line id="Line_156" data-name="Line 156" class="cls-1" x2="0.353" transform="translate(23.618 42.741)"/>
    <line id="Line_157" data-name="Line 157" class="cls-1" y1="0.793" x2="14.893" transform="translate(37.101 41.243)"/>
    <line id="Line_158" data-name="Line 158" class="cls-1" x1="14.188" y2="0.793" transform="translate(10.575 44.68)"/>
    <line id="Line_159" data-name="Line 159" class="cls-1" transform="translate(5.904 46.355)"/>
    <line id="Line_160" data-name="Line 160" class="cls-1" x1="14.717" y2="0.793" transform="translate(32.607 33.664)"/>
    <line id="Line_161" data-name="Line 161" class="cls-1" x1="12.778" y2="0.705" transform="translate(5.023 35.251)"/>
    <line id="Line_162" data-name="Line 162" class="cls-1" y1="0.264" transform="translate(24.764 44.416)"/>
    <line id="Line_163" data-name="Line 163" class="cls-1" x1="0.793" y1="1.674" transform="translate(23.97 42.741)"/>
    <line id="Line_164" data-name="Line 164" class="cls-1" y1="1.146" x2="0.705" transform="translate(23.97 41.596)"/>
    <line id="Line_165" data-name="Line 165" class="cls-1" x1="0.793" y1="1.674" transform="translate(23.882 39.921)"/>
    <line id="Line_166" data-name="Line 166" class="cls-1" x1="2.115" y1="4.583" transform="translate(20.622 35.427)"/>
    <line id="Line_167" data-name="Line 167" class="cls-1" x2="2.468" y2="0.529" transform="translate(20.622 35.427)"/>
    <path id="Path_235" data-name="Path 235" class="cls-1" d="M26.7,41.3h.088v.088l.088.088.088.088v.088l.088.088h.088v.088l.088.088.088.088v.088l.088.088.088.088v.088h.088l.088.088v.088l.088.088.088.088V42.8l.088.088v.088l.088.088.088.088h0l.088.088.088.088v.088l.088.088.088.088v.088l.088.088v.088l.088.088.088.088v.088l.088.088.088.088v.088l.088.088v.088l.088.088.088.088" transform="translate(-3.611 -5.344)"/>
    <path id="Path_236" data-name="Path 236" class="cls-1" d="M29.5,45.2h0v.088h.088v.176h.088v.088l.088.088h0v.088l.088.088h0v.088l.088.088h0l.088.088h0v.088l.088.088v.088h0l.088.088v.088h0l.088.088V46.7h0l.088.088v.088h0l.088.088v.176h.088v.176h.088v.176l.088.088h0v.088l.088.088v.088h0v.088l.088.088v.088h0L31,48.2v.176h.088v.264l.088.088h0v.088l.088.088v.088h0v.088l.088.088v.176h0" transform="translate(-3.943 -5.807)"/>
    <path id="Path_237" data-name="Path 237" class="cls-1" d="M31.541,49.9l.088.088h0v.088h0v.088h0v.088h.088v.088h0v.088h0v.088h0v.088h0l.088.088h0v.088h0v.088h0v.088h0v.088h0v.088h0v.088h0v.088h0V51.4h0v.088h0v.088h0v.088h0v.088h0v.088h0v.088h0v.088h0l-.088.088h0v.088h0v.088h0v.088h0v.088h-.088v.088h0v.088h0v.088h-.088v.088h0V52.9h-.088v.088h0v.088h-.088v.088h-.088v.088h0l-.088.088h0l-.088.088h0" transform="translate(-4.133 -6.365)"/>
    <path id="Path_238" data-name="Path 238" class="cls-1" d="M30.7,53.853h-.088v.088h-.176v.088h-.176v.088H29.9v.088h-.881v-.088h-.353v-.088h-.176v-.088h-.176v-.088h-.088l-.088-.088h-.088v-.088h-.088l-.088-.088h-.088V53.5H27.7" transform="translate(-3.73 -6.793)"/>
    <line id="Line_168" data-name="Line 168" class="cls-1" y1="1.763" transform="translate(23.97 44.945)"/>
    <line id="Line_169" data-name="Line 169" class="cls-1" x1="2.996" y2="0.088" transform="translate(32.519 38.864)"/>
    <line id="Line_170" data-name="Line 170" class="cls-1" x1="0.969" y2="0.088" transform="translate(25.557 39.304)"/>
    <path id="Path_239" data-name="Path 239" class="cls-1" d="M40.8,44.6h0l.088.088h0v.088l.088.088h0l.088.088v.088h0l.088.088v.088h0l.088.088h0l.088.088v.088h0l.088.088v.088h0l.088.088v.088h0l.088.088V46.1h.088v.176h.088v.176h.088v.176l.088.088h0V46.8l.088.088v.088h0l.088.088v.176h.088v.264H42.3v.176l.088.088h0v.176l.088.088h0v.088l.088.088v.176h0l.088.088v.176l.088.088h0" transform="translate(-5.285 -5.736)"/>
    <line id="Line_171" data-name="Line 171" class="cls-1" x1="10.046" y2="0.529" transform="translate(27.407 43.006)"/>
    <path id="Path_240" data-name="Path 240" class="cls-1" d="M42.929,49.3v.088h0v.088h0v.088h.088v.088h0v.088h0v.088h0l.088.088h0v.088h0v.088h0v.088h0v.088h0v.088h0v.088h0v.088h0v.088h0l.088.088h0V50.8h0v.088h-.088v.088h0v.088h0v.088h0v.088h0v.088h0v.088h0V51.5h0v.088h0l-.088.088h0v.088h0v.088h0v.088h-.088v.088h0v.088h0l-.088.088h0V52.3h0v.088h-.088v.088h0l-.088.088h0v.088h-.088v.088h-.088v.088H42.4" transform="translate(-5.475 -6.294)"/>
    <line id="Line_172" data-name="Line 172" class="cls-1" x1="9.958" y2="0.529" transform="translate(26.967 46.531)"/>
    <path id="Path_241" data-name="Path 241" class="cls-1" d="M42.258,53.3h-.088v.088h-.176v.088h-.176v.088h-.353v.088H41.2" transform="translate(-5.332 -6.769)"/>
    <line id="Line_173" data-name="Line 173" class="cls-1" x1="0.529" y2="0.088" transform="translate(32.607 35.339)"/>
    <line id="Line_174" data-name="Line 174" class="cls-1" x1="0.969" y2="0.088" transform="translate(23.089 35.867)"/>
    <path id="Path_242" data-name="Path 242" class="cls-1" d="M38.1,40.6v.088l.088.088v.088l.088.088.088.088v.088h.088l.088.088v.088l.088.088.088.088v.088l.088.088h.088v.088l.088.088.088.088v.088l.088.088.088.088v.088l.088.088.088.088h0l.088.088v.088l.088.088.088.088v.088l.088.088.088.088v.088l.088.088v.088l.088.088.088.088V43.6l.088.088.088.088v.088l.088.088v.088l.088.088" transform="translate(-4.964 -5.261)"/>
    <line id="Line_175" data-name="Line 175" class="cls-1" x2="0.529" y2="0.088" transform="translate(32.607 35.251)"/>
    <path id="Path_243" data-name="Path 243" class="cls-1" d="M108.588,98.9H108.5" transform="translate(-13.323 -12.183)"/>
    <path id="Path_244" data-name="Path 244" class="cls-1" d="M108.688,99.1H108.6" transform="translate(-13.335 -12.207)"/>
    <line id="Line_176" data-name="Line 176" class="cls-1" x2="36.484" y2="6.962" transform="translate(56.489 79.314)"/>
    <line id="Line_177" data-name="Line 177" class="cls-1" x1="0.088" y2="2.908" transform="translate(26.438 36.308)"/>
  </g>
</svg>
