<svg xmlns="http://www.w3.org/2000/svg" viewBox="-16588.662 2481.116 79.557 116.335">
  <defs>
    <style>
      .cls-1 {
        fill: none;
        stroke: #dcdbdb;
      }
    </style>
  </defs>
  <g id="Group_222" data-name="Group 222" transform="translate(-16588.15 2482)">
    <path id="Path_46" data-name="Path 46" class="cls-1" d="M66.8,134.1l7.1.391V133.9" transform="translate(-23.625 -47.122)"/>
    <line id="Line_1" data-name="Line 1" class="cls-1" x2="4.038" y2="0.13" transform="translate(61.279 86.843)"/>
    <line id="Line_2" data-name="Line 2" class="cls-1" x2="5.405" y2="0.195" transform="translate(56.069 86.583)"/>
    <path id="Path_47" data-name="Path 47" class="cls-1" d="M95.1,135.242a14.451,14.451,0,0,0,3.126-1.042" transform="translate(-33.495 -47.227)"/>
    <path id="Path_48" data-name="Path 48" class="cls-1" d="M93.1,134.828a3.658,3.658,0,0,1,3.191-1.628" transform="translate(-32.798 -46.878)"/>
    <line id="Line_3" data-name="Line 3" class="cls-1" x1="0.26" y2="20.318" transform="translate(24.941 89.969)"/>
    <path id="Path_49" data-name="Path 49" class="cls-1" d="M13.834,163.8s-1.368.2-1.5.26-.651.26.065.326a22.491,22.491,0,0,0,2.93.065,5.727,5.727,0,0,0,.912-.13" transform="translate(-4.522 -57.551)"/>
    <path id="Path_50" data-name="Path 50" class="cls-1" d="M11.959,164.5l-.065,2.019s-.13.26.456.326a11.7,11.7,0,0,0,3-.065c.847-.2.912-.065.977-.651,0-.521.065-1.628.065-1.628" transform="translate(-4.47 -57.795)"/>
    <path id="Path_51" data-name="Path 51" class="cls-1" d="M14.7,163.4l.065.456s-.065.26.2.26.586.13.586-.326v-.2" transform="translate(-5.453 -57.411)"/>
    <path id="Path_52" data-name="Path 52" class="cls-1" d="M37.6,176a4.293,4.293,0,0,0,2.54.326c1.889-.2,2.475-.26,2.735-.521" transform="translate(-13.44 -61.736)"/>
    <path id="Path_53" data-name="Path 53" class="cls-1" d="M37.593,169.76V173.8s-.13.456.456.521a11.409,11.409,0,0,0,3.451.065c1.368-.26,1.368-.391,1.368-1.107V169.5" transform="translate(-13.433 -59.539)"/>
    <path id="Path_54" data-name="Path 54" class="cls-1" d="M79.6,170.5s.065.2,1.3.26,2.93.13,3.451-.26" transform="translate(-28.089 -59.888)"/>
    <path id="Path_55" data-name="Path 55" class="cls-1" d="M79.5,165.221l.065,3.191s-.13.326.391.456a12.954,12.954,0,0,0,3.191.326c.521-.13,1.237-.13,1.237-.521s-.065-3.972-.065-3.972" transform="translate(-28.054 -57.865)"/>
    <path id="Path_56" data-name="Path 56" class="cls-1" d="M93.9,136.7a4.082,4.082,0,0,1,.065.716c0,.391.26,12.764.26,12.764l.13,4.1" transform="translate(-33.077 -48.099)"/>
    <path id="Path_57" data-name="Path 57" class="cls-1" d="M82.777,133.7l.065,2.084s0,.26-.977.065L81.8,133.7" transform="translate(-28.856 -47.052)"/>
    <line id="Line_4" data-name="Line 4" class="cls-1" x1="2.67" y2="0.195" transform="translate(50.274 88.667)"/>
    <path id="Path_58" data-name="Path 58" class="cls-1" d="M81.412,136.7l2.475.2-3.256.2-2.93-.13.065.586,2.8.2,3.256-.2.065-.651" transform="translate(-27.426 -48.099)"/>
    <path id="Path_59" data-name="Path 59" class="cls-1" d="M43.6,136.551l5.21-.2s5.731-.13,7.163-.065,8.987.586,8.987.586l.847.065" transform="translate(-15.533 -47.949)"/>
    <path id="Path_60" data-name="Path 60" class="cls-1" d="M41.2,135.4a2.867,2.867,0,0,0,1.107,0" transform="translate(-14.696 -47.645)"/>
    <path id="Path_61" data-name="Path 61" class="cls-1" d="M42.058,134.9s-.13.26,0,.326.26-.065.326.065a1.108,1.108,0,0,1,.065.456v.13c0,.2.065.391-.065.456a4.808,4.808,0,0,1-.781.13h-.847l-.13-.065s-.13-.13-.065-.26c0-.2.065-.326,0-.391s-.13-.26,0-.326a.968.968,0,0,1,.391-.065c.065,0,0-.456,0-.456" transform="translate(-14.446 -47.471)"/>
    <path id="Path_62" data-name="Path 62" class="cls-1" d="M43.5,135.647l3.191-.13s.651-.13.456-.716" transform="translate(-15.498 -47.436)"/>
    <line id="Line_5" data-name="Line 5" class="cls-1" x2="0.912" transform="translate(25.137 88.732)"/>
    <line id="Line_6" data-name="Line 6" class="cls-1" y1="0.065" x2="0.912" transform="translate(25.137 88.276)"/>
    <path id="Path_63" data-name="Path 63" class="cls-1" d="M35.268,134.465v.26l-.26.065v.456s.2.13-.847.065v-.456l-.26-.065V134.4" transform="translate(-12.149 -47.296)"/>
    <path id="Path_64" data-name="Path 64" class="cls-1" d="M37.182,135.7v1.172L33.6,137V135.9" transform="translate(-12.045 -47.75)"/>
    <line id="Line_7" data-name="Line 7" class="cls-1" x1="2.279" y2="0.13" transform="translate(19.667 87.885)"/>
    <path id="Path_65" data-name="Path 65" class="cls-1" d="M33.856,135.5h.391l1.889.13-3.582.2-1.889-.13L30.6,136.8l.651.13v-.26h.456l.065.26h.781" transform="translate(-10.998 -47.68)"/>
    <line id="Line_8" data-name="Line 8" class="cls-1" y1="0.13" x2="4.884" transform="translate(14.717 88.992)"/>
    <line id="Line_9" data-name="Line 9" class="cls-1" y1="0.391" x2="7.359" transform="translate(12.243 88.536)"/>
    <line id="Line_10" data-name="Line 10" class="cls-1" y1="1.693" x2="0.065" transform="translate(10.55 87.039)"/>
    <line id="Line_11" data-name="Line 11" class="cls-1" y1="1.628" transform="translate(9.703 87.039)"/>
    <path id="Path_66" data-name="Path 66" class="cls-1" d="M15,133.96s0-.26.13-.26h1.042a.191.191,0,0,1,.2.2v.26l-1.237.065C15.13,134.091,15,134.026,15,133.96Z" transform="translate(-5.557 -47.052)"/>
    <path id="Path_67" data-name="Path 67" class="cls-1" d="M7.8,136.058a1.613,1.613,0,0,1,.586-.2,9.065,9.065,0,0,1,1.107-.065s.26-.065.26.326" transform="translate(-3.046 -47.782)"/>
    <path id="Path_68" data-name="Path 68" class="cls-1" d="M57.175,135.1s9.508.586,10.289.651a1.4,1.4,0,0,1,.651.13.39.39,0,0,1,.2.391c0,.2.13,3.647.13,4.233,0,.521.13,5.34,0,5.991s-.781,2.735-.977,3.386a15.708,15.708,0,0,0-.521,2.735c-.13.847-.456.781-.456.781l-2.214.391-27.807,3.256s-5.6.716-7.489.781a14.157,14.157,0,0,1-3.517-.326S8.2,152.357,7.683,152.227s-.391-.521-.391-.521.391-15.043.326-15.5c0-.456.2-.456.2-.456l4.754.456,12.959,1.237s1.5.065,2.344.13h2.6s.521-.13.521.326,0,.977,1.237.912c1.3-.065,24.29-1.237,24.29-1.237l2.279-.13s.586.13.651-.847c0-.26.065-.391.391-.391s7.88-.2,7.88-.2.651-.065.326-.2" transform="translate(-2.864 -47.541)"/>
    <path id="Path_69" data-name="Path 69" class="cls-1" d="M57.633,107.7v.13l-.456.065s-.13.065.065.065h.391v1.3c.065,0,0,.13,0,.13H57.7v-.13l.065-.065a7.836,7.836,0,0,1,0-1.237h.456s.2-.065,0-.065h-.456v-.13" transform="translate(-20.253 -37.984)"/>
    <path id="Path_70" data-name="Path 70" class="cls-1" d="M57.6,106.8h.521" transform="translate(-20.416 -37.67)"/>
    <path id="Path_71" data-name="Path 71" class="cls-1" d="M57.5,106.6h.586" transform="translate(-20.381 -37.6)"/>
    <path id="Path_72" data-name="Path 72" class="cls-1" d="M57.4,105.1a2.59,2.59,0,0,0,.716,0" transform="translate(-20.346 -37.077)"/>
    <path id="Path_73" data-name="Path 73" class="cls-1" d="M57.1,104.1a6.237,6.237,0,0,0,1.107,0" transform="translate(-20.241 -36.728)"/>
    <path id="Path_74" data-name="Path 74" class="cls-1" d="M55.633,70.3l.13,16.8a.7.7,0,0,1-.2.456,6.99,6.99,0,0,1-1.368.26" transform="translate(-19.23 -24.939)"/>
    <path id="Path_75" data-name="Path 75" class="cls-1" d="M60.2,97.16s.586-.065.716-.26" transform="translate(-21.323 -34.217)"/>
    <path id="Path_76" data-name="Path 76" class="cls-1" d="M59.726,96.3v.26c0,.065-.13.2-.716.2A6.133,6.133,0,0,1,56.6,96.43" transform="translate(-20.067 -34.008)"/>
    <path id="Path_77" data-name="Path 77" class="cls-1" d="M53.6,87.915l1.954-.326,3.191.13-.13-16.02" transform="translate(-19.021 -25.427)"/>
    <path id="Path_78" data-name="Path 78" class="cls-1" d="M54.5,97.13,56.584,97l1.563.13a18.072,18.072,0,0,1,0,1.889c-.065.26,0,1.107-.912,1.107a3.247,3.247,0,0,1-.847-.065" transform="translate(-19.334 -34.252)"/>
    <path id="Path_79" data-name="Path 79" class="cls-1" d="M55,97.65a1.087,1.087,0,0,1,1.172.2.92.92,0,0,1,.326.716v1.758l.977.065a1.662,1.662,0,0,1,0,.586c0,.13-.2.13-.2.13h-.781a.4.4,0,0,1-.521-.326,4.864,4.864,0,0,1-.2-1.3c0-.391,0-1.3-.26-1.5s-.456-.391-.716,0" transform="translate(-19.439 -34.445)"/>
    <path id="Path_80" data-name="Path 80" class="cls-1" d="M53.5,71.9l.13,16.02v.326a7.15,7.15,0,0,0,.716.2c0,.2.26.13.26.13.26,0,0,.065,0,.065a.806.806,0,0,0-.13.2,1.707,1.707,0,0,0-.326.586,3.3,3.3,0,0,0,.2,1.693c.456,1.107.912.977.912.977.651,0,.586-.065.586-.065V92.8a.451.451,0,0,1,.2.26v.326s0,.13.065.13v.912a.143.143,0,0,1,.065.2v.521a1.21,1.21,0,0,0,.521,0c.065,0,0-.065,0-.26v-.26l-.065-.13c0-.065.065,0,.065-.26v-.781s.065,0,.065-.2a2.3,2.3,0,0,1,.065-.391c.065-.065.065-.065.065-.26v-.586" transform="translate(-18.986 -25.497)"/>
    <path id="Path_81" data-name="Path 81" class="cls-1" d="M30.5,111.3s-.065.391.26.456" transform="translate(-10.961 -39.239)"/>
    <path id="Path_82" data-name="Path 82" class="cls-1" d="M34.3,111.9a1.353,1.353,0,0,0,.521,0" transform="translate(-12.289 -39.449)"/>
    <path id="Path_83" data-name="Path 83" class="cls-1" d="M30.8,111.7s.456.065.586.065h.586a.8.8,0,0,0-.13.586c0,.326.13,2.475.13,2.475v.586a1.325,1.325,0,0,1-.065.326" transform="translate(-11.068 -39.379)"/>
    <path id="Path_84" data-name="Path 84" class="cls-1" d="M34.3,111.395v.391a.227.227,0,0,0,.13.065,3.268,3.268,0,0,1,.13.781l.065-.781.13-.065v-.391" transform="translate(-12.289 -39.269)"/>
    <path id="Path_85" data-name="Path 85" class="cls-1" d="M30.7,111.3v.326s.065.2.2.2a.239.239,0,0,1,.065.2v.391h.065l.065-.586s.2.065.2-.2V111.3" transform="translate(-11.033 -39.239)"/>
    <path id="Path_86" data-name="Path 86" class="cls-1" d="M30.7,111.056l4.363.065.065-.521" transform="translate(-11.033 -38.995)"/>
    <path id="Path_87" data-name="Path 87" class="cls-1" d="M28.8,110.091a.909.909,0,0,1,.26-.326,4.312,4.312,0,0,1,.977-.065c.065,0,3.582.065,3.582.065s.26.065.456.13a.413.413,0,0,1,.326.391c-.26,0-4.428-.065-4.428-.065" transform="translate(-10.371 -38.681)"/>
    <path id="Path_88" data-name="Path 88" class="cls-1" d="M28.6,110.225l1.172-.13s.2-.065.2.13v.586l-1.3.065v-.651Z" transform="translate(-10.301 -38.815)"/>
    <path id="Path_89" data-name="Path 89" class="cls-1" d="M32.8,115.872l.977-.065c-.2,0-.26-.065-.391-.26-.2-.13-.26-.781-.26-.781s-.13-2.214-.13-2.409c0-.26.2-.326.2-.391.065-.065.26-.065.26-.065h.391" transform="translate(-11.766 -39.449)"/>
    <path id="Path_90" data-name="Path 90" class="cls-1" d="M31.565,112a.9.9,0,0,1,.13.456v2.6a4.549,4.549,0,0,1-.2.781" transform="translate(-11.312 -39.484)"/>
    <path id="Path_91" data-name="Path 91" class="cls-1" d="M30.3,118.771v-.716s0-.13.2-.2c.2,0,1.237-.065,1.237-.065s.26-.065.26.13v.26H32.9a.285.285,0,0,0,.065-.2v-.2h.2c.065,0,.065.065.065.2v.586" transform="translate(-10.894 -41.501)"/>
    <line id="Line_12" data-name="Line 12" class="cls-1" y1="0.26" transform="translate(16.671 77.14)"/>
    <line id="Line_13" data-name="Line 13" class="cls-1" y2="0.326" transform="translate(14.457 77.14)"/>
    <line id="Line_14" data-name="Line 14" class="cls-1" y2="5.535" transform="translate(35.035 71.475)"/>
    <path id="Path_92" data-name="Path 92" class="cls-1" d="M50,110.63v.326l1.433-.13V110.5" transform="translate(-17.765 -38.96)"/>
    <path id="Path_93" data-name="Path 93" class="cls-1" d="M58.4,115.5s.26.326.065.521" transform="translate(-20.695 -40.704)"/>
    <path id="Path_94" data-name="Path 94" class="cls-1" d="M56.1,113.7s.456.391,0,.716" transform="translate(-19.893 -40.076)"/>
    <path id="Path_95" data-name="Path 95" class="cls-1" d="M58.6,112.4a.462.462,0,0,1,0,.716" transform="translate(-20.765 -39.623)"/>
    <path id="Path_96" data-name="Path 96" class="cls-1" d="M60.2,114a.451.451,0,0,1,0,.651" transform="translate(-21.323 -40.181)"/>
    <ellipse id="Ellipse_7" data-name="Ellipse 7" class="cls-1" cx="0.716" cy="0.781" rx="0.716" ry="0.781" transform="translate(38.54 73.374) rotate(-0.806)"/>
    <ellipse id="Ellipse_8" data-name="Ellipse 8" class="cls-1" cx="0.391" cy="0.456" rx="0.391" ry="0.456" transform="translate(37.702 74.606) rotate(-0.478)"/>
    <path id="Path_97" data-name="Path 97" class="cls-1" d="M56.812,114.021a.46.46,0,1,1-.456-.521A.464.464,0,0,1,56.812,114.021Z" transform="translate(-19.823 -40.007)"/>
    <ellipse id="Ellipse_9" data-name="Ellipse 9" class="cls-1" cx="0.456" cy="0.521" rx="0.456" ry="0.521" transform="matrix(1, -0.011, 0.011, 1, 37.698, 72.648)"/>
    <ellipse id="Ellipse_10" data-name="Ellipse 10" class="cls-1" cx="0.456" cy="0.521" rx="0.456" ry="0.521" transform="matrix(1, -0.008, 0.008, 1, 38.744, 73.629)"/>
    <path id="Path_98" data-name="Path 98" class="cls-1" d="M62.081,111.556a.4.4,0,1,1-.391-.456C61.951,111.1,62.081,111.3,62.081,111.556Z" transform="translate(-21.706 -39.17)"/>
    <path id="Path_99" data-name="Path 99" class="cls-1" d="M52.86,116.226c0,.2-.065.326-.13.326s-.13-.13-.13-.326.065-.326.13-.326S52.86,116.1,52.86,116.226Z" transform="translate(-18.672 -40.844)"/>
    <path id="Path_100" data-name="Path 100" class="cls-1" d="M51.326,117.36c0,.13-.065.326-.13.326a.291.291,0,0,1-.2-.26c0-.2.065-.326.13-.326C51.26,117.1,51.326,117.23,51.326,117.36Z" transform="translate(-18.114 -41.262)"/>
    <ellipse id="Ellipse_11" data-name="Ellipse 11" class="cls-1" cx="0.13" cy="0.326" rx="0.13" ry="0.326" transform="translate(32.686 73.101) rotate(-0.625)"/>
    <path id="Path_101" data-name="Path 101" class="cls-1" d="M52.66,113.16c0,.13-.065.26-.13.26s-.13-.13-.13-.26.065-.26.13-.26S52.6,113.03,52.66,113.16Z" transform="translate(-18.602 -39.797)"/>
    <path id="Path_102" data-name="Path 102" class="cls-1" d="M49.3,115.87V110.6h1.889v-.13l1.368-.065,6.642.13.065,5.405" transform="translate(-17.521 -38.925)"/>
    <line id="Line_15" data-name="Line 15" class="cls-1" y2="10.485" transform="translate(28.653 77.01)"/>
    <path id="Path_103" data-name="Path 103" class="cls-1" d="M65.621,128.077l-27.09.912-9.377.326L.5,127.491l.2-7.554a.29.29,0,0,1,.26-.2l17.192-.586,4.624-.2,6.382-.2H67.575l9.052-.065h.651a.726.726,0,0,1,.521.391c.13.326.781,2.019.912,2.54a8.09,8.09,0,0,1,.326,3.126,10.977,10.977,0,0,1-.651,3.451c-.065.26-.2.847-.716.912s-8.01.521-8.01.521H66.273a.636.636,0,0,1-.326-.391,5.069,5.069,0,0,1-.2-.586l-.26-1.172a26.854,26.854,0,0,1-.391-5.014c.065-.977.391-3.321.391-3.321.065-.2.2-.26.391-.326.26-.065.912-.13.912-.13" transform="translate(-0.5 -41.82)"/>
    <path id="Path_104" data-name="Path 104" class="cls-1" d="M104.5,119.3s.391,10.159.521,10.615" transform="translate(-36.774 -42.03)"/>
    <path id="Path_105" data-name="Path 105" class="cls-1" d="M100.6,119.06h2.279s2.344-.065,2.8-.065,6.512-.2,6.512-.2" transform="translate(-35.414 -41.855)"/>
    <path id="Path_106" data-name="Path 106" class="cls-1" d="M111.875,125.838a1.694,1.694,0,0,1-.781.521c-.456.065-1.237-.13-1.3-.651a1.8,1.8,0,0,1,.326-1.368c.2-.26.781-.781,1.237-.651s.912.26.912.716.065.716-.065.912" transform="translate(-38.613 -43.553)"/>
    <path id="Path_107" data-name="Path 107" class="cls-1" d="M109.321,127.68a6,6,0,0,1-.26-2.54,4.958,4.958,0,0,1,1.107-1.889,4.044,4.044,0,0,1,2.93-.977" transform="translate(-38.339 -43.051)"/>
    <path id="Path_108" data-name="Path 108" class="cls-1" d="M108.626,127.07a7.745,7.745,0,0,1-1.433-3.061c-.065-1.237.13-2.67.912-3.061a3.026,3.026,0,0,1,3-.13l1.107.586s.391.065.13.716c-.326.586-1.042,2.214-1.237,2.475-.26.26-1.758,1.889-1.889,2.019C109.082,126.81,108.757,127.2,108.626,127.07Z" transform="translate(-37.709 -42.441)"/>
    <line id="Line_16" data-name="Line 16" class="cls-1" x2="0.065" y2="0.326" transform="translate(12.829 77.205)"/>
    <path id="Path_109" data-name="Path 109" class="cls-1" d="M76.5,112.561a11.318,11.318,0,0,1,5.6-.13" transform="translate(-27.008 -39.523)"/>
    <line id="Line_17" data-name="Line 17" class="cls-1" x2="5.21" y2="0.521" transform="translate(39.659 49.724)"/>
    <line id="Line_18" data-name="Line 18" class="cls-1" x2="5.535" y2="0.586" transform="translate(39.594 48.552)"/>
    <path id="Path_110" data-name="Path 110" class="cls-1" d="M65.3,102.333s.065-6.9.065-7.619c0-.781.651-8.791,1.042-11.071.2-1.563.847-4.949,1.042-5.731.2-.847.912-3.777.912-3.777L72.268,71.4l.326,26.439s-.065.586.2.651,3.777,1.237,4.363,1.5c.651.26,1.758.781,1.954.847.13.13.13.13.13.521,0,.326.065.977.065.977" transform="translate(-23.101 -25.323)"/>
    <path id="Path_111" data-name="Path 111" class="cls-1" d="M88.5,118.237s.065-.781.456-.977a1.456,1.456,0,0,1,.977-.26c.586,0,2.084.065,2.084.065a1,1,0,0,1,.651.391,1.553,1.553,0,0,1,.26.781" transform="translate(-31.193 -41.227)"/>
    <path id="Path_112" data-name="Path 112" class="cls-1" d="M93.332,116.595a3.389,3.389,0,0,0-1.758-.521,20.443,20.443,0,0,0-2.93,0c-.26.065-1.693.2-1.758.391a2.639,2.639,0,0,0,0,.716v.651" transform="translate(-30.62 -40.887)"/>
    <path id="Path_113" data-name="Path 113" class="cls-1" d="M72.056,70.1l2.8.326,1.563.2a.282.282,0,0,1,.13.26,2.546,2.546,0,0,1-.326.26l-.716-.13L71.6,70.556" transform="translate(-25.299 -24.869)"/>
    <line id="Line_19" data-name="Line 19" class="cls-1" x2="3.842" y2="0.521" transform="translate(57.177 45.035)"/>
    <path id="Path_114" data-name="Path 114" class="cls-1" d="M88.633,65.8l1.954,2.54s.586.521-.065.912-4.168,2.735-4.168,2.735a1.4,1.4,0,0,1-.716.13c-.326.2-1.237.847-1.237.847" transform="translate(-29.763 -23.37)"/>
    <path id="Path_115" data-name="Path 115" class="cls-1" d="M79,71.6l4.1.521s.391,0,.391.26-.065.26-.2.456c-.13.13-.716.847-.716.847s-.065,0-.065.781c0,.716.326,16.411.326,16.411l.13,7.228s0,.326.26.391a58.9,58.9,0,0,1,6.121,1.889c1.237.651,1.3.716,1.3,1.107v1.042" transform="translate(-27.88 -25.393)"/>
    <path id="Path_116" data-name="Path 116" class="cls-1" d="M85.912,67.6l1.042,1.172s.391.326.065.521S85,70.661,85,70.661" transform="translate(-29.972 -23.997)"/>
    <line id="Line_20" data-name="Line 20" class="cls-1" x2="9.898" y2="1.302" transform="translate(47.278 43.733)"/>
    <line id="Line_21" data-name="Line 21" class="cls-1" x2="0.651" y2="0.781" transform="translate(52.097 38.784)"/>
    <path id="Path_117" data-name="Path 117" class="cls-1" d="M73.1,64.2l11.331,1.628s.521.13.456.521" transform="translate(-25.822 -22.812)"/>
    <path id="Path_118" data-name="Path 118" class="cls-1" d="M71.2,59.9s10.029,1.433,10.354,1.628A4.109,4.109,0,0,1,83.313,62.7a3.94,3.94,0,0,1,.847,1.889,1.87,1.87,0,0,1-.13.781L72.5,63.742" transform="translate(-25.159 -21.312)"/>
    <path id="Path_119" data-name="Path 119" class="cls-1" d="M70.2,58.5,79.577,60l1.172.2s.521.065,1.107,1.042" transform="translate(-24.81 -20.823)"/>
    <path id="Path_120" data-name="Path 120" class="cls-1" d="M64.786,55.5a11.31,11.31,0,0,1,3.256,3.321,6.922,6.922,0,0,1,1.042,4.689,3.466,3.466,0,0,1-2.279,2.865,17.971,17.971,0,0,1-5.405.847" transform="translate(-21.741 -19.777)"/>
    <line id="Line_22" data-name="Line 22" class="cls-1" x2="16.997" y2="1.823" transform="translate(17.518 47.315)"/>
    <line id="Line_23" data-name="Line 23" class="cls-1" x2="16.932" y2="1.889" transform="translate(17.518 46.077)"/>
    <path id="Path_121" data-name="Path 121" class="cls-1" d="M53.36,71.458l-.26-.13a3.063,3.063,0,0,0,1.368-.456c.521-.391.586-.391.651-.521a.259.259,0,0,1,.326-.065,15.591,15.591,0,0,0,3.191.912c.326.065.326.13.065.326a.937.937,0,0,1-.2.13" transform="translate(-18.846 -24.925)"/>
    <path id="Path_122" data-name="Path 122" class="cls-1" d="M45.5,69.2s1.758,1.042,2.279,1.237a16.41,16.41,0,0,0,2.865.977" transform="translate(-16.195 -24.555)"/>
    <path id="Path_123" data-name="Path 123" class="cls-1" d="M39.975,66.068,29.426,64.7l-.326.26v.26l10.81,1.368" transform="translate(-10.475 -22.986)"/>
    <line id="Line_24" data-name="Line 24" class="cls-1" y1="0.13" x2="0.651" transform="translate(29.5 33.444)"/>
    <path id="Path_124" data-name="Path 124" class="cls-1" d="M52.526,1,52.2.8c.065.391.716,11.917.781,12.894.065.912.456,11.461.521,12.5s.326,12.764.326,12.764" transform="translate(-18.532 -0.698)"/>
    <path id="Path_125" data-name="Path 125" class="cls-1" d="M63.9,3.2" transform="translate(-22.613 -1.535)"/>
    <path id="Path_126" data-name="Path 126" class="cls-1" d="M51.719,53.968a8.831,8.831,0,0,0-1.889-2.93c-1.3-1.172-2.019-1.758-2.344-1.758H46.9V44.2" transform="translate(-16.684 -15.836)"/>
    <path id="Path_127" data-name="Path 127" class="cls-1" d="M43,54.344a.3.3,0,0,1,.326-.13,3.15,3.15,0,0,1,.781.651,4.3,4.3,0,0,1,.781,1.433c.13.456.26.847.326,1.042a.876.876,0,0,1-.13.521,3.872,3.872,0,0,0-.2.456s-.13.13.065.391.716,1.107.716,1.107.391.456,0,.716c-.391.326-1.368,1.107-1.368,1.107v.521l-.13.065.065.912a2.875,2.875,0,0,0,2.93.13,3.774,3.774,0,0,0,1.823-2.475,7.479,7.479,0,0,0-.456-4.428A7.36,7.36,0,0,0,47.3,54.279,11.334,11.334,0,0,0,44.435,52s-1.368.521-1.628.586a11.93,11.93,0,0,0-1.107.456" transform="translate(-14.87 -18.556)"/>
    <path id="Path_128" data-name="Path 128" class="cls-1" d="M41.99,36.3l-.521-.781s-.2-.2.13-.326.326-.26.326-.456c.065-.391.456-2.865.456-2.865s0-.326.26-.326c.13-.065.2-.456.26-.781.13-.391.651-1.758,1.368-1.823.391,0,.456.065.521.13s.13.13.13-.326,0-13.155-.065-13.675v-8.6c0-.391,0-2.93.065-3.191s.2-.521.977-.977c.651-.456,2.344-1.5,2.344-1.5A7.279,7.279,0,0,1,50.716.68,10.909,10.909,0,0,1,55.73,2.113a1.025,1.025,0,0,1,.456.847c0,.326.391,5.731.391,5.731l.521,8.075s.586,12.113.521,14.066c0,.651.13,8.531.13,8.531s.065.391-.456.716-1.823,1.433-1.823,1.433a3.876,3.876,0,0,1-3.191-.781s-2.019-1.5-2.409-1.758c-.326-.2-1.889-1.5-2.214-1.693" transform="translate(-14.769 -0.644)"/>
    <path id="Path_129" data-name="Path 129" class="cls-1" d="M22.7,58.21s.456-.977,1.107-.912,3.647.521,3.647.521L38.59,59.447" transform="translate(-8.243 -20.403)"/>
    <path id="Path_130" data-name="Path 130" class="cls-1" d="M22.3,52.4s1.042.326,1.628,2.214c.2.847.26,1.172.13,1.5s-.26.586-.26.586" transform="translate(-8.104 -18.696)"/>
    <line id="Line_25" data-name="Line 25" class="cls-1" x2="14.262" y2="2.279" transform="translate(12.373 32.532)"/>
    <path id="Path_131" data-name="Path 131" class="cls-1" d="M37.28,58.649S23.083,56.7,22.367,56.63c-.781-.065-.716-.2-1.042-.521a8.76,8.76,0,0,1-1.3-1.758,1.749,1.749,0,0,1,0-1.368A1.6,1.6,0,0,1,21.26,52.4c.716.065,2.865.456,2.865.456l11.982,1.823" transform="translate(-7.259 -18.693)"/>
    <line id="Line_26" data-name="Line 26" class="cls-1" x2="14.652" y2="2.019" transform="translate(16.28 39.826)"/>
    <line id="Line_27" data-name="Line 27" class="cls-1" x1="3.517" y2="3.842" transform="translate(10.875 39.37)"/>
    <path id="Path_132" data-name="Path 132" class="cls-1" d="M16.6,50.4l3.647,6.707a1.139,1.139,0,0,0,.716.456c.456.065,1.433.2,1.433.2" transform="translate(-6.115 -17.998)"/>
    <path id="Path_133" data-name="Path 133" class="cls-1" d="M23.716,59l.847,1.5s.26.2-.13.521c-.326.326-1.433,1.5-1.433,1.5" transform="translate(-8.348 -20.998)"/>
    <path id="Path_134" data-name="Path 134" class="cls-1" d="M17.421,51.9,16.64,50.53h-.26s-.521-.065-1.172-.13a1.894,1.894,0,0,0-.912.2s-2.084,1.172-2.54,1.433-.456.391-.456.716a13.128,13.128,0,0,0,.586,3.386,19.823,19.823,0,0,0,2.6,4.689,2.432,2.432,0,0,0,.912.651c.26.065.716.13.065.781S12.993,64.6,12.993,64.6" transform="translate(-4.267 -17.998)"/>
    <path id="Path_135" data-name="Path 135" class="cls-1" d="M17.6,66.628s.065-.586-.13-.586l-2.735,2.735s.065.26-.781,0a.647.647,0,0,1-.456-.651V62.2" transform="translate(-5.034 -22.114)"/>
    <line id="Line_28" data-name="Line 28" class="cls-1" x1="2.67" y1="0.26" transform="translate(9.768 46.533)"/>
    <line id="Line_29" data-name="Line 29" class="cls-1" y1="35.752" x2="0.391" transform="translate(14.652 41.388)"/>
    <path id="Path_136" data-name="Path 136" class="cls-1" d="M19,100.006l.391-30.477.065-2.019a3.7,3.7,0,0,1,.586-1.628c.456-.521,1.237-1.3,1.237-1.3s.521-.521.912-.391c.456.065,2.019.326,2.019.326s.326-.2.326.781c0,.912-.326,25.137-.326,25.137l-.065,9.443-2.54.065Z" transform="translate(-6.953 -22.8)"/>
  </g>
</svg>
