<svg xmlns="http://www.w3.org/2000/svg" viewBox="-11764.5 2512.805 56.922 61.818">
  <defs>
    <style>
      .cls-1 {
        fill: none;
        stroke: #dcdbdb;
      }
    </style>
  </defs>
  <g id="Group_240" data-name="Group 240" transform="translate(-11764 2513.305)">
    <line id="Line_33" data-name="Line 33" class="cls-1" y1="0.155" x2="3.247" transform="translate(14.225 0)"/>
    <line id="Line_34" data-name="Line 34" class="cls-1" x2="1.598" y2="0.309" transform="translate(17.473 0)"/>
    <path id="Path_164" data-name="Path 164" class="cls-1" d="M34.4,1.1h.155v.052h.1V1.2h0v.052h-.1v.052H34.3l-.052.052h-.722l-.052.052h-.979l-.052-.052h-.825l-.052-.052H31.2l-.052-.052H31.1" transform="translate(-15.328 -0.791)"/>
    <line id="Line_35" data-name="Line 35" class="cls-1" x1="1.546" y1="0.309" transform="translate(14.225 0.155)"/>
    <path id="Path_165" data-name="Path 165" class="cls-1" d="M69.134,113.617v-.1l-.052-.052v-.309l-.052-.052v-.258l-.052-.052v-.258l-.052-.052v-.155l-.052-.052v-.206l-.052-.052v-.155l-.052-.052v-.1l-.052-.052V111.5l-.052-.052v-.1l-.052-.052v-.052h0v-.052l-.052-.052v-.1l-.052-.052v-.1l-.052-.052v-.1l-.052-.052v-.1l-.052-.052v-.052l-.052-.052v-.1l-.052-.052v-.1h-.052v-.052l-.052-.052v-.1l-.052-.052v-.052l-.052-.052v-.1H68" transform="translate(-33.21 -53.417)"/>
    <path id="Path_166" data-name="Path 166" class="cls-1" d="M63.637,109.7h0l-.052.052v.052l-.052.052v.052l-.052.052v.1l-.052.052h0l-.052.052v.052l-.052.052v.1l-.052.052v.052l-.052.052v.1l-.052.052v.1l-.052.052v.1H63.07v.052l-.052.052v.1l-.052.052v.1l-.052.052v.155l-.052.052v.1l-.052.052v.1l-.052.052v.155l-.052.052v.155l-.052.052v.155l-.052.052v.206l-.052.052v.155l-.052.052v.258l-.052.052v.258H62.4" transform="translate(-30.496 -53.417)"/>
    <line id="Line_36" data-name="Line 36" class="cls-1" y1="0.258" transform="translate(34.687 56.025)"/>
    <line id="Line_37" data-name="Line 37" class="cls-1" y2="0.206" transform="translate(33.296 56.077)"/>
    <path id="Path_167" data-name="Path 167" class="cls-1" d="M39.667,109.126h0v-.258l-.052-.052v-.309l-.052-.052v-.206l-.052-.052v-.206l-.052-.052v-.206l-.052-.052v-.155l-.052-.052v-.155l-.052-.052v-.1l-.052-.052v-.155l-.052-.052v-.1l-.052-.052v-.1H39.1V106.6" transform="translate(-19.205 -51.915)"/>
    <path id="Path_168" data-name="Path 168" class="cls-1" d="M33.325,105.6v.052l-.052.052v.052l-.052.052v.1l-.052.052h0v.052l-.052.052v.1l-.052.052v.1l-.052.052v.1l-.052.052v.1l-.052.052v.155l-.052.052v.1l-.052.052v.155l-.052.052v.155l-.052.052v.155l-.052.052v.206l-.052.052v.206l-.052.052v.258l-.052.052v.1h0" transform="translate(-16.007 -51.43)"/>
    <line id="Line_38" data-name="Line 38" class="cls-1" y1="0.67" x2="0.412" transform="translate(31.389 23.245)"/>
    <line id="Line_39" data-name="Line 39" class="cls-1" x2="1.34" y2="0.258" transform="translate(52.005 54.015)"/>
    <path id="Path_169" data-name="Path 169" class="cls-1" d="M108.6,98.9a.111.111,0,0,0-.1-.1" transform="translate(-52.835 -48.135)"/>
    <path id="Path_170" data-name="Path 170" class="cls-1" d="M108.7,99.064h0" transform="translate(-52.932 -48.244)"/>
    <path id="Path_171" data-name="Path 171" class="cls-1" d="M108.6,105.658h0l.052-.052v-.052h0v-.1h0V105.4h0" transform="translate(-52.884 -51.333)"/>
    <path id="Path_172" data-name="Path 172" class="cls-1" d="M108.7,102.347l.052-.052h0v-.1h0v-.052h0v-.1h0l.052-.052v-.052h0v-.155h0v-.1h0l.052-.052v-.1h0v-.155h0v-.155h0v-.155h0v-.1h0V100.8h0v-.155h0v-.155h0v-.155h0v-.155h0v-.155h0v-.155h0v-.052l-.052-.052v-.052h0v-.155h0v-.155h0l-.052-.052v-.1h0v-.1h0L108.7,99.1h0" transform="translate(-52.932 -48.28)"/>
    <line id="Line_40" data-name="Line 40" class="cls-1" x1="1.34" y1="0.258" transform="translate(54.376 50.459)"/>
    <path id="Path_173" data-name="Path 173" class="cls-1" d="M55.652,110.215h0v-.206l-.052-.052V109.7" transform="translate(-27.201 -53.417)"/>
    <path id="Path_174" data-name="Path 174" class="cls-1" d="M48.206,108.4h0v.052l-.052.052v.206l-.052.052v.206l-.052.052v.258l-.052.052v.206" transform="translate(-23.518 -52.787)"/>
    <path id="Path_175" data-name="Path 175" class="cls-1" d="M84.634,112.766h0l-.052-.052V112.4l-.052-.052V112.1l-.052-.052v-.206l-.052-.052v-.206l-.052-.052v-.206l-.052-.052v-.155l-.052-.052v-.155l-.052-.052v-.1l-.052-.052v-.155l-.052-.052v-.1l-.052-.052v-.1l-.052-.052v-.1l-.052-.052h0v-.052l-.052-.052v-.1l-.052-.052v-.1l-.052-.052v-.1l-.052-.052v-.052l-.052-.052v-.1l-.052-.052v-.052l-.052-.052h0v-.052L83.552,109v-.052L83.5,108.9h0" transform="translate(-40.721 -53.029)"/>
    <path id="Path_176" data-name="Path 176" class="cls-1" d="M79.137,108.8l-.052.052v.052l-.052.052v.1l-.052.052h0l-.052.052v.052l-.052.052v.1l-.052.052v.052l-.052.052v.1l-.052.052v.052l-.052.052v.052h0l-.052.052v.1l-.052.052v.1l-.052.052v.1l-.052.052v.1l-.052.052v.1l-.052.052v.1l-.052.052v.155l-.052.052v.1l-.052.052v.155l-.052.052v.155l-.052.052v.052h0v.1h0l-.052.052v.1h0v.052L78,112v.155h0v.052l-.052.1v.258l-.052.052v.052h0" transform="translate(-38.007 -52.981)"/>
    <line id="Line_41" data-name="Line 41" class="cls-1" y2="0.155" transform="translate(41.233 55.665)"/>
    <line id="Line_42" data-name="Line 42" class="cls-1" y1="0.258" transform="translate(42.676 55.613)"/>
    <line id="Line_43" data-name="Line 43" class="cls-1" x1="21.338" y1="4.072" transform="translate(33.038 46.387)"/>
    <line id="Line_44" data-name="Line 44" class="cls-1" y1="2.526" x2="0.052" transform="translate(19.019 21.184)"/>
    <line id="Line_45" data-name="Line 45" class="cls-1" y1="20.771" x2="0.309" transform="translate(19.07 0.412)"/>
    <line id="Line_46" data-name="Line 46" class="cls-1" x1="0.155" y2="0.052" transform="translate(13.813 17.06)"/>
    <line id="Line_47" data-name="Line 47" class="cls-1" y1="0.618" transform="translate(26.698 56.077)"/>
    <line id="Line_48" data-name="Line 48" class="cls-1" y2="0.618" transform="translate(25.307 56.077)"/>
    <line id="Line_49" data-name="Line 49" class="cls-1" y1="0.155" transform="translate(26.338 55.922)"/>
    <line id="Line_50" data-name="Line 50" class="cls-1" y2="0.309" transform="translate(25.668 55.768)"/>
    <path id="Path_177" data-name="Path 177" class="cls-1" d="M53.682,114.417h0v-.155l-.052-.052v-.361l-.052-.052v-.258l-.052-.052v-.206l-.052-.052v-.155l-.052-.052v-.1h0l-.052-.1h0v-.1l-.052-.052v-.155l-.052-.052V112.3l-.052-.052v-.1l-.052-.052v-.1l-.052-.052v-.155l-.052-.052v-.1l-.052-.052v-.1l-.052-.052v-.052l-.052-.052v-.1l-.052-.052h0v-.052l-.052-.052v-.052l-.052-.052v-.1l-.052-.052v-.052l-.052-.052v-.1l-.052-.052V110.5h0" transform="translate(-25.747 -53.804)"/>
    <path id="Path_178" data-name="Path 178" class="cls-1" d="M48.185,110.5h0l-.052.052v.052l-.052.052v.1l-.052.052v.052l-.052.052v.052l-.052.052v.1h-.052v.052l-.052.052v.1l-.052.052v.1l-.052.052v.052l-.052.052v.1l-.052.052v.1l-.052.052v.1l-.052.052v.052h0l-.052.052v.1l-.052.052v.155l-.052.052v.1l-.052.052v.155l-.052.052v.155l-.052.052v.155l-.052.052v.206l-.052.052v.206l-.052.052v.206l-.052.052v.258" transform="translate(-23.033 -53.804)"/>
    <path id="Path_179" data-name="Path 179" class="cls-1" d="M23.734,108.717h0l-.052-.052V108.3l-.052-.052V108l-.052-.052v-.206l-.052-.052v-.206l-.052-.052v-.155l-.052-.052v-.206l-.052-.052v-.155h-.052v-.1l-.052-.052V106.5l-.052-.052v-.1l-.052-.052v-.1l-.052-.052v-.1l-.052-.052v-.1l-.052-.052v-.1l-.052-.052v-.1l-.052-.052v-.052l-.052-.052v-.052h0l-.052-.052v-.1l-.052-.052v-.052l-.052-.052v-.1l-.052-.052v-.052L22.6,104.8h0" transform="translate(-11.209 -51.042)"/>
    <path id="Path_180" data-name="Path 180" class="cls-1" d="M18.237,104.8h-.052v.052l-.052.052v.1l-.052.052v.052l-.052.052v.052l-.052.052v.1h-.052v.052l-.052.052v.1l-.052.052v.052l-.052.052v.1l-.052.052v.1l-.052.052v.1l-.052.052v.1h-.052v.1l-.052.052v.1l-.052.052v.1l-.052.052v.155l-.052.052v.1l-.052.052v.155l-.052.052v.155l-.052.052v.155l-.052.052v.206L17.1,108v.206l-.052.052v.258l-.052.052v.1" transform="translate(-8.496 -51.042)"/>
    <line id="Line_51" data-name="Line 51" class="cls-1" x1="0.052" y2="0.67" transform="translate(9.844 53.088)"/>
    <line id="Line_52" data-name="Line 52" class="cls-1" y1="0.618" transform="translate(11.288 53.139)"/>
    <line id="Line_53" data-name="Line 53" class="cls-1" y2="0.309" transform="translate(10.205 52.83)"/>
    <line id="Line_54" data-name="Line 54" class="cls-1" y1="0.155" transform="translate(10.927 52.985)"/>
    <line id="Line_55" data-name="Line 55" class="cls-1" y1="0.103" x2="1.598" transform="translate(15.102 27.626)"/>
    <line id="Line_56" data-name="Line 56" class="cls-1" y1="0.155" x2="2.68" transform="translate(18.297 27.42)"/>
    <line id="Line_57" data-name="Line 57" class="cls-1" y1="1.289" x2="23.967" transform="translate(28.657 55.046)"/>
    <line id="Line_58" data-name="Line 58" class="cls-1" y1="4.536" x2="0.052" transform="translate(28.657 51.799)"/>
    <line id="Line_59" data-name="Line 59" class="cls-1" x1="20.41" y2="1.082" transform="translate(28.709 50.717)"/>
    <line id="Line_60" data-name="Line 60" class="cls-1" y1="0.928" transform="translate(52.624 54.118)"/>
    <line id="Line_61" data-name="Line 61" class="cls-1" x1="28.657" y1="5.463" transform="translate(20.462 45.253)"/>
    <line id="Line_62" data-name="Line 62" class="cls-1" x1="28.657" y1="5.412" transform="translate(0.052 46.387)"/>
    <line id="Line_63" data-name="Line 63" class="cls-1" x1="13.555" y2="0.722" transform="translate(6.907 45.253)"/>
    <line id="Line_64" data-name="Line 64" class="cls-1" x1="3.144" y2="0.155" transform="translate(0.052 46.181)"/>
    <line id="Line_65" data-name="Line 65" class="cls-1" x1="28.657" y1="5.463" transform="translate(0 50.871)"/>
    <line id="Line_66" data-name="Line 66" class="cls-1" x1="0.052" y2="4.484" transform="translate(0 46.387)"/>
    <path id="Path_181" data-name="Path 181" class="cls-1" d="M62.4,117.1v.052h.052l.052.052h.1l.052.052h.258l.052.052h.464l.052.052H65.75l.052-.052h.361l.052-.052h.155V117.2h.052" transform="translate(-30.496 -57.003)"/>
    <path id="Path_182" data-name="Path 182" class="cls-1" d="M64.9,109.7h0l-.052-.052H64.8V109.6h.155" transform="translate(-31.659 -53.368)"/>
    <path id="Path_183" data-name="Path 183" class="cls-1" d="M66.443,109.6h.052l.052.052h0v.052h-.309l-.052.052h-.722l-.052-.052H65" transform="translate(-31.756 -53.368)"/>
    <path id="Path_184" data-name="Path 184" class="cls-1" d="M67.8,109.6h0" transform="translate(-33.113 -53.368)"/>
    <path id="Path_185" data-name="Path 185" class="cls-1" d="M64.955,109.6H64.8v.052h.052l.052.052h.412l.052.052h.722l.052-.052h.309v-.052h0L66.4,109.6h-.052" transform="translate(-31.659 -53.368)"/>
    <path id="Path_186" data-name="Path 186" class="cls-1" d="M66.492,109.7H66.44v.052H65.152V109.7H65.1" transform="translate(-31.804 -53.417)"/>
    <path id="Path_187" data-name="Path 187" class="cls-1" d="M32.5,111.4h0v.052h.052v.052h.155l.052.052h.258l.052.052h.515l.052.052H35.8l.052-.052h.361l.052-.052h.155V111.5h.052v-.052h0" transform="translate(-16.007 -54.241)"/>
    <path id="Path_188" data-name="Path 188" class="cls-1" d="M52,83.7h0v.052h0V83.8h0v.052h.052" transform="translate(-25.456 -40.818)"/>
    <path id="Path_189" data-name="Path 189" class="cls-1" d="M52.1,84l.052.052.052.052h.052l.052.052v.052h.052l.052.052.052.052h.052l.052.052.052.052h.052l.052.052.052.052h.052l.052.052.052.052.052.052h.052v.052l.052.052.052.052h.052l.052.052.052.052.052.052h.052l.052.052.052.052.052.052h.052v.052l.052.052.052.052.052.052H53.8l.052.052.052.052.052.052.052.052h.052l.052.052v.052l.052.052.052.052h.052l.052.052.052.052.052.052.052.052.052.052.052.052h0l.052.052.052.052.052.052.052.052.052.052.052.052" transform="translate(-25.505 -40.963)"/>
    <line id="Line_67" data-name="Line 67" class="cls-1" x2="0.052" y2="0.155" transform="translate(29.379 45.408)"/>
    <line id="Line_68" data-name="Line 68" class="cls-1" x1="0.052" y2="1.289" transform="translate(29.379 45.563)"/>
    <line id="Line_69" data-name="Line 69" class="cls-1" y1="1.289" x2="0.052" transform="translate(21.647 44.068)"/>
    <line id="Line_70" data-name="Line 70" class="cls-1" y1="0.103" x2="0.052" transform="translate(21.699 43.965)"/>
    <path id="Path_190" data-name="Path 190" class="cls-1" d="M42.7,85.364l.052-.052.052-.052h.052l.052-.052h.052l.052-.052h.052v-.052h.052l.052-.052L43.215,85h.052l.052-.052h.052l.052-.052" transform="translate(-20.95 -41.399)"/>
    <path id="Path_191" data-name="Path 191" class="cls-1" d="M44.1,69.1v-.464l.052-.155V67.35L44.2,67.2v-.825l.052-.155v-.464l.052-.206v-.618l.052-.155v-.464l.052-.155v-.361l.052-.155V63.33l.052-.155v-.309l.052-.155V62.4l.052-.155v-.309l.052-.155v-.309l.052-.155v-.155l.052-.155V60.7l.052-.155v-.155l.052-.155v-.155l.052-.155v-.155l.052-.155v-.155l.052-.155v-.155L45.079,59v-.155l.052-.155v-.155l.052-.155v-.155l.052-.155v-.155l.052-.155v-.155l.052-.155V57.3l.052-.1v-.155l.052-.155.052-.155v-.155l.052-.155v-.155l.052-.155.052-.1v-.155L45.7,55.7l.052-.155v-.155l.052-.155.052-.155v-.1l.052-.155v-.155l.052-.155.052-.155.052-.1V54.1l.052-.155.052-.155v-.1l.052-.155.052-.155.052-.155v-.1l.052-.155.052-.155v-.155l.052-.1.052-.155v-.1" transform="translate(-21.628 -25.602)"/>
    <line id="Line_71" data-name="Line 71" class="cls-1" x1="0.206" y2="16.287" transform="translate(26.544 26.595)"/>
    <path id="Path_192" data-name="Path 192" class="cls-1" d="M59.2,83.7h.052l.052.052h.052V83.8l.052.052h.052l.052.052.052.052.052.052h.052l.052.052.052.052h.052l.052.052.052.052h.052l.052.052v.052l.052.052h.052l.052.052.052.052h.052l.052.052.052.052.052.052.052.052h.052l.052.052v.052l.052.052h.052l.052.052.052.052.052.052.052.052h.052l.052.052.052.052.052.052v.052h.052l.052.052.052.052.052.052.052.052.052.052h.052l.052.052.052.052v.052l.052.052.052.052.052.052h.052l.052.052.052.052.052.052.052.052" transform="translate(-28.945 -40.818)"/>
    <line id="Line_72" data-name="Line 72" class="cls-1" x1="3.659" y2="0.206" transform="translate(29.379 45.202)"/>
    <line id="Line_73" data-name="Line 73" class="cls-1" x2="0.052" y2="0.155" transform="translate(33.038 45.202)"/>
    <line id="Line_74" data-name="Line 74" class="cls-1" x1="0.052" y2="1.443" transform="translate(33.038 45.356)"/>
    <line id="Line_75" data-name="Line 75" class="cls-1" x1="2.989" y2="0.155" transform="translate(30.049 46.8)"/>
    <line id="Line_76" data-name="Line 76" class="cls-1" x1="3.659" y2="0.206" transform="translate(26.75 25.358)"/>
    <line id="Line_77" data-name="Line 77" class="cls-1" x1="3.659" y2="0.206" transform="translate(26.544 42.676)"/>
    <line id="Line_78" data-name="Line 78" class="cls-1" x1="0.206" y2="17.318" transform="translate(30.203 25.358)"/>
    <path id="Path_193" data-name="Path 193" class="cls-1" d="M59.1,83.3h0v.052h0V83.4h0v.052h.052v.052" transform="translate(-28.897 -40.624)"/>
    <line id="Line_79" data-name="Line 79" class="cls-1" x1="0.464" y1="0.979" transform="translate(30.461 24.121)"/>
    <line id="Line_80" data-name="Line 80" class="cls-1" y1="0.258" transform="translate(30.925 25.101)"/>
    <line id="Line_81" data-name="Line 81" class="cls-1" y1="0.103" x2="0.515" transform="translate(30.409 25.358)"/>
    <line id="Line_82" data-name="Line 82" class="cls-1" y2="0.103" transform="translate(27.626 19.586)"/>
    <line id="Line_83" data-name="Line 83" class="cls-1" x1="0.825" y1="0.206" transform="translate(27.626 19.586)"/>
    <line id="Line_84" data-name="Line 84" class="cls-1" x1="1.289" y1="2.68" transform="translate(28.451 19.792)"/>
    <line id="Line_85" data-name="Line 85" class="cls-1" x1="0.103" y2="0.103" transform="translate(30.255 22.369)"/>
    <line id="Line_86" data-name="Line 86" class="cls-1" x1="0.515" y1="1.134" transform="translate(30.358 22.317)"/>
    <line id="Line_87" data-name="Line 87" class="cls-1" y1="0.67" x2="0.412" transform="translate(30.461 23.451)"/>
    <line id="Line_88" data-name="Line 88" class="cls-1" y1="0.052" x2="0.567" transform="translate(30.461 24.07)"/>
    <path id="Path_194" data-name="Path 194" class="cls-1" d="M60.7,47.055h.206V47h.052l.052-.052h0l.052-.052h0" transform="translate(-29.672 -22.985)"/>
    <line id="Line_89" data-name="Line 89" class="cls-1" x1="0.876" y1="1.855" transform="translate(31.801 23.142)"/>
    <line id="Line_90" data-name="Line 90" class="cls-1" x1="1.34" y1="2.886" transform="translate(30.203 19.689)"/>
    <line id="Line_91" data-name="Line 91" class="cls-1" x2="0.567" transform="translate(30.873 23.451)"/>
    <line id="Line_92" data-name="Line 92" class="cls-1" y1="0.052" x2="0.515" transform="translate(30.358 22.317)"/>
    <path id="Path_195" data-name="Path 195" class="cls-1" d="M60.4,43.8h.258v.052h.155V43.9h.1v.052h.1v.052h.052v.052h.052v.052h.052v.052h.052v.052h0l.052.052h0v.052h0l.052.052h0v.052h0v.052h0v.052h0v.052h0v.052h0v.052h0v.052h-.052v.052h0l-.052.052h-.052v.052h-.1v.052h-.1" transform="translate(-29.527 -21.483)"/>
    <line id="Line_93" data-name="Line 93" class="cls-1" y1="0.258" transform="translate(32.677 24.998)"/>
    <line id="Line_94" data-name="Line 94" class="cls-1" y1="0.155" x2="0.567" transform="translate(30.409 25.513)"/>
    <line id="Line_95" data-name="Line 95" class="cls-1" y1="0.258" x2="1.392" transform="translate(31.286 25.255)"/>
    <line id="Line_96" data-name="Line 96" class="cls-1" x2="0.309" transform="translate(30.976 25.513)"/>
    <line id="Line_97" data-name="Line 97" class="cls-1" y1="0.052" x2="1.752" transform="translate(27.626 19.534)"/>
    <line id="Line_98" data-name="Line 98" class="cls-1" x1="0.825" y1="0.155" transform="translate(29.379 19.534)"/>
    <path id="Path_196" data-name="Path 196" class="cls-1" d="M97.564,101.452h-.052l-.052-.052h-.052v-.052h-.052V101.3h-.052v-.052h0v-.052h-.052v-.052h0l-.052-.052h0v-.052h0v-.052h-.052v-.052h0v-.052h0v-.052h0v-.052h0l-.052-.052h0v-.052h0v-.052h0v-.052h0v-.052h.052v-.052h0v-.052h0v-.052h0v-.052h0v-.052H97.2v-.052h0v-.052h0l.052-.052h0v-.052h.052v-.052h0v-.052h.052v-.052h0l.052-.052h.052V99.8h0l.052-.052h.052V99.7h0" transform="translate(-47.311 -48.571)"/>
    <path id="Path_197" data-name="Path 197" class="cls-1" d="M97.952,99.555h0V99.5h0v-.052H97.9V99.4h0" transform="translate(-47.699 -48.426)"/>
    <line id="Line_99" data-name="Line 99" class="cls-1" transform="translate(50.253 51.129)"/>
    <line id="Line_100" data-name="Line 100" class="cls-1" y1="0.309" x2="5.463" transform="translate(50.253 50.82)"/>
    <line id="Line_101" data-name="Line 101" class="cls-1" x1="0.206" transform="translate(55.459 54.428)"/>
    <path id="Path_198" data-name="Path 198" class="cls-1" d="M103.206,104.792h-1.031l-.052-.052h-.464l-.052-.052h-.258l-.052-.052h-.258l-.052-.052h-.206l-.052-.052h-.155l-.052-.052h-.155l-.052-.052h-.1l-.052-.052h-.1l-.052-.052h-.1l-.052-.052h-.1l-.052-.052h-.1l-.052-.052h-.1l-.052-.052h0l-.052-.052h-.1l-.052-.052h-.052l-.052-.052h-.1l-.052-.052h-.052v-.052h-.1l-.052-.052H98.67v-.052h-.1l-.052-.052h-.052l-.052-.052h0l-.052-.052h-.052l-.052-.052h-.052l-.052-.052H98.1l-.052-.052h0L98,103.4" transform="translate(-47.747 -50.364)"/>
    <path id="Path_199" data-name="Path 199" class="cls-1" d="M94.867,98.9v.052h-.052L94.764,99h-.052v.052h-.052v.052h-.052v.052h-.052v.052h0l-.052.052h0v.052h-.052v.052h0v.052H94.4v.052h0v.052h-.052v.052h0v.052h0v.052h0v.052H94.3v.052h0v.052h0v.052h0v.052h0v.052h0v.052h0v.052h0v.052h0v.052h0v.052h0l.052.052h0v.052h0v.052h0v.052H94.4v.052h0v.052h.052v.052h0v.052h.052v.052h.052v.052h0l.052.052h.052v.052h.052v.052h.052v.052h.052" transform="translate(-45.954 -48.183)"/>
    <line id="Line_102" data-name="Line 102" class="cls-1" x2="1.289" y2="0.258" transform="translate(48.913 50.717)"/>
    <path id="Path_200" data-name="Path 200" class="cls-1" d="M97.9,99.4h0l.052.052h0V99.5h0v.052h0" transform="translate(-47.699 -48.426)"/>
    <path id="Path_201" data-name="Path 201" class="cls-1" d="M108.552,99h0v-.052h0V98.9H108.5" transform="translate(-52.835 -48.183)"/>
    <line id="Line_103" data-name="Line 103" class="cls-1" x1="1.289" y1="0.258" transform="translate(54.376 50.459)"/>
    <path id="Path_202" data-name="Path 202" class="cls-1" d="M95.3,102.9l.052.052H95.4l.052.052h0l.052.052h.1l.052.052h0l.052.052h.052l.052.052h.052v.052h.1l.052.052h.052l.052.052h.052l.052.052h.052l.052.052h.052l.052.052h.1l.052.052h.052l.052.052h.052l.052.052h.1l.052.052h.1l.052.052h.1v.052h.155l.052.052h.1v.052h.155l.052.052h.155l.052.052h.155l.052.052h.206l.052.052h.052" transform="translate(-46.439 -50.122)"/>
    <path id="Path_203" data-name="Path 203" class="cls-1" d="M108.5,106.1h0" transform="translate(-52.835 -51.672)"/>
    <path id="Path_204" data-name="Path 204" class="cls-1" d="M108.5,106.052V106h.052" transform="translate(-52.835 -51.624)"/>
    <path id="Path_205" data-name="Path 205" class="cls-1" d="M106,98.4h0" transform="translate(-51.624 -47.941)"/>
    <path id="Path_206" data-name="Path 206" class="cls-1" d="M48,110.6h0v.052h.052l.052.052h.206v.052h.258" transform="translate(-23.518 -53.853)"/>
    <path id="Path_207" data-name="Path 207" class="cls-1" d="M52.8,110.906h.618v-.052h.515l.052-.052h.206v-.052h.1V110.7h0" transform="translate(-25.844 -53.901)"/>
    <path id="Path_208" data-name="Path 208" class="cls-1" d="M77.9,116.3h0v.052H78v.052h.155l.052.052h.309l.052.052h.515l.052.052H81.1l.052-.052h.412l.052-.052h.206V116.4h.1v-.052h0" transform="translate(-38.007 -56.615)"/>
    <path id="Path_209" data-name="Path 209" class="cls-1" d="M83.3,108.8h0" transform="translate(-40.624 -52.981)"/>
    <path id="Path_210" data-name="Path 210" class="cls-1" d="M80.4,108.7h0v.052h-.1v.052h.155v.052H81.9V108.8h.052v-.052h-.1" transform="translate(-39.17 -52.932)"/>
    <path id="Path_211" data-name="Path 211" class="cls-1" d="M80.4,108.8h-.1v-.052h.1V108.7h0" transform="translate(-39.17 -52.932)"/>
    <path id="Path_212" data-name="Path 212" class="cls-1" d="M81.943,108.8h.1v.052h-.052v.052H80.552v-.052H80.5" transform="translate(-39.267 -52.981)"/>
    <path id="Path_213" data-name="Path 213" class="cls-1" d="M80.7,108.9h.1v.052h1.134V108.9h.1" transform="translate(-39.364 -53.029)"/>
    <path id="Path_214" data-name="Path 214" class="cls-1" d="M80.5,108.8h0v.052h.1" transform="translate(-39.267 -52.981)"/>
    <path id="Path_215" data-name="Path 215" class="cls-1" d="M106,98.4h0" transform="translate(-51.624 -47.941)"/>
    <line id="Line_104" data-name="Line 104" class="cls-1" x1="0.464" transform="translate(52.624 54.222)"/>
    <line id="Line_105" data-name="Line 105" class="cls-1" y1="0.103" transform="translate(52.624 54.118)"/>
    <line id="Line_106" data-name="Line 106" class="cls-1" transform="translate(20.462 45.253)"/>
    <line id="Line_107" data-name="Line 107" class="cls-1" transform="translate(52.624 54.222)"/>
    <line id="Line_108" data-name="Line 108" class="cls-1" x1="0.258" y2="20.771" transform="translate(15.514 0.464)"/>
    <line id="Line_109" data-name="Line 109" class="cls-1" y1="20.771" x2="0.309" transform="translate(13.916 0.155)"/>
    <line id="Line_110" data-name="Line 110" class="cls-1" y2="0.103" transform="translate(13.504 24.946)"/>
    <line id="Line_111" data-name="Line 111" class="cls-1" x1="0.309" y2="0.052" transform="translate(13.504 24.998)"/>
    <line id="Line_112" data-name="Line 112" class="cls-1" x1="0.618" transform="translate(11.184 20.668)"/>
    <line id="Line_113" data-name="Line 113" class="cls-1" y1="0.103" transform="translate(10.36 20.513)"/>
    <line id="Line_114" data-name="Line 114" class="cls-1" x2="0.825" y2="0.155" transform="translate(10.36 20.513)"/>
    <line id="Line_115" data-name="Line 115" class="cls-1" x1="0.309" transform="translate(13.401 23.245)"/>
    <line id="Line_116" data-name="Line 116" class="cls-1" x1="0.309" transform="translate(13.916 24.379)"/>
    <line id="Line_117" data-name="Line 117" class="cls-1" x2="0.515" y2="1.134" transform="translate(13.401 23.245)"/>
    <line id="Line_118" data-name="Line 118" class="cls-1" y1="0.103" x2="0.103" transform="translate(13.298 23.245)"/>
    <line id="Line_119" data-name="Line 119" class="cls-1" x1="0.412" y2="0.67" transform="translate(13.504 24.379)"/>
    <line id="Line_120" data-name="Line 120" class="cls-1" x1="0.052" y2="3.814" transform="translate(13.916 17.112)"/>
    <path id="Path_216" data-name="Path 216" class="cls-1" d="M25,35.916v-.052h0v-.1h0V35.71h0v-.1h0v-.052h0V35.5l.052-.052h0v-.1h0V35.3h0v-.052h0v-.1H25.1v-.052h0V35.04h0v-.1h0l.052-.052h0v-.052h0v-.052h0l.052-.052h0v-.052h0v-.052h0l.052-.052h0v-.052h0v-.052h.052v-.052h0V34.37h.052v-.052h0v-.052h.052v-.052h0l.052-.052h0v-.052h.052v-.052h0l.052-.052h.052v-.052h0l.052-.052h.052v-.052h.052V33.8h.052l.052-.052h.052l.052-.052h.361" transform="translate(-12.372 -16.588)"/>
    <line id="Line_121" data-name="Line 121" class="cls-1" y1="1.392" transform="translate(11.906 19.173)"/>
    <line id="Line_122" data-name="Line 122" class="cls-1" x2="0.722" y2="0.155" transform="translate(11.906 19.173)"/>
    <line id="Line_123" data-name="Line 123" class="cls-1" x1="0.722" transform="translate(11.906 19.173)"/>
    <line id="Line_124" data-name="Line 124" class="cls-1" x1="2.268" y1="0.464" transform="translate(3.453 26.235)"/>
    <line id="Line_125" data-name="Line 125" class="cls-1" y1="20.617" x2="0.309" transform="translate(5.412 26.698)"/>
    <line id="Line_126" data-name="Line 126" class="cls-1" x2="2.216" y2="0.464" transform="translate(3.196 46.851)"/>
    <line id="Line_127" data-name="Line 127" class="cls-1" y1="20.617" x2="0.258" transform="translate(3.196 26.235)"/>
    <line id="Line_128" data-name="Line 128" class="cls-1" y1="20.617" x2="0.309" transform="translate(6.907 26.595)"/>
    <line id="Line_129" data-name="Line 129" class="cls-1" y1="0.103" x2="1.495" transform="translate(5.412 47.212)"/>
    <line id="Line_130" data-name="Line 130" class="cls-1" x1="0.206" y2="15.411" transform="translate(16.802 27.575)"/>
    <line id="Line_131" data-name="Line 131" class="cls-1" x1="0.825" y1="0.155" transform="translate(15.978 42.831)"/>
    <line id="Line_132" data-name="Line 132" class="cls-1" y1="15.153" x2="0.258" transform="translate(15.978 27.678)"/>
    <line id="Line_133" data-name="Line 133" class="cls-1" y1="15.359" x2="0.206" transform="translate(18.091 27.523)"/>
    <line id="Line_134" data-name="Line 134" class="cls-1" y1="0.103" x2="1.289" transform="translate(16.802 42.882)"/>
    <path id="Path_217" data-name="Path 217" class="cls-1" d="M52.3,110.4h0" transform="translate(-25.602 -53.756)"/>
    <path id="Path_218" data-name="Path 218" class="cls-1" d="M49.455,110.4h-.1l-.052.052h.052v.052h.309v.052h1.134V110.5H51v-.052h-.1V110.4h-.052" transform="translate(-24.148 -53.756)"/>
    <path id="Path_219" data-name="Path 219" class="cls-1" d="M50.992,110.5h0v.052h-.309v.052h-.618l-.052-.052h-.361L49.6,110.5h0" transform="translate(-24.293 -53.804)"/>
    <path id="Path_220" data-name="Path 220" class="cls-1" d="M51.858,109.2H51.6" transform="translate(-25.262 -53.175)"/>
    <path id="Path_221" data-name="Path 221" class="cls-1" d="M49.961,109.1h-.155v.052H49.6v.052h.155v.052H50.94V109.2h.052v-.052h-.1" transform="translate(-24.293 -53.126)"/>
    <path id="Path_222" data-name="Path 222" class="cls-1" d="M50.97,109.3H50.3" transform="translate(-24.632 -53.223)"/>
    <path id="Path_223" data-name="Path 223" class="cls-1" d="M47,118h0v.052h.155v.052h.258v.052h.412l.052.052H48.8l.052.052h.722l.052-.052h.825l.052-.052h.309V118.1h.1l.052-.052h0" transform="translate(-23.033 -57.439)"/>
    <path id="Path_224" data-name="Path 224" class="cls-1" d="M49.455,110.5h-.1v-.052h0V110.4h.1" transform="translate(-24.148 -53.756)"/>
    <path id="Path_225" data-name="Path 225" class="cls-1" d="M50.992,110.4h.052v.052h.1v.052H50.94v.052H49.806V110.5H49.6" transform="translate(-24.293 -53.756)"/>
    <path id="Path_226" data-name="Path 226" class="cls-1" d="M17,112.3h.052v.052h.1l.052.052h.206l.052.052h.464l.052.052h2.474l.052-.052h.309V112.4h.155v-.052h.052" transform="translate(-8.496 -54.677)"/>
    <path id="Path_227" data-name="Path 227" class="cls-1" d="M19.6,104.8h.258v.052H20.94V104.8h.206v-.052h-.052l-.052-.052h0" transform="translate(-9.756 -50.994)"/>
    <path id="Path_228" data-name="Path 228" class="cls-1" d="M19.5,104.7h-.1v.052h.052v.052H19.5" transform="translate(-9.659 -50.994)"/>
    <path id="Path_229" data-name="Path 229" class="cls-1" d="M19.6,104.8h.052l.052.052h.412v.052h.515l.052-.052h.309V104.8h.052" transform="translate(-9.756 -51.042)"/>
    <path id="Path_230" data-name="Path 230" class="cls-1" d="M20.946,104.7h0l.052.052h.052v.052h-.206v.052H19.761V104.8h-.309v-.052H19.4V104.7h.1" transform="translate(-9.659 -50.994)"/>
    <path id="Path_231" data-name="Path 231" class="cls-1" d="M22.4,104.7h0" transform="translate(-11.112 -50.994)"/>
    <path id="Path_232" data-name="Path 232" class="cls-1" d="M20.3,103.6h.722" transform="translate(-10.095 -50.461)"/>
    <path id="Path_233" data-name="Path 233" class="cls-1" d="M20.989,103.452h.052v.052h-.052v.052H19.855V103.5H19.7v-.052h.155V103.4h.155" transform="translate(-9.804 -50.364)"/>
    <path id="Path_234" data-name="Path 234" class="cls-1" d="M21.7,103.4h0v.052h.258" transform="translate(-10.773 -50.364)"/>
    <line id="Line_135" data-name="Line 135" class="cls-1" y1="0.258" x2="4.742" transform="translate(22.008 25.565)"/>
    <line id="Line_136" data-name="Line 136" class="cls-1" x1="4.896" y2="0.309" transform="translate(21.854 26.595)"/>
    <line id="Line_137" data-name="Line 137" class="cls-1" x1="6.855" y2="0.361" transform="translate(7.164 27.317)"/>
    <line id="Line_138" data-name="Line 138" class="cls-1" x1="0.052" y2="1.082" transform="translate(7.164 26.595)"/>
    <line id="Line_139" data-name="Line 139" class="cls-1" y1="1.031" transform="translate(26.75 25.565)"/>
    <line id="Line_140" data-name="Line 140" class="cls-1" x2="0.464" y2="1.031" transform="translate(5.721 25.41)"/>
    <line id="Line_141" data-name="Line 141" class="cls-1" y2="0.155" transform="translate(6.185 26.441)"/>
    <line id="Line_142" data-name="Line 142" class="cls-1" x1="0.567" y1="0.103" transform="translate(2.886 27.008)"/>
    <line id="Line_143" data-name="Line 143" class="cls-1" y1="5.979" x2="0.052" transform="translate(2.886 21.029)"/>
    <line id="Line_144" data-name="Line 144" class="cls-1" x2="0.773" y2="0.155" transform="translate(2.938 21.029)"/>
    <line id="Line_145" data-name="Line 145" class="cls-1" x2="1.546" y2="3.247" transform="translate(3.711 21.184)"/>
    <line id="Line_146" data-name="Line 146" class="cls-1" y1="0.67" x2="0.361" transform="translate(5.257 23.761)"/>
    <line id="Line_147" data-name="Line 147" class="cls-1" x2="0.464" y2="1.031" transform="translate(5.618 23.761)"/>
    <line id="Line_148" data-name="Line 148" class="cls-1" x1="0.361" y2="0.618" transform="translate(5.721 24.791)"/>
    <line id="Line_149" data-name="Line 149" class="cls-1" x1="9.381" y2="0.515" transform="translate(21.441 23.451)"/>
    <line id="Line_150" data-name="Line 150" class="cls-1" x1="0.206" transform="translate(14.225 24.328)"/>
    <line id="Line_151" data-name="Line 151" class="cls-1" x1="7.783" y2="0.412" transform="translate(6.082 24.379)"/>
    <line id="Line_152" data-name="Line 152" class="cls-1" y1="0.412" x2="7.783" transform="translate(5.618 23.348)"/>
    <line id="Line_153" data-name="Line 153" class="cls-1" x2="0.206" transform="translate(13.762 23.348)"/>
    <line id="Line_154" data-name="Line 154" class="cls-1" y1="0.515" x2="9.432" transform="translate(20.926 22.472)"/>
    <line id="Line_155" data-name="Line 155" class="cls-1" y1="0.361" x2="7.783" transform="translate(5.721 25.049)"/>
    <line id="Line_156" data-name="Line 156" class="cls-1" x2="0.206" transform="translate(13.813 24.998)"/>
    <line id="Line_157" data-name="Line 157" class="cls-1" y1="0.464" x2="8.71" transform="translate(21.699 24.121)"/>
    <line id="Line_158" data-name="Line 158" class="cls-1" x1="8.298" y2="0.464" transform="translate(6.185 26.131)"/>
    <line id="Line_159" data-name="Line 159" class="cls-1" transform="translate(3.453 27.111)"/>
    <line id="Line_160" data-name="Line 160" class="cls-1" x1="8.607" y2="0.464" transform="translate(19.07 19.689)"/>
    <line id="Line_161" data-name="Line 161" class="cls-1" x1="7.474" y2="0.412" transform="translate(2.938 20.617)"/>
    <line id="Line_162" data-name="Line 162" class="cls-1" y1="0.155" transform="translate(14.483 25.977)"/>
    <line id="Line_163" data-name="Line 163" class="cls-1" x1="0.464" y1="0.979" transform="translate(14.019 24.998)"/>
    <line id="Line_164" data-name="Line 164" class="cls-1" y1="0.67" x2="0.412" transform="translate(14.019 24.328)"/>
    <line id="Line_165" data-name="Line 165" class="cls-1" x1="0.464" y1="0.979" transform="translate(13.968 23.348)"/>
    <line id="Line_166" data-name="Line 166" class="cls-1" x1="1.237" y1="2.68" transform="translate(12.061 20.72)"/>
    <line id="Line_167" data-name="Line 167" class="cls-1" x2="1.443" y2="0.309" transform="translate(12.061 20.72)"/>
    <path id="Path_235" data-name="Path 235" class="cls-1" d="M26.7,41.3h.052v.052l.052.052.052.052v.052l.052.052h.052v.052l.052.052.052.052v.052l.052.052.052.052v.052h.052l.052.052v.052l.052.052.052.052v.052l.052.052v.052l.052.052.052.052h0l.052.052.052.052v.052l.052.052.052.052v.052l.052.052v.052l.052.052.052.052v.052l.052.052.052.052V43.1l.052.052v.052l.052.052.052.052" transform="translate(-13.196 -20.271)"/>
    <path id="Path_236" data-name="Path 236" class="cls-1" d="M29.5,45.2h0v.052h.052v.1H29.6v.052l.052.052h0v.052l.052.052h0v.052l.052.052h0l.052.052h0v.052l.052.052v.052h0l.052.052v.052h0l.052.052v.052h0l.052.052v.052h0l.052.052v.1h.052v.1h.052v.1l.052.052h0v.052l.052.052v.052h0V46.8l.052.052V46.9h0l.052.052v.1h.052v.155l.052.052h0v.052l.052.052v.052h0v.052l.052.052v.1h0" transform="translate(-14.553 -22.161)"/>
    <path id="Path_237" data-name="Path 237" class="cls-1" d="M31.358,49.9l.052.052h0V50h0v.052h0v.052h.052v.052h0v.052h0v.052h0v.052h0l.052.052h0v.052h0v.052h0v.052h0v.052h0v.052h0v.052h0v.052h0v.052h0v.052h0v.052h0v.052h0v.052h0v.052h0v.052h0v.052h0l-.052.052h0v.052h0v.052h0v.052h0v.052h-.052v.052h0V51.5h0v.052h-.052V51.6h0v.052h-.052V51.7h0v.052h-.052v.052H31.2v.052h0l-.052.052h0l-.052.052h0" transform="translate(-15.328 -24.439)"/>
    <path id="Path_238" data-name="Path 238" class="cls-1" d="M29.452,53.706H29.4v.052h-.1v.052h-.1v.052h-.206v.052h-.515v-.052h-.206v-.052h-.1v-.052h-.1v-.052h-.052l-.052-.052h-.052V53.6h-.052l-.052-.052h-.052V53.5H27.7" transform="translate(-13.681 -26.183)"/>
    <line id="Line_168" data-name="Line 168" class="cls-1" y1="1.031" transform="translate(14.019 26.286)"/>
    <line id="Line_169" data-name="Line 169" class="cls-1" x1="1.752" y2="0.052" transform="translate(19.019 22.73)"/>
    <line id="Line_170" data-name="Line 170" class="cls-1" x1="0.567" y2="0.052" transform="translate(14.947 22.987)"/>
    <path id="Path_239" data-name="Path 239" class="cls-1" d="M40.8,44.6h0l.052.052h0V44.7l.052.052h0l.052.052v.052h0l.052.052v.052h0l.052.052h0l.052.052v.052h0l.052.052v.052h0l.052.052v.052h0l.052.052v.1h.052v.1h.052v.1h.052v.1l.052.052h0v.052l.052.052v.052h0l.052.052v.1h.052V46.3h.052v.1l.052.052h0v.1l.052.052h0v.052l.052.052v.1h0l.052.052v.1l.052.052h0" transform="translate(-20.029 -21.87)"/>
    <line id="Line_171" data-name="Line 171" class="cls-1" x1="5.876" y2="0.309" transform="translate(16.029 25.152)"/>
    <path id="Path_240" data-name="Path 240" class="cls-1" d="M42.709,49.3v.052h0V49.4h0v.052h.052v.052h0v.052h0v.052h0l.052.052h0v.052h0v.052h0v.052h0v.052h0v.052h0v.052h0v.052h0v.052h0l.052.052h0v.052h0v.052h-.052v.052h0v.052h0v.052h0v.052h0v.052h0v.052h0v.052h0v.052h0l-.052.052h0v.052h0v.052h0v.052h-.052V50.9h0v.052h0L42.658,51h0v.052h0V51.1h-.052v.052h0l-.052.052h0v.052H42.5v.052h-.052v.052H42.4" transform="translate(-20.804 -24.148)"/>
    <line id="Line_172" data-name="Line 172" class="cls-1" x1="5.824" y2="0.309" transform="translate(15.772 27.214)"/>
    <path id="Path_241" data-name="Path 241" class="cls-1" d="M41.818,53.3h-.052v.052h-.1V53.4h-.1v.052h-.206v.052H41.2" transform="translate(-20.223 -26.086)"/>
    <line id="Line_173" data-name="Line 173" class="cls-1" x1="0.309" y2="0.052" transform="translate(19.07 20.668)"/>
    <line id="Line_174" data-name="Line 174" class="cls-1" x1="0.567" y2="0.052" transform="translate(13.504 20.977)"/>
    <path id="Path_242" data-name="Path 242" class="cls-1" d="M38.1,40.6v.052l.052.052v.052l.052.052.052.052v.052h.052l.052.052v.052l.052.052.052.052v.052l.052.052h.052v.052l.052.052.052.052v.052l.052.052.052.052v.052l.052.052.052.052h0l.052.052v.052l.052.052.052.052v.052l.052.052.052.052v.052l.052.052V42.2l.052.052.052.052v.052l.052.052.052.052v.052l.052.052v.052l.052.052" transform="translate(-18.72 -19.932)"/>
    <line id="Line_175" data-name="Line 175" class="cls-1" x2="0.309" y2="0.052" transform="translate(19.07 20.617)"/>
    <path id="Path_243" data-name="Path 243" class="cls-1" d="M108.552,98.9H108.5" transform="translate(-52.835 -48.183)"/>
    <path id="Path_244" data-name="Path 244" class="cls-1" d="M108.652,99.1H108.6" transform="translate(-52.884 -48.28)"/>
    <line id="Line_176" data-name="Line 176" class="cls-1" x2="21.338" y2="4.072" transform="translate(33.038 46.387)"/>
    <line id="Line_177" data-name="Line 177" class="cls-1" x1="0.052" y2="1.701" transform="translate(15.462 21.235)"/>
  </g>
</svg>
