<svg xmlns="http://www.w3.org/2000/svg" viewBox="1352.928 2002.5 275.474 401.158">
  <defs>
    <style>
      .cls-1 {
        fill: none;
        stroke: #dcdbdb;
      }
    </style>
  </defs>
  <g id="Group_213" data-name="Group 213" transform="translate(1353.44 2003.13)">
    <path id="Path_46" data-name="Path 46" class="cls-1" d="M66.8,134.58l24.8,1.36V133.9" transform="translate(84.07 168.087)"/>
    <line id="Line_1" data-name="Line 1" class="cls-1" x2="14.108" y2="0.453" transform="translate(214.13 302.214)"/>
    <line id="Line_2" data-name="Line 2" class="cls-1" x2="18.887" y2="0.68" transform="translate(195.926 301.307)"/>
    <path id="Path_47" data-name="Path 47" class="cls-1" d="M95.1,137.826a50.644,50.644,0,0,0,10.923-3.626" transform="translate(120.168 168.467)"/>
    <path id="Path_48" data-name="Path 48" class="cls-1" d="M93.1,138.866s3.186-5.666,11.15-5.666" transform="translate(117.617 167.201)"/>
    <line id="Line_3" data-name="Line 3" class="cls-1" x1="0.91" y2="70.706" transform="translate(87.154 313.091)"/>
    <path id="Path_49" data-name="Path 49" class="cls-1" d="M18.331,163.8s-4.779.68-5.234.906-2.276.906.228,1.133a78.913,78.913,0,0,0,10.24.227,20.094,20.094,0,0,0,3.186-.453" transform="translate(14.209 205.947)"/>
    <path id="Path_50" data-name="Path 50" class="cls-1" d="M12.152,164.5l-.228,7.025s-.455.906,1.593,1.133c2.276.227,7.509.453,10.468-.227s3.186-.227,3.413-2.266c0-1.813.228-5.665.228-5.665" transform="translate(14.017 206.833)"/>
    <path id="Path_51" data-name="Path 51" class="cls-1" d="M14.7,163.4l.228,1.586s-.228.906.683.906,2.048.453,2.048-1.133v-.68" transform="translate(17.613 205.44)"/>
    <path id="Path_52" data-name="Path 52" class="cls-1" d="M37.6,176.48s2.276,1.586,8.875,1.133c6.6-.68,8.647-.906,9.557-1.813" transform="translate(46.823 221.141)"/>
    <path id="Path_53" data-name="Path 53" class="cls-1" d="M37.624,170.406v14.051s-.455,1.586,1.593,1.813,7.282,1.133,12.06.227,4.779-1.36,4.779-3.853V169.5" transform="translate(46.799 213.164)"/>
    <path id="Path_54" data-name="Path 54" class="cls-1" d="M79.6,170.5s.228.68,4.551.906,10.24.453,12.06-.906" transform="translate(100.397 214.43)"/>
    <path id="Path_55" data-name="Path 55" class="cls-1" d="M79.5,166.513l.228,11.1s-.455,1.133,1.365,1.586,9.1,1.586,11.15,1.133c1.82-.453,4.324-.453,4.324-1.813s-.228-13.824-.228-13.824" transform="translate(100.269 207.086)"/>
    <path id="Path_56" data-name="Path 56" class="cls-1" d="M93.9,136.7a14.151,14.151,0,0,1,.228,2.493c0,1.36.91,44.418.91,44.418l.455,14.277" transform="translate(118.637 171.632)"/>
    <path id="Path_57" data-name="Path 57" class="cls-1" d="M85.213,133.7l.228,7.252s0,.907-3.413.227L81.8,133.7" transform="translate(103.203 167.834)"/>
    <line id="Line_4" data-name="Line 4" class="cls-1" x1="9.33" y2="0.68" transform="translate(175.673 308.559)"/>
    <path id="Path_58" data-name="Path 58" class="cls-1" d="M90.671,136.7l8.647.68-11.378.68-10.24-.453.228,2.04,9.785.68,11.378-.68.228-2.266" transform="translate(97.973 171.632)"/>
    <path id="Path_59" data-name="Path 59" class="cls-1" d="M43.6,137.242l18.2-.68s20.025-.453,25.031-.227,31.4,2.04,31.4,2.04l2.958.227" transform="translate(54.477 171.09)"/>
    <path id="Path_60" data-name="Path 60" class="cls-1" d="M41.2,135.4a10.059,10.059,0,0,0,3.868,0" transform="translate(51.415 169.986)"/>
    <path id="Path_61" data-name="Path 61" class="cls-1" d="M45.981,134.9s-.455.906,0,1.133.91-.227,1.138.227a3.842,3.842,0,0,1,.228,1.586v.453c0,.68.228,1.36-.228,1.586a16.866,16.866,0,0,1-2.731.453H41.43l-.455-.227s-.455-.453-.228-.906c0-.68.228-1.133,0-1.36s-.455-.906,0-1.133a3.394,3.394,0,0,1,1.365-.227c.228,0,0-1.586,0-1.586" transform="translate(50.503 169.353)"/>
    <path id="Path_62" data-name="Path 62" class="cls-1" d="M43.5,137.746l11.15-.453s2.276-.453,1.593-2.493" transform="translate(54.349 169.227)"/>
    <line id="Line_5" data-name="Line 5" class="cls-1" x2="3.186" transform="translate(87.837 308.786)"/>
    <line id="Line_6" data-name="Line 6" class="cls-1" y1="0.227" x2="3.186" transform="translate(87.837 307.199)"/>
    <path id="Path_63" data-name="Path 63" class="cls-1" d="M38.679,134.627v.907l-.91.227v1.586s.683.453-2.958.227v-1.586l-.91-.227V134.4" transform="translate(42.104 168.72)"/>
    <path id="Path_64" data-name="Path 64" class="cls-1" d="M46.116,135.7v4.079l-12.516.453V136.38" transform="translate(41.721 170.366)"/>
    <line id="Line_7" data-name="Line 7" class="cls-1" x1="7.964" y2="0.453" transform="translate(68.722 305.84)"/>
    <path id="Path_65" data-name="Path 65" class="cls-1" d="M41.978,135.5h1.365l6.6.453-12.516.68-6.6-.453-.228,3.853,2.276.453v-.906h1.593l.228.906h2.731" transform="translate(37.894 170.113)"/>
    <line id="Line_8" data-name="Line 8" class="cls-1" y1="0.453" x2="17.067" transform="translate(51.428 309.692)"/>
    <line id="Line_9" data-name="Line 9" class="cls-1" y1="1.36" x2="25.714" transform="translate(42.781 308.106)"/>
    <line id="Line_10" data-name="Line 10" class="cls-1" y1="5.892" x2="0.228" transform="translate(36.864 302.893)"/>
    <line id="Line_11" data-name="Line 11" class="cls-1" y1="5.666" transform="translate(33.906 302.893)"/>
    <path id="Path_66" data-name="Path 66" class="cls-1" d="M15,134.606s0-.906.455-.906H19.1a.668.668,0,0,1,.683.68v.906l-4.324.227C15.455,135.06,15,134.833,15,134.606Z" transform="translate(17.996 167.834)"/>
    <path id="Path_67" data-name="Path 67" class="cls-1" d="M7.8,136.714a5.65,5.65,0,0,1,2.048-.68,31.8,31.8,0,0,1,3.868-.227s.91-.227.91,1.133" transform="translate(8.812 170.485)"/>
    <path id="Path_68" data-name="Path 68" class="cls-1" d="M181.636,135.1s33.223,2.04,35.954,2.266a4.912,4.912,0,0,1,2.276.453,1.355,1.355,0,0,1,.683,1.36c0,.68.455,12.691.455,14.73,0,1.813.455,18.583,0,20.849s-2.731,9.518-3.413,11.784a54.464,54.464,0,0,0-1.82,9.518c-.455,2.946-1.593,2.719-1.593,2.719l-7.737,1.36-97.166,11.331s-19.57,2.493-26.169,2.72a49.664,49.664,0,0,1-12.288-1.133s-60.3-17.9-62.123-18.356-1.365-1.813-1.365-1.813,1.365-52.35,1.138-53.936c0-1.586.683-1.586.683-1.586l16.612,1.586,45.284,4.306s5.234.227,8.192.453h9.1s1.82-.453,1.82,1.133,0,3.4,4.324,3.173c4.551-.227,84.878-4.306,84.878-4.306l7.964-.453s2.048.453,2.276-2.946c0-.907.228-1.36,1.365-1.36s27.534-.68,27.534-.68,2.276-.227,1.138-.68" transform="translate(8.145 169.606)"/>
    <path id="Path_69" data-name="Path 69" class="cls-1" d="M58.876,107.7v.453l-1.593.227s-.455.227.228.227h1.365v4.532c.228,0,0,.453,0,.453H59.1v-.453l.228-.227c-.228-.227,0-4.306,0-4.306h1.593s.683-.227,0-.227H59.331v-.453" transform="translate(71.741 134.912)"/>
    <path id="Path_70" data-name="Path 70" class="cls-1" d="M57.6,106.8h1.82" transform="translate(72.335 133.772)"/>
    <path id="Path_71" data-name="Path 71" class="cls-1" d="M57.5,106.6h2.048" transform="translate(72.207 133.519)"/>
    <path id="Path_72" data-name="Path 72" class="cls-1" d="M57.4,105.1a9.087,9.087,0,0,0,2.5,0" transform="translate(72.079 131.62)"/>
    <path id="Path_73" data-name="Path 73" class="cls-1" d="M57.1,104.1a21.879,21.879,0,0,0,3.868,0" transform="translate(71.697 130.354)"/>
    <path id="Path_74" data-name="Path 74" class="cls-1" d="M59.206,70.3l.455,58.468a2.446,2.446,0,0,1-.683,1.586c-.683.453-4.779.907-4.779.907" transform="translate(67.998 87.556)"/>
    <path id="Path_75" data-name="Path 75" class="cls-1" d="M60.2,97.806s2.048-.227,2.5-.906" transform="translate(75.651 121.237)"/>
    <path id="Path_76" data-name="Path 76" class="cls-1" d="M67.523,96.3v.906c0,.227-.455.68-2.5.68-2.276,0-7.737-.227-8.42-1.133" transform="translate(71.059 120.477)"/>
    <path id="Path_77" data-name="Path 77" class="cls-1" d="M53.6,128.129,60.427,127l11.15.453L71.122,71.7" transform="translate(67.232 89.328)"/>
    <path id="Path_78" data-name="Path 78" class="cls-1" d="M54.5,97.453,61.782,97l5.461.453a62.634,62.634,0,0,1,0,6.572c-.228.906,0,3.853-3.186,3.853a11.389,11.389,0,0,1-2.958-.227" transform="translate(68.38 121.364)"/>
    <path id="Path_79" data-name="Path 79" class="cls-1" d="M55.483,97.883a3.809,3.809,0,0,1,4.1.68,3.2,3.2,0,0,1,1.138,2.493v6.119l3.413.227a5.761,5.761,0,0,1,0,2.04c0,.453-.683.453-.683.453H60.716a1.415,1.415,0,0,1-1.82-1.133,16.862,16.862,0,0,1-.683-4.532c0-1.36,0-4.532-.91-5.212s-1.593-1.36-2.5,0" transform="translate(68.763 122.067)"/>
    <path id="Path_80" data-name="Path 80" class="cls-1" d="M53.5,71.9l.455,55.749v1.133a25.066,25.066,0,0,0,2.5.68c0,.68.91.453.91.453.91,0,0,.227,0,.227a2.806,2.806,0,0,0-.455.68,5.935,5.935,0,0,0-1.138,2.04,11.437,11.437,0,0,0,.683,5.892c1.593,3.853,3.186,3.4,3.186,3.4,2.276,0,2.048-.227,2.048-.227v2.719a1.571,1.571,0,0,1,.683.906v1.133s0,.453.228.453v3.173a.5.5,0,0,1,.228.68V152.8a4.246,4.246,0,0,0,1.82,0c.228,0,0-.227,0-.907v-.906l-.228-.453c0-.227.228,0,.228-.906v-2.719s.228,0,.228-.68a7.983,7.983,0,0,1,.228-1.36c.228-.227.228-.227.228-.906v-2.04" transform="translate(67.105 89.582)"/>
    <path id="Path_81" data-name="Path 81" class="cls-1" d="M30.51,111.3s-.228,1.36.91,1.586" transform="translate(37.756 139.47)"/>
    <path id="Path_82" data-name="Path 82" class="cls-1" d="M34.3,111.9a4.749,4.749,0,0,0,1.82,0" transform="translate(42.614 140.23)"/>
    <path id="Path_83" data-name="Path 83" class="cls-1" d="M30.8,111.7s1.593.227,2.048.227H34.9a2.775,2.775,0,0,0-.455,2.04c0,1.133.455,8.612.455,8.612v2.04a4.594,4.594,0,0,1-.228,1.133" transform="translate(38.15 139.977)"/>
    <path id="Path_84" data-name="Path 84" class="cls-1" d="M34.3,111.42v1.36a.8.8,0,0,0,.455.227c.228,0,.455,2.719.455,2.719l.228-2.719.455-.227v-1.36" transform="translate(42.614 139.577)"/>
    <path id="Path_85" data-name="Path 85" class="cls-1" d="M30.7,111.3v1.133s.228.68.683.68a.83.83,0,0,1,.228.68v1.36h.228l.228-2.04s.683.227.683-.68V111.3" transform="translate(38.022 139.47)"/>
    <path id="Path_86" data-name="Path 86" class="cls-1" d="M30.7,112.186l15.246.227.228-1.813" transform="translate(38.022 138.584)"/>
    <path id="Path_87" data-name="Path 87" class="cls-1" d="M28.8,111.06a3.164,3.164,0,0,1,.91-1.133,15.131,15.131,0,0,1,3.413-.227c.228,0,12.516.227,12.516.227s.91.227,1.593.453a1.438,1.438,0,0,1,1.138,1.36c-.91,0-15.474-.227-15.474-.227" transform="translate(35.598 137.444)"/>
    <path id="Path_88" data-name="Path 88" class="cls-1" d="M28.6,110.574l4.1-.453s.683-.227.683.453v2.04l-4.551.227v-2.266Z" transform="translate(35.343 137.931)"/>
    <path id="Path_89" data-name="Path 89" class="cls-1" d="M32.8,125.724l3.413-.227c-.683,0-.91-.227-1.365-.906-.683-.453-.91-2.719-.91-2.719s-.455-7.705-.455-8.385c0-.906.683-1.133.683-1.36.228-.227.91-.227.91-.227h1.365" transform="translate(40.701 140.23)"/>
    <path id="Path_90" data-name="Path 90" class="cls-1" d="M31.728,112a3.126,3.126,0,0,1,.455,1.586v9.065a15.777,15.777,0,0,1-.683,2.719" transform="translate(39.042 140.357)"/>
    <path id="Path_91" data-name="Path 91" class="cls-1" d="M30.3,121.22v-2.493s0-.453.683-.68c.683,0,4.324-.227,4.324-.227s.91-.227.91.453v.907H39.4a.99.99,0,0,0,.228-.68v-.68h.683c.228,0,.228.227.228.68v2.04" transform="translate(37.512 147.681)"/>
    <line id="Line_12" data-name="Line 12" class="cls-1" y1="0.906" transform="translate(58.254 268.447)"/>
    <line id="Line_13" data-name="Line 13" class="cls-1" y2="1.133" transform="translate(50.517 268.447)"/>
    <line id="Line_14" data-name="Line 14" class="cls-1" y2="19.263" transform="translate(122.425 248.731)"/>
    <path id="Path_92" data-name="Path 92" class="cls-1" d="M50,110.953v1.133l5.006-.453V110.5" transform="translate(62.64 138.457)"/>
    <path id="Path_93" data-name="Path 93" class="cls-1" d="M58.4,115.5s.91,1.133.228,1.813" transform="translate(73.355 144.789)"/>
    <path id="Path_94" data-name="Path 94" class="cls-1" d="M56.1,113.7s1.593,1.36,0,2.493" transform="translate(70.421 142.509)"/>
    <path id="Path_95" data-name="Path 95" class="cls-1" d="M58.6,112.4a1.6,1.6,0,0,1,0,2.493" transform="translate(73.61 140.863)"/>
    <path id="Path_96" data-name="Path 96" class="cls-1" d="M60.2,114a1.565,1.565,0,0,1,0,2.266" transform="translate(75.651 142.889)"/>
    <ellipse id="Ellipse_7" data-name="Ellipse 7" class="cls-1" cx="2.503" cy="2.72" rx="2.503" ry="2.72" transform="translate(134.673 255.34) rotate(-0.806)"/>
    <ellipse id="Ellipse_8" data-name="Ellipse 8" class="cls-1" cx="1.365" cy="1.586" rx="1.365" ry="1.586" transform="translate(131.745 259.629) rotate(-0.478)"/>
    <path id="Path_97" data-name="Path 97" class="cls-1" d="M59.086,115.313a1.606,1.606,0,1,1-1.593-1.813A1.619,1.619,0,0,1,59.086,115.313Z" transform="translate(70.166 142.256)"/>
    <ellipse id="Ellipse_9" data-name="Ellipse 9" class="cls-1" cx="1.593" cy="1.813" rx="1.593" ry="1.813" transform="matrix(1, -0.011, 0.011, 1, 131.73, 252.815)"/>
    <ellipse id="Ellipse_10" data-name="Ellipse 10" class="cls-1" cx="1.593" cy="1.813" rx="1.593" ry="1.813" transform="matrix(1, -0.008, 0.008, 1, 135.385, 256.229)"/>
    <path id="Path_98" data-name="Path 98" class="cls-1" d="M64.031,112.686a1.381,1.381,0,1,1-1.365-1.586C63.576,111.1,64.031,111.78,64.031,112.686Z" transform="translate(77.054 139.217)"/>
    <path id="Path_99" data-name="Path 99" class="cls-1" d="M53.51,117.033c0,.68-.228,1.133-.455,1.133s-.455-.453-.455-1.133.228-1.133.455-1.133S53.51,116.58,53.51,117.033Z" transform="translate(65.957 145.295)"/>
    <path id="Path_100" data-name="Path 100" class="cls-1" d="M52.138,118.006c0,.453-.228,1.133-.455,1.133a1.012,1.012,0,0,1-.683-.907c0-.68.228-1.133.455-1.133C51.91,117.1,52.138,117.553,52.138,118.006Z" transform="translate(63.916 146.815)"/>
    <ellipse id="Ellipse_11" data-name="Ellipse 11" class="cls-1" cx="0.455" cy="1.133" rx="0.455" ry="1.133" transform="translate(114.217 254.391) rotate(-0.625)"/>
    <path id="Path_101" data-name="Path 101" class="cls-1" d="M53.31,113.806c0,.453-.228.906-.455.906s-.455-.453-.455-.906.228-.906.455-.906S53.083,113.353,53.31,113.806Z" transform="translate(65.702 141.496)"/>
    <path id="Path_102" data-name="Path 102" class="cls-1" d="M49.3,129.436V111.08h6.6v-.453l4.779-.227,23.211.453.228,18.81" transform="translate(61.747 138.331)"/>
    <line id="Line_15" data-name="Line 15" class="cls-1" y2="36.486" transform="translate(100.125 267.994)"/>
    <path id="Path_103" data-name="Path 103" class="cls-1" d="M228.056,151.333l-94.663,3.173-32.768,1.133L.5,149.294l.683-26.288a1.013,1.013,0,0,1,.91-.68l60.075-2.04,16.157-.68,22.3-.68H234.883l31.63-.227h2.276a2.537,2.537,0,0,1,1.82,1.36c.455,1.133,2.731,7.025,3.186,8.838s1.365,3.626,1.138,10.878a38.067,38.067,0,0,1-2.275,12.011c-.228.907-.683,2.946-2.5,3.173s-27.989,1.813-27.989,1.813H230.332a2.216,2.216,0,0,1-1.138-1.36,17.6,17.6,0,0,1-.683-2.04l-.91-4.079s-1.82-10.425-1.365-17.45c.228-3.4,1.365-11.558,1.365-11.558.228-.68.683-.906,1.365-1.133.91-.227,3.186-.453,3.186-.453" transform="translate(-0.5 148.84)"/>
    <path id="Path_104" data-name="Path 104" class="cls-1" d="M104.5,119.3s1.365,35.353,1.82,36.939" transform="translate(132.158 149.6)"/>
    <path id="Path_105" data-name="Path 105" class="cls-1" d="M100.6,119.706h7.964s8.192-.227,9.785-.227,22.756-.68,22.756-.68" transform="translate(127.184 148.967)"/>
    <path id="Path_106" data-name="Path 106" class="cls-1" d="M117.114,131.218a5.92,5.92,0,0,1-2.731,1.813c-1.593.227-4.324-.453-4.551-2.266s.228-3.852,1.138-4.759c.683-.907,2.731-2.719,4.324-2.266s3.186.907,3.186,2.493.228,2.493-.228,3.173" transform="translate(138.886 155.132)"/>
    <path id="Path_107" data-name="Path 107" class="cls-1" d="M110.153,141.2s-1.82-5.892-.91-8.838c1.138-2.946,2.5-5.439,3.868-6.572s6.144-4.306,10.24-3.4" transform="translate(137.883 153.309)"/>
    <path id="Path_108" data-name="Path 108" class="cls-1" d="M112.229,143.415s-4.779-6.345-5.006-10.651.455-9.292,3.186-10.651c2.958-1.586,6.372-2.493,10.468-.453l3.868,2.04s1.365.227.455,2.493c-1.138,2.04-3.641,7.705-4.324,8.612-.91.906-6.144,6.572-6.6,7.025C113.822,142.508,112.684,143.868,112.229,143.415Z" transform="translate(135.58 151.094)"/>
    <line id="Line_16" data-name="Line 16" class="cls-1" x2="0.228" y2="1.133" transform="translate(44.829 268.674)"/>
    <path id="Path_109" data-name="Path 109" class="cls-1" d="M76.5,113.669s10.923-3.173,19.57-.453" transform="translate(96.443 140.501)"/>
    <line id="Line_17" data-name="Line 17" class="cls-1" x2="18.204" y2="1.813" transform="translate(138.582 173.039)"/>
    <line id="Line_18" data-name="Line 18" class="cls-1" x2="19.342" y2="2.04" transform="translate(138.354 168.96)"/>
    <path id="Path_110" data-name="Path 110" class="cls-1" d="M65.3,179.045s.228-24.022.228-26.515c0-2.719,2.276-30.594,3.641-38.526.683-5.439,2.958-17.223,3.641-19.943C73.492,91.116,76,80.918,76,80.918L89.649,71.4l1.138,92.008s-.228,2.04.683,2.266,13.2,4.306,15.246,5.212c2.276.907,6.144,2.719,6.827,2.946.455.453.455.453.455,1.813,0,1.133.227,3.4.227,3.4" transform="translate(82.156 88.948)"/>
    <path id="Path_111" data-name="Path 111" class="cls-1" d="M88.5,121.306s.228-2.719,1.593-3.4A5.1,5.1,0,0,1,93.506,117c2.048,0,7.282.227,7.282.227a3.5,3.5,0,0,1,2.276,1.36,5.389,5.389,0,0,1,.91,2.719" transform="translate(111.749 146.688)"/>
    <path id="Path_112" data-name="Path 112" class="cls-1" d="M109.485,118.008s-1.593-1.36-6.144-1.813a71.721,71.721,0,0,0-10.24,0c-.91.227-5.916.68-6.144,1.36a9.146,9.146,0,0,0,0,2.493v2.266" transform="translate(109.652 145.453)"/>
    <path id="Path_113" data-name="Path 113" class="cls-1" d="M73.193,70.1l9.785,1.133,5.461.68a.981.981,0,0,1,.455.907,8.894,8.894,0,0,1-1.138.906l-2.5-.453L71.6,71.686" transform="translate(90.192 87.302)"/>
    <line id="Line_19" data-name="Line 19" class="cls-1" x2="13.426" y2="1.813" transform="translate(199.794 156.722)"/>
    <path id="Path_114" data-name="Path 114" class="cls-1" d="M99.191,65.8l6.827,8.838s2.048,1.813-.228,3.173-14.564,9.518-14.564,9.518a4.9,4.9,0,0,1-2.5.453c-1.138.68-4.324,2.946-4.324,2.946" transform="translate(106.52 81.858)"/>
    <path id="Path_115" data-name="Path 115" class="cls-1" d="M79,71.6l14.336,1.813s1.365,0,1.365.906-.228.907-.683,1.586c-.455.453-2.5,2.946-2.5,2.946s-.228,0-.228,2.719c0,2.493,1.138,57.109,1.138,57.109l.455,25.155s0,1.133.91,1.36c1.138.453,17.067,4.306,21.39,6.572s4.551,2.493,4.551,3.852v3.626" transform="translate(99.632 89.202)"/>
    <path id="Path_116" data-name="Path 116" class="cls-1" d="M88.186,67.6l3.641,4.079s1.365,1.133.228,1.813S85,78.251,85,78.251" transform="translate(107.285 84.137)"/>
    <line id="Line_20" data-name="Line 20" class="cls-1" x2="34.589" y2="4.532" transform="translate(165.206 152.19)"/>
    <line id="Line_21" data-name="Line 21" class="cls-1" x2="2.276" y2="2.719" transform="translate(182.045 134.967)"/>
    <path id="Path_117" data-name="Path 117" class="cls-1" d="M73.1,64.2l39.595,5.666s1.82.453,1.593,1.813" transform="translate(92.106 79.832)"/>
    <path id="Path_118" data-name="Path 118" class="cls-1" d="M71.2,59.9s35.044,4.986,36.181,5.666a14.364,14.364,0,0,1,6.144,4.079,13.682,13.682,0,0,1,2.958,6.572,6.485,6.485,0,0,1-.455,2.719L75.751,73.271" transform="translate(89.682 74.387)"/>
    <path id="Path_119" data-name="Path 119" class="cls-1" d="M70.2,58.5l32.768,5.212,4.1.68s1.82.227,3.868,3.626" transform="translate(88.407 72.614)"/>
    <path id="Path_120" data-name="Path 120" class="cls-1" d="M73.233,55.5S81.2,60.712,84.611,67.058s4.551,11.1,3.641,16.317-4.324,9.065-7.964,9.971A63.031,63.031,0,0,1,61.4,96.292" transform="translate(77.182 68.816)"/>
    <line id="Line_22" data-name="Line 22" class="cls-1" x2="59.392" y2="6.345" transform="translate(61.213 164.654)"/>
    <line id="Line_23" data-name="Line 23" class="cls-1" x2="59.165" y2="6.572" transform="translate(61.213 160.348)"/>
    <path id="Path_121" data-name="Path 121" class="cls-1" d="M54.01,74.432l-.91-.453a10.737,10.737,0,0,0,4.779-1.586c1.82-1.36,2.048-1.36,2.276-1.813a.906.906,0,0,1,1.138-.227c.455.227,7.054,2.719,11.15,3.173,1.138.227,1.138.453.228,1.133a3.273,3.273,0,0,1-.683.453" transform="translate(66.595 87.503)"/>
    <path id="Path_122" data-name="Path 122" class="cls-1" d="M45.5,69.2s6.144,3.626,7.964,4.306,7.509,3.173,10.012,3.4" transform="translate(56.9 86.163)"/>
    <path id="Path_123" data-name="Path 123" class="cls-1" d="M67.1,69.459,30.238,64.7l-1.138.907v.907l37.774,4.759" transform="translate(35.981 80.465)"/>
    <line id="Line_24" data-name="Line 24" class="cls-1" y1="0.453" x2="2.276" transform="translate(103.083 116.384)"/>
    <path id="Path_124" data-name="Path 124" class="cls-1" d="M53.338,1.48,52.2.8c.228,1.36,2.5,41.472,2.731,44.871.228,3.173,1.593,39.885,1.82,43.511S57.889,133.6,57.889,133.6" transform="translate(65.447 -0.446)"/>
    <path id="Path_125" data-name="Path 125" class="cls-1" d="M63.9,3.2" transform="translate(80.371 2.592)"/>
    <path id="Path_126" data-name="Path 126" class="cls-1" d="M63.739,78.193A30.709,30.709,0,0,0,57.14,68c-4.551-4.079-7.054-6.119-8.192-6.119H46.9V44.2" transform="translate(58.686 54.507)"/>
    <path id="Path_127" data-name="Path 127" class="cls-1" d="M46.251,60.158a1.064,1.064,0,0,1,1.138-.453,11,11,0,0,1,2.731,2.266,14.942,14.942,0,0,1,2.731,4.986c.455,1.586.91,2.946,1.138,3.626a3.037,3.037,0,0,1-.455,1.813,13.444,13.444,0,0,0-.683,1.586s-.455.453.228,1.36,2.5,3.853,2.5,3.853,1.365,1.586,0,2.493C54.216,82.821,50.8,85.54,50.8,85.54v1.813l-.455.227.228,3.173s3.868,3.173,10.24.453c2.958-1.133,5.689-5.439,6.372-8.612a25.926,25.926,0,0,0-1.593-15.41c-1.365-2.719-2.276-5.212-4.324-7.252,0,0-5.916-6.345-10.012-7.932,0,0-4.779,1.813-5.689,2.04A41.779,41.779,0,0,0,41.7,55.626" transform="translate(52.053 64.384)"/>
    <path id="Path_128" data-name="Path 128" class="cls-1" d="M43.434,124.733l-1.82-2.719s-.683-.68.455-1.133,1.138-.906,1.138-1.586c.228-1.36,1.593-9.971,1.593-9.971s0-1.133.91-1.133c.455-.227.683-1.586.91-2.719.455-1.36,2.276-6.119,4.779-6.345,1.365,0,1.593.227,1.82.453s.455.453.455-1.133,0-45.778-.228-47.591V20.94c0-1.36,0-10.2.228-11.1s.683-1.813,3.413-3.4C59.363,4.85,65.28,1.224,65.28,1.224S68.238.318,73.927.771,85.3,2.131,91.449,5.757c1.365.906,1.365,1.813,1.593,2.946,0,1.133,1.365,19.943,1.365,19.943l1.82,28.1s2.048,42.152,1.82,48.95c0,2.266.455,29.687.455,29.687s.228,1.36-1.593,2.493-6.372,4.986-6.372,4.986-4.551,1.586-11.15-2.719c0,0-7.054-5.212-8.42-6.119-1.138-.68-6.6-5.212-7.737-5.892" transform="translate(51.684 -0.644)"/>
    <path id="Path_129" data-name="Path 129" class="cls-1" d="M22.7,60.479s1.593-3.4,3.868-3.173,12.743,1.813,12.743,1.813l38.912,5.666" transform="translate(27.817 71.089)"/>
    <path id="Path_130" data-name="Path 130" class="cls-1" d="M22.3,52.4s3.641,1.133,5.689,7.705c.683,2.946.91,4.079.455,5.212s-.91,2.04-.91,2.04" transform="translate(27.307 64.89)"/>
    <line id="Line_25" data-name="Line 25" class="cls-1" x2="49.835" y2="7.932" transform="translate(43.236 113.211)"/>
    <path id="Path_131" data-name="Path 131" class="cls-1" d="M80.686,74.165s-49.607-6.8-52.11-7.025c-2.731-.227-2.5-.68-3.641-1.813-1.138-.906-3.186-3.853-4.551-6.119a6.062,6.062,0,0,1,0-4.759s1.82-2.266,4.324-2.04S34.719,54,34.719,54l41.87,6.345" transform="translate(24.218 64.881)"/>
    <line id="Line_26" data-name="Line 26" class="cls-1" x2="51.2" y2="7.025" transform="translate(56.889 138.593)"/>
    <line id="Line_27" data-name="Line 27" class="cls-1" x1="12.288" y2="13.371" transform="translate(38.002 137.006)"/>
    <path id="Path_132" data-name="Path 132" class="cls-1" d="M16.6,50.4,29.343,73.742a3.979,3.979,0,0,0,2.5,1.586c1.593.227,5.006.68,5.006.68" transform="translate(20.037 62.358)"/>
    <path id="Path_133" data-name="Path 133" class="cls-1" d="M25.5,59l2.958,5.212s.91.68-.455,1.813C26.868,67.158,23,71.238,23,71.238" transform="translate(28.2 73.247)"/>
    <path id="Path_134" data-name="Path 134" class="cls-1" d="M32.69,55.612,29.96,50.853h-.91s-1.82-.227-4.1-.453a6.638,6.638,0,0,0-3.186.68s-7.282,4.079-8.875,4.986S11.3,57.425,11.3,58.558a45.512,45.512,0,0,0,2.048,11.784c2.276,7.252,9.1,16.317,9.1,16.317a8.5,8.5,0,0,0,3.186,2.266c.91.227,2.5.453.228,2.719S17.216,99.8,17.216,99.8" transform="translate(13.276 62.358)"/>
    <path id="Path_135" data-name="Path 135" class="cls-1" d="M27.836,77.61s.228-2.04-.455-2.04l-9.557,9.518s.228.907-2.731,0A2.252,2.252,0,0,1,13.5,82.823V62.2" transform="translate(16.082 77.299)"/>
    <line id="Line_28" data-name="Line 28" class="cls-1" x1="9.33" y1="0.906" transform="translate(34.133 161.935)"/>
    <line id="Line_29" data-name="Line 29" class="cls-1" y1="124.415" x2="1.365" transform="translate(51.2 144.032)"/>
    <path id="Path_136" data-name="Path 136" class="cls-1" d="M19,188.883,20.365,82.824l.228-7.025s.455-3.853,2.048-5.666S26.964,65.6,26.964,65.6s1.82-1.813,3.186-1.36c1.593.227,7.054,1.133,7.054,1.133s1.138-.68,1.138,2.719c0,3.173-1.138,87.476-1.138,87.476l-.228,32.86-8.875.227Z" transform="translate(23.098 79.791)"/>
  </g>
</svg>
