<svg xmlns="http://www.w3.org/2000/svg" viewBox="0 0 215 260"><defs><style>.cls-1{fill:none;stroke:#dcdbdb;stroke-width:1.59px;}</style></defs><title>machine_</title><g id="Linework"><line class="cls-1" x1="65.11" y1="36.96" x2="75.23" y2="36.42"/><line class="cls-1" x1="75.23" y1="36.42" x2="80.08" y2="37.34"/><polyline class="cls-1" points="80.08 37.34 80.16 37.36 80.24 37.37 80.31 37.39 80.38 37.41 80.45 37.42 80.51 37.44 80.57 37.45 80.62 37.47 80.67 37.49 80.72 37.51 80.76 37.52 80.8 37.54 80.83 37.55 80.86 37.57 80.89 37.59 80.91 37.61 80.93 37.62 80.95 37.64 80.96 37.66 80.97 37.68 80.97 37.69 80.97 37.71 80.96 37.72 80.95 37.74 80.94 37.76 80.92 37.78 80.9 37.79 80.87 37.81 80.84 37.82 80.81 37.84 80.77 37.86 80.72 37.88 80.68 37.89 80.63 37.9 80.58 37.92 80.52 37.93 80.46 37.95 80.39 37.97 80.33 37.98 80.25 37.99 80.18 38.01 80.1 38.02 80.02 38.03 79.93 38.05 79.84 38.06 79.75 38.07 79.65 38.09 79.55 38.09 79.45 38.11 79.34 38.12 79.23 38.13 79.13 38.14 79.01 38.15 78.9 38.16 78.77 38.17 78.65 38.18 78.53 38.19 78.4 38.19 78.27 38.2 78.14 38.21 78.01 38.21 77.87 38.22 77.74 38.23 77.6 38.24 77.45 38.24 77.31 38.24 77.17 38.25 77.02 38.25 76.87 38.25 76.73 38.26 76.58 38.26 76.43 38.26 76.28 38.26 76.12 38.26 75.97 38.27 75.81 38.27 75.66 38.27 75.5 38.27 75.35 38.26 75.19 38.26 75.04 38.26 74.88 38.26 74.73 38.26 74.57 38.25 74.42 38.25 74.26 38.24 74.11 38.24 73.96 38.24 73.8 38.23 73.65 38.22 73.5 38.22 73.35 38.21 73.2 38.2 73.06 38.2 72.91 38.19 72.76 38.18 72.62 38.17 72.48 38.16 72.34 38.15 72.2 38.14 72.06 38.13 71.93 38.12 71.8 38.11 71.67 38.1 71.54 38.09 71.42 38.08 71.3 38.07 71.17 38.05 71.06 38.04 70.94 38.03 70.83 38.01 70.72 38 70.62 37.99 70.52 37.98 70.42 37.96 70.32 37.94 70.22 37.93 70.13 37.91 70.05 37.9 69.97 37.88"/><line class="cls-1" x1="69.96" y1="37.88" x2="65.11" y2="36.96"/><polyline class="cls-1" points="131.94 221.67 131.94 221.64 131.92 221.48 131.9 221.32 131.88 221.16 131.86 221 131.83 220.84 131.81 220.68 131.79 220.52 131.76 220.35 131.74 220.2 131.72 220.04 131.69 219.87 131.66 219.72 131.63 219.56 131.6 219.39 131.58 219.24 131.55 219.08 131.52 218.92 131.49 218.76 131.45 218.6 131.42 218.44 131.39 218.28 131.36 218.13 131.33 217.97 131.29 217.81 131.25 217.66 131.22 217.5 131.18 217.34 131.14 217.18 131.11 217.02 131.07 216.87 131.03 216.71 130.99 216.55 130.95 216.39 130.91 216.24 130.87 216.08 130.83 215.92 130.78 215.77 130.74 215.61 130.7 215.46 130.65 215.3 130.6 215.15 130.56 214.99 130.51 214.84 130.47 214.68 130.42 214.53 130.37 214.37 130.32 214.22 130.27 214.07 130.22 213.91 130.17 213.76 130.12 213.6 130.07 213.45 130.02 213.3 129.96 213.14 129.91 212.99 129.86 212.84 129.8 212.69 129.75 212.54 129.69 212.39 129.63 212.23 129.57 212.08 129.51 211.93 129.46 211.78 129.39 211.63 129.34 211.48 129.28 211.34 129.21 211.18 129.15 211.04 129.09 210.89 129.03 210.74 128.96 210.59 128.9 210.44 128.83 210.29 128.77 210.15 128.71 210 128.64 209.85 128.57 209.7 128.56 209.69"/><polyline class="cls-1" points="123.39 209.62 123.34 209.72 123.27 209.86 123.2 210.01 123.13 210.15 123.06 210.3 122.99 210.44 122.92 210.59 122.86 210.74 122.79 210.88 122.72 211.03 122.66 211.18 122.59 211.32 122.53 211.48 122.47 211.62 122.4 211.77 122.34 211.92 122.28 212.07 122.22 212.22 122.16 212.37 122.1 212.52 122.04 212.67 121.98 212.82 121.92 212.97 121.86 213.12 121.81 213.27 121.75 213.42 121.69 213.57 121.64 213.73 121.58 213.88 121.53 214.03 121.47 214.18 121.42 214.33 121.37 214.49 121.32 214.64 121.27 214.8 121.22 214.95 121.17 215.1 121.12 215.26 121.07 215.41 121.02 215.57 120.97 215.72 120.93 215.88 120.88 216.03 120.84 216.19 120.79 216.34 120.75 216.49 120.7 216.66 120.66 216.81 120.62 216.97 120.58 217.13 120.54 217.28 120.49 217.44 120.46 217.59 120.42 217.75 120.38 217.91 120.34 218.06 120.3 218.22 120.27 218.38 120.23 218.54 120.19 218.7 120.16 218.86 120.12 219.01 120.09 219.17 120.06 219.33 120.03 219.49 120 219.65 119.97 219.81 119.93 219.97 119.91 220.13 119.88 220.28 119.85 220.44 119.82 220.6 119.8 220.76 119.77 220.92 119.74 221.08 119.72 221.24 119.69 221.4 119.68 221.5"/><line class="cls-1" x1="128.13" y1="209.7" x2="128.15" y2="208.87"/><line class="cls-1" x1="123.82" y1="209.1" x2="123.82" y2="209.64"/><polyline class="cls-1" points="84.42 212.62 84.42 212.58 84.4 212.42 84.38 212.26 84.36 212.1 84.34 211.94 84.32 211.78 84.3 211.62 84.27 211.46 84.24 211.3 84.22 211.14 84.19 210.98 84.17 210.82 84.14 210.66 84.12 210.5 84.09 210.34 84.06 210.18 84.03 210.02 84 209.86 83.97 209.7 83.94 209.54 83.91 209.38 83.87 209.23 83.84 209.07 83.81 208.91 83.77 208.75 83.74 208.59 83.7 208.44 83.66 208.28 83.63 208.12 83.59 207.96 83.55 207.81 83.51 207.65 83.47 207.49 83.43 207.34 83.39 207.18 83.35 207.02 83.31 206.87 83.27 206.71 83.22 206.56 83.18 206.4 83.14 206.24 83.09 206.09 83.04 205.94 83 205.78 82.95 205.63 82.9 205.47 82.85 205.31 82.81 205.16 82.75 205 82.71 204.85 82.66 204.74"/><polyline class="cls-1" points="74.68 203.22 74.64 203.31 74.58 203.46 74.52 203.61 74.46 203.76 74.4 203.91 74.34 204.06 74.29 204.22 74.23 204.37 74.17 204.52 74.12 204.67 74.07 204.82 74.01 204.97 73.96 205.13 73.91 205.28 73.85 205.43 73.8 205.59 73.75 205.74 73.7 205.9 73.65 206.05 73.6 206.2 73.55 206.36 73.5 206.51 73.45 206.67 73.41 206.82 73.36 206.97 73.32 207.13 73.27 207.28 73.23 207.44 73.18 207.59 73.14 207.75 73.1 207.91 73.06 208.06 73.02 208.22 72.98 208.38 72.94 208.53 72.9 208.69 72.86 208.85 72.82 209.01 72.78 209.16 72.75 209.33 72.71 209.48 72.68 209.64 72.64 209.79 72.61 209.96 72.58 210.12 72.55 210.28 72.51 210.43 72.48 210.59 72.45 210.75 72.42 210.91 72.39 211.06 72.36 211.23 72.33 211.38 72.3 211.54 72.28 211.7 72.25 211.87 72.22 212.02 72.2 212.18 72.17 212.34 72.16 212.45"/><line class="cls-1" x1="118" y1="110.01" x2="119.21" y2="108.01"/><line class="cls-1" x1="181.45" y1="202.67" x2="185.65" y2="203.47"/><path class="cls-1" d="M193.13,192.77a.38.38,0,0,0-.3-.28"/><path class="cls-1" d="M193.13,192.79v0"/><polyline class="cls-1" points="192.95 203.72 192.96 203.64 192.99 203.53 193.01 203.42 193.04 203.31 193.06 203.2 193.08 203.1 193.1 203.01 193.11 202.95 193.13 202.86 193.14 202.8"/><polyline class="cls-1" points="193.14 202.8 193.16 202.68 193.17 202.63 193.19 202.55 193.2 202.46 193.22 202.37 193.24 202.28 193.25 202.17 193.27 202.07 193.29 201.96 193.3 201.85 193.32 201.75 193.34 201.64 193.35 201.53 193.37 201.41 193.38 201.31 193.4 201.19 193.41 201.08 193.42 200.96 193.44 200.85 193.45 200.74 193.47 200.62 193.47 200.5 193.49 200.39 193.5 200.27 193.5 200.16 193.52 200.04 193.53 199.92 193.54 199.8 193.55 199.69 193.56 199.57 193.56 199.45 193.57 199.33 193.57 199.21 193.58 199.1 193.59 198.98 193.59 198.86 193.6 198.74 193.6 198.62 193.6 198.5 193.61 198.39 193.61 198.26 193.61 198.15 193.61 198.03 193.61 197.91 193.62 197.79 193.61 197.67 193.61 197.55 193.61 197.43 193.61 197.31 193.61 197.2 193.61 197.08 193.6 196.96 193.6 196.84 193.59 196.72 193.59 196.6 193.58 196.48 193.57 196.36 193.57 196.24 193.56 196.13 193.56 196 193.55 195.88 193.54 195.77 193.53 195.65 193.52 195.53 193.5 195.41 193.5 195.29 193.48 195.18 193.47 195.06 193.46 194.94 193.45 194.82 193.43 194.7 193.42 194.58 193.41 194.47 193.39 194.35 193.37 194.23 193.35 194.11 193.34 194 193.32 193.88 193.31 193.76 193.29 193.64 193.26 193.53 193.25 193.41 193.23 193.3 193.21 193.18 193.18 193.06 193.16 192.95 193.14 192.83 193.13 192.79"/><line class="cls-1" x1="192.83" y1="192.49" x2="188.84" y2="191.73"/><polyline class="cls-1" points="108.98 211.31 108.98 211.27 108.96 211.11 108.94 210.95 108.92 210.79 108.89 210.63 108.87 210.47 108.85 210.31 108.83 210.15 108.8 209.99 108.78 209.83 108.76 209.71"/><polyline class="cls-1" points="97.42 207.55 97.38 207.69 97.34 207.85 97.3 208.01 97.27 208.17 97.24 208.32 97.2 208.49 97.17 208.65 97.13 208.8 97.1 208.96 97.07 209.12 97.04 209.28 97 209.44 96.98 209.59 96.95 209.75 96.92 209.91 96.89 210.07 96.86 210.23 96.83 210.39 96.81 210.55 96.78 210.71 96.76 210.87 96.73 211.03 96.72 211.13"/><polyline class="cls-1" points="156.5 220.36 156.49 220.33 156.47 220.17 156.46 220.01 156.43 219.85 156.41 219.69 156.39 219.53 156.37 219.36 156.35 219.21 156.32 219.04 156.3 218.88 156.27 218.73 156.25 218.56 156.22 218.4 156.19 218.25 156.16 218.08 156.14 217.92 156.1 217.77 156.07 217.61 156.05 217.45 156.01 217.29 155.98 217.13 155.95 216.97 155.91 216.81 155.88 216.66 155.85 216.5 155.81 216.34 155.78 216.18 155.74 216.02 155.7 215.87 155.67 215.71 155.63 215.55 155.59 215.39 155.55 215.24 155.51 215.08 155.47 214.93 155.43 214.77 155.38 214.61 155.34 214.46 155.3 214.3 155.25 214.15 155.21 213.99 155.16 213.83 155.12 213.68 155.07 213.52 155.02 213.37 154.98 213.22 154.93 213.06 154.88 212.91 154.83 212.75 154.78 212.6 154.73 212.44 154.68 212.29 154.63 212.14 154.57 211.99 154.52 211.83 154.47 211.68 154.41 211.53 154.36 211.38 154.3 211.22 154.25 211.07 154.19 210.92 154.13 210.77 154.07 210.62 154.01 210.47 153.95 210.32 153.89 210.17 153.84 210.02 153.77 209.87 153.71 209.72 153.65 209.58 153.59 209.43 153.52 209.28 153.46 209.13 153.39 208.98 153.33 208.83 153.26 208.69 153.19 208.54 153.13 208.39 153.12 208.38"/><polyline class="cls-1" points="147.94 208.31 147.9 208.4 147.83 208.55 147.76 208.69 147.69 208.84 147.62 208.99 147.55 209.13 147.48 209.28 147.41 209.43 147.35 209.57 147.28 209.72 147.22 209.87 147.15 210.01 147.09 210.16 147.03 210.31 146.96 210.46 146.9 210.61 146.84 210.75 146.78 210.91 146.71 211.06 146.65 211.21 146.59 211.36 146.54 211.51 146.48 211.66 146.42 211.81 146.37 211.96 146.31 212.11 146.25 212.26 146.2 212.41 146.14 212.57 146.09 212.72 146.03 212.87 145.98 213.02 145.93 213.18 145.88 213.33 145.82 213.49 145.78 213.64 145.72 213.79 145.68 213.95 145.63 214.1 145.58 214.25 145.53 214.41 145.48 214.56 145.44 214.72 145.39 214.87 145.35 215.03 145.31 215.18 145.26 215.34 145.22 215.5 145.18 215.66 145.13 215.81 145.09 215.97 145.05 216.13 145.01 216.28 144.98 216.44 144.94 216.59 144.9 216.75 144.86 216.91 144.82 217.06 144.79 217.22 144.75 217.38 144.72 217.54 144.68 217.7 144.65 217.86 144.62 218.01 144.59 218.18 144.55 218.34 144.52 218.5 144.49 218.65 144.47 218.81 144.43 218.97 144.41 219.13 144.38 219.29 144.35 219.45 144.33 219.61 144.3 219.77 144.27 219.93 144.25 220.09 144.24 220.19"/><line class="cls-1" x1="148.38" y1="207.79" x2="148.37" y2="208.33"/><line class="cls-1" x1="152.69" y1="208.39" x2="152.71" y2="207.56"/><line class="cls-1" x1="188.84" y1="191.73" x2="123.14" y2="179.21"/><line class="cls-1" x1="79.97" y1="109.34" x2="80.07" y2="101.62"/><line class="cls-1" x1="80.07" y1="101.62" x2="80.97" y2="37.7"/><line class="cls-1" x1="64.39" y1="89" x2="63.87" y2="89.03"/><line class="cls-1" x1="103.58" y1="211.01" x2="103.61" y2="209.04"/><line class="cls-1" x1="99.29" y1="208.98" x2="99.26" y2="210.96"/><line class="cls-1" x1="102.52" y1="209.02" x2="102.53" y2="208.53"/><line class="cls-1" x1="100.38" y1="208.12" x2="100.37" y2="209"/><polyline class="cls-1" points="107.38 222.98 107.38 222.95 107.36 222.79 107.34 222.63 107.32 222.47 107.3 222.31 107.28 222.15 107.25 221.99 107.23 221.83 107.2 221.67 107.18 221.51 107.16 221.35 107.13 221.19 107.11 221.03 107.08 220.87 107.05 220.71 107.02 220.55 106.99 220.39 106.96 220.23 106.93 220.07 106.9 219.92 106.87 219.75 106.83 219.6 106.8 219.44 106.77 219.28 106.73 219.12 106.7 218.97 106.66 218.81 106.63 218.65 106.59 218.49 106.55 218.34 106.51 218.18 106.47 218.02 106.43 217.87 106.39 217.71 106.35 217.55 106.31 217.4 106.27 217.23 106.23 217.08 106.18 216.92 106.14 216.77 106.1 216.61 106.05 216.46 106 216.3 105.96 216.15 105.91 215.99 105.86 215.84 105.81 215.68 105.76 215.53 105.72 215.38 105.67 215.22 105.62 215.07 105.56 214.91 105.51 214.76 105.46 214.61 105.41 214.46 105.35 214.3 105.3 214.15 105.24 214 105.19 213.85 105.13 213.7 105.07 213.54 105.02 213.39 104.96 213.24 104.9 213.1 104.84 212.94 104.78 212.8 104.72 212.65 104.66 212.49 104.59 212.35 104.53 212.2 104.47 212.05 104.41 211.9 104.34 211.75 104.28 211.6 104.21 211.46 104.15 211.31 104.08 211.17 104.01 211.01 104.01 211"/><polyline class="cls-1" points="98.83 210.93 98.78 211.03 98.71 211.17 98.64 211.32 98.57 211.46 98.5 211.61 98.44 211.75 98.37 211.9 98.3 212.05 98.24 212.19 98.17 212.34 98.1 212.49 98.04 212.64 97.97 212.79 97.91 212.93 97.85 213.08 97.78 213.23 97.72 213.38 97.66 213.53 97.6 213.68 97.54 213.83 97.48 213.98 97.42 214.13 97.36 214.28 97.3 214.43 97.25 214.59 97.19 214.73 97.14 214.89 97.08 215.04 97.02 215.19 96.97 215.34 96.92 215.5 96.87 215.65 96.81 215.8 96.76 215.96 96.71 216.11 96.66 216.26 96.61 216.42 96.56 216.57 96.51 216.72 96.46 216.88 96.41 217.03 96.37 217.19 96.32 217.34 96.28 217.5 96.23 217.66 96.19 217.81 96.14 217.97 96.1 218.12 96.06 218.28 96.02 218.44 95.98 218.59 95.94 218.75 95.9 218.91 95.86 219.06 95.82 219.22 95.78 219.38 95.74 219.54 95.71 219.69 95.67 219.85 95.64 220.01 95.6 220.17 95.57 220.33 95.54 220.48 95.51 220.64 95.47 220.8 95.44 220.96 95.41 221.12 95.38 221.28 95.35 221.44 95.32 221.6 95.29 221.76 95.26 221.91 95.24 222.07 95.21 222.23 95.19 222.4 95.16 222.56 95.14 222.71 95.12 222.81"/><polyline class="cls-1" points="59.87 213.93 59.86 213.9 59.84 213.74 59.82 213.57 59.8 213.41 59.78 213.25 59.76 213.09 59.73 212.93 59.71 212.77 59.69 212.61 59.66 212.45 59.64 212.29 59.61 212.13 59.59 211.97 59.56 211.81 59.53 211.65 59.5 211.49 59.47 211.34 59.44 211.17 59.41 211.01 59.38 210.86 59.35 210.7 59.31 210.54 59.28 210.38 59.25 210.22 59.21 210.06 59.18 209.91 59.15 209.75 59.1 209.59 59.07 209.44 59.03 209.28 59 209.12 58.95 208.97 58.91 208.8 58.88 208.65 58.84 208.49 58.79 208.34 58.75 208.18 58.71 208.02 58.67 207.87 58.62 207.71 58.58 207.56 58.53 207.4 58.48 207.25 58.44 207.09 58.39 206.94 58.34 206.78 58.3 206.63 58.25 206.48 58.2 206.32 58.15 206.16 58.1 206.01 58.05 205.86 58 205.71 57.94 205.55 57.89 205.4 57.83 205.25 57.78 205.1 57.72 204.95 57.67 204.79 57.61 204.65 57.55 204.49 57.5 204.34 57.44 204.19 57.38 204.04 57.32 203.89 57.26 203.74 57.2 203.59 57.14 203.44 57.08 203.29 57.01 203.14 56.95 202.99 56.88 202.85 56.83 202.7 56.76 202.55 56.69 202.4 56.63 202.25 56.56 202.11 56.49 201.96 56.49 201.95"/><polyline class="cls-1" points="51.31 201.88 51.26 201.97 51.2 202.11 51.13 202.26 51.05 202.41 50.98 202.55 50.92 202.7 50.85 202.85 50.78 202.99 50.72 203.14 50.65 203.28 50.58 203.43 50.52 203.58 50.46 203.73 50.39 203.88 50.33 204.03 50.26 204.18 50.2 204.32 50.14 204.48 50.08 204.62 50.02 204.78 49.96 204.92 49.9 205.07 49.84 205.22 49.78 205.38 49.73 205.53 49.67 205.68 49.62 205.83 49.56 205.98 49.51 206.13 49.45 206.29 49.4 206.44 49.35 206.59 49.29 206.75 49.24 206.9 49.19 207.05 49.14 207.21 49.09 207.36 49.05 207.51 48.99 207.67 48.94 207.82 48.9 207.98 48.85 208.13 48.81 208.29 48.76 208.44 48.72 208.6 48.67 208.75 48.62 208.91 48.58 209.06 48.54 209.22 48.5 209.38 48.46 209.53 48.42 209.69 48.38 209.85 48.34 210.01 48.3 210.16 48.26 210.32 48.23 210.48 48.19 210.64 48.16 210.79 48.12 210.95 48.09 211.11 48.05 211.27 48.02 211.43 47.98 211.59 47.95 211.74 47.92 211.9 47.89 212.06 47.86 212.22 47.83 212.38 47.8 212.54 47.77 212.7 47.75 212.86 47.72 213.01 47.69 213.18 47.67 213.34 47.64 213.5 47.62 213.66 47.6 213.76"/><line class="cls-1" x1="51.77" y1="199.92" x2="51.74" y2="201.9"/><line class="cls-1" x1="56.06" y1="201.96" x2="56.09" y2="199.98"/><line class="cls-1" x1="52.86" y1="199.06" x2="52.85" y2="199.94"/><line class="cls-1" x1="55.01" y1="199.97" x2="55.02" y2="199.47"/><line class="cls-1" x1="67.94" y1="121.78" x2="72.82" y2="121.52"/><line class="cls-1" x1="77.67" y1="121.26" x2="85.92" y2="120.82"/><line class="cls-1" x1="109.55" y1="209.86" x2="183.35" y2="205.92"/><line class="cls-1" x1="109.55" y1="209.86" x2="109.74" y2="195.94"/><line class="cls-1" x1="172.56" y1="192.59" x2="109.74" y2="195.94"/><line class="cls-1" x1="183.35" y1="205.92" x2="183.39" y2="203.04"/><line class="cls-1" x1="172.56" y1="192.59" x2="84.4" y2="175.79"/><line class="cls-1" x1="109.74" y1="195.94" x2="21.58" y2="179.14"/><line class="cls-1" x1="84.4" y1="175.79" x2="42.7" y2="178.02"/><line class="cls-1" x1="31.23" y1="178.63" x2="21.58" y2="179.14"/><line class="cls-1" x1="109.55" y1="209.86" x2="21.38" y2="193.06"/><line class="cls-1" x1="21.58" y1="179.14" x2="21.38" y2="193.06"/><polyline class="cls-1" points="119.68 221.5 119.68 221.51 119.68 221.53 119.69 221.55 119.69 221.57 119.71 221.59 119.73 221.6 119.75 221.62 119.78 221.64 119.81 221.66 119.85 221.67 119.89 221.69 119.94 221.71 119.98 221.72 120.03 221.74 120.09 221.76 120.15 221.78 120.22 221.8 120.28 221.81 120.35 221.83 120.43 221.85 120.51 221.86 120.59 221.88 120.68 221.89 120.76 221.91 120.86 221.93 120.96 221.94 121.06 221.96 121.16 221.97 121.26 221.98 121.38 222 121.49 222.01 121.6 222.03 121.72 222.04 121.84 222.05 121.96 222.07 122.09 222.08 122.22 222.09 122.35 222.1 122.49 222.11 122.62 222.13 122.76 222.14 122.9 222.15 123.04 222.16 123.19 222.17 123.33 222.18 123.48 222.19 123.63 222.19 123.78 222.2 123.93 222.21 124.08 222.22 124.24 222.22 124.39 222.23 124.55 222.24 124.71 222.24 124.86 222.25 125.03 222.25 125.18 222.25 125.34 222.26 125.5 222.26 125.67 222.27 125.82 222.27 125.99 222.27 126.15 222.27 126.31 222.27 126.47 222.27 126.63 222.27 126.79 222.27 126.94 222.27 127.1 222.27 127.26 222.27 127.41 222.27 127.57 222.26 127.72 222.26 127.87 222.26 128.03 222.25 128.17 222.25 128.32 222.25 128.46 222.24 128.61 222.23 128.75 222.22 128.89 222.22 129.03 222.21 129.17 222.2 129.3 222.19 129.43 222.19 129.56 222.18 129.68 222.17 129.81 222.16 129.93 222.15 130.04 222.14 130.16 222.13 130.27 222.12 130.38 222.11 130.48 222.09 130.59 222.08 130.68 222.07 130.78 222.06 130.88 222.05 130.96 222.03 131.05 222.02 131.13 222 131.21 221.99 131.28 221.97 131.35 221.96 131.42 221.95 131.48 221.93 131.54 221.91 131.6 221.9 131.65 221.88 131.7 221.87 131.74 221.85 131.77 221.83 131.81 221.82 131.84 221.8 131.87 221.78 131.89 221.77 131.91 221.75 131.93 221.73 131.93 221.71 131.94 221.7 131.94 221.68 131.94 221.67"/><polyline class="cls-1" points="123.77 209.79 123.74 209.79 123.7 209.78 123.67 209.77 123.64 209.76 123.61 209.75 123.59 209.75 123.56 209.74 123.54 209.74 123.51 209.73 123.5 209.72 123.48 209.71 123.46 209.7 123.44 209.7 123.43 209.69 123.42 209.69 123.41 209.68 123.4 209.67 123.39 209.66 123.39 209.65 123.39 209.65 123.39 209.64 123.39 209.63 123.39 209.62 123.39 209.62 123.4 209.61 123.4 209.6 123.41 209.59 123.43 209.59 123.44 209.58 123.45 209.57 123.47 209.57 123.49 209.56 123.51 209.55 123.53 209.54 123.55 209.54 123.58 209.53 123.6 209.53 123.64 209.52 123.66 209.51 123.7 209.51 123.73 209.5 123.76 209.5 123.8 209.49 123.82 209.49"/><polyline class="cls-1" points="128.14 209.55 128.14 209.55 128.18 209.55 128.22 209.56 128.25 209.57 128.29 209.58 128.31 209.58 128.34 209.59 128.37 209.59 128.4 209.6 128.42 209.61 128.44 209.62 128.46 209.63 128.48 209.64 128.5 209.64 128.51 209.65 128.52 209.66 128.54 209.66 128.54 209.67 128.55 209.68 128.56 209.69 128.56 209.69 128.57 209.7 128.57 209.71 128.57 209.72 128.56 209.72 128.56 209.73 128.55 209.74 128.55 209.75 128.54 209.75 128.53 209.76 128.51 209.77 128.5 209.77 128.48 209.78 128.46 209.79 128.44 209.79 128.42 209.8 128.4 209.81 128.38 209.81 128.34 209.82 128.32 209.83 128.29 209.83 128.26 209.84 128.23 209.85 128.19 209.85 128.15 209.85 128.12 209.86 128.08 209.87 128.04 209.87 128 209.88 127.95 209.88 127.91 209.89 127.86 209.89 127.81 209.9 127.76 209.91 127.72 209.91 127.66 209.91 127.61 209.91 127.56 209.92 127.5 209.92 127.45 209.93 127.39 209.93 127.34 209.93 127.28 209.94 127.22 209.94 127.16 209.94 127.1 209.94 127.04 209.95 126.97 209.95 126.91 209.95 126.85 209.95 126.78 209.95 126.72 209.96 126.66 209.96 126.59 209.96 126.52 209.96 126.45 209.96 126.39 209.96 126.32 209.96 126.25 209.96 126.18 209.96 126.12 209.96 126.05 209.96 125.98 209.96 125.92 209.96 125.85 209.96 125.78 209.95 125.71 209.95 125.65 209.95 125.58 209.95 125.51 209.95 125.44 209.94 125.38 209.94 125.31 209.94 125.25 209.94 125.18 209.93 125.12 209.93 125.06 209.92 124.99 209.92 124.93 209.92 124.87 209.91 124.81 209.91 124.75 209.91 124.69 209.9 124.63 209.9 124.57 209.89 124.51 209.89 124.46 209.88 124.4 209.88 124.35 209.87 124.3 209.86 124.25 209.86 124.2 209.85 124.15 209.85 124.1 209.84 124.05 209.84 124.01 209.83 123.97 209.82 123.92 209.82 123.88 209.81 123.84 209.8 123.81 209.79 123.77 209.79"/><polyline class="cls-1" points="128.18 209.55 128.14 209.55 128.14 209.55"/><polyline class="cls-1" points="123.82 209.49 123.8 209.49 123.76 209.5 123.73 209.5 123.7 209.51 123.66 209.51 123.63 209.52 123.6 209.53 123.58 209.53 123.55 209.54 123.53 209.54 123.51 209.55 123.49 209.56 123.47 209.57 123.45 209.57 123.44 209.58 123.43 209.59 123.42 209.59 123.4 209.6 123.4 209.61 123.39 209.62 123.39 209.62 123.39 209.63 123.39 209.64 123.39 209.65 123.39 209.65 123.39 209.66 123.4 209.67 123.41 209.68 123.42 209.68 123.43 209.69 123.44 209.7 123.46 209.7 123.48 209.71 123.5 209.72 123.51 209.73 123.54 209.74 123.56 209.74 123.59 209.75 123.61 209.75 123.64 209.76 123.67 209.77 123.7 209.78 123.74 209.79 123.77 209.79 123.81 209.8 123.85 209.8 123.88 209.81 123.92 209.82 123.97 209.82 124.01 209.83 124.06 209.84 124.1 209.84 124.15 209.85 124.2 209.85 124.25 209.86 124.3 209.86 124.35 209.87 124.4 209.87 124.46 209.88 124.51 209.89 124.57 209.89 124.63 209.9 124.69 209.9 124.75 209.91 124.81 209.91 124.86 209.91 124.93 209.92 124.99 209.92 125.05 209.92 125.12 209.93 125.18 209.93 125.25 209.93 125.31 209.94 125.38 209.94 125.44 209.94 125.51 209.95 125.58 209.95 125.65 209.95 125.71 209.95 125.78 209.95 125.85 209.96 125.92 209.96 125.98 209.96 126.05 209.96 126.12 209.96 126.19 209.96 126.25 209.96 126.32 209.96 126.39 209.96 126.45 209.96 126.52 209.96 126.59 209.96 126.66 209.96 126.72 209.96 126.78 209.95 126.85 209.95 126.91 209.95 126.97 209.95 127.03 209.95 127.1 209.94 127.16 209.94 127.22 209.94 127.28 209.94 127.34 209.93 127.39 209.93 127.45 209.93 127.5 209.92 127.56 209.92 127.61 209.91 127.66 209.91 127.72 209.91 127.76 209.91 127.81 209.9 127.86 209.9 127.91 209.89 127.95 209.89 127.99 209.88 128.04 209.87 128.07 209.87 128.12 209.86 128.15 209.85 128.19 209.85 128.23 209.85 128.26 209.84 128.29 209.83 128.32 209.83 128.35 209.82 128.37 209.81 128.4 209.81 128.42 209.8 128.44 209.79 128.46 209.79 128.48 209.78 128.5 209.77 128.51 209.76 128.53 209.76 128.54 209.75 128.54 209.75 128.55 209.74 128.56 209.73 128.56 209.72 128.57 209.72 128.57 209.71 128.57 209.7 128.56 209.69 128.56 209.69 128.55 209.68 128.54 209.67 128.54 209.66 128.52 209.65 128.51 209.65 128.5 209.64 128.48 209.64 128.46 209.63 128.44 209.62 128.42 209.61 128.4 209.6 128.37 209.6 128.34 209.59 128.31 209.58 128.28 209.58 128.25 209.57 128.22 209.56 128.18 209.55"/><polyline class="cls-1" points="128.13 209.7 128.13 209.71 128.13 209.71 128.13 209.72 128.13 209.73 128.12 209.74 128.11 209.74 128.1 209.75 128.09 209.75 128.08 209.76 128.07 209.76 128.05 209.77 128.03 209.77 128.01 209.78 128 209.79 127.97 209.79 127.95 209.79 127.93 209.8 127.9 209.8 127.88 209.81 127.85 209.81 127.82 209.82 127.79 209.83 127.76 209.83 127.73 209.84 127.7 209.84 127.66 209.85 127.62 209.85 127.59 209.85 127.55 209.86 127.51 209.86 127.47 209.86 127.43 209.87 127.39 209.87 127.34 209.87 127.3 209.88 127.25 209.88 127.2 209.88 127.16 209.89 127.11 209.89 127.06 209.89 127.01 209.9 126.96 209.9 126.91 209.9 126.86 209.9 126.81 209.9 126.75 209.91 126.7 209.91 126.65 209.91 126.59 209.91 126.54 209.91 126.49 209.91 126.43 209.91 126.38 209.91 126.32 209.91 126.26 209.91 126.21 209.91 126.15 209.91 126.09 209.91 126.04 209.91 125.98 209.91 125.92 209.91 125.87 209.91 125.81 209.91 125.75 209.91 125.7 209.9 125.65 209.9 125.59 209.9 125.54 209.9 125.48 209.9 125.42 209.89 125.37 209.89 125.31 209.89 125.26 209.89 125.21 209.88 125.16 209.88 125.1 209.88 125.05 209.87 125 209.87 124.95 209.87 124.9 209.86 124.86 209.86 124.81 209.85 124.76 209.85 124.71 209.85 124.67 209.84 124.62 209.84 124.58 209.84 124.54 209.83 124.5 209.83 124.45 209.82 124.41 209.81 124.38 209.81 124.33 209.8 124.3 209.8 124.27 209.79 124.23 209.79 124.2 209.78 124.17 209.78 124.14 209.77 124.11 209.77 124.08 209.76 124.05 209.75 124.03 209.75 124.01 209.75 123.98 209.74 123.97 209.73 123.94 209.72 123.92 209.72 123.91 209.71 123.89 209.7 123.88 209.7 123.86 209.69 123.85 209.69 123.84 209.68 123.84 209.68 123.83 209.67 123.82 209.66 123.82 209.66 123.82 209.65 123.81 209.65"/><polyline class="cls-1" points="72.16 212.45 72.16 212.46 72.16 212.48 72.17 212.49 72.18 212.51 72.2 212.53 72.22 212.55 72.24 212.56 72.27 212.58 72.3 212.6 72.33 212.62 72.38 212.64 72.42 212.65 72.47 212.67 72.52 212.69 72.57 212.7 72.63 212.72 72.69 212.74 72.76 212.75 72.84 212.77 72.91 212.79 72.99 212.81 73.07 212.82 73.16 212.84 73.25 212.85 73.34 212.87 73.44 212.88 73.54 212.9 73.64 212.91 73.75 212.93 73.86 212.94 73.97 212.96 74.08 212.97 74.2 212.98 74.32 213 74.44 213.01 74.57 213.02 74.7 213.03 74.83 213.05 74.97 213.06 75.1 213.07 75.24 213.08 75.38 213.09 75.52 213.1 75.67 213.11 75.81 213.12 75.96 213.13 76.11 213.14 76.26 213.14 76.41 213.15 76.57 213.16 76.72 213.17 76.88 213.18 77.03 213.18 77.19 213.18 77.35 213.19 77.51 213.19 77.67 213.2 77.83 213.2 77.99 213.2 78.15 213.21 78.31 213.21 78.47 213.21 78.63 213.22 78.79 213.22 78.95 213.22 79.11 213.22 79.27 213.22 79.43 213.22 79.59 213.22 79.74 213.21 79.9 213.21 80.05 213.21 80.2 213.2 80.36 213.2 80.5 213.19 80.66 213.19 80.8 213.18 80.95 213.18 81.09 213.18 81.23 213.17 81.37 213.16 81.51 213.16 81.65 213.15 81.78 213.14 81.91 213.13 82.04 213.12 82.16 213.11 82.28 213.1 82.41 213.09 82.53 213.08 82.64 213.07 82.75 213.06 82.86 213.05 82.97 213.04 83.07 213.03 83.17 213.01 83.26 213 83.35 212.99 83.44 212.97 83.53 212.96 83.61 212.95 83.69 212.93 83.77 212.92 83.83 212.91 83.9 212.89 83.97 212.87 84.02 212.86 84.08 212.84 84.13 212.83 84.17 212.81 84.22 212.8 84.26 212.78 84.3 212.76 84.33 212.75 84.35 212.73 84.38 212.71 84.39 212.69 84.41 212.68 84.42 212.66 84.42 212.65 84.42 212.62 84.42 212.62"/><polyline class="cls-1" points="103.05 168.44 103.05 168.46 103.05 168.49 103.05 168.5 103.05 168.52 103.05 168.54 103.05 168.56 103.06 168.58 103.06 168.6 103.06 168.62 103.07 168.64 103.07 168.66 103.08 168.68 103.08 168.7 103.09 168.71 103.09 168.73 103.09 168.75 103.1 168.76 103.1 168.78 103.11 168.8 103.12 168.81 103.13 168.82 103.13 168.84 103.14 168.85 103.15 168.87 103.16 168.88 103.17 168.89 103.18 168.9 103.19 168.91 103.19 168.92 103.2 168.93 103.21 168.94 103.22 168.95 103.23 168.96"/><polyline class="cls-1" points="103.23 168.96 103.38 169.06 103.53 169.17 103.68 169.27 103.83 169.37 103.97 169.48 104.12 169.59 104.27 169.7 104.42 169.8 104.57 169.91 104.71 170.01 104.86 170.13 105.01 170.24 105.16 170.35 105.3 170.46 105.45 170.57 105.6 170.69 105.74 170.8 105.89 170.91 106.04 171.03 106.18 171.14 106.33 171.26 106.47 171.38 106.62 171.5 106.77 171.61 106.91 171.73 107.06 171.85 107.2 171.97 107.35 172.09 107.5 172.22 107.64 172.34 107.78 172.46 107.93 172.58 108.08 172.71 108.22 172.83 108.37 172.96 108.51 173.08 108.65 173.21 108.8 173.34 108.94 173.46 109.09 173.6 109.23 173.72 109.37 173.85 109.52 173.98 109.66 174.12 109.8 174.25 109.94 174.38 110.09 174.51 110.23 174.65 110.37 174.78 110.52 174.92 110.66 175.06 110.8 175.19 110.94 175.33 111.08 175.47 111.22 175.6 111.37 175.75 111.51 175.88 111.65 176.03 111.79 176.17"/><line class="cls-1" x1="111.79" y1="176.17" x2="111.94" y2="176.67"/><line class="cls-1" x1="111.94" y1="176.67" x2="111.89" y2="180.57"/><line class="cls-1" x1="88.09" y1="176.04" x2="88.15" y2="172.14"/><line class="cls-1" x1="88.15" y1="172.14" x2="88.32" y2="171.69"/><polyline class="cls-1" points="88.32 171.69 88.47 171.6 88.62 171.51 88.77 171.42 88.92 171.34 89.07 171.25 89.23 171.16 89.38 171.07 89.53 170.99 89.68 170.9 89.83 170.81 89.99 170.73 90.14 170.65 90.3 170.57 90.45 170.49 90.6 170.41"/><polyline class="cls-1" points="90.6 170.41 90.61 169.91 90.62 169.41 90.64 168.91 90.66 168.41 90.67 167.91 90.69 167.41 90.71 166.91 90.73 166.41 90.75 165.91 90.77 165.41 90.8 164.92 90.82 164.42 90.84 163.92 90.87 163.43 90.9 162.93 90.93 162.44 90.96 161.94 90.99 161.44 91.02 160.95 91.05 160.45 91.09 159.96 91.12 159.47 91.15 158.97 91.19 158.48 91.23 157.99 91.27 157.49 91.31 157 91.35 156.51 91.39 156.02 91.43 155.53 91.48 155.04 91.52 154.55 91.57 154.06 91.61 153.58 91.67 153.09 91.72 152.6 91.77 152.11 91.81 151.63 91.87 151.14 91.92 150.66 91.98 150.17 92.03 149.69 92.08 149.21 92.14 148.72 92.2 148.24 92.26 147.76 92.32 147.28 92.39 146.79 92.45 146.31 92.51 145.84 92.57 145.35 92.64 144.88 92.71 144.4 92.78 143.93 92.84 143.45 92.91 142.98 92.98 142.5 93.06 142.03 93.13 141.55 93.2 141.08 93.28 140.61 93.36 140.14 93.43 139.66 93.5 139.19 93.58 138.72 93.67 138.26 93.75 137.79 93.83 137.32 93.91 136.86 93.99 136.39 94.08 135.93 94.16 135.46 94.25 135 94.34 134.54 94.43 134.08 94.52 133.62 94.61 133.16 94.7 132.7 94.79 132.24 94.89 131.78 94.98 131.33 95.08 130.87 95.18 130.42 95.27 129.96 95.37 129.51 95.47 129.06 95.57 128.6 95.67 128.16 95.78 127.71 95.88 127.26 95.98 126.81 96.09 126.36 96.19 125.92 96.3 125.47 96.41 125.03 96.52 124.59 96.63 124.15 96.74 123.7 96.85 123.27 96.97 122.82 97.08 122.39 97.19 121.95 97.31 121.52 97.43 121.08 97.54 120.64 97.66 120.21 97.78 119.78 97.9 119.35 98.03 118.92 98.09 118.67"/><line class="cls-1" x1="103.75" y1="118.37" x2="103.05" y2="168.44"/><polyline class="cls-1" points="114.47 168.36 114.63 168.46 114.77 168.56 114.92 168.67 115.07 168.77 115.22 168.88 115.37 168.99 115.51 169.09 115.66 169.2 115.81 169.31 115.95 169.42 116.11 169.53 116.25 169.64 116.4 169.75 116.54 169.86 116.69 169.97 116.84 170.08 116.99 170.2 117.13 170.31 117.28 170.43 117.43 170.54 117.57 170.66 117.72 170.78 117.86 170.89 118.01 171.01 118.16 171.13 118.3 171.25 118.45 171.37 118.59 171.49 118.74 171.61 118.88 171.74 119.03 171.86 119.17 171.98 119.32 172.11 119.46 172.23 119.61 172.36 119.75 172.48 119.9 172.61 120.04 172.74 120.18 172.87 120.33 172.99 120.47 173.13 120.61 173.25 120.76 173.39 120.9 173.52 121.05 173.65 121.19 173.78 121.33 173.91 121.47 174.05 121.61 174.19 121.76 174.32 121.9 174.46 122.04 174.59 122.18 174.73 122.33 174.87 122.47 175.01 122.61 175.14 122.75 175.29 122.89 175.43 123.03 175.56"/><line class="cls-1" x1="123.03" y1="175.57" x2="111.79" y2="176.17"/><line class="cls-1" x1="123.03" y1="175.57" x2="123.18" y2="176.07"/><line class="cls-1" x1="123.18" y1="176.07" x2="123.12" y2="180.47"/><line class="cls-1" x1="123.12" y1="180.46" x2="113.91" y2="180.96"/><line class="cls-1" x1="115.04" y1="114.49" x2="103.79" y2="115.1"/><line class="cls-1" x1="114.29" y1="167.85" x2="103.05" y2="168.44"/><line class="cls-1" x1="115.04" y1="114.49" x2="114.29" y2="167.85"/><polyline class="cls-1" points="114.29 167.85 114.29 167.86 114.29 167.89 114.29 167.91 114.3 167.92 114.3 167.94 114.3 167.97 114.3 167.98 114.31 168 114.31 168.02 114.31 168.04 114.32 168.06 114.32 168.07 114.32 168.09 114.33 168.11 114.33 168.13 114.34 168.14 114.34 168.16 114.35 168.18 114.36 168.19 114.36 168.21 114.37 168.22 114.38 168.24 114.38 168.25 114.39 168.27 114.4 168.28 114.41 168.29 114.42 168.3 114.43 168.31 114.44 168.32 114.44 168.34 114.45 168.34 114.47 168.35 114.47 168.36"/><line class="cls-1" x1="116.58" y1="113.63" x2="115.2" y2="110.68"/><line class="cls-1" x1="116.57" y1="114.48" x2="116.58" y2="113.63"/><line class="cls-1" x1="115.03" y1="114.76" x2="116.57" y2="114.48"/><line class="cls-1" x1="106.39" y1="96.79" x2="106.38" y2="97.09"/><line class="cls-1" x1="108.94" y1="97.27" x2="106.39" y2="96.79"/><line class="cls-1" x1="112.86" y1="105.68" x2="108.94" y2="97.27"/><line class="cls-1" x1="114.79" y1="105.21" x2="114.56" y2="105.59"/><line class="cls-1" x1="116.41" y1="108.68" x2="114.79" y2="105.2"/><line class="cls-1" x1="115.2" y1="110.68" x2="116.41" y2="108.68"/><line class="cls-1" x1="115.2" y1="110.68" x2="116.89" y2="110.59"/><polyline class="cls-1" points="116.89 110.59 116.94 110.59 116.99 110.58 117.04 110.58 117.08 110.57 117.13 110.56 117.18 110.55 117.22 110.54 117.27 110.53 117.31 110.52 117.36 110.5 117.4 110.49 117.44 110.48 117.48 110.46 117.52 110.44 117.56 110.42 117.6 110.4 117.63 110.38 117.67 110.36 117.7 110.33 117.74 110.31 117.77 110.28 117.8 110.26 117.83 110.23 117.86 110.2 117.89 110.17 117.91 110.14 117.94 110.11 117.96 110.08 117.98 110.05 118 110.01"/><line class="cls-1" x1="121.97" y1="113.34" x2="119.33" y2="107.69"/><line class="cls-1" x1="118.47" y1="105.84" x2="114.34" y2="96.99"/><line class="cls-1" x1="116.41" y1="108.68" x2="118.1" y2="108.59"/><line class="cls-1" x1="114.79" y1="105.21" x2="116.47" y2="105.11"/><polyline class="cls-1" points="116.48 105.11 116.53 105.11 116.58 105.11 116.63 105.11 116.68 105.11 116.73 105.11 116.78 105.12 116.84 105.12 116.89 105.13 116.94 105.14 117 105.15 117.05 105.16 117.11 105.17 117.16 105.18 117.21 105.19 117.27 105.21 117.32 105.22 117.38 105.24 117.43 105.26 117.48 105.27 117.54 105.3 117.59 105.31 117.64 105.34 117.7 105.36 117.75 105.38 117.81 105.41 117.86 105.43 117.91 105.47 117.96 105.49 118.01 105.52 118.06 105.55 118.11 105.58 118.16 105.61 118.21 105.64 118.26 105.68 118.31 105.71 118.35 105.75 118.4 105.78 118.45 105.82 118.49 105.86 118.53 105.89 118.58 105.93 118.62 105.97 118.66 106.01 118.7 106.05 118.74 106.09 118.78 106.13 118.82 106.17 118.85 106.22 118.89 106.26 118.92 106.3 118.96 106.35 118.98 106.39 119.02 106.44 119.05 106.48 119.08 106.53 119.1 106.57 119.13 106.61 119.15 106.66 119.17 106.7 119.2 106.75 119.22 106.8 119.23 106.84 119.25 106.89 119.27 106.93 119.29 106.98 119.3 107.02 119.31 107.06 119.33 107.11 119.33 107.16 119.34 107.2 119.35 107.25 119.35 107.29 119.36 107.33 119.36 107.38 119.36 107.42 119.36 107.46 119.36 107.51 119.36 107.55 119.35 107.59 119.34 107.63 119.34 107.67 119.33 107.71 119.32 107.75 119.31 107.79 119.3 107.83 119.28 107.86 119.27 107.9 119.25 107.94 119.23 107.97 119.21 108 119.19 108.04 119.17 108.07 119.14 108.11 119.12 108.14 119.09 108.17 119.06 108.2 119.04 108.22 119.01 108.25 118.97 108.28 118.94 108.3 118.91 108.33 118.87 108.35 118.84 108.38 118.8 108.4 118.76 108.42 118.73 108.43 118.69 108.45 118.65 108.47 118.61 108.49 118.56 108.5 118.52 108.52 118.48 108.53 118.43 108.54 118.39 108.55 118.34 108.56 118.29 108.57 118.24 108.58 118.19 108.58 118.15 108.58 118.1 108.59"/><line class="cls-1" x1="121.96" y1="114.19" x2="121.97" y2="113.34"/><line class="cls-1" x1="115.02" y1="115.37" x2="116.82" y2="115.03"/><line class="cls-1" x1="117.72" y1="114.98" x2="121.96" y2="114.19"/><line class="cls-1" x1="116.82" y1="115.03" x2="117.72" y2="114.98"/><line class="cls-1" x1="106.39" y1="96.79" x2="111.79" y2="96.5"/><line class="cls-1" x1="114.34" y1="96.99" x2="111.79" y2="96.5"/><polyline class="cls-1" points="176.05 199.29 176.01 199.26 175.97 199.24 175.93 199.21 175.89 199.19 175.85 199.16 175.81 199.13 175.78 199.1 175.74 199.07 175.7 199.04 175.66 199 175.63 198.97 175.59 198.94 175.56 198.9 175.53 198.86 175.49 198.83 175.46 198.79 175.43 198.75 175.4 198.72 175.37 198.68 175.34 198.63 175.3 198.59 175.28 198.55 175.25 198.51 175.22 198.47 175.19 198.43 175.17 198.38 175.14 198.34 175.12 198.29 175.09 198.25 175.07 198.2 175.05 198.16 175.02 198.1 175 198.06 174.98 198.01 174.96 197.96 174.94 197.91 174.93 197.87 174.91 197.81 174.89 197.77 174.87 197.71 174.86 197.66 174.85 197.61 174.83 197.56 174.81 197.51 174.81 197.46 174.79 197.4 174.78 197.35 174.77 197.3 174.76 197.25 174.76 197.19 174.75 197.14 174.75 197.08 174.74 197.03 174.73 196.97 174.73 196.92 174.73 196.86 174.72 196.81 174.72 196.75 174.72 196.7 174.72 196.64 174.72 196.59 174.72 196.53 174.73 196.48 174.73 196.42 174.74 196.37 174.74 196.31 174.75 196.25 174.76 196.21 174.76 196.15 174.77 196.1 174.78 196.04 174.79 195.99 174.8 195.93 174.81 195.88 174.83 195.82 174.84 195.77 174.86 195.72 174.87 195.66 174.89 195.61 174.9 195.56 174.92 195.5 174.94 195.45 174.96 195.4 174.98 195.35 175 195.3 175.02 195.25 175.04 195.2 175.07 195.15 175.09 195.1 175.11 195.04 175.14 195 175.16 194.95 175.19 194.9 175.22 194.85 175.24 194.81 175.27 194.76 175.3 194.72 175.33 194.67 175.36 194.63 175.39 194.58 175.42 194.54 175.45 194.5 175.49 194.46 175.52 194.41 175.55 194.37 175.59 194.33 175.63 194.29 175.66 194.26 175.7 194.22 175.73 194.18 175.77 194.15 175.81 194.11 175.85 194.07 175.88 194.04 175.92 194 175.97 193.97 176 193.94 176.04 193.91 176.08 193.88 176.13 193.85"/><polyline class="cls-1" points="176.13 193.85 176.13 193.83 176.13 193.81 176.13 193.79 176.13 193.77 176.12 193.75 176.12 193.73 176.12 193.71 176.12 193.69 176.11 193.67 176.11 193.65 176.1 193.63 176.1 193.61 176.09 193.59 176.09 193.57 176.08 193.56 176.07 193.54 176.07 193.52 176.07 193.51 176.06 193.5 176.05 193.49 176.04 193.47 176.03 193.46 176.03 193.45 176.02 193.44 176 193.43 175.99 193.41 175.99 193.41 175.98 193.4 175.97 193.4 175.96 193.39 175.95 193.39 175.94 193.39 175.93 193.38"/><line class="cls-1" x1="176.13" y1="193.85" x2="176.13" y2="193.8"/><line class="cls-1" x1="176.13" y1="193.8" x2="192.96" y2="192.9"/><line class="cls-1" x1="192.72" y1="203.9" x2="192.12" y2="203.94"/><polyline class="cls-1" points="192.12 203.94 191.97 203.95 191.83 203.95 191.68 203.96 191.54 203.96 191.4 203.96 191.25 203.96 191.11 203.96 190.96 203.96 190.82 203.96 190.68 203.96 190.53 203.96 190.39 203.96 190.24 203.96 190.1 203.95 189.95 203.95 189.81 203.94 189.66 203.94 189.52 203.93 189.38 203.92 189.24 203.91 189.09 203.91 188.95 203.9 188.8 203.89 188.66 203.87 188.52 203.86 188.38 203.85 188.23 203.84 188.09 203.82 187.94 203.81 187.8 203.79 187.66 203.78 187.52 203.76 187.38 203.74 187.23 203.73 187.09 203.71 186.95 203.69 186.81 203.67 186.66 203.64 186.52 203.62 186.38 203.6 186.24 203.57 186.1 203.55 185.96 203.53 185.81 203.5 185.67 203.47 185.54 203.45 185.39 203.42 185.25 203.39 185.11 203.36 184.97 203.33 184.83 203.3 184.69 203.27 184.56 203.24 184.41 203.21 184.27 203.17 184.14 203.14 183.99 203.1 183.86 203.07 183.72 203.03 183.58 202.99 183.44 202.96 183.3 202.92 183.16 202.88 183.03 202.84 182.88 202.79 182.75 202.75 182.62 202.71 182.47 202.67 182.34 202.63 182.2 202.58 182.07 202.54 181.93 202.49 181.79 202.45 181.66 202.4 181.52 202.35 181.39 202.3 181.25 202.25 181.11 202.2 180.98 202.15 180.85 202.1 180.71 202.05 180.58 202 180.44 201.95 180.31 201.89 180.18 201.83 180.04 201.78 179.91 201.72 179.78 201.67 179.64 201.61 179.51 201.55 179.38 201.49 179.25 201.43 179.12 201.37 178.98 201.31 178.86 201.25 178.72 201.19 178.59 201.12 178.46 201.06 178.34 201 178.2 200.93 178.07 200.86 177.95 200.8 177.81 200.73 177.69 200.66 177.56 200.59 177.43 200.53 177.3 200.45 177.18 200.38 177.05 200.31 176.92 200.24 176.8 200.17 176.67 200.1 176.54 200.02 176.42 199.95 176.29 199.87 176.17 199.8 176.04 199.72"/><polyline class="cls-1" points="171.94 192.63 171.89 192.66 171.84 192.69 171.8 192.72 171.75 192.76 171.69 192.79 171.65 192.83 171.6 192.87 171.55 192.91 171.51 192.94 171.46 192.99 171.42 193.03 171.37 193.07 171.33 193.11 171.28 193.16 171.24 193.21 171.2 193.25 171.16 193.3 171.12 193.35 171.08 193.4 171.04 193.44 171 193.5 170.97 193.54 170.93 193.6 170.89 193.65 170.85 193.7 170.82 193.76 170.79 193.81 170.75 193.87 170.72 193.92 170.69 193.98 170.66 194.04 170.64 194.09 170.6 194.15 170.58 194.21 170.55 194.27 170.53 194.33 170.5 194.39 170.48 194.45 170.45 194.51 170.44 194.57 170.41 194.64 170.39 194.7 170.38 194.76 170.36 194.83 170.34 194.89 170.32 194.95 170.31 195.02 170.29 195.08 170.28 195.15 170.27 195.21 170.26 195.27 170.25 195.34 170.24 195.41 170.23 195.47 170.22 195.54 170.22 195.6 170.22 195.67 170.21 195.74 170.21 195.8 170.21 195.86 170.21 195.93 170.21 195.99 170.21 196.06 170.21 196.12 170.22 196.19 170.22 196.25 170.22 196.32 170.23 196.38 170.24 196.45 170.25 196.51 170.26 196.57 170.28 196.63 170.28 196.7 170.3 196.76 170.31 196.82 170.32 196.88 170.34 196.94 170.36 197.01 170.38 197.07 170.4 197.13 170.42 197.19 170.44 197.25 170.46 197.31 170.49 197.36 170.51 197.42 170.53 197.47 170.56 197.53 170.59 197.59 170.61 197.64 170.64 197.7 170.67 197.75 170.7 197.8 170.73 197.85 170.76 197.9 170.8 197.95 170.83 198 170.87 198.05 170.9 198.1 170.94 198.15 170.97 198.2 171.01 198.24 171.05 198.29 171.09 198.33 171.13 198.37 171.17 198.42 171.21 198.46 171.25 198.5 171.29 198.53 171.34 198.57 171.38 198.61 171.43 198.64 171.47 198.68 171.52 198.71 171.56 198.75 171.61 198.78 171.66 198.81 171.71 198.84 171.75 198.87 171.81 198.9 171.86 198.92"/><line class="cls-1" x1="171.94" y1="192.62" x2="175.93" y2="193.38"/><polyline class="cls-1" points="175.93 193.38 175.94 193.39 175.95 193.39 175.96 193.39 175.97 193.4 175.98 193.4 175.99 193.41 175.99 193.41 176 193.42 176.01 193.43 176.02 193.44 176.03 193.45 176.03 193.46 176.04 193.47 176.05 193.48 176.06 193.49 176.06 193.5 176.07 193.52 176.07 193.53 176.08 193.54 176.09 193.56 176.09 193.57 176.1 193.58 176.1 193.6 176.11 193.62 176.11 193.63 176.11 193.65 176.12 193.66 176.12 193.69 176.12 193.7 176.13 193.72 176.13 193.73 176.13 193.75 176.13 193.77 176.13 193.78 176.13 193.8"/><polyline class="cls-1" points="192.96 192.9 192.96 192.88 192.96 192.87 192.96 192.85 192.95 192.84 192.95 192.82 192.95 192.8 192.95 192.78 192.94 192.77 192.94 192.75 192.94 192.74 192.94 192.72 192.93 192.7 192.93 192.69 192.92 192.67 192.92 192.66 192.91 192.64 192.91 192.63 192.9 192.62 192.89 192.6 192.89 192.59 192.88 192.58 192.87 192.56 192.86 192.56 192.86 192.55 192.85 192.54 192.84 192.53 192.84 192.52 192.82 192.51 192.82 192.51 192.81 192.5 192.8 192.5 192.79 192.49 192.78 192.49 192.77 192.48 192.76 192.48"/><line class="cls-1" x1="192.76" y1="192.48" x2="188.77" y2="191.73"/><polyline class="cls-1" points="171.86 198.92 171.98 199 172.11 199.07 172.23 199.15 172.36 199.22 172.48 199.3 172.61 199.37 172.74 199.44 172.86 199.52 172.99 199.59 173.12 199.66 173.24 199.73 173.37 199.79 173.5 199.86 173.63 199.93 173.75 200 173.88 200.06 174.02 200.13 174.14 200.2 174.27 200.26 174.4 200.32 174.54 200.39 174.66 200.45 174.8 200.51 174.93 200.57 175.06 200.63 175.19 200.69 175.32 200.75 175.45 200.81 175.59 200.87 175.72 200.92 175.85 200.98 175.98 201.04 176.12 201.09 176.25 201.15 176.39 201.2 176.52 201.25 176.66 201.3 176.79 201.35 176.92 201.41 177.06 201.45 177.19 201.5 177.33 201.55 177.47 201.6 177.6 201.65 177.74 201.69 177.87 201.74 178.01 201.79 178.15 201.83 178.28 201.87 178.42 201.91 178.56 201.96 178.7 202 178.83 202.04 178.97 202.08 179.11 202.12 179.25 202.16 179.39 202.2 179.53 202.23 179.67 202.27 179.81 202.31 179.95 202.34 180.08 202.38 180.22 202.41 180.36 202.44 180.5 202.47 180.64 202.5 180.78 202.53 180.93 202.57 181.06 202.59 181.2 202.62 181.34 202.65 181.45 202.67"/><polyline class="cls-1" points="192.72 203.91 192.74 203.91 192.76 203.91 192.78 203.9 192.8 203.9"/><polyline class="cls-1" points="192.8 203.9 192.82 203.9 192.84 203.89 192.85 203.89 192.86 203.88 192.87 203.88 192.88 203.87 192.88 203.86 192.89 203.85 192.91 203.84 192.92 203.82 192.92 203.81 192.93 203.79 192.94 203.78 192.94 203.77"/><polyline class="cls-1" points="188.84 191.73 188.83 191.72 188.82 191.72 188.8 191.72 188.79 191.72 188.78 191.72"/><polyline class="cls-1" points="96.72 211.13 96.72 211.15 96.72 211.17 96.73 211.18 96.74 211.2 96.75 211.22 96.77 211.23 96.79 211.25 96.83 211.27 96.85 211.29 96.89 211.31 96.93 211.32 96.98 211.34 97.02 211.36 97.07 211.38 97.13 211.39 97.19 211.41 97.25 211.43 97.32 211.44 97.39 211.46 97.47 211.48 97.55 211.49 97.63 211.51 97.72 211.53 97.81 211.54 97.9 211.55 97.99 211.57 98.09 211.59 98.2 211.6 98.31 211.62 98.42 211.63 98.49 211.64"/><polyline class="cls-1" points="104.41 211.9 104.46 211.9 104.61 211.9 104.76 211.89 104.91 211.89 105.06 211.88 105.21 211.88 105.36 211.87 105.5 211.87 105.65 211.87 105.79 211.85 105.93 211.85 106.07 211.85 106.2 211.84 106.34 211.83 106.47 211.82 106.59 211.81 106.72 211.8 106.84 211.79 106.96 211.78 107.08 211.77 107.2 211.76 107.31 211.75 107.42 211.74 107.53 211.73 107.63 211.72 107.73 211.7 107.82 211.69 107.91 211.68 108 211.66 108.09 211.65 108.17 211.64 108.25 211.62 108.32 211.61 108.39 211.59 108.46 211.58 108.52 211.56 108.58 211.55 108.64 211.53 108.69 211.51 108.73 211.5 108.78 211.48 108.82 211.47 108.85 211.45 108.88 211.44 108.91 211.42 108.93 211.4 108.95 211.38 108.96 211.37 108.98 211.35 108.98 211.33 108.98 211.31 108.98 211.31"/><polyline class="cls-1" points="144.24 220.19 144.24 220.2 144.24 220.22 144.25 220.24 144.25 220.26 144.27 220.27 144.29 220.29 144.31 220.31 144.34 220.33 144.37 220.34 144.41 220.36 144.45 220.38 144.49 220.4 144.54 220.41 144.59 220.43 144.65 220.45 144.71 220.46 144.77 220.49 144.84 220.5 144.91 220.52 144.99 220.53 145.07 220.55 145.15 220.56 145.24 220.58 145.32 220.6 145.41 220.61 145.51 220.63 145.61 220.64 145.72 220.66 145.82 220.67 145.93 220.69 146.04 220.7 146.16 220.72 146.28 220.73 146.4 220.74 146.52 220.76 146.65 220.76 146.78 220.78 146.91 220.79 147.04 220.8 147.18 220.81 147.31 220.82 147.46 220.83 147.6 220.84 147.74 220.86 147.89 220.87 148.04 220.87 148.19 220.88 148.33 220.89 148.49 220.9 148.64 220.91 148.79 220.91 148.95 220.92 149.11 220.93 149.26 220.93 149.42 220.93 149.59 220.94 149.74 220.94 149.9 220.95 150.06 220.95 150.22 220.95 150.38 220.96 150.54 220.96 150.71 220.96 150.86 220.96 151.03 220.96 151.19 220.96 151.34 220.96 151.5 220.96 151.66 220.96 151.82 220.96 151.97 220.95 152.12 220.95 152.28 220.95 152.43 220.94 152.58 220.94 152.73 220.93 152.88 220.93 153.02 220.93 153.16 220.92 153.31 220.91 153.45 220.91 153.59 220.9 153.72 220.89 153.85 220.88 153.99 220.88 154.11 220.87 154.24 220.86 154.36 220.85 154.48 220.84 154.6 220.83 154.72 220.82 154.83 220.81 154.94 220.8 155.04 220.78 155.14 220.77 155.24 220.76 155.34 220.75 155.43 220.73 155.52 220.72 155.6 220.71 155.69 220.69 155.77 220.68 155.84 220.66 155.91 220.65 155.98 220.63 156.04 220.62 156.1 220.6 156.16 220.59 156.21 220.57 156.25 220.56 156.3 220.54 156.33 220.52 156.37 220.51 156.4 220.49 156.43 220.47 156.45 220.45 156.47 220.44 156.48 220.42 156.49 220.4 156.5 220.39 156.5 220.37 156.5 220.36"/><polyline class="cls-1" points="152.74 208.24 152.7 208.24 152.69 208.24"/><polyline class="cls-1" points="148.38 208.17 148.36 208.18 148.32 208.18 148.29 208.19 148.25 208.2 148.22 208.2 148.19 208.21 148.16 208.22 148.14 208.22 148.11 208.23 148.09 208.23 148.07 208.24 148.04 208.25 148.03 208.26 148.01 208.26 148 208.27 147.99 208.28 147.97 208.28 147.96 208.29 147.95 208.3 147.95 208.3 147.94 208.31 147.94 208.32 147.94 208.33 147.94 208.33 147.94 208.34 147.95 208.35 147.96 208.36 147.96 208.37 147.97 208.37 147.99 208.38 148 208.38 148.02 208.39 148.03 208.4 148.05 208.41 148.07 208.42 148.09 208.43 148.12 208.43 148.14 208.44 148.17 208.44 148.2 208.45 148.23 208.46 148.26 208.47 148.29 208.47 148.33 208.48 148.36 208.49 148.4 208.49 148.44 208.5 148.48 208.5 148.53 208.51 148.57 208.52 148.61 208.53 148.66 208.53 148.71 208.54 148.75 208.54 148.8 208.55 148.85 208.55 148.91 208.56 148.96 208.56 149.02 208.57 149.07 208.58 149.13 208.58 149.19 208.59 149.24 208.59 149.3 208.59 149.36 208.6 149.42 208.6 149.49 208.6 149.55 208.61 149.61 208.61 149.68 208.62 149.74 208.62 149.8 208.62 149.87 208.63 149.94 208.63 150 208.63 150.07 208.64 150.14 208.64 150.2 208.64 150.27 208.64 150.34 208.64 150.41 208.65 150.47 208.65 150.54 208.65 150.61 208.65 150.68 208.65 150.74 208.65 150.81 208.65 150.88 208.65 150.94 208.65 151.01 208.65 151.08 208.65 151.15 208.65 151.21 208.65 151.28 208.65 151.34 208.64 151.41 208.64 151.47 208.64 151.53 208.64 151.59 208.64 151.66 208.63 151.72 208.63 151.78 208.63 151.84 208.63 151.9 208.62 151.95 208.62 152.01 208.62 152.06 208.61 152.12 208.61 152.17 208.6 152.22 208.6 152.27 208.59 152.32 208.59 152.37 208.59 152.42 208.58 152.47 208.58 152.51 208.57 152.55 208.57 152.59 208.56 152.63 208.56 152.68 208.55 152.71 208.54 152.75 208.54 152.78 208.53 152.81 208.53 152.84 208.52 152.88 208.51 152.9 208.51 152.93 208.5 152.96 208.49 152.98 208.49 153 208.48 153.02 208.48 153.04 208.47 153.06 208.46 153.07 208.45 153.08 208.45 153.1 208.44 153.1 208.44 153.11 208.43 153.12 208.42 153.12 208.41 153.12 208.4 153.12 208.4 153.12 208.39 153.12 208.38 153.12 208.38 153.11 208.37 153.1 208.36 153.09 208.35 153.08 208.34 153.07 208.34 153.06 208.33 153.04 208.32 153.02 208.32 153 208.31 152.98 208.3 152.95 208.29 152.93 208.28 152.9 208.28 152.87 208.27 152.84 208.27 152.81 208.26 152.78 208.25 152.74 208.24"/><polyline class="cls-1" points="148.33 208.48 148.29 208.47 148.26 208.47 148.23 208.46 148.2 208.45 148.17 208.44 148.14 208.44 148.12 208.43 148.09 208.43 148.07 208.42 148.05 208.41 148.03 208.4 148.01 208.39 148 208.38 147.99 208.38 147.98 208.37 147.97 208.37 147.95 208.36 147.95 208.35 147.94 208.34 147.94 208.33 147.94 208.33 147.94 208.32 147.94 208.31 147.95 208.3 147.95 208.3 147.96 208.29 147.97 208.28 147.99 208.28 148 208.27 148.01 208.26 148.03 208.26 148.04 208.25 148.07 208.24 148.09 208.23 148.11 208.23 148.14 208.22 148.16 208.22 148.19 208.21 148.22 208.2 148.25 208.2 148.29 208.19 148.32 208.18 148.36 208.18 148.38 208.17"/><polyline class="cls-1" points="152.7 208.23 152.7 208.24 152.74 208.24 152.78 208.25 152.81 208.26 152.84 208.27 152.87 208.27 152.9 208.28 152.93 208.28 152.95 208.29 152.97 208.3 153 208.31 153.02 208.32 153.04 208.32 153.06 208.33 153.07 208.33 153.08 208.35 153.1 208.35 153.1 208.36 153.11 208.37 153.12 208.38 153.12 208.38 153.12 208.39 153.13 208.4 153.13 208.4 153.12 208.41 153.12 208.42 153.11 208.43 153.1 208.44 153.1 208.44 153.08 208.45 153.07 208.46 153.06 208.46 153.04 208.47 153.02 208.48 153 208.48 152.98 208.49 152.95 208.49 152.93 208.5 152.9 208.51 152.88 208.51 152.84 208.52 152.82 208.53 152.78 208.53 152.75 208.54 152.71 208.54 152.68 208.55 152.63 208.56 152.59 208.56 152.55 208.57 152.51 208.57 152.47 208.58 152.42 208.58 152.37 208.59 152.32 208.59 152.27 208.59 152.22 208.6 152.17 208.6 152.12 208.61 152.06 208.61 152.01 208.61 151.95 208.62 151.9 208.62 151.84 208.62 151.78 208.63 151.72 208.63 151.66 208.63 151.59 208.63 151.53 208.64 151.47 208.64 151.41 208.64 151.34 208.64 151.28 208.65 151.21 208.65 151.15 208.65 151.08 208.65 151.01 208.65 150.95 208.65 150.88 208.65 150.81 208.65 150.74 208.65 150.68 208.65 150.61 208.65 150.54 208.65 150.47 208.65 150.41 208.65 150.34 208.64 150.27 208.64 150.2 208.64 150.14 208.64 150.07 208.63 150 208.63 149.94 208.63 149.87 208.63 149.8 208.62 149.74 208.62 149.68 208.62 149.61 208.61 149.55 208.61 149.49 208.6 149.42 208.6 149.36 208.6 149.31 208.59 149.25 208.59 149.19 208.59 149.13 208.58 149.07 208.58 149.02 208.57 148.96 208.57 148.91 208.56 148.86 208.55 148.81 208.55 148.75 208.54 148.71 208.54 148.66 208.53 148.61 208.53 148.57 208.52 148.53 208.51 148.48 208.51 148.44 208.5 148.4 208.49 148.36 208.49 148.33 208.48"/><polyline class="cls-1" points="148.69 208.46 148.72 208.47 148.76 208.47 148.79 208.48 148.83 208.48 148.86 208.49 148.9 208.49 148.94 208.5 148.97 208.5 149.01 208.51 149.05 208.51 149.09 208.52 149.14 208.52 149.18 208.53 149.22 208.53 149.27 208.53 149.31 208.54 149.36 208.54 149.41 208.54 149.46 208.55 149.51 208.56 149.56 208.56 149.61 208.56 149.66 208.57 149.71 208.57 149.77 208.57 149.82 208.58 149.87 208.58 149.93 208.58 149.98 208.58 150.04 208.59 150.09 208.59 150.15 208.59 150.2 208.59 150.25 208.59 150.31 208.59 150.37 208.59 150.42 208.59 150.48 208.59 150.54 208.6 150.6 208.6 150.65 208.6 150.71 208.6 150.77 208.6 150.82 208.6 150.88 208.6 150.93 208.6 150.99 208.6 151.04 208.6 151.1 208.6 151.16 208.59 151.21 208.59 151.26 208.59 151.31 208.59 151.37 208.59 151.41 208.59 151.47 208.59 151.52 208.59 151.57 208.58 151.62 208.58 151.67 208.58 151.72 208.58 151.76 208.57 151.81 208.57 151.85 208.57 151.9 208.56 151.94 208.56 151.98 208.56 152.02 208.55 152.06 208.55 152.1 208.54 152.15 208.54 152.18 208.53 152.21 208.53 152.25 208.53 152.28 208.52 152.31 208.52 152.35 208.51 152.38 208.51 152.41 208.5 152.43 208.5 152.46 208.49 152.48 208.49 152.51 208.49 152.53 208.48 152.55 208.48 152.57 208.47 152.59 208.46 152.61 208.46 152.62 208.45 152.63 208.44 152.65 208.44 152.66 208.44 152.67 208.43 152.68 208.42 152.68 208.42 152.69 208.41 152.69 208.4 152.69 208.4 152.69 208.39"/><polyline class="cls-1" points="148.37 208.33 148.37 208.34 148.38 208.35 148.38 208.35 148.39 208.36 148.39 208.37 148.4 208.37 148.41 208.38 148.42 208.38 148.43 208.39 148.45 208.39 148.47 208.4 148.48 208.41 148.5 208.41 148.52 208.42 148.54 208.43 148.57 208.43 148.59 208.44 148.61 208.44 148.64 208.45 148.67 208.45 148.69 208.46"/><polyline class="cls-1" points="188.78 191.72 188.79 191.72 188.8 191.72 188.82 191.72 188.83 191.72 188.84 191.73"/><line class="cls-1" x1="184.79" y1="203.31" x2="183.38" y2="203.38"/><line class="cls-1" x1="183.38" y1="203.38" x2="183.39" y2="203.04"/><line class="cls-1" x1="69.96" y1="37.88" x2="69.07" y2="101.81"/><line class="cls-1" x1="64.22" y1="100.88" x2="65.11" y2="36.96"/><line class="cls-1" x1="62.94" y1="113.27" x2="63.03" y2="113.47"/><line class="cls-1" x1="63.93" y1="113.42" x2="63.03" y2="113.47"/><line class="cls-1" x1="57.67" y1="100.01" x2="55.87" y2="100.11"/><line class="cls-1" x1="53.31" y1="99.92" x2="53.32" y2="99.62"/><line class="cls-1" x1="53.32" y1="99.62" x2="55.87" y2="100.11"/><line class="cls-1" x1="63.52" y1="107.94" x2="62.62" y2="107.99"/><line class="cls-1" x1="65.14" y1="111.42" x2="64.24" y2="111.47"/><line class="cls-1" x1="62.62" y1="107.99" x2="64.24" y2="111.47"/><line class="cls-1" x1="62.38" y1="108.37" x2="62.62" y2="107.99"/><line class="cls-1" x1="64.24" y1="111.47" x2="63.03" y2="113.47"/><line class="cls-1" x1="64.38" y1="89.07" x2="64.22" y2="100.88"/><polyline class="cls-1" points="60.26 95.91 60.26 95.81 60.27 95.72 60.27 95.62 60.27 95.52 60.27 95.42 60.28 95.32 60.28 95.22 60.29 95.12 60.3 95.02 60.31 94.93 60.31 94.83 60.33 94.73 60.34 94.63 60.35 94.54 60.36 94.44 60.37 94.35 60.38 94.25 60.4 94.16 60.41 94.06 60.42 93.97 60.44 93.88 60.46 93.78 60.47 93.69 60.49 93.6 60.51 93.51 60.52 93.42 60.54 93.33 60.56 93.24 60.59 93.14 60.61 93.06 60.63 92.97 60.65 92.89 60.67 92.8 60.7 92.71 60.72 92.63 60.74 92.54 60.77 92.46 60.8 92.37 60.82 92.29 60.85 92.21 60.88 92.13 60.91 92.05 60.94 91.97 60.96 91.89 60.99 91.81 61.03 91.74 61.05 91.66 61.09 91.58 61.12 91.51 61.16 91.44 61.19 91.36 61.22 91.29 61.26 91.22 61.29 91.15 61.33 91.09 61.36 91.02 61.4 90.95 61.43 90.88 61.48 90.82 61.51 90.76 61.55 90.69 61.59 90.63 61.63 90.57 61.67 90.51 61.71 90.45 61.75 90.39 61.79 90.34 61.83 90.28 61.88 90.23 61.92 90.17 61.96 90.12 62 90.07 62.05 90.02 62.09 89.97 62.13 89.93 62.18 89.88 62.22 89.83 62.27 89.79 62.31 89.74 62.36 89.7 62.41 89.66 62.46 89.62 62.5 89.59 62.55 89.55 62.6 89.52 62.64 89.48 62.69 89.45 62.74 89.42 62.79 89.38 62.84 89.35 62.89 89.32 62.94 89.3 62.99 89.27 63.04 89.25 63.09 89.22 63.14 89.2 63.19 89.18 63.24 89.16 63.29 89.14 63.34 89.13 63.39 89.11 63.44 89.1 63.49 89.08 63.55 89.07 63.6 89.06 63.65 89.05 63.7 89.04 63.75 89.04 63.81 89.03 63.86 89.03 63.91 89.03 63.96 89.03 64.02 89.03 64.07 89.03 64.12 89.03 64.17 89.03 64.23 89.04 64.28 89.05 64.33 89.06 64.39 89.07"/><line class="cls-1" x1="57.98" y1="99.69" x2="58.04" y2="95.49"/><line class="cls-1" x1="58.04" y1="95.49" x2="60.26" y2="95.92"/><line class="cls-1" x1="60.28" y1="95.37" x2="58.04" y2="95.49"/><line class="cls-1" x1="38.99" y1="118.56" x2="32.08" y2="117.24"/><line class="cls-1" x1="38.1" y1="182.03" x2="38.98" y2="118.56"/><line class="cls-1" x1="31.2" y1="180.72" x2="38.1" y2="182.03"/><line class="cls-1" x1="31.2" y1="180.72" x2="32.08" y2="117.24"/><line class="cls-1" x1="42.64" y1="181.79" x2="43.53" y2="118.31"/><line class="cls-1" x1="38.1" y1="182.03" x2="42.65" y2="181.79"/><line class="cls-1" x1="73.73" y1="121.36" x2="73.07" y2="168.72"/><line class="cls-1" x1="73.07" y1="168.72" x2="70.64" y2="168.26"/><line class="cls-1" x1="70.64" y1="168.26" x2="71.29" y2="121.6"/><line class="cls-1" x1="77.01" y1="168.51" x2="77.67" y2="121.15"/><line class="cls-1" x1="73.07" y1="168.72" x2="77.01" y2="168.51"/><polyline class="cls-1" points="103.63 210.87 103.59 210.86 103.58 210.86"/><polyline class="cls-1" points="99.26 210.8 99.24 210.8 99.2 210.81 99.17 210.81 99.14 210.82 99.11 210.82 99.08 210.83 99.05 210.84 99.02 210.85 98.99 210.85 98.97 210.86 98.95 210.86 98.93 210.87 98.91 210.88 98.89 210.89 98.88 210.89 98.87 210.9 98.86 210.91 98.85 210.91 98.84 210.92 98.83 210.93 98.83 210.93 98.83 210.95 98.83 210.95 98.83 210.96 98.83 210.97 98.83 210.97 98.84 210.98 98.85 210.99 98.86 211 98.87 211 98.89 211.01 98.9 211.01 98.92 211.02 98.94 211.03 98.95 211.04 98.98 211.05 99 211.06 99.03 211.06 99.05 211.07 99.08 211.07 99.11 211.08 99.14 211.09 99.18 211.1 99.21 211.1 99.25 211.11 99.29 211.12 99.33 211.12 99.36 211.13 99.41 211.13 99.45 211.14 99.5 211.15 99.54 211.16 99.59 211.16 99.64 211.17 99.69 211.17 99.74 211.18 99.79 211.18 99.84 211.19 99.9 211.19 99.95 211.2 100.01 211.2 100.07 211.21 100.13 211.21 100.19 211.22 100.25 211.22 100.31 211.22 100.37 211.23 100.43 211.23 100.5 211.24 100.56 211.24 100.63 211.24 100.69 211.25 100.76 211.25 100.82 211.25 100.89 211.26 100.95 211.26 101.02 211.26 101.09 211.26 101.15 211.26 101.22 211.27 101.29 211.27 101.36 211.27 101.42 211.27 101.49 211.27 101.56 211.27 101.63 211.27 101.7 211.27 101.76 211.27 101.83 211.27 101.9 211.27 101.96 211.27 102.03 211.27 102.09 211.27 102.16 211.27 102.23 211.27 102.29 211.27 102.36 211.26 102.42 211.26 102.48 211.26 102.54 211.26 102.6 211.25 102.66 211.25 102.72 211.25 102.78 211.25 102.84 211.24 102.89 211.24 102.95 211.23 103 211.23 103.05 211.22 103.11 211.22 103.16 211.22 103.21 211.22 103.25 211.21 103.31 211.21 103.35 211.2 103.4 211.2 103.44 211.19 103.48 211.18 103.52 211.18 103.56 211.17 103.6 211.17 103.63 211.17 103.67 211.16 103.7 211.15 103.73 211.15 103.76 211.14 103.79 211.13 103.82 211.12 103.84 211.12 103.86 211.11 103.89 211.11 103.91 211.1 103.92 211.09 103.94 211.08 103.95 211.08 103.97 211.07 103.98 211.06 103.99 211.06 104 211.05 104 211.04 104.01 211.03 104.01 211.03 104.01 211.02 104.01 211.01 104.01 211 104 211 103.99 210.99 103.99 210.98 103.98 210.98 103.96 210.97 103.95 210.96 103.94 210.96 103.92 210.95 103.9 210.94 103.88 210.93 103.86 210.92 103.83 210.91 103.81 210.91 103.78 210.9 103.75 210.9 103.73 210.89 103.69 210.88 103.66 210.87 103.63 210.87"/><polyline class="cls-1" points="103.58 211.01 103.58 211.02 103.58 211.03 103.57 211.03 103.57 211.04 103.56 211.05 103.55 211.05 103.54 211.06 103.53 211.06 103.52 211.07 103.51 211.07 103.49 211.08 103.47 211.08 103.46 211.09 103.44 211.1 103.42 211.1 103.39 211.11 103.37 211.12 103.35 211.12 103.32 211.12 103.29 211.13 103.27 211.13 103.23 211.14 103.2 211.14 103.17 211.15 103.14 211.15 103.1 211.16 103.06 211.16 103.03 211.17 102.99 211.17 102.95 211.17 102.91 211.17 102.87 211.18 102.83 211.18 102.78 211.19 102.74 211.19 102.69 211.19 102.65 211.2 102.6 211.2 102.55 211.2 102.5 211.21 102.46 211.21 102.41 211.21 102.36 211.21 102.3 211.21 102.25 211.22 102.2 211.22 102.14 211.22 102.09 211.22 102.04 211.22 101.99 211.22 101.93 211.22 101.88 211.22 101.82 211.22 101.76 211.22 101.71 211.22 101.65 211.22 101.59 211.22 101.54 211.22 101.48 211.22 101.42 211.22 101.36 211.22 101.31 211.22 101.25 211.22 101.2 211.22 101.14 211.22 101.09 211.22 101.03 211.21 100.97 211.21 100.92 211.21 100.86 211.21 100.81 211.2 100.76 211.2 100.7 211.2 100.65 211.2 100.6 211.19 100.55 211.19 100.5 211.19 100.44 211.18 100.39 211.18 100.34 211.17 100.3 211.17 100.25 211.17 100.2 211.16 100.16 211.16 100.11 211.15 100.06 211.15 100.02 211.15 99.98 211.14 99.94 211.14 99.89 211.13 99.86 211.12 99.82 211.12 99.78 211.12 99.74 211.11 99.71 211.11 99.67 211.1 99.64 211.1 99.61 211.09 99.58 211.08 99.55 211.08 99.52 211.07 99.5 211.06 99.47 211.06 99.45 211.06 99.43 211.05 99.41 211.04 99.38 211.04 99.36 211.03 99.35 211.02 99.34 211.02 99.32 211.01 99.31 211 99.3 211 99.29 211 99.28 210.99 99.27 210.98 99.26 210.97 99.26 210.97 99.26 210.96 99.26 210.96"/><polyline class="cls-1" points="103.29 208.91 103.25 208.91 103.22 208.9 103.19 208.9 103.16 208.89 103.12 208.88 103.08 208.88 103.05 208.87 103.01 208.87 102.97 208.86 102.93 208.86 102.89 208.85 102.84 208.85 102.8 208.84 102.76 208.84 102.71 208.84 102.67 208.83 102.62 208.83 102.57 208.83 102.53 208.82"/><polyline class="cls-1" points="100.37 208.79 100.36 208.79 100.31 208.79 100.26 208.79 100.22 208.8 100.17 208.8 100.13 208.8 100.08 208.81 100.04 208.81 100 208.81 99.95 208.82 99.92 208.82 99.88 208.83 99.84 208.83 99.8 208.84 99.76 208.84 99.73 208.84 99.7 208.84 99.66 208.85 99.63 208.85 99.6 208.86 99.57 208.86 99.55 208.87 99.52 208.88 99.49 208.88 99.47 208.89 99.45 208.9 99.43 208.9 99.41 208.91 99.39 208.91 99.37 208.91 99.36 208.92 99.35 208.93 99.33 208.93 99.32 208.94 99.31 208.95 99.3 208.95 99.3 208.96 99.29 208.96 99.29 208.97 99.29 208.98 99.29 208.98 99.29 208.99 99.29 208.99 99.29 209 99.3 209.01 99.31 209.01 99.31 209.02 99.32 209.02 99.34 209.03 99.35 209.04 99.36 209.04 99.38 209.05 99.39 209.06 99.42 209.06 99.43 209.06 99.45 209.07 99.47 209.08 99.5 209.09 99.52 209.09 99.55 209.1 99.58 209.1 99.61 209.11 99.64 209.12 99.67 209.12 99.7 209.12 99.73 209.13 99.77 209.13 99.81 209.14 99.84 209.15 99.88 209.15 99.92 209.16 99.96 209.16 100 209.16 100.05 209.17 100.09 209.17 100.14 209.18 100.18 209.18 100.23 209.19 100.27 209.19 100.32 209.2 100.37 209.2 100.42 209.2 100.47 209.21 100.52 209.21 100.58 209.22 100.63 209.22 100.68 209.22 100.73 209.22 100.78 209.22 100.84 209.23 100.89 209.23 100.94 209.23 101 209.23 101.06 209.23 101.11 209.24 101.17 209.24 101.23 209.24 101.28 209.24 101.34 209.24 101.4 209.24 101.45 209.24 101.51 209.25 101.57 209.25 101.62 209.25 101.68 209.25 101.73 209.25 101.79 209.25 101.84 209.25 101.9 209.25 101.96 209.24 102.01 209.24 102.06 209.24 102.12 209.24 102.17 209.24 102.22 209.24 102.28 209.24 102.33 209.24 102.38 209.23 102.43 209.23 102.48 209.23 102.53 209.23 102.58 209.22 102.63 209.22 102.67 209.22 102.72 209.22 102.77 209.22 102.81 209.21 102.85 209.21 102.89 209.21 102.94 209.2 102.98 209.2 103.02 209.19 103.05 209.19 103.09 209.19 103.13 209.18 103.16 209.18 103.2 209.17 103.23 209.16 103.26 209.16 103.29 209.16 103.32 209.15 103.35 209.15 103.37 209.14 103.4 209.14 103.42 209.13 103.44 209.13 103.47 209.12 103.48 209.12 103.5 209.11 103.52 209.11 103.53 209.1 103.55 209.09 103.56 209.09 103.57 209.08 103.58 209.08 103.59 209.07 103.6 209.06 103.6 209.06 103.6 209.05 103.61 209.05 103.61 209.04 103.61 209.03 103.6 209.03 103.6 209.02 103.59 209.01 103.58 209.01 103.58 209 103.57 209 103.56 208.99 103.54 208.98 103.53 208.98 103.52 208.97 103.5 208.97 103.48 208.96 103.46 208.95 103.44 208.95 103.42 208.94 103.39 208.94 103.37 208.93 103.34 208.92 103.31 208.92 103.28 208.91"/><polyline class="cls-1" points="102.53 209.02 102.53 209.03 102.53 209.03 102.53 209.03 102.52 209.04 102.52 209.04 102.52 209.04 102.51 209.05 102.5 209.05 102.5 209.05 102.49 209.06 102.48 209.06 102.47 209.06 102.47 209.06 102.46 209.06 102.44 209.07 102.43 209.07 102.42 209.07 102.41 209.08 102.4 209.08 102.38 209.08 102.37 209.08 102.35 209.09 102.34 209.09 102.32 209.09 102.31 209.09 102.29 209.1 102.27 209.1 102.25 209.1 102.23 209.1 102.21 209.11 102.19 209.11 102.17 209.11 102.15 209.11 102.13 209.11 102.1 209.11 102.09 209.12 102.06 209.12 102.04 209.12 102.01 209.12 101.99 209.12 101.96 209.12 101.94 209.12 101.91 209.12 101.89 209.12 101.86 209.12 101.83 209.12 101.81 209.12 101.78 209.12 101.75 209.13 101.73 209.13 101.7 209.13 101.67 209.13 101.64 209.13 101.62 209.13 101.59 209.13 101.56 209.13 101.53 209.13 101.51 209.13 101.47 209.13 101.45 209.13 101.42 209.13 101.39 209.13 101.36 209.12 101.34 209.12 101.31 209.12 101.28 209.12 101.25 209.12 101.22 209.12 101.19 209.12 101.17 209.12 101.14 209.12 101.12 209.12 101.09 209.12 101.06 209.12 101.04 209.12 101.01 209.11 100.98 209.11 100.96 209.11 100.94 209.11 100.91 209.11 100.89 209.1 100.86 209.1 100.83 209.1 100.82 209.1 100.79 209.1 100.77 209.09 100.75 209.09 100.72 209.09 100.7 209.09 100.68 209.08 100.67 209.08 100.65 209.08 100.63 209.08 100.61 209.07 100.59 209.07 100.58 209.06 100.56 209.06 100.54 209.06 100.53 209.06 100.52 209.06 100.5 209.05 100.48 209.05 100.47 209.05 100.46 209.04 100.45 209.04 100.44 209.04 100.43 209.04 100.42 209.03 100.41 209.03 100.4 209.03 100.4 209.02 100.39 209.02 100.38 209.02 100.38 209.01 100.37 209.01 100.37 209.01 100.37 209.01 100.37 209 100.36 209 100.36 209"/><polyline class="cls-1" points="95.12 222.81 95.12 222.83 95.12 222.85 95.13 222.86 95.14 222.88 95.15 222.9 95.18 222.91 95.2 222.93 95.23 222.95 95.25 222.97 95.3 222.98 95.33 223.01 95.38 223.02 95.42 223.04 95.48 223.06 95.53 223.07 95.59 223.09 95.66 223.11 95.72 223.13 95.8 223.14 95.87 223.16 95.95 223.17 96.03 223.19 96.12 223.21 96.21 223.22 96.3 223.24 96.4 223.25 96.5 223.27 96.6 223.28 96.71 223.3 96.82 223.31 96.93 223.33 97.04 223.34 97.16 223.35 97.28 223.36 97.41 223.38 97.53 223.39 97.66 223.41 97.79 223.41 97.93 223.43 98.06 223.44 98.2 223.45 98.34 223.46 98.48 223.47 98.63 223.48 98.77 223.49 98.92 223.5 99.07 223.5 99.22 223.51 99.37 223.52 99.52 223.53 99.68 223.54 99.83 223.54 100 223.55 100.15 223.55 100.31 223.56 100.47 223.56 100.63 223.56 100.79 223.57 100.95 223.57 101.11 223.58 101.27 223.58 101.43 223.58 101.59 223.58 101.75 223.58 101.91 223.58 102.07 223.58 102.23 223.58 102.39 223.58 102.54 223.58 102.7 223.58 102.85 223.58 103.01 223.57 103.16 223.57 103.31 223.57 103.47 223.56 103.62 223.56 103.76 223.56 103.91 223.55 104.05 223.55 104.19 223.54 104.33 223.53 104.47 223.52 104.61 223.52 104.74 223.51 104.87 223.5 105 223.49 105.12 223.48 105.25 223.47 105.37 223.46 105.48 223.45 105.6 223.44 105.71 223.43 105.82 223.42 105.93 223.41 106.03 223.4 106.13 223.38 106.22 223.37 106.31 223.36 106.41 223.34 106.49 223.33 106.57 223.32 106.65 223.3 106.73 223.28 106.8 223.27 106.86 223.26 106.92 223.24 106.99 223.23 107.04 223.21 107.09 223.19 107.14 223.18 107.18 223.16 107.22 223.15 107.25 223.13 107.29 223.12 107.31 223.09 107.33 223.08 107.36 223.06 107.37 223.04 107.38 223.03 107.38 223.01 107.38 222.99 107.38 222.98"/><polyline class="cls-1" points="99.21 211.1 99.18 211.1 99.14 211.09 99.11 211.08 99.08 211.07 99.05 211.07 99.03 211.06 99 211.06 98.98 211.05 98.95 211.04 98.94 211.03 98.92 211.02 98.9 211.01 98.89 211.01 98.87 211 98.86 211 98.85 210.99 98.84 210.98 98.83 210.97 98.83 210.97 98.83 210.96 98.83 210.95 98.83 210.94 98.83 210.93 98.83 210.93 98.84 210.92 98.85 210.91 98.86 210.91 98.87 210.9 98.88 210.89 98.9 210.89 98.91 210.88 98.93 210.87 98.95 210.86 98.97 210.86 99 210.85 99.02 210.85 99.05 210.84 99.08 210.83 99.11 210.82 99.14 210.82 99.17 210.81 99.2 210.81 99.24 210.8 99.26 210.8"/><polyline class="cls-1" points="103.58 210.86 103.59 210.86 103.63 210.86 103.66 210.87 103.69 210.88 103.73 210.89 103.76 210.9 103.78 210.9 103.81 210.91 103.83 210.92 103.86 210.92 103.88 210.93 103.9 210.94 103.92 210.95 103.94 210.95 103.95 210.96 103.97 210.97 103.98 210.98 103.99 210.98 103.99 210.99 104 211 104 211 104.01 211.01 104.01 211.02 104.01 211.03 104 211.03 104 211.04 103.99 211.05 103.99 211.06 103.98 211.06 103.97 211.07 103.95 211.08 103.94 211.09 103.93 211.09 103.9 211.1 103.89 211.11 103.86 211.11 103.84 211.12 103.82 211.12 103.79 211.13 103.76 211.14 103.73 211.14 103.7 211.15 103.67 211.16 103.63 211.16 103.6 211.17 103.56 211.17 103.52 211.18 103.48 211.18 103.44 211.19 103.39 211.2 103.35 211.2 103.3 211.21 103.25 211.21 103.2 211.22 103.16 211.22 103.1 211.22 103.05 211.22 103 211.23 102.95 211.23 102.89 211.24 102.84 211.24 102.78 211.24 102.72 211.25 102.66 211.25 102.6 211.25 102.54 211.25 102.48 211.26 102.42 211.26 102.36 211.26 102.29 211.26 102.23 211.26 102.16 211.27 102.09 211.27 102.03 211.27 101.97 211.27 101.9 211.27 101.83 211.27 101.76 211.27 101.7 211.27 101.63 211.27 101.56 211.27 101.49 211.27 101.42 211.27 101.36 211.27 101.29 211.27 101.22 211.26 101.15 211.26 101.09 211.26 101.02 211.26 100.95 211.26 100.89 211.25 100.82 211.25 100.75 211.25 100.69 211.25 100.63 211.24 100.56 211.24 100.5 211.23 100.43 211.23 100.37 211.23 100.31 211.22 100.25 211.22 100.19 211.22 100.13 211.21 100.07 211.21 100.01 211.2 99.96 211.2 99.9 211.19 99.85 211.19 99.79 211.18 99.74 211.18 99.69 211.17 99.64 211.17 99.59 211.16 99.54 211.15 99.5 211.15 99.45 211.14 99.41 211.13 99.37 211.13 99.32 211.12 99.29 211.12 99.25 211.11 99.21 211.1"/><polyline class="cls-1" points="47.6 213.76 47.6 213.77 47.61 213.79 47.61 213.81 47.62 213.82 47.64 213.84 47.66 213.86 47.68 213.88 47.71 213.9 47.74 213.91 47.77 213.93 47.82 213.95 47.86 213.97 47.91 213.98 47.96 214 48.01 214.01 48.08 214.03 48.14 214.05 48.2 214.07 48.28 214.08 48.35 214.1 48.43 214.12 48.52 214.13 48.6 214.15 48.69 214.16 48.78 214.18 48.88 214.2 48.98 214.21 49.08 214.22 49.19 214.24 49.3 214.25 49.41 214.27 49.52 214.28 49.64 214.3 49.76 214.31 49.89 214.32 50.01 214.33 50.14 214.34 50.28 214.36 50.41 214.37 50.54 214.38 50.68 214.39 50.82 214.4 50.97 214.41 51.11 214.42 51.26 214.43 51.4 214.44 51.55 214.45 51.7 214.45 51.86 214.46 52.01 214.47 52.16 214.48 52.32 214.49 52.47 214.49 52.63 214.5 52.79 214.5 52.95 214.51 53.11 214.51 53.27 214.51 53.43 214.52 53.59 214.52 53.75 214.52 53.91 214.52 54.07 214.53 54.23 214.53 54.39 214.53 54.55 214.53 54.71 214.53 54.87 214.53 55.03 214.53 55.18 214.52 55.34 214.52 55.49 214.52 55.65 214.52 55.79 214.51 55.95 214.51 56.1 214.5 56.25 214.5 56.39 214.5 56.53 214.49 56.67 214.48 56.82 214.48 56.95 214.47 57.09 214.46 57.22 214.45 57.35 214.44 57.48 214.44 57.61 214.43 57.73 214.42 57.85 214.41 57.97 214.39 58.08 214.38 58.2 214.38 58.3 214.36 58.41 214.35 58.51 214.34 58.61 214.33 58.7 214.31 58.8 214.3 58.89 214.29 58.97 214.27 59.05 214.26 59.13 214.24 59.21 214.23 59.28 214.22 59.34 214.2 59.41 214.19 59.47 214.17 59.52 214.16 59.57 214.14 59.62 214.13 59.66 214.11 59.7 214.09 59.73 214.07 59.77 214.06 59.79 214.04 59.82 214.02 59.84 214.01 59.85 213.99 59.86 213.97 59.87 213.96 59.87 213.94 59.87 213.93"/><polyline class="cls-1" points="51.69 202.05 51.73 202.06 51.77 202.06 51.81 202.07 51.85 202.07 51.89 202.08 51.94 202.09 51.98 202.09 52.03 202.1 52.07 202.1 52.12 202.11 52.17 202.11 52.22 202.12 52.27 202.13 52.33 202.13 52.38 202.14 52.44 202.14 52.49 202.15 52.55 202.15 52.61 202.16 52.67 202.16 52.73 202.16 52.79 202.17 52.85 202.17 52.92 202.18 52.98 202.18 53.04 202.18 53.11 202.19 53.17 202.19 53.24 202.19 53.3 202.2 53.37 202.2 53.44 202.2 53.5 202.2 53.57 202.2 53.64 202.21 53.71 202.21 53.77 202.21 53.84 202.21 53.91 202.21 53.98 202.21 54.05 202.21 54.11 202.21 54.18 202.21 54.25 202.21 54.31 202.21 54.38 202.21 54.45 202.21 54.51 202.21 54.58 202.21 54.64 202.21 54.71 202.21 54.77 202.21 54.84 202.21 54.9 202.2 54.96 202.2 55.02 202.2 55.09 202.2 55.14 202.19 55.2 202.19 55.26 202.19 55.32 202.18 55.37 202.18 55.43 202.18 55.48 202.17 55.54 202.17 55.59 202.16 55.64 202.16 55.69 202.16 55.74 202.16 55.78 202.15 55.83 202.15 55.88 202.14 55.92 202.13 55.96 202.13 56 202.12 56.04 202.12 56.08 202.11 56.11 202.1 56.15 202.1 56.18 202.09 56.21 202.09 56.24 202.08 56.27 202.07 56.3 202.07 56.32 202.06 56.35 202.06 56.37 202.05 56.39 202.04 56.41 202.04 56.42 202.03 56.44 202.02 56.45 202.01 56.46 202 56.47 202 56.48 201.99 56.48 201.99 56.49 201.98 56.49 201.97 56.49 201.96 56.49 201.96 56.49 201.95 56.48 201.94 56.48 201.94 56.47 201.93 56.46 201.92 56.45 201.91 56.43 201.9 56.42 201.9 56.4 201.89 56.38 201.88 56.37 201.87 56.34 201.87 56.32 201.86 56.29 201.85 56.26 201.84 56.24 201.84 56.2 201.83 56.17 201.83 56.14 201.82 56.1 201.81 56.07 201.8 56.06 201.8"/><polyline class="cls-1" points="51.74 201.75 51.73 201.75 51.69 201.75 51.65 201.76 51.62 201.76 51.59 201.77 51.56 201.78 51.53 201.78 51.51 201.79 51.48 201.79 51.46 201.8 51.43 201.81 51.41 201.81 51.4 201.82 51.38 201.83 51.36 201.84 51.35 201.84 51.34 201.85 51.33 201.86 51.32 201.86 51.31 201.87 51.31 201.88 51.31 201.89 51.31 201.9 51.31 201.9 51.31 201.91 51.32 201.91 51.32 201.92 51.33 201.93 51.34 201.94 51.35 201.95 51.36 201.96 51.38 201.96 51.4 201.97 51.42 201.98 51.44 201.98 51.46 201.99 51.48 202 51.51 202 51.53 202.01 51.57 202.02 51.59 202.03 51.63 202.03 51.66 202.04 51.69 202.05"/><polyline class="cls-1" points="51.74 201.9 51.74 201.9 51.74 201.91 51.75 201.92 51.75 201.92 51.76 201.93 51.77 201.94 51.78 201.95 51.79 201.95 51.8 201.96 51.82 201.96 51.83 201.97 51.85 201.97 51.87 201.98 51.88 201.99 51.91 201.99 51.93 202 51.95 202 51.98 202.01 52 202.01 52.03 202.02 52.06 202.03 52.09 202.03 52.12 202.04 52.16 202.05 52.19 202.05 52.22 202.06 52.26 202.06 52.3 202.06 52.34 202.07 52.38 202.07 52.42 202.08 52.46 202.08 52.5 202.09 52.55 202.09 52.59 202.1 52.64 202.1 52.68 202.1 52.73 202.11 52.77 202.11 52.83 202.12 52.88 202.12 52.93 202.12 52.98 202.13 53.03 202.13 53.08 202.13 53.13 202.14 53.19 202.14 53.24 202.15 53.29 202.15 53.35 202.15 53.4 202.15 53.46 202.16 53.52 202.16 53.57 202.16 53.62 202.16 53.68 202.16 53.74 202.16 53.79 202.16 53.85 202.16 53.91 202.16 53.96 202.16 54.02 202.16 54.08 202.16 54.13 202.16 54.19 202.16 54.25 202.16 54.3 202.16 54.36 202.16 54.41 202.16 54.47 202.16 54.52 202.16 54.58 202.16 54.63 202.16 54.68 202.16 54.73 202.16 54.78 202.16 54.84 202.16 54.88 202.15 54.94 202.15 54.99 202.15 55.04 202.15 55.08 202.14 55.13 202.14 55.18 202.14 55.22 202.13 55.26 202.13 55.31 202.13 55.35 202.12 55.39 202.12 55.43 202.11 55.47 202.11 55.51 202.11 55.55 202.1 55.58 202.1 55.62 202.1 55.65 202.09 55.69 202.09 55.72 202.08 55.75 202.08 55.78 202.07 55.8 202.07 55.83 202.06 55.85 202.06 55.88 202.05 55.9 202.05 55.92 202.04 55.94 202.03 55.96 202.03 55.97 202.02 55.99 202.02 56 202.01 56.01 202 56.03 202 56.04 202 56.05 201.99 56.05 201.98 56.05 201.98 56.06 201.97 56.06 201.96 56.06 201.96"/><polyline class="cls-1" points="56.11 201.81 56.14 201.82 56.17 201.83 56.21 201.83 56.24 201.84 56.26 201.84 56.29 201.85 56.32 201.86 56.34 201.87 56.37 201.87 56.38 201.88 56.4 201.89 56.42 201.9 56.43 201.9 56.45 201.91 56.46 201.92 56.47 201.93 56.48 201.94 56.48 201.94 56.49 201.95 56.49 201.96 56.49 201.96 56.49 201.97 56.49 201.98 56.49 201.99 56.48 201.99 56.47 202 56.46 202.01 56.45 202.01 56.44 202.02 56.42 202.03 56.41 202.04 56.39 202.04 56.37 202.05 56.35 202.06 56.32 202.06 56.3 202.07 56.27 202.07 56.24 202.08 56.21 202.09 56.18 202.09 56.15 202.1 56.11 202.1 56.08 202.11 56.04 202.12 56 202.12 55.96 202.13 55.92 202.13 55.88 202.14 55.83 202.14 55.78 202.15 55.74 202.15 55.69 202.16 55.64 202.16 55.59 202.16 55.54 202.17 55.48 202.17 55.43 202.18 55.37 202.18 55.32 202.18 55.26 202.19 55.2 202.19 55.15 202.19 55.08 202.2 55.02 202.2 54.96 202.2 54.9 202.21 54.84 202.21 54.77 202.21 54.71 202.21 54.64 202.21 54.58 202.21 54.51 202.21 54.45 202.22 54.38 202.22 54.31 202.22 54.25 202.22 54.18 202.22 54.11 202.22 54.05 202.22 53.98 202.22 53.91 202.21 53.84 202.21 53.77 202.21 53.7 202.21 53.63 202.21 53.57 202.21 53.5 202.2 53.43 202.2 53.37 202.2 53.3 202.19 53.24 202.19 53.17 202.19 53.11 202.19 53.04 202.18 52.98 202.18 52.92 202.17 52.85 202.17 52.79 202.17 52.73 202.16 52.67 202.16 52.61 202.16 52.55 202.15 52.5 202.15 52.44 202.14 52.38 202.14 52.33 202.13 52.27 202.13 52.22 202.12 52.17 202.11 52.12 202.11 52.07 202.1 52.03 202.1 51.98 202.09 51.94 202.09 51.89 202.08 51.85 202.07 51.81 202.06 51.77 202.06 51.73 202.06 51.69 202.05 51.66 202.04 51.63 202.03 51.59 202.03 51.57 202.02 51.54 202.01 51.51 202 51.48 202 51.46 201.99 51.44 201.98 51.42 201.97 51.4 201.97 51.38 201.96 51.37 201.96 51.35 201.95 51.34 201.94 51.33 201.93 51.32 201.92 51.32 201.92 51.31 201.91 51.31 201.9 51.31 201.89 51.31 201.89 51.31 201.88 51.32 201.87 51.32 201.86 51.33 201.86 51.34 201.85 51.35 201.84 51.36 201.84 51.38 201.83 51.4 201.82 51.41 201.82 51.43 201.81 51.46 201.8 51.48 201.79 51.5 201.79 51.53 201.78 51.56 201.78 51.59 201.77 51.62 201.76 51.65 201.76 51.69 201.75 51.73 201.75 51.74 201.75"/><polyline class="cls-1" points="56.06 201.8 56.07 201.8 56.11 201.81"/><polyline class="cls-1" points="52.85 199.94 52.85 199.95 52.85 199.95 52.85 199.95 52.86 199.95 52.86 199.95 52.86 199.96 52.87 199.96 52.87 199.96 52.88 199.97 52.88 199.97 52.9 199.97 52.9 199.98 52.91 199.98 52.92 199.98 52.93 199.99 52.94 199.99 52.96 199.99 52.97 200 52.98 200 52.99 200 53.01 200 53.02 200 53.04 200.01 53.06 200.01 53.07 200.01 53.09 200.01 53.11 200.02 53.13 200.02 53.15 200.02 53.17 200.03 53.19 200.03 53.21 200.03 53.23 200.04 53.25 200.04 53.27 200.04 53.3 200.04 53.32 200.04 53.34 200.05 53.37 200.05 53.39 200.05 53.41 200.05 53.44 200.05 53.47 200.06 53.49 200.06 53.52 200.06 53.55 200.06 53.57 200.06 53.6 200.06 53.62 200.06 53.65 200.06 53.68 200.06 53.71 200.06 53.73 200.07 53.76 200.07 53.79 200.07 53.82 200.07 53.85 200.07 53.88 200.07 53.9 200.07 53.93 200.07 53.96 200.07 53.98 200.07 54.01 200.07 54.05 200.07 54.07 200.07 54.1 200.07 54.13 200.07 54.15 200.07 54.18 200.07 54.21 200.07 54.24 200.07 54.26 200.07 54.29 200.07 54.32 200.07 54.35 200.07 54.37 200.07 54.4 200.07 54.42 200.06 54.45 200.06 54.47 200.06 54.49 200.06 54.52 200.06 54.54 200.06 54.56 200.06 54.59 200.06 54.61 200.06 54.63 200.06 54.65 200.05 54.67 200.05 54.69 200.05 54.72 200.05 54.73 200.05 54.75 200.04 54.77 200.04 54.78 200.04 54.8 200.04 54.82 200.03 54.84 200.03 54.85 200.03 54.87 200.02 54.88 200.02 54.89 200.02 54.9 200.02 54.92 200.01 54.93 200.01 54.94 200.01 54.95 200 54.96 200 54.96 200 54.97 200 54.98 200 54.99 199.99 54.99 199.99 54.99 199.99 55 199.98 55 199.98 55 199.98 55.01 199.97 55.01 199.97 55.01 199.97"/><polyline class="cls-1" points="55.77 199.85 55.79 199.86 55.82 199.87 55.85 199.87 55.88 199.88 55.9 199.88 55.92 199.89 55.94 199.9 55.96 199.9 55.98 199.91 56 199.91 56.01 199.92 56.03 199.93 56.04 199.93 56.05 199.94 56.06 199.95 56.07 199.95 56.08 199.96 56.08 199.96 56.09 199.97 56.09 199.98 56.09 199.98 56.09 199.99 56.09 200 56.08 200 56.08 200.01 56.07 200.01 56.06 200.02 56.05 200.03 56.04 200.03 56.03 200.04 56.02 200.04 56 200.05 55.99 200.06 55.97 200.06 55.95 200.06 55.93 200.07 55.9 200.07 55.88 200.08 55.86 200.09 55.83 200.09 55.8 200.1 55.78 200.1 55.74 200.1 55.71 200.11 55.68 200.12 55.64 200.12 55.61 200.12 55.57 200.13 55.54 200.13 55.5 200.14 55.46 200.14 55.42 200.15 55.38 200.15 55.33 200.15 55.29 200.16 55.25 200.16 55.2 200.16 55.16 200.16 55.11 200.16 55.06 200.17 55.01 200.17 54.96 200.17 54.91 200.17 54.86 200.18 54.81 200.18 54.76 200.18 54.71 200.18 54.65 200.18 54.6 200.19 54.55 200.19 54.49 200.19 54.44 200.19 54.38 200.19 54.33 200.19 54.27 200.19 54.22 200.19 54.16 200.19 54.1 200.19 54.05 200.19 53.99 200.19 53.94 200.19 53.88 200.19 53.82 200.19 53.77 200.18 53.71 200.18 53.65 200.18 53.6 200.18 53.54 200.18 53.48 200.18 53.43 200.17 53.37 200.17 53.32 200.17 53.26 200.17 53.21 200.16 53.16 200.16 53.1 200.16 53.05 200.16 53 200.16 52.95 200.15 52.9 200.15 52.85 200.14 52.8 200.14 52.76 200.14 52.71 200.13 52.67 200.13 52.62 200.12 52.58 200.12 52.53 200.12 52.49 200.11 52.45 200.1 52.41 200.1 52.37 200.1 52.33 200.09 52.29 200.08 52.26 200.08 52.22 200.07 52.19 200.07 52.16 200.06 52.12 200.06 52.09 200.05 52.06 200.05 52.03 200.04 52.01 200.04 51.98 200.03 51.96 200.02 51.94 200.02 51.91 200.01 51.89 200 51.88 200 51.86 200 51.84 199.99 51.83 199.98 51.82 199.97 51.81 199.97 51.8 199.96 51.79 199.95 51.78 199.95 51.77 199.94 51.77 199.94 51.77 199.93 51.77 199.93 51.77 199.92 51.77 199.91 51.77 199.91 51.78 199.9 51.78 199.9 51.79 199.89 51.8 199.88 51.82 199.88 51.83 199.87 51.84 199.86 51.85 199.86 51.87 199.85 51.89 199.85 51.91 199.84 51.93 199.84 51.95 199.83 51.98 199.83 52 199.82 52.03 199.82 52.05 199.81 52.09 199.81 52.11 199.8 52.15 199.79 52.18 199.79 52.21 199.78 52.25 199.78 52.28 199.78 52.32 199.77 52.36 199.77 52.4 199.77 52.44 199.76 52.48 199.76 52.52 199.75 52.56 199.75 52.61 199.75 52.66 199.74 52.7 199.74 52.75 199.74 52.79 199.74 52.84 199.74 52.85 199.74"/><polyline class="cls-1" points="55.01 199.76 55.05 199.77 55.1 199.77 55.15 199.78 55.2 199.78 55.24 199.78 55.28 199.79 55.33 199.79 55.37 199.8 55.41 199.8 55.45 199.81 55.49 199.81 55.53 199.82 55.57 199.82 55.6 199.83 55.64 199.83 55.67 199.84 55.71 199.84 55.73 199.85 55.77 199.85"/><line class="cls-1" x1="89.2" y1="115.88" x2="103.79" y2="115.1"/><line class="cls-1" x1="103.75" y1="118.37" x2="88.68" y2="119.18"/><line class="cls-1" x1="64.55" y1="120.47" x2="43.48" y2="121.59"/><line class="cls-1" x1="43.53" y1="118.32" x2="43.48" y2="121.59"/><line class="cls-1" x1="103.75" y1="118.37" x2="103.79" y2="115.1"/><line class="cls-1" x1="38.96" y1="114.7" x2="40.39" y2="117.77"/><line class="cls-1" x1="40.39" y1="117.77" x2="40.38" y2="118.3"/><line class="cls-1" x1="32.02" y1="119.86" x2="30.22" y2="119.52"/><line class="cls-1" x1="30.22" y1="119.52" x2="30.48" y2="101.14"/><line class="cls-1" x1="30.47" y1="101.14" x2="32.83" y2="101.59"/><line class="cls-1" x1="32.83" y1="101.59" x2="37.52" y2="111.64"/><line class="cls-1" x1="37.52" y1="111.64" x2="38.73" y2="109.64"/><line class="cls-1" x1="38.73" y1="109.64" x2="40.16" y2="112.7"/><line class="cls-1" x1="40.16" y1="112.7" x2="38.96" y2="114.7"/><line class="cls-1" x1="116.22" y1="108.64" x2="87.36" y2="110.18"/><line class="cls-1" x1="65.77" y1="111.33" x2="65.11" y2="111.37"/><line class="cls-1" x1="64.04" y1="111.43" x2="40.16" y2="112.7"/><line class="cls-1" x1="38.73" y1="109.64" x2="62.61" y2="108.36"/><line class="cls-1" x1="63.69" y1="108.31" x2="64.34" y2="108.27"/><line class="cls-1" x1="85.81" y1="107.12" x2="114.78" y2="105.58"/><line class="cls-1" x1="38.96" y1="114.7" x2="63.03" y2="113.47"/><line class="cls-1" x1="63.96" y1="113.37" x2="64.57" y2="113.34"/><line class="cls-1" x1="88.14" y1="112.08" x2="115.01" y2="110.64"/><line class="cls-1" x1="65.99" y1="116.93" x2="40.38" y2="118.3"/><line class="cls-1" x1="32.02" y1="119.86" x2="32.05" y2="119.86"/><line class="cls-1" x1="106.52" y1="97.08" x2="80.12" y2="98.49"/><line class="cls-1" x1="53.45" y1="99.91" x2="30.47" y2="101.14"/><line class="cls-1" x1="65.99" y1="116.93" x2="66" y2="116.4"/><line class="cls-1" x1="66" y1="116.4" x2="64.57" y2="113.34"/><line class="cls-1" x1="64.57" y1="113.34" x2="65.77" y2="111.33"/><line class="cls-1" x1="65.77" y1="111.33" x2="64.34" y2="108.27"/><line class="cls-1" x1="62.25" y1="108.38" x2="58.44" y2="100.22"/><line class="cls-1" x1="58.44" y1="100.22" x2="62.98" y2="101.09"/><polyline class="cls-1" points="62.98 101.08 63.08 101.21 63.19 101.35 63.29 101.48 63.4 101.62 63.5 101.75 63.61 101.89 63.71 102.02 63.82 102.16 63.92 102.29 64.03 102.43 64.13 102.57 64.23 102.71 64.34 102.84 64.44 102.99 64.54 103.12 64.64 103.26 64.75 103.41 64.85 103.55 64.95 103.69 65.06 103.83 65.16 103.98 65.26 104.12 65.36 104.27 65.46 104.42 65.56 104.56 65.66 104.71 65.76 104.85 65.86 105 65.96 105.15 66.06 105.3 66.16 105.45 66.26 105.6 66.36 105.75 66.46 105.9 66.56 106.05 66.65 106.21 66.75 106.36 66.85 106.51 66.95 106.67 67.05 106.82 67.14 106.98 67.24 107.13 67.34 107.29"/><polyline class="cls-1" points="67.33 107.29 67.4 107.38 67.46 107.48 67.52 107.58 67.58 107.68 67.64 107.78 67.69 107.88 67.75 107.98 67.81 108.08 67.87 108.18 67.93 108.28 67.99 108.38 68.05 108.49 68.11 108.59 68.16 108.69 68.22 108.8 68.28 108.91 68.33 109.01 68.39 109.11 68.44 109.22 68.5 109.33 68.56 109.43 68.61 109.54 68.67 109.65 68.72 109.76 68.78 109.87 68.83 109.98 68.88 110.09 68.94 110.2 68.99 110.31 69.04 110.42 69.1 110.54 69.15 110.65 69.2 110.76 69.25 110.88 69.3 110.99 69.36 111.11 69.41 111.22 69.46 111.34 69.51 111.45 69.56 111.57 69.61 111.69 69.66 111.8 69.71 111.92 69.75 112.04 69.8 112.16 69.86 112.28 69.9 112.4 69.95 112.52 70 112.64 70.04 112.76 70.09 112.88 70.14 113 70.18 113.13 70.23 113.24 70.28 113.37 70.32 113.49 70.37 113.61 70.41 113.74 70.45 113.86 70.5 113.99 70.54 114.11 70.58 114.24 70.63 114.37 70.67 114.49 70.71 114.62 70.75 114.75 70.8 114.87"/><polyline class="cls-1" points="70.8 114.87 70.82 114.93 70.84 114.98 70.86 115.04 70.87 115.09 70.89 115.15 70.91 115.21 70.93 115.26 70.94 115.32 70.96 115.38 70.97 115.44 70.99 115.49 71 115.55 71.02 115.61 71.03 115.68 71.05 115.73 71.06 115.8 71.07 115.86 71.08 115.92 71.09 115.98 71.11 116.04 71.11 116.1 71.13 116.17 71.14 116.22 71.15 116.29 71.16 116.35 71.16 116.41 71.17 116.48 71.18 116.54 71.18 116.6 71.19 116.66 71.2 116.73 71.2 116.79 71.21 116.86 71.21 116.92 71.22 116.98 71.22 117.05 71.22 117.11 71.22 117.17 71.22 117.24 71.23 117.3 71.23 117.37 71.23 117.43 71.23 117.49 71.23 117.55 71.23 117.62 71.22 117.68 71.22 117.75 71.22 117.81 71.22 117.87 71.22 117.93 71.21 118 71.21 118.06 71.2 118.12 71.19 118.18 71.19 118.24 71.18 118.31 71.17 118.37 71.17 118.43 71.16 118.48 71.15 118.55 71.14 118.61 71.13 118.67 71.12 118.73 71.11 118.78 71.1 118.84 71.09 118.9 71.08 118.96 71.06 119.02 71.05 119.08 71.04 119.13 71.03 119.19 71.02 119.24 71 119.3 70.98 119.35 70.96 119.41 70.95 119.46 70.93 119.51 70.92 119.56 70.9 119.62 70.88 119.67 70.86 119.72 70.85 119.77 70.83 119.82 70.81 119.87 70.79 119.92 70.77 119.97 70.75 120.02 70.73 120.06 70.7 120.11 70.68 120.15 70.66 120.2 70.64 120.24 70.62 120.28 70.59 120.33 70.57 120.37 70.54 120.41 70.52 120.45 70.5 120.49 70.47 120.53 70.45 120.57 70.42 120.6 70.39 120.64 70.37 120.68 70.34 120.71 70.32 120.75 70.29 120.78 70.26 120.81 70.23 120.85 70.21 120.88 70.18 120.91 70.15 120.94 70.12 120.97 70.09 120.99 70.06 121.02 70.03 121.05 70 121.07 69.97 121.09 69.95 121.12 69.91 121.14 69.88 121.16"/><polyline class="cls-1" points="69.88 121.16 69.83 121.19 69.78 121.22 69.73 121.25 69.68 121.28 69.63 121.3 69.58 121.33 69.53 121.35 69.48 121.38 69.43 121.4 69.38 121.43 69.33 121.45 69.28 121.47 69.22 121.49 69.17 121.51 69.12 121.53 69.07 121.55 69.02 121.57 68.97 121.59 68.91 121.6 68.86 121.62 68.81 121.63 68.76 121.65 68.71 121.66 68.65 121.67 68.6 121.69 68.55 121.7 68.5 121.71 68.44 121.72 68.39 121.73 68.34 121.74 68.28 121.75 68.23 121.75 68.18 121.76 68.13 121.77 68.07 121.77 68.02 121.77 67.96 121.78 67.91 121.78 67.86 121.78 67.81 121.78 67.75 121.79 67.7 121.79 67.65 121.78 67.59 121.78 67.54 121.78 67.48 121.78 67.43 121.77 67.38 121.77 67.33 121.77 67.28 121.76 67.22 121.75 67.17 121.75 67.11 121.74 67.06 121.73 67 121.72 66.95 121.71 66.9 121.7 66.85 121.69 66.79 121.67 66.74 121.66 66.69 121.64 66.63 121.63 66.58 121.62 66.53 121.6 66.47 121.58 66.42 121.57 66.37 121.55 66.31 121.53 66.26 121.51 66.21 121.49 66.16 121.47 66.1 121.44 66.05 121.43 66 121.4 65.94 121.38 65.89 121.35 65.84 121.33 65.79 121.3 65.73 121.28 65.68 121.25 65.63 121.22 65.58 121.19 65.52 121.16 65.47 121.13 65.42 121.1 65.37 121.07 65.32 121.03 65.26 121 65.21 120.97 65.16 120.93 65.11 120.9 65.06 120.86 65 120.82 64.95 120.79 64.9 120.75 64.86 120.71 64.8 120.67 64.75 120.63 64.7 120.59 64.65 120.55 64.6 120.51 64.55 120.47"/><line class="cls-1" x1="64.55" y1="120.47" x2="64.59" y2="117.34"/><line class="cls-1" x1="85.33" y1="106.32" x2="80.01" y2="106.61"/><line class="cls-1" x1="69.14" y1="107.19" x2="67.34" y2="107.29"/><polyline class="cls-1" points="85.33 106.33 85.39 106.42 85.44 106.52 85.5 106.62 85.56 106.72 85.63 106.82 85.69 106.92 85.74 107.02 85.8 107.12 85.86 107.22 85.92 107.32 85.98 107.42 86.03 107.53 86.09 107.63 86.15 107.73 86.21 107.84 86.26 107.94 86.32 108.05 86.38 108.15 86.43 108.26 86.49 108.36 86.55 108.47 86.6 108.58 86.66 108.69 86.71 108.8 86.77 108.91 86.82 109.02 86.88 109.13 86.92 109.24 86.98 109.35 87.03 109.47 87.08 109.58 87.14 109.69 87.19 109.8 87.24 109.91 87.3 110.03 87.34 110.15 87.39 110.26 87.45 110.38 87.5 110.49 87.55 110.61 87.6 110.73 87.65 110.85 87.7 110.96 87.75 111.08 87.79 111.2 87.84 111.32 87.89 111.44 87.94 111.56 87.98 111.68 88.03 111.8 88.08 111.92 88.13 112.04 88.17 112.16 88.22 112.28 88.26 112.41 88.31 112.53 88.35 112.65 88.4 112.78 88.45 112.91 88.49 113.03 88.53 113.16 88.57 113.28 88.62 113.4 88.66 113.53 88.7 113.66 88.75 113.79 88.79 113.91"/><line class="cls-1" x1="88.79" y1="113.91" x2="70.8" y2="114.87"/><polyline class="cls-1" points="88.79 113.91 88.81 113.97 88.83 114.02 88.85 114.07 88.86 114.13 88.88 114.19 88.9 114.25 88.92 114.3 88.93 114.36 88.95 114.42 88.96 114.48 88.98 114.53 88.99 114.59 89.01 114.65 89.02 114.71 89.03 114.77 89.05 114.83 89.06 114.89 89.07 114.95 89.08 115.02 89.09 115.08 89.1 115.14 89.12 115.2 89.13 115.26 89.14 115.33 89.14 115.39 89.15 115.45 89.16 115.51 89.17 115.58 89.18 115.64 89.18 115.7 89.19 115.76 89.19 115.83 89.19 115.9 89.2 115.95 89.2 116.02 89.21 116.08 89.21 116.15 89.21 116.21 89.21 116.28 89.22 116.34 89.22 116.4 89.22 116.47 89.22 116.53 89.22 116.59 89.22 116.66 89.21 116.72 89.21 116.78 89.21 116.85 89.2 116.91 89.2 116.97 89.2 117.03 89.19 117.1 89.19 117.16 89.19 117.22 89.18 117.28 89.17 117.34 89.16 117.4 89.16 117.47 89.15 117.53 89.14 117.59 89.13 117.64 89.12 117.7 89.11 117.76 89.1 117.82 89.09 117.88 89.08 117.94 89.07 118 89.06 118.06 89.04 118.12 89.03 118.17 89.02 118.23 89 118.28 88.98 118.33 88.97 118.39 88.96 118.44 88.94 118.5 88.92 118.55 88.91 118.61 88.89 118.65 88.87 118.71 88.86 118.76 88.84 118.81 88.81 118.86 88.8 118.91 88.78 118.95 88.76 119.01 88.74 119.05 88.72 119.1 88.7 119.14 88.67 119.19 88.65 119.23 88.63 119.28 88.61 119.32 88.58 119.37 88.56 119.41 88.54 119.45 88.51 119.49 88.49 119.53 88.46 119.57 88.44 119.61 88.41 119.64 88.39 119.68 88.36 119.72 88.33 119.75 88.3 119.79 88.28 119.82 88.25 119.85 88.22 119.88 88.19 119.92 88.17 119.95 88.14 119.97 88.11 120.01 88.08 120.03 88.05 120.06 88.02 120.08 87.99 120.11 87.97 120.13 87.94 120.16 87.9 120.18 87.88 120.2"/><line class="cls-1" x1="87.87" y1="120.2" x2="69.88" y2="121.16"/><polyline class="cls-1" points="87.87 120.2 87.83 120.23 87.77 120.26 87.72 120.29 87.67 120.32 87.62 120.34 87.57 120.37 87.52 120.39 87.47 120.42 87.42 120.44 87.37 120.47 87.32 120.49 87.26 120.51 87.21 120.53 87.16 120.55 87.11 120.57 87.06 120.59 87.01 120.6 86.96 120.63 86.9 120.64 86.85 120.66 86.8 120.67 86.75 120.69 86.7 120.7 86.64 120.71 86.59 120.73 86.54 120.74 86.49 120.75 86.43 120.76 86.38 120.77 86.33 120.78 86.27 120.79 86.22 120.79 86.17 120.8 86.12 120.81 86.06 120.81 86.01 120.81 85.96 120.82 85.92 120.82"/><line class="cls-1" x1="80.97" y1="100.12" x2="80.1" y2="100.17"/><line class="cls-1" x1="64.78" y1="100.99" x2="62.98" y2="101.08"/><polyline class="cls-1" points="80.97 100.12 81.07 100.25 81.18 100.39 81.28 100.52 81.39 100.65 81.49 100.79 81.6 100.92 81.7 101.06 81.81 101.2 81.91 101.33 82.02 101.47 82.12 101.61 82.22 101.74 82.33 101.89 82.43 102.02 82.53 102.16 82.64 102.31 82.74 102.45 82.84 102.59 82.94 102.73 83.04 102.88 83.14 103.02 83.24 103.16 83.35 103.31 83.45 103.45 83.55 103.6 83.65 103.75 83.75 103.89 83.85 104.04 83.95 104.19 84.05 104.34 84.15 104.49 84.25 104.64 84.35 104.79 84.44 104.94 84.55 105.09 84.64 105.24 84.74 105.4 84.84 105.55 84.94 105.7 85.03 105.86 85.13 106.01 85.23 106.17 85.33 106.33"/><line class="cls-1" x1="80.1" y1="99.96" x2="80.97" y2="100.12"/><polyline class="cls-1" points="192.83 192.49 192.82 192.49 192.81 192.49 192.79 192.48 192.78 192.48 192.76 192.48"/><polyline class="cls-1" points="193.13 192.79 193.13 192.79 193.13 192.79 193.13 192.8 193.13 192.8 193.13 192.81 193.12 192.81 193.12 192.82 193.12 192.82 193.11 192.83 193.1 192.83 193.1 192.84 193.09 192.84 193.08 192.84 193.08 192.85 193.07 192.86 193.06 192.86 193.04 192.87 193.04 192.87 193.02 192.88 193.01 192.88 193 192.89 192.99 192.9 192.97 192.9 192.96 192.9"/><line class="cls-1" x1="123.14" y1="179.22" x2="188.77" y2="191.73"/><line class="cls-1" x1="69.07" y1="101.81" x2="69" y2="106.97"/></g></svg>