<svg xmlns="http://www.w3.org/2000/svg" viewBox="0 0 215 260"><defs><style>.cls-1{fill:none;stroke:#dcdbdb;stroke-width:1.52px;}</style></defs><title>machine_</title><g id="Linework"><path class="cls-1" d="M62.06,112.15a.69.69,0,0,0,.22,0"/><line class="cls-1" x1="54.19" y1="111.49" x2="62.06" y2="112.15"/><path class="cls-1" d="M63.26,93.63a.37.37,0,0,0-.24-.12"/><path class="cls-1" d="M63.35,93.87a.34.34,0,0,0-.09-.24"/><line class="cls-1" x1="63.02" y1="93.51" x2="55.15" y2="92.85"/><polyline class="cls-1" points="54.24 93 54.23 93.01 54.2 93.01 54.17 93.02 54.14 93.03 54.11 93.04 54.08 93.05 54.05 93.06 54.02 93.08 53.99 93.09 53.96 93.11 53.93 93.12 53.9 93.15 53.87 93.16 53.84 93.19 53.81 93.2 53.78 93.23 53.75 93.25 53.73 93.28 53.7 93.31 53.67 93.34 53.64 93.37 53.62 93.39 53.59 93.43 53.57 93.46 53.55 93.49 53.52 93.52 53.51 93.56 53.48 93.59 53.46 93.62 53.44 93.66 53.42 93.69 53.41 93.72 53.39 93.75 53.37 93.8 53.35 93.83 53.34 93.87 53.33 93.91 53.31 93.94 53.3 93.98 53.28 94.02 53.27 94.06 53.26 94.1 53.24 94.14 53.23 94.17 53.22 94.21 53.21 94.25 53.2 94.3 53.2 94.34 53.19 94.38 53.18 94.42 53.17 94.46 53.17 94.5 53.16 94.54 53.16 94.57 53.15 94.61 53.15 94.63 53.15 94.66 53.15 94.69"/><path class="cls-1" d="M53.15,94.69c0,.08,0,.16,0,.24"/><line class="cls-1" x1="53.13" y1="94.94" x2="53.16" y2="109.85"/><line class="cls-1" x1="55.05" y1="92.85" x2="54.24" y2="93"/><polyline class="cls-1" points="53.16 109.84 53.16 109.87 53.16 109.91 53.17 109.95 53.17 109.99 53.17 110.03 53.17 110.07 53.17 110.11 53.19 110.15 53.19 110.19 53.19 110.23 53.2 110.27 53.2 110.31 53.21 110.35 53.22 110.39 53.23 110.42 53.24 110.47 53.24 110.5 53.26 110.54 53.27 110.58 53.28 110.62 53.29 110.65 53.31 110.69 53.32 110.73 53.34 110.76 53.35 110.8 53.37 110.83 53.38 110.87 53.39 110.9 53.41 110.93 53.44 110.97 53.45 110.99 53.47 111.02 53.49 111.05 53.51 111.09 53.53 111.11 53.56 111.14 53.58 111.16 53.6 111.19 53.63 111.22 53.65 111.24 53.67 111.26 53.7 111.28 53.73 111.3 53.75 111.33 53.77 111.34 53.8 111.36 53.83 111.38 53.86 111.39 53.88 111.41 53.91 111.42 53.94 111.44 53.97 111.45 54 111.45 54.03 111.46 54.06 111.47 54.09 111.48 54.11 111.48 54.14 111.49 54.17 111.49 54.19 111.49"/><path class="cls-1" d="M55.15,92.85h-.09"/><line class="cls-1" x1="49.28" y1="110.31" x2="53.31" y2="110.69"/><line class="cls-1" x1="47.69" y1="94.96" x2="47.72" y2="107.67"/><path class="cls-1" d="M122.31,80.75l-.16,0"/><path class="cls-1" d="M123.8,82.52a1.8,1.8,0,0,0-1.49-1.78"/><line class="cls-1" x1="123.84" y1="100.38" x2="123.8" y2="82.52"/><line class="cls-1" x1="122.15" y1="80.73" x2="110.16" y2="79.72"/><polyline class="cls-1" points="145.33 115.08 145.49 115.05 145.87 114.99 146.26 114.93 146.65 114.87 147.03 114.81 147.42 114.74 147.81 114.68 148.19 114.62 148.57 114.56 148.96 114.49 149.33 114.43 149.71 114.37 150.09 114.3 150.47 114.24 150.85 114.18 151.22 114.12 151.6 114.05 151.97 113.99 152.35 113.92 152.72 113.86 153.09 113.8 153.46 113.73 153.83 113.67 154.2 113.61 154.57 113.54 154.94 113.48 155.3 113.41 155.67 113.35 156.03 113.29 156.39 113.22 156.76 113.16 157.12 113.09 157.48 113.03 157.84 112.96 158.2 112.9 158.55 112.83 158.91 112.77 159.26 112.7 159.63 112.64 159.98 112.57 160.33 112.51 160.69 112.44 161.03 112.38 161.38 112.31 161.73 112.25 162.09 112.18 162.43 112.11 162.78 112.04 163.13 111.98 163.47 111.92 163.75 111.86"/><line class="cls-1" x1="143.63" y1="107.76" x2="143.64" y2="114.51"/><line class="cls-1" x1="163.75" y1="111.86" x2="167.01" y2="111.25"/><path class="cls-1" d="M167.33,103.94a.46.46,0,0,0-.38-.27"/><path class="cls-1" d="M167.36,104.12a.39.39,0,0,0,0-.18"/><line class="cls-1" x1="167.37" y1="110.81" x2="167.36" y2="104.11"/><line class="cls-1" x1="166.95" y1="103.66" x2="164.72" y2="103.48"/><path class="cls-1" d="M167,111.25a.45.45,0,0,0,.37-.44"/><path class="cls-1" d="M164.72,103.48h-.12"/><line class="cls-1" x1="84.56" y1="68.09" x2="84.59" y2="81.35"/><line class="cls-1" x1="99.84" y1="21.38" x2="91.57" y2="22.91"/><line class="cls-1" x1="100.79" y1="105.29" x2="109.05" y2="103.76"/><line class="cls-1" x1="146.57" y1="128.6" x2="162.26" y2="125.68"/><line class="cls-1" x1="122.62" y1="132.19" x2="146.57" y2="128.6"/><polyline class="cls-1" points="122.28 132.27 122.6 132.19 122.62 132.19"/><path class="cls-1" d="M93.33,132a3.12,3.12,0,0,0,0-.52"/><polyline class="cls-1" points="91.84 129.6 91.86 129.6 91.89 129.61 91.94 129.63 91.97 129.64 92 129.66 92.05 129.67 92.08 129.69 92.11 129.71 92.16 129.73 92.19 129.75 92.23 129.78 92.26 129.79 92.3 129.82 92.34 129.85 92.36 129.88 92.4 129.9 92.44 129.93 92.47 129.96 92.5 129.99 92.54 130.01 92.57 130.05 92.6 130.08 92.63 130.11 92.67 130.15 92.7 130.18 92.72 130.22 92.75 130.26 92.78 130.29 92.81 130.33 92.84 130.38 92.87 130.41 92.89 130.46 92.92 130.5 92.94 130.54 92.97 130.58 92.99 130.61 93.01 130.65 93.03 130.69 93.05 130.73 93.07 130.78 93.09 130.81 93.11 130.86 93.13 130.9 93.14 130.95 93.16 130.99 93.17 131.03 93.19 131.08 93.2 131.12 93.21 131.16 93.22 131.21 93.23 131.25 93.25 131.29 93.26 131.33 93.27 131.37 93.27 131.4 93.28 131.43 93.28 131.45"/><line class="cls-1" x1="93.33" y1="131.97" x2="93.38" y2="156.06"/><line class="cls-1" x1="67.89" y1="121.98" x2="91.84" y2="129.59"/><line class="cls-1" x1="65.65" y1="110.65" x2="65.67" y2="117.98"/><path class="cls-1" d="M65.67,118a.72.72,0,0,0,.06.29"/><path class="cls-1" d="M65.72,118.27l0,0"/><line class="cls-1" x1="65.75" y1="118.31" x2="67.47" y2="121.63"/><path class="cls-1" d="M67.46,121.63a.73.73,0,0,0,.42.35"/><line class="cls-1" x1="55.99" y1="179.54" x2="56.11" y2="234.02"/><line class="cls-1" x1="98.13" y1="87.1" x2="62.18" y2="93.66"/><line class="cls-1" x1="96.54" y1="104.9" x2="63.38" y2="111.06"/><polyline class="cls-1" points="62.18 93.66 62.15 93.67 62.13 93.67 62.09 93.69 62.07 93.69 62.04 93.7 62.01 93.72 61.99 93.73 61.96 93.74 61.93 93.75 61.91 93.78 61.88 93.8 61.86 93.81 61.83 93.83 61.8 93.85 61.78 93.88 61.76 93.9 61.73 93.92 61.71 93.95 61.68 93.98 61.66 94.01 61.64 94.03 61.61 94.06 61.59 94.1 61.57 94.13 61.55 94.16 61.53 94.2 61.51 94.23 61.49 94.27 61.47 94.3 61.45 94.34 61.43 94.38 61.41 94.42 61.39 94.45 61.38 94.49 61.36 94.54 61.35 94.58 61.33 94.62 61.31 94.66 61.3 94.71 61.29 94.75 61.28 94.79 61.27 94.83 61.25 94.89 61.24 94.93 61.23 94.97 61.23 95.02 61.21 95.07 61.2 95.11 61.2 95.16 61.19 95.21 61.18 95.26 61.18 95.31 61.17 95.35 61.17 95.4 61.17 95.44 61.17 95.5 61.16 95.54 61.16 95.59 61.16 95.64"/><line class="cls-1" x1="61.16" y1="95.64" x2="61.2" y2="110.55"/><line class="cls-1" x1="62.99" y1="93.51" x2="62.18" y2="93.66"/><line class="cls-1" x1="54.31" y1="93" x2="55.12" y2="92.85"/><line class="cls-1" x1="90.57" y1="86.22" x2="54.77" y2="92.88"/><line class="cls-1" x1="54.77" y1="92.88" x2="54.87" y2="92.88"/><line class="cls-1" x1="54.77" y1="92.88" x2="54.77" y2="92.9"/><polyline class="cls-1" points="49.37 92.76 49.7 92.65 50.02 92.55 50.35 92.45 50.67 92.35 51 92.25 51.33 92.15 51.66 92.05 52 91.94 52.33 91.85 52.67 91.75 53.01 91.64 53.35 91.54 53.69 91.44 54.03 91.34 54.38 91.24 54.72 91.14 55.07 91.04 55.42 90.94 55.77 90.84 56.13 90.74 56.48 90.64 56.84 90.54 57.2 90.44 57.55 90.34 57.92 90.24 58.28 90.14 58.64 90.05 59.01 89.94 59.37 89.84 59.74 89.75 60.12 89.65 60.49 89.55 60.86 89.45 61.24 89.35 61.61 89.26 61.99 89.15 62.37 89.05 62.75 88.95 63.13 88.86 63.52 88.76 63.9 88.66 64.3 88.57 64.68 88.47 65.07 88.37 65.46 88.28 65.86 88.18 66.25 88.08 66.65 87.98 67.05 87.89 67.45 87.79 67.85 87.69 68.26 87.59 68.66 87.49 69.07 87.4 69.47 87.3 69.89 87.21 70.3 87.11 70.71 87.02 71.12 86.92 71.54 86.82 71.96 86.73 72.38 86.63 72.79 86.53 73.22 86.44 73.64 86.34 74.06 86.24 74.49 86.15 74.92 86.06 75.35 85.96 75.78 85.87 76.21 85.77 76.65 85.67 77.08 85.58 77.52 85.48 77.96 85.39 78.39 85.3 78.84 85.2 79.28 85.11 79.73 85.01 80.18 84.92 80.62 84.83 81.07 84.73 81.52 84.64 81.97 84.55 82.43 84.45 82.88 84.36 83.34 84.27 83.8 84.17 84.26 84.08 84.71 83.99 85.18 83.89 85.64 83.81 86.11 83.71 86.57 83.61 87.04 83.52 87.51 83.44 87.98 83.34 88.46 83.25 88.94 83.16 89.41 83.07 89.89 82.98 90.36 82.88 90.57 82.84"/><polyline class="cls-1" points="110.07 102.86 110.09 102.86 110.13 102.86 110.18 102.86 110.22 102.86 110.27 102.86 110.32 102.86 110.37 102.86 110.41 102.86 110.46 102.85 110.5 102.85 110.55 102.85 110.6 102.84 110.64 102.84 110.68 102.84 110.72 102.84 110.77 102.84 110.81 102.83 110.85 102.83 110.89 102.83 110.93 102.82 110.97 102.82 111.01 102.81 111.05 102.81 111.08 102.81 111.12 102.8 111.15 102.8 111.19 102.8 111.22 102.79 111.26 102.79 111.29 102.79 111.32 102.78 111.35 102.77 111.38 102.77 111.4 102.76"/><line class="cls-1" x1="123.53" y1="100.51" x2="111.4" y2="102.76"/><polyline class="cls-1" points="123.53 100.51 123.55 100.5 123.58 100.5 123.6 100.49 123.63 100.49 123.65 100.48 123.67 100.48 123.69 100.47 123.71 100.47 123.73 100.47 123.74 100.45 123.75 100.45 123.77 100.44 123.78 100.44 123.8 100.43 123.81 100.42 123.81 100.42 123.82 100.41 123.83 100.41 123.83 100.4 123.84 100.39 123.84 100.39 123.84 100.38 123.84 100.38"/><line class="cls-1" x1="143.7" y1="107.51" x2="105.95" y2="104.34"/><line class="cls-1" x1="123.74" y1="100.46" x2="163.07" y2="103.77"/><path class="cls-1" d="M145.07,115.07a.44.44,0,0,0,.37-.44"/><line class="cls-1" x1="143.4" y1="107.51" x2="164.68" y2="103.48"/><line class="cls-1" x1="164.68" y1="103.48" x2="166.91" y2="103.67"/><polyline class="cls-1" points="166.91 103.67 166.93 103.67 166.95 103.67 166.97 103.68 166.99 103.69 167.01 103.69 167.03 103.7 167.05 103.72 167.07 103.72 167.09 103.73 167.1 103.75 167.12 103.76 167.13 103.78 167.15 103.8 167.16 103.81 167.18 103.83 167.19 103.85 167.21 103.87 167.22 103.89 167.23 103.91 167.24 103.93 167.25 103.96 167.26 103.98 167.26 104 167.27 104.02 167.28 104.05 167.28 104.07 167.28 104.1 167.28 104.12 167.28 104.14"/><line class="cls-1" x1="167.28" y1="104.15" x2="167.3" y2="110.84"/><line class="cls-1" x1="90.54" y1="68.4" x2="87.07" y2="68.19"/><polyline class="cls-1" points="87.06 68.19 87.01 68.19 86.96 68.19"/><line class="cls-1" x1="86.96" y1="68.18" x2="85.05" y2="68.02"/><line class="cls-1" x1="85.05" y1="68.02" x2="84.68" y2="68.08"/><line class="cls-1" x1="84.71" y1="81.51" x2="85.07" y2="81.8"/><polyline class="cls-1" points="84.68 68.08 84.66 68.08 84.63 68.08 84.62 68.09 84.6 68.09 84.58 68.09 84.57 68.09 84.57 68.09 84.56 68.09"/><polyline class="cls-1" points="84.59 81.35 84.6 81.36 84.6 81.38 84.61 81.4 84.62 81.42 84.64 81.44 84.66 81.46 84.69 81.48 84.71 81.51"/><polyline class="cls-1" points="98.39 23.64 98.48 23.69 98.57 23.75 98.66 23.8 98.74 23.85 98.83 23.92 98.91 23.98 99 24.04 99.09 24.11 99.18 24.19 99.27 24.27 99.36 24.35 99.45 24.43 99.54 24.52 99.63 24.6 99.71 24.69 99.79 24.78 99.88 24.87 99.96 24.96 100.03 25.05 100.11 25.15 100.18 25.24 100.26 25.34 100.34 25.45 100.42 25.56 100.5 25.67 100.58 25.79 100.65 25.91 100.73 26.02 100.8 26.14 100.87 26.26 100.94 26.39 101.01 26.51 101.07 26.64 101.14 26.76 101.2 26.89 101.27 27.02 101.33 27.16 101.38 27.29 101.44 27.42 101.5 27.56 101.55 27.7"/><polyline class="cls-1" points="94.9 26.23 95.02 26.25 95.13 26.26 95.24 26.27 95.35 26.3 95.46 26.32 95.56 26.35 95.67 26.38 95.77 26.41 95.86 26.44 95.96 26.48 96.06 26.52 96.15 26.57 96.24 26.62 96.32 26.66 96.41 26.72 96.49 26.76 96.56 26.81 96.64 26.87 96.72 26.94 96.79 27 96.87 27.07 96.94 27.14 97.01 27.21 97.08 27.29 97.15 27.37 97.21 27.44 97.27 27.52 97.32 27.6 97.37 27.68 97.43 27.76 97.48 27.85 97.53 27.94 97.58 28.03 97.62 28.11 97.66 28.21 97.7 28.3 97.74 28.4 97.77 28.5 97.81 28.6 97.84 28.7 97.87 28.81 97.9 28.91 97.92 29.03 97.95 29.14 97.97 29.25 97.99 29.36 98.01 29.49 98.02 29.62 98.03 29.75 98.05 29.88 98.05 30.01 98.06 30.15 98.06 30.29"/><line class="cls-1" x1="98.06" y1="30.28" x2="98.21" y2="101.59"/><path class="cls-1" d="M101.81,29.08a3.85,3.85,0,0,0-.26-1.38"/><line class="cls-1" x1="101.97" y1="103.65" x2="101.81" y2="29.08"/><path class="cls-1" d="M101.88,104.11a1.28,1.28,0,0,0,.08-.46"/><polyline class="cls-1" points="97.34 23.35 97.45 23.36 97.55 23.37 97.65 23.39 97.76 23.41 97.85 23.43 97.95 23.46 98.04 23.49 98.13 23.52 98.22 23.56 98.31 23.6 98.39 23.64"/><polyline class="cls-1" points="110.05 27.55 110.05 27.46 110.05 27.38 110.05 27.3 110.05 27.22 110.04 27.14 110.03 27.06 110.03 26.98 110.02 26.89 110.01 26.81 110 26.73 109.99 26.65 109.97 26.57 109.96 26.48 109.95 26.4 109.93 26.32 109.92 26.25 109.9 26.16 109.88 26.08 109.86 26 109.85 25.92 109.82 25.84 109.8 25.76 109.78 25.68 109.75 25.6 109.73 25.53 109.7 25.45 109.67 25.38 109.65 25.29 109.62 25.22 109.59 25.14 109.56 25.07 109.53 24.99 109.49 24.92 109.46 24.84 109.43 24.77 109.39 24.7 109.36 24.63 109.32 24.55 109.28 24.48 109.24 24.41 109.2 24.34 109.16 24.27 109.12 24.2 109.08 24.14 109.03 24.07 108.99 24 108.95 23.93 108.9 23.87 108.86 23.81 108.81 23.74 108.76 23.68 108.72 23.62 108.67 23.56 108.62 23.49 108.56 23.44 108.52 23.38 108.46 23.32 108.41 23.27 108.36 23.21 108.3 23.16 108.25 23.1 108.19 23.05 108.14 23 108.08 22.94 108.03 22.9 107.97 22.84 107.92 22.8 107.86 22.75 107.79 22.7 107.73 22.66 107.68 22.61 107.62 22.57 107.56 22.53 107.5 22.49 107.43 22.45 107.37 22.41 107.31 22.37 107.25 22.34 107.18 22.3 107.12 22.27 107.06 22.23 106.99 22.2 106.92 22.18 106.86 22.15 106.79 22.12 106.72 22.09 106.66 22.07 106.6 22.04 106.53 22.01 106.46 21.99 106.4 21.97 106.33 21.95 106.27 21.93 106.2 21.91 106.13 21.9 106.06 21.88 105.99 21.87 105.92 21.86 105.85 21.85 105.79 21.83 105.72 21.83 105.66 21.82 105.59 21.82"/><line class="cls-1" x1="97.16" y1="102.76" x2="95.05" y2="102.58"/><line class="cls-1" x1="90.64" y1="25.9" x2="94.9" y2="26.23"/><polyline class="cls-1" points="98.21 101.58 98.21 101.67 98.2 101.74 98.2 101.82 98.19 101.89 98.17 101.96 98.16 102.03 98.14 102.09 98.12 102.15 98.1 102.21 98.07 102.27 98.05 102.32 98.02 102.36 97.99 102.41 97.96 102.44 97.93 102.48 97.9 102.53 97.86 102.56 97.81 102.59 97.77 102.62 97.72 102.65 97.67 102.68 97.63 102.69 97.58 102.72 97.53 102.73 97.47 102.74 97.42 102.75 97.36 102.76 97.29 102.76 97.23 102.76 97.16 102.76"/><line class="cls-1" x1="97.35" y1="23.35" x2="91.92" y2="22.89"/><polyline class="cls-1" points="91.51 22.93 91.57 22.91 91.63 22.9 91.7 22.89 91.75 22.89 91.81 22.88 91.87 22.88 91.92 22.89"/><line class="cls-1" x1="110.21" y1="102.11" x2="110.05" y2="27.55"/><line class="cls-1" x1="105.59" y1="21.82" x2="100.17" y2="21.36"/><polyline class="cls-1" points="90.45 24.1 90.46 24.03 90.47 23.96 90.49 23.89 90.51 23.82 90.53 23.75 90.55 23.69 90.58 23.63 90.61 23.57 90.65 23.51 90.69 23.45 90.72 23.39 90.77 23.34 90.81 23.3 90.86 23.26 90.9 23.21 90.95 23.18 91.01 23.13 91.06 23.1 91.12 23.06 91.2 23.03 91.27 23 91.34 22.97 91.42 22.95 91.51 22.93"/><line class="cls-1" x1="90.44" y1="24.55" x2="90.57" y2="86.22"/><path class="cls-1" d="M90.45,24.1c0,.15,0,.3,0,.45"/><polyline class="cls-1" points="100.17 21.36 100.13 21.35 100.08 21.35 100.04 21.35 100.01 21.35 99.97 21.36 99.93 21.36 99.89 21.36 99.85 21.37 99.84 21.37"/><polyline class="cls-1" points="101.88 104.11 101.86 104.19 101.83 104.26 101.79 104.33 101.76 104.4 101.72 104.47 101.69 104.53 101.64 104.6 101.61 104.66 101.56 104.72 101.52 104.78 101.47 104.84 101.43 104.89 101.39 104.93 101.34 104.97 101.3 105.02 101.26 105.06 101.21 105.1 101.16 105.13 101.11 105.16 101.06 105.19 101.01 105.22 100.95 105.25 100.89 105.27 100.83 105.28"/><line class="cls-1" x1="96.28" y1="104.95" x2="100.49" y2="105.31"/><polyline class="cls-1" points="100.83 105.28 100.79 105.29 100.74 105.3 100.69 105.31 100.64 105.31 100.59 105.31 100.54 105.31 100.48 105.31"/><polyline class="cls-1" points="109.05 103.75 109.08 103.75 109.12 103.74 109.16 103.73 109.19 103.72 109.23 103.71 109.27 103.69 109.31 103.68 109.34 103.66 109.38 103.64 109.41 103.63 109.45 103.61 109.48 103.59 109.51 103.56 109.55 103.55 109.58 103.52 109.61 103.5 109.64 103.47 109.67 103.44 109.7 103.41 109.73 103.38 109.76 103.35 109.79 103.32 109.82 103.29 109.84 103.26 109.87 103.22 109.89 103.19 109.92 103.15 109.94 103.11 109.96 103.08 109.99 103.04 110 103 110.03 102.96 110.05 102.92 110.06 102.88 110.08 102.84 110.09 102.8 110.11 102.76 110.12 102.71 110.13 102.67 110.15 102.62 110.16 102.58 110.17 102.53 110.18 102.48 110.18 102.44 110.19 102.4 110.2 102.34 110.2 102.3 110.21 102.25 110.21 102.21 110.21 102.16 110.21 102.11"/><line class="cls-1" x1="115.5" y1="158.44" x2="94.94" y2="156.7"/><line class="cls-1" x1="146.57" y1="128.03" x2="145.25" y2="125.35"/><line class="cls-1" x1="162.7" y1="112.06" x2="162.72" y2="125.03"/><polyline class="cls-1" points="146.57 128.03 146.59 128.08 146.62 128.12 146.63 128.17 146.64 128.21 146.65 128.26 146.65 128.3 146.65 128.34"/><polyline class="cls-1" points="146.56 128.6 146.57 128.6 146.58 128.6 146.59 128.59 146.61 128.57 146.62 128.56 146.62 128.53 146.63 128.52 146.64 128.49 146.65 128.46 146.65 128.42 146.65 128.39 146.65 128.37 146.65 128.34"/><polyline class="cls-1" points="162.26 125.69 162.27 125.69 162.29 125.68 162.32 125.67 162.34 125.66 162.37 125.66 162.39 125.64 162.41 125.63 162.43 125.62 162.45 125.6 162.47 125.59 162.49 125.58 162.51 125.56 162.53 125.54 162.54 125.52 162.56 125.5 162.59 125.48 162.6 125.46 162.61 125.44 162.63 125.41 162.64 125.39 162.65 125.37 162.66 125.34 162.67 125.31 162.68 125.28 162.69 125.26 162.69 125.23 162.71 125.2 162.71 125.17 162.72 125.14 162.72 125.12 162.72 125.09 162.72 125.06 162.72 125.03"/><polyline class="cls-1" points="122.28 132.27 122.23 132.27 122.18 132.28 122.14 132.29 122.09 132.3 122.05 132.31 122.01 132.32 121.96 132.34 121.92 132.36 121.87 132.38 121.83 132.39 121.79 132.42 121.75 132.44 121.71 132.46 121.67 132.48 121.63 132.5 121.58 132.53 121.54 132.56 121.51 132.59 121.47 132.62 121.43 132.64 121.39 132.68 121.36 132.71 121.32 132.74 121.29 132.78 121.25 132.81 121.22 132.85 121.18 132.89 121.15 132.92 121.13 132.96 121.1 133 121.06 133.04 121.03 133.09 121.01 133.13 120.98 133.17 120.96 133.22 120.93 133.26 120.91 133.31 120.88 133.35 120.86 133.4 120.83 133.44 120.81 133.5 120.79 133.54 120.78 133.6 120.76 133.64 120.74 133.69 120.72 133.75 120.71 133.8 120.7 133.85 120.68 133.9 120.67 133.96 120.66 134.01 120.65 134.07 120.64 134.12 120.63 134.18 120.63 134.23 120.62 134.29 120.61 134.34 120.61 134.4 120.61 134.46 120.61 134.51 120.61 134.56"/><line class="cls-1" x1="115.98" y1="158.45" x2="120.66" y2="158.38"/><line class="cls-1" x1="120.61" y1="134.29" x2="120.66" y2="158.38"/><polyline class="cls-1" points="136.81 131.33 136.81 131.28 136.82 131.23 136.82 131.18 136.82 131.12 136.82 131.06 136.83 131.02 136.84 130.97 136.85 130.91 136.85 130.86 136.87 130.81 136.88 130.76 136.89 130.71 136.9 130.66 136.91 130.61 136.93 130.56 136.95 130.51 136.97 130.47 136.98 130.42 137 130.38 137.02 130.33 137.04 130.28 137.06 130.24 137.08 130.19 137.1 130.15 137.13 130.11 137.16 130.07 137.18 130.03 137.2 130"/><polyline class="cls-1" points="115.5 158.44 115.52 158.44 115.55 158.44 115.58 158.44 115.61 158.44 115.64 158.44 115.67 158.45 115.7 158.45 115.73 158.45 115.76 158.45 115.79 158.45 115.82 158.45 115.85 158.45 115.88 158.45 115.92 158.45 115.95 158.45 115.98 158.45"/><polyline class="cls-1" points="120.66 158.38 120.69 158.38 120.72 158.38 120.75 158.38 120.78 158.38 120.81 158.38 120.84 158.38 120.87 158.38 120.9 158.38 120.93 158.37 120.95 158.37 120.98 158.37 121.01 158.36 121.03 158.36 121.06 158.36 121.08 158.36 121.1 158.35 121.13 158.35 121.14 158.35 121.16 158.35 121.18 158.34"/><line class="cls-1" x1="136.81" y1="131.33" x2="136.87" y2="155.43"/><line class="cls-1" x1="136.87" y1="155.24" x2="121.08" y2="158.36"/><polyline class="cls-1" points="94.66 156.66 94.66 156.66 94.67 156.66 94.69 156.67 94.7 156.67 94.72 156.67 94.73 156.67 94.75 156.68 94.76 156.69 94.78 156.69 94.8 156.69 94.83 156.69 94.85 156.7 94.87 156.7 94.89 156.7 94.92 156.7 94.95 156.7"/><line class="cls-1" x1="93.41" y1="156.09" x2="94.66" y2="156.65"/><polyline class="cls-1" points="93.38 156.06 93.38 156.06 93.39 156.07 93.39 156.07 93.39 156.08 93.4 156.08 93.41 156.09"/><line class="cls-1" x1="108.87" y1="183.97" x2="99.66" y2="184.17"/><polyline class="cls-1" points="100.27 184.17 100.23 184.17 100.21 184.17 100.17 184.17 100.14 184.17 100.1 184.17 100.07 184.17 100.04 184.17 100 184.17 99.97 184.17 99.93 184.17 99.9 184.17 99.87 184.17 99.83 184.17 99.81 184.17 99.78 184.17 99.74 184.17 99.71 184.16 99.68 184.16 99.66 184.16 99.63 184.16 99.6 184.16"/><line class="cls-1" x1="99.6" y1="184.16" x2="57.89" y2="180.65"/><polyline class="cls-1" points="57.88 180.65 57.86 180.64 57.83 180.64 57.8 180.63 57.78 180.63 57.75 180.63 57.73 180.63 57.71 180.62 57.69 180.62 57.67 180.62 57.65 180.62 57.63 180.61 57.62 180.6 57.6 180.6 57.58 180.6 57.57 180.59 57.55 180.59 57.54 180.59 57.53 180.58 57.52 180.58 57.52 180.58 57.5 180.57"/><line class="cls-1" x1="57.51" y1="180.57" x2="56.01" y2="179.57"/><polyline class="cls-1" points="56.01 179.57 56 179.56 56 179.55 55.99 179.55 55.99 179.54 55.99 179.54 55.99 179.54 55.99 179.53 56 179.53 56 179.53 56.01 179.52 56.02 179.51 56.02 179.51 56.03 179.51 56.04 179.5 56.05 179.5 56.06 179.5 56.08 179.49 56.09 179.49 56.11 179.48 56.13 179.48 56.15 179.48"/><line class="cls-1" x1="56.15" y1="179.48" x2="61.48" y2="178.49"/><line class="cls-1" x1="148.93" y1="174.02" x2="158.01" y2="174.78"/><line class="cls-1" x1="158.01" y1="174.78" x2="108.88" y2="183.92"/><polyline class="cls-1" points="108.87 183.92 108.86 183.92 108.83 183.92 108.81 183.93 108.79 183.94 108.77 183.94 108.75 183.94 108.72 183.94 108.69 183.94 108.66 183.95 108.63 183.95 108.61 183.95 108.58 183.95 108.55 183.95 108.52 183.96 108.49 183.96 108.46 183.96 108.43 183.97 108.4 183.97 108.36 183.97 108.33 183.97 108.3 183.97"/><line class="cls-1" x1="108.41" y1="238.44" x2="100.39" y2="238.65"/><polyline class="cls-1" points="100.39 238.65 100.35 238.65 100.32 238.65 100.28 238.65 100.25 238.65 100.22 238.65 100.18 238.65 100.15 238.65 100.12 238.65 100.08 238.65 100.05 238.65 100.02 238.65 99.98 238.65 99.95 238.64 99.92 238.64 99.89 238.64 99.86 238.64 99.83 238.64 99.79 238.64 99.77 238.64 99.74 238.63 99.71 238.63"/><line class="cls-1" x1="99.71" y1="238.63" x2="99.6" y2="184.16"/><line class="cls-1" x1="99.71" y1="238.63" x2="58" y2="235.12"/><line class="cls-1" x1="108.99" y1="238.39" x2="108.88" y2="183.92"/><polyline class="cls-1" points="108.99 238.39 108.97 238.39 108.95 238.4 108.92 238.4 108.91 238.4 108.88 238.41 108.86 238.42 108.83 238.42 108.8 238.42 108.78 238.42 108.75 238.42 108.72 238.43 108.69 238.43 108.66 238.43 108.63 238.43 108.61 238.43 108.57 238.43 108.54 238.44 108.51 238.44 108.48 238.44 108.44 238.44 108.41 238.44"/><line class="cls-1" x1="158.13" y1="229.26" x2="158.01" y2="174.78"/><line class="cls-1" x1="158.13" y1="229.26" x2="108.99" y2="238.39"/><polyline class="cls-1" points="58 235.11 57.97 235.11 57.95 235.11 57.92 235.11 57.89 235.11 57.87 235.1 57.85 235.1 57.82 235.09 57.8 235.09 57.78 235.09 57.77 235.08 57.74 235.08 57.73 235.08 57.71 235.07 57.7 235.07 57.68 235.07 57.67 235.07 57.66 235.06 57.65 235.06 57.64 235.06 57.63 235.05 57.62 235.04"/><line class="cls-1" x1="56.12" y1="234.03" x2="56.01" y2="179.56"/><line class="cls-1" x1="57.62" y1="235.04" x2="56.12" y2="234.03"/><polyline class="cls-1" points="56.12 234.03 56.12 234.03 56.11 234.03 56.11 234.02 56.11 234.02 56.11 234.02"/><polyline class="cls-1" points="104.35 168.07 104.33 168.07 104.33 168.07"/><line class="cls-1" x1="104.32" y1="168.07" x2="95.27" y2="170.16"/><line class="cls-1" x1="95.27" y1="170.15" x2="51.17" y2="166.44"/><line class="cls-1" x1="51.08" y1="177.52" x2="105.13" y2="182.16"/><polyline class="cls-1" points="95.11 170.53 95.11 170.51 95.11 170.49 95.12 170.47 95.12 170.45 95.12 170.42 95.12 170.41 95.13 170.38 95.13 170.37 95.14 170.35 95.14 170.33 95.15 170.31 95.16 170.29 95.17 170.27 95.18 170.26 95.19 170.24 95.2 170.23 95.21 170.22 95.22 170.2 95.23 170.19 95.24 170.18 95.25 170.17 95.26 170.16 95.27 170.15"/><line class="cls-1" x1="95.11" y1="170.53" x2="95.13" y2="181.18"/><line class="cls-1" x1="105.1" y1="167.88" x2="104.35" y2="168.07"/><polyline class="cls-1" points="50.74 166.8 50.74 166.77 50.75 166.75 50.75 166.73 50.75 166.71 50.76 166.69 50.77 166.67 50.78 166.65 50.78 166.63 50.79 166.62 50.81 166.6 50.82 166.58 50.84 166.56 50.85 166.55 50.86 166.53 50.88 166.52 50.9 166.51 50.92 166.5 50.93 166.49 50.96 166.48 50.97 166.47 51 166.47 51.02 166.46 51.04 166.45 51.06 166.45"/><polyline class="cls-1" points="50.89 163.32 50.86 163.34 50.85 163.35 50.82 163.37 50.81 163.4 50.79 163.41 50.77 163.44 50.76 163.47 50.75 163.49 50.74 163.52 50.74 163.53 50.74 163.55 50.73 163.57 50.73 163.6"/><line class="cls-1" x1="50.73" y1="163.91" x2="50.76" y2="177.13"/><polyline class="cls-1" points="50.73 163.91 50.73 163.89 50.73 163.88"/><polyline class="cls-1" points="50.76 177.16 50.76 177.15 50.76 177.13"/><polyline class="cls-1" points="50.75 176.72 50.75 176.73 50.76 176.76 50.76 176.78 50.77 176.8 50.77 176.82 50.78 176.84 50.79 176.86 50.79 176.88 50.81 176.9 50.82 176.92 50.83 176.94 50.85 176.95 50.86 176.97 50.88 176.98 50.89 177 50.91 177.01 50.93 177.02 50.95 177.03 50.97 177.04 50.99 177.05 51.01 177.06 51.03 177.06 51.05 177.07 51.07 177.07"/><polyline class="cls-1" points="50.76 177.16 50.76 177.2 50.77 177.24 50.78 177.28 50.79 177.31 50.81 177.35 50.84 177.38 50.86 177.41 50.88 177.44 50.92 177.46 50.94 177.47 50.96 177.48 50.99 177.49 51.01 177.5 51.03 177.51 51.04 177.51 51.06 177.51"/><polyline class="cls-1" points="51.06 177.51 51.07 177.51 51.08 177.52"/><line class="cls-1" x1="93.38" y1="155.41" x2="50.89" y2="163.31"/><line class="cls-1" x1="161.77" y1="157.34" x2="136.87" y2="155.24"/><line class="cls-1" x1="105.1" y1="167.88" x2="161.77" y2="157.34"/><line class="cls-1" x1="50.89" y1="163.31" x2="105.1" y2="167.88"/><line class="cls-1" x1="161.77" y1="157.34" x2="161.8" y2="171.63"/><line class="cls-1" x1="161.8" y1="171.63" x2="105.13" y2="182.17"/><line class="cls-1" x1="105.1" y1="167.88" x2="105.13" y2="182.17"/><line class="cls-1" x1="50.73" y1="163.92" x2="50.73" y2="163.62"/><polyline class="cls-1" points="61.2 110.55 61.2 110.6 61.2 110.65 61.2 110.69 61.2 110.74 61.2 110.78 61.21 110.83 61.21 110.88 61.22 110.92 61.23 110.97 61.23 111.02 61.24 111.06 61.25 111.1 61.25 111.14 61.27 111.19 61.27 111.23 61.28 111.27 61.3 111.31 61.31 111.35 61.32 111.39 61.34 111.43 61.35 111.47 61.36 111.51 61.38 111.55 61.39 111.58 61.41 111.61 61.43 111.65 61.45 111.68 61.47 111.71 61.49 111.74 61.5 111.77 61.52 111.8 61.54 111.83 61.57 111.86 61.59 111.88 61.61 111.91 61.63 111.93 61.65 111.95 61.68 111.97 61.7 112 61.72 112.02 61.75 112.03 61.77 112.05 61.79 112.07 61.82 112.08 61.85 112.09 61.87 112.1 61.89 112.12 61.92 112.13 61.95 112.14 61.97 112.14 62 112.15 62.03 112.16 62.05 112.16 62.06 112.16"/><polyline class="cls-1" points="63.02 93.51 63.01 93.51 63 93.51 62.99 93.51"/><polyline class="cls-1" points="55.15 92.85 55.14 92.85 55.13 92.85 55.12 92.85"/><polyline class="cls-1" points="54.24 93 54.25 93 54.27 93 54.29 93 54.31 93"/><polyline class="cls-1" points="55.05 92.85 55.07 92.85 55.08 92.85 55.1 92.85 55.12 92.85"/><line class="cls-1" x1="53.85" y1="93.17" x2="49.37" y2="92.76"/><line class="cls-1" x1="122" y1="80.74" x2="110.17" y2="82.94"/><line class="cls-1" x1="110.16" y1="79.74" x2="122" y2="80.74"/><polyline class="cls-1" points="122.15 80.73 122.14 80.73 122.11 80.73 122.08 80.73 122.05 80.73 122.03 80.74 122 80.74"/><polyline class="cls-1" points="164.68 103.48 164.66 103.48 164.64 103.48 164.62 103.48 164.6 103.48"/><polyline class="cls-1" points="167.01 111.25 167.03 111.25 167.04 111.24 167.07 111.24 167.08 111.23 167.1 111.22 167.12 111.21 167.13 111.2 167.15 111.19 167.16 111.17 167.18 111.16 167.19 111.14 167.21 111.12 167.22 111.1 167.23 111.09 167.25 111.07 167.26 111.05 167.26 111.03 167.28 111.01 167.28 110.98 167.29 110.96 167.29 110.94 167.29 110.92 167.3 110.89 167.3 110.87 167.3 110.84"/><polyline class="cls-1" points="166.95 103.66 166.94 103.66 166.93 103.66 166.91 103.67"/><polyline class="cls-1" points="167.36 104.12 167.36 104.12 167.36 104.12 167.36 104.12 167.35 104.13 167.34 104.13 167.34 104.13 167.33 104.13 167.32 104.14 167.31 104.14 167.3 104.14 167.29 104.14"/><polyline class="cls-1" points="167.37 110.81 167.37 110.81 167.37 110.82 167.37 110.82 167.36 110.83 167.36 110.83 167.35 110.83 167.34 110.83 167.33 110.84 167.32 110.84 167.31 110.84 167.3 110.84"/><polyline class="cls-1" points="164.72 103.48 164.71 103.48 164.7 103.48 164.69 103.48"/><line class="cls-1" x1="145.32" y1="125.62" x2="145.29" y2="115.34"/><line class="cls-1" x1="76.29" y1="108.67" x2="143.23" y2="114.34"/><polyline class="cls-1" points="93.33 131.97 93.33 131.98 93.33 131.98 93.33 131.98 93.34 131.99 93.35 131.99 93.36 131.99"/><polyline class="cls-1" points="65.75 118.31 65.75 118.32 65.76 118.34 65.77 118.35 65.78 118.36 65.79 118.38 65.8 118.39 65.82 118.41 65.84 118.42 65.86 118.43 65.87 118.44 65.89 118.45 65.92 118.46 65.93 118.47 65.95 118.47 65.98 118.48 66 118.49"/><line class="cls-1" x1="84.56" y1="68.09" x2="90.34" y2="65.86"/><line class="cls-1" x1="84.71" y1="81.8" x2="90.04" y2="82.52"/><path class="cls-1" d="M145.64,115s-1.94.53-1.94-.84"/><path class="cls-1" d="M49.7,92.65a2.78,2.78,0,0,0-2,3.41"/><path class="cls-1" d="M47.72,107.16s-.19,3.08,2.28,3.23"/><line class="cls-1" x1="61.85" y1="112.41" x2="63.8" y2="110.99"/></g></svg>