<svg xmlns="http://www.w3.org/2000/svg" viewBox="0 0 215 260"><defs><style>.cls-1{fill:none;stroke:#dcdbdb;stroke-width:1.22px;}</style></defs><title>machine_</title><g id="Linework"><path class="cls-1" d="M10.85,144.66S10.08,134.5,16,133.09l57.75-13.76,4.11,1.09,0,9.32L15,146.21a8.16,8.16,0,0,1-2.13-.71A21,21,0,0,0,10.85,144.66Z"/><path class="cls-1" d="M14.52,146.08s-.84-5,1.16-8,1.48-3.15,6.56-4.37S77.8,120.48,77.8,120.48"/><path class="cls-1" d="M68.47,132.18l-.06,9.91s.38,5.21,3.08,5.4,3.35-1,3.41-3.86,0-13.11,0-13.11"/><path class="cls-1" d="M69.24,132.06l-.06,10.48s.45,3.54,2.06,3.73,2.57-.26,2.7-2.57.13-13,.13-13"/><path class="cls-1" d="M72.46,147.49l2.9-.32s1.67-.26,1.8-3,.07-14.28.07-14.28"/><path class="cls-1" d="M71.24,131.48v9.77s.26,4.24,2.38,3.92"/><line class="cls-1" x1="71.88" y1="131.29" x2="71.88" y2="144.15"/><polyline class="cls-1" points="71.94 147.49 71.94 165.37 74.71 166.27 74.71 165.43 79.08 166.72 82.87 164.6 85 165.37 86.92 164.53 87.83 164.79 88.28 164.53 88.28 164.21 88.99 163.82 88.99 130.19"/><line class="cls-1" x1="79.02" y1="130.39" x2="79.02" y2="166.72"/><line class="cls-1" x1="82.94" y1="131.16" x2="82.94" y2="164.47"/><polyline class="cls-1" points="85 165.37 85 130.9 85.23 130.9"/><line class="cls-1" x1="87.05" y1="164.53" x2="87.05" y2="130.71"/><line class="cls-1" x1="87.83" y1="164.73" x2="87.83" y2="130.58"/><path class="cls-1" d="M77.6,129.87s4.31,2.83,12.93-.06c5.14-1.67,9.32-3.47,9.64-4.05s1.55-2.7.77-4.12a23.27,23.27,0,0,1-2.45-9.71,3.2,3.2,0,0,0-1.22-2.44c-.91-.9-1.55-2.45-4.44-3s-4.24-.9-4.24-.9l-.45.13.06.38H86.73l-1.87.58.06.58-2.38.71-3.09-.84-.77.19v.84s-2.9.71-3.86.9-1.42.58-1.16,1.35a2.21,2.21,0,0,1-.32,2.12c-1.8,1.23,0,6.82,0,6.82"/><path class="cls-1" d="M73.87,109.42l3.34.84s1.28.52,3.09,4.76,2.64,11-.19,15.75"/><path class="cls-1" d="M98.37,111.22s-8.81,1.8-12.09,5.34.19,6.3,3.54,6.56,7.07.7,11.32-.84"/><line class="cls-1" x1="73.81" y1="111.16" x2="66.8" y2="112.7"/><polyline class="cls-1" points="72.65 116.37 68.02 117.65 68.09 120.61"/><line class="cls-1" x1="69.05" y1="120.48" x2="69.11" y2="117.4"/><line class="cls-1" x1="71.24" y1="120.03" x2="71.24" y2="116.75"/><path class="cls-1" d="M67.69,117.73c.87-.09,1.45-1.31,1.3-2.72s-1-2.49-1.84-2.39-1.45,1.31-1.3,2.72S66.82,117.82,67.69,117.73Z"/><line class="cls-1" x1="72.01" y1="111.54" x2="71.94" y2="48.78"/><line class="cls-1" x1="78.69" y1="51.16" x2="78.69" y2="107.3"/><polyline class="cls-1" points="79.53 107.17 79.47 54.31 80.3 54.12 80.3 51.93"/><polyline class="cls-1" points="79.53 54.31 80.76 54.38 82.68 54.44 82.55 107.88"/><line class="cls-1" x1="80.69" y1="54.44" x2="80.69" y2="107.43"/><line class="cls-1" x1="84.87" y1="107.04" x2="85" y2="52.71"/><polyline class="cls-1" points="88.15 52.38 88.15 53.8 88.53 53.86 88.73 105.5"/><polyline class="cls-1" points="88.22 105.95 88.08 54.05 86.8 54.18 86.8 106.01"/><line class="cls-1" x1="87.51" y1="106.14" x2="87.44" y2="54.25"/><polyline class="cls-1" points="82.75 52.38 82.68 54.38 84.23 54.31 84.29 52.64"/><path class="cls-1" d="M71.17,44.15v4.76a7.23,7.23,0,0,1,4.05.19c1.8.77,4,3.54,10.87,3.54,1.48,0,3.79-.39,3.85-2.32s0-7.91,0-7.91-11.25-.06-14.14.38A16.63,16.63,0,0,0,71.17,44.15Z"/><path class="cls-1" d="M76.19,42.8s4.76.45,5.79.45,6.95.13,8-.84"/><line class="cls-1" x1="77.6" y1="110.39" x2="94.32" y2="106.91"/><line class="cls-1" x1="80.88" y1="131.03" x2="81.01" y2="165.56"/><path class="cls-1" d="M71.94,162.41A39.51,39.51,0,0,0,68,165.3c-.45.58.07.58,1,1s15.31,5.85,15.31,5.85,1.67,1,5-.26,12.15-5.14,12.15-5.14L89,162.41"/><path class="cls-1" d="M68,165.3s-.51.39-.45,1.87.2,5,.26,5.66.32,1,2.57,1.92,21.8,9.39,23.47,9.91a21.21,21.21,0,0,0,7.71,1c.07-5.72.13-19,.13-19"/><polygon class="cls-1" points="95.61 182.41 95.8 178.42 100.43 176.56 100.49 180.16 95.61 182.41"/><path class="cls-1" d="M98.82,115.59s15.95-3.41,16.78-3.47c1,0,3.73.26,4.18-.13s2.89-.19,3.09.45"/><path class="cls-1" d="M101.07,123.89l17-5.79v-1.28l2.32-1a1.15,1.15,0,0,1,1.09.13"/><polyline class="cls-1" points="115.42 112.19 118.05 113.22 118.05 116.82"/><path class="cls-1" d="M99.53,117.91l18.53-4.63a6.24,6.24,0,0,1,1.92-.45"/><path class="cls-1" d="M123.26,113s-1.09-1.67-1.86.84a15.19,15.19,0,0,0,.7,2.06l1.16-.52S124,113.47,123.26,113Z"/><polyline class="cls-1" points="121.4 115.34 122.1 116.95 125.06 125.82 125.58 126.98 124.55 123.31 122.49 115.86"/><path class="cls-1" d="M121,115.72a.64.64,0,0,1,.84-.58"/><polyline class="cls-1" points="71.94 158.16 28.86 142.47 29.25 158.68 46.09 165.5"/><polyline class="cls-1" points="72.07 159.06 29.63 143.63 29.76 158.17 45.97 164.73"/><path class="cls-1" d="M67.57,168.84,51,162.29s-5.79-.52-4.76,4.5c.77,1.8.77,2.7,5.66,4.63S95,189,95,189l2.06-.9v-1.42L52.27,168.45a3.48,3.48,0,0,1-3-3.73"/><path class="cls-1" d="M67.7,172.06l-19-7.72s-3.09,3.21,1.41,4.88,44.63,18.52,44.63,18.52l2.31-.9"/><line class="cls-1" x1="94.71" y1="187.75" x2="94.84" y2="189.03"/><path class="cls-1" d="M46.87,163.7s.38-1.16,3.34,0,17.49,7.2,17.49,7.2"/><line class="cls-1" x1="30.4" y1="143.89" x2="30.53" y2="158.42"/><line class="cls-1" x1="31.29" y1="144.28" x2="31.42" y2="158.81"/><polyline class="cls-1" points="101.66 168.84 175.35 195.85 173.68 217.59 91.75 184.15"/><polyline class="cls-1" points="101.66 169.87 174.06 196.23 172.91 215.91 96.25 185.31"/><path class="cls-1" d="M175.22,195.85l4.37-2.83-5.78-2.31,1.28-4.5,4.38-4.37L202,169.48s3.35-1,0-1.92S89.05,134.5,89.05,134.5"/><polyline class="cls-1" points="33.62 141.44 36.58 142.47 42.49 141.96 68.34 136.43"/><polyline class="cls-1" points="173.68 217.59 178.31 214.63 179.59 193.02"/><path class="cls-1" d="M179.34,197.39,203,183.63l1.16-14a1.54,1.54,0,0,0-1-1.67"/><polyline class="cls-1" points="27.44 161.77 120.82 200.73 122.11 201 126.47 198.42"/><polyline class="cls-1" points="97.02 187.75 124.03 198.8 122.87 199.71 121.07 200.6"/><line class="cls-1" x1="122.23" y1="198.16" x2="123.26" y2="197.01"/><line class="cls-1" x1="95.87" y1="188.65" x2="122.62" y2="199.71"/><polyline class="cls-1" points="28.09 161.77 30.27 160.87 46.22 166.78"/><line class="cls-1" x1="29.37" y1="161.25" x2="47.25" y2="168.71"/></g></svg>