<svg xmlns="http://www.w3.org/2000/svg" viewBox="0 0 215 260"><defs><style>.cls-1{fill:none;stroke:#dcdbdb;stroke-width:1.33px;}</style></defs><title>machine_</title><g id="Linework"><line class="cls-1" x1="153.66" y1="238.25" x2="153.99" y2="238.25"/><line class="cls-1" x1="154.04" y1="242.37" x2="158.4" y2="242.34"/><line class="cls-1" x1="158.31" y1="231.28" x2="154.42" y2="231.31"/><line class="cls-1" x1="71.8" y1="243" x2="76.17" y2="242.97"/><line class="cls-1" x1="76.08" y1="231.91" x2="72.19" y2="231.94"/><line class="cls-1" x1="71.43" y1="238.88" x2="71.75" y2="238.88"/><line class="cls-1" x1="138.84" y1="236.95" x2="143.2" y2="236.91"/><line class="cls-1" x1="138.46" y1="232.82" x2="138.78" y2="232.82"/><line class="cls-1" x1="56.23" y1="233.45" x2="56.56" y2="233.45"/><line class="cls-1" x1="60.88" y1="226.48" x2="56.99" y2="226.51"/><line class="cls-1" x1="56.61" y1="237.57" x2="60.97" y2="237.54"/><polyline class="cls-1" points="91.47 97.36 91.54 97.39 91.67 97.43 91.79 97.47 91.92 97.51 92.05 97.55 92.17 97.58 92.3 97.62 92.42 97.65 92.55 97.68 92.67 97.71 92.8 97.74 92.93 97.77 93.05 97.8 93.18 97.82 93.31 97.85 93.44 97.87 93.57 97.89 93.7 97.91 93.83 97.93 93.96 97.95 94.09 97.96 94.22 97.98 94.35 97.99 94.48 98.01 94.61 98.02 94.74 98.03 94.87 98.03 95 98.04 95.13 98.04 95.26 98.05 95.39 98.05 95.53 98.05 95.66 98.05 95.79 98.05 95.92 98.05 96.05 98.04 96.18 98.04 96.31 98.03 96.44 98.02 96.57 98.01 96.7 98 96.83 97.99 96.96 97.97 97.09 97.95 97.22 97.94 97.36 97.92 97.48 97.9 97.62 97.88 97.75 97.86 97.87 97.83 98.01 97.81 98.13 97.78 98.26 97.75 98.39 97.72 98.52 97.69 98.65 97.66 98.78 97.63 98.9 97.59 99.03 97.56 99.16 97.52 99.28 97.48 99.41 97.44 99.53 97.4 99.66 97.36 99.78 97.31 99.91 97.27 100.03 97.22 100.15 97.17 100.28 97.12 100.4 97.07 100.52 97.02 100.64 96.97 100.76 96.91 100.89 96.85 101.01 96.79 101.12 96.74 101.24 96.68 101.36 96.62 101.48 96.55 101.59 96.49 101.71 96.43 101.82 96.36 101.94 96.29 102.05 96.22 102.17 96.15 102.28 96.08 102.39 96.01 102.5 95.94 102.61 95.87 102.73 95.79 102.84 95.71 102.95 95.64 103.05 95.56 103.16 95.47 103.26 95.39 103.37 95.31 103.47 95.22 103.58 95.14 103.68 95.05 103.78 94.96 103.88 94.88 103.98 94.79 104.08 94.7 104.18 94.6 104.28 94.51 104.38 94.42 104.47 94.32 104.57 94.23 104.66 94.13 104.75 94.03 104.85 93.93 104.94 93.83 105.03 93.73 105.11 93.63 105.2 93.53 105.29 93.42 105.38 93.31 105.46 93.21 105.55 93.1 105.63 92.99 105.71 92.88 105.79 92.77 105.87 92.66 105.95 92.55 106.03 92.43 106.1 92.32 106.18 92.2 106.25 92.08 106.32 91.97 106.39 91.86 106.45 91.75 106.52 91.64 106.58 91.53 106.64 91.42 106.7 91.31 106.75 91.2 106.81 91.09 106.87 90.98 106.92 90.87 106.98 90.76 107.03 90.65 107.08 90.54 107.13 90.42 107.18 90.31 107.23 90.19 107.27 90.08 107.32 89.97 107.36 89.87 107.39 89.78 107.42 89.71 107.45 89.63 107.47 89.57"/><polyline class="cls-1" points="107.47 89.57 107.52 89.44 107.53 89.39 107.56 89.3 107.6 89.21 107.63 89.12 107.66 89.02 107.69 88.91 107.72 88.8 107.75 88.69 107.78 88.58 107.81 88.46 107.84 88.34 107.87 88.23 107.9 88.11 107.93 87.99 107.95 87.87 107.98 87.75 108 87.63 108.02 87.51 108.04 87.38 108.06 87.26 108.08 87.14 108.1 87.01 108.12 86.89 108.13 86.77 108.15 86.63 108.16 86.51 108.17 86.38 108.18 86.26 108.19 86.13 108.2 86 108.21 85.87 108.22 85.75 108.22 85.62 108.22 85.49 108.23 85.37 108.23 85.27"/><line class="cls-1" x1="90.72" y1="97.09" x2="91.39" y2="97.33"/><polyline class="cls-1" points="108.23 85.09 108.23 84.95 108.23 84.81 108.23 84.68 108.23 84.55 108.22 84.43 108.22 84.31 108.22 84.17 108.22 84.04 108.22 83.92 108.21 83.8 108.21 83.68 108.21 83.57 108.2 83.47 108.2 83.36 108.2 83.28 108.2 83.18 108.19 83.1 108.19 83.03 108.19 82.96 108.19 82.9 108.18 82.84 108.18 82.79 108.18 82.74 108.18 82.7 108.18 82.66 108.17 82.63 108.17 82.6 108.17 82.57 108.17 82.55 108.17 82.52 108.17 82.48 108.17 82.45 108.17 82.41 108.16 82.35 108.16 82.29 108.16 82.22 108.15 82.15 108.15 82.07 108.14 81.99 108.14 81.9 108.13 81.8 108.13 81.7 108.12 81.61 108.11 81.51 108.11 81.42 108.1 81.33 108.09 81.25 108.09 81.17 108.08 81.1 108.08 81.03 108.07 80.96 108.07 80.9 108.06 80.84 108.06 80.79 108.05 80.74 108.05 80.69 108.05 80.65 108.04 80.6 108.04 80.54 108.03 80.48 108.03 80.42 108.02 80.36 108.01 80.29 108.01 80.22 108 80.15 108 80.1 107.99 80.06 107.98 80.01 107.98 79.97 107.98 79.92 107.97 79.86 107.96 79.81 107.96 79.75 107.95 79.7 107.95 79.64 107.94 79.58 107.93 79.53 107.93 79.49 107.92 79.44 107.92 79.4 107.91 79.35 107.91 79.3 107.9 79.25 107.89 79.2 107.88 79.15 107.88 79.09 107.87 79.05 107.86 79 107.86 78.96 107.85 78.91 107.85 78.87 107.84 78.83 107.84 78.8 107.83 78.77 107.83 78.74 107.82 78.72 107.82 78.7 107.82 78.69 107.82 78.67 107.81 78.65 107.81 78.63 107.81 78.61 107.8 78.58 107.8 78.54 107.79 78.5 107.78 78.42 107.77 78.35 107.75 78.28 107.74 78.2 107.74 78.17 107.73 78.14 107.73 78.11 107.72 78.07 107.71 78.03 107.71 77.99 107.69 77.95 107.69 77.91 107.68 77.86"/><line class="cls-1" x1="108.23" y1="85.27" x2="108.23" y2="85.09"/><line class="cls-1" x1="107.68" y1="77.86" x2="107.16" y2="75.11"/><polyline class="cls-1" points="107.16 75.11 107.15 75.08 107.15 75.05 107.14 75.02 107.14 75 107.13 74.97 107.13 74.96 107.13 74.94 107.13 74.94 107.12 74.93 107.12 74.92 107.12 74.92 107.12 74.91 107.12 74.89 107.11 74.87 107.11 74.84 107.1 74.81 107.1 74.77 107.09 74.72 107.08 74.64 107.07 74.56 107.05 74.48 107.04 74.43 107.04 74.39 107.03 74.35 107.03 74.3 107.02 74.27 107.02 74.23 107.01 74.19 107.01 74.16 107 74.13 107 74.09 106.99 74.05 106.99 74 106.98 73.95 106.97 73.9 106.97 73.84 106.96 73.79 106.95 73.73 106.94 73.67 106.93 73.57 106.92 73.47 106.91 73.37 106.9 73.28 106.9 73.23 106.89 73.19 106.89 73.14 106.89 73.1 106.88 73.07 106.88 73.03 106.88 73 106.88 72.98 106.87 72.96 106.87 72.94 106.87 72.92 106.87 72.91 106.87 72.9 106.87 72.89 106.87 72.87 106.86 72.84 106.86 72.81 106.86 72.78 106.85 72.73 106.85 72.69 106.85 72.64 106.84 72.58 106.83 72.51 106.83 72.45 106.82 72.38 106.82 72.3 106.81 72.22 106.81 72.14 106.8 72.05 106.8 71.95 106.79 71.85 106.79 71.75 106.78 71.65 106.77 71.54 106.77 71.42 106.76 71.31 106.76 71.19 106.75 71.06 106.75 70.93 106.74 70.8 106.74 70.66 106.73 70.51 106.73 70.36 106.73 70.22 106.72 70.07 106.72 69.92 106.72 69.76 106.72 69.65"/><line class="cls-1" x1="106.72" y1="69.64" x2="106.32" y2="25.57"/><polyline class="cls-1" points="106.32 25.57 106.32 25.52 106.31 25.38 106.31 25.25 106.31 25.11 106.3 24.97 106.3 24.84 106.29 24.7 106.29 24.55 106.28 24.41 106.27 24.26 106.26 24.12 106.25 24"/><polyline class="cls-1" points="106.25 23.99 106.23 23.91 106.2 23.81 106.17 23.71 106.15 23.61 106.12 23.52 106.1 23.46 106.09 23.41 106.08 23.36 106.06 23.32 106.05 23.28 106.05 23.25 106.04 23.22 106.03 23.19 106.02 23.16 106.01 23.12 105.99 23.08 105.98 23.04 105.97 23 105.95 22.97 105.95 22.93 105.93 22.89 105.92 22.85 105.91 22.8 105.89 22.76 105.87 22.7 105.86 22.65 105.83 22.59 105.82 22.53 105.8 22.48 105.78 22.43 105.76 22.38 105.75 22.33 105.73 22.28 105.71 22.23 105.69 22.18 105.67 22.13 105.67 22.11 105.66 22.08 105.64 22.05 105.64 22.04 105.63 22.01 105.62 21.99 105.61 21.96 105.6 21.94 105.59 21.91 105.58 21.88 105.56 21.85 105.55 21.82 105.54 21.78 105.52 21.74 105.51 21.71 105.49 21.67 105.47 21.63 105.47 21.62 105.46 21.61 105.46 21.59 105.45 21.58 105.44 21.57 105.44 21.55 105.43 21.54 105.43 21.53 105.42 21.51 105.41 21.49 105.4 21.48 105.4 21.46 105.39 21.45 105.39 21.44 105.38 21.43 105.38 21.42 105.38 21.42 105.37 21.4 105.37 21.39 105.36 21.38 105.35 21.37 105.35 21.36 105.34 21.35 105.34 21.34 105.34 21.34 105.33 21.32 105.32 21.31 105.32 21.3 105.31 21.29 105.31 21.28 105.31 21.27 105.3 21.26 105.29 21.25 105.29 21.24 105.28 21.23 105.28 21.22 105.27 21.21 105.27 21.2 105.26 21.19 105.26 21.18 105.25 21.17 105.25 21.16 105.24 21.15 105.23 21.14 105.23 21.13 105.23 21.12 105.22 21.12 105.22 21.11 105.21 21.1 105.21 21.1 105.2 21.08 105.2 21.07 105.19 21.06 105.18 21.05 105.18 21.04 105.17 21.03 105.16 21.02 105.16 21 105.15 20.99 105.14 20.97 105.13 20.96 105.12 20.95 105.11 20.93 105.1 20.92 105.09 20.9 105.08 20.89 105.07 20.87 105.06 20.86 105.05 20.84 105.03 20.81 105.01 20.79 105 20.77 104.99 20.75 104.98 20.74 104.97 20.73 104.96 20.72 104.94 20.7 104.93 20.68 104.92 20.67 104.9 20.65 104.89 20.64 104.88 20.62 104.87 20.61 104.86 20.61 104.86 20.6 104.85 20.59 104.84 20.59 104.83 20.57 104.82 20.57 104.81 20.55 104.8 20.55 104.8 20.54 104.79 20.54 104.79 20.54 104.79 20.53 104.78 20.52 104.77 20.52 104.76 20.51 104.76 20.5 104.75 20.5 104.75 20.5 104.74 20.49 104.74 20.48 104.73 20.48 104.72 20.48 104.71 20.47 104.71 20.46 104.7 20.45 104.69 20.45 104.69 20.45 104.68 20.43 104.67 20.43 104.66 20.43 104.65 20.41 104.65 20.41 104.64 20.41 104.63 20.4 104.62 20.39 104.61 20.39 104.6 20.39 104.6 20.38 104.59 20.38 104.58 20.37 104.57 20.36 104.57 20.36"/><line class="cls-1" x1="104.57" y1="20.36" x2="99.47" y2="17.17"/><line class="cls-1" x1="103.74" y1="95" x2="148.31" y2="94.66"/><line class="cls-1" x1="161.89" y1="84.66" x2="155.78" y2="74.71"/><line class="cls-1" x1="154.72" y1="74.22" x2="107.07" y2="74.58"/><line class="cls-1" x1="76.51" y1="74.81" x2="65.13" y2="74.9"/><line class="cls-1" x1="155.45" y1="74.45" x2="154.87" y2="74.24"/><line class="cls-1" x1="84.29" y1="103.54" x2="143.69" y2="103.09"/><path class="cls-1" d="M75.32,90.75a.72.72,0,0,0-.34-.26"/><line class="cls-1" x1="86.45" y1="106.63" x2="75.32" y2="90.75"/><line class="cls-1" x1="74.97" y1="90.49" x2="72.04" y2="89.44"/><line class="cls-1" x1="64.38" y1="86.7" x2="54.66" y2="83.23"/><path class="cls-1" d="M72.89,107.71a.85.85,0,0,0,.28,0"/><line class="cls-1" x1="52.58" y1="100.45" x2="56.68" y2="101.91"/><line class="cls-1" x1="68.23" y1="106.04" x2="72.89" y2="107.71"/><line class="cls-1" x1="84.47" y1="110.07" x2="85.88" y2="110.05"/><path class="cls-1" d="M86.58,107a.72.72,0,0,0-.13-.4"/><line class="cls-1" x1="86.58" y1="109.33" x2="86.58" y2="107.03"/><path class="cls-1" d="M85.88,110a.72.72,0,0,0,.66-.48"/><path class="cls-1" d="M86.54,109.57a.66.66,0,0,0,0-.24"/><path class="cls-1" d="M52.79,83.21a.71.71,0,0,0-.66.47"/><path class="cls-1" d="M52.14,83.69a.67.67,0,0,0,0,.24"/><line class="cls-1" x1="52.1" y1="83.93" x2="52.05" y2="99.69"/><line class="cls-1" x1="54.46" y1="83.19" x2="52.79" y2="83.21"/><path class="cls-1" d="M54.66,83.23a.57.57,0,0,0-.2,0"/><path class="cls-1" d="M52.05,99.69a.8.8,0,0,0,.53.76"/><path class="cls-1" d="M74,118a1.52,1.52,0,0,0,.5.08"/><line class="cls-1" x1="74.54" y1="118.1" x2="83.1" y2="118.04"/><line class="cls-1" x1="84.53" y1="116.6" x2="84.54" y2="110.07"/><path class="cls-1" d="M83.1,118a1.44,1.44,0,0,0,1.43-1.44"/><line class="cls-1" x1="53.96" y1="110.84" x2="56.65" y2="111.8"/><line class="cls-1" x1="58.5" y1="112.47" x2="66.18" y2="115.21"/><line class="cls-1" x1="68.03" y1="115.87" x2="74.05" y2="118.02"/><path class="cls-1" d="M53,100.62a1.31,1.31,0,0,0,0,.2"/><line class="cls-1" x1="53.03" y1="100.82" x2="53.01" y2="109.48"/><path class="cls-1" d="M53,109.48a1.45,1.45,0,0,0,.7,1.24"/><path class="cls-1" d="M53.7,110.72a1.18,1.18,0,0,0,.26.12"/><line class="cls-1" x1="142.15" y1="109.39" x2="150.66" y2="109.32"/><line class="cls-1" x1="150.72" y1="106.81" x2="150.84" y2="106.81"/><line class="cls-1" x1="161.72" y1="106.73" x2="161.85" y2="106.73"/><polyline class="cls-1" points="162.95 92.54 162.95 92.5 162.95 92.44 162.95 92.39 162.94 92.33 162.94 92.27 162.93 92.21 162.92 92.15 162.91 92.09 162.9 92.03 162.89 91.97 162.88 91.92 162.87 91.86 162.85 91.8 162.84 91.74 162.82 91.69 162.8 91.63 162.78 91.57 162.76 91.52 162.74 91.46 162.71 91.41 162.69 91.35 162.66 91.3 162.63 91.25 162.61 91.19 162.57 91.14 162.54 91.09 162.51 91.04 162.48 90.99 162.45 90.94 162.41 90.89 162.37 90.84 162.34 90.8 162.3 90.75 162.26 90.7 162.22 90.66 162.18 90.62 162.13 90.57 162.09 90.53 162.04 90.49 162 90.45 161.96 90.41 161.91 90.38 161.86 90.33 161.81 90.3 161.76 90.27 161.71 90.23 161.66 90.2 161.61 90.17 161.55 90.14 161.5 90.11 161.45 90.08 161.39 90.06 161.34 90.03 161.28 90 161.23 89.98 161.21 89.97"/><line class="cls-1" x1="161.15" y1="89.95" x2="157.87" y2="88.78"/><line class="cls-1" x1="162.91" y1="105.91" x2="162.95" y2="92.54"/><line class="cls-1" x1="161.86" y1="106.73" x2="162.05" y2="106.62"/><line class="cls-1" x1="162.05" y1="106.62" x2="162.21" y2="106.62"/><path class="cls-1" d="M162.21,106.62a.7.7,0,0,0,.66-.47"/><path class="cls-1" d="M162.87,106.15a.63.63,0,0,0,0-.24"/><line class="cls-1" x1="119.47" y1="118.52" x2="139.12" y2="125.54"/><path class="cls-1" d="M151.46,117.43a1.4,1.4,0,0,0,.5.09"/><line class="cls-1" x1="151.95" y1="117.51" x2="160.51" y2="117.45"/><path class="cls-1" d="M162,107.34a1.44,1.44,0,0,0-.14-.61"/><line class="cls-1" x1="161.94" y1="116.01" x2="161.97" y2="107.35"/><line class="cls-1" x1="146.08" y1="115.48" x2="151.46" y2="117.43"/><path class="cls-1" d="M160.51,117.45a1.43,1.43,0,0,0,1.43-1.43"/><line class="cls-1" x1="135.52" y1="124.25" x2="135.44" y2="150.53"/><line class="cls-1" x1="56.64" y1="112.81" x2="56.53" y2="151.02"/><line class="cls-1" x1="158.77" y1="154.4" x2="158.88" y2="117.46"/><line class="cls-1" x1="66.18" y1="116.22" x2="66.07" y2="154.43"/><line class="cls-1" x1="79.86" y1="154.9" x2="79.96" y2="118.06"/><line class="cls-1" x1="152.29" y1="174.48" x2="79.76" y2="175.03"/><line class="cls-1" x1="78.38" y1="169.43" x2="152.3" y2="168.87"/><line class="cls-1" x1="152.3" y1="168.87" x2="152.29" y2="174.48"/><line class="cls-1" x1="72.59" y1="167.36" x2="78.38" y2="169.43"/><line class="cls-1" x1="150.16" y1="221.45" x2="150.15" y2="227.06"/><line class="cls-1" x1="150.15" y1="227.06" x2="79.08" y2="227.6"/><line class="cls-1" x1="76.24" y1="222.02" x2="150.16" y2="221.45"/><line class="cls-1" x1="63.02" y1="218.3" x2="66.99" y2="219.72"/><line class="cls-1" x1="73.47" y1="222.04" x2="73.61" y2="175.59"/><line class="cls-1" x1="153.06" y1="174.75" x2="152.93" y2="221.43"/><line class="cls-1" x1="63.02" y1="218.3" x2="63.15" y2="172.64"/><line class="cls-1" x1="63.02" y1="218.3" x2="57.48" y2="218.35"/><line class="cls-1" x1="57.48" y1="218.35" x2="56.53" y2="218.01"/><line class="cls-1" x1="56.53" y1="218.01" x2="56.67" y2="170.32"/><line class="cls-1" x1="57.62" y1="170.66" x2="56.67" y2="170.32"/><line class="cls-1" x1="66.98" y1="221.74" x2="67.93" y2="222.08"/><line class="cls-1" x1="66.98" y1="221.74" x2="67.12" y2="174.05"/><line class="cls-1" x1="67.12" y1="174.05" x2="68.07" y2="174.39"/><line class="cls-1" x1="73.47" y1="222.04" x2="73.61" y2="175.59"/><line class="cls-1" x1="152.93" y1="221.43" x2="153.06" y2="174.75"/><line class="cls-1" x1="158.47" y1="221.39" x2="158.61" y2="174.94"/><line class="cls-1" x1="159.14" y1="233.98" x2="159.16" y2="228.04"/><line class="cls-1" x1="157.96" y1="231.28" x2="157.97" y2="228.04"/><polyline class="cls-1" points="153.43 237.3 153.43 237.35 153.44 237.39 153.44 237.44 153.44 237.48 153.44 237.52 153.45 237.56 153.46 237.6 153.46 237.64 153.47 237.68 153.47 237.72 153.47 237.75 153.48 237.78 153.49 237.82 153.49 237.85 153.5 237.88 153.5 237.91 153.51 237.94 153.51 237.97 153.53 238 153.53 238.03 153.53 238.05 153.54 238.07 153.55 238.1 153.56 238.12 153.56 238.14 153.57 238.16 153.58 238.17 153.59 238.19 153.6 238.2 153.6 238.21 153.61 238.22 153.62 238.23 153.63 238.24 153.64 238.24 153.64 238.25 153.65 238.25 153.66 238.25 153.67 238.25 153.68 238.25 153.68 238.25 153.69 238.24 153.69 238.24"/><line class="cls-1" x1="153.23" y1="234.27" x2="153.43" y2="237.3"/><line class="cls-1" x1="153.24" y1="228.08" x2="153.23" y2="234.27"/><line class="cls-1" x1="154.43" y1="228.07" x2="154.41" y2="234.19"/><line class="cls-1" x1="154.41" y1="234.19" x2="154.2" y2="237.41"/><polyline class="cls-1" points="154.2 237.41 154.2 237.45 154.19 237.49 154.19 237.53 154.18 237.57 154.18 237.61 154.18 237.65 154.17 237.69 154.17 237.72 154.16 237.76 154.16 237.8 154.15 237.83 154.15 237.87 154.14 237.9 154.14 237.93 154.13 237.96 154.12 237.98 154.12 238.01 154.11 238.03 154.11 238.06 154.1 238.08 154.09 238.1 154.08 238.13 154.08 238.14 154.07 238.16 154.06 238.18 154.05 238.19 154.05 238.2 154.04 238.21 154.03 238.23 154.02 238.23 154.02 238.24 154.01 238.25 154 238.25 153.99 238.25 153.99 238.25"/><polyline class="cls-1" points="153.06 236.51 153.06 236.37 153.06 236.22 153.06 236.08 153.07 235.93 153.07 235.79 153.07 235.65 153.08 235.51 153.08 235.37 153.09 235.23 153.09 235.09 153.1 234.96 153.11 234.82 153.12 234.69 153.13 234.56 153.14 234.43 153.15 234.29 153.16 234.16 153.17 234.04 153.18 233.92 153.19 233.79 153.2 233.67 153.22 233.56 153.23 233.47"/><polyline class="cls-1" points="154.42 232.02 154.43 232.08 154.46 232.15 154.48 232.23 154.5 232.31 154.52 232.39 154.54 232.48 154.56 232.57 154.58 232.66 154.59 232.76 154.61 232.86 154.63 232.97 154.65 233.06 154.67 233.18 154.68 233.29 154.7 233.4 154.71 233.51 154.73 233.63 154.74 233.75 154.76 233.87 154.77 233.99 154.79 234.12 154.8 234.24 154.81 234.37 154.82 234.5 154.83 234.63 154.84 234.77 154.85 234.9 154.86 235.04 154.87 235.18 154.88 235.32 154.89 235.45 154.89 235.6 154.9 235.74 154.91 235.88 154.91 236.03 154.92 236.16 154.92 236.31 154.92 236.46 154.92 236.6 154.93 236.75 154.93 236.89 154.93 237.03 154.93 237.18 154.93 237.32 154.93 237.46 154.92 237.61 154.92 237.75 154.92 237.9 154.91 238.04 154.91 238.18 154.9 238.32 154.9 238.46 154.89 238.6 154.89 238.73 154.88 238.87 154.87 239 154.86 239.13 154.85 239.26 154.84 239.39 154.83 239.52 154.82 239.65 154.81 239.77 154.8 239.9 154.78 240.01 154.77 240.13 154.75 240.25 154.74 240.36 154.73 240.47 154.71 240.58 154.69 240.68 154.68 240.78 154.66 240.89 154.64 240.98 154.63 241.08 154.61 241.17 154.59 241.26 154.57 241.34 154.55 241.43 154.53 241.51 154.51 241.59 154.49 241.66 154.47 241.73 154.45 241.79 154.43 241.86 154.4 241.92 154.38 241.97 154.36 242.02 154.34 242.07 154.31 242.12 154.29 242.16 154.27 242.2 154.25 242.23 154.22 242.26 154.2 242.29 154.17 242.31 154.15 242.33 154.13 242.35 154.1 242.36 154.08 242.37 154.05 242.37 154.03 242.37 154 242.37 153.98 242.36 153.96 242.35 153.93 242.34 153.91 242.32 153.88 242.3 153.86 242.27 153.84 242.25 153.81 242.21 153.79 242.17 153.76 242.14 153.74 242.09 153.72 242.04 153.69 241.99 153.67 241.94 153.65 241.88 153.62 241.82 153.6 241.75 153.58 241.69 153.56 241.61 153.53 241.53 153.51 241.46 153.5 241.38 153.47 241.29 153.45 241.2 153.43 241.11 153.41 241.02 153.4 240.92 153.38 240.83 153.35 240.72 153.34 240.62 153.32 240.51 153.31 240.4 153.29 240.29 153.27 240.18 153.26 240.06 153.25 239.94 153.23 239.82 153.21 239.69 153.2 239.57 153.19 239.44 153.18 239.31 153.17 239.18 153.15 239.05 153.14 238.92 153.13 238.79 153.12 238.65 153.11 238.51 153.11 238.37 153.1 238.23 153.09 238.09 153.09 237.95 153.08 237.81 153.08 237.66 153.07 237.52 153.07 237.38 153.07 237.23 153.06 237.09 153.06 236.94 153.06 236.8 153.06 236.66 153.06 236.51"/><polyline class="cls-1" points="158.31 231.28 158.32 231.28 158.35 231.28 158.37 231.29 158.4 231.3 158.42 231.32 158.44 231.33 158.47 231.35 158.5 231.38 158.52 231.41 158.54 231.44 158.56 231.48 158.59 231.52 158.62 231.56 158.64 231.61 158.66 231.66 158.69 231.72 158.71 231.77 158.73 231.84 158.75 231.9 158.78 231.97 158.79 232.04 158.82 232.12 158.84 232.19 158.86 232.28 158.88 232.36 158.9 232.45 158.92 232.54 158.94 232.63 158.96 232.73 158.98 232.83 159 232.93 159.01 233.04 159.03 233.14 159.05 233.25 159.06 233.36 159.08 233.48 159.09 233.59 159.11 233.72 159.12 233.84 159.14 233.96 159.15 234.08 159.16 234.21 159.18 234.34 159.19 234.47 159.2 234.6 159.21 234.74 159.22 234.87 159.23 235.01 159.24 235.14 159.24 235.28 159.25 235.42 159.26 235.56 159.27 235.7 159.27 235.84 159.28 235.99 159.28 236.13 159.28 236.28 159.29 236.42 159.29 236.57 159.29 236.71 159.29 236.86 159.29 237 159.29 237.15 159.29 237.29 159.29 237.43 159.29 237.58 159.29 237.72 159.28 237.86 159.28 238 159.27 238.15 159.27 238.29 159.26 238.43 159.26 238.56 159.25 238.7 159.24 238.83 159.23 238.97 159.22 239.1 159.22 239.23 159.21 239.36 159.2 239.49 159.18 239.62 159.17 239.74 159.16 239.86 159.15 239.98 159.13 240.1 159.12 240.21 159.1 240.33 159.09 240.44 159.08 240.54 159.06 240.65 159.04 240.75 159.02 240.85 159.01 240.95 158.99 241.04 158.97 241.14 158.95 241.22 158.93 241.31 158.91 241.4 158.9 241.47 158.88 241.55 158.86 241.62 158.83 241.69 158.81 241.76 158.79 241.82 158.77 241.88 158.75 241.94 158.72 241.99 158.7 242.04 158.68 242.09 158.66 242.13 158.63 242.16 158.6 242.2 158.59 242.23 158.56 242.26 158.53 242.28 158.51 242.3 158.49 242.32 158.46 242.33 158.44 242.34 158.41 242.34 158.4 242.34"/><polyline class="cls-1" points="76.08 231.91 76.09 231.91 76.12 231.91 76.14 231.92 76.17 231.93 76.19 231.94 76.22 231.96 76.24 231.98 76.26 232.01 76.29 232.04 76.31 232.07 76.34 232.1 76.36 232.15 76.38 232.19 76.41 232.24 76.43 232.29 76.45 232.34 76.48 232.4 76.5 232.46 76.52 232.53 76.54 232.59 76.56 232.67 76.59 232.75 76.61 232.82 76.63 232.91 76.65 232.99 76.67 233.08 76.69 233.17 76.71 233.26 76.72 233.36 76.75 233.46 76.76 233.56 76.78 233.66 76.8 233.77 76.81 233.88 76.83 233.99 76.85 234.1 76.87 234.22 76.88 234.34 76.89 234.46 76.91 234.59 76.92 234.71 76.93 234.84 76.94 234.97 76.95 235.1 76.97 235.23 76.98 235.36 76.99 235.5 77 235.63 77 235.77 77.02 235.91 77.02 236.05 77.03 236.19 77.04 236.33 77.04 236.47 77.05 236.62 77.05 236.76 77.06 236.9 77.06 237.05 77.06 237.19 77.06 237.34 77.06 237.48 77.07 237.62 77.07 237.77 77.06 237.91 77.06 238.06 77.06 238.2 77.06 238.35 77.06 238.49 77.05 238.63 77.04 238.77 77.04 238.91 77.03 239.05 77.03 239.19 77.02 239.32 77.01 239.46 77 239.59 77 239.73 76.98 239.86 76.98 239.99 76.97 240.12 76.95 240.24 76.94 240.37 76.93 240.49 76.92 240.61 76.91 240.72 76.89 240.84 76.88 240.95 76.86 241.06 76.84 241.17 76.83 241.28 76.81 241.38 76.8 241.48 76.78 241.58 76.76 241.67 76.75 241.77 76.72 241.85 76.7 241.94 76.69 242.02 76.67 242.1 76.64 242.18 76.62 242.25 76.6 242.32 76.58 242.39 76.56 242.45 76.54 242.51 76.52 242.56 76.49 242.62 76.47 242.66 76.45 242.71 76.42 242.75 76.4 242.79 76.38 242.83 76.35 242.86 76.33 242.88 76.31 242.91 76.28 242.93 76.26 242.94 76.23 242.96 76.21 242.96 76.18 242.97 76.17 242.97"/><polyline class="cls-1" points="70.83 237.14 70.83 236.99 70.83 236.85 70.84 236.71 70.84 236.56 70.84 236.41 70.84 236.28 70.85 236.13 70.85 235.99 70.86 235.86 70.87 235.72 70.87 235.58 70.88 235.45 70.89 235.31 70.9 235.18 70.91 235.05 70.92 234.92 70.93 234.79 70.94 234.66 70.95 234.54 70.96 234.42 70.98 234.3 70.99 234.18 71 234.09"/><polyline class="cls-1" points="72.19 232.65 72.2 232.71 72.23 232.78 72.25 232.85 72.27 232.94 72.29 233.02 72.31 233.11 72.33 233.2 72.35 233.29 72.37 233.39 72.39 233.49 72.4 233.59 72.42 233.69 72.44 233.8 72.46 233.91 72.47 234.02 72.49 234.14 72.5 234.25 72.52 234.38 72.53 234.5 72.54 234.62 72.56 234.75 72.57 234.87 72.58 235 72.59 235.13 72.61 235.26 72.62 235.39 72.63 235.53 72.63 235.66 72.64 235.8 72.65 235.94 72.66 236.08 72.66 236.22 72.67 236.37 72.68 236.51 72.68 236.65 72.69 236.79 72.69 236.94 72.69 237.08 72.7 237.22 72.7 237.37 72.7 237.51 72.7 237.66 72.7 237.81 72.7 237.95 72.7 238.09 72.7 238.24 72.69 238.38 72.69 238.52 72.69 238.66 72.68 238.81 72.68 238.94 72.67 239.08 72.66 239.22 72.66 239.36 72.65 239.5 72.64 239.63 72.63 239.76 72.62 239.89 72.61 240.02 72.6 240.15 72.59 240.28 72.58 240.4 72.57 240.52 72.55 240.64 72.54 240.76 72.53 240.87 72.51 240.98 72.5 241.09 72.48 241.2 72.47 241.31 72.45 241.41 72.43 241.51 72.42 241.61 72.4 241.71 72.38 241.8 72.36 241.89 72.34 241.97 72.32 242.05 72.3 242.13 72.28 242.21 72.26 242.28 72.24 242.35 72.22 242.42 72.2 242.48 72.18 242.54 72.16 242.6 72.13 242.65 72.11 242.7 72.09 242.74 72.06 242.78 72.04 242.82 72.02 242.86 71.99 242.89 71.97 242.91 71.94 242.94 71.92 242.96 71.9 242.97 71.87 242.99 71.85 243 71.83 243 71.8 243 71.78 243 71.75 242.99 71.72 242.98 71.7 242.97 71.67 242.95 71.65 242.92 71.63 242.9 71.61 242.87 71.58 242.84 71.56 242.8 71.53 242.76 71.51 242.71 71.48 242.67 71.46 242.62 71.44 242.56 71.41 242.5 71.39 242.44 71.37 242.38 71.35 242.31 71.33 242.24 71.3 242.16 71.28 242.08 71.26 242 71.24 241.92 71.22 241.83 71.2 241.74 71.18 241.65 71.16 241.55 71.14 241.46 71.13 241.35 71.11 241.25 71.09 241.14 71.08 241.03 71.06 240.92 71.04 240.8 71.03 240.68 71.01 240.57 71 240.45 70.99 240.32 70.97 240.2 70.96 240.07 70.95 239.94 70.94 239.81 70.92 239.68 70.91 239.54 70.9 239.41 70.9 239.27 70.89 239.14 70.88 239 70.87 238.86 70.87 238.72 70.86 238.58 70.85 238.43 70.85 238.29 70.84 238.15 70.84 238 70.84 237.86 70.83 237.72 70.83 237.57 70.83 237.42 70.83 237.28 70.83 237.14"/><line class="cls-1" x1="76.91" y1="234.61" x2="76.93" y2="228.66"/><line class="cls-1" x1="75.73" y1="231.91" x2="75.75" y2="228.67"/><line class="cls-1" x1="72.2" y1="228.7" x2="72.18" y2="234.82"/><polyline class="cls-1" points="71.2 237.93 71.2 237.97 71.2 238.02 71.21 238.06 71.21 238.1 71.22 238.15 71.22 238.19 71.22 238.23 71.23 238.27 71.23 238.31 71.24 238.34 71.24 238.38 71.25 238.41 71.25 238.45 71.26 238.48 71.27 238.51 71.27 238.54 71.28 238.57 71.28 238.6 71.29 238.63 71.3 238.65 71.3 238.68 71.31 238.7 71.32 238.73 71.33 238.75 71.33 238.76 71.34 238.78 71.35 238.8 71.36 238.81 71.36 238.83 71.37 238.84 71.38 238.85 71.39 238.86 71.39 238.86 71.4 238.87 71.41 238.87 71.42 238.88 71.43 238.88 71.44 238.88 71.44 238.88 71.45 238.87 71.46 238.87 71.47 238.86 71.47 238.85 71.48 238.84"/><line class="cls-1" x1="71" y1="234.9" x2="71.2" y2="237.93"/><line class="cls-1" x1="71.02" y1="228.71" x2="71" y2="234.9"/><line class="cls-1" x1="72.18" y1="234.82" x2="71.97" y2="238.03"/><polyline class="cls-1" points="71.97 238.03 71.97 238.07 71.96 238.12 71.96 238.16 71.96 238.2 71.95 238.24 71.94 238.28 71.94 238.32 71.94 238.35 71.93 238.39 71.92 238.42 71.92 238.46 71.92 238.49 71.91 238.52 71.91 238.55 71.9 238.58 71.9 238.61 71.89 238.64 71.88 238.66 71.88 238.69 71.87 238.71 71.86 238.73 71.86 238.75 71.84 238.77 71.84 238.79 71.83 238.8 71.83 238.82 71.81 238.83 71.81 238.84 71.8 238.85 71.8 238.86 71.78 238.87 71.78 238.87 71.77 238.87 71.76 238.88 71.75 238.88"/><polyline class="cls-1" points="139.73 231.75 139.73 231.6 139.73 231.46 139.72 231.32 139.72 231.16 139.72 231.03 139.72 230.88 139.72 230.73 139.71 230.59 139.7 230.45 139.7 230.31 139.69 230.17 139.69 230.03 139.68 229.89 139.67 229.75 139.66 229.61 139.65 229.47 139.65 229.34 139.63 229.21 139.63 229.07 139.61 228.94 139.6 228.81 139.59 228.69 139.57 228.56 139.56 228.44 139.54 228.32 139.53 228.2 139.51 228.08 139.5 227.97 139.48 227.85 139.47 227.75 139.45 227.63 139.43 227.53 139.41 227.43 139.39 227.33 139.37 227.24 139.35 227.15"/><polyline class="cls-1" points="138.03 228.03 138.02 228.13 138 228.24 137.99 228.36 137.98 228.49 137.96 228.61 137.96 228.73 137.94 228.86 137.94 228.99 137.92 229.12 137.92 229.25 137.91 229.39 137.9 229.53 137.89 229.66 137.89 229.8 137.88 229.94 137.88 230.08 137.87 230.22 137.87 230.36 137.87 230.5 137.86 230.65 137.86 230.79 137.86 230.93 137.86 231.08 137.86 231.22 137.86 231.37 137.86 231.52 137.86 231.66 137.87 231.8 137.87 231.95 137.87 232.09 137.87 232.23 137.88 232.38 137.88 232.52 137.89 232.66 137.9 232.8 137.91 232.94 137.91 233.08 137.92 233.22 137.94 233.35 137.94 233.49 137.96 233.62 137.96 233.75 137.97 233.88 137.99 234.01 138 234.14 138.01 234.26 138.03 234.39 138.04 234.51 138.06 234.63 138.07 234.75 138.09 234.86 138.1 234.97 138.12 235.08 138.14 235.19 138.16 235.29 138.18 235.39 138.19 235.49 138.21 235.59 138.23 235.68 138.25 235.77 138.27 235.86 138.29 235.94 138.31 236.03 138.34 236.1 138.36 236.19 138.38 236.25 138.4 236.32 138.42 236.38 138.45 236.45 138.47 236.51 138.49 236.56 138.52 236.62 138.54 236.66 138.56 236.7 138.58 236.75 138.61 236.78 138.63 236.81 138.66 236.85 138.68 236.87 138.7 236.89 138.73 236.91 138.75 236.93 138.78 236.94 138.8 236.94 138.83 236.95 138.85 236.95 138.88 236.94 138.9 236.93 138.92 236.92 138.95 236.9 138.97 236.88 139 236.86 139.02 236.84 139.04 236.8 139.07 236.77 139.09 236.73 139.11 236.69 139.14 236.64 139.16 236.59 139.18 236.54 139.2 236.49 139.22 236.43 139.25 236.36 139.27 236.29 139.29 236.22 139.31 236.16 139.33 236.08 139.35 236 139.37 235.91 139.39 235.83 139.41 235.74 139.42 235.65 139.44 235.55 139.46 235.46 139.48 235.36 139.49 235.25 139.51 235.15 139.52 235.04 139.54 234.93 139.55 234.82 139.57 234.7 139.59 234.59 139.59 234.46 139.61 234.34 139.62 234.22 139.63 234.09 139.64 233.96 139.65 233.84 139.66 233.7 139.67 233.57 139.67 233.44 139.69 233.3 139.69 233.17 139.7 233.03 139.7 232.89 139.71 232.75 139.72 232.6 139.72 232.46 139.72 232.32 139.72 232.18 139.72 232.04 139.73 231.89 139.73 231.75"/><polyline class="cls-1" points="144.09 231.71 144.09 231.57 144.09 231.43 144.09 231.28 144.09 231.13 144.09 230.99 144.08 230.84 144.08 230.7 144.07 230.56 144.07 230.41 144.06 230.27 144.06 230.13 144.05 229.99 144.04 229.85 144.03 229.72 144.03 229.58 144.02 229.44 144.01 229.31 144 229.17 143.99 229.04 143.97 228.91 143.96 228.78 143.95 228.65 143.93 228.53 143.92 228.41 143.91 228.28 143.89 228.17 143.88 228.05 143.86 227.94 143.84 227.82 143.83 227.71 143.81 227.6 143.79 227.5 143.78 227.4 143.76 227.3 143.74 227.2 143.72 227.11"/><polyline class="cls-1" points="143.2 236.91 143.22 236.91 143.24 236.91 143.26 236.9 143.28 236.89 143.31 236.87 143.34 236.85 143.36 236.83 143.38 236.8 143.41 236.77 143.43 236.74 143.45 236.7 143.48 236.66 143.5 236.61 143.52 236.56 143.55 236.51 143.57 236.45 143.59 236.4 143.61 236.33 143.63 236.26 143.65 236.19 143.67 236.12 143.69 236.04 143.71 235.96 143.73 235.88 143.75 235.79 143.77 235.71 143.79 235.61 143.81 235.52 143.82 235.42 143.84 235.32 143.86 235.22 143.87 235.12 143.89 235.01 143.9 234.9 143.92 234.78 143.93 234.67 143.94 234.55 143.96 234.43 143.97 234.31 143.98 234.18 143.99 234.06 144 233.93 144.01 233.8 144.02 233.67 144.03 233.54 144.04 233.41 144.05 233.27 144.06 233.13 144.06 233 144.07 232.85 144.07 232.72 144.08 232.57 144.08 232.43 144.08 232.29 144.09 232.15 144.09 232 144.09 231.86 144.09 231.72"/><line class="cls-1" x1="139.21" y1="229.14" x2="139.21" y2="227.15"/><polyline class="cls-1" points="138.51 232.79 138.5 232.8 138.49 232.81 138.49 232.81 138.48 232.81 138.47 232.82 138.46 232.82 138.46 232.82 138.45 232.82 138.44 232.81 138.43 232.81 138.42 232.81 138.42 232.8 138.41 232.79 138.4 232.78 138.39 232.76 138.38 232.75 138.38 232.73 138.37 232.72 138.36 232.71 138.36 232.69 138.34 232.66 138.34 232.64 138.33 232.62 138.33 232.59 138.32 232.56 138.31 232.53 138.31 232.51 138.3 232.48 138.29 232.44 138.29 232.41 138.28 232.38 138.28 232.35 138.27 232.31 138.27 232.27 138.26 232.24 138.25 232.2 138.25 232.16 138.25 232.12 138.24 232.08 138.24 232.04 138.24 231.99 138.23 231.95 138.23 231.91 138.22 231.86 138.22 231.82"/><line class="cls-1" x1="138.23" y1="231.82" x2="138.03" y2="228.46"/><line class="cls-1" x1="138.03" y1="228.46" x2="138.03" y2="227.16"/><line class="cls-1" x1="138.99" y1="232.03" x2="139.21" y2="229.14"/><polyline class="cls-1" points="138.79 232.82 138.79 232.82 138.8 232.81 138.81 232.81 138.81 232.81 138.82 232.81 138.83 232.79 138.84 232.78 138.84 232.78 138.85 232.76 138.86 232.75 138.86 232.73 138.87 232.72 138.88 232.7 138.89 232.68 138.89 232.65 138.9 232.63 138.91 232.61 138.91 232.58 138.92 232.56 138.93 232.53 138.93 232.5 138.94 232.47 138.94 232.44 138.95 232.41 138.95 232.37 138.96 232.34 138.96 232.3 138.97 232.27 138.97 232.23 138.98 232.19 138.98 232.15 138.99 232.11 138.99 232.07 138.99 232.03"/><line class="cls-1" x1="143.94" y1="227.11" x2="143.94" y2="228.55"/><line class="cls-1" x1="61.72" y1="225.47" x2="61.71" y2="229.18"/><line class="cls-1" x1="60.54" y1="225.05" x2="60.53" y2="226.48"/><line class="cls-1" x1="56.98" y1="229.77" x2="57" y2="223.79"/><polyline class="cls-1" points="56.21 233.45 56.21 233.44 56.2 233.44 56.19 233.43 56.19 233.43 56.18 233.42 56.17 233.41 56.16 233.39 56.15 233.38 56.15 233.36 56.14 233.35 56.13 233.33 56.12 233.31 56.11 233.29 56.11 233.27 56.1 233.24 56.09 233.22 56.09 233.19 56.08 233.17 56.07 233.14 56.07 233.11 56.06 233.08 56.06 233.04 56.05 233 56.05 232.97 56.04 232.94 56.04 232.9 56.03 232.87 56.03 232.82 56.02 232.78 56.01 232.75 56.01 232.71 56.01 232.66 56 232.62 56 232.58 56 232.53 55.99 232.49 55.99 232.45"/><polyline class="cls-1" points="56.28 233.41 56.27 233.43 56.26 233.43 56.25 233.44 56.25 233.44 56.24 233.45"/><line class="cls-1" x1="55.99" y1="232.45" x2="55.8" y2="229.08"/><line class="cls-1" x1="55.8" y1="229.08" x2="55.81" y2="223.37"/><line class="cls-1" x1="56.76" y1="232.65" x2="56.98" y2="229.77"/><polyline class="cls-1" points="56.56 233.45 56.56 233.45 56.57 233.44 56.58 233.44 56.59 233.44 56.59 233.43 56.6 233.42 56.61 233.41 56.62 233.4 56.62 233.39 56.63 233.37 56.64 233.36 56.64 233.34 56.65 233.33 56.66 233.31 56.67 233.28 56.67 233.26 56.68 233.24 56.69 233.21 56.69 233.19 56.7 233.16 56.7 233.13 56.71 233.1 56.72 233.06 56.72 233.04 56.73 233 56.73 232.97 56.74 232.93 56.74 232.9 56.74 232.85 56.75 232.82 56.75 232.78 56.76 232.74 56.76 232.7 56.76 232.66"/><polyline class="cls-1" points="57.5 232.37 57.5 232.23 57.5 232.08 57.5 231.94 57.5 231.79 57.49 231.65 57.49 231.51 57.49 231.36 57.48 231.22 57.48 231.07 57.47 230.93 57.46 230.79 57.46 230.65 57.45 230.51 57.44 230.37 57.43 230.24 57.42 230.1 57.41 229.96 57.4 229.83 57.39 229.7 57.38 229.56 57.37 229.44 57.36 229.31 57.34 229.19 57.33 229.06 57.31 228.94 57.3 228.82 57.29 228.71 57.27 228.59 57.25 228.48 57.24 228.37 57.22 228.26 57.2 228.16 57.18 228.06 57.17 227.96 57.14 227.86 57.13 227.77 57.11 227.68 57.09 227.59 57.07 227.5 57.05 227.42 57.02 227.35 57 227.27 56.99 227.22"/><polyline class="cls-1" points="55.8 228.66 55.79 228.75 55.77 228.87 55.76 228.99 55.75 229.11 55.74 229.23 55.73 229.36 55.72 229.49 55.71 229.62 55.7 229.75 55.69 229.88 55.68 230.02 55.67 230.15 55.67 230.29 55.66 230.43 55.65 230.56 55.65 230.7 55.64 230.85 55.64 230.99 55.63 231.13 55.63 231.28 55.63 231.41 55.63 231.56 55.63 231.71 55.63 231.85 55.63 232 55.63 232.14 55.63 232.28 55.63 232.43 55.64 232.57 55.64 232.72 55.64 232.86 55.65 233 55.65 233.15 55.66 233.29 55.67 233.43 55.68 233.57 55.69 233.71 55.69 233.84 55.7 233.98 55.71 234.11 55.72 234.25 55.73 234.38 55.74 234.51 55.76 234.64 55.77 234.77 55.78 234.89 55.8 235.02 55.81 235.14 55.83 235.26 55.84 235.37 55.86 235.49 55.87 235.6 55.89 235.71 55.91 235.81 55.93 235.92 55.94 236.02 55.96 236.12 55.98 236.22 56 236.31 56.02 236.4 56.04 236.49 56.06 236.57 56.08 236.66 56.1 236.73 56.12 236.81 56.15 236.88 56.17 236.95 56.19 237.01 56.21 237.08 56.24 237.13 56.26 237.19 56.28 237.24 56.31 237.29 56.33 237.33 56.35 237.37 56.38 237.41 56.4 237.44 56.42 237.47 56.45 237.5 56.48 237.52 56.5 237.53 56.52 237.55 56.55 237.56 56.57 237.57 56.6 237.57 56.62 237.57 56.65 237.57 56.67 237.56 56.7 237.54 56.72 237.53 56.75 237.51 56.77 237.49 56.79 237.46 56.81 237.43 56.84 237.39 56.86 237.36 56.89 237.31 56.91 237.27 56.93 237.22 56.95 237.17 56.98 237.11 57 237.05 57.02 236.99 57.04 236.92 57.06 236.85 57.08 236.78 57.1 236.71 57.12 236.63 57.14 236.54 57.16 236.46 57.18 236.37 57.2 236.28 57.21 236.18 57.23 236.09 57.25 235.98 57.27 235.88 57.28 235.77 57.3 235.67 57.31 235.56 57.33 235.44 57.34 235.33 57.35 235.21 57.36 235.09 57.38 234.97 57.39 234.85 57.4 234.72 57.41 234.59 57.42 234.47 57.43 234.33 57.44 234.2 57.45 234.06 57.45 233.93 57.46 233.79 57.47 233.65 57.48 233.52 57.48 233.37 57.49 233.23 57.49 233.09 57.49 232.95 57.49 232.81 57.5 232.66 57.5 232.52 57.5 232.37"/><polyline class="cls-1" points="61.86 232.34 61.86 232.2 61.86 232.05 61.86 231.91 61.86 231.76 61.86 231.62 61.85 231.47 61.85 231.33 61.84 231.19 61.84 231.04 61.83 230.9 61.83 230.76 61.82 230.62 61.81 230.48 61.8 230.34 61.8 230.2 61.79 230.07 61.78 229.93 61.77 229.8 61.76 229.67 61.74 229.54 61.73 229.41 61.72 229.28 61.71 229.15 61.69 229.03 61.67 228.91 61.67 228.79 61.65 228.67 61.63 228.56 61.62 228.45 61.6 228.34 61.58 228.23 61.56 228.13 61.55 228.03 61.52 227.93 61.51 227.83 61.49 227.74 61.47 227.65 61.45 227.56 61.42 227.47 61.41 227.39 61.38 227.31 61.37 227.24 61.34 227.17 61.32 227.1 61.3 227.03 61.27 226.97 61.25 226.91 61.23 226.86 61.2 226.81 61.18 226.76 61.16 226.72 61.13 226.67 61.11 226.64 61.09 226.61 61.06 226.58 61.04 226.55 61.01 226.53 60.99 226.51 60.96 226.5 60.94 226.49 60.92 226.48 60.89 226.48 60.88 226.48"/><polyline class="cls-1" points="60.97 237.54 60.98 237.54 61.01 237.53 61.03 237.52 61.06 237.51 61.08 237.5 61.1 237.48 61.13 237.45 61.15 237.42 61.17 237.39 61.2 237.36 61.22 237.32 61.24 237.28 61.27 237.24 61.29 237.19 61.31 237.14 61.34 237.08 61.36 237.02 61.38 236.96 61.4 236.89 61.42 236.82 61.45 236.75 61.47 236.67 61.48 236.59 61.5 236.51 61.52 236.42 61.54 236.34 61.56 236.24 61.58 236.14 61.6 236.05 61.61 235.95 61.63 235.85 61.65 235.74 61.66 235.63 61.67 235.52 61.69 235.41 61.7 235.29 61.72 235.18 61.73 235.06 61.74 234.94 61.75 234.81 61.77 234.69 61.78 234.56 61.79 234.43 61.79 234.3 61.8 234.16 61.81 234.03 61.82 233.89 61.83 233.76 61.83 233.62 61.84 233.48 61.84 233.34 61.85 233.2 61.85 233.06 61.86 232.91 61.86 232.78 61.86 232.63 61.86 232.48 61.86 232.34"/><line class="cls-1" x1="153.01" y1="222.47" x2="150.16" y2="221.45"/><line class="cls-1" x1="161.32" y1="222.41" x2="158.47" y2="221.39"/><line class="cls-1" x1="161.32" y1="222.41" x2="153.01" y2="222.47"/><line class="cls-1" x1="153" y1="228.08" x2="150.15" y2="227.06"/><line class="cls-1" x1="153.01" y1="222.47" x2="153" y2="228.08"/><line class="cls-1" x1="153" y1="228.08" x2="161.3" y2="228.02"/><line class="cls-1" x1="161.31" y1="228.02" x2="161.32" y2="222.41"/><line class="cls-1" x1="70.78" y1="223.1" x2="79.09" y2="223.03"/><line class="cls-1" x1="79.09" y1="223.04" x2="79.08" y2="228.64"/><line class="cls-1" x1="79.08" y1="228.64" x2="70.77" y2="228.71"/><line class="cls-1" x1="70.77" y1="228.71" x2="70.78" y2="223.1"/><line class="cls-1" x1="70.77" y1="228.71" x2="53.67" y2="222.6"/><line class="cls-1" x1="53.68" y1="216.99" x2="53.67" y2="222.6"/><line class="cls-1" x1="70.78" y1="223.1" x2="53.68" y2="216.99"/><line class="cls-1" x1="56.53" y1="216.97" x2="53.68" y2="216.99"/><line class="cls-1" x1="79.09" y1="223.04" x2="76.24" y2="222.01"/><line class="cls-1" x1="71.47" y1="169.99" x2="53.3" y2="163.5"/><line class="cls-1" x1="71.45" y1="175.6" x2="71.47" y2="169.99"/><line class="cls-1" x1="71.45" y1="175.6" x2="53.28" y2="169.11"/><line class="cls-1" x1="53.28" y1="169.11" x2="53.3" y2="163.5"/><line class="cls-1" x1="79.78" y1="169.93" x2="79.76" y2="175.54"/><line class="cls-1" x1="79.76" y1="175.54" x2="71.45" y2="175.6"/><line class="cls-1" x1="71.47" y1="169.99" x2="79.78" y2="169.93"/><line class="cls-1" x1="53.3" y1="163.5" x2="58.72" y2="163.46"/><line class="cls-1" x1="161.99" y1="174.91" x2="162.01" y2="169.3"/><line class="cls-1" x1="153.68" y1="174.97" x2="161.99" y2="174.91"/><line class="cls-1" x1="153.7" y1="169.36" x2="153.68" y2="174.97"/><line class="cls-1" x1="162.01" y1="169.3" x2="153.7" y2="169.37"/><line class="cls-1" x1="153.7" y1="169.36" x2="146.98" y2="166.68"/><line class="cls-1" x1="153.68" y1="174.97" x2="152.29" y2="174.48"/><line class="cls-1" x1="162.01" y1="169.3" x2="154.82" y2="166.74"/><line class="cls-1" x1="98.78" y1="109.59" x2="98.79" y2="103.79"/><line class="cls-1" x1="98.78" y1="109.59" x2="92.24" y2="109.8"/><line class="cls-1" x1="92.25" y1="104" x2="92.24" y2="109.8"/><line class="cls-1" x1="92.24" y1="109.8" x2="91.12" y2="108.12"/><line class="cls-1" x1="91.12" y1="108.12" x2="91.12" y2="104.04"/><polyline class="cls-1" points="82.6 78.25 82.63 78.41 82.66 78.57 82.69 78.74 82.72 78.91 82.74 79.08 82.77 79.26 82.79 79.43 82.81 79.6 82.84 79.78 82.86 79.96 82.88 80.14 82.9 80.33 82.91 80.52 82.93 80.71 82.95 80.9 82.97 81.1 82.98 81.29 83 81.48 83.01 81.69 83.02 81.89 83.04 82.09 83.05 82.3 83.06 82.5 83.07 82.71 83.08 82.92 83.09 83.13 83.1 83.34 83.1 83.55 83.11 83.76 83.11 83.97 83.12 84.19 83.12 84.4 83.12 84.62 83.13 84.83 83.13 85.05 83.13 85.27"/><polyline class="cls-1" points="91.31 97.3 91.45 97.36 91.47 97.36"/><line class="cls-1" x1="83.13" y1="85.27" x2="83.13" y2="85.45"/><line class="cls-1" x1="82.46" y1="84.67" x2="82.46" y2="85.21"/><line class="cls-1" x1="75.58" y1="74.23" x2="76.33" y2="74.5"/><line class="cls-1" x1="75.58" y1="74.23" x2="75.6" y2="67.68"/><polyline class="cls-1" points="81.62 69.83 81.62 70.03 81.63 70.23 81.63 70.42 81.63 70.62 81.64 70.82 81.64 71.01 81.65 71.21 81.66 71.41 81.67 71.6 81.68 71.8 81.69 71.99 81.7 72.18 81.71 72.36 81.72 72.55 81.74 72.73 81.75 72.92 81.77 73.1 81.78 73.28 81.8 73.45 81.82 73.63 81.84 73.8 81.86 73.97 81.88 74.14 81.89 74.3 81.92 74.46 81.94 74.62 81.96 74.77 81.98 74.92 82 75.08 82.03 75.22 82.06 75.36 82.08 75.5"/><line class="cls-1" x1="82.08" y1="75.5" x2="82.6" y2="78.25"/><polyline class="cls-1" points="82.46 85.2 82.46 85.54 82.48 85.87 82.5 86.2 82.52 86.53 82.56 86.86 82.61 87.19 82.66 87.52 82.73 87.85 82.8 88.17 82.88 88.49 82.96 88.81 83.06 89.13 83.17 89.44 83.28 89.75 83.4 90.06 83.53 90.37 83.67 90.67 83.81 90.96 83.96 91.26 84.12 91.54 84.29 91.83 84.46 92.11 84.64 92.38 84.83 92.65 85.03 92.92 85.23 93.18 85.44 93.43 85.66 93.68 85.88 93.93 86.11 94.16 86.34 94.39 86.58 94.61 86.83 94.83 87.08 95.04 87.34 95.25 87.6 95.44 87.87 95.63 88.14 95.81 88.41 95.99 88.7 96.16 88.99 96.32 89.27 96.47 89.57 96.61 89.87 96.75 90.17 96.88 90.47 97 90.72 97.09"/><line class="cls-1" x1="81.22" y1="25.75" x2="81.62" y2="69.83"/><line class="cls-1" x1="75.6" y1="67.67" x2="75.73" y2="22.31"/><polyline class="cls-1" points="81.15 24.25 81.16 24.38 81.17 24.52 81.18 24.65 81.19 24.79 81.2 24.93 81.2 25.07 81.21 25.21 81.21 25.34 81.21 25.48 81.22 25.61 81.22 25.75"/><line class="cls-1" x1="103.99" y1="20.19" x2="82.17" y2="20.36"/><polyline class="cls-1" points="81.17 24.23 81.17 24.24 81.17 24.24 81.16 24.25 81.16 24.25 81.16 24.25"/><polyline class="cls-1" points="81.08 21.25 81.1 21.27 81.12 21.29 81.14 21.31 81.16 21.34 81.18 21.38 81.2 21.42 81.21 21.46 81.23 21.5 81.24 21.55 81.25 21.6 81.26 21.66 81.27 21.72 81.28 21.79 81.29 21.85 81.3 21.93 81.3 22 81.31 22.09 81.31 22.17 81.31 22.26 81.31 22.34 81.31 22.43 81.31 22.52 81.31 22.62 81.31 22.71 81.3 22.82 81.3 22.93 81.29 23.05 81.28 23.17 81.28 23.28 81.27 23.4 81.25 23.53 81.24 23.67 81.22 23.8 81.21 23.95 81.19 24.09 81.17 24.24"/><polyline class="cls-1" points="81.08 21.25 81.1 21.17 81.12 21.1 81.15 21.03 81.19 20.97 81.22 20.9 81.27 20.84 81.31 20.78 81.36 20.72 81.41 20.67 81.47 20.61 81.53 20.57 81.59 20.52 81.66 20.49 81.73 20.46 81.8 20.43 81.87 20.41 81.94 20.39 82.02 20.38 82.09 20.36 82.17 20.36"/><line class="cls-1" x1="75.73" y1="22.31" x2="76.6" y2="18.05"/><line class="cls-1" x1="76.6" y1="18.05" x2="81.08" y2="21.25"/><path class="cls-1" d="M77.63,17.17h0"/><polyline class="cls-1" points="77.63 17.16 77.56 17.17 77.5 17.18 77.44 17.19 77.37 17.2 77.31 17.23 77.25 17.26 77.19 17.28 77.13 17.32 77.07 17.35 77.01 17.39 76.95 17.44 76.91 17.49 76.86 17.54 76.81 17.6 76.77 17.65 76.73 17.72 76.69 17.78 76.67 17.85 76.64 17.92 76.61 17.98 76.6 18.05"/><line class="cls-1" x1="77.68" y1="17.17" x2="98.9" y2="17"/><path class="cls-1" d="M99.47,17.17a1.08,1.08,0,0,0-.53-.17"/><path class="cls-1" d="M98.9,17h0"/><line class="cls-1" x1="77.63" y1="17.17" x2="98.94" y2="17"/><line class="cls-1" x1="152.43" y1="88.83" x2="107.61" y2="89.17"/><line class="cls-1" x1="83.14" y1="89.35" x2="74.27" y2="89.42"/><line class="cls-1" x1="152.43" y1="88.9" x2="152.43" y2="88.83"/><path class="cls-1" d="M71.19,85.59a.7.7,0,0,0,0,.14"/><line class="cls-1" x1="65.05" y1="75.76" x2="71.18" y2="85.73"/><line class="cls-1" x1="71.18" y1="85.73" x2="71.17" y2="89.45"/><line class="cls-1" x1="71.17" y1="89.44" x2="64.38" y2="87.02"/><line class="cls-1" x1="64.38" y1="87.02" x2="64.41" y2="75.53"/><line class="cls-1" x1="64.41" y1="75.53" x2="65.05" y2="75.76"/><path class="cls-1" d="M162,85a.65.65,0,0,0,0-.14"/><line class="cls-1" x1="161.99" y1="88.75" x2="162" y2="85.03"/><line class="cls-1" x1="161.99" y1="88.75" x2="107.61" y2="89.17"/><line class="cls-1" x1="83.14" y1="89.35" x2="71.17" y2="89.45"/><polyline class="cls-1" points="155.78 74.72 155.77 74.69 155.73 74.65 155.69 74.6 155.65 74.56 155.6 74.52 155.55 74.49 155.5 74.47 155.45 74.45 155.39 74.43 155.34 74.42 155.28 74.41 155.24 74.41"/><polyline class="cls-1" points="65.18 74.9 65.12 74.9 65.05 74.91 64.99 74.92 64.92 74.92 64.86 74.94 64.81 74.97 64.77 74.99 64.72 75.01 64.68 75.04 64.63 75.07 64.59 75.11 64.56 75.15 64.52 75.19 64.5 75.23 64.47 75.27 64.45 75.32 64.43 75.36 64.42 75.4 64.41 75.45 64.41 75.49 64.41 75.53"/><line class="cls-1" x1="154.69" y1="74.22" x2="155.23" y2="74.41"/><path class="cls-1" d="M154.87,74.24a.37.37,0,0,0-.18,0"/><polyline class="cls-1" points="73.11 90.47 73.07 90.47 73.04 90.48 73.01 90.48 72.98 90.49 72.94 90.5 72.91 90.5 72.88 90.51 72.85 90.53 72.82 90.54 72.79 90.55 72.76 90.57 72.73 90.59 72.71 90.61 72.68 90.63 72.65 90.65 72.63 90.67 72.61 90.7 72.58 90.72 72.56 90.75 72.54 90.77 72.52 90.8 72.51 90.83 72.49 90.86 72.48 90.89 72.46 90.92 72.45 90.95 72.44 90.98 72.43 91.02 72.42 91.05 72.42 91.08 72.41 91.12 72.41 91.15 72.41 91.18"/><line class="cls-1" x1="72.41" y1="91.18" x2="72.37" y2="106.94"/><line class="cls-1" x1="74.78" y1="90.45" x2="73.11" y2="90.47"/><polyline class="cls-1" points="52.1 83.93 52.1 83.9 52.1 83.86 52.11 83.83 52.11 83.8 52.12 83.76 52.13 83.73 52.14 83.7 52.15 83.67 52.16 83.64 52.18 83.61 52.19 83.58 52.21 83.55 52.23 83.52 52.25 83.49 52.27 83.47 52.29 83.44 52.32 83.42 52.34 83.39 52.37 83.37 52.39 83.35 52.42 83.33 52.45 83.31 52.48 83.3 52.51 83.28 52.54 83.27 52.57 83.26 52.6 83.25 52.63 83.24 52.67 83.23 52.7 83.22 52.73 83.22 52.76 83.22 52.8 83.22"/><line class="cls-1" x1="52.06" y1="99.69" x2="52.1" y2="83.93"/><line class="cls-1" x1="54.46" y1="83.19" x2="64.38" y2="86.73"/><line class="cls-1" x1="52.8" y1="83.21" x2="54.47" y2="83.19"/><line class="cls-1" x1="52.1" y1="83.93" x2="52.09" y2="83.93"/><line class="cls-1" x1="73.11" y1="116.67" x2="73.13" y2="108.01"/><line class="cls-1" x1="53.03" y1="109.5" x2="53.05" y2="100.83"/><line class="cls-1" x1="153.42" y1="90.45" x2="142.28" y2="106.6"/><line class="cls-1" x1="150.72" y1="106.5" x2="150.71" y2="109.01"/><polyline class="cls-1" points="142.28 106.6 142.26 106.63 142.24 106.66 142.23 106.69 142.21 106.72 142.2 106.75 142.19 106.78 142.18 106.81 142.17 106.84 142.16 106.87 142.16 106.91 142.15 106.94 142.15 106.97 142.15 107.01"/><line class="cls-1" x1="142.15" y1="107.01" x2="142.14" y2="109.39"/><polyline class="cls-1" points="150.66 109.32 150.66 109.32 150.67 109.32 150.67 109.31 150.67 109.31 150.68 109.3 150.68 109.29 150.68 109.28 150.69 109.27 150.69 109.26 150.7 109.25 150.7 109.23 150.7 109.21 150.7 109.2 150.71 109.18 150.71 109.16 150.71 109.14 150.71 109.11 150.71 109.09 150.71 109.08 150.71 109.06 150.71 109.03 150.71 109.01"/><line class="cls-1" x1="124.94" y1="103.24" x2="142.14" y2="109.38"/><polyline class="cls-1" points="154.55 89.84 154.51 89.84 154.46 89.84 154.42 89.85 154.37 89.85 154.33 89.86 154.28 89.87 154.24 89.88 154.19 89.89 154.15 89.9 154.11 89.92 154.06 89.93 154.02 89.95 153.98 89.97 153.94 89.99 153.9 90.02 153.86 90.04 153.82 90.06 153.78 90.08 153.74 90.11 153.7 90.14 153.67 90.17 153.64 90.2 153.6 90.23 153.56 90.27 153.53 90.3 153.5 90.33 153.47 90.37 153.44 90.41 153.42 90.45"/><line class="cls-1" x1="152.32" y1="89.04" x2="154.55" y2="89.84"/><polyline class="cls-1" points="161.21 89.97 161.18 89.96 161.12 89.94 161.09 89.93"/><line class="cls-1" x1="145.96" y1="124.95" x2="145.99" y2="115.48"/><polyline class="cls-1" points="145.96 124.95 145.96 124.99 145.96 125.02 145.95 125.05 145.95 125.09 145.94 125.12 145.93 125.15 145.92 125.18 145.91 125.21 145.9 125.24 145.88 125.27 145.87 125.3 145.85 125.33 145.83 125.36 145.81 125.38 145.79 125.42 145.77 125.44 145.75 125.46 145.72 125.48 145.69 125.5 145.67 125.53 145.64 125.55 145.62 125.56 145.58 125.58 145.56 125.59 145.53 125.61 145.49 125.62 145.46 125.63 145.43 125.64 145.4 125.64 145.37 125.65 145.33 125.66 145.3 125.66 145.27 125.66"/><line class="cls-1" x1="145.27" y1="125.66" x2="140.06" y2="125.7"/><polyline class="cls-1" points="140.06 125.7 140 125.7 139.93 125.69 139.87 125.69 139.8 125.69 139.74 125.68 139.67 125.68 139.61 125.67 139.54 125.65 139.48 125.64 139.41 125.63 139.35 125.61 139.29 125.59 139.23 125.58 139.17 125.56 139.11 125.53 139.05 125.51 138.99 125.49 138.92 125.46 138.87 125.44 138.81 125.41 138.75 125.37 138.69 125.34 138.64 125.31 138.58 125.28 138.53 125.24 138.48 125.2 138.42 125.17 138.37 125.13 138.32 125.09 138.27 125.05 138.22 125 138.17 124.96 138.13 124.92 138.08 124.87 138.03 124.82 138 124.77 137.95 124.72 137.91 124.67 137.87 124.62 137.83 124.57 137.79 124.52 137.76 124.46 137.72 124.41 137.69 124.35 137.65 124.3 137.62 124.24 137.59 124.18 137.56 124.12 137.54 124.06 137.51 124 137.49 123.94 137.46 123.88 137.44 123.81 137.42 123.75 137.4 123.69 137.39 123.63 137.37 123.56 137.36 123.5 137.35 123.44 137.33 123.37 137.33 123.31 137.31 123.24 137.31 123.18 137.3 123.11 137.3 123.05 137.3 122.98 137.3 122.92"/><line class="cls-1" x1="137.34" y1="107.67" x2="137.3" y2="122.92"/><line class="cls-1" x1="117.64" y1="115.89" x2="117.67" y2="103.29"/><polyline class="cls-1" points="117.64 115.89 117.64 115.96 117.64 116.02 117.64 116.09 117.65 116.16 117.66 116.22 117.67 116.29 117.67 116.35 117.69 116.42 117.7 116.48 117.72 116.54 117.73 116.61 117.75 116.67 117.77 116.73 117.78 116.8 117.81 116.86 117.83 116.92 117.86 116.98 117.88 117.04 117.91 117.1 117.94 117.16 117.97 117.22 118 117.28 118.03 117.33 118.07 117.39 118.1 117.44 118.14 117.5 118.17 117.55 118.21 117.6 118.25 117.65 118.29 117.7 118.34 117.75 118.38 117.8 118.42 117.85 118.47 117.89 118.52 117.94 118.57 117.98 118.61 118.02 118.66 118.07 118.71 118.11 118.76 118.14 118.82 118.18 118.87 118.22 118.93 118.25 118.98 118.29 119.04 118.32 119.09 118.35 119.15 118.38 119.21 118.41 119.27 118.44 119.33 118.46 119.39 118.49 119.45 118.51 119.47 118.52"/><polyline class="cls-1" points="152.21 107.49 152.14 107.42 152.07 107.35 151.99 107.27 151.91 107.19 151.84 107.13 151.76 107.04 151.69 106.97 151.6 106.89 151.53 106.83 151.47 106.76 151.4 106.7 151.33 106.63 151.26 106.57 151.2 106.51 151.14 106.46 151.11 106.43"/><line class="cls-1" x1="152.21" y1="107.49" x2="160.77" y2="107.43"/><line class="cls-1" x1="145.23" y1="151.08" x2="145.3" y2="125.7"/><line class="cls-1" x1="135.48" y1="150.55" x2="136.63" y2="151.08"/><line class="cls-1" x1="136.7" y1="151.08" x2="145.23" y2="151.08"/><polyline class="cls-1" points="135.44 150.53 135.45 150.53 135.45 150.53 135.45 150.54 135.46 150.54 135.47 150.55 135.48 150.55"/><line class="cls-1" x1="56.53" y1="151.02" x2="56.65" y2="112.82"/><polyline class="cls-1" points="56.53 151.03 56.53 151.03 56.53 151.03"/><path class="cls-1" d="M56.65,112.81h0"/><polyline class="cls-1" points="58.83 151.71 58.8 151.71 58.78 151.71 58.75 151.71 58.73 151.71 58.7 151.71 58.68 151.71 58.65 151.71 58.63 151.71 58.61 151.71 58.58 151.71 58.56 151.71 58.54 151.7 58.52 151.7 58.51 151.7 58.49 151.7 58.47 151.7 58.46 151.7 58.44 151.7 58.43 151.7 58.42 151.69 58.41 151.69 58.4 151.69 58.39 151.69 58.39 151.69"/><line class="cls-1" x1="58.39" y1="151.69" x2="58.5" y2="113.48"/><line class="cls-1" x1="66.08" y1="151.65" x2="58.83" y2="151.71"/><line class="cls-1" x1="150.3" y1="154.47" x2="148.73" y2="153.85"/><line class="cls-1" x1="150.3" y1="154.48" x2="150.33" y2="154.49"/><line class="cls-1" x1="150.33" y1="154.49" x2="158.45" y2="154.43"/><path class="cls-1" d="M158.46,154.43h.32"/><polyline class="cls-1" points="66.18 116.21 66.18 116.22 66.18 116.22 66.18 116.22"/><line class="cls-1" x1="66.07" y1="154.43" x2="66.18" y2="116.22"/><polyline class="cls-1" points="66.07 154.43 66.07 154.44 66.07 154.44"/><polyline class="cls-1" points="68.36 155.12 68.33 155.12 68.31 155.12 68.29 155.12 68.27 155.12 68.24 155.12 68.22 155.12 68.19 155.12 68.17 155.11 68.14 155.11 68.12 155.11 68.1 155.11 68.08 155.11 68.06 155.11 68.04 155.11 68.02 155.11 68.01 155.11 67.99 155.11 67.98 155.11 67.96 155.1 67.95 155.1 67.94 155.1 67.94 155.1 67.93 155.1 67.93 155.1"/><line class="cls-1" x1="67.92" y1="155.1" x2="68.03" y2="116.88"/><line class="cls-1" x1="76.49" y1="155.05" x2="68.37" y2="155.12"/><line class="cls-1" x1="76.49" y1="155.04" x2="78.02" y2="155.03"/><polyline class="cls-1" points="78.02 155.03 78.08 155.03 78.13 155.03 78.19 155.03 78.25 155.03 78.3 155.03 78.36 155.02 78.42 155.02 78.47 155.02 78.53 155.02 78.58 155.02 78.64 155.02 78.69 155.02 78.74 155.02 78.78 155.01 78.84 155.01 78.89 155.01 78.94 155.01 78.98 155.01 79.03 155 79.08 155 79.12 155 79.16 155 79.21 155 79.25 154.99 79.29 154.99 79.33 154.99 79.36 154.98 79.4 154.98 79.43 154.98 79.47 154.98 79.5 154.97 79.53 154.97 79.56 154.97 79.59 154.96 79.62 154.96 79.64 154.96 79.67 154.95 79.69 154.95 79.71 154.95 79.73 154.95 79.75 154.94 79.77 154.94 79.79 154.94 79.8 154.93 79.81 154.93 79.82 154.93 79.83 154.92 79.84 154.92 79.85 154.91 79.85 154.91 79.85 154.91 79.86 154.9 79.86 154.9"/><line class="cls-1" x1="67.89" y1="166.74" x2="68.07" y2="105"/><line class="cls-1" x1="58.5" y1="111.69" x2="58.38" y2="153.24"/><polyline class="cls-1" points="58.38 153.24 58.38 153.28 58.38 153.32 58.38 153.37 58.39 153.41 58.39 153.46 58.39 153.5 58.39 153.54 58.39 153.59 58.39 153.63 58.4 153.67 58.4 153.71 58.4 153.75 58.41 153.8 58.41 153.83 58.41 153.88 58.42 153.91 58.42 153.95 58.42 153.99 58.43 154.03 58.43 154.06 58.44 154.1 58.44 154.13 58.45 154.16 58.45 154.2 58.46 154.23 58.46 154.26 58.47 154.28 58.48 154.31 58.48 154.34 58.49 154.37 58.49 154.39 58.5 154.41 58.51 154.44 58.52 154.45 58.52 154.47 58.53 154.49 58.54 154.5 58.54 154.52 58.55 154.53 58.56 154.54 58.56 154.55 58.57 154.56 58.58 154.56 58.59 154.57 58.59 154.57"/><line class="cls-1" x1="58.59" y1="154.57" x2="65.85" y2="157.17"/><polyline class="cls-1" points="65.85 157.17 65.86 157.17 65.87 157.17 65.88 157.17 65.88 157.16 65.89 157.16 65.9 157.15 65.9 157.15 65.91 157.14 65.92 157.13 65.93 157.12 65.93 157.1 65.94 157.09 65.95 157.07 65.95 157.05 65.96 157.03 65.96 157.01 65.97 156.99 65.98 156.97 65.99 156.95 65.99 156.92 66 156.89 66 156.87 66.01 156.84 66.01 156.8 66.02 156.77 66.02 156.74 66.03 156.71 66.03 156.67 66.03 156.64 66.04 156.6 66.04 156.56 66.05 156.53 66.05 156.49 66.05 156.45 66.05 156.41 66.06 156.37 66.06 156.33 66.06 156.28 66.06 156.24 66.06 156.2 66.07 156.16 66.07 156.11 66.07 156.06 66.07 156.02 66.07 155.98"/><line class="cls-1" x1="66.07" y1="155.98" x2="66.19" y2="114.44"/><polyline class="cls-1" points="66.19 114.44 66.19 114.4 66.19 114.35 66.19 114.31 66.18 114.26 66.18 114.22 66.18 114.18 66.18 114.13 66.18 114.09 66.18 114.05 66.17 114.01 66.17 113.96 66.17 113.92 66.17 113.88 66.16 113.84 66.16 113.8 66.15 113.76 66.15 113.72 66.15 113.69 66.14 113.64 66.14 113.61 66.13 113.58 66.13 113.54 66.12 113.51 66.12 113.48 66.11 113.44 66.11 113.41 66.1 113.39 66.09 113.36 66.09 113.33 66.08 113.31 66.08 113.28 66.07 113.26 66.06 113.24 66.06 113.22 66.05 113.2 66.04 113.19 66.03 113.17 66.03 113.16 66.02 113.15 66.01 113.13 66.01 113.12 66 113.11 65.99 113.11 65.98 113.1 65.98 113.1"/><line class="cls-1" x1="65.98" y1="113.1" x2="58.72" y2="110.51"/><polyline class="cls-1" points="58.72 110.51 58.71 110.5 58.7 110.5 58.7 110.51 58.69 110.51 58.68 110.52 58.67 110.52 58.67 110.52 58.66 110.53 58.65 110.54 58.64 110.56 58.64 110.57 58.63 110.58 58.62 110.61 58.62 110.62 58.61 110.64 58.61 110.66 58.6 110.68 58.59 110.7 58.58 110.73 58.58 110.76 58.57 110.78 58.57 110.81 58.56 110.84 58.56 110.87 58.55 110.9 58.55 110.94 58.54 110.97 58.54 111 58.54 111.04 58.53 111.07 58.53 111.11 58.52 111.15 58.52 111.19 58.52 111.23 58.52 111.27 58.51 111.31 58.51 111.35 58.51 111.39 58.51 111.43 58.51 111.48 58.5 111.52 58.5 111.56 58.5 111.61 58.5 111.65 58.5 111.69"/><line class="cls-1" x1="68.07" y1="105" x2="56.68" y2="100.93"/><line class="cls-1" x1="56.51" y1="162.67" x2="67.89" y2="166.74"/><line class="cls-1" x1="56.68" y1="100.94" x2="56.5" y2="162.67"/><line class="cls-1" x1="158.77" y1="154.47" x2="158.77" y2="154.41"/><line class="cls-1" x1="80.08" y1="169.42" x2="89.26" y2="169.35"/><line class="cls-1" x1="150.56" y1="168.88" x2="141.42" y2="168.95"/><line class="cls-1" x1="71.54" y1="156.33" x2="162.06" y2="155.64"/><line class="cls-1" x1="162.06" y1="155.64" x2="162.02" y2="166.68"/><line class="cls-1" x1="162.02" y1="166.68" x2="71.51" y2="167.37"/><line class="cls-1" x1="71.51" y1="167.37" x2="71.54" y2="156.33"/><line class="cls-1" x1="53.3" y1="160.86" x2="56.51" y2="162.01"/><line class="cls-1" x1="68.06" y1="166.14" x2="71.51" y2="167.37"/><line class="cls-1" x1="53.33" y1="149.82" x2="53.3" y2="160.86"/><line class="cls-1" x1="53.33" y1="149.82" x2="56.53" y2="150.96"/><line class="cls-1" x1="58.61" y1="151.71" x2="66.07" y2="154.37"/><line class="cls-1" x1="68.14" y1="155.11" x2="71.54" y2="156.33"/><line class="cls-1" x1="135.48" y1="149.19" x2="79.87" y2="149.62"/><line class="cls-1" x1="56.53" y1="149.8" x2="53.33" y2="149.82"/><line class="cls-1" x1="158.61" y1="154.45" x2="162.06" y2="155.64"/><line class="cls-1" x1="145.23" y1="149.88" x2="148.73" y2="151.08"/><polyline class="cls-1" points="83.13 85.45 83.13 85.78 83.14 86.11 83.16 86.44 83.19 86.78 83.23 87.1 83.28 87.43 83.33 87.76 83.39 88.08 83.47 88.41 83.55 88.73 83.64 89.05 83.73 89.37 83.84 89.68 83.95 89.99 84.07 90.3 84.2 90.6 84.33 90.9 84.48 91.2 84.63 91.49 84.79 91.78 84.95 92.06 85.13 92.35 85.31 92.62 85.5 92.89 85.7 93.15 85.9 93.42 86.11 93.67 86.32 93.92 86.55 94.16 86.77 94.4 87.01 94.63 87.25 94.85 87.5 95.07 87.75 95.28 88.01 95.49 88.27 95.68 88.53 95.87 88.81 96.05 89.09 96.23 89.37 96.4 89.65 96.56 89.94 96.71 90.24 96.85 90.53 96.99 90.84 97.12 91.14 97.24 91.31 97.3"/><path class="cls-1" d="M104.57,20.36a1,1,0,0,0-.58-.16"/><line class="cls-1" x1="71.19" y1="85.59" x2="82.46" y2="85.5"/><line class="cls-1" x1="108.23" y1="85.31" x2="161.99" y2="84.89"/><line class="cls-1" x1="79.24" y1="96.34" x2="88.89" y2="96.27"/><line class="cls-1" x1="148.35" y1="94.64" x2="149.52" y2="94.63"/><polyline class="cls-1" points="74.97 90.49 74.97 90.49 74.94 90.48 74.91 90.47 74.87 90.46 74.84 90.46 74.81 90.45 74.78 90.45"/><polyline class="cls-1" points="54.47 83.19 54.5 83.19 54.53 83.2 54.56 83.2 54.6 83.21 54.63 83.22 54.66 83.23 54.66 83.23"/><polyline class="cls-1" points="72.37 106.94 72.37 106.98 72.37 107.02 72.37 107.05 72.38 107.08 72.39 107.12 72.39 107.16 72.4 107.19 72.42 107.22 72.43 107.25 72.44 107.28 72.46 107.32 72.47 107.35 72.49 107.38 72.51 107.41 72.53 107.44 72.55 107.47 72.57 107.49 72.6 107.52 72.63 107.54 72.65 107.57 72.68 107.59 72.71 107.61 72.74 107.63 72.76 107.65 72.79 107.66 72.83 107.68 72.86 107.69 72.89 107.71"/><polyline class="cls-1" points="52.58 100.45 52.55 100.44 52.51 100.42 52.48 100.41 52.45 100.39 52.42 100.37 52.39 100.35 52.37 100.33 52.34 100.31 52.31 100.29 52.29 100.26 52.26 100.23 52.24 100.21 52.22 100.18 52.2 100.15 52.18 100.12 52.16 100.09 52.15 100.06 52.13 100.03 52.12 100 52.1 99.97 52.09 99.93 52.08 99.9 52.07 99.87 52.07 99.83 52.06 99.79 52.06 99.76 52.06 99.72 52.06 99.69"/><line class="cls-1" x1="52.8" y1="83.21" x2="52.79" y2="83.21"/><polyline class="cls-1" points="52.06 99.69 52.05 99.69 52.05 99.69"/><polyline class="cls-1" points="73.13 108 73.13 107.96 73.14 107.91 73.14 107.86 73.15 107.82 73.15 107.77 73.16 107.75"/><polyline class="cls-1" points="74.04 118.02 74.02 118.01 73.98 117.99 73.94 117.97 73.9 117.96 73.86 117.94 73.82 117.91 73.78 117.89 73.74 117.86 73.7 117.84 73.66 117.81 73.63 117.78 73.59 117.75 73.56 117.72 73.52 117.69 73.49 117.65 73.46 117.62 73.43 117.58 73.4 117.55 73.38 117.51 73.34 117.47 73.33 117.43 73.3 117.39 73.28 117.35 73.25 117.31 73.23 117.27 73.22 117.22 73.2 117.18 73.19 117.14 73.17 117.09 73.16 117.05 73.14 117 73.13 116.95 73.13 116.91 73.12 116.86 73.12 116.81 73.11 116.77 73.11 116.72 73.11 116.67"/><polyline class="cls-1" points="53.05 100.83 53.05 100.78 53.05 100.73 53.05 100.69 53.06 100.64 53.06 100.62"/><polyline class="cls-1" points="53.96 110.84 53.94 110.83 53.89 110.82 53.85 110.8 53.81 110.78 53.77 110.76 53.73 110.73 53.69 110.72 53.65 110.69 53.61 110.66 53.57 110.64 53.54 110.61 53.5 110.58 53.47 110.54 53.44 110.51 53.4 110.47 53.37 110.44 53.34 110.4 53.31 110.37 53.29 110.33 53.26 110.29 53.24 110.25 53.21 110.21 53.19 110.17 53.17 110.13 53.15 110.09 53.13 110.04 53.11 110 53.09 109.96 53.09 109.91 53.07 109.87 53.06 109.82 53.05 109.78 53.04 109.73 53.03 109.69 53.03 109.64 53.02 109.59 53.02 109.55 53.02 109.5"/><polyline class="cls-1" points="53.05 100.83 53.04 100.83 53.03 100.82 53.03 100.82 53.02 100.82 53.02 100.81"/><polyline class="cls-1" points="53 109.48 53 109.49 53.01 109.49 53.01 109.49 53.02 109.5 53.02 109.5"/><line class="cls-1" x1="151.11" y1="106.5" x2="150.72" y2="106.5"/><line class="cls-1" x1="131.46" y1="103.19" x2="142.15" y2="107.01"/><polyline class="cls-1" points="161.09 89.93 161.05 89.92 160.99 89.9 160.93 89.88 160.87 89.87 160.81 89.85 160.74 89.84 160.68 89.83 160.61 89.82 160.55 89.81 160.49 89.81 160.42 89.8 160.35 89.8 160.29 89.8 160.22 89.8"/><line class="cls-1" x1="150.54" y1="109.32" x2="150.53" y2="116.08"/><polyline class="cls-1" points="150.53 116.08 150.53 116.13 150.53 116.18 150.53 116.23 150.54 116.27 150.54 116.32 150.55 116.36 150.56 116.41 150.57 116.46 150.58 116.5 150.6 116.55 150.61 116.59 150.63 116.63 150.65 116.67 150.67 116.72 150.69 116.76 150.71 116.8 150.73 116.84 150.76 116.88 150.79 116.92 150.81 116.96 150.84 117 150.87 117.03 150.9 117.06 150.94 117.09 150.97 117.13 151 117.16 151.04 117.19 151.08 117.22 151.11 117.25 151.15 117.27 151.19 117.3 151.23 117.32 151.27 117.35 151.31 117.37 151.35 117.39 151.39 117.41 151.44 117.42 151.46 117.43"/><polyline class="cls-1" points="161.97 107.34 161.97 107.35 161.96 107.35 161.96 107.35 161.96 107.35 161.94 107.36 161.94 107.36 161.93 107.36 161.92 107.36 161.91 107.36 161.89 107.37 161.87 107.37 161.86 107.38 161.84 107.38 161.82 107.38 161.8 107.39 161.78 107.39 161.75 107.39 161.73 107.39 161.7 107.39 161.67 107.4 161.64 107.4 161.61 107.4 161.58 107.4 161.55 107.4 161.51 107.41 161.48 107.41 161.44 107.41 161.41 107.41 161.37 107.41 161.33 107.42 161.29 107.42 161.25 107.42 161.21 107.42 161.17 107.42 161.13 107.42 161.08 107.42 161.04 107.42 161 107.42 160.95 107.42 160.91 107.42 160.86 107.42 160.82 107.42 160.77 107.42"/><line class="cls-1" x1="135.48" y1="150.55" x2="135.55" y2="124.27"/><line class="cls-1" x1="148.73" y1="153.85" x2="148.84" y2="116.49"/><line class="cls-1" x1="65.88" y1="157.17" x2="65.85" y2="157.17"/></g></svg>