<svg xmlns="http://www.w3.org/2000/svg" width="215" height="260" viewBox="0 0 215 260">
  <defs>
    <style>
      .cls-1 {
        fill: none;
        stroke: #dcdbdb;
        stroke-width: 0.94px;
      }
    </style>
  </defs>
  <title>machine_RomerArm</title>
  <g id="Linework">
    <g>
      <path class="cls-1" d="M88.43,195.66c-.09.92.48,1.23,1.49,1.58,5.41,1.36,12.45,1.1,13.24,1.15a26.66,26.66,0,0,0,3.74-.09c.62-.13,3.87-1,4.44-1.05s.8-.09.88.35a27.68,27.68,0,0,1,.62,4.05c.35,3.21.48,11.83.44,13s.18,1.5-.7,1.81a40,40,0,0,1-5.15,1.57,53.46,53.46,0,0,1-8.67-.08c-3.61-.22-12.45-1.76-13-1.85s-.48-.45-.48-.45-2.64,0-4-.08-1.28-.44-1.28-.44a11.44,11.44,0,0,1-1.1-3.08,2.12,2.12,0,0,0-.53-1.85c-.48-.48-.17-2.42-.17-2.42s.88-9.85,1.05-10.73,0-1.45.92-1.54c1.67-.31,7.83-1.49,8.4-1.49C88.6,194,88.52,194.73,88.43,195.66Z"/>
      <path class="cls-1" d="M85.27,215.68a54.39,54.39,0,0,1,.22-6.78c.35-6.11.7-10.47.75-11.18s.39-.88.87-1.1a7.4,7.4,0,0,1,1.28-.57"/>
      <path class="cls-1" d="M90,216.64v-7.48c0-3.36.56-8.49.61-9.68s.22-1.81.83-1.85"/>
      <path class="cls-1" d="M88.66,190.54A26.63,26.63,0,0,1,89,184c.66-2.81,2.36-10.38,2.54-12"/>
      <path class="cls-1" d="M88.91,184.57c-.58-.13-2.17,0-4.79-.09a4.79,4.79,0,0,0-3.79,1.41c-.93.71-.83,1.89.14,3.16.48,1,3.65,2.55,5.15,3.25s8.09,3.73,8.92,4a6.87,6.87,0,0,0,3.25.86c3-.42,1.45-1.56,1-2.05a23.43,23.43,0,0,0-3.92-1.8s-7.47-3.42-8.27-3.78-5.58-2.33-3.08-2.37,4.71-.09,5.11,0"/>
      <path class="cls-1" d="M95.87,197s-2.5-.84-1.84-2.19,2.59-.61,3.5-.26"/>
      <path class="cls-1" d="M94.81,167.84a1.68,1.68,0,0,1,1.36,1.68c0,.48.62,7.21,1,9s1.85,7.17,3.48,9.24,3.52,4.71,5.58,4.49c1.62-.44,1.62-1.54,1.62-2.68s-.13-3.56-.13-3.56"/>
      <path class="cls-1" d="M107.52,217.91s1.58-5,1.36-8.05-.78-6.56-1.51-8.05a39.33,39.33,0,0,0-3.77-6.56c-1.54-1.94-4.79-7.35-4.79-7.35A30.29,30.29,0,0,1,96,178.7c-.27-2-.59-5.7-.84-7.91"/>
      <path class="cls-1" d="M91.67,217.09s0,.82,1.43,1.13a32.57,32.57,0,0,0,5.85.75c1.45,0,5-.11,6.33-.87"/>
      <path class="cls-1" d="M87.92,216.47s-2.14-.06-.88.44a17.81,17.81,0,0,0,2.07.25c.48,0,.42,0,.53.22s.13.62.59.83a18.2,18.2,0,0,0,3.9,1.09c.86.09,1.05.31.86.46s-.72.52.07.55,1.38.13,1.76-.2a1.09,1.09,0,0,1,.9-.35c.5,0,3.76,0,5-.09a21.89,21.89,0,0,0,4.2-.92,2.84,2.84,0,0,1,1.58-.19c.64,0,1.63.06,1.94.06s1.3-.31-.35-.39l-1.58-.11a.32.32,0,0,1-.09-.31"/>
      <path class="cls-1" d="M86.64,216.64s0,3,0,3.32a5.46,5.46,0,0,0,0,.77s-.07.28.52.31,2.11.22,2.42.22a1.1,1.1,0,0,0,.66,1.14,20.67,20.67,0,0,0,4.31,1.36"/>
      <path class="cls-1" d="M94.61,220.17s-.07,3.49-.07,3.76,0,.59.37.62,1.27.13,1.4,0,.24-.42.26-1.3.07-3,.07-3"/>
      <path class="cls-1" d="M96.23,224.55a4.32,4.32,0,0,0,.81-.46,3.85,3.85,0,0,1,1.3-.13c.51,0,5.92.26,8.27-1a4.38,4.38,0,0,1,1.52-.24c.53,0,2,.11,2.31.07s.64,0,.64-.72.13-3.49-.09-3.65"/>
      <line class="cls-1" x1="89.53" y1="217.21" x2="89.59" y2="221.24"/>
      <line class="cls-1" x1="97.32" y1="219.79" x2="97.27" y2="224.01"/>
      <line class="cls-1" x1="107.22" y1="218.6" x2="107.22" y2="222.8"/>
      <path class="cls-1" d="M107.6,222.74l.88,1.25c.15.22.51.86-.44,1.34a23.33,23.33,0,0,1-6.44,1.36,47.23,47.23,0,0,1-8.11-.29c-1.43-.33-3.92-.83-4.71-1.89-.19-.48-.24-.7.07-1.05s1-1.25,1-1.25"/>
      <path class="cls-1" d="M87.11,221s.19.31-1.92.48c-.53,0-.92.13-.9.44s0,1.72,0,2,0,.33.15.38c0,.33-.07,3-.07,3"/>
      <path class="cls-1" d="M85,221.54s-1.19.26-.31.5c.85.53,1.38,1.08,1.34,1.56a8.21,8.21,0,0,1-1,2.7,9.15,9.15,0,0,1-2.36,2.83c-.9.64-1.21.88-1.58,1.1s-.59.42.25.59,4.88,1.1,5.78,1.17a8.06,8.06,0,0,0,4.07-.29,70.44,70.44,0,0,1,7.13-2.15,35.07,35.07,0,0,1,6.64-1.41,65.94,65.94,0,0,1,6.91-.38c1.72.09,5.32.27,6.8.27s2.66,0,3.43,0,.92-.4.95-.84,0-1.09-.42-1.36-.42-.15-2.78-.48-4.68-.62-5.52-.81-6.08-1.38-6.49-1.56"/>
      <path class="cls-1" d="M84.42,224.31s.91.83.91,1.38"/>
      <path class="cls-1" d="M80.83,230.39s-.15.15-.11,1.25-.13,1.58.32,1.68,4.8,1.14,5.57,1.23a7.21,7.21,0,0,0,3.65,0c2-.51,7.72-1.87,9.81-2.18s7.06-1.06,11.28-1.28,8.31-.33,9.79-.44,1.85-.18,1.87-1,0-2.6,0-2.95"/>
      <line class="cls-1" x1="80.83" y1="233.22" x2="80.74" y2="233.65"/>
      <path class="cls-1" d="M82,233.8s4.9,1,5.27,1.05,1.09.13,1.12,1.1-.15,7.86-.15,7.86.06.66-.51.62-6.65-1.58-6.65-1.58-.75,0-.7-1.41.15-7.3.15-7.3,0-.61.5-.55S82,233.8,82,233.8Z"/>
      <path class="cls-1" d="M81.09,240.82a.76.76,0,0,1,0-1.12c.57-.52,2-2.36,2.5-2.76A13.85,13.85,0,0,1,85,236c.19-.09.31-.09.5.13s.51.38.09.83-1.91,2-2.15,2.26-1.36,1.63-1.55,1.85a.44.44,0,0,1-.64,0C81.09,240.91,81.09,240.82,81.09,240.82Z"/>
      <path class="cls-1" d="M81.34,239.38a2.68,2.68,0,0,1,.88-2.42c1.14-.87,1.69-.83,2.26-.68"/>
      <path class="cls-1" d="M81.55,241.19a1.48,1.48,0,0,0,.92,0c.2-.33,2.15-2.76,2.44-3s.87-.58.87-1.41"/>
      <path class="cls-1" d="M82.52,241.15s2.09,1,2.83-.94c.33-1.51,0-2-.15-2.23"/>
      <path class="cls-1" d="M85.64,237.42a3.57,3.57,0,0,1,.59,2.63c-.33,1.38-1,1.62-1.45,1.71a3.73,3.73,0,0,1-2.37-.57"/>
      <path class="cls-1" d="M80.72,242.65l0,1,1.16.2a12.39,12.39,0,0,1,2.48-.18c.7.11,1.45.84,2.09,1.08a3.07,3.07,0,0,0,2.84.22c1.58-.57,6.38-2.59,7-2.86s.63-.39.66-1.65.07-4.66.07-4.66l.11-2.88"/>
      <path class="cls-1" d="M81.9,243.88s3.28.25,3.67.38"/>
      <path class="cls-1" d="M97,235.8s.28-.07.59-.11.26-.79.29-1.2,0-1.72,0-1.72"/>
      <path class="cls-1" d="M108.41,231.33s0,8,0,8.46,0,.55.48.52,12.25.15,12.78.15.76,0,.81-.57a3.29,3.29,0,0,0,0-.52s.59,0,.62-.4,0-2.59,0-2.59h.27a.24.24,0,0,0,.26-.22c.29,0,.64,0,.62-.31a7.31,7.31,0,0,0,1.5-.2c.29-.09.5-.31.5-.92s-.22-4.19-.22-4.19.06-.44-.73-.51-1.21-.11-1.16.59,0,.88,0,.88l-.42,0-.4-.18,0-.72-.15-.16,0-.55a.23.23,0,0,0-.15-.15"/>
      <path class="cls-1" d="M122.7,230.37s0,1.58,0,2.4-.15,6.67-.15,6.67"/>
      <line class="cls-1" x1="123.38" y1="231.28" x2="123.31" y2="236.38"/>
      <path class="cls-1" d="M124.18,231.46s.17,0,.17.33v3.58l0,.53"/>
      <path class="cls-1" d="M107.81,181.2l.43-.11s1,4.62,1.27,5.67,2.37,8.62,2.5,9.27.31.93-.09,1.1"/>
      <path class="cls-1" d="M97.07,178s7.87.26,9.8-.18a2.45,2.45,0,0,0,.88-.31v11a28.63,28.63,0,0,1-.22,2.86"/>
      <path class="cls-1" d="M93.15,164.34a6.63,6.63,0,0,1,4.31-.13,4.37,4.37,0,0,1,2.77,2.59,5.85,5.85,0,0,1,.53,3.61,11.72,11.72,0,0,1-1.15,3.17c-.26.53-.62,1,.35,1.41a16.54,16.54,0,0,0,5.72,1c1.41-.22,2.24-.66,2-1.23.09,1,0,2.73,0,2.73"/>
      <path class="cls-1" d="M107.71,174.84a3.34,3.34,0,0,1-.53-1.62c0-.75.48-1.54.53-2.55a19.17,19.17,0,0,0,0-3.6c-.17-.75-.83-3.08-2.32-3.52-1.36-.09-4.58,0-6.72-1.49"/>
      <path class="cls-1" d="M99.4,174.4l6.64-.66a3.17,3.17,0,0,0,.88-1.27"/>
      <path class="cls-1" d="M87.52,157.51s-1.15,7.78-1.18,8.35a12.67,12.67,0,0,0,.44,3.25c.3,1.1.52,1.76,1.76,2s3,.92,3.51,1,2.42.44,2.86-.75.48-1.23.22-2S92.57,163,92,161s-1.84-6.47-1.93-7-1-1.94-1.71-1.23a4.84,4.84,0,0,0-.53,2.11Z"/>
      <path class="cls-1" d="M91.47,172.75a3.9,3.9,0,0,1-3.43-.48,9.93,9.93,0,0,1-3.1-4.47,20.82,20.82,0,0,1,.2-4.9c.26-1.63,1.14-9,1.32-10.06"/>
      <path class="cls-1" d="M86.91,161.64s-.7-9.51-.22-14.13a94.6,94.6,0,0,1,2.42-14.39c1.05-3.52,2.24-7.83,3.25-9.33s1.67-2.47,2.33-2.6a9.8,9.8,0,0,1,1.49-1.72,2.32,2.32,0,0,1,1.94-.22c1.05.17,3.82.52,4.48.66s.93.27,1,.61.75.4,1.32.44,1.54.22,1.49.88.09,1.89-1.19,1.85-2-.48-2.25.66-.7,5.37-.83,6.3-.62.79-2,.66-3.65-.48-4.22-.48-1.63-.35-2.07,1.54a69.92,69.92,0,0,0-1.54,7.35c-.09,1.54-.62,7.4-.48,8.71a38.63,38.63,0,0,1,.4,5.94c-.18,1.32-.75,4.66-.48,5.76"/>
      <path class="cls-1" d="M93.73,132.8l-1-.13A73.1,73.1,0,0,1,94,124.45c.57-1.68,1.89-4.26,2.5-4.62a3,3,0,0,1,2.2-.44"/>
      <path class="cls-1" d="M91.84,124.84s.35-2.9.57-4.44,10.91-78.34,10.91-78.34a5.94,5.94,0,0,1,0-1c.17-.26.43-.43,1.53-.43s1.58-.27,2-.14.48.92.35,2-1.05,7.48-1.05,8.93.09,1.85,1.58,2.11c.62.53.53.79,2.46.79,1.28.22,2.07.26,1.93,1.23s-5.32,38.12-5.32,38.12-.92.39-3.56-.88c-2.55-.83-2.86-1.36-2.95-.18s-1.76,13.87-1.94,15-.62,4.8-.66,5.37-.31.88.75.75a28.38,28.38,0,0,1,4.66-.18c.71.13,1.28.57.62,1.23-.13,1-.75,5.28-.75,5.28"/>
      <path class="cls-1" d="M97.64,113.28a47.39,47.39,0,0,1,5.89-.18c.83.22,1.84.74,1.19,1.22-.48.35-.13.26-1,.43"/>
      <path class="cls-1" d="M105,114a80.57,80.57,0,0,1,.66-9.73,61.63,61.63,0,0,1,1.8-8.84c.35-1.1.87-1.27-.62-1.89"/>
      <path class="cls-1" d="M100.41,91.79s3.91,1.75,4.7,2,3.16.79,2.59.26"/>
      <path class="cls-1" d="M91.79,147.83s2.42.49,3.65.57,1.45.13,2,.13.7,0,.7.75,0,2.59,0,2.59"/>
      <path class="cls-1" d="M104.05,123.57s0,3.56-.22,5.11-1,6.25-1.22,7.17a54.23,54.23,0,0,0-1.13,8.18,53.31,53.31,0,0,0,0,5.94"/>
      <path class="cls-1" d="M101.1,131.4s-1.4,9.37-1.49,10.29-.57,4-.66,4.71,0,.53.22.84,0,1.32-.83,1.05a5,5,0,0,1-.53-.18"/>
      <path class="cls-1" d="M98,148.84l1.49.26s.48-.13.48.79a5.72,5.72,0,0,0,0,.88"/>
      <path class="cls-1" d="M103.19,157.37S104,162,105,163.44"/>
      <path class="cls-1" d="M105.56,121.07a2.19,2.19,0,0,1,1.71,0c.7.49.75.49.79,1.19a2.68,2.68,0,0,1-.17,1.5v1.93s0,.18-.31.27c0,.18,0,.44.44.44s.17.26.22.79.44,12.94.44,12.94"/>
      <path class="cls-1" d="M105.35,123.7a2.43,2.43,0,0,0,.35.61c0,.58,0,1.68,0,1.68s0,.22.35.18c0,.13.09.31-.21.31s-.14.31-.14.62.65,19.06.65,19.06"/>
      <path class="cls-1" d="M103.28,41s-2-.39-.35-.75a20.55,20.55,0,0,1,4.3-.21c.66.09,3.56.65,4.39,1.48"/>
      <path class="cls-1" d="M102.31,40.72s-.48.09-.13-1.23c.22-.65.09-.87,1.32-1a15.62,15.62,0,0,1,6.77.26c2.55.57,2.5,1,2.72,1.23.13-.7.13-1.36.35-1.49a.46.46,0,0,1,.35-.09"/>
      <path class="cls-1" d="M103.9,38.39l0-1.36s-.21-.25.38-.43c.07,0-.91.27-.34.11"/>
      <path class="cls-1" d="M113.39,40.72s-1.09-1.3-1.7-1.43c0,1.23-.18,8.48,0,9.76s.39,5.71,1.88,1.19a27.37,27.37,0,0,0,.31-4.49C113.78,44.65,113.3,40.15,113.39,40.72Z"/>
      <path class="cls-1" d="M112.12,55.64s.62-.09.62-1.23c.17-1.09.13-1.4.43-1.89a5.24,5.24,0,0,0,.22-1.84"/>
      <path class="cls-1" d="M104,36.72a1.05,1.05,0,0,0,0-1.15c-.09-.44-.48-1.23-.61-1.72a2.9,2.9,0,0,1-.18-1.58,3.35,3.35,0,0,0-1.1-2.42,6.83,6.83,0,0,1-.44-5c.62-1.85,2.07-4,3.78-4.54s2.64-.57,3.7-.13,2.77,1.54,3.29,1.81a6.94,6.94,0,0,1,2.78-1.94,29.08,29.08,0,0,1,4.53-.52c1.54,0,4.26.22,5.58,1s1.87,1,1.5,1.41a11.1,11.1,0,0,0,.26-1.28c0-.62,0-2.38,0-3.29s-.88-1.5-2-1.94a16.81,16.81,0,0,0-6.46-.58c-2.55.27-2.91,1.19-3.17,1.81a24.34,24.34,0,0,0-.53,3.56"/>
      <path class="cls-1" d="M103.72,34.69s.44,0,0-.62c-.08-.18-.53-.31.48-.26a9.87,9.87,0,0,0,2.94-.18c.35-.09.35-.09.57.35s.53,1,.75.4a6.34,6.34,0,0,0,.31-1.45,4,4,0,0,1,1.23-2c.88-.83,2.5-2.59,2.5-4.62s.14-3.73-2.28-5.54"/>
      <path class="cls-1" d="M103.14,33.14s4,.62,4.22-.09.22-1.54.79-2.06,2.95-2.33,3.08-4.71-.09-4.52-1.89-5.58a5.37,5.37,0,0,0-3.73-.35"/>
      <path class="cls-1" d="M112.66,21.8s.48,5.77.57,6.6,1.36,2.55,2-.48c.48-2.68.44-4.09,1.76-3.39s8.09,5,8.62,5.28a2.91,2.91,0,0,1,.79.66"/>
      <path class="cls-1" d="M109,32.06a7.14,7.14,0,0,1,3.78,0,6.92,6.92,0,0,1,2.72.64"/>
      <path class="cls-1" d="M113.93,32.2s-.3,6.88-.3,7.51.21,7.11.21,7.64.09.54.61.72"/>
      <path class="cls-1" d="M126.81,22s-.35,7.79-.43,9-.53,8.49-.62,9.11-1.14,6.64-1.27,7.57-.35.88-.66,1.1"/>
      <path class="cls-1" d="M114,53.85l.4-6.2s.09-.75,1.36-.88a26.21,26.21,0,0,1,5.89.14c1.09.31,2.28.7,2.24,1.36s-.4,6.24-.4,6.24"/>
      <path class="cls-1" d="M113.18,55.84s-.09-.84-.09-1a.65.65,0,0,1,.44-.66,6.52,6.52,0,0,1,4.17-.75,23.86,23.86,0,0,1,5.36.84,6.89,6.89,0,0,1,1.1.7c.26.22.13.57.13.88s-.18.35-.18.48a1.07,1.07,0,0,0,.31.57,8.24,8.24,0,0,1,0,2.55c0,.66-1.19,18.83-1.19,18.83l-.52,8.54a1.28,1.28,0,0,1-.53,1.19c0,.66,0,1.45,0,1.45s.35.26-1,.75c0-.39.22-.66-.62-.79a44.82,44.82,0,0,0-7.78-.7c-.56.08-1.14.08-1,.65-.4-.09-.84-.17-.75-.88,0-.44.26-.39.22-.84,0-.26-.62-.52-.48-1.58s1.85-27.14,1.85-27.14l.22-2.46A1.07,1.07,0,0,1,113.18,55.84Z"/>
      <path class="cls-1" d="M111.67,89.19l-1.17,19.72s-.17.75.09.84a1.8,1.8,0,0,0-.17.93c0,.44-.22.66.22.66,0,.27,0,.44-.26.44,0,.48-.39,7.35-.35,7.83"/>
      <path class="cls-1" d="M114.54,118.19c1.28.26,2.15,1.05,3.3,2.55,1.19,1.94-.22,4.36-.22,4.36-.31.79-.88,1.76-1.49,3.12a2.1,2.1,0,0,1-2.33,1.41,15.74,15.74,0,0,1-3.69-.79c-1.23-.44-1.1-3.39-1.1-3.39s0-2.68-.09-3.21a3.84,3.84,0,0,1,1.28-2.91,5.43,5.43,0,0,1,4.09-1.28c1.45.26,3.52,1.36,4,2.95.26.79.57,1.89.52,1.76s.53-7.39.62-8.23.39-3.25.44-4.31,1.28-20.06,1.28-20.06"/>
      <path class="cls-1" d="M109.31,127.88s.08.84.13,1.23.17.53.66,1.23,1.67,2.59,1.67,2.59.4.62,1.58-.44a21.49,21.49,0,0,1,2.11-1.67,3.68,3.68,0,0,0,.48-1.14,2.79,2.79,0,0,1,.53-1.06l.61-1.85a3.24,3.24,0,0,0,1.76-1.58,4.29,4.29,0,0,0,0-3.61"/>
      <path class="cls-1" d="M119,121.28a3.5,3.5,0,0,1,.39,3.17c-.66,1.8-1.83,4.92-1.83,4.92l.79,1.06"/>
      <path class="cls-1" d="M109.88,130s0,2.33,0,2.78,0,.35.35.88c0,.48-.22.79,2.27,3.69"/>
      <path class="cls-1" d="M113.09,136.95l-1.93,1.45-.13-.18-.31.18-.39-.48-.92.66.44.57-.35.26,0,.27-1,.75s-.57.22,0,.79,5.49,7.43,5.49,7.43l1.45,1.8s.4.44,1.41-.35,4.66-3.43,4.66-3.43a24.15,24.15,0,0,0-.52-6,66.78,66.78,0,0,0-2.77-8.92c-.44-.79-.27-1.05.39-1.54a31.57,31.57,0,0,1,3.08-1.94,1.41,1.41,0,0,1,1.72.18c.62.53,5.28,4.62,5.89,5.28s3,3.12,3.61,3.78.92.88.44,1.19-3.21,2.2-3.65,2.55-4.09,3-4.09,3l-2.9,2.42-.71.52-.48-.48"/>
      <path class="cls-1" d="M133.59,138.36s1.63,2.46,2.11,3.17a11.31,11.31,0,0,1,1.36,2.42c.18.62.44,1.41-1.15,2s-5.68,1.41-5.68,1.41a2.52,2.52,0,0,1-.92-.71,11.51,11.51,0,0,0-.75-.92l-.88.62s-.35,0-.88-.62c-.62.48-7,5.45-7.39,5.76s-.88,1-1.36.31c-.44,0-.71,0-1.58-1.41a4.64,4.64,0,0,1-1.15.53c-.53.13-3.43,1.58-4.66,2.11a28.46,28.46,0,0,0-5.59,2.9,50.11,50.11,0,0,0-5.63,5.15c-1,1.1-.66.84-.75,1.45-.22,1.54-.88.88-2-.22a44.25,44.25,0,0,1-4-5.37c-.62-1-.52-1-.35-1.49s.62-.26,1.28-.35.88-.52,1.32-.92,2.77-2,5-3.34a27.56,27.56,0,0,0,5.77-3.7,3,3,0,0,0,1-1.63c.09-1.49.26-1.27.44-1.58a7.48,7.48,0,0,1,.83-1.23c.44-.53.67-.88.58-1.32-.58-.62,0-.92,0-.92"/>
      <path class="cls-1" d="M135.22,140.88s-.22-.57-1.14-.09-5,3.68-5,3.68l-.79.71.3.52"/>
      <path class="cls-1" d="M122.65,149a1.59,1.59,0,0,0,.44.57c.26.18.62,0,1.05-.13.48.7,2.59,3.47,2.59,3.47l.79,1a1.53,1.53,0,0,0,1,.39,1.17,1.17,0,0,1,1,.57c.35.48,1.32,1.67,1.32,1.67a2.78,2.78,0,0,0,.71.31c.44.13.52.26.75.22l1,.88s-.27,1,.75.65c.62-.39.13-1-.48-1a13,13,0,0,1-.66-1.14s.22-.09.18-.66a2.6,2.6,0,0,0-.48-1.41c-.31-.44-1.19-1.62-1.19-1.62l.09-1.36a8.71,8.71,0,0,1-.62-.84c-.3-.48-3.07-4.26-3.07-4.26"/>
      <path class="cls-1" d="M127.7,154.06a25.4,25.4,0,0,0,3.73-2.58"/>
      <path class="cls-1" d="M129.16,154.55a8.46,8.46,0,0,0,2.1-1.75"/>
      <path class="cls-1" d="M132.24,157.1s.09-.56.56-.56"/>
      <path class="cls-1" d="M110.63,153a6.42,6.42,0,0,0,.88,1c.3.22.57-.26,1-.7s.75-.87,1.05-1,.61-.52.17-.74"/>
      <path class="cls-1" d="M107.68,154.38l.87,21.73-.66,0v.66l.44.09,0,.66-.18,0v.66l-.44.13,0,2.77.39-.09s.83-.22,1-.7c.7-.18,1.31-.4,1.27-1.06s-.14-.75-.48-1c0-.44-.18-1.49-.18-1.49l.26-.13v-.79l-.66,0-.79-22.13"/>
    </g>
  </g>
</svg>
