<svg xmlns="http://www.w3.org/2000/svg" viewBox="0 0 215 260"><defs><style>.cls-1{fill:none;stroke:#dcdbdb;stroke-width:1.57px;}</style></defs><title>machine_</title><g id="Linework"><path class="cls-1" d="M64.77,199.63H88.3s1.82-.6,0,2.31-3.76,6.43-3.76,6.43h53.25l-4.24-7.52s-1.46-1.46,1.21-1.46h23v32.26s.37,1.22-1.57,1.22H65.62s-1,.37-1-2.06S64.77,199.63,64.77,199.63Z"/><polyline class="cls-1" points="77.27 232.87 77.27 237.96 89.28 237.96 89.28 232.87"/><polyline class="cls-1" points="105.29 232.87 105.29 237.96 117.29 237.96 117.29 232.87"/><polyline class="cls-1" points="133.3 232.99 133.3 237.96 145.19 237.96 145.19 232.99"/><polyline class="cls-1" points="157.8 230.08 169.2 230.08 169.2 199.57"/><path class="cls-1" d="M157.8,224.62a1.65,1.65,0,0,1,.85,1.58v1.7l-.85,1"/><polyline class="cls-1" points="158.53 225.59 168.35 225.59 169.2 224.74"/><path class="cls-1" d="M157.8,224.26a14.87,14.87,0,0,0,11.28,0"/><path class="cls-1" d="M169.2,199.63h2.85s1-.18,1,.79V228a.89.89,0,0,1-.91.91h-3l-1-1v-2.19"/><line class="cls-1" x1="158.65" y1="227.9" x2="168.23" y2="227.9"/><path class="cls-1" d="M97.28,208.25v-11s-.49-.72,1-.72h26.57s.49.12.49,1.21v10.67"/><line class="cls-1" x1="76.66" y1="199.88" x2="76.66" y2="196"/><line class="cls-1" x1="145.92" y1="199.52" x2="145.92" y2="195.87"/><polyline class="cls-1" points="76.3 185.2 146.28 185.2 146.28 195.87 77.51 195.87 76.3 195.87 76.3 185.2"/><path class="cls-1" d="M76.42,150.64h69.5s.6,0,.6,1a5.07,5.07,0,0,1-.12,1.34s.12.36-1.7.36H76.78s-.73,0-.73-1.33C76.05,151.36,75.93,150.75,76.42,150.64Z"/><line class="cls-1" x1="86" y1="177.32" x2="136.58" y2="177.32"/><line class="cls-1" x1="136.58" y1="153.3" x2="136.58" y2="185.2"/><line class="cls-1" x1="139.12" y1="153.43" x2="139.12" y2="185.2"/><polyline class="cls-1" points="85.88 179.87 136.58 179.87 139.12 179.87"/><line class="cls-1" x1="83.33" y1="153.3" x2="83.33" y2="185.32"/><line class="cls-1" x1="86" y1="153.3" x2="86" y2="185.2"/><line class="cls-1" x1="83.33" y1="179.93" x2="85.94" y2="179.93"/><line class="cls-1" x1="84.42" y1="179.99" x2="84.42" y2="153.36"/><line class="cls-1" x1="84.91" y1="153.3" x2="84.91" y2="179.86"/><line class="cls-1" x1="85.94" y1="178.9" x2="136.58" y2="178.9"/><line class="cls-1" x1="86.06" y1="178.29" x2="136.52" y2="178.29"/><line class="cls-1" x1="137.73" y1="179.86" x2="137.73" y2="153.25"/><line class="cls-1" x1="138.22" y1="153.36" x2="138.22" y2="179.81"/><line class="cls-1" x1="137.25" y1="150.51" x2="137.25" y2="153.25"/><line class="cls-1" x1="141.79" y1="150.64" x2="141.79" y2="153.25"/><line class="cls-1" x1="141.79" y1="151.66" x2="146.46" y2="151.66"/><line class="cls-1" x1="141.79" y1="152.15" x2="146.52" y2="152.15"/><line class="cls-1" x1="137.18" y1="151.61" x2="113.53" y2="151.61"/><line class="cls-1" x1="137.25" y1="152.21" x2="113.47" y2="152.21"/><line class="cls-1" x1="113.53" y1="150.64" x2="113.53" y2="153.25"/><line class="cls-1" x1="108.92" y1="150.57" x2="108.92" y2="153.25"/><line class="cls-1" x1="85.27" y1="150.64" x2="85.27" y2="153.3"/><line class="cls-1" x1="80.66" y1="150.64" x2="80.66" y2="153.18"/><line class="cls-1" x1="76.05" y1="151.61" x2="80.66" y2="151.61"/><line class="cls-1" x1="76.12" y1="152.21" x2="80.61" y2="152.21"/><line class="cls-1" x1="85.33" y1="151.61" x2="108.92" y2="151.61"/><line class="cls-1" x1="85.27" y1="152.15" x2="108.92" y2="152.15"/><path class="cls-1" d="M53.31,224.32s3.88,2.06,11.34.06"/><polyline class="cls-1" points="53.25 224.56 54.1 225.41 54.1 227.9 53.31 228.68 53.31 230.14 64.59 230.14"/><polyline class="cls-1" points="53.31 228.74 53.31 221.02 52.95 221.02 52.95 199.57"/><polyline class="cls-1" points="54.1 227.96 63.8 227.96 64.65 228.81"/><polyline class="cls-1" points="63.87 227.96 63.87 225.41 64.65 224.62"/><line class="cls-1" x1="54.16" y1="225.47" x2="63.8" y2="225.47"/><path class="cls-1" d="M52.95,199.57H50.34s-.91-.12-.91,1v27.17a.94.94,0,0,0,1,1h2.85"/><polyline class="cls-1" points="50.34 199.51 49.43 199.51 49.43 116.98 57.44 116.98"/><polyline class="cls-1" points="49.37 118.61 68.47 118.61 68.47 116.86 60.59 116.86"/><line class="cls-1" x1="52.04" y1="118.62" x2="52.04" y2="199.63"/><polyline class="cls-1" points="64.53 118.61 64.53 198.54 69.38 198.54 69.38 116.31"/><line class="cls-1" x1="68.47" y1="116.25" x2="68.47" y2="117.1"/><line class="cls-1" x1="69.14" y1="198.55" x2="69.14" y2="199.63"/><polyline class="cls-1" points="57.68 116.28 57.68 116.55 57.34 116.55 57.34 117.28 55.68 117.28 55.68 118.52"/><polyline class="cls-1" points="60.32 116.25 60.32 116.49 60.56 116.49 60.56 117.34 62.32 117.34 62.32 118.59"/><line class="cls-1" x1="57.32" y1="117.31" x2="60.56" y2="117.31"/><line class="cls-1" x1="57.68" y1="116.58" x2="60.35" y2="116.58"/><path class="cls-1" d="M95.95,116.25H48.64s-.64.25-.64-1V80.11s-.09-.43.79-.46,36.24,0,36.24,0"/><path class="cls-1" d="M48,92.42H40.88s-.42,0-.42-.73V72.25s-.06-.52.72-.52H53.07s.52-.12.55.85,0,3.67,0,3.67"/><line class="cls-1" x1="42.79" y1="71.71" x2="42.79" y2="92.42"/><polyline class="cls-1" points="48.07 73.98 50.13 73.98 50.13 76.22"/><line class="cls-1" x1="50.22" y1="78.38" x2="50.22" y2="79.65"/><line class="cls-1" x1="48.07" y1="71.71" x2="48.07" y2="79.92"/><line class="cls-1" x1="48.1" y1="76.35" x2="85" y2="76.35"/><line class="cls-1" x1="48.1" y1="78.29" x2="85.03" y2="78.29"/><path class="cls-1" d="M96.13,63.85c-1.28-.18-9.4.49-10.37.55S85,65,85,65,85,78.1,85,79.1a100.84,100.84,0,0,0,.79,10.4c.51,3.24,1.75,9.82,3.73,14.19s3.85,8.34,4.76,9.82.85,1.52,1.4,2.31.57.79,1.64.73,28.92,0,28.92,0,.15.18.61-.46a58.08,58.08,0,0,0,5.43-10.25c2.07-5.16,4.09-11.52,4.58-15.62a108.27,108.27,0,0,0,.76-13.31c0-5.25,0-12,0-12s.13-.46-.51-.52-8.07-.49-10.59-.55"/><path class="cls-1" d="M102.16,116.52s-2.27-7.13-3-10.77a179,179,0,0,1-2.76-18.31c-.36-5.7-.36-6.67-.33-7.28s0-.7.49-.73,29.41,0,29.41,0,.55-.15.51.67-.54,10.46-.91,13.22-1.79,11.28-2.16,13-2.09,8.31-2.36,9.15a7.23,7.23,0,0,1-.4,1.07"/><path class="cls-1" d="M96.55,79.44s-.49,0-.46-.7,0-56.37,0-56.37.12-.33.73-.33h29.26s.39,0,.39.64v56s.1.67-.27.76"/><polyline class="cls-1" points="126.51 55.91 127.42 55.91 127.42 62.03 126.54 62.03"/><polyline class="cls-1" points="127.47 56.3 127.78 56.3 127.78 56.33 127.78 56.91 127.38 56.91"/><polyline class="cls-1" points="127.48 57.73 127.81 57.73 127.81 58.33 127.39 58.33"/><polyline class="cls-1" points="127.42 59.61 127.84 59.61 127.84 60.33 127.54 60.33"/><polyline class="cls-1" points="127.42 61.06 127.94 61.06 127.94 61.67 127.48 61.67"/><path class="cls-1" d="M105.53,116.55l1.37,5.91s.15.61,1.45.61"/><line class="cls-1" x1="108.35" y1="116.52" x2="108.35" y2="126.01"/><line class="cls-1" x1="114.29" y1="116.55" x2="114.29" y2="126.04"/><line class="cls-1" x1="108.35" y1="125.2" x2="114.29" y2="125.2"/><path class="cls-1" d="M114.32,123.07h.91s.48.06.61-.64,1.21-5.88,1.21-5.88"/><line class="cls-1" x1="105.89" y1="118.03" x2="108.34" y2="118.03"/><line class="cls-1" x1="114.32" y1="118.03" x2="116.72" y2="118.03"/><polygon class="cls-1" points="106.16 126.04 116.38 126.04 116.38 131.35 106.19 131.35 106.16 126.04"/><polyline class="cls-1" points="108.5 133.02 108.5 137.26 114.08 137.26 114.08 133.04"/><polyline class="cls-1" points="106.77 131.38 106.77 133.04 115.84 133.04 115.84 131.35"/><line class="cls-1" x1="110.21" y1="137.27" x2="110.21" y2="137.46"/><line class="cls-1" x1="112.69" y1="137.29" x2="112.69" y2="137.49"/><polyline class="cls-1" points="109.31 137.49 113.29 137.49 113.29 138.12 109.31 138.12 109.29 137.51"/><line class="cls-1" x1="110.55" y1="138.16" x2="110.55" y2="139.33"/><line class="cls-1" x1="112.05" y1="138.16" x2="112.05" y2="139.31"/><polyline class="cls-1" points="110.79 139.28 109.58 139.28 109.58 140.18 110.84 140.18 110.84 141.32 111.71 141.32 111.81 140.25"/><polyline class="cls-1" points="111.76 139.31 113 139.31 113 140.23 111.83 140.23"/><line class="cls-1" x1="109.53" y1="139.52" x2="102.64" y2="139.52"/><line class="cls-1" x1="109.53" y1="139.96" x2="102.67" y2="139.96"/><line class="cls-1" x1="113.02" y1="139.48" x2="119.99" y2="139.48"/><line class="cls-1" x1="113.02" y1="139.96" x2="119.99" y2="139.96"/><line class="cls-1" x1="111.08" y1="141.34" x2="111.08" y2="148.38"/><line class="cls-1" x1="111.42" y1="141.37" x2="111.42" y2="148.38"/><line class="cls-1" x1="110.6" y1="139.01" x2="112.01" y2="139.01"/><path class="cls-1" d="M111.31,140.34a.51.51,0,1,0-.53-.51A.52.52,0,0,0,111.31,140.34Z"/><circle class="cls-1" cx="111.29" cy="139.76" r="0.12"/><circle class="cls-1" cx="111.24" cy="148.64" r="0.22"/><ellipse class="cls-1" cx="120.2" cy="139.67" rx="0.24" ry="0.31"/><ellipse class="cls-1" cx="102.38" cy="139.75" rx="0.32" ry="0.29"/><circle class="cls-1" cx="111.27" cy="130" r="0.63"/><circle class="cls-1" cx="111.43" cy="106.69" r="4.87"/><path class="cls-1" d="M126.63,116.31h47.48s.43.36.43-1.45V80s.12-.36-1-.36h-36"/><line class="cls-1" x1="137.61" y1="76.16" x2="171.15" y2="76.16"/><line class="cls-1" x1="137.61" y1="78.35" x2="171.15" y2="78.35"/><polyline class="cls-1" points="171.14 79.68 171.14 75.01 173.09 75.01 173.09 79.56"/><line class="cls-1" x1="153.25" y1="116.25" x2="153.25" y2="199.4"/><polyline class="cls-1" points="154.1 116.31 154.1 118.55 158.04 118.55 158.04 198.54 156.65 198.54 156.65 199.33"/><polyline class="cls-1" points="158.04 118.61 173.09 118.61 173.09 116.91 166.78 116.91"/><polyline class="cls-1" points="160.41 118.55 160.41 116.91 166.78 116.91 166.78 118.55"/><line class="cls-1" x1="163.5" y1="116.91" x2="163.5" y2="118.55"/><line class="cls-1" x1="161.32" y1="116.25" x2="161.32" y2="116.91"/><line class="cls-1" x1="165.87" y1="116.31" x2="165.87" y2="116.98"/><line class="cls-1" x1="169.62" y1="118.62" x2="169.62" y2="199.57"/><polyline class="cls-1" points="173.03 118.61 173.03 199.46 170.6 199.51"/><line class="cls-1" x1="154.16" y1="116.98" x2="160.41" y2="116.98"/><circle class="cls-1" cx="163.62" cy="130.38" r="3.84"/><path class="cls-1" d="M163.72,191.1a3.74,3.74,0,0,0,3.75-3.74,4,4,0,0,0-3.75-3.75,3.74,3.74,0,0,0,0,7.49Z"/><circle class="cls-1" cx="59.01" cy="187.33" r="3.84"/><circle class="cls-1" cx="59.01" cy="130.32" r="4.08"/></g></svg>