<svg xmlns="http://www.w3.org/2000/svg" viewBox="0 0 215 260"><defs><style>.cls-1{fill:none;stroke:#dcdbdb;stroke-width:1.54px;}</style></defs><title>machine_</title><g id="Linework"><line class="cls-1" x1="79.32" y1="123.42" x2="79.36" y2="123.42"/><line class="cls-1" x1="79.32" y1="123.42" x2="79.29" y2="123.42"/><line class="cls-1" x1="148.17" y1="104.97" x2="149.39" y2="101.86"/><polyline class="cls-1" points="123.3 218.55 123.3 218.5 123.26 218.25 123.22 218 123.18 217.75 123.13 217.5 123.09 217.25 123.05 217 123 216.75 122.96 216.5 122.91 216.25 122.86 216 122.81 215.75 122.76 215.5 122.71 215.25 122.66 215.01 122.61 214.76 122.55 214.51 122.5 214.26 122.44 214.01 122.39 213.77 122.33 213.52 122.27 213.27 122.21 213.03 122.15 212.78 122.08 212.53 122.02 212.29 121.96 212.05 121.89 211.8 121.83 211.56 121.76 211.31 121.69 211.06 121.62 210.82 121.55 210.58 121.48 210.34 121.41 210.09 121.34 209.85 121.26 209.61 121.19 209.36 121.11 209.12 121.03 208.88 120.96 208.64 120.88 208.4 120.8 208.16 120.72 207.92 120.64 207.68 120.55 207.44 120.47 207.2 120.39 206.96 120.3 206.72 120.21 206.49 120.13 206.25 120.04 206.01 119.95 205.78 119.86 205.54 119.77 205.3 119.68 205.07 119.58 204.83 119.49 204.59 119.39 204.36 119.3 204.13 119.2 203.9 119.1 203.66 119 203.43 118.9 203.19 118.8 202.96 118.7 202.73 118.6 202.5 118.5 202.27 118.39 202.04 118.36 201.97"/><polyline class="cls-1" points="109.69 202.24 109.66 202.31 109.55 202.54 109.45 202.77 109.34 203 109.24 203.23 109.13 203.46 109.03 203.69 108.92 203.92 108.83 204.15 108.73 204.39 108.63 204.62 108.53 204.85 108.43 205.09 108.33 205.32 108.24 205.56 108.14 205.79 108.05 206.03 107.96 206.26 107.87 206.5 107.78 206.74 107.69 206.97 107.6 207.21 107.51 207.45 107.42 207.68 107.34 207.92 107.26 208.16 107.17 208.4 107.09 208.64 107.01 208.88 106.92 209.12 106.84 209.36 106.77 209.6 106.69 209.84 106.61 210.08 106.54 210.32 106.46 210.57 106.39 210.81 106.31 211.05 106.24 211.29 106.17 211.54 106.1 211.78 106.03 212.03 105.97 212.27 105.9 212.51 105.83 212.76 105.76 213 105.7 213.25 105.64 213.49 105.58 213.74 105.52 213.99 105.45 214.24 105.39 214.48 105.34 214.72 105.28 214.97 105.22 215.22 105.17 215.47 105.11 215.72 105.06 215.97 105.01 216.21 104.95 216.46 104.91 216.71 104.86 216.96 104.81 217.21 104.76 217.46 104.72 217.71 104.67 217.96 104.63 218.2 104.58 218.46 104.54 218.71 104.5 218.96 104.46 219.21 104.42 219.46 104.38 219.71 104.35 219.96 104.32 220.12"/><polyline class="cls-1" points="100.83 164.23 100.8 164.25 100.74 164.28 100.67 164.32 100.61 164.36 100.55 164.4 100.48 164.44 100.42 164.48 100.36 164.52 100.3 164.56 100.23 164.61 100.17 164.65 100.11 164.7 100.05 164.74 99.99 164.79 99.93 164.84 99.88 164.89 99.82 164.94 99.77 164.99 99.71 165.04 99.65 165.09 99.59 165.14 99.55 165.19"/><line class="cls-1" x1="112.23" y1="163.88" x2="100.85" y2="164.22"/><polyline class="cls-1" points="141.06 225.94 141.06 225.89 141.03 225.63 140.99 225.38 140.96 225.13 140.92 224.88 140.89 224.63 140.85 224.37 140.81 224.13 140.77 223.88 140.74 223.63 140.69 223.37 140.65 223.13 140.61 222.87 140.56 222.62 140.52 222.37 140.47 222.13 140.43 221.88 140.38 221.63 140.33 221.38 140.28 221.13 140.23 220.88 140.18 220.63 140.12 220.38 140.07 220.14 140.01 219.89 139.96 219.64 139.9 219.39 139.84 219.15 139.78 218.9 139.73 218.65 139.66 218.41 139.6 218.16 139.54 217.92 139.47 217.67 139.41 217.43 139.34 217.18 139.28 216.94 139.21 216.69 139.14 216.45 139.07 216.21 139 215.96 138.93 215.72 138.85 215.47 138.78 215.23 138.7 214.99 138.63 214.75 138.55 214.51 138.47 214.26 138.4 214.03 138.32 213.79 138.24 213.54 138.15 213.31 138.07 213.07 137.99 212.83 137.9 212.59 137.82 212.35 137.73 212.12 137.65 211.87 137.56 211.64 137.47 211.4 137.38 211.16 137.29 210.93 137.19 210.69 137.1 210.46 137.01 210.22 136.91 209.99 136.82 209.75 136.72 209.52 136.62 209.29 136.52 209.05 136.42 208.82 136.32 208.59 136.22 208.36 136.12 208.13 136.01 207.9 135.91 207.67 135.81 207.44 135.7 207.21 135.69 207.19"/><polyline class="cls-1" points="127.57 207.11 127.5 207.25 127.39 207.48 127.28 207.71 127.17 207.94 127.07 208.17 126.96 208.4 126.86 208.62 126.75 208.86 126.65 209.09 126.55 209.32 126.44 209.55 126.34 209.78 126.25 210.02 126.14 210.25 126.05 210.48 125.95 210.71 125.86 210.95 125.76 211.18 125.67 211.42 125.57 211.65 125.48 211.89 125.39 212.12 125.3 212.36 125.21 212.6 125.12 212.84 125.03 213.07 124.95 213.31 124.86 213.55 124.77 213.79 124.69 214.03 124.61 214.26 124.52 214.51 124.44 214.75 124.36 214.99 124.28 215.23 124.21 215.47 124.13 215.71 124.05 215.95 123.98 216.19 123.9 216.44 123.83 216.68 123.76 216.92 123.69 217.16 123.62 217.41 123.55 217.65 123.48 217.9 123.41 218.14 123.35 218.39 123.28 218.63 123.22 218.88 123.16 219.12 123.09 219.37 123.03 219.61 122.97 219.86 122.91 220.11 122.85 220.35 122.8 220.6 122.74 220.85 122.69 221.09 122.63 221.34 122.58 221.59 122.53 221.84 122.47 222.09 122.42 222.34 122.37 222.59 122.33 222.84 122.28 223.09 122.23 223.33 122.19 223.58 122.14 223.83 122.1 224.08 122.06 224.33 122.02 224.58 121.98 224.84 121.94 225.09 121.9 225.34 121.86 225.59 121.84 225.75"/><line class="cls-1" x1="128.28" y1="204.04" x2="128.25" y2="207.14"/><line class="cls-1" x1="135.02" y1="207.21" x2="135.05" y2="204.11"/><line class="cls-1" x1="129.99" y1="201.92" x2="129.97" y2="204.06"/><line class="cls-1" x1="133.35" y1="204.09" x2="133.38" y2="201.89"/><line class="cls-1" x1="149.77" y1="191.08" x2="152.58" y2="191.98"/><path class="cls-1" d="M171.93,177.07a.6.6,0,0,0-.4-.44"/><polyline class="cls-1" points="171.71 194.27 171.74 194.15 171.78 193.97 171.82 193.79 171.86 193.62 171.9 193.44 171.94 193.26 171.98 193.08 172.01 192.91 172.05 192.73 172.09 192.54 172.12 192.36 172.16 192.18 172.19 192 172.22 191.82 172.26 191.64 172.29 191.45 172.32 191.27 172.35 191.09 172.38 190.9 172.41 190.72 172.43 190.54 172.46 190.35 172.48 190.16 172.51 189.98 172.53 189.79 172.55 189.61 172.58 189.42 172.6 189.24 172.62 189.05 172.64 188.86 172.65 188.68 172.67 188.49 172.69 188.31 172.7 188.12 172.72 187.93 172.73 187.75 172.74 187.56 172.75 187.37 172.76 187.18 172.78 186.99 172.78 186.81 172.79 186.62 172.8 186.43 172.8 186.25 172.81 186.05 172.81 185.87 172.82 185.68 172.82 185.49 172.82 185.3 172.82 185.11 172.82 184.93 172.82 184.74 172.82 184.55 172.81 184.36 172.81 184.18 172.8 183.99 172.8 183.8 172.79 183.61 172.78 183.43 172.77 183.24 172.76 183.04 172.75 182.86 172.74 182.67 172.72 182.48 172.71 182.3 172.7 182.11 172.68 181.92 172.67 181.74 172.65 181.55 172.63 181.36 172.61 181.18 172.59 180.99 172.57 180.8 172.54 180.62 172.52 180.43 172.5 180.24 172.47 180.05 172.45 179.87 172.42 179.68 172.39 179.5 172.36 179.31 172.33 179.13 172.3 178.94 172.27 178.76 172.24 178.57 172.2 178.39 172.17 178.2 172.13 178.02 172.1 177.84 172.06 177.65 172.02 177.47 171.98 177.28 171.94 177.1 171.93 177.07"/><line class="cls-1" x1="171.54" y1="176.64" x2="168.92" y2="175.8"/><line class="cls-1" x1="168.92" y1="175.8" x2="146.73" y2="168.67"/><line class="cls-1" x1="66.17" y1="70.68" x2="65.69" y2="70.7"/><line class="cls-1" x1="88.85" y1="98.75" x2="88.96" y2="90.67"/><line class="cls-1" x1="68.32" y1="122.12" x2="76.79" y2="121.86"/><line class="cls-1" x1="83.98" y1="121.64" x2="99.51" y2="121.17"/><line class="cls-1" x1="88.95" y1="90.67" x2="89.5" y2="33.71"/><line class="cls-1" x1="68.48" y1="200.05" x2="68.45" y2="202.79"/><line class="cls-1" x1="75.22" y1="202.86" x2="75.23" y2="202.22"/><polyline class="cls-1" points="81.03 219.83 81.02 219.78 80.98 219.53 80.94 219.28 80.9 219.03 80.86 218.78 80.81 218.53 80.77 218.28 80.72 218.03 80.68 217.78 80.63 217.53 80.58 217.28 80.53 217.03 80.48 216.78 80.44 216.53 80.38 216.28 80.33 216.04 80.27 215.79 80.22 215.54 80.16 215.29 80.11 215.05 80.05 214.8 79.99 214.55 79.93 214.31 79.87 214.06 79.81 213.82 79.74 213.57 79.68 213.32 79.62 213.08 79.55 212.84 79.48 212.59 79.41 212.34 79.34 212.1 79.28 211.86 79.21 211.62 79.13 211.37 79.06 211.13 78.98 210.89 78.91 210.64 78.84 210.4 78.76 210.16 78.68 209.92 78.6 209.68 78.52 209.44 78.44 209.2 78.36 208.96 78.28 208.72 78.19 208.48 78.11 208.24 78.03 208 77.94 207.76 77.85 207.53 77.76 207.29 77.67 207.05 77.58 206.82 77.49 206.58 77.4 206.35 77.31 206.11 77.21 205.88 77.11 205.64 77.02 205.41 76.92 205.17 76.83 204.94 76.73 204.71 76.63 204.47 76.53 204.24 76.42 204.01 76.32 203.78 76.22 203.55 76.11 203.32 76.01 203.09 75.91 202.86 75.89 202.84"/><polyline class="cls-1" points="67.78 202.76 67.71 202.91 67.6 203.13 67.49 203.36 67.38 203.59 67.27 203.81 67.17 204.05 67.06 204.28 66.96 204.51 66.86 204.74 66.75 204.97 66.65 205.2 66.55 205.43 66.45 205.67 66.35 205.9 66.25 206.13 66.15 206.37 66.06 206.6 65.96 206.83 65.87 207.07 65.78 207.3 65.68 207.54 65.59 207.78 65.5 208.01 65.41 208.25 65.32 208.49 65.23 208.72 65.15 208.96 65.06 209.2 64.98 209.44 64.89 209.68 64.81 209.92 64.73 210.16 64.65 210.4 64.57 210.64 64.49 210.88 64.41 211.12 64.33 211.36 64.26 211.6 64.19 211.84 64.11 212.09 64.04 212.33 63.97 212.57 63.89 212.82 63.82 213.06 63.76 213.3 63.69 213.55 63.62 213.79 63.55 214.04 63.49 214.28 63.42 214.53 63.36 214.77 63.3 215.02 63.24 215.26 63.18 215.51 63.12 215.76 63.06 216 63 216.25 62.95 216.5 62.89 216.75 62.84 216.99 62.78 217.25 62.73 217.49 62.68 217.74 62.63 217.99 62.58 218.24 62.53 218.49 62.48 218.74 62.44 218.98 62.39 219.23 62.35 219.49 62.31 219.74 62.27 219.99 62.22 220.24 62.18 220.49 62.14 220.74 62.1 220.99 62.07 221.24 62.05 221.4"/><line class="cls-1" x1="92.74" y1="208.48" x2="92.77" y2="205.39"/><line class="cls-1" x1="86" y1="205.32" x2="85.97" y2="208.42"/><line class="cls-1" x1="91.08" y1="205.37" x2="91.1" y2="203.17"/><line class="cls-1" x1="87.71" y1="203.19" x2="87.69" y2="205.34"/><polyline class="cls-1" points="98.79 227.21 98.78 227.16 98.75 226.91 98.72 226.66 98.68 226.41 98.65 226.16 98.61 225.91 98.57 225.66 98.54 225.4 98.5 225.15 98.46 224.9 98.42 224.66 98.37 224.41 98.33 224.15 98.29 223.9 98.24 223.66 98.2 223.41 98.15 223.16 98.1 222.91 98.05 222.66 98 222.41 97.95 222.16 97.9 221.91 97.85 221.66 97.79 221.42 97.74 221.17 97.68 220.92 97.62 220.67 97.57 220.43 97.51 220.18 97.45 219.93 97.39 219.69 97.33 219.44 97.26 219.19 97.2 218.95 97.13 218.7 97.07 218.46 97 218.21 96.93 217.97 96.86 217.73 96.79 217.49 96.72 217.24 96.65 217 96.58 216.75 96.5 216.51 96.43 216.27 96.35 216.03 96.28 215.79 96.2 215.55 96.12 215.31 96.04 215.06 95.96 214.82 95.88 214.59 95.8 214.34 95.71 214.11 95.63 213.87 95.54 213.63 95.46 213.39 95.37 213.15 95.28 212.92 95.19 212.68 95.1 212.44 95.01 212.21 94.92 211.97 94.82 211.74 94.73 211.5 94.64 211.26 94.54 211.03 94.44 210.8 94.34 210.57 94.24 210.33 94.14 210.1 94.05 209.87 93.94 209.63 93.84 209.41 93.74 209.17 93.63 208.94 93.53 208.72 93.42 208.49 93.41 208.46"/><polyline class="cls-1" points="85.3 208.39 85.23 208.53 85.11 208.76 85.01 208.99 84.9 209.22 84.79 209.44 84.69 209.67 84.58 209.91 84.47 210.13 84.37 210.37 84.27 210.6 84.17 210.83 84.07 211.06 83.97 211.29 83.87 211.53 83.77 211.76 83.67 211.99 83.58 212.22 83.48 212.46 83.39 212.69 83.29 212.93 83.2 213.17 83.11 213.4 83.02 213.64 82.93 213.88 82.84 214.11 82.75 214.35 82.67 214.59 82.58 214.83 82.5 215.06 82.41 215.31 82.33 215.54 82.25 215.78 82.17 216.03 82.09 216.27 82.01 216.51 81.93 216.75 81.85 216.99 81.78 217.23 81.7 217.47 81.63 217.71 81.55 217.96 81.48 218.2 81.41 218.44 81.34 218.69 81.27 218.93 81.2 219.17 81.14 219.42 81.07 219.66 81 219.91 80.94 220.16 80.88 220.4 80.82 220.65 80.75 220.89 80.69 221.14 80.64 221.39 80.58 221.63 80.52 221.88 80.46 222.13 80.41 222.37 80.36 222.62 80.3 222.87 80.25 223.12 80.2 223.37 80.15 223.61 80.1 223.86 80.05 224.11 80 224.36 79.96 224.61 79.91 224.86 79.87 225.11 79.82 225.36 79.78 225.61 79.74 225.86 79.7 226.11 79.66 226.36 79.62 226.61 79.59 226.86 79.57 227.03"/><polyline class="cls-1" points="120.6 157.43 120.6 157.46 120.6 157.49 120.6 157.51 120.6 157.54 120.6 157.56 120.6 157.59 120.61 157.62 120.61 157.64 120.61 157.67 120.61 157.69 120.62 157.71 120.62 157.74 120.63 157.76 120.63 157.78 120.64 157.81 120.64 157.83 120.65 157.85 120.65 157.87 120.66 157.88 120.67 157.9 120.67 157.92 120.68 157.94 120.69 157.95 120.7 157.97 120.7 157.98 120.71 158 120.72 158 120.73 158.02"/><polyline class="cls-1" points="120.73 158.02 120.86 158.16 120.98 158.3 121.11 158.44 121.24 158.58 121.36 158.73 121.49 158.88 121.62 159.03 121.74 159.17 121.87 159.32 122 159.47 122.12 159.62 122.25 159.77 122.37 159.93 122.5 160.08 122.62 160.24 122.75 160.39 122.88 160.55 123 160.71 123.13 160.87 123.25 161.03 123.38 161.19 123.5 161.35 123.63 161.52 123.75 161.68 123.87 161.84 124 162.01 124.12 162.18 124.25 162.35 124.37 162.52 124.49 162.69 124.62 162.86 124.74 163.03 124.86 163.21 124.98 163.38 125.11 163.56 125.23 163.74 125.35 163.92 125.47 164.09 125.6 164.28 125.72 164.45 125.84 164.64 125.96 164.82 126.09 165 126.21 165.19 126.33 165.38 126.45 165.56 126.57 165.75 126.69 165.94 126.81 166.13 126.94 166.32"/><line class="cls-1" x1="126.93" y1="166.32" x2="127.04" y2="166.9"/><line class="cls-1" x1="127.04" y1="166.9" x2="127" y2="171.11"/><polyline class="cls-1" points="112.22 166.37 112.22 166.14 112.23 165.65 112.23 165.15 112.23 164.66 112.23 164.17 112.23 163.67 112.24 163.18 112.24 162.69 112.25 162.19 112.25 161.7 112.25 161.21 112.26 160.72 112.27 160.22 112.27 159.73 112.28 159.24 112.28 158.75 112.29 158.25 112.3 157.76 112.31 157.27 112.31 156.78 112.32 156.29 112.33 155.8 112.34 155.31 112.35 154.82 112.36 154.33 112.37 153.84 112.38 153.34 112.39 152.86 112.41 152.37 112.42 151.88 112.43 151.38 112.44 150.9 112.46 150.41 112.47 149.92 112.49 149.43 112.5 148.94 112.52 148.45 112.53 147.97 112.55 147.47 112.56 146.99 112.58 146.5 112.6 146.01 112.61 145.52 112.63 145.04 112.65 144.56 112.67 144.06 112.69 143.58 112.71 143.09 112.73 142.61 112.75 142.12 112.77 141.63 112.79 141.15 112.81 140.67 112.83 140.18 112.85 139.7 112.87 139.21 112.9 138.73 112.92 138.25 112.94 137.76 112.97 137.28 112.99 136.8 113.02 136.31 113.04 135.83 113.07 135.35 113.09 134.87 113.12 134.39 113.15 133.91 113.17 133.42 113.2 132.94 113.23 132.46 113.26 131.98 113.29 131.5 113.31 131.03 113.35 130.54 113.37 130.06 113.4 129.59 113.43 129.11 113.46 128.63 113.5 128.15 113.53 127.67 113.56 127.2 113.59 126.72 113.63 126.24 113.66 125.77 113.69 125.29 113.73 124.82 113.76 124.34 113.79 123.86 113.83 123.39 113.86 122.92 113.9 122.44 113.94 121.97 113.97 121.5 114.01 121.03 114.05 120.55 114.09 120.08 114.12 119.61 114.16 119.13 114.2 118.66 114.22 118.48"/><line class="cls-1" x1="120.97" y1="118.27" x2="120.6" y2="157.43"/><polyline class="cls-1" points="140.44 157.42 140.57 157.56 140.69 157.7 140.82 157.85 140.95 157.99 141.08 158.14 141.2 158.28 141.33 158.43 141.46 158.57 141.58 158.72 141.71 158.87 141.84 159.03 141.96 159.18 142.09 159.33 142.21 159.49 142.34 159.64 142.46 159.79 142.59 159.95 142.72 160.11 142.84 160.27 142.97 160.43 143.09 160.59 143.21 160.75 143.34 160.92 143.46 161.09 143.59 161.25 143.71 161.41 143.84 161.58 143.96 161.75 144.08 161.92 144.21 162.09 144.33 162.26 144.45 162.44 144.58 162.61 144.7 162.79 144.82 162.96 144.94 163.14 145.07 163.32 145.19 163.5 145.31 163.68 145.43 163.86 145.56 164.04 145.68 164.22 145.8 164.41 145.92 164.6 146.04 164.78 146.16 164.97 146.28 165.16 146.41 165.35 146.52 165.54 146.65 165.73"/><line class="cls-1" x1="146.65" y1="165.73" x2="146.76" y2="166.3"/><line class="cls-1" x1="146.76" y1="166.3" x2="127.04" y2="166.9"/><line class="cls-1" x1="146.76" y1="166.3" x2="146.71" y2="171.28"/><line class="cls-1" x1="146.71" y1="171.28" x2="129.15" y2="171.8"/><line class="cls-1" x1="140.31" y1="156.84" x2="120.6" y2="157.43"/><line class="cls-1" x1="140.69" y1="117.67" x2="140.31" y2="156.84"/><polyline class="cls-1" points="140.31 156.84 140.31 156.87 140.31 156.89 140.31 156.92 140.31 156.94 140.32 156.97 140.32 156.99 140.32 157.02 140.32 157.04 140.32 157.07 140.33 157.09 140.33 157.12 140.34 157.14 140.34 157.17 140.35 157.19 140.35 157.21 140.36 157.23 140.36 157.25 140.37 157.27 140.37 157.29 140.38 157.31 140.39 157.33 140.39 157.34 140.4 157.36 140.41 157.37 140.42 157.39 140.43 157.4 140.44 157.41 140.44 157.42"/><line class="cls-1" x1="144.16" y1="111.17" x2="142.78" y2="106.52"/><line class="cls-1" x1="142.78" y1="106.52" x2="145.7" y2="106.43"/><polyline class="cls-1" points="145.7 106.43 145.79 106.43 145.88 106.42 145.96 106.41 146.05 106.4 146.13 106.39 146.21 106.38 146.29 106.36 146.38 106.35 146.46 106.33 146.53 106.31 146.61 106.29 146.69 106.27 146.76 106.24 146.84 106.21 146.91 106.18 146.98 106.15 147.05 106.12 147.12 106.09 147.19 106.05 147.25 106.01 147.32 105.97 147.38 105.93 147.44 105.89 147.5 105.85 147.55 105.8 147.61 105.76 147.66 105.71 147.71 105.66 147.76 105.61 147.81 105.56 147.86 105.5 147.9 105.45 147.94 105.39 147.98 105.34 148.01 105.28 148.05 105.22 148.08 105.16 148.11 105.1 148.14 105.04 148.17 104.97 148.17 104.97"/><line class="cls-1" x1="140.42" y1="98.56" x2="136.5" y2="85.36"/><line class="cls-1" x1="153.52" y1="110.88" x2="145.86" y2="85.07"/><line class="cls-1" x1="144.15" y1="112.5" x2="144.16" y2="111.17"/><line class="cls-1" x1="142.58" y1="112.92" x2="144.15" y2="112.5"/><line class="cls-1" x1="133.94" y1="84.53" x2="133.93" y2="84.99"/><line class="cls-1" x1="136.5" y1="85.35" x2="133.94" y2="84.53"/><line class="cls-1" x1="142.37" y1="97.92" x2="142.14" y2="98.51"/><line class="cls-1" x1="143.99" y1="103.41" x2="142.37" y2="97.92"/><line class="cls-1" x1="142.78" y1="106.52" x2="143.99" y2="103.41"/><line class="cls-1" x1="143.99" y1="103.41" x2="146.92" y2="103.32"/><line class="cls-1" x1="142.37" y1="97.92" x2="145.29" y2="97.83"/><polyline class="cls-1" points="145.29 97.83 145.38 97.83 145.47 97.83 145.56 97.83 145.64 97.84 145.73 97.84 145.82 97.85 145.91 97.86 146 97.88 146.09 97.89 146.18 97.9 146.27 97.92 146.35 97.94 146.44 97.96 146.53 97.98 146.62 98 146.71 98.03 146.8 98.06 146.88 98.09 146.97 98.11 147.06 98.15 147.15 98.18 147.23 98.22 147.31 98.26 147.4 98.3 147.48 98.34 147.56 98.38 147.64 98.42 147.72 98.47 147.8 98.52 147.88 98.56 147.95 98.61 148.03 98.67 148.1 98.72 148.17 98.77 148.24 98.83 148.31 98.88 148.38 98.94 148.44 99 148.5 99.06 148.57 99.12 148.63 99.18 148.69 99.24 148.75 99.31 148.8 99.37 148.86 99.43 148.91 99.5 148.96 99.56 149.01 99.63 149.05 99.7 149.1 99.77 149.14 99.84 149.18 99.91 149.22 99.98 149.25 100.05 149.29 100.12 149.32 100.19 149.35 100.26 149.37 100.33 149.4 100.41 149.42 100.48 149.44 100.54 149.46 100.62 149.47 100.69 149.49 100.77 149.5 100.84 149.51 100.9 149.51 100.98 149.52 101.05 149.52 101.12 149.52 101.19 149.52 101.26 149.51 101.33 149.5 101.4 149.49 101.47 149.48 101.53 149.46 101.6 149.45 101.67 149.43 101.73 149.41 101.8 149.38 101.86 149.36 101.92 149.33 101.98 149.3 102.05 149.26 102.11 149.23 102.17 149.19 102.23 149.15 102.28 149.11 102.34 149.07 102.39 149.02 102.44 148.97 102.5 148.93 102.55 148.88 102.6 148.82 102.64 148.77 102.69 148.71 102.74 148.65 102.78 148.59 102.82 148.53 102.86 148.47 102.9 148.4 102.94 148.34 102.97 148.27 103.01 148.2 103.04 148.12 103.07 148.05 103.1 147.98 103.13 147.9 103.15 147.83 103.18 147.75 103.2 147.67 103.22 147.59 103.24 147.51 103.25 147.43 103.27 147.34 103.28 147.26 103.29 147.18 103.3 147.09 103.31 147 103.31 146.92 103.32"/><line class="cls-1" x1="153.5" y1="112.22" x2="153.52" y2="110.88"/><line class="cls-1" x1="144.15" y1="112.5" x2="153.5" y2="112.22"/><line class="cls-1" x1="143.41" y1="114.55" x2="147.68" y2="113.41"/><line class="cls-1" x1="142.56" y1="114.58" x2="143.41" y2="114.55"/><line class="cls-1" x1="149.24" y1="113.36" x2="153.5" y2="112.22"/><line class="cls-1" x1="147.68" y1="113.41" x2="149.24" y2="113.36"/><line class="cls-1" x1="133.94" y1="84.53" x2="143.3" y2="84.25"/><line class="cls-1" x1="145.86" y1="85.07" x2="143.3" y2="84.25"/><polyline class="cls-1" points="104.32 220.12 104.32 220.14 104.33 220.17 104.33 220.2 104.35 220.23 104.38 220.26 104.41 220.28 104.44 220.31 104.49 220.34 104.54 220.37 104.59 220.4 104.66 220.42 104.72 220.45 104.8 220.48 104.88 220.51 104.97 220.53 105.06 220.56 105.16 220.59 105.27 220.61 105.38 220.64 105.5 220.66 105.62 220.69 105.75 220.71 105.89 220.74 106.02 220.76 106.17 220.79 106.32 220.81 106.48 220.84 106.64 220.86 106.81 220.88 106.98 220.91 107.15 220.93 107.34 220.95 107.52 220.97 107.71 220.99 107.9 221.01 108.1 221.03 108.31 221.05 108.51 221.06 108.72 221.08 108.93 221.1 109.15 221.11 109.37 221.13 109.59 221.15 109.82 221.16 110.05 221.18 110.28 221.19 110.51 221.2 110.75 221.21 110.99 221.22 111.23 221.24 111.47 221.24 111.71 221.25 111.96 221.26 112.21 221.27 112.45 221.27 112.7 221.28 112.96 221.29 113.2 221.29 113.45 221.29 113.7 221.3 113.96 221.3 114.21 221.3 114.46 221.3 114.71 221.31 114.96 221.3 115.21 221.3 115.46 221.3 115.71 221.3 115.96 221.3 116.2 221.29 116.44 221.29 116.69 221.28 116.93 221.28 117.17 221.27 117.4 221.26 117.63 221.26 117.87 221.25 118.09 221.24 118.32 221.23 118.54 221.21 118.76 221.2 118.98 221.19 119.19 221.18 119.4 221.16 119.6 221.15 119.8 221.14 120 221.12 120.2 221.1 120.38 221.09 120.57 221.07 120.75 221.05 120.92 221.03 121.09 221.01 121.26 220.99 121.42 220.98 121.58 220.96 121.72 220.93 121.87 220.91 122.01 220.89 122.14 220.87 122.27 220.84 122.39 220.82 122.51 220.8 122.62 220.77 122.72 220.75 122.77 220.74"/><line class="cls-1" x1="107.77" y1="164.94" x2="103.49" y2="165.07"/><line class="cls-1" x1="110.31" y1="165.75" x2="112.23" y2="165.7"/><line class="cls-1" x1="100.88" y1="164.23" x2="103.49" y2="165.07"/><line class="cls-1" x1="112.23" y1="164.17" x2="105.96" y2="164.36"/><line class="cls-1" x1="105.96" y1="164.36" x2="107.77" y2="164.94"/><line class="cls-1" x1="108.5" y1="165.17" x2="112.23" y2="165.06"/><path class="cls-1" d="M100.88,164.23a.06.06,0,0,0-.05,0"/><polyline class="cls-1" points="100.88 164.23 100.87 164.23 100.86 164.22 100.85 164.22 100.84 164.23 100.83 164.23 100.82 164.23 100.81 164.24 100.81 164.25 100.8 164.25"/><polyline class="cls-1" points="121.84 225.75 121.84 225.77 121.84 225.8 121.85 225.83 121.87 225.85 121.89 225.88 121.92 225.91 121.96 225.94 122 225.97 122.06 226 122.11 226.02 122.17 226.05 122.24 226.08 122.32 226.11 122.4 226.13 122.49 226.16 122.58 226.19 122.68 226.21 122.79 226.24 122.9 226.27 123.02 226.29 123.14 226.32 123.27 226.34 123.41 226.37 123.54 226.39 123.69 226.41 123.84 226.44 124 226.46 124.16 226.49 124.33 226.51 124.5 226.53 124.67 226.55 124.85 226.57 125.04 226.6 125.23 226.61 125.42 226.64 125.62 226.65 125.82 226.67 126.03 226.69 126.24 226.71 126.45 226.72 126.67 226.74 126.89 226.76 127.11 226.77 127.34 226.79 127.56 226.8 127.8 226.81 128.03 226.83 128.27 226.84 128.5 226.85 128.75 226.86 128.99 226.87 129.23 226.88 129.48 226.89 129.72 226.89 129.97 226.9 130.22 226.91 130.47 226.91 130.72 226.92 130.97 226.92 131.22 226.93 131.48 226.93 131.73 226.93 131.98 226.93 132.23 226.93 132.48 226.93 132.73 226.93 132.98 226.93 133.23 226.93 133.47 226.92 133.72 226.92 133.96 226.91 134.21 226.91 134.45 226.9 134.68 226.9 134.92 226.89 135.15 226.88 135.39 226.87 135.61 226.86 135.84 226.85 136.06 226.84 136.28 226.83 136.49 226.82 136.71 226.8 136.92 226.79 137.12 226.78 137.32 226.76 137.52 226.75 137.71 226.73 137.9 226.71 138.09 226.69 138.27 226.68 138.44 226.66 138.61 226.64 138.78 226.62 138.94 226.6 139.09 226.58 139.24 226.56 139.38 226.54 139.53 226.52 139.66 226.5 139.79 226.47 139.91 226.45 140.03 226.42 140.14 226.4 140.24 226.37 140.34 226.35 140.44 226.32 140.52 226.3 140.6 226.27 140.67 226.25 140.74 226.22 140.8 226.19 140.86 226.17 140.91 226.14 140.95 226.11 140.99 226.09 141.01 226.06 141.04 226.03 141.05 226 141.06 225.97 141.06 225.94 141.06 225.93"/><polyline class="cls-1" points="135.46 207.06 135.42 207.04 135.38 207.03 135.34 207.02 135.29 207.01 135.25 207 135.19 206.99 135.15 206.98 135.09 206.97 135.03 206.96 135.02 206.96"/><polyline class="cls-1" points="128.25 206.89 128.22 206.89 128.16 206.91 128.11 206.91 128.06 206.92 128 206.93 127.96 206.94 127.91 206.96 127.87 206.96 127.83 206.97 127.8 206.99 127.76 206.99 127.73 207.01 127.7 207.02 127.68 207.03 127.65 207.04 127.64 207.05 127.62 207.07 127.6 207.07 127.59 207.09 127.58 207.1 127.57 207.11 127.57 207.12 127.57 207.13 127.57 207.15 127.57 207.16 127.58 207.17 127.59 207.18 127.6 207.19 127.62 207.21 127.64 207.22 127.66 207.23 127.68 207.24 127.71 207.25 127.74 207.27 127.77 207.27 127.81 207.29 127.84 207.3 127.88 207.31 127.92 207.32 127.97 207.33 128.02 207.34 128.06 207.35 128.12 207.37 128.17 207.38 128.23 207.39 128.29 207.4 128.35 207.41 128.41 207.42 128.48 207.43 128.55 207.44 128.62 207.45 128.69 207.46 128.77 207.46 128.84 207.47 128.92 207.48 129 207.49 129.08 207.5 129.16 207.51 129.25 207.51 129.34 207.52 129.43 207.53 129.52 207.53 129.61 207.54 129.7 207.55 129.79 207.56 129.89 207.56 129.99 207.57 130.09 207.57 130.19 207.58 130.28 207.59 130.39 207.59 130.49 207.59 130.59 207.6 130.69 207.6 130.8 207.61 130.9 207.61 131.01 207.61 131.11 207.62 131.22 207.62 131.32 207.62 131.43 207.62 131.53 207.62 131.64 207.62 131.75 207.62 131.85 207.62 131.96 207.62 132.07 207.62 132.17 207.62 132.28 207.62 132.38 207.62 132.49 207.62 132.59 207.62 132.69 207.62 132.8 207.62 132.9 207.61 133 207.61 133.1 207.61 133.2 207.6 133.29 207.6 133.39 207.59 133.49 207.59 133.58 207.59 133.67 207.58 133.76 207.57 133.85 207.57 133.94 207.57 134.03 207.56 134.11 207.55 134.2 207.54 134.28 207.54 134.36 207.53 134.44 207.53 134.51 207.52 134.59 207.51 134.66 207.5 134.73 207.49 134.79 207.48 134.86 207.48 134.92 207.47 134.98 207.46 135.04 207.45 135.1 207.44 135.16 207.43 135.21 207.42 135.25 207.41 135.3 207.4 135.35 207.39 135.39 207.38 135.43 207.37 135.46 207.36 135.5 207.34 135.53 207.34 135.56 207.32 135.58 207.31 135.61 207.3 135.63 207.29 135.64 207.28 135.66 207.27 135.67 207.26 135.68 207.24 135.69 207.24 135.69 207.22 135.69 207.21 135.69 207.2 135.69 207.19 135.68 207.17 135.67 207.16 135.66 207.15 135.64 207.14 135.62 207.13 135.6 207.11 135.58 207.1 135.55 207.09 135.52 207.08 135.49 207.07 135.46 207.06"/><polyline class="cls-1" points="127.81 207.29 127.77 207.28 127.74 207.27 127.71 207.25 127.68 207.24 127.66 207.23 127.64 207.22 127.62 207.21 127.6 207.19 127.59 207.18 127.58 207.17 127.58 207.16 127.57 207.15 127.57 207.13 127.57 207.12 127.57 207.11 127.58 207.1 127.59 207.09 127.6 207.07 127.62 207.07 127.63 207.05 127.65 207.04 127.68 207.03 127.7 207.02 127.73 207.01 127.76 207 127.8 206.99 127.84 206.98 127.87 206.96 127.92 206.95 127.96 206.94 128 206.93 128.06 206.92 128.11 206.91 128.16 206.91 128.22 206.89 128.25 206.89"/><polyline class="cls-1" points="135.02 206.96 135.03 206.96 135.09 206.97 135.15 206.98 135.19 206.99 135.25 207 135.29 207.01 135.34 207.02 135.38 207.03 135.42 207.04 135.46 207.06 135.49 207.07 135.52 207.08 135.55 207.09 135.58 207.1 135.6 207.11 135.62 207.13 135.64 207.14 135.66 207.15 135.67 207.16 135.68 207.17 135.69 207.19 135.69 207.2 135.69 207.21 135.69 207.22 135.69 207.23 135.68 207.24 135.67 207.26 135.66 207.27 135.64 207.28 135.63 207.29 135.61 207.3 135.58 207.31 135.56 207.32 135.53 207.34 135.5 207.34 135.47 207.36 135.43 207.37 135.39 207.38 135.35 207.39 135.3 207.4 135.25 207.41 135.21 207.42 135.16 207.43 135.1 207.44 135.04 207.45 134.98 207.46 134.92 207.47 134.86 207.48 134.79 207.48 134.73 207.49 134.66 207.5 134.59 207.51 134.51 207.52 134.44 207.53 134.36 207.53 134.28 207.54 134.2 207.54 134.11 207.55 134.03 207.56 133.94 207.57 133.85 207.57 133.76 207.58 133.67 207.58 133.58 207.59 133.49 207.59 133.39 207.59 133.29 207.6 133.2 207.6 133.1 207.61 133 207.61 132.9 207.61 132.8 207.62 132.69 207.62 132.59 207.62 132.49 207.62 132.38 207.62 132.28 207.62 132.17 207.62 132.07 207.62 131.96 207.62 131.86 207.62 131.75 207.62 131.64 207.62 131.53 207.62 131.43 207.62 131.32 207.62 131.22 207.62 131.11 207.62 131.01 207.61 130.9 207.61 130.8 207.61 130.69 207.6 130.59 207.6 130.49 207.59 130.39 207.59 130.28 207.59 130.19 207.58 130.09 207.58 129.99 207.57 129.89 207.56 129.79 207.56 129.7 207.55 129.61 207.54 129.52 207.53 129.43 207.53 129.34 207.52 129.25 207.51 129.16 207.51 129.08 207.5 129 207.49 128.92 207.48 128.84 207.47 128.77 207.46 128.69 207.46 128.62 207.45 128.55 207.44 128.48 207.43 128.41 207.42 128.35 207.41 128.29 207.4 128.23 207.39 128.17 207.38 128.12 207.37 128.06 207.35 128.02 207.34 127.97 207.33 127.92 207.32 127.88 207.31 127.84 207.3 127.81 207.29"/><polyline class="cls-1" points="128.44 207.27 128.47 207.28 128.51 207.29 128.54 207.29 128.58 207.3 128.62 207.31 128.66 207.32 128.7 207.33 128.75 207.34 128.8 207.35 128.84 207.36 128.9 207.37 128.95 207.38 129.01 207.38 129.06 207.39 129.12 207.4 129.18 207.41 129.25 207.42 129.31 207.43 129.37 207.43 129.44 207.44 129.51 207.45 129.58 207.45 129.65 207.46 129.72 207.46 129.79 207.47 129.87 207.48 129.95 207.48 130.02 207.49 130.1 207.49 130.18 207.5 130.26 207.51 130.34 207.51 130.43 207.51 130.51 207.52 130.6 207.52 130.68 207.52 130.76 207.53 130.85 207.53 130.94 207.53 131.02 207.53 131.11 207.54 131.2 207.54 131.28 207.54 131.37 207.54 131.46 207.54 131.55 207.55 131.64 207.55 131.73 207.55 131.82 207.55 131.9 207.55 131.99 207.55 132.08 207.55 132.17 207.55 132.26 207.55 132.34 207.55 132.43 207.54 132.52 207.54 132.6 207.54 132.69 207.54 132.77 207.53 132.85 207.53 132.94 207.53 133.02 207.53 133.1 207.53 133.18 207.52 133.25 207.52 133.33 207.51 133.41 207.51 133.48 207.51 133.56 207.5 133.63 207.49 133.7 207.49 133.77 207.48 133.84 207.48 133.9 207.47 133.97 207.47 134.03 207.46 134.09 207.46 134.15 207.45 134.21 207.44 134.27 207.43 134.32 207.43 134.37 207.42 134.43 207.41 134.48 207.4 134.52 207.4 134.57 207.39 134.61 207.38 134.65 207.37 134.69 207.36 134.73 207.35 134.76 207.34 134.79 207.34 134.83 207.33 134.85 207.32 134.88 207.31 134.9 207.3 134.92 207.29 134.94 207.28 134.96 207.27 134.97 207.26 134.99 207.25 135 207.24 135 207.23 135.01 207.22 135.02 207.21 135.02 207.21"/><polyline class="cls-1" points="128.25 207.14 128.25 207.15 128.25 207.16 128.25 207.17 128.26 207.18 128.28 207.19 128.29 207.2 128.3 207.21 128.32 207.22 128.34 207.23 128.36 207.24 128.39 207.25 128.41 207.26 128.44 207.27"/><polyline class="cls-1" points="128.47 204.17 128.44 204.16 128.42 204.15 128.39 204.15 128.37 204.13 128.35 204.12 128.33 204.11 128.32 204.1 128.31 204.1 128.29 204.08 128.28 204.07 128.28 204.07 128.28 204.06 128.28 204.04 128.28 204.04 128.28 204.02 128.28 204.01 128.29 204.01 128.3 204 128.32 203.99 128.33 203.98 128.35 203.97 128.37 203.96 128.39 203.95 128.41 203.94 128.44 203.93 128.47 203.92 128.5 203.91 128.53 203.91 128.56 203.9 128.6 203.89 128.64 203.88 128.68 203.87 128.72 203.86 128.77 203.85 128.82 203.84 128.86 203.84 128.91 203.83 128.97 203.82 129.03 203.81 129.08 203.81 129.14 203.8 129.2 203.79 129.26 203.79 129.32 203.78 129.39 203.78 129.46 203.77 129.52 203.76 129.59 203.76 129.66 203.75 129.74 203.75 129.81 203.74 129.88 203.74 129.96 203.74 129.97 203.73"/><polyline class="cls-1" points="133.36 203.76 133.42 203.77 133.5 203.78 133.57 203.78 133.64 203.79 133.71 203.79 133.78 203.8 133.85 203.81 133.92 203.81 133.99 203.82 134.05 203.83 134.11 203.84 134.17 203.84 134.23 203.85 134.29 203.86 134.34 203.87 134.4 203.88 134.45 203.89 134.49 203.9 134.54 203.91 134.59 203.92 134.63 203.93 134.68 203.93 134.71 203.94 134.75 203.95 134.78 203.96 134.82 203.97 134.85 203.98 134.88 203.99 134.9 204 134.93 204.01 134.95 204.02 134.97 204.03 134.99 204.04 135 204.05 135.02 204.06 135.03 204.07 135.03 204.08 135.04 204.09 135.04 204.1 135.05 204.11 135.04 204.12 135.04 204.13 135.03 204.14 135.03 204.15 135.02 204.15 135 204.16 134.99 204.18 134.97 204.18 134.96 204.2 134.93 204.21 134.91 204.21 134.88 204.22 134.86 204.23 134.82 204.24 134.79 204.25 134.75 204.26 134.72 204.27 134.68 204.28 134.64 204.29 134.6 204.29 134.55 204.3 134.5 204.31 134.46 204.31 134.4 204.32 134.35 204.33 134.3 204.34 134.24 204.34 134.18 204.35 134.12 204.36 134.06 204.37 134 204.37 133.93 204.38 133.87 204.38 133.8 204.39 133.73 204.4 133.66 204.4 133.59 204.41 133.51 204.41 133.44 204.41 133.36 204.42 133.29 204.42 133.21 204.43 133.13 204.43 133.05 204.43 132.97 204.43 132.88 204.44 132.8 204.44 132.72 204.44 132.63 204.45 132.55 204.45 132.46 204.45 132.37 204.45 132.28 204.46 132.2 204.46 132.11 204.46 132.03 204.46 131.94 204.46 131.85 204.46 131.76 204.46 131.67 204.46 131.58 204.46 131.49 204.45 131.4 204.45 131.31 204.45 131.22 204.45 131.14 204.44 131.05 204.44 130.97 204.44 130.88 204.43 130.79 204.43 130.71 204.43 130.62 204.43 130.54 204.42 130.46 204.42 130.37 204.41 130.29 204.41 130.21 204.41 130.13 204.4 130.05 204.39 129.98 204.39 129.9 204.38 129.82 204.38 129.75 204.37 129.68 204.36 129.6 204.36 129.54 204.35 129.47 204.34 129.4 204.34 129.34 204.33 129.27 204.32 129.21 204.31 129.15 204.31 129.09 204.3 129.03 204.29 128.98 204.28 128.93 204.27 128.88 204.26 128.83 204.26 128.78 204.25 128.73 204.24 128.69 204.23 128.65 204.22 128.61 204.21 128.57 204.2 128.53 204.19 128.5 204.18 128.47 204.17"/><polyline class="cls-1" points="130.07 204.12 130.08 204.13 130.1 204.13 130.12 204.14 130.13 204.15 130.16 204.15 130.18 204.15 130.2 204.16 130.22 204.16 130.24 204.17 130.27 204.17 130.29 204.18 130.32 204.18 130.35 204.18 130.38 204.19 130.41 204.19 130.43 204.19 130.47 204.2 130.5 204.2 130.53 204.21 130.57 204.21 130.6 204.21 130.63 204.21 130.67 204.22 130.71 204.22 130.74 204.23 130.78 204.23 130.82 204.23 130.86 204.24 130.9 204.24 130.93 204.24 130.98 204.24 131.02 204.24 131.06 204.25 131.1 204.25 131.14 204.25 131.18 204.25 131.23 204.26 131.27 204.26 131.31 204.26 131.36 204.26 131.4 204.26 131.45 204.26 131.49 204.26 131.53 204.26 131.58 204.26 131.62 204.26 131.67 204.26 131.71 204.26 131.75 204.26 131.8 204.26 131.84 204.26 131.89 204.26 131.93 204.26 131.97 204.26 132.02 204.26 132.06 204.26 132.1 204.26 132.15 204.26 132.19 204.26 132.23 204.26 132.27 204.26 132.31 204.26 132.35 204.26 132.39 204.25 132.43 204.25 132.47 204.25 132.51 204.25 132.55 204.25 132.59 204.24 132.62 204.24 132.66 204.24 132.69 204.24 132.73 204.24 132.76 204.23 132.8 204.23 132.83 204.22 132.86 204.22 132.89 204.22 132.92 204.21 132.95 204.21 132.98 204.21 133.01 204.2 133.03 204.2 133.06 204.2 133.08 204.19 133.11 204.19 133.13 204.18 133.15 204.18 133.17 204.18 133.19 204.17 133.21 204.17 133.23 204.16 133.24 204.16 133.26 204.15 133.27 204.15 133.28 204.15 133.3 204.14 133.31 204.13 133.32 204.13 133.32 204.12 133.33 204.12 133.34 204.12 133.35 204.11 133.35 204.11 133.35 204.1 133.35 204.1 133.35 204.09"/><polyline class="cls-1" points="129.97 204.06 129.97 204.07 129.97 204.07 129.97 204.07 129.98 204.08 129.98 204.09 129.99 204.09 130 204.1 130.01 204.1 130.01 204.1 130.03 204.11 130.04 204.11 130.05 204.12 130.07 204.12"/><line class="cls-1" x1="130.21" y1="201.62" x2="130.21" y2="201.99"/><line class="cls-1" x1="134.8" y1="201.48" x2="134.8" y2="201.85"/><line class="cls-1" x1="134.8" y1="201.85" x2="130.21" y2="201.99"/><line class="cls-1" x1="130.21" y1="201.99" x2="129.16" y2="201.65"/><polyline class="cls-1" points="142.17 177.49 142.09 177.54 142 177.59 141.91 177.65 141.83 177.7 141.74 177.75 141.66 177.81 141.58 177.87 141.5 177.92 141.42 177.99 141.34 178.05 141.26 178.11 141.18 178.18 141.11 178.24 141.03 178.31 140.96 178.38 140.89 178.45 140.82 178.53 140.75 178.6 140.68 178.67 140.61 178.75 140.54 178.83 140.48 178.91 140.42 178.99 140.36 179.07 140.29 179.15 140.24 179.24 140.18 179.32 140.12 179.41 140.07 179.49 140.01 179.58 139.96 179.67 139.91 179.76 139.87 179.85 139.82 179.94 139.77 180.03 139.73 180.13 139.69 180.22 139.65 180.32 139.61 180.41 139.57 180.51 139.54 180.6 139.5 180.7 139.47 180.8 139.44 180.9 139.41 181 139.38 181.09 139.36 181.2 139.33 181.3 139.31 181.4 139.29 181.5 139.28 181.6 139.26 181.7 139.25 181.8 139.23 181.9 139.22 182 139.21 182.11 139.2 182.21 139.2 182.31 139.19 182.41 139.19 182.52 139.19 182.62 139.19 182.72 139.2 182.82 139.2 182.93 139.21 183.03 139.22 183.13 139.23 183.23 139.24 183.33 139.26 183.44 139.28 183.53 139.29 183.63 139.31 183.73 139.33 183.83 139.35 183.93 139.38 184.03 139.41 184.12 139.44 184.22 139.47 184.32 139.5 184.41 139.53 184.5 139.57 184.6 139.6 184.7 139.64 184.78 139.68 184.88 139.73 184.97 139.77 185.06 139.82 185.14 139.86 185.23 139.91 185.32 139.96 185.41 140.01 185.49 140.06 185.58 140.12 185.66 140.18 185.74 140.23 185.82 140.29 185.9 140.35 185.97 140.41 186.05 140.48 186.13 140.54 186.2 140.61 186.27 140.67 186.34 140.74 186.41 140.81 186.48 140.88 186.55 140.96 186.61 141.03 186.68 141.1 186.74 141.18 186.8 141.25 186.86 141.33 186.92 141.41 186.97 141.49 187.03 141.57 187.08 141.66 187.13 141.74 187.18 141.82 187.23 141.91 187.28 141.99 187.32 142.08 187.36"/><line class="cls-1" x1="171.24" y1="194.51" x2="170.19" y2="194.54"/><polyline class="cls-1" points="170.19 194.54 169.94 194.55 169.69 194.55 169.44 194.55 169.2 194.55 168.94 194.55 168.69 194.55 168.44 194.55 168.19 194.55 167.94 194.54 167.69 194.54 167.44 194.53 167.19 194.52 166.94 194.51 166.69 194.5 166.44 194.49 166.19 194.48 165.94 194.46 165.7 194.45 165.45 194.43 165.2 194.42 164.95 194.4 164.7 194.38 164.45 194.36 164.2 194.34 163.95 194.31 163.7 194.29 163.46 194.26 163.21 194.24 162.96 194.21 162.71 194.18 162.46 194.15 162.22 194.12 161.97 194.09 161.72 194.06 161.48 194.02 161.23 193.99 160.98 193.95 160.74 193.91 160.49 193.88 160.24 193.83 160 193.79 159.75 193.75 159.51 193.71 159.26 193.66 159.02 193.62 158.77 193.57 158.53 193.52 158.28 193.47 158.04 193.42 157.8 193.37 157.55 193.32 157.31 193.26 157.07 193.21 156.83 193.16 156.58 193.1 156.34 193.04 156.1 192.98 155.86 192.92 155.62 192.86 155.37 192.8 155.13 192.73 154.89 192.66 154.65 192.6 154.41 192.53 154.18 192.47 153.94 192.4 153.7 192.33 153.46 192.25 153.22 192.18 152.99 192.11 152.75 192.03 152.51 191.96 152.27 191.88 152.03 191.81 151.8 191.72 151.56 191.64 151.33 191.56 151.09 191.48 150.86 191.4 150.63 191.31 150.39 191.23 150.16 191.14 149.93 191.05 149.69 190.96 149.46 190.88 149.23 190.78 149 190.69 148.77 190.59 148.54 190.5 148.31 190.4 148.08 190.31 147.85 190.21 147.62 190.11 147.39 190.01 147.16 189.91 146.94 189.81 146.71 189.71 146.48 189.6 146.26 189.5 146.03 189.39 145.81 189.28 145.59 189.18 145.36 189.07 145.14 188.96 144.91 188.85 144.69 188.73 144.47 188.62 144.25 188.5 144.03 188.39 143.81 188.28 143.59 188.15 143.37 188.04 143.15 187.92 142.93 187.8 142.71 187.68 142.5 187.55 142.28 187.43"/><polyline class="cls-1" points="139.46 186.52 139.38 186.48 139.29 186.44 139.21 186.39 139.12 186.34 139.04 186.29 138.96 186.25 138.88 186.19 138.8 186.13 138.72 186.08 138.64 186.02 138.56 185.96 138.49 185.9 138.41 185.84 138.34 185.78 138.27 185.71 138.2 185.64 138.13 185.57 138.06 185.5 137.99 185.43 137.93 185.36 137.86 185.29 137.8 185.21 137.74 185.13 137.68 185.06 137.62 184.98 137.56 184.9 137.5 184.82 137.45 184.73 137.4 184.65 137.34 184.56 137.29 184.48 137.25 184.4 137.2 184.31 137.16 184.22 137.11 184.13 137.07 184.04 137.03 183.95 136.99 183.85 136.95 183.76 136.92 183.67 136.88 183.57 136.85 183.48 136.82 183.38 136.79 183.29 136.77 183.19 136.74 183.09 136.72 182.99 136.7 182.89 136.68 182.79 136.66 182.69 136.64 182.59 136.63 182.49 136.62 182.39 136.6 182.29 136.6 182.19 136.59 182.09 136.58 181.99 136.58 181.88 136.58 181.78 136.58 181.68 136.58 181.58 136.59 181.47 136.59 181.37 136.6 181.27 136.61 181.17 136.62 181.06 136.63 180.96 136.64 180.86 136.66 180.76 136.68 180.66 136.7 180.56 136.72 180.46 136.74 180.35 136.77 180.26 136.79 180.16 136.82 180.06 136.85 179.96 136.89 179.86 136.92 179.76 136.96 179.67 136.99 179.57 137.03 179.48 137.07 179.38 137.11 179.29 137.16 179.19 137.2 179.11 137.25 179.01 137.3 178.92 137.35 178.83 137.4 178.74 137.46 178.66 137.51 178.57 137.56 178.48 137.62 178.4 137.68 178.31 137.74 178.23 137.8 178.15 137.87 178.07 137.93 177.99 138 177.91 138.06 177.84 138.13 177.76 138.2 177.69 138.27 177.62 138.34 177.54 138.42 177.48 138.49 177.4 138.57 177.34 138.65 177.27 138.72 177.21 138.81 177.15 138.89 177.09 138.97 177.03 139.05 176.97 139.13 176.91 139.21 176.86 139.3 176.8 139.38 176.75 139.47 176.7 139.56 176.65"/><line class="cls-1" x1="171.36" y1="176.61" x2="142.17" y2="177.49"/><line class="cls-1" x1="143.84" y1="176.52" x2="139.56" y2="176.65"/><line class="cls-1" x1="145.65" y1="177.11" x2="143.84" y2="176.52"/><line class="cls-1" x1="171.36" y1="176.61" x2="168.74" y2="175.77"/><line class="cls-1" x1="142.08" y1="187.37" x2="142.28" y2="187.43"/><polyline class="cls-1" points="139.46 186.52 139.68 186.65 139.9 186.77 140.12 186.89 140.33 187.01 140.55 187.13 140.77 187.25 140.99 187.37 141.21 187.49 141.43 187.6 141.65 187.72 141.88 187.83 142.1 187.94 142.32 188.05 142.54 188.16 142.77 188.27 142.99 188.38 143.22 188.49 143.44 188.59 143.67 188.7 143.9 188.8 144.12 188.91 144.35 189.01 144.58 189.11 144.81 189.21 145.03 189.31 145.26 189.41 145.49 189.5 145.72 189.6 145.95 189.69 146.19 189.78 146.41 189.88 146.65 189.97 146.88 190.06 147.11 190.15 147.34 190.24 147.58 190.32 147.81 190.41 148.04 190.49 148.28 190.57 148.51 190.66 148.75 190.74 148.98 190.82 149.22 190.9 149.46 190.97 149.69 191.05 149.77 191.08"/><polyline class="cls-1" points="171.24 194.51 171.28 194.51 171.31 194.51 171.35 194.5 171.38 194.5"/><polyline class="cls-1" points="171.38 194.5 171.41 194.5 171.45 194.49 171.48 194.48 171.5 194.48 171.52 194.47 171.54 194.46 171.56 194.45 171.58 194.43 171.6 194.41 171.63 194.39 171.64 194.37 171.66 194.34 171.67 194.32 171.69 194.29 171.7 194.26 171.71 194.23 171.72 194.19"/><polyline class="cls-1" points="168.92 175.8 168.92 175.8 168.89 175.79 168.87 175.78 168.84 175.78 168.82 175.77 168.79 175.77 168.77 175.77 168.74 175.77"/><line class="cls-1" x1="140.63" y1="176.62" x2="143.84" y2="176.52"/><polyline class="cls-1" points="168.74 175.77 168.77 175.77 168.79 175.77 168.81 175.77 168.84 175.78 168.87 175.78 168.89 175.79 168.91 175.8 168.92 175.8"/><line class="cls-1" x1="107.77" y1="164.94" x2="104.56" y2="165.04"/><line class="cls-1" x1="143.84" y1="176.52" x2="107.77" y2="164.94"/><line class="cls-1" x1="112.22" y1="165.7" x2="110.31" y2="165.76"/><line class="cls-1" x1="77.14" y1="121.82" x2="77.12" y2="123.92"/><line class="cls-1" x1="77.12" y1="123.92" x2="74.69" y2="123.14"/><line class="cls-1" x1="74.69" y1="123.14" x2="74.7" y2="121.93"/><line class="cls-1" x1="83.96" y1="123.71" x2="83.98" y2="121.62"/><line class="cls-1" x1="77.12" y1="123.92" x2="83.96" y2="123.72"/><line class="cls-1" x1="53.96" y1="103.67" x2="55.59" y2="109.16"/><line class="cls-1" x1="57.15" y1="109.11" x2="55.59" y2="109.16"/><line class="cls-1" x1="58.53" y1="113.76" x2="57.15" y2="109.11"/><line class="cls-1" x1="47.75" y1="88.04" x2="55.41" y2="113.85"/><line class="cls-1" x1="54.86" y1="101.38" x2="50.87" y2="87.94"/><line class="cls-1" x1="45.15" y1="91.34" x2="45.19" y2="87.21"/><line class="cls-1" x1="55.41" y1="113.85" x2="55.4" y2="115.18"/><polyline class="cls-1" points="51.13 116.33 51.06 116.19 50.98 116.04 50.91 115.9 50.83 115.75 50.76 115.61 50.69 115.46 50.62 115.31 50.54 115.16 50.47 115 50.4 114.85 50.33 114.7 50.26 114.54 50.19 114.38 50.12 114.22 50.05 114.06 49.98 113.9 49.91 113.73 49.84 113.57 49.77 113.4 49.7 113.23 49.63 113.06 49.56 112.89 49.5 112.72 49.43 112.55 49.36 112.38 49.3 112.2 49.23 112.02 49.17 111.84 49.1 111.66 49.03 111.48 48.97 111.3 48.91 111.12 48.84 110.93 48.78 110.75 48.72 110.56 48.66 110.37 48.6 110.18 48.53 109.99 48.47 109.8 48.41 109.61 48.35 109.41 48.29 109.22 48.23 109.02 48.17 108.83 48.12 108.63 48.06 108.42 48 108.23 47.94 108.02 47.88 107.83 47.83 107.62 47.77 107.42 47.72 107.21 47.66 107 47.61 106.79 47.56 106.58 47.5 106.37 47.45 106.16 47.4 105.95 47.34 105.73 47.29 105.52 47.24 105.31 47.19 105.09 47.14 104.88 47.09 104.66 47.04 104.44 46.99 104.22 46.95 104 46.9 103.78 46.85 103.56 46.8 103.33 46.76 103.11 46.71 102.89 46.67 102.66 46.62 102.43 46.58 102.21 46.53 101.98 46.49 101.75 46.45 101.52 46.41 101.29 46.37 101.06 46.32 100.83 46.28 100.59 46.24 100.36 46.2 100.13 46.17 99.89 46.13 99.66 46.09 99.42 46.05 99.19 46.01 98.95 45.98 98.71 45.94 98.47 45.91 98.23 45.87 97.99 45.84 97.75 45.81 97.51 45.77 97.27 45.74 97.03 45.71 96.79 45.67 96.55 45.65 96.3 45.62 96.06 45.58 95.81 45.56 95.57 45.53 95.32 45.5 95.08 45.47 94.83 45.45 94.59 45.42 94.34 45.39 94.09 45.37 93.84 45.34 93.59 45.32 93.35 45.3 93.1 45.27 92.85 45.25 92.6 45.23 92.35 45.21 92.1 45.19 91.85 45.17 91.59 45.15 91.34"/><line class="cls-1" x1="56.74" y1="100.51" x2="55.18" y2="100.56"/><line class="cls-1" x1="58.36" y1="106" x2="56.81" y2="106.04"/><line class="cls-1" x1="55.18" y1="100.56" x2="56.81" y2="106.04"/><line class="cls-1" x1="53.96" y1="103.67" x2="55.18" y2="100.56"/><line class="cls-1" x1="56.81" y1="106.04" x2="55.59" y2="109.15"/><line class="cls-1" x1="58.51" y1="115.09" x2="55.4" y2="115.18"/><line class="cls-1" x1="58.51" y1="115.09" x2="58.53" y2="113.76"/><line class="cls-1" x1="49.99" y1="117.38" x2="48.43" y2="117.42"/><line class="cls-1" x1="49.99" y1="117.38" x2="58.51" y2="115.09"/><line class="cls-1" x1="48.43" y1="117.42" x2="46.46" y2="116.79"/><line class="cls-1" x1="46.46" y1="116.79" x2="46.6" y2="102.34"/><line class="cls-1" x1="48.31" y1="87.12" x2="45.19" y2="87.21"/><line class="cls-1" x1="50.87" y1="87.94" x2="48.31" y2="87.12"/><polyline class="cls-1" points="62.02 81.4 62.02 81.25 62.02 81.09 62.02 80.93 62.03 80.78 62.03 80.63 62.04 80.47 62.04 80.32 62.05 80.16 62.06 80.01 62.06 79.86 62.07 79.7 62.08 79.55 62.09 79.4 62.1 79.25 62.12 79.1 62.13 78.95 62.14 78.8 62.16 78.65 62.17 78.5 62.18 78.36 62.2 78.21 62.21 78.07 62.23 77.92 62.25 77.78 62.27 77.64 62.29 77.49 62.31 77.35 62.32 77.21 62.34 77.07 62.37 76.93 62.39 76.8 62.41 76.66 62.43 76.52 62.46 76.39 62.48 76.26 62.51 76.13 62.53 76 62.56 75.86 62.59 75.74 62.61 75.61 62.64 75.48 62.67 75.36 62.7 75.23 62.73 75.11 62.76 74.99 62.79 74.87 62.82 74.75 62.85 74.64 62.89 74.52 62.92 74.4 62.95 74.29 62.99 74.18 63.02 74.07 63.06 73.96 63.09 73.85 63.13 73.75 63.17 73.65 63.2 73.55 63.24 73.44 63.28 73.34 63.32 73.24 63.36 73.15 63.4 73.05 63.44 72.96 63.48 72.87 63.52 72.78 63.56 72.69 63.6 72.61 63.64 72.52 63.69 72.44 63.73 72.36 63.77 72.28 63.81 72.21 63.86 72.13 63.91 72.06 63.95 71.98 63.99 71.92 64.04 71.85 64.09 71.78 64.14 71.72 64.18 71.65 64.23 71.59 64.28 71.53 64.32 71.48 64.37 71.42 64.42 71.37 64.47 71.32 64.52 71.27 64.57 71.22 64.61 71.18 64.66 71.14 64.71 71.09 64.76 71.06 64.82 71.02 64.86 70.98 64.91 70.95 64.97 70.92 65.02 70.89 65.07 70.86 65.12 70.84 65.17 70.81 65.22 70.79 65.27 70.77 65.33 70.76 65.38 70.74 65.43 70.73 65.48 70.72 65.54 70.71 65.59 70.7 65.64 70.7 65.69 70.7 65.75 70.7 65.8 70.7 65.85 70.7 65.9 70.7 65.96 70.71 66.01 70.72 66.06 70.73 66.12 70.75 66.17 70.76"/><line class="cls-1" x1="66.17" y1="70.76" x2="65.99" y2="89.28"/><line class="cls-1" x1="65.99" y1="89.28" x2="59.73" y2="87.27"/><line class="cls-1" x1="59.73" y1="87.27" x2="59.79" y2="80.69"/><line class="cls-1" x1="59.79" y1="80.68" x2="62.02" y2="81.4"/><line class="cls-1" x1="62.03" y1="80.62" x2="59.79" y2="80.68"/><polyline class="cls-1" points="63.43 89.55 63.53 89.77 63.64 89.98 63.75 90.18 63.85 90.4 63.96 90.61 64.06 90.83 64.17 91.04 64.27 91.25 64.38 91.47 64.48 91.69 64.58 91.91 64.69 92.13 64.79 92.35 64.9 92.57 65 92.79 65.11 93.02 65.21 93.24 65.31 93.47 65.41 93.69 65.51 93.92 65.61 94.15 65.72 94.37 65.82 94.6 65.92 94.83 66.02 95.06 66.12 95.3 66.22 95.53 66.32 95.77 66.42 96 66.52 96.24 66.62 96.47 66.72 96.71 66.82 96.95 66.92 97.19 67.02 97.43 67.12 97.67 67.22 97.91 67.32 98.15 67.41 98.4 67.51 98.64 67.61 98.89 67.7 99.14 67.81 99.39"/><polyline class="cls-1" points="67.8 99.38 67.86 99.54 67.92 99.69 67.98 99.85 68.05 100 68.1 100.16 68.16 100.32 68.22 100.48 68.28 100.63 68.34 100.8 68.4 100.95 68.46 101.12 68.52 101.28 68.58 101.44 68.63 101.61 68.69 101.77 68.74 101.94 68.8 102.11 68.86 102.27 68.91 102.44 68.97 102.61 69.03 102.78 69.08 102.95 69.14 103.12 69.19 103.29 69.24 103.47 69.3 103.64 69.35 103.82 69.41 103.99 69.46 104.16 69.51 104.34 69.57 104.52 69.62 104.7 69.67 104.88 69.72 105.06 69.78 105.23 69.83 105.42 69.88 105.6 69.93 105.78 69.98 105.96 70.03 106.15 70.08 106.33 70.13 106.52 70.18 106.7 70.23 106.89 70.28 107.08 70.33 107.27 70.37 107.46 70.42 107.64 70.47 107.83 70.52 108.02 70.56 108.21 70.61 108.4 70.66 108.6 70.7 108.79 70.75 108.98 70.8 109.18 70.84 109.37 70.88 109.57 70.93 109.76 70.97 109.96 71.02 110.16 71.06 110.36 71.1 110.56 71.14 110.75 71.19 110.96 71.23 111.16 71.27 111.35"/><polyline class="cls-1" points="71.27 111.35 71.29 111.44 71.31 111.53 71.33 111.62 71.35 111.7 71.36 111.79 71.38 111.88 71.4 111.97 71.42 112.06 71.43 112.16 71.45 112.24 71.47 112.34 71.48 112.43 71.49 112.52 71.51 112.62 71.52 112.71 71.53 112.81 71.55 112.9 71.56 113 71.57 113.09 71.58 113.19 71.59 113.29 71.6 113.38 71.61 113.48 71.62 113.58 71.63 113.68 71.64 113.78 71.64 113.88 71.65 113.97 71.66 114.08 71.67 114.17 71.67 114.27 71.68 114.37 71.68 114.47 71.69 114.57 71.69 114.67 71.69 114.77 71.69 114.87 71.7 114.97 71.7 115.07 71.7 115.17 71.7 115.27 71.7 115.37 71.7 115.47 71.7 115.57 71.7 115.67 71.7 115.77 71.7 115.87 71.69 115.97 71.69 116.06 71.69 116.16 71.68 116.26 71.68 116.36 71.67 116.45 71.67 116.55 71.66 116.65 71.65 116.75 71.65 116.84 71.64 116.94 71.63 117.03 71.62 117.12 71.61 117.22 71.61 117.31 71.6 117.4 71.58 117.5 71.57 117.59 71.56 117.68 71.55 117.77 71.54 117.86 71.52 117.95 71.51 118.04 71.5 118.12 71.48 118.21 71.47 118.3 71.45 118.38 71.44 118.46 71.42 118.55 71.4 118.63 71.39 118.72 71.37 118.79 71.35 118.88 71.33 118.95 71.31 119.03 71.3 119.11 71.28 119.19 71.26 119.26 71.24 119.33 71.22 119.41 71.2 119.48 71.17 119.56 71.15 119.63 71.13 119.69 71.11 119.76 71.08 119.83 71.06 119.9 71.04 119.96 71.01 120.03 70.99 120.09 70.97 120.15 70.94 120.21 70.92 120.27 70.89 120.33 70.86 120.39 70.84 120.44 70.81 120.5 70.78 120.55 70.75 120.6 70.73 120.65 70.7 120.7 70.67 120.75 70.64 120.8 70.61 120.84 70.58 120.88 70.56 120.93 70.53 120.97 70.5 121.01 70.47 121.05 70.44 121.09 70.41 121.12 70.38 121.16 70.35 121.19"/><polyline class="cls-1" points="70.34 121.19 70.3 121.24 70.25 121.28 70.2 121.33 70.14 121.37 70.09 121.41 70.04 121.44 69.99 121.49 69.94 121.52 69.89 121.56 69.84 121.59 69.79 121.63 69.73 121.66 69.69 121.69 69.63 121.72 69.58 121.75 69.53 121.78 69.48 121.81 69.43 121.83 69.38 121.86 69.32 121.88 69.27 121.91 69.21 121.93 69.16 121.95 69.11 121.96 69.06 121.98 69.01 122 68.95 122.02 68.9 122.03 68.84 122.05 68.79 122.06 68.74 122.07 68.69 122.08 68.63 122.09 68.58 122.1 68.53 122.1 68.47 122.11 68.42 122.11 68.36 122.12 68.31 122.12 68.26 122.12 68.21 122.12 68.15 122.12 68.1 122.12 68.05 122.11 67.99 122.11 67.94 122.1 67.89 122.1 67.83 122.09 67.78 122.07 67.72 122.07 67.67 122.05 67.62 122.04 67.56 122.03 67.51 122.01 67.45 122 67.4 121.98 67.35 121.96 67.29 121.94 67.24 121.92 67.19 121.9 67.13 121.88 67.08 121.85 67.03 121.82 66.97 121.8 66.92 121.77 66.86 121.74 66.81 121.71 66.76 121.68 66.71 121.65 66.65 121.62 66.6 121.58 66.55 121.55 66.49 121.51 66.44 121.47 66.39 121.43 66.33 121.39 66.28 121.35 66.23 121.31 66.17 121.27 66.12 121.22 66.07 121.18 66.02 121.13 65.96 121.08 65.91 121.03 65.86 120.98 65.81 120.94 65.76 120.88 65.7 120.83 65.65 120.78 65.6 120.72 65.55 120.67 65.5 120.61 65.45 120.55 65.4 120.49 65.35 120.43 65.29 120.36 65.24 120.3 65.19 120.24 65.14 120.17 65.09 120.11 65.04 120.04 64.99 119.98"/><line class="cls-1" x1="64.99" y1="119.98" x2="65.04" y2="114.84"/><line class="cls-1" x1="102.47" y1="110.41" x2="71.27" y2="111.35"/><polyline class="cls-1" points="102.47 110.41 102.49 110.5 102.51 110.58 102.52 110.67 102.54 110.76 102.56 110.85 102.58 110.94 102.6 111.03 102.61 111.12 102.63 111.21 102.64 111.3 102.66 111.39 102.67 111.49 102.69 111.58 102.7 111.67 102.71 111.77 102.73 111.86 102.74 111.96 102.75 112.05 102.76 112.15 102.77 112.25 102.79 112.34 102.8 112.44 102.81 112.54 102.82 112.64 102.83 112.73 102.83 112.83 102.84 112.93 102.85 113.03 102.85 113.13 102.86 113.23 102.87 113.33 102.87 113.43 102.88 113.53 102.88 113.63 102.88 113.73 102.89 113.83 102.89 113.93 102.89 114.03 102.89 114.13 102.9 114.23 102.9 114.33 102.9 114.43 102.9 114.53 102.9 114.63 102.9 114.73 102.89 114.83 102.89 114.92 102.89 115.02 102.88 115.12 102.88 115.22 102.88 115.31 102.87 115.41 102.87 115.51 102.86 115.61 102.85 115.7 102.85 115.8 102.84 115.9 102.83 115.99 102.83 116.09 102.82 116.18 102.81 116.27 102.8 116.36 102.79 116.46 102.78 116.55 102.77 116.64 102.75 116.73 102.74 116.82 102.73 116.92 102.72 117 102.71 117.09 102.69 117.18 102.68 117.27 102.66 117.35 102.65 117.44 102.63 117.52 102.62 117.61 102.6 117.69 102.58 117.77 102.56 117.86 102.55 117.93 102.53 118.01 102.51 118.09 102.49 118.17 102.47 118.24 102.45 118.32 102.43 118.4 102.41 118.47 102.39 118.54 102.37 118.61 102.35 118.69 102.33 118.76 102.3 118.82 102.28 118.89 102.26 118.95 102.23 119.02 102.21 119.09 102.18 119.15 102.16 119.21 102.13 119.27 102.11 119.33 102.08 119.39 102.06 119.45 102.03 119.5 102 119.55 101.98 119.61 101.95 119.66 101.92 119.71 101.89 119.76 101.87 119.81 101.84 119.86 101.81 119.9 101.78 119.95 101.75 119.99 101.72 120.03 101.69 120.07 101.66 120.11 101.63 120.14 101.6 120.18 101.57 120.22 101.54 120.25"/><line class="cls-1" x1="99" y1="98.44" x2="88.88" y2="98.75"/><line class="cls-1" x1="70.93" y1="99.29" x2="67.8" y2="99.39"/><polyline class="cls-1" points="99 98.44 99.06 98.59 99.12 98.75 99.18 98.9 99.24 99.06 99.3 99.22 99.36 99.37 99.42 99.53 99.48 99.69 99.53 99.85 99.59 100.01 99.65 100.17 99.71 100.34 99.77 100.5 99.82 100.66 99.88 100.83 99.94 100.99 100 101.16 100.05 101.33 100.11 101.5 100.17 101.67 100.22 101.84 100.28 102.01 100.33 102.18 100.39 102.35 100.44 102.52 100.49 102.7 100.55 102.87 100.6 103.05 100.66 103.22 100.71 103.4 100.76 103.58 100.81 103.75 100.87 103.93 100.92 104.11 100.97 104.29 101.02 104.47 101.08 104.66 101.12 104.84 101.17 105.02 101.23 105.21 101.28 105.39 101.33 105.58 101.37 105.76 101.42 105.94 101.47 106.14 101.52 106.32 101.57 106.51 101.62 106.7 101.67 106.89 101.71 107.08 101.76 107.27 101.8 107.47 101.85 107.66 101.9 107.85 101.94 108.04 101.99 108.23 102.03 108.43 102.08 108.63 102.12 108.82 102.17 109.02 102.21 109.22 102.25 109.42 102.3 109.61 102.34 109.81 102.38 110.01 102.42 110.21 102.47 110.41"/><polyline class="cls-1" points="101.54 120.25 101.49 120.29 101.44 120.34 101.39 120.38 101.34 120.42 101.29 120.46 101.24 120.5 101.19 120.54 101.14 120.58 101.08 120.61 101.03 120.65 100.98 120.69 100.93 120.72 100.88 120.75 100.83 120.78 100.78 120.81 100.72 120.83 100.67 120.86 100.62 120.89 100.57 120.91 100.51 120.94 100.46 120.96 100.41 120.98 100.36 121 100.31 121.02 100.25 121.04 100.2 121.06 100.15 121.08 100.09 121.09 100.04 121.1 99.99 121.11 99.93 121.13 99.88 121.14 99.83 121.14 99.78 121.15 99.72 121.16 99.67 121.17 99.61 121.17 99.56 121.17 99.51 121.17"/><line class="cls-1" x1="94.62" y1="88.61" x2="88.97" y2="88.78"/><line class="cls-1" x1="66.55" y1="89.46" x2="63.43" y2="89.55"/><polyline class="cls-1" points="94.62 88.61 94.73 88.82 94.83 89.03 94.94 89.24 95.05 89.46 95.15 89.67 95.26 89.88 95.36 90.1 95.47 90.31 95.57 90.53 95.68 90.75 95.78 90.96 95.88 91.18 95.99 91.4 96.09 91.63 96.19 91.85 96.3 92.07 96.4 92.3 96.5 92.52 96.61 92.75 96.71 92.97 96.81 93.2 96.91 93.43 97.01 93.66 97.11 93.89 97.22 94.12 97.32 94.35 97.42 94.59 97.52 94.82 97.62 95.06 97.72 95.29 97.82 95.53 97.92 95.77 98.02 96 98.12 96.25 98.21 96.49 98.31 96.73 98.41 96.97 98.51 97.21 98.61 97.45 98.71 97.7 98.8 97.95 98.9 98.19 99 98.44"/><line class="cls-1" x1="90.06" y1="87.15" x2="88.99" y2="87.18"/><line class="cls-1" x1="90.06" y1="87.15" x2="94.62" y2="88.61"/><line class="cls-1" x1="84.09" y1="31.79" x2="88.96" y2="33.35"/><polyline class="cls-1" points="88.96 33.35 89.04 33.38 89.11 33.4 89.18 33.43 89.24 33.46 89.3 33.48 89.34 33.51 89.38 33.54 89.42 33.56 89.45 33.59 89.47 33.62 89.49 33.65 89.5 33.67 89.5 33.7 89.5 33.73 89.49 33.76 89.48 33.78 89.45 33.81 89.43 33.84 89.39 33.86 89.35 33.89 89.3 33.91 89.25 33.94 89.19 33.97 89.13 33.99 89.06 34.02 88.98 34.04 88.89 34.07 88.8 34.09 88.71 34.12 88.61 34.14 88.5 34.17 88.39 34.19 88.27 34.21 88.14 34.23 88.01 34.25 87.88 34.27 87.74 34.3 87.59 34.31 87.44 34.34 87.29 34.36 87.13 34.37 86.96 34.39 86.79 34.41 86.62 34.43 86.44 34.45 86.26 34.46 86.07 34.48 85.88 34.49 85.68 34.51 85.49 34.52 85.28 34.53 85.08 34.55 84.87 34.56 84.65 34.57 84.44 34.58 84.22 34.59 84 34.6 83.78 34.61 83.55 34.62 83.32 34.62 83.09 34.63 82.86 34.63 82.62 34.64 82.39 34.64 82.15 34.65 81.91 34.65 81.67 34.65 81.43 34.66 81.19 34.66 80.94 34.66 80.7 34.66 80.45 34.66 80.21 34.65 79.97 34.65 79.72 34.65 79.48 34.64 79.24 34.64 78.99 34.63 78.75 34.63 78.51 34.62 78.28 34.61 78.03 34.61 77.8 34.6 77.56 34.58 77.33 34.58 77.1 34.56 76.87 34.55 76.64 34.54 76.42 34.53 76.2 34.52 75.98 34.5 75.76 34.49 75.55 34.47 75.34 34.46 75.14 34.44 74.93 34.42 74.73 34.4 74.54 34.39 74.34 34.37 74.16 34.35 73.97 34.33 73.79 34.31 73.62 34.29 73.45 34.27 73.28 34.25 73.12 34.23 72.96 34.2 72.81 34.18 72.66 34.16 72.52 34.13 72.39 34.11 72.26 34.09 72.13 34.06 72.01 34.03 71.9 34.01 71.79 33.99 71.69 33.96 71.59 33.93 71.5 33.91 71.42 33.88"/><line class="cls-1" x1="71.41" y1="33.88" x2="66.54" y2="32.32"/><line class="cls-1" x1="66.54" y1="32.32" x2="84.09" y2="31.79"/><line class="cls-1" x1="71.41" y1="33.88" x2="70.86" y2="90.85"/><line class="cls-1" x1="65.99" y1="89.28" x2="66.54" y2="32.32"/><polyline class="cls-1" points="75.66 202.71 75.7 202.72 75.73 202.73 75.76 202.74 75.78 202.75 75.81 202.77 75.83 202.78 75.85 202.79 75.86 202.8 75.88 202.81 75.89 202.83 75.89 202.84 75.9 202.85 75.9 202.86 75.9 202.87 75.9 202.88 75.89 202.9 75.88 202.91 75.87 202.92 75.85 202.93 75.83 202.94 75.81 202.96 75.79 202.97 75.76 202.98 75.73 202.99 75.7 203 75.67 203.01 75.63 203.02 75.59 203.03 75.55 203.04 75.51 203.05 75.46 203.06 75.41 203.07 75.36 203.08 75.31 203.09 75.25 203.1 75.19 203.11 75.13 203.12 75.07 203.13 75 203.14 74.93 203.15 74.86 203.16 74.79 203.16 74.72 203.17 74.64 203.18 74.56 203.19 74.48 203.19 74.4 203.2 74.32 203.21 74.23 203.21 74.15 203.22 74.06 203.22 73.97 203.23 73.88 203.24 73.78 203.24 73.69 203.24 73.6 203.25 73.5 203.25 73.4 203.26 73.3 203.26 73.2 203.26 73.1 203.26 73 203.26 72.9 203.27 72.8 203.27 72.69 203.27 72.59 203.27 72.48 203.27 72.38 203.28 72.27 203.28 72.17 203.28 72.06 203.28 71.95 203.28 71.85 203.27 71.74 203.27 71.63 203.27 71.53 203.27 71.42 203.27 71.32 203.26 71.21 203.26 71.11 203.26 71 203.26 70.9 203.25 70.8 203.25 70.69 203.25 70.59 203.24 70.49 203.24 70.39 203.23 70.29 203.23 70.19 203.22 70.1 203.22 70 203.21 69.91 203.2 69.81 203.2 69.72 203.19 69.63 203.18 69.54 203.18 69.46 203.17 69.37 203.16 69.29 203.15 69.2 203.14 69.13 203.13 69.05 203.13 68.97 203.12 68.9 203.11 68.82 203.1 68.75 203.09 68.69 203.08 68.62 203.07 68.56 203.06 68.49 203.05 68.44 203.04 68.38 203.03 68.33 203.02 68.27 203.01 68.22 203 68.17 202.99 68.13 202.97 68.09 202.96 68.05 202.95 68.01 202.94 67.98 202.93 67.94 202.91 67.92 202.91 67.89 202.89 67.86 202.88 67.84 202.87 67.83 202.86 67.81 202.85 67.8 202.84 67.79 202.82 67.78 202.81 67.78 202.8 67.78 202.79 67.78 202.78 67.78 202.76 67.79 202.75 67.8 202.74 67.81 202.73 67.82 202.72 67.84 202.7 67.86 202.69 67.89 202.68 67.91 202.67 67.94 202.66 67.97 202.65 68 202.63 68.04 202.63 68.08 202.62 68.12 202.6 68.16 202.6 68.21 202.58 68.26 202.57 68.31 202.56 68.37 202.55 68.42 202.55 68.45 202.54"/><polyline class="cls-1" points="75.22 202.6 75.24 202.61 75.3 202.62 75.35 202.63 75.4 202.64 75.45 202.65 75.5 202.66 75.54 202.67 75.59 202.69 75.63 202.7 75.66 202.71"/><polyline class="cls-1" points="68.45 202.79 68.45 202.8 68.46 202.81 68.46 202.82 68.47 202.84 68.48 202.84 68.49 202.85 68.51 202.86 68.53 202.87 68.55 202.88 68.57 202.89 68.59 202.9 68.62 202.91 68.65 202.92 68.68 202.93 68.71 202.94 68.75 202.95 68.79 202.96 68.82 202.97 68.86 202.97 68.91 202.99 68.95 203 69 203 69.05 203.01 69.1 203.02 69.16 203.03 69.21 203.04 69.27 203.05 69.33 203.05 69.39 203.06 69.45 203.07 69.51 203.07 69.58 203.08 69.64 203.09 69.71 203.1 69.78 203.1 69.85 203.11 69.93 203.12 70 203.12 70.08 203.13 70.15 203.13 70.23 203.14 70.31 203.15 70.39 203.15 70.47 203.16 70.55 203.16 70.63 203.16 70.72 203.17 70.8 203.17 70.89 203.18 70.97 203.18 71.06 203.19 71.14 203.19 71.23 203.19 71.32 203.19 71.41 203.19 71.49 203.2 71.58 203.2 71.67 203.2 71.76 203.2 71.85 203.2 71.94 203.2 72.02 203.2 72.11 203.2 72.2 203.2 72.29 203.2 72.38 203.2 72.46 203.2 72.55 203.2 72.64 203.2 72.72 203.2 72.81 203.19 72.89 203.19 72.97 203.19 73.06 203.19 73.14 203.19 73.22 203.18 73.3 203.18 73.38 203.17 73.46 203.17 73.54 203.16 73.61 203.16 73.69 203.16 73.76 203.15 73.83 203.15 73.91 203.14 73.97 203.13 74.04 203.13 74.11 203.13 74.17 203.12 74.24 203.11 74.3 203.1 74.36 203.1 74.42 203.09 74.47 203.08 74.53 203.07 74.58 203.07 74.63 203.06 74.68 203.05 74.73 203.05 74.78 203.04 74.82 203.03 74.86 203.03 74.9 203.02 74.94 203.01 74.97 203 75 202.99 75.03 202.98 75.06 202.97 75.08 202.96 75.11 202.95 75.13 202.94 75.15 202.93 75.17 202.92 75.18 202.91 75.19 202.9 75.21 202.89 75.21 202.88 75.22 202.88 75.22 202.86 75.22 202.86"/><polyline class="cls-1" points="62.04 221.4 62.04 221.42 62.05 221.45 62.06 221.48 62.08 221.51 62.1 221.54 62.13 221.56 62.17 221.59 62.21 221.62 62.26 221.65 62.32 221.68 62.38 221.7 62.45 221.73 62.52 221.75 62.6 221.78 62.69 221.81 62.78 221.84 62.89 221.87 62.99 221.89 63.1 221.92 63.22 221.94 63.35 221.97 63.48 221.99 63.61 222.02 63.75 222.04 63.9 222.07 64.05 222.09 64.2 222.12 64.36 222.14 64.53 222.16 64.7 222.18 64.88 222.21 65.06 222.23 65.24 222.25 65.44 222.27 65.63 222.28 65.82 222.31 66.03 222.33 66.23 222.34 66.44 222.36 66.66 222.38 66.87 222.39 67.09 222.41 67.32 222.42 67.54 222.44 67.77 222.45 68 222.47 68.24 222.47 68.47 222.49 68.71 222.5 68.95 222.51 69.19 222.52 69.44 222.53 69.68 222.54 69.93 222.55 70.18 222.55 70.43 222.56 70.68 222.56 70.93 222.57 71.18 222.58 71.43 222.58 71.68 222.58 71.93 222.59 72.19 222.59 72.43 222.59 72.69 222.59 72.94 222.59 73.19 222.58 73.43 222.58 73.68 222.58 73.93 222.57 74.17 222.57 74.41 222.56 74.65 222.56 74.89 222.55 75.13 222.54 75.36 222.53 75.59 222.53 75.82 222.51 76.04 222.5 76.27 222.5 76.48 222.48 76.7 222.47 76.91 222.45 77.12 222.44 77.33 222.43 77.53 222.42 77.72 222.4 77.92 222.38 78.11 222.37 78.29 222.35 78.47 222.33 78.65 222.31 78.82 222.29 78.98 222.27 79.14 222.25 79.3 222.23 79.45 222.21 79.59 222.19 79.73 222.17 79.87 222.15 79.99 222.12 80.11 222.1 80.23 222.08 80.34 222.05 80.45 222.03 80.49 222.02"/><polyline class="cls-1" points="68.01 202.94 68.05 202.95 68.09 202.97 68.13 202.97 68.18 202.99 68.22 203 68.27 203.01 68.32 203.02 68.38 203.03 68.44 203.04 68.49 203.05 68.56 203.06 68.62 203.07 68.69 203.08 68.75 203.09 68.82 203.1 68.9 203.11 68.97 203.12 69.05 203.13 69.13 203.13 69.2 203.14 69.29 203.15 69.37 203.16 69.46 203.17 69.54 203.18 69.63 203.18 69.72 203.19 69.81 203.2 69.91 203.2 70 203.21 70.1 203.22 70.2 203.22 70.29 203.23 70.39 203.23 70.49 203.24 70.59 203.24 70.69 203.25 70.8 203.25 70.9 203.26 71 203.26 71.11 203.26 71.21 203.26 71.32 203.26 71.42 203.27 71.53 203.27 71.63 203.27 71.74 203.27 71.85 203.27 71.95 203.28 72.06 203.28 72.17 203.28 72.27 203.28 72.38 203.28 72.48 203.27 72.59 203.27 72.69 203.27 72.79 203.27 72.9 203.27 73 203.27 73.1 203.26 73.2 203.26 73.3 203.26 73.4 203.26 73.5 203.25 73.59 203.25 73.69 203.24 73.78 203.24 73.88 203.24 73.97 203.23 74.06 203.22 74.15 203.22 74.23 203.21 74.32 203.21 74.4 203.2 74.48 203.19 74.56 203.19 74.64 203.18 74.72 203.17 74.79 203.16 74.86 203.16 74.93 203.15 75 203.14 75.07 203.13 75.13 203.12 75.19 203.11 75.25 203.1 75.31 203.09 75.36 203.08 75.41 203.07 75.46 203.06 75.51 203.05 75.55 203.04 75.6 203.03 75.63 203.02 75.67 203.01 75.71 203 75.73 202.99 75.76 202.98 75.79 202.97 75.81 202.95 75.83 202.94 75.85 202.93 75.87 202.92 75.88 202.91 75.89 202.9 75.89 202.88 75.9 202.87 75.9 202.86 75.9 202.85 75.89 202.84 75.89 202.83 75.88 202.81 75.86 202.8 75.85 202.79 75.83 202.78 75.81 202.77 75.79 202.75 75.76 202.74 75.73 202.73 75.7 202.72 75.66 202.71 75.63 202.7 75.59 202.69 75.55 202.67 75.5 202.66 75.45 202.65 75.4 202.64 75.35 202.63 75.3 202.62 75.24 202.61 75.22 202.6"/><polyline class="cls-1" points="68.45 202.54 68.42 202.55 68.37 202.55 68.31 202.56 68.26 202.57 68.21 202.58 68.16 202.6 68.12 202.6 68.08 202.62 68.04 202.63 68 202.63 67.97 202.65 67.94 202.66 67.91 202.67 67.89 202.68 67.86 202.69 67.84 202.7 67.82 202.72 67.81 202.73 67.8 202.74 67.79 202.75 67.78 202.76 67.78 202.78 67.77 202.79 67.78 202.8 67.78 202.81 67.79 202.82 67.8 202.84 67.81 202.85 67.83 202.86 67.84 202.87 67.86 202.88 67.89 202.89 67.92 202.91 67.94 202.91 67.98 202.93 68.01 202.94"/><line class="cls-1" x1="62.55" y1="170.23" x2="63.08" y2="115.33"/><line class="cls-1" x1="54.75" y1="170.47" x2="62.55" y2="170.23"/><line class="cls-1" x1="54.75" y1="170.47" x2="55.27" y2="115.96"/><line class="cls-1" x1="48.76" y1="168.55" x2="54.75" y2="170.47"/><line class="cls-1" x1="49.26" y1="117.4" x2="48.77" y2="168.55"/><polyline class="cls-1" points="92.74 208.48 92.74 208.49 92.74 208.5 92.73 208.51 92.72 208.52 92.71 208.53 92.7 208.54 92.69 208.55 92.67 208.56 92.65 208.57 92.63 208.58 92.6 208.59 92.58 208.59 92.55 208.61 92.52 208.62 92.49 208.62 92.45 208.63 92.41 208.64 92.38 208.65 92.33 208.66 92.29 208.67 92.24 208.67 92.2 208.68 92.15 208.69 92.1 208.7 92.05 208.7 91.99 208.71 91.94 208.72 91.88 208.72 91.82 208.73 91.75 208.74 91.69 208.75 91.63 208.75 91.56 208.76 91.49 208.76 91.42 208.77 91.35 208.77 91.28 208.78 91.2 208.78 91.13 208.79 91.06 208.79 90.98 208.8 90.9 208.8 90.82 208.81 90.74 208.81 90.66 208.81 90.58 208.81 90.49 208.82 90.41 208.82 90.32 208.82 90.24 208.82 90.15 208.82 90.06 208.83 89.98 208.83 89.89 208.83 89.81 208.83 89.72 208.83 89.63 208.83 89.54 208.83 89.45 208.83 89.36 208.83 89.28 208.83 89.19 208.83 89.1 208.82 89.01 208.82 88.92 208.82 88.83 208.82 88.75 208.81 88.66 208.81 88.57 208.81 88.49 208.81 88.4 208.81 88.32 208.8 88.23 208.79 88.15 208.79 88.07 208.78 87.99 208.78 87.91 208.78 87.83 208.77 87.75 208.77 87.67 208.76 87.59 208.75 87.52 208.75 87.44 208.74 87.37 208.74 87.3 208.73 87.23 208.72 87.16 208.72 87.09 208.71 87.03 208.7 86.97 208.7 86.9 208.69 86.84 208.68 86.78 208.67 86.73 208.66 86.67 208.65 86.62 208.65 86.57 208.64 86.52 208.63 86.47 208.62 86.43 208.61 86.38 208.6 86.34 208.59 86.3 208.59 86.27 208.58 86.23 208.56 86.2 208.56 86.17 208.55 86.14 208.54 86.11 208.53 86.09 208.52 86.06 208.51 86.05 208.5 86.03 208.49 86.01 208.48 86 208.47 85.99 208.46 85.98 208.45 85.97 208.44 85.97 208.43 85.97 208.42"/><polyline class="cls-1" points="93.18 208.34 93.14 208.32 93.1 208.31 93.06 208.3 93.01 208.29 92.97 208.28 92.92 208.27 92.87 208.25 92.81 208.25 92.76 208.23 92.74 208.23"/><polyline class="cls-1" points="85.97 208.17 85.94 208.17 85.88 208.18 85.83 208.19 85.78 208.2 85.73 208.21 85.68 208.22 85.64 208.23 85.6 208.24 85.56 208.25 85.52 208.26 85.49 208.27 85.46 208.28 85.43 208.3 85.4 208.31 85.38 208.32 85.36 208.33 85.34 208.34 85.33 208.35 85.31 208.37 85.3 208.38 85.3 208.39 85.29 208.4 85.29 208.41 85.29 208.43 85.3 208.44 85.31 208.45 85.31 208.46 85.33 208.47 85.34 208.48 85.36 208.5 85.38 208.51 85.41 208.52 85.44 208.53 85.46 208.54 85.5 208.55 85.53 208.56 85.57 208.58 85.6 208.59 85.65 208.6 85.69 208.61 85.74 208.62 85.79 208.63 85.84 208.65 85.9 208.65 85.95 208.67 86.01 208.67 86.07 208.69 86.14 208.7 86.2 208.7 86.27 208.72 86.34 208.72 86.42 208.73 86.49 208.74 86.56 208.75 86.64 208.76 86.72 208.77 86.81 208.78 86.89 208.78 86.97 208.79 87.06 208.8 87.15 208.81 87.24 208.81 87.33 208.82 87.42 208.83 87.52 208.84 87.61 208.84 87.71 208.85 87.81 208.86 87.91 208.86 88.01 208.86 88.11 208.87 88.21 208.87 88.31 208.88 88.42 208.88 88.52 208.89 88.63 208.89 88.73 208.89 88.83 208.89 88.94 208.89 89.05 208.9 89.15 208.9 89.26 208.9 89.36 208.9 89.47 208.9 89.58 208.9 89.68 208.9 89.79 208.9 89.9 208.9 90 208.9 90.11 208.9 90.21 208.9 90.31 208.9 90.42 208.9 90.52 208.89 90.62 208.89 90.72 208.89 90.82 208.89 90.92 208.88 91.02 208.88 91.11 208.87 91.21 208.87 91.3 208.86 91.39 208.86 91.49 208.86 91.58 208.85 91.67 208.84 91.75 208.84 91.84 208.83 91.92 208.82 92 208.82 92.08 208.81 92.16 208.81 92.24 208.8 92.31 208.79 92.38 208.78 92.45 208.77 92.52 208.76 92.58 208.75 92.65 208.75 92.71 208.74 92.77 208.73 92.82 208.72 92.88 208.71 92.93 208.7 92.98 208.69 93.03 208.68 93.07 208.67 93.11 208.66 93.15 208.65 93.19 208.64 93.22 208.62 93.25 208.62 93.28 208.6 93.31 208.59 93.33 208.58 93.35 208.57 93.37 208.56 93.38 208.55 93.39 208.53 93.4 208.52 93.41 208.51 93.42 208.5 93.42 208.49 93.42 208.48 93.41 208.46 93.4 208.45 93.39 208.44 93.38 208.43 93.36 208.42 93.35 208.4 93.33 208.4 93.3 208.38 93.28 208.37 93.25 208.36 93.21 208.34 93.18 208.34"/><polyline class="cls-1" points="92.57 205.26 92.54 205.25 92.51 205.24 92.47 205.23 92.44 205.22 92.4 205.21 92.36 205.2 92.31 205.19 92.27 205.18 92.22 205.17 92.17 205.17 92.12 205.16 92.07 205.15 92.01 205.14 91.95 205.13 91.89 205.13 91.83 205.12 91.77 205.11 91.71 205.1 91.64 205.09 91.58 205.09 91.51 205.08 91.44 205.07 91.37 205.07 91.3 205.06 91.22 205.06 91.14 205.05 91.08 205.04"/><polyline class="cls-1" points="87.69 205.01 87.68 205.01 87.61 205.02 87.53 205.02 87.46 205.03 87.39 205.03 87.31 205.03 87.25 205.04 87.18 205.05 87.11 205.05 87.05 205.06 86.98 205.06 86.92 205.07 86.86 205.08 86.8 205.09 86.75 205.09 86.69 205.1 86.64 205.11 86.59 205.12 86.54 205.12 86.49 205.13 86.45 205.14 86.4 205.15 86.36 205.15 86.32 205.16 86.29 205.17 86.25 205.18 86.22 205.19 86.19 205.2 86.16 205.21 86.13 205.22 86.11 205.22 86.09 205.24 86.07 205.25 86.05 205.25 86.04 205.27 86.03 205.28 86.02 205.28 86.01 205.29 86 205.31 86 205.31 86 205.32 86 205.33 86 205.34 86.01 205.35 86.02 205.36 86.03 205.37 86.04 205.38 86.06 205.39 86.07 205.4 86.09 205.41 86.12 205.42 86.14 205.43 86.17 205.44 86.19 205.45 86.23 205.46 86.26 205.47 86.29 205.48 86.33 205.49 86.37 205.5 86.41 205.5 86.46 205.52 86.5 205.53 86.55 205.53 86.6 205.54 86.65 205.55 86.7 205.56 86.76 205.57 86.81 205.58 86.87 205.59 86.93 205.59 87 205.6 87.06 205.61 87.12 205.62 87.19 205.62 87.26 205.63 87.33 205.64 87.4 205.64 87.47 205.65 87.55 205.65 87.62 205.66 87.7 205.67 87.78 205.67 87.86 205.68 87.94 205.68 88.02 205.69 88.1 205.69 88.18 205.7 88.26 205.7 88.35 205.7 88.43 205.71 88.52 205.71 88.6 205.72 88.69 205.72 88.78 205.72 88.86 205.72 88.95 205.72 89.04 205.73 89.13 205.73 89.22 205.73 89.3 205.73 89.39 205.73 89.48 205.73 89.57 205.73 89.66 205.73 89.75 205.73 89.84 205.73 89.92 205.73 90.01 205.73 90.1 205.73 90.18 205.73 90.27 205.73 90.36 205.72 90.44 205.72 90.52 205.72 90.61 205.72 90.69 205.72 90.77 205.71 90.85 205.71 90.93 205.7 91.01 205.7 91.08 205.7 91.16 205.69 91.23 205.69 91.31 205.68 91.38 205.68 91.45 205.67 91.52 205.67 91.59 205.66 91.66 205.66 91.72 205.65 91.78 205.65 91.85 205.64 91.91 205.63 91.97 205.62 92.02 205.62 92.08 205.61 92.13 205.6 92.18 205.59 92.23 205.59 92.27 205.58 92.32 205.57 92.36 205.56 92.41 205.56 92.44 205.55 92.48 205.54 92.52 205.53 92.55 205.52 92.58 205.51 92.61 205.5 92.63 205.49 92.66 205.48 92.68 205.47 92.7 205.46 92.72 205.45 92.73 205.44 92.74 205.43 92.75 205.42 92.76 205.41 92.77 205.41 92.77 205.39 92.77 205.38 92.77 205.38 92.77 205.36 92.76 205.36 92.75 205.34 92.74 205.34 92.73 205.33 92.71 205.32 92.69 205.31 92.67 205.3 92.65 205.29 92.63 205.28 92.6 205.27 92.57 205.26"/><polyline class="cls-1" points="91.08 205.37 91.08 205.38 91.07 205.38 91.07 205.38 91.07 205.39 91.06 205.39 91.06 205.4 91.05 205.4 91.04 205.41 91.03 205.41 91.02 205.42 91.01 205.42 91 205.43 90.98 205.43 90.97 205.44 90.95 205.44 90.93 205.44 90.92 205.45 90.89 205.45 90.87 205.46 90.85 205.46 90.83 205.47 90.81 205.47 90.78 205.47 90.75 205.48 90.73 205.48 90.7 205.49 90.67 205.49 90.64 205.49 90.61 205.5 90.58 205.5 90.55 205.5 90.52 205.5 90.49 205.51 90.45 205.51 90.42 205.51 90.38 205.52 90.35 205.52 90.31 205.52 90.27 205.52 90.23 205.53 90.2 205.53 90.16 205.53 90.12 205.53 90.08 205.53 90.03 205.53 90 205.53 89.95 205.54 89.91 205.54 89.87 205.54 89.83 205.54 89.78 205.54 89.74 205.54 89.7 205.54 89.65 205.54 89.61 205.54 89.57 205.54 89.52 205.54 89.48 205.54 89.43 205.54 89.39 205.54 89.34 205.54 89.3 205.54 89.26 205.54 89.21 205.54 89.17 205.54 89.13 205.54 89.08 205.54 89.04 205.53 88.99 205.53 88.95 205.53 88.91 205.53 88.86 205.53 88.83 205.53 88.78 205.53 88.74 205.52 88.7 205.52 88.66 205.52 88.62 205.52 88.58 205.51 88.54 205.51 88.5 205.51 88.47 205.5 88.43 205.5 88.39 205.5 88.36 205.5 88.32 205.49 88.29 205.49 88.26 205.48 88.22 205.48 88.19 205.48 88.16 205.47 88.13 205.47 88.1 205.46 88.07 205.46 88.04 205.46 88.02 205.45 87.99 205.45 87.97 205.44 87.94 205.44 87.92 205.44 87.9 205.43 87.88 205.43 87.86 205.42 87.84 205.41 87.82 205.41 87.81 205.41 87.79 205.4 87.78 205.4 87.76 205.39 87.75 205.39 87.74 205.38 87.73 205.38 87.72 205.37 87.71 205.37 87.71 205.36 87.7 205.36 87.7 205.35 87.69 205.35 87.69 205.34 87.69 205.34"/><line class="cls-1" x1="87.94" y1="202.9" x2="87.93" y2="203.27"/><line class="cls-1" x1="86.88" y1="202.93" x2="87.93" y2="203.27"/><line class="cls-1" x1="92.53" y1="202.76" x2="92.52" y2="203.13"/><line class="cls-1" x1="87.93" y1="203.27" x2="92.52" y2="203.13"/><polyline class="cls-1" points="79.56 227.03 79.56 227.05 79.57 227.07 79.58 227.1 79.59 227.13 79.62 227.16 79.65 227.19 79.68 227.22 79.73 227.25 79.78 227.27 79.83 227.3 79.9 227.33 79.96 227.35 80.04 227.38 80.12 227.41 80.21 227.44 80.31 227.47 80.4 227.49 80.51 227.52 80.62 227.54 80.74 227.57 80.86 227.59 80.99 227.62 81.13 227.65 81.27 227.67 81.41 227.69 81.56 227.72 81.72 227.74 81.88 227.76 82.05 227.79 82.22 227.81 82.4 227.83 82.58 227.85 82.76 227.87 82.95 227.89 83.15 227.91 83.34 227.93 83.55 227.95 83.75 227.97 83.96 227.99 84.17 228 84.39 228.02 84.61 228.04 84.83 228.05 85.06 228.06 85.29 228.08 85.52 228.09 85.75 228.1 85.99 228.12 86.23 228.13 86.47 228.14 86.71 228.15 86.95 228.16 87.2 228.17 87.45 228.17 87.69 228.18 87.94 228.19 88.19 228.19 88.44 228.2 88.7 228.2 88.95 228.21 89.2 228.21 89.45 228.21 89.7 228.21 89.95 228.21 90.2 228.21 90.45 228.21 90.7 228.21 90.95 228.21 91.2 228.21 91.44 228.2 91.69 228.19 91.93 228.19 92.17 228.18 92.41 228.18 92.64 228.17 92.88 228.16 93.11 228.15 93.34 228.14 93.56 228.13 93.78 228.12 94 228.11 94.22 228.09 94.43 228.08 94.64 228.07 94.85 228.06 95.05 228.04 95.24 228.03 95.44 228.01 95.63 227.99 95.81 227.97 95.99 227.96 96.17 227.94 96.33 227.92 96.5 227.9 96.66 227.88 96.81 227.86 96.97 227.84 97.11 227.82 97.25 227.79 97.38 227.77 97.51 227.75 97.64 227.73 97.75 227.7 97.86 227.68 97.97 227.65 98.06 227.63 98.16 227.6 98.24 227.58 98.32 227.55 98.4 227.52 98.47 227.5 98.53 227.47 98.58 227.45 98.63 227.42 98.67 227.39 98.71 227.36 98.74 227.34 98.76 227.31 98.78 227.28 98.78 227.25 98.79 227.23 98.78 227.21"/><polyline class="cls-1" points="85.53 208.56 85.5 208.56 85.46 208.54 85.43 208.53 85.41 208.52 85.38 208.51 85.36 208.5 85.34 208.48 85.33 208.47 85.32 208.46 85.3 208.45 85.3 208.44 85.3 208.43 85.29 208.41 85.29 208.4 85.3 208.39 85.3 208.38 85.31 208.37 85.33 208.35 85.34 208.34 85.36 208.33 85.38 208.32 85.4 208.31 85.43 208.3 85.46 208.28 85.49 208.28 85.52 208.26 85.56 208.25 85.6 208.24 85.64 208.23 85.68 208.22 85.73 208.21 85.78 208.2 85.83 208.19 85.88 208.18 85.94 208.17 85.97 208.17"/><polyline class="cls-1" points="92.74 208.23 92.76 208.23 92.81 208.25 92.87 208.25 92.92 208.27 92.97 208.28 93.02 208.29 93.06 208.3 93.1 208.31 93.14 208.32 93.18 208.34 93.21 208.34 93.25 208.36 93.28 208.37 93.3 208.38 93.33 208.4 93.35 208.4 93.37 208.42 93.38 208.43 93.39 208.44 93.4 208.45 93.41 208.46 93.42 208.48 93.42 208.49 93.42 208.5 93.41 208.51 93.4 208.52 93.39 208.53 93.38 208.55 93.37 208.56 93.35 208.57 93.33 208.58 93.31 208.59 93.28 208.6 93.25 208.62 93.22 208.62 93.19 208.64 93.15 208.65 93.11 208.66 93.07 208.67 93.03 208.68 92.98 208.69 92.93 208.7 92.88 208.71 92.82 208.72 92.77 208.72 92.71 208.74 92.65 208.75 92.58 208.75 92.52 208.76 92.45 208.77 92.38 208.78 92.31 208.79 92.24 208.8 92.16 208.81 92.08 208.81 92 208.82 91.92 208.82 91.84 208.83 91.75 208.84 91.67 208.84 91.58 208.85 91.49 208.86 91.39 208.86 91.3 208.86 91.21 208.87 91.11 208.87 91.02 208.88 90.92 208.88 90.82 208.89 90.72 208.89 90.62 208.89 90.52 208.89 90.42 208.89 90.31 208.9 90.21 208.9 90.11 208.9 90 208.9 89.9 208.9 89.79 208.9 89.68 208.9 89.58 208.9 89.47 208.9 89.36 208.9 89.26 208.9 89.15 208.9 89.05 208.9 88.94 208.89 88.83 208.89 88.73 208.89 88.63 208.89 88.52 208.89 88.42 208.88 88.31 208.88 88.21 208.87 88.11 208.87 88.01 208.86 87.91 208.86 87.81 208.86 87.71 208.85 87.61 208.84 87.52 208.84 87.42 208.83 87.33 208.82 87.24 208.81 87.15 208.81 87.06 208.8 86.97 208.79 86.89 208.78 86.81 208.78 86.72 208.77 86.64 208.76 86.56 208.75 86.49 208.75 86.42 208.73 86.34 208.72 86.27 208.72 86.2 208.7 86.14 208.7 86.07 208.69 86.01 208.67 85.95 208.67 85.9 208.66 85.84 208.65 85.79 208.63 85.74 208.62 85.69 208.61 85.65 208.6 85.6 208.59 85.57 208.58 85.53 208.57"/><line class="cls-1" x1="142.53" y1="117.62" x2="102.3" y2="118.84"/><line class="cls-1" x1="142.53" y1="117.62" x2="142.58" y2="112.92"/><line class="cls-1" x1="63.79" y1="118.27" x2="63.81" y2="116.06"/><line class="cls-1" x1="65" y1="118.67" x2="63.79" y2="118.27"/><line class="cls-1" x1="143.8" y1="103.34" x2="101.07" y2="104.63"/><line class="cls-1" x1="66.23" y1="105.69" x2="58.34" y2="105.93"/><line class="cls-1" x1="56.91" y1="101.09" x2="64.8" y2="100.85"/><line class="cls-1" x1="99.51" y1="99.8" x2="142.36" y2="98.5"/><line class="cls-1" x1="57.18" y1="109.04" x2="65.01" y2="108.8"/><line class="cls-1" x1="101.86" y1="107.68" x2="142.78" y2="106.52"/><line class="cls-1" x1="144.01" y1="112.12" x2="102.87" y2="113.36"/><line class="cls-1" x1="66.44" y1="114.47" x2="58.52" y2="114.71"/><line class="cls-1" x1="63.06" y1="116.56" x2="63.8" y2="116.54"/><line class="cls-1" x1="133.93" y1="84.99" x2="89" y2="86.35"/><line class="cls-1" x1="59.73" y1="87.23" x2="49.62" y2="87.54"/><line class="cls-1" x1="161.66" y1="194.05" x2="161.6" y2="200.67"/><line class="cls-1" x1="161.6" y1="200.67" x2="78.25" y2="203.19"/><line class="cls-1" x1="78.25" y1="203.19" x2="78.49" y2="178.5"/><line class="cls-1" x1="78.49" y1="178.5" x2="140.63" y2="176.62"/><line class="cls-1" x1="42.42" y1="166.92" x2="78.49" y2="178.5"/><line class="cls-1" x1="104.56" y1="165.04" x2="62.58" y2="166.31"/><line class="cls-1" x1="48.78" y1="166.73" x2="42.42" y2="166.92"/><line class="cls-1" x1="42.18" y1="191.61" x2="78.25" y2="203.19"/><line class="cls-1" x1="42.42" y1="166.92" x2="42.18" y2="191.61"/><polyline class="cls-1" points="99.59 165.19 99.66 165.12 99.74 165.05 99.81 164.98 99.89 164.91 99.96 164.85 100.04 164.78 100.12 164.72 100.2 164.66 100.28 164.6 100.37 164.54 100.45 164.49 100.53 164.43 100.62 164.38 100.7 164.33 100.79 164.28 100.88 164.23"/><line class="cls-1" x1="112.23" y1="163.89" x2="100.88" y2="164.23"/><polyline class="cls-1" points="171.53 176.64 171.53 176.63 171.51 176.63 171.48 176.62 171.46 176.62 171.43 176.62 171.41 176.61 171.38 176.61 171.36 176.61"/><line class="cls-1" x1="146.73" y1="168.7" x2="168.74" y2="175.77"/><line class="cls-1" x1="70.86" y1="90.85" x2="70.79" y2="98.95"/></g></svg>