<svg xmlns="http://www.w3.org/2000/svg" viewBox="0 0 215 260"><defs><style>.cls-1{fill:none;stroke:#dcdbdb;stroke-width:1.41px;}</style></defs><title>machine_</title><g id="Linework"><line class="cls-1" x1="111.28" y1="106.3" x2="111.58" y2="106.29"/><polyline class="cls-1" points="111.58 106.29 111.59 106.29 111.61 106.29 111.63 106.29 111.66 106.29 111.7 106.29 111.73 106.29 111.77 106.28 111.82 106.28 111.87 106.28 111.92 106.28 111.98 106.28 112.05 106.28 112.12 106.27 112.18 106.27 112.24 106.27 112.3 106.26 112.37 106.26 112.44 106.25 112.51 106.25 112.58 106.24 112.68 106.23 112.77 106.22 112.87 106.21 112.95 106.2 113.04 106.19 113.11 106.18 113.19 106.18 113.26 106.17 113.33 106.16 113.39 106.15 113.45 106.14 113.51 106.13 113.57 106.12 113.62 106.11 113.65 106.11 113.69 106.1 113.72 106.1 113.75 106.09 113.78 106.09 113.8 106.08 113.81 106.08 113.83 106.08 113.84 106.08 113.85 106.07 113.86 106.07 113.87 106.07 113.89 106.07 113.91 106.06 113.94 106.06 113.96 106.06 113.99 106.05 114.03 106.04 114.06 106.04 114.09 106.03 114.12 106.03 114.16 106.02 114.24 106 114.33 105.98 114.43 105.96 114.54 105.94 114.65 105.92 114.76 105.89 114.87 105.86 114.97 105.83 115.08 105.81 115.19 105.78 115.3 105.75 115.54 105.68 115.78 105.61 116.03 105.53 116.07 105.51 116.11 105.5 116.15 105.48 116.19 105.47 116.22 105.46 116.25 105.45 116.28 105.44 116.3 105.43 116.33 105.43 116.34 105.42 116.36 105.41 116.37 105.41 116.38 105.41 116.39 105.4 116.39 105.4 116.41 105.39 116.43 105.38 116.46 105.38 116.48 105.37 116.52 105.36 116.56 105.34 116.6 105.32 116.65 105.31 116.71 105.28 116.76 105.27 116.82 105.24 116.89 105.22 116.95 105.19 117.02 105.16 117.09 105.13 117.17 105.1 117.25 105.07 117.33 105.03 117.43 104.99 117.53 104.94 117.63 104.9 117.73 104.85 117.82 104.81 117.92 104.76 118.02 104.71 118.11 104.66 118.32 104.56 118.52 104.45 118.72 104.34 118.95 104.21 119.18 104.08 119.4 103.95 119.62 103.81 119.85 103.66 120.06 103.52 120.23 103.4 120.4 103.28 120.56 103.16 120.72 103.04 120.87 102.92 121.03 102.8 121.18 102.68 121.32 102.55 121.47 102.43 121.61 102.31 121.75 102.19 121.89 102.05 122.03 101.92 122.08 101.88 122.12 101.84 122.16 101.8 122.2 101.76 122.24 101.72 122.29 101.67 122.34 101.63 122.38 101.59 122.41 101.55 122.45 101.52 122.47 101.49 122.5 101.46 122.53 101.44 122.54 101.42 122.56 101.41 122.56 101.4 122.58 101.39 122.58 101.37 122.6 101.36 122.61 101.34 122.63 101.32 122.66 101.3 122.69 101.27 122.72 101.23 122.75 101.19 122.79 101.16 122.83 101.12 122.86 101.08 122.9 101.04 122.94 101 122.98 100.95 123.02 100.91 123.12 100.79 123.23 100.67 123.32 100.55 123.42 100.44 123.52 100.31 123.62 100.19 123.68 100.12 123.72 100.05 123.78 99.99 123.83 99.92 123.87 99.86 123.91 99.81 123.95 99.75 124 99.69 124.03 99.64 124.07 99.59 124.1 99.55 124.13 99.5 124.16 99.47 124.18 99.45 124.2 99.42 124.21 99.39 124.23 99.38 124.24 99.35 124.26 99.33 124.28 99.3 124.31 99.26 124.33 99.22 124.36 99.18 124.39 99.14 124.42 99.09 124.45 99.03 124.49 98.98 124.53 98.92 124.57 98.86 124.61 98.79 124.65 98.72 124.7 98.65 124.75 98.57 124.8 98.49 124.85 98.41 124.9 98.32 124.95 98.23 125 98.14 125.06 98.03 125.12 97.93 125.18 97.82 125.24 97.71 125.3 97.59 125.36 97.47 125.43 97.35 125.49 97.22 125.55 97.09 125.61 96.95 125.68 96.81 125.74 96.66 125.81 96.52 125.87 96.36 125.93 96.21 126 96.05 126.05 95.9 126.11 95.75 126.17 95.6 126.22 95.44 126.27 95.28 126.32 95.12 126.38 94.95 126.43 94.77 126.48 94.61 126.52 94.44 126.57 94.26 126.61 94.09 126.65 93.91 126.69 93.73 126.73 93.55 126.77 93.37 126.8 93.19 126.83 93.01 126.86 92.82 126.89 92.63 126.92 92.44 126.94 92.25 126.96 92.05 126.97 91.84 126.99 91.64 127 91.45 127.01 91.24 127.02 91.03"/><polyline class="cls-1" points="127.29 78.38 127.29 78.3 127.29 78.26 127.29 78.21 127.28 78.15 127.28 78.09 127.28 78.03 127.28 77.96 127.27 77.89 127.27 77.83 127.27 77.76 127.26 77.69 127.26 77.62 127.25 77.55 127.25 77.48 127.24 77.4 127.24 77.33 127.23 77.26 127.23 77.19 127.22 77.12 127.21 77.04 127.21 76.97 127.2 76.9 127.2 76.82 127.19 76.75 127.18 76.68 127.17 76.61 127.17 76.53 127.16 76.47 127.15 76.39 127.14 76.32 127.14 76.25 127.13 76.18 127.12 76.11 127.11 76.04 127.1 75.97 127.09 75.9 127.08 75.83 127.07 75.76 127.06 75.69 127.05 75.63 127.04 75.56 127.03 75.49 127.02 75.42 127 75.36 126.99 75.29 126.98 75.22 126.97 75.16 126.96 75.09 126.95 75.03 126.94 74.96 126.92 74.9 126.92 74.87"/><path class="cls-1" d="M127.3,79.71c0-.45,0-.9,0-1.34"/><polyline class="cls-1" points="126.92 74.87 126.89 74.73 126.86 74.57 126.82 74.4 126.79 74.24 126.75 74.08 126.71 73.91 126.68 73.75 126.65 73.59 126.61 73.42 126.57 73.26 126.54 73.1 126.5 72.94 126.46 72.78 126.43 72.63 126.39 72.47 126.35 72.31 126.32 72.16 126.28 72 126.25 71.85 126.21 71.7 126.17 71.55 126.13 71.39 126.1 71.24 126.06 71.09 126.02 70.94 125.98 70.79 125.94 70.64 125.9 70.49 125.86 70.34 125.83 70.2 125.79 70.05 125.75 69.91 125.71 69.76 125.67 69.62 125.63 69.48 125.59 69.34 125.55 69.19 125.51 69.06 125.47 68.92 125.43 68.78 125.39 68.64 125.35 68.5 125.31 68.36 125.27 68.23 125.23 68.09 125.19 67.96 125.14 67.83 125.1 67.69 125.06 67.56 125.02 67.43 124.98 67.3 124.94 67.17 124.9 67.04 124.85 66.91 124.81 66.79 124.77 66.66 124.72 66.53 124.68 66.41 124.64 66.29 124.59 66.16 124.55 66.04 124.51 65.92 124.47 65.8 124.42 65.68 124.38 65.56 124.33 65.44 124.29 65.33 124.25 65.21 124.2 65.09 124.16 64.98 124.11 64.86 124.07 64.75 124.02 64.64 123.98 64.53 123.93 64.42 123.89 64.31 123.84 64.2 123.8 64.09 123.75 63.98 123.7 63.88 123.66 63.77 123.61 63.67 123.57 63.56 123.52 63.46 123.47 63.36 123.43 63.26 123.38 63.16 123.33 63.06 123.28 62.96 123.23 62.87 123.19 62.77 123.14 62.67 123.09 62.58 123.05 62.48 123 62.39 122.95 62.3 122.9 62.2 122.85 62.12 122.8 62.03 122.76 61.94 122.7 61.85 122.66 61.76 122.61 61.67 122.56 61.59 122.51 61.51 122.46 61.42 122.41 61.34 122.36 61.26 122.31 61.18 122.26 61.1 122.21 61.02 122.15 60.94 122.1 60.87 122.05 60.79 122 60.71 121.95 60.64 121.9 60.56 121.84 60.49 121.8 60.42 121.74 60.35 121.69 60.28 121.63 60.22 121.58 60.15 121.53 60.08 121.47 60.02 121.42 59.95 121.37 59.89 121.31 59.82 121.26 59.76 121.21 59.7 121.15 59.64 121.1 59.59 121.04 59.53 120.98 59.47 120.93 59.42 120.87 59.36 120.82 59.31 120.76 59.26 120.7 59.21 120.65 59.16 120.64 59.15"/><line class="cls-1" x1="127.07" y1="89.3" x2="127.29" y2="79.71"/><path class="cls-1" d="M127,91c0-.64,0-1.27,0-1.91"/><line class="cls-1" x1="107.71" y1="106.17" x2="107.72" y2="105.91"/><line class="cls-1" x1="108.22" y1="71.97" x2="108.28" y2="67.49"/><polyline class="cls-1" points="120.63 59.14 120.61 59.13 120.56 59.08 120.5 59.04 120.44 58.99 120.39 58.95 120.33 58.9 120.27 58.86 120.21 58.82 120.16 58.78 120.1 58.75 120.05 58.71 119.98 58.67 119.93 58.64 119.87 58.61 119.82 58.58 119.76 58.54 119.7 58.52 119.64 58.49 119.58 58.46 119.53 58.44 119.47 58.41 119.42 58.38 119.36 58.36 119.3 58.34 119.24 58.32 119.18 58.3 119.13 58.28 119.07 58.27 119.01 58.25 118.95 58.24 118.89 58.22 118.83 58.21 118.78 58.2 118.72 58.19 118.67 58.18 118.61 58.17 118.55 58.16 118.49 58.16 118.44 58.15 118.38 58.15 118.32 58.15 118.26 58.14"/><line class="cls-1" x1="178.35" y1="119.67" x2="178.7" y2="96.12"/><line class="cls-1" x1="178.67" y1="96.06" x2="178.51" y2="95.92"/><line class="cls-1" x1="164.03" y1="120.24" x2="178.19" y2="119.82"/><line class="cls-1" x1="163.83" y1="120.09" x2="163.98" y2="120.22"/><line class="cls-1" x1="145.71" y1="67.62" x2="136.1" y2="77.42"/><line class="cls-1" x1="146" y1="67.85" x2="145.84" y2="67.72"/><line class="cls-1" x1="37.18" y1="71.09" x2="37.08" y2="71.01"/><line class="cls-1" x1="36.65" y1="71.09" x2="36.3" y2="94.64"/><line class="cls-1" x1="36.34" y1="94.71" x2="36.49" y2="94.84"/><line class="cls-1" x1="81.66" y1="111.26" x2="67.87" y2="97.58"/><line class="cls-1" x1="67.86" y1="97.58" x2="67.77" y2="97.5"/><line class="cls-1" x1="67.29" y1="121.41" x2="81.44" y2="120.98"/><line class="cls-1" x1="67.09" y1="121.26" x2="67.24" y2="121.39"/><line class="cls-1" x1="81.6" y1="120.84" x2="81.75" y2="111.37"/><line class="cls-1" x1="178.51" y1="95.92" x2="173.95" y2="91.98"/><line class="cls-1" x1="156.39" y1="76.82" x2="146" y2="67.85"/><line class="cls-1" x1="145.4" y1="104.17" x2="163.83" y2="120.09"/><line class="cls-1" x1="67.77" y1="97.5" x2="65.12" y2="95.22"/><line class="cls-1" x1="58.45" y1="89.45" x2="37.18" y2="71.09"/><line class="cls-1" x1="36.49" y1="94.84" x2="67.09" y2="121.26"/><line class="cls-1" x1="75.8" y1="124.92" x2="75.86" y2="121.15"/><line class="cls-1" x1="60.36" y1="115.45" x2="60.25" y2="122.91"/><line class="cls-1" x1="171.57" y1="122.07" x2="171.6" y2="120.01"/><line class="cls-1" x1="156.12" y1="113.43" x2="156.02" y2="120.06"/><line class="cls-1" x1="138.82" y1="104.37" x2="138.81" y2="105.21"/><line class="cls-1" x1="43.16" y1="100.59" x2="43.05" y2="108.05"/><line class="cls-1" x1="153.64" y1="155.76" x2="154.29" y2="111.86"/><line class="cls-1" x1="138.81" y1="105.21" x2="138.09" y2="153.75"/><line class="cls-1" x1="57.88" y1="158.6" x2="58.54" y2="113.88"/><line class="cls-1" x1="43.04" y1="108.05" x2="42.32" y2="156.59"/><line class="cls-1" x1="170.85" y1="170.62" x2="171.57" y2="122.07"/><line class="cls-1" x1="156.02" y1="120.06" x2="155.3" y2="168.61"/><line class="cls-1" x1="75.08" y1="173.46" x2="75.8" y2="124.92"/><line class="cls-1" x1="60.25" y1="122.91" x2="59.53" y2="171.45"/><line class="cls-1" x1="74.55" y1="232.31" x2="74.58" y2="232.34"/><line class="cls-1" x1="156.03" y1="196.52" x2="156" y2="196.5"/><line class="cls-1" x1="57.03" y1="217.79" x2="59.02" y2="217.73"/><line class="cls-1" x1="59.08" y1="213.45" x2="57.1" y2="213.5"/><line class="cls-1" x1="47.78" y1="218.67" x2="58.86" y2="228.23"/><line class="cls-1" x1="58.98" y1="220.09" x2="53.77" y2="215.6"/><line class="cls-1" x1="48.25" y1="187.25" x2="59.33" y2="196.81"/><line class="cls-1" x1="66.51" y1="194.77" x2="54.24" y2="184.18"/><line class="cls-1" x1="152.84" y1="196.38" x2="152.88" y2="193.89"/><line class="cls-1" x1="137.39" y1="194.35" x2="137.36" y2="196.84"/><line class="cls-1" x1="57.02" y1="218.4" x2="57.37" y2="195.13"/><line class="cls-1" x1="57.49" y1="186.99" x2="57.5" y2="186.84"/><line class="cls-1" x1="42.11" y1="180.21" x2="41.47" y2="223.29"/><line class="cls-1" x1="169.7" y1="237.26" x2="170.34" y2="194.19"/><line class="cls-1" x1="154.86" y1="193.83" x2="154.82" y2="196.32"/><line class="cls-1" x1="154.33" y1="230.18" x2="154.25" y2="235.33"/><line class="cls-1" x1="74.17" y1="240.1" x2="74.81" y2="197.03"/><line class="cls-1" x1="59.35" y1="195.09" x2="58.71" y2="238.17"/><line class="cls-1" x1="114.63" y1="20.34" x2="114.38" y2="20.42"/><line class="cls-1" x1="114.38" y1="20.42" x2="110.78" y2="20.52"/><line class="cls-1" x1="110.78" y1="20.52" x2="110.37" y2="20.47"/><line class="cls-1" x1="110.36" y1="20.47" x2="109.48" y2="19.7"/><line class="cls-1" x1="109.48" y1="19.7" x2="110.49" y2="19.67"/><line class="cls-1" x1="110.28" y1="19.5" x2="110.49" y2="19.67"/><line class="cls-1" x1="112.56" y1="19.43" x2="110.28" y2="19.5"/><line class="cls-1" x1="112.56" y1="19.43" x2="112.75" y2="19.61"/><line class="cls-1" x1="112.75" y1="19.61" x2="113.76" y2="19.58"/><line class="cls-1" x1="113.76" y1="19.58" x2="114.63" y2="20.34"/><line class="cls-1" x1="110.52" y1="21.6" x2="110.54" y2="20.52"/><line class="cls-1" x1="110.35" y1="21.55" x2="110.76" y2="21.6"/><line class="cls-1" x1="110.76" y1="21.6" x2="114.35" y2="21.5"/><line class="cls-1" x1="109.47" y1="20.78" x2="109.48" y2="19.7"/><line class="cls-1" x1="109.47" y1="20.78" x2="110.35" y2="21.55"/><line class="cls-1" x1="114.62" y1="21.42" x2="114.63" y2="20.34"/><line class="cls-1" x1="114.36" y1="21.5" x2="114.62" y2="21.42"/><line class="cls-1" x1="110.28" y1="19.68" x2="110.28" y2="19.5"/><line class="cls-1" x1="109.59" y1="108.51" x2="109.18" y2="108.45"/><line class="cls-1" x1="109.18" y1="108.45" x2="109.19" y2="107.83"/><line class="cls-1" x1="112.92" y1="108.41" x2="109.59" y2="108.51"/><line class="cls-1" x1="108.42" y1="107.8" x2="108.44" y2="107.18"/><line class="cls-1" x1="109.18" y1="108.45" x2="108.43" y2="107.8"/><line class="cls-1" x1="113.18" y1="108.33" x2="113.19" y2="107.77"/><line class="cls-1" x1="113.18" y1="108.33" x2="112.92" y2="108.41"/><line class="cls-1" x1="114.53" y1="21.5" x2="110.53" y2="21.62"/><line class="cls-1" x1="110.53" y1="21.62" x2="110.46" y2="21.57"/><line class="cls-1" x1="114.48" y1="21.46" x2="114.53" y2="21.5"/><line class="cls-1" x1="114.53" y1="21.5" x2="113.78" y2="72.16"/><line class="cls-1" x1="113.28" y1="106.16" x2="113.26" y2="107.77"/><line class="cls-1" x1="113.25" y1="107.77" x2="109.25" y2="107.88"/><line class="cls-1" x1="110.53" y1="21.62" x2="109.78" y2="72.28"/><line class="cls-1" x1="109.28" y1="106.18" x2="109.25" y2="107.88"/><line class="cls-1" x1="109.59" y1="20.89" x2="108.68" y2="72.31"/><line class="cls-1" x1="108.33" y1="106.02" x2="108.32" y2="107.08"/><line class="cls-1" x1="109.25" y1="107.88" x2="108.32" y2="107.08"/><line class="cls-1" x1="95.5" y1="91.87" x2="95.62" y2="83.88"/><polyline class="cls-1" points="95.61 83.88 95.61 83.82 95.61 83.75 95.61 83.69 95.61 83.63 95.61 83.57 95.61 83.5 95.61 83.44 95.61 83.38 95.61 83.31 95.61 83.25 95.61 83.18 95.61 83.12 95.61 83.05 95.6 82.99 95.6 82.93 95.59 82.86 95.59 82.8 95.59 82.74 95.58 82.67 95.58 82.61 95.58 82.55 95.57 82.48 95.56 82.42 95.56 82.36 95.56 82.3 95.55 82.24 95.54 82.18 95.54 82.12 95.53 82.06 95.53 82 95.52 81.94 95.51 81.88 95.5 81.82 95.5 81.76 95.49 81.7 95.48 81.65 95.47 81.59 95.46 81.53 95.45 81.48 95.45 81.43 95.44 81.37 95.43 81.32 95.42 81.27 95.41 81.21 95.4 81.16 95.39 81.11 95.38 81.06 95.37 81.01 95.36 80.97 95.34 80.92 95.33 80.87 95.32 80.83 95.31 80.78 95.3 80.74 95.29 80.69 95.28 80.65"/><line class="cls-1" x1="95.28" y1="80.65" x2="90.05" y2="62.08"/><line class="cls-1" x1="90.05" y1="62.08" x2="90.16" y2="60.01"/><line class="cls-1" x1="126.49" y1="79.93" x2="99.51" y2="80.73"/><line class="cls-1" x1="108.12" y1="66.96" x2="108.67" y2="66.94"/><polyline class="cls-1" points="108.27 67.42 108.26 67.37 108.23 67.31 108.22 67.25 108.2 67.19 108.18 67.13 108.16 67.08 108.14 67.02 108.12 66.96"/><polyline class="cls-1" points="108.27 67.42 108.28 67.45 108.28 67.48 108.28 67.51 108.28 67.53 108.27 67.56 108.26 67.58 108.24 67.61 108.22 67.63 108.2 67.65 108.18 67.67 108.15 67.68 108.12 67.7 108.09 67.71 108.06 67.72 108.03 67.72 107.99 67.73 107.97 67.73 107.95 67.73"/><line class="cls-1" x1="107.49" y1="67.75" x2="107.95" y2="67.73"/><polyline class="cls-1" points="107.48 67.75 107.45 67.75 107.42 67.75 107.39 67.75 107.36 67.76 107.33 67.77 107.31 67.78 107.28 67.8 107.26 67.81 107.24 67.82 107.22 67.83 107.2 67.85 107.19 67.87 107.17 67.89 107.16 67.91 107.15 67.93 107.15 67.96 107.15 67.98 107.15 68.01 107.15 68.03 107.16 68.06"/><polyline class="cls-1" points="108.21 71.94 108.17 71.78 108.13 71.61 108.09 71.45 108.05 71.28 108.01 71.12 107.97 70.96 107.92 70.8 107.88 70.64 107.84 70.48 107.8 70.32 107.76 70.16 107.72 70 107.67 69.85 107.63 69.69 107.59 69.54 107.55 69.39 107.5 69.24 107.46 69.08 107.42 68.94 107.38 68.79 107.33 68.64 107.29 68.49 107.24 68.35 107.2 68.2 107.16 68.06"/><polyline class="cls-1" points="108.21 71.94 108.22 71.97 108.23 72 108.24 72.03 108.26 72.07 108.28 72.1 108.3 72.12 108.33 72.15 108.36 72.17 108.39 72.2 108.42 72.22 108.45 72.24 108.48 72.26 108.51 72.27 108.54 72.28 108.58 72.29 108.61 72.3 108.65 72.31 108.69 72.31 108.72 72.31"/><line class="cls-1" x1="115.28" y1="72.12" x2="108.72" y2="72.31"/><polyline class="cls-1" points="115.28 72.12 115.31 72.12 115.34 72.11 115.37 72.1 115.39 72.1 115.42 72.09 115.44 72.08 115.47 72.06 115.49 72.05 115.52 72.03 115.54 72 115.56 71.98 115.58 71.95 115.59 71.93 115.6 71.9 115.61 71.87 115.61 71.84 115.61 71.81 115.61 71.77 115.61 71.74 115.61 71.72"/><polyline class="cls-1" points="114.55 67.84 114.6 67.98 114.64 68.13 114.68 68.27 114.73 68.42 114.77 68.57 114.82 68.72 114.86 68.87 114.9 69.02 114.95 69.17 114.98 69.32 115.03 69.48 115.07 69.63 115.11 69.78 115.15 69.94 115.19 70.1 115.24 70.26 115.28 70.42 115.32 70.58 115.36 70.74 115.4 70.9 115.45 71.06 115.49 71.22 115.52 71.39 115.57 71.56 115.61 71.72"/><polyline class="cls-1" points="114.55 67.84 114.54 67.81 114.53 67.78 114.51 67.75 114.49 67.73 114.46 67.7 114.44 67.68 114.41 67.66 114.38 67.63 114.34 67.62 114.31 67.6 113.95 67.48"/><path class="cls-1" d="M108.22,106a13.78,13.78,0,0,0,3.06.29"/><polyline class="cls-1" points="108.22 106 108.19 105.99 108.15 105.98 108.11 105.98 108.08 105.97 108.05 105.97 108.01 105.96 107.97 105.95 107.94 105.94 107.91 105.94 107.88 105.94 107.85 105.93 107.82 105.92 107.8 105.92 107.78 105.92 107.76 105.91 107.74 105.91 107.73 105.91 107.72 105.91 107.71 105.91"/><line class="cls-1" x1="106.6" y1="105.93" x2="107.71" y2="105.91"/><polyline class="cls-1" points="106.6 105.92 106.59 105.92 106.59 105.93 106.59 105.93 106.59 105.94 106.6 105.94 106.61 105.94 106.63 105.95 106.65 105.95 106.67 105.96 106.69 105.97 106.72 105.97 106.75 105.98 106.78 105.99 106.81 105.99 106.84 106 106.88 106.01 106.92 106.02"/><polyline class="cls-1" points="107.38 106.11 107.15 106.06 106.92 106.02"/><polyline class="cls-1" points="107.38 106.11 107.42 106.11 107.45 106.12 107.48 106.13 107.52 106.13 107.55 106.14 107.58 106.14 107.6 106.15 107.62 106.15 107.64 106.16 107.66 106.16 107.68 106.16 107.69 106.17 107.7 106.17 107.71 106.17 107.71 106.17 107.71 106.17 107.7 106.18"/><line class="cls-1" x1="107.54" y1="106.18" x2="107.7" y2="106.18"/><path class="cls-1" d="M107.54,106.18c.26,0,.52.07.78.09"/><polyline class="cls-1" points="95.5 91.87 95.49 92.1 95.5 92.34 95.5 92.57 95.51 92.81 95.53 93.04 95.54 93.28 95.56 93.52 95.58 93.76 95.61 93.97 95.64 94.19 95.67 94.4 95.7 94.62 95.74 94.84 95.79 95.05 95.83 95.27 95.88 95.49 95.93 95.71 95.99 95.92 96.05 96.14 96.11 96.36 96.17 96.57 96.25 96.79 96.33 97.03 96.41 97.26 96.5 97.5 96.6 97.73 96.7 97.96 96.79 98.17 96.89 98.38 96.98 98.59 97.09 98.8 97.19 99.01 97.31 99.21 97.42 99.42 97.53 99.6 97.64 99.78 97.75 99.96 97.87 100.14 97.99 100.32 98.11 100.5 98.23 100.67 98.36 100.85 98.5 101.02 98.63 101.18 98.76 101.35 98.9 101.52 99.07 101.71 99.24 101.9 99.41 102.08 99.59 102.26 99.75 102.43 99.92 102.59 100.09 102.75 100.26 102.9 100.44 103.06 100.62 103.2 100.79 103.35 100.98 103.49 101.16 103.63 101.34 103.77 101.53 103.9 101.73 104.03 101.92 104.15 102.12 104.28 102.31 104.4 102.52 104.51 102.71 104.63 102.91 104.73 103.11 104.84 103.32 104.94 103.53 105.04 103.73 105.13 103.94 105.22 104.17 105.31 104.4 105.41 104.63 105.49 104.86 105.58 105.09 105.66 105.31 105.72 105.52 105.78 105.73 105.84 105.94 105.9 106.16 105.95 106.37 106 106.58 106.04 106.81 106.09 107.04 106.13 107.28 106.17 107.52 106.2 107.74 106.23 107.98 106.25 108.2 106.27 108.33 106.28"/><line class="cls-1" x1="120.63" y1="59.14" x2="120.63" y2="59.14"/><polyline class="cls-1" points="91.23 58.95 91.19 58.95 91.16 58.95 91.12 58.96 91.08 58.96 91.05 58.97 91.01 58.98 90.96 58.99 90.91 59.01 90.87 59.02 90.84 59.04 90.8 59.05 90.77 59.07 90.74 59.09 90.71 59.1 90.67 59.13 90.62 59.16 90.57 59.2 90.54 59.24 90.5 59.27 90.47 59.3 90.44 59.34 90.41 59.37 90.38 59.4 90.36 59.44 90.34 59.48 90.31 59.51 90.29 59.55 90.27 59.59 90.25 59.63 90.24 59.67 90.22 59.72 90.21 59.75 90.2 59.79 90.19 59.82 90.18 59.86 90.18 59.9 90.17 59.93 90.17 59.97 90.16 60.01"/><line class="cls-1" x1="118.21" y1="58.14" x2="114.43" y2="58.25"/><line class="cls-1" x1="108.8" y1="58.42" x2="91.23" y2="58.94"/><polyline class="cls-1" points="118.26 58.14 118.25 58.14 118.21 58.14"/><line class="cls-1" x1="95.58" y1="84.01" x2="95.47" y2="91.98"/><line class="cls-1" x1="95.46" y1="91.99" x2="94.9" y2="90.81"/><line class="cls-1" x1="94.9" y1="90.81" x2="94.89" y2="91.51"/><line class="cls-1" x1="90.19" y1="81.25" x2="90.2" y2="81.01"/><line class="cls-1" x1="90.2" y1="81.01" x2="89.11" y2="78.73"/><line class="cls-1" x1="89.11" y1="78.73" x2="90.04" y2="62.27"/><line class="cls-1" x1="90.04" y1="62.27" x2="95.24" y2="80.75"/><polyline class="cls-1" points="95.24 80.75 95.25 80.79 95.26 80.83 95.28 80.88 95.29 80.92 95.3 80.97 95.31 81.02 95.32 81.06 95.33 81.11 95.34 81.16 95.35 81.22 95.36 81.27 95.37 81.32 95.38 81.37 95.39 81.42 95.4 81.48 95.41 81.53 95.42 81.58 95.43 81.64 95.44 81.7 95.45 81.75 95.45 81.81 95.46 81.87 95.47 81.93 95.48 81.99 95.48 82.05 95.49 82.11 95.5 82.17 95.51 82.23 95.51 82.29 95.52 82.35 95.52 82.41 95.53 82.47 95.53 82.54 95.54 82.6 95.54 82.66 95.55 82.73 95.55 82.79 95.56 82.85 95.56 82.92 95.56 82.98 95.56 83.05 95.56 83.11 95.57 83.17 95.57 83.24 95.58 83.3 95.58 83.36 95.58 83.43 95.58 83.5 95.58 83.56 95.58 83.62 95.58 83.69 95.58 83.75 95.58 83.82 95.58 83.88 95.58 83.95 95.58 84.01"/><line class="cls-1" x1="90.1" y1="62.27" x2="90.04" y2="62.27"/><line class="cls-1" x1="95.5" y1="91.98" x2="95.47" y2="91.98"/><line class="cls-1" x1="167.86" y1="76.48" x2="127.26" y2="77.69"/><line class="cls-1" x1="89.15" y1="78.82" x2="58.59" y2="79.72"/><line class="cls-1" x1="167.86" y1="76.48" x2="174.32" y2="89.96"/><line class="cls-1" x1="174.32" y1="89.96" x2="127.01" y2="91.36"/><line class="cls-1" x1="95.5" y1="92.3" x2="65.05" y2="93.2"/><line class="cls-1" x1="58.59" y1="79.72" x2="65.05" y2="93.2"/><line class="cls-1" x1="58.45" y1="89.54" x2="58.59" y2="79.72"/><line class="cls-1" x1="65.05" y1="93.2" x2="65.03" y2="95.22"/><line class="cls-1" x1="58.45" y1="89.54" x2="65.03" y2="95.22"/><line class="cls-1" x1="163.29" y1="103.64" x2="173.42" y2="92"/><line class="cls-1" x1="163.29" y1="103.64" x2="117.39" y2="105.01"/><line class="cls-1" x1="104.36" y1="105.39" x2="76.58" y2="106.22"/><line class="cls-1" x1="72.12" y1="101.75" x2="72.09" y2="101.77"/><line class="cls-1" x1="174.32" y1="89.96" x2="174.29" y2="91.97"/><line class="cls-1" x1="173.42" y1="92" x2="174.29" y2="91.97"/><line class="cls-1" x1="71.72" y1="101.41" x2="72.12" y2="101.74"/><path class="cls-1" d="M164,110.51a.76.76,0,0,0,0,.11"/><line class="cls-1" x1="163.96" y1="110.44" x2="178.16" y2="95.94"/><path class="cls-1" d="M164,110.63l-.05.06"/><path class="cls-1" d="M163.83,120a.51.51,0,0,0,.14.23"/><polyline class="cls-1" points="178.69 96.12 178.69 96.11 178.69 96.1 178.69 96.09 178.69 96.08 178.68 96.07 178.67 96.05 178.66 96.05 178.65 96.04 178.64 96.04 178.63 96.03"/><path class="cls-1" d="M178.33,119.79a.35.35,0,0,0,0-.12"/><polyline class="cls-1" points="163.89 110.62 163.89 110.6 163.89 110.58 163.89 110.57 163.9 110.55 163.9 110.53 163.91 110.51 163.92 110.5 163.93 110.48 163.94 110.47 163.95 110.45 163.96 110.44"/><polyline class="cls-1" points="178.16 95.94 178.18 95.93 178.19 95.92 178.21 95.91 178.22 95.9 178.23 95.89 178.25 95.88 178.27 95.88 178.29 95.87 178.3 95.86 178.32 95.86 178.34 95.86 178.36 95.86 178.37 95.86 178.39 95.86 178.41 95.86 178.42 95.87 178.44 95.88 178.46 95.89 178.47 95.89 178.49 95.9 178.5 95.91 178.51 95.92"/><line class="cls-1" x1="163.75" y1="119.9" x2="163.88" y2="110.62"/><path class="cls-1" d="M164,120.21a.06.06,0,0,0,.05,0"/><path class="cls-1" d="M178.19,119.82a.33.33,0,0,0,.14,0"/><polyline class="cls-1" points="163.84 120.09 163.83 120.09 163.81 120.07 163.81 120.06 163.79 120.05 163.78 120.03 163.78 120.02 163.77 120 163.76 119.99 163.76 119.97 163.75 119.95 163.75 119.94 163.75 119.92 163.75 119.9"/><path class="cls-1" d="M145.84,67.72l-.09-.06"/><line class="cls-1" x1="36.76" y1="71.29" x2="36.41" y2="94.66"/><polyline class="cls-1" points="37.18 71.09 37.16 71.08 37.15 71.07 37.13 71.06 37.12 71.05 37.1 71.04 37.08 71.04 37.07 71.03 37.05 71.03 37.03 71.03 37.01 71.03 37 71.03 36.98 71.03 36.96 71.03 36.95 71.04 36.93 71.04 36.91 71.05 36.9 71.06 36.88 71.07 36.87 71.08 36.86 71.09 36.84 71.1 36.83 71.11 36.82 71.13 36.81 71.14 36.8 71.16 36.79 71.17 36.78 71.19 36.77 71.2 36.77 71.22 36.76 71.24 36.76 71.25 36.76 71.27 36.76 71.29"/><polyline class="cls-1" points="36.41 94.66 36.41 94.67 36.41 94.69 36.41 94.7 36.42 94.72 36.42 94.74 36.43 94.75 36.43 94.77 36.44 94.78 36.45 94.8 36.46 94.81 36.47 94.82 36.48 94.84 36.49 94.84"/><polyline class="cls-1" points="36.67 71.22 36.66 71.17 36.65 71.13 36.65 71.11 36.65 71.08 36.65 71.06 36.66 71.04 36.66 71.01 36.67 70.98 36.69 70.95 36.7 70.93 36.71 70.92 36.72 70.91 36.73 70.89"/><polyline class="cls-1" points="36.73 70.89 36.77 70.89 36.81 70.89 36.84 70.89 36.88 70.9 36.91 70.91 36.94 70.92 36.95 70.92 36.98 70.94 37 70.95 37.03 70.97 37.05 70.98 37.07 71 37.08 71.01"/><polyline class="cls-1" points="36.33 94.7 36.32 94.69 36.31 94.68 36.31 94.67 36.31 94.66 36.3 94.65 36.3 94.64 36.3 94.63 36.31 94.62 36.31 94.6 36.33 94.58"/><line class="cls-1" x1="36.34" y1="94.71" x2="36.32" y2="94.7"/><path class="cls-1" d="M81.75,111.36l-.08-.1"/><polyline class="cls-1" points="67.77 97.5 67.75 97.49 67.74 97.48 67.73 97.47 67.71 97.46 67.7 97.46 67.68 97.45 67.66 97.45 67.64 97.45 67.63 97.44 67.61 97.44 67.59 97.44 67.58 97.45 67.56 97.45 67.54 97.45 67.53 97.46 67.51 97.47 67.5 97.47 67.47 97.48 67.47 97.49 67.45 97.5 67.44 97.51 67.42 97.53 67.41 97.54 67.4 97.56 67.39 97.57 67.38 97.59 67.37 97.6 67.37 97.62 67.36 97.64 67.36 97.65 67.35 97.67 67.35 97.69 67.35 97.71"/><line class="cls-1" x1="67.35" y1="97.71" x2="67" y2="121.07"/><path class="cls-1" d="M81.44,121a.33.33,0,0,0,.14,0"/><path class="cls-1" d="M67.23,121.38a.06.06,0,0,0,.05,0"/><polyline class="cls-1" points="67 121.07 67 121.09 67 121.1 67.01 121.12 67.01 121.14 67.01 121.15 67.02 121.17 67.03 121.19 67.04 121.2 67.05 121.21 67.06 121.23 67.07 121.24 67.08 121.25 67.09 121.26"/><path class="cls-1" d="M81.58,121a.34.34,0,0,0,0-.12"/><line class="cls-1" x1="176.45" y1="97.69" x2="178.16" y2="95.94"/><polyline class="cls-1" points="178.16 95.94 178.18 95.93 178.19 95.92 178.21 95.91 178.22 95.9 178.23 95.89 178.25 95.88 178.27 95.88 178.29 95.87 178.3 95.86 178.32 95.86 178.34 95.86 178.36 95.86 178.37 95.86 178.39 95.86 178.41 95.86 178.42 95.87 178.44 95.88 178.46 95.89 178.47 95.89 178.49 95.9 178.5 95.91 178.51 95.92"/><polyline class="cls-1" points="163.84 120.09 163.83 120.09 163.81 120.07 163.81 120.06 163.79 120.05 163.78 120.03 163.78 120.02 163.77 120 163.76 119.99 163.76 119.97 163.75 119.95 163.75 119.94 163.75 119.92 163.75 119.9"/><line class="cls-1" x1="163.75" y1="119.9" x2="163.88" y2="110.62"/><polyline class="cls-1" points="163.89 110.62 163.89 110.6 163.89 110.58 163.89 110.57 163.9 110.55 163.9 110.53 163.91 110.51 163.92 110.5 163.93 110.48 163.94 110.47 163.95 110.45 163.96 110.44"/><line class="cls-1" x1="163.96" y1="110.44" x2="166" y2="108.36"/><line class="cls-1" x1="166" y1="108.36" x2="160.62" y2="103.72"/><line class="cls-1" x1="67.35" y1="97.71" x2="67" y2="121.07"/><polyline class="cls-1" points="67.35 97.71 67.35 97.69 67.35 97.67 67.36 97.65 67.36 97.64 67.37 97.62 67.37 97.6 67.38 97.59 67.39 97.57 67.4 97.56 67.41 97.54 67.42 97.53 67.44 97.51 67.45 97.5 67.46 97.49 67.47 97.48 67.49 97.47 67.51 97.47 67.53 97.46 67.55 97.45 67.56 97.45 67.58 97.45 67.59 97.44 67.61 97.44 67.63 97.44 67.65 97.45 67.66 97.45 67.68 97.45 67.7 97.46 67.71 97.46 67.73 97.47 67.74 97.48 67.76 97.49 67.77 97.5"/><polyline class="cls-1" points="37.18 71.09 37.16 71.08 37.15 71.07 37.13 71.06 37.12 71.05 37.1 71.04 37.08 71.04 37.07 71.03 37.05 71.03 37.03 71.03 37.01 71.03 37 71.03 36.98 71.03 36.96 71.03 36.95 71.04 36.93 71.04 36.91 71.05 36.9 71.06 36.88 71.07 36.87 71.08 36.86 71.09 36.84 71.1 36.83 71.11 36.82 71.13 36.81 71.14 36.8 71.16 36.79 71.17 36.78 71.19 36.77 71.2 36.77 71.22 36.76 71.24 36.76 71.25 36.76 71.27 36.76 71.29"/><line class="cls-1" x1="36.76" y1="71.29" x2="36.41" y2="94.66"/><polyline class="cls-1" points="36.41 94.66 36.41 94.67 36.41 94.69 36.41 94.7 36.42 94.72 36.42 94.74 36.43 94.75 36.43 94.77 36.44 94.78 36.45 94.8 36.46 94.81 36.47 94.82 36.48 94.84 36.49 94.84"/><polyline class="cls-1" points="63.5 125.35 63.48 125.35 63.46 125.35 63.43 125.35 63.41 125.35 63.38 125.35 63.36 125.35 63.34 125.35 63.32 125.34 63.29 125.34 63.27 125.34 63.25 125.34 63.23 125.34 63.21 125.33 63.18 125.33 63.16 125.33 63.15 125.33 63.13 125.33 63.11 125.32 63.09 125.32 63.08 125.31 63.07 125.31 63.05 125.31 63.04 125.31 63.03 125.3 63.02 125.3 63.01 125.29 63 125.29 62.99 125.28 62.99 125.28"/><line class="cls-1" x1="75.47" y1="124.99" x2="63.5" y2="125.35"/><line class="cls-1" x1="62.99" y1="125.28" x2="60.26" y2="122.92"/><line class="cls-1" x1="60.26" y1="122.93" x2="60.37" y2="115.46"/><polyline class="cls-1" points="75.8 124.92 75.8 124.92 75.8 124.92 75.8 124.93 75.79 124.93 75.79 124.94 75.78 124.94 75.78 124.95 75.77 124.95 75.75 124.95 75.74 124.96 75.73 124.96 75.72 124.96 75.7 124.97 75.69 124.97 75.67 124.97 75.66 124.98 75.64 124.98 75.62 124.98 75.6 124.98 75.58 124.98 75.56 124.99 75.54 124.99 75.52 124.99 75.49 124.99 75.47 124.99"/><polyline class="cls-1" points="60.26 122.93 60.26 122.92 60.25 122.92 60.25 122.91 60.25 122.91"/><polyline class="cls-1" points="159.27 122.5 159.25 122.5 159.22 122.5 159.2 122.5 159.18 122.5 159.15 122.5 159.13 122.5 159.11 122.5 159.08 122.5 159.06 122.5 159.04 122.5 159.02 122.5 158.99 122.49 158.97 122.49 158.95 122.49 158.93 122.48 158.91 122.48 158.89 122.48 158.87 122.48 158.86 122.47 158.84 122.47 158.83 122.47 158.82 122.46 158.81 122.46 158.79 122.45 158.78 122.45 158.77 122.45 158.76 122.44 158.75 122.44 158.75 122.43"/><line class="cls-1" x1="171.24" y1="122.15" x2="159.27" y2="122.5"/><line class="cls-1" x1="158.75" y1="122.43" x2="156.03" y2="120.08"/><line class="cls-1" x1="156.03" y1="120.08" x2="156.13" y2="113.44"/><polyline class="cls-1" points="171.57 122.07 171.57 122.07 171.57 122.08 171.57 122.08 171.56 122.09 171.55 122.09 171.55 122.1 171.54 122.1 171.53 122.11 171.52 122.11 171.51 122.11 171.5 122.12 171.48 122.12 171.47 122.12 171.46 122.13 171.44 122.13 171.42 122.13 171.4 122.14 171.38 122.14 171.36 122.14 171.34 122.14 171.32 122.14 171.3 122.14 171.28 122.14 171.26 122.14 171.24 122.14"/><polyline class="cls-1" points="156.03 120.08 156.02 120.08 156.02 120.07 156.02 120.07 156.02 120.06"/><polyline class="cls-1" points="142.06 107.64 142.03 107.64 142.01 107.64 141.99 107.64 141.96 107.64 141.94 107.64 141.92 107.64 141.9 107.64 141.87 107.64 141.85 107.64 141.82 107.64 141.81 107.64 141.79 107.63 141.76 107.63 141.74 107.63 141.72 107.63 141.71 107.62 141.69 107.62 141.67 107.62 141.65 107.61 141.64 107.61 141.62 107.61 141.61 107.6 141.6 107.6 141.58 107.6 141.57 107.59 141.56 107.59 141.55 107.58 141.55 107.58 141.54 107.57"/><line class="cls-1" x1="149.17" y1="107.43" x2="142.06" y2="107.64"/><line class="cls-1" x1="141.54" y1="107.57" x2="138.82" y2="105.22"/><line class="cls-1" x1="138.82" y1="105.22" x2="138.83" y2="104.37"/><polyline class="cls-1" points="138.82 105.22 138.81 105.22 138.81 105.21 138.81 105.21 138.81 105.21"/><polyline class="cls-1" points="46.29 110.49 46.27 110.49 46.24 110.49 46.23 110.49 46.2 110.49 46.17 110.49 46.15 110.49 46.13 110.49 46.11 110.49 46.08 110.49 46.06 110.48 46.04 110.48 46.02 110.48 46 110.48 45.98 110.47 45.96 110.47 45.94 110.47 45.92 110.47 45.9 110.46 45.89 110.46 45.87 110.46 45.85 110.45 45.84 110.45 45.83 110.45 45.82 110.44 45.81 110.44 45.8 110.43 45.79 110.43 45.78 110.42 45.78 110.42"/><line class="cls-1" x1="54.34" y1="110.25" x2="46.29" y2="110.49"/><line class="cls-1" x1="45.77" y1="110.42" x2="43.06" y2="108.07"/><line class="cls-1" x1="43.05" y1="108.07" x2="43.16" y2="100.6"/><polyline class="cls-1" points="43.05 108.07 43.05 108.06 43.05 108.06 43.04 108.06 43.04 108.05"/><polyline class="cls-1" points="140.82 156.12 140.83 156.12 140.84 156.13 140.84 156.13 140.85 156.14 140.86 156.14 140.88 156.14 140.89 156.15 140.9 156.15 140.92 156.16 140.93 156.16 140.95 156.16 140.97 156.17 140.99 156.17 141.01 156.17 141.03 156.18 141.05 156.18 141.07 156.18 141.09 156.18 141.11 156.18 141.13 156.19 141.16 156.19 141.18 156.19 141.2 156.19 141.22 156.19 141.25 156.19 141.27 156.19 141.29 156.19 141.31 156.19 141.34 156.19"/><polyline class="cls-1" points="142.06 107.64 142.03 107.64 142.01 107.64 141.99 107.64 141.96 107.64 141.94 107.64 141.92 107.64 141.9 107.64 141.87 107.64 141.85 107.64 141.82 107.64 141.81 107.64 141.79 107.63 141.76 107.63 141.74 107.63 141.72 107.63 141.71 107.62 141.69 107.62 141.67 107.62 141.65 107.61 141.64 107.61 141.62 107.61 141.61 107.6 141.6 107.6 141.58 107.6 141.57 107.59 141.56 107.59 141.55 107.58 141.55 107.58 141.54 107.57"/><line class="cls-1" x1="141.54" y1="107.57" x2="138.82" y2="105.22"/><polyline class="cls-1" points="138.82 105.22 138.81 105.22 138.81 105.21 138.81 105.21 138.81 105.21"/><line class="cls-1" x1="149.17" y1="107.43" x2="142.06" y2="107.64"/><line class="cls-1" x1="141.34" y1="156.19" x2="153.31" y2="155.84"/><line class="cls-1" x1="138.1" y1="153.77" x2="140.82" y2="156.12"/><line class="cls-1" x1="138.1" y1="153.77" x2="138.82" y2="105.22"/><polyline class="cls-1" points="153.31 155.84 153.33 155.84 153.35 155.83 153.37 155.83 153.4 155.83 153.42 155.83 153.44 155.83 153.46 155.83 153.48 155.82 153.49 155.82 153.51 155.82 153.53 155.81 153.54 155.81 153.56 155.81 153.57 155.8 153.58 155.8 153.6 155.8 153.61 155.79 153.61 155.79 153.62 155.78 153.63 155.78 153.64 155.78 153.64 155.77 153.64 155.77 153.65 155.76 153.65 155.76"/><polyline class="cls-1" points="138.09 153.75 138.09 153.75 138.09 153.76 138.09 153.77 138.1 153.77"/><polyline class="cls-1" points="45.06 158.97 45.06 158.97 45.07 158.97 45.08 158.98 45.09 158.98 45.1 158.99 45.11 158.99 45.12 159 45.14 159 45.15 159 45.17 159 45.18 159.01 45.2 159.01 45.22 159.01 45.24 159.02 45.26 159.02 45.28 159.03 45.3 159.03 45.32 159.03 45.34 159.03 45.37 159.03 45.39 159.03 45.41 159.03 45.43 159.03 45.46 159.03 45.48 159.03 45.51 159.03 45.53 159.03 45.55 159.03 45.58 159.03"/><polyline class="cls-1" points="46.29 110.49 46.27 110.49 46.24 110.49 46.23 110.49 46.2 110.49 46.17 110.49 46.15 110.49 46.13 110.49 46.11 110.49 46.08 110.49 46.06 110.48 46.04 110.48 46.02 110.48 46 110.48 45.98 110.47 45.96 110.47 45.94 110.47 45.92 110.47 45.9 110.46 45.89 110.46 45.87 110.46 45.85 110.45 45.84 110.45 45.83 110.45 45.82 110.44 45.81 110.44 45.8 110.43 45.79 110.43 45.78 110.42 45.78 110.42"/><line class="cls-1" x1="45.77" y1="110.42" x2="43.06" y2="108.07"/><polyline class="cls-1" points="43.05 108.07 43.05 108.06 43.05 108.06 43.04 108.06 43.04 108.05"/><line class="cls-1" x1="54.34" y1="110.25" x2="46.29" y2="110.49"/><line class="cls-1" x1="45.58" y1="159.04" x2="57.55" y2="158.68"/><line class="cls-1" x1="42.34" y1="156.61" x2="45.06" y2="158.97"/><line class="cls-1" x1="42.34" y1="156.61" x2="43.06" y2="108.07"/><polyline class="cls-1" points="57.55 158.68 57.56 158.68 57.59 158.68 57.61 158.68 57.63 158.67 57.65 158.67 57.67 158.67 57.69 158.67 57.71 158.67 57.73 158.66 57.74 158.66 57.76 158.66 57.78 158.65 57.79 158.65 57.8 158.65 57.82 158.64 57.83 158.64 57.84 158.64 57.85 158.63 57.86 158.63 57.86 158.62 57.87 158.62 57.87 158.62 57.88 158.61 57.88 158.61 57.88 158.6"/><polyline class="cls-1" points="42.33 156.59 42.33 156.6 42.33 156.6 42.33 156.61 42.34 156.62"/><line class="cls-1" x1="158.75" y1="122.43" x2="156.03" y2="120.08"/><polyline class="cls-1" points="156.03 120.08 156.02 120.08 156.02 120.07 156.02 120.07 156.02 120.06"/><polyline class="cls-1" points="171.57 122.07 171.57 122.07 171.57 122.08 171.57 122.08 171.56 122.09 171.55 122.09 171.55 122.1 171.54 122.1 171.53 122.11 171.52 122.11 171.51 122.11 171.5 122.12 171.48 122.12 171.47 122.12 171.46 122.13 171.44 122.13 171.42 122.13 171.4 122.14 171.38 122.14 171.36 122.14 171.34 122.14 171.32 122.14 171.3 122.14 171.28 122.14 171.26 122.14 171.24 122.14"/><line class="cls-1" x1="171.24" y1="122.15" x2="159.27" y2="122.5"/><polyline class="cls-1" points="159.27 122.5 159.25 122.5 159.22 122.5 159.2 122.5 159.18 122.5 159.15 122.5 159.13 122.5 159.11 122.5 159.08 122.5 159.06 122.5 159.04 122.5 159.02 122.5 158.99 122.49 158.97 122.49 158.95 122.49 158.93 122.48 158.91 122.48 158.89 122.48 158.87 122.48 158.86 122.47 158.84 122.47 158.83 122.47 158.82 122.46 158.81 122.46 158.79 122.45 158.78 122.45 158.77 122.45 158.76 122.44 158.75 122.44 158.75 122.43"/><polyline class="cls-1" points="158.04 170.98 158.04 170.99 158.05 170.99 158.06 170.99 158.07 171 158.07 171 158.09 171 158.1 171.01 158.11 171.01 158.13 171.01 158.15 171.02 158.16 171.02 158.18 171.02 158.19 171.03 158.22 171.03 158.23 171.03 158.25 171.04 158.27 171.04 158.3 171.04 158.32 171.04 158.34 171.04 158.36 171.05 158.39 171.05 158.41 171.05 158.43 171.05 158.46 171.05 158.48 171.05 158.5 171.05 158.53 171.05 158.55 171.05"/><line class="cls-1" x1="158.55" y1="171.05" x2="170.52" y2="170.69"/><line class="cls-1" x1="155.31" y1="168.63" x2="158.04" y2="170.98"/><line class="cls-1" x1="155.31" y1="168.63" x2="156.03" y2="120.08"/><polyline class="cls-1" points="170.52 170.69 170.54 170.69 170.57 170.69 170.59 170.69 170.6 170.69 170.63 170.68 170.65 170.68 170.67 170.68 170.69 170.68 170.71 170.68 170.72 170.68 170.73 170.67 170.75 170.67 170.77 170.66 170.78 170.66 170.79 170.66 170.8 170.66 170.81 170.65 170.82 170.65 170.83 170.64 170.84 170.64 170.84 170.63 170.85 170.63 170.85 170.62 170.85 170.62 170.85 170.62"/><polyline class="cls-1" points="155.3 168.61 155.3 168.61 155.3 168.62 155.31 168.62 155.31 168.63"/><line class="cls-1" x1="62.99" y1="125.28" x2="60.26" y2="122.92"/><polyline class="cls-1" points="60.26 122.93 60.26 122.92 60.25 122.92 60.25 122.91 60.25 122.91"/><polyline class="cls-1" points="75.8 124.92 75.8 124.92 75.8 124.92 75.8 124.93 75.79 124.93 75.79 124.94 75.78 124.94 75.78 124.95 75.77 124.95 75.75 124.95 75.74 124.96 75.73 124.96 75.72 124.96 75.7 124.97 75.69 124.97 75.67 124.97 75.66 124.98 75.64 124.98 75.62 124.98 75.6 124.98 75.58 124.98 75.56 124.99 75.54 124.99 75.52 124.99 75.49 124.99 75.47 124.99"/><line class="cls-1" x1="75.47" y1="124.99" x2="63.5" y2="125.35"/><polyline class="cls-1" points="63.5 125.35 63.48 125.35 63.46 125.35 63.43 125.35 63.41 125.35 63.38 125.35 63.36 125.35 63.34 125.35 63.32 125.34 63.29 125.34 63.27 125.34 63.25 125.34 63.23 125.34 63.21 125.33 63.18 125.33 63.16 125.33 63.15 125.33 63.13 125.33 63.11 125.32 63.09 125.32 63.08 125.31 63.07 125.31 63.05 125.31 63.04 125.31 63.03 125.3 63.02 125.3 63.01 125.29 63 125.29 62.99 125.28 62.99 125.28"/><polyline class="cls-1" points="62.27 173.82 62.27 173.83 62.28 173.83 62.29 173.84 62.3 173.84 62.31 173.85 62.32 173.85 62.33 173.85 62.35 173.86 62.36 173.86 62.38 173.86 62.4 173.87 62.41 173.87 62.43 173.87 62.45 173.88 62.47 173.88 62.49 173.88 62.51 173.88 62.53 173.89 62.55 173.89 62.57 173.89 62.6 173.89 62.62 173.89 62.64 173.89 62.67 173.89 62.69 173.89 62.71 173.89 62.74 173.89 62.76 173.89 62.78 173.89"/><line class="cls-1" x1="62.78" y1="173.89" x2="74.75" y2="173.54"/><line class="cls-1" x1="59.54" y1="171.47" x2="62.27" y2="173.82"/><line class="cls-1" x1="59.54" y1="171.47" x2="60.26" y2="122.92"/><polyline class="cls-1" points="74.75 173.54 74.78 173.54 74.8 173.53 74.82 173.53 74.84 173.53 74.86 173.53 74.88 173.53 74.9 173.53 74.92 173.52 74.94 173.52 74.96 173.52 74.97 173.52 74.98 173.51 75 173.51 75.02 173.51 75.03 173.5 75.04 173.5 75.05 173.5 75.06 173.49 75.06 173.49 75.07 173.48 75.08 173.48 75.08 173.47 75.08 173.47 75.08 173.47 75.09 173.46"/><polyline class="cls-1" points="59.53 171.45 59.53 171.46 59.54 171.46 59.54 171.47 59.54 171.47"/><line class="cls-1" x1="74.31" y1="231.71" x2="74.78" y2="199.57"/><polyline class="cls-1" points="74.78 199.57 74.78 199.54 74.78 199.51 74.79 199.48 74.79 199.45 74.8 199.41 74.8 199.38 74.81 199.35 74.82 199.32 74.83 199.29 74.84 199.26 74.86 199.23 74.87 199.2 74.89 199.17 74.9 199.15 74.92 199.12 74.93 199.09 74.95 199.06 74.97 199.04 74.99 199.01 75.02 198.99 75.03 198.97 75.06 198.95 75.08 198.92 75.1 198.9 75.13 198.88 75.16 198.86 75.18 198.84 75.21 198.83 75.24 198.81 75.27 198.8 75.3 198.78 75.33 198.77 75.35 198.76 75.38 198.75 75.42 198.74 75.45 198.73 75.48 198.72 75.51 198.71 75.54 198.71 75.57 198.71 75.6 198.7 75.64 198.7"/><line class="cls-1" x1="75.63" y1="198.7" x2="155.48" y2="196.33"/><polyline class="cls-1" points="155.48 196.33 155.51 196.33 155.55 196.33 155.58 196.33 155.6 196.33 155.63 196.34 155.66 196.35 155.69 196.35 155.72 196.36 155.76 196.37 155.79 196.38 155.81 196.39 155.84 196.4 155.87 196.42 155.9 196.43 155.92 196.45 155.95 196.46 155.98 196.48 156 196.5 156.03 196.52 156.05 196.54 156.07 196.56 156.09 196.58 156.11 196.6 156.13 196.63 156.15 196.65 156.17 196.68 156.19 196.7 156.2 196.73 156.22 196.76 156.23 196.79 156.24 196.81 156.25 196.84 156.26 196.87 156.28 196.9 156.28 196.93 156.29 196.96 156.29 196.99 156.3 197.03 156.3 197.06 156.3 197.09 156.31 197.12 156.31 197.15"/><line class="cls-1" x1="156.31" y1="197.15" x2="155.83" y2="229.29"/><polyline class="cls-1" points="155.83 229.29 155.83 229.32 155.83 229.35 155.82 229.38 155.82 229.42 155.81 229.45 155.81 229.48 155.8 229.51 155.79 229.54 155.78 229.57 155.77 229.6 155.76 229.63 155.74 229.66 155.73 229.69 155.71 229.72 155.7 229.74 155.68 229.77 155.66 229.8 155.64 229.82 155.62 229.85 155.6 229.87 155.58 229.89 155.56 229.91 155.53 229.94 155.51 229.96 155.48 229.98 155.46 230 155.43 230.02 155.4 230.03 155.37 230.05 155.35 230.07 155.32 230.08 155.29 230.09 155.26 230.1 155.23 230.11 155.2 230.12 155.17 230.13 155.14 230.14 155.1 230.15 155.07 230.15 155.04 230.15 155.01 230.16 154.98 230.16"/><line class="cls-1" x1="154.98" y1="230.16" x2="75.13" y2="232.53"/><polyline class="cls-1" points="75.13 232.53 75.1 232.53 75.07 232.53 75.04 232.53 75.01 232.53 74.98 232.52 74.94 232.52 74.92 232.51 74.89 232.5 74.86 232.49 74.83 232.48 74.8 232.47 74.77 232.46 74.74 232.44 74.71 232.43 74.69 232.41 74.66 232.4 74.63 232.38 74.61 232.36 74.59 232.34 74.56 232.32 74.54 232.3 74.52 232.28 74.5 232.26 74.48 232.23 74.46 232.21 74.44 232.19 74.42 232.16 74.41 232.13 74.39 232.1 74.39 232.08 74.37 232.05 74.36 232.02 74.35 231.99 74.33 231.96 74.33 231.93 74.32 231.9 74.31 231.87 74.31 231.84 74.31 231.81 74.31 231.77 74.31 231.74 74.31 231.71"/><polyline class="cls-1" points="75.61 198.68 75.58 198.68 75.54 198.68 75.51 198.68 75.48 198.69 75.45 198.7 75.42 198.71 75.39 198.71 75.36 198.72 75.33 198.73 75.3 198.75 75.27 198.76 75.24 198.77 75.21 198.79 75.18 198.8 75.15 198.82 75.13 198.84 75.1 198.86 75.08 198.88 75.06 198.9 75.03 198.92 75.01 198.94 74.98 198.97 74.96 198.99 74.94 199.01 74.93 199.04 74.91 199.07 74.89 199.09 74.87 199.12 74.86 199.15 74.84 199.18 74.83 199.21 74.82 199.24 74.8 199.27 74.79 199.3 74.78 199.33 74.78 199.36 74.77 199.39"/><line class="cls-1" x1="155.45" y1="196.3" x2="75.61" y2="198.68"/><polyline class="cls-1" points="74.29 231.84 74.3 231.87 74.3 231.9 74.31 231.94 74.32 231.96 74.33 231.99 74.34 232.02 74.36 232.05 74.37 232.08 74.39 232.11 74.4 232.13 74.42 232.16 74.44 232.19 74.45 232.21 74.47 232.23 74.49 232.25 74.51 232.28 74.53 232.3 74.55 232.31"/><polyline class="cls-1" points="156 196.5 156 196.49 155.97 196.47 155.95 196.46 155.92 196.44 155.9 196.42 155.87 196.41 155.84 196.39 155.81 196.38 155.79 196.37 155.76 196.35 155.73 196.34 155.7 196.34 155.67 196.33 155.64 196.32 155.61 196.32 155.58 196.31 155.55 196.31 155.52 196.3 155.48 196.3 155.45 196.3"/><polyline class="cls-1" points="47.59 216.29 47.59 216.26 47.59 216.23 47.6 216.2 47.6 216.17 47.61 216.15 47.61 216.12 47.62 216.09 47.63 216.06 47.64 216.04 47.65 216.01 47.67 215.98 47.68 215.96 47.69 215.93 47.71 215.91 47.73 215.89 47.75 215.86 47.76 215.84 47.78 215.82 47.8 215.8 47.82 215.78 47.85 215.76 47.87 215.74 47.89 215.72 47.92 215.71 47.94 215.69 47.97 215.68 47.99 215.67 48.02 215.65 48.05 215.64 48.07 215.63 48.1 215.62 48.13 215.62 48.16 215.61 48.18 215.61 48.21 215.6 48.24 215.6 48.27 215.6"/><line class="cls-1" x1="47.56" y1="218.18" x2="58.86" y2="227.94"/><line class="cls-1" x1="47.56" y1="218.18" x2="47.59" y2="216.29"/><line class="cls-1" x1="48.27" y1="215.6" x2="53.34" y2="215.45"/><polyline class="cls-1" points="47.78 218.67 47.77 218.65 47.75 218.63 47.73 218.61 47.71 218.59 47.69 218.57 47.67 218.55 47.66 218.53 47.65 218.5 47.63 218.48 47.62 218.46 47.61 218.43 47.6 218.4 47.59 218.38 47.59 218.35 47.58 218.32 47.57 218.3 47.57 218.27 47.56 218.24 47.56 218.21 47.56 218.18"/><polyline class="cls-1" points="53.34 215.45 53.37 215.45 53.39 215.45 53.42 215.45 53.45 215.45 53.48 215.46 53.51 215.46 53.53 215.47 53.56 215.48 53.59 215.49 53.61 215.5 53.64 215.51 53.66 215.52 53.69 215.54 53.71 215.55 53.73 215.57 53.76 215.58 53.77 215.6"/><polyline class="cls-1" points="48.05 184.87 48.05 184.84 48.05 184.81 48.06 184.78 48.07 184.76 48.07 184.73 48.08 184.7 48.09 184.67 48.09 184.65 48.1 184.62 48.12 184.59 48.13 184.57 48.15 184.54 48.16 184.52 48.17 184.49 48.2 184.47 48.21 184.44 48.23 184.42 48.25 184.4 48.27 184.38 48.29 184.36 48.31 184.34 48.33 184.32 48.36 184.31 48.38 184.29 48.41 184.27 48.43 184.26 48.46 184.25 48.48 184.24 48.51 184.23 48.54 184.22 48.56 184.2 48.59 184.2 48.62 184.19 48.65 184.19 48.68 184.18 48.7 184.18 48.73 184.18"/><line class="cls-1" x1="48.03" y1="186.77" x2="59.33" y2="196.53"/><line class="cls-1" x1="48.03" y1="186.77" x2="48.06" y2="184.87"/><line class="cls-1" x1="48.73" y1="184.18" x2="53.8" y2="184.03"/><polyline class="cls-1" points="48.25 187.25 48.23 187.23 48.21 187.22 48.2 187.19 48.17 187.18 48.16 187.16 48.14 187.13 48.13 187.11 48.12 187.09 48.1 187.06 48.09 187.04 48.08 187.01 48.07 186.98 48.05 186.96 48.05 186.93 48.05 186.91 48.04 186.88 48.04 186.85 48.03 186.82 48.03 186.79 48.03 186.77"/><polyline class="cls-1" points="53.8 184.03 53.83 184.03 53.86 184.03 53.88 184.03 53.91 184.03 53.94 184.04 53.97 184.04 54 184.05 54.02 184.06 54.05 184.07 54.08 184.08 54.1 184.09 54.13 184.1 54.15 184.12 54.17 184.13 54.2 184.15 54.22 184.17 54.24 184.18"/><line class="cls-1" x1="68.81" y1="179.48" x2="177.4" y2="176.25"/><line class="cls-1" x1="177.4" y1="176.25" x2="177.15" y2="193.17"/><line class="cls-1" x1="177.15" y1="193.17" x2="68.56" y2="196.39"/><line class="cls-1" x1="68.56" y1="196.39" x2="68.81" y2="179.48"/><line class="cls-1" x1="41.98" y1="173.44" x2="68.56" y2="196.39"/><line class="cls-1" x1="42.23" y1="156.53" x2="41.98" y2="173.44"/><line class="cls-1" x1="42.23" y1="156.53" x2="68.81" y2="179.48"/><line class="cls-1" x1="138.09" y1="153.68" x2="75.35" y2="155.55"/><line class="cls-1" x1="59.76" y1="156.01" x2="57.91" y2="156.07"/><line class="cls-1" x1="42.33" y1="156.53" x2="42.23" y2="156.53"/><line class="cls-1" x1="153.64" y1="155.74" x2="155.47" y2="157.31"/><line class="cls-1" x1="170.85" y1="170.6" x2="177.4" y2="176.25"/><polyline class="cls-1" points="44.1 225.57 44.11 225.57 44.11 225.58 44.12 225.59 44.13 225.59 44.14 225.6 44.16 225.6 44.17 225.61 44.19 225.61 44.2 225.62 44.22 225.62 44.24 225.63 44.26 225.63 44.28 225.63 44.3 225.64 44.32 225.64 44.34 225.65 44.37 225.65 44.39 225.66 44.41 225.66 44.44 225.66 44.47 225.66 44.49 225.67 44.52 225.67 44.54 225.67 44.57 225.67 44.6 225.68 44.63 225.68 44.66 225.68 44.69 225.68 44.72 225.68 44.74 225.68 44.77 225.68 44.8 225.68 44.83 225.68 44.86 225.68 44.89 225.68 44.92 225.68"/><polyline class="cls-1" points="45.56 182.6 45.53 182.6 45.5 182.6 45.47 182.61 45.44 182.61 45.41 182.6 45.38 182.6 45.35 182.6 45.32 182.6 45.3 182.6 45.27 182.6 45.24 182.6 45.21 182.6 45.18 182.59 45.15 182.59 45.13 182.59 45.1 182.58 45.08 182.58 45.05 182.58 45.02 182.58 45.01 182.57 44.98 182.57 44.95 182.56 44.94 182.56 44.92 182.56 44.9 182.55 44.88 182.55 44.86 182.54 44.84 182.54 44.82 182.53 44.81 182.53 44.8 182.52 44.78 182.52 44.77 182.51 44.76 182.51 44.75 182.5 44.74 182.5 44.74 182.49"/><line class="cls-1" x1="44.74" y1="182.49" x2="42.12" y2="180.24"/><polyline class="cls-1" points="42.12 180.24 42.12 180.23 42.11 180.23 42.11 180.22 42.11 180.22 42.11 180.21 42.11 180.21 42.11 180.2 42.11 180.19 42.12 180.19 42.12 180.18 42.13 180.18 42.13 180.17 42.15 180.17 42.16 180.16 42.17 180.16 42.18 180.15 42.19 180.15 42.21 180.14 42.22 180.14 42.24 180.13 42.26 180.13 42.27 180.12 42.29 180.12 42.31 180.12 42.33 180.11 42.36 180.11 42.38 180.11 42.4 180.1 42.43 180.1 42.45 180.1 42.48 180.1 42.51 180.09 42.53 180.09 42.55 180.09 42.59 180.09 42.61 180.09 42.64 180.09"/><line class="cls-1" x1="42.64" y1="180.09" x2="49.43" y2="179.89"/><line class="cls-1" x1="52.35" y1="182.4" x2="45.56" y2="182.6"/><line class="cls-1" x1="44.92" y1="225.68" x2="55.54" y2="225.36"/><line class="cls-1" x1="41.49" y1="223.32" x2="44.1" y2="225.57"/><polyline class="cls-1" points="41.47 223.29 41.47 223.29 41.47 223.29 41.47 223.3 41.48 223.3 41.48 223.31 41.49 223.32"/><line class="cls-1" x1="157.51" y1="194.54" x2="156.63" y2="193.78"/><line class="cls-1" x1="169.44" y1="193.4" x2="170.33" y2="194.16"/><polyline class="cls-1" points="170.33 194.16 170.33 194.17 170.33 194.17 170.34 194.18 170.34 194.18 170.34 194.19 170.34 194.19 170.34 194.2 170.33 194.2 170.33 194.21 170.32 194.22 170.32 194.22 170.31 194.23 170.3 194.23 170.29 194.24 170.28 194.24 170.26 194.25 170.25 194.25 170.24 194.26 170.22 194.26 170.21 194.27 170.19 194.27 170.17 194.27 170.15 194.28 170.13 194.28 170.11 194.28 170.08 194.29 170.06 194.29 170.04 194.29 170.02 194.3 170 194.3 169.97 194.3 169.94 194.3 169.92 194.3 169.89 194.31 169.86 194.31 169.84 194.31 169.81 194.31"/><line class="cls-1" x1="169.81" y1="194.31" x2="158.33" y2="194.65"/><polyline class="cls-1" points="158.33 194.65 158.3 194.65 158.27 194.65 158.24 194.65 158.22 194.65 158.18 194.65 158.16 194.65 158.13 194.65 158.1 194.65 158.07 194.65 158.04 194.65 158.02 194.65 157.99 194.64 157.96 194.64 157.93 194.64 157.91 194.64 157.88 194.63 157.85 194.63 157.83 194.63 157.8 194.63 157.78 194.62 157.75 194.62 157.73 194.61 157.71 194.61 157.69 194.6 157.67 194.6 157.65 194.6 157.63 194.59 157.62 194.59 157.6 194.58 157.59 194.58 157.57 194.57 157.56 194.57 157.54 194.56 157.53 194.56 157.53 194.55 157.52 194.54 157.51 194.54"/><polyline class="cls-1" points="156.88 237.62 156.88 237.62 156.89 237.63 156.9 237.63 156.91 237.64 156.92 237.65 156.94 237.65 156.95 237.66 156.96 237.66 156.98 237.67 157 237.67 157.01 237.67 157.03 237.68 157.05 237.68 157.07 237.69 157.1 237.69 157.12 237.7 157.14 237.7 157.16 237.7 157.19 237.71 157.22 237.71 157.24 237.71 157.27 237.71 157.3 237.72 157.32 237.72 157.35 237.72 157.38 237.72 157.41 237.72 157.44 237.73 157.47 237.73 157.5 237.73 157.52 237.73 157.55 237.73 157.58 237.73 157.61 237.73 157.64 237.73 157.66 237.73 157.69 237.73"/><line class="cls-1" x1="157.69" y1="237.73" x2="169.17" y2="237.39"/><line class="cls-1" x1="154.27" y1="235.36" x2="156.88" y2="237.62"/><polyline class="cls-1" points="169.17 237.39 169.2 237.39 169.23 237.38 169.25 237.38 169.28 237.38 169.31 237.38 169.33 237.38 169.35 237.38 169.38 237.37 169.41 237.37 169.43 237.37 169.45 237.36 169.47 237.36 169.49 237.36 169.51 237.35 169.53 237.35 169.55 237.35 169.57 237.34 169.58 237.34 169.6 237.33 169.61 237.33 169.63 237.32 169.64 237.32 169.65 237.32 169.66 237.31 169.67 237.3 169.68 237.3 169.68 237.29 169.69 237.29 169.7 237.28 169.7 237.28 169.7 237.27 169.7 237.27"/><polyline class="cls-1" points="154.25 235.33 154.25 235.33 154.25 235.34 154.25 235.34 154.26 235.35 154.26 235.36 154.27 235.37"/><polyline class="cls-1" points="61.34 240.45 61.35 240.46 61.35 240.46 61.36 240.47 61.37 240.48 61.38 240.48 61.4 240.49 61.41 240.49 61.43 240.5 61.44 240.5 61.46 240.51 61.48 240.51 61.5 240.52 61.52 240.52 61.54 240.53 61.56 240.53 61.58 240.53 61.61 240.54 61.63 240.54 61.66 240.54 61.68 240.55 61.71 240.55 61.74 240.55 61.76 240.55 61.79 240.56 61.82 240.56 61.84 240.56 61.87 240.56 61.9 240.56 61.93 240.56 61.96 240.57 61.98 240.57 62.01 240.57 62.04 240.57 62.07 240.57 62.1 240.57 62.13 240.57 62.16 240.57"/><polyline class="cls-1" points="62.8 197.49 62.77 197.49 62.74 197.49 62.71 197.49 62.68 197.49 62.65 197.49 62.62 197.49 62.59 197.49 62.56 197.49 62.54 197.49 62.51 197.49 62.48 197.48 62.45 197.48 62.43 197.48 62.4 197.48 62.37 197.48 62.35 197.47 62.32 197.47 62.29 197.47 62.27 197.46 62.25 197.46 62.22 197.46 62.2 197.45 62.18 197.45 62.16 197.44 62.14 197.44 62.12 197.44 62.1 197.43 62.08 197.42 62.06 197.42 62.05 197.41 62.04 197.41 62.02 197.4 62.01 197.4 62 197.39 61.99 197.39 61.98 197.38 61.98 197.38"/><line class="cls-1" x1="61.98" y1="197.38" x2="59.37" y2="195.12"/><polyline class="cls-1" points="59.37 195.12 59.36 195.12 59.35 195.11 59.35 195.11 59.35 195.1 59.35 195.1 59.35 195.09 59.35 195.09 59.35 195.08 59.36 195.07 59.37 195.07 59.37 195.06 59.38 195.06 59.39 195.05 59.4 195.05 59.41 195.04 59.42 195.04 59.44 195.03 59.45 195.03 59.46 195.02 59.48 195.02 59.5 195.01 59.51 195.01 59.53 195.01 59.55 195 59.57 195 59.6 195 59.62 194.99 59.64 194.99 59.67 194.99 59.69 194.98 59.72 194.98 59.75 194.98 59.77 194.98 59.8 194.98 59.83 194.97 59.86 194.97 59.88 194.97"/><line class="cls-1" x1="59.88" y1="194.97" x2="66.68" y2="194.77"/><line class="cls-1" x1="73.9" y1="196.24" x2="74.79" y2="197"/><polyline class="cls-1" points="74.79 197 74.8 197.01 74.8 197.01 74.8 197.02 74.8 197.02 74.8 197.03 74.8 197.03 74.8 197.04 74.8 197.04 74.79 197.05 74.79 197.06 74.78 197.06 74.77 197.07 74.77 197.07 74.75 197.08 74.74 197.08 74.73 197.08 74.72 197.09 74.7 197.09 74.69 197.1 74.67 197.11 74.65 197.11 74.63 197.11 74.61 197.12 74.59 197.12 74.57 197.12 74.55 197.13 74.53 197.13 74.5 197.13 74.48 197.13 74.46 197.13 74.44 197.14 74.41 197.14 74.38 197.14 74.36 197.15 74.33 197.15 74.3 197.15 74.27 197.15"/><line class="cls-1" x1="74.27" y1="197.15" x2="62.8" y2="197.49"/><line class="cls-1" x1="62.16" y1="240.57" x2="73.64" y2="240.23"/><line class="cls-1" x1="58.73" y1="238.2" x2="61.34" y2="240.45"/><polyline class="cls-1" points="73.64 240.23 73.66 240.23 73.69 240.22 73.72 240.22 73.75 240.22 73.77 240.22 73.8 240.22 73.82 240.22 73.84 240.21 73.87 240.21 73.89 240.21 73.91 240.2 73.94 240.2 73.96 240.2 73.98 240.19 74 240.19 74.01 240.19 74.03 240.18 74.05 240.18 74.06 240.17 74.08 240.17 74.09 240.16 74.1 240.16 74.12 240.15 74.13 240.15 74.14 240.14 74.15 240.14 74.15 240.13 74.16 240.13 74.16 240.12 74.16 240.12 74.17 240.11 74.17 240.11"/><polyline class="cls-1" points="58.72 238.17 58.72 238.17 58.72 238.18 58.72 238.18 58.72 238.19 58.73 238.2 58.73 238.2"/></g></svg>