<?xml version="1.0" encoding="utf-8"?>
<!-- Generator: Adobe Illustrator 21.1.0, SVG Export Plug-In . SVG Version: 6.00 Build 0)  -->
<svg version="1.1" id="Layer_1" xmlns="http://www.w3.org/2000/svg" xmlns:xlink="http://www.w3.org/1999/xlink" x="0px" y="0px"
	 viewBox="0 0 215 260" style="enable-background:new 0 0 215 260;" xml:space="preserve">
<style type="text/css">
	.st0{fill:none;stroke:#DCDBDB;stroke-width:1.2275;}
</style>
<title>Asset 1</title>
<g id="Layer_2">
	<g id="Linework">
		<g>
			<path class="st0" d="M28.8,177.4c-2.8-1.6-6-2.7-8.8-4.3c-0.1-5.5,0.2-10.8,0.1-16.3c2-0.7,4.2-1,6.2-1.7c0-1.7,0.7-2.7,0.5-4.7
				c-2-1.4-4.7-2.1-6.8-3.4c-0.1-3,0-6,0.2-9c2-0.7,4-1.3,6-1.7c0.3-0.4-0.2-1.6,0.3-1.9c0.8-0.7,1.9-0.2,2.8-0.3
				c1.3-0.2,2.6-0.5,3.9-0.9c3.8-0.9,7.7-2,11.4-2.9v-10.5c-5.9-2.9-11.9-5.8-18.2-8.6c-1.7-0.8-5.1-1.7-5.7-3.1
				c-0.7-1.4-0.1-7.2-0.1-10c0-9.8,0.1-17.2,0.1-27c-0.2-1.8-0.1-3.5,0.1-5.3c0.7-2.4,5-4.4,7.2-5.5c8.6-4.1,18-6.8,27.8-9.7
				c0.1-6.1-0.7-12.1,1.9-15.8c2.1-2.7,4.7-5,7.7-6.7c3.2-2.1,6.8-3.4,10.5-3.9c4-0.3,8.1,0.6,11.6,2.5c8.8,4.1,17.3,8.1,26.2,12.3
				c0.8,0.4,1.6,0.8,2.4,1c2.2,0.4,4.7,0,6.8,0.2c1.9,0.1,3.7,0.6,5.4,1.4c7.8,3.6,15.5,7.2,23.4,10.9c1.9,1.1,3.8,1.9,5.9,2.4
				c1.2,0.5,2.5,1.1,3.7,1.7c1.3,0.5,2.5,1,3.7,1.7c0.3,0.2,0.5,0.5,0.6,0.8c2,0.7,3.9,1.7,5.6,2.8c0.1,11.5-0.1,24.7-0.1,36.6
				c0.2,1.7,0.1,3.5-0.1,5.2c-0.4,1.3-1.7,1.5-2.6,2.4c0.1,13.3-0.2,26.3-0.1,39.6"/>
			<path class="st0" d="M28.7,202.6"/>
			<path class="st0" d="M32.6,213.2"/>
			<path class="st0" d="M159.3,208.6v6.2l-1.2,4.9c-8.6,2.2-17.5,4.4-26.2,6.7c-1.2,0.3-3.7,0.9-3.7,0.9l-6.6-0.3l-6.6-0.3
				c-0.1,0.1-5.2-2.3-5.2-2.3v-2.7c-4.3,0.9-9,2.3-13.6,3.3"/>
			<path class="st0" d="M182.9,209.6c-1.9-0.2-3-1.9-1.5-3.1c0.4-0.3,1.3-0.5,1.2-0.9c-0.1-0.5-1.6-0.5-2.2-0.6
				c-0.8-0.3-1.7-0.6-2.5-0.9"/>
			<path class="st0" d="M182.9,210.8"/>
			<path class="st0" d="M195.1,208.1"/>
			<path class="st0" d="M195.3,201.6"/>
			<path class="st0" d="M195.5,161"/>
			<path class="st0" d="M195.4,154.2"/>
			<path class="st0" d="M189.1,151.5"/>
			<path class="st0" d="M180.8,151.7"/>
			<path class="st0" d="M56.1,40.1c14.3,6.8,28.8,13.4,43.2,20.2c1.8-1.7,6.8-4.2,6.8-4.2c-15.6-7.1-32-14.9-47.5-22
				C57.1,35.7,56.2,37.9,56.1,40.1z"/>
			<path class="st0" d="M125.9,44.6v-3.1c-2.8-0.8-5.7-1.1-8.6-0.8C120.3,41.8,123,43.2,125.9,44.6z"/>
			<path class="st0" d="M126.2,44.8c1.5,0.6,2.9,1.2,4.3,2c1.1,0.5,3.6,1.1,4.1,2.3s-0.2,3.3,0.1,5.3c2.8-0.8,5.9-1.4,8.7-2.2
				c0.9-0.4,1.9-0.6,2.9-0.7c0.7,0.2,1.4,0.5,2,0.8c2,0.9,3.9,1.9,5.7,2.8c0.2,0.3,0,1,0.1,1.5c0.9,0,1.5-0.6,2.3-0.5
				c0.8,0.1,1.5,1.1,2.1,0.7c-2.5-1.5-5.2-2.8-7.9-3.8c-8-3.7-16.3-7.8-24.3-11.3L126.2,44.8z"/>
			<path class="st0" d="M128.1,48.1c-4.1,0.5-8.2,1.6-12,3.2c-3.6,1.4-7,3-10.3,5c0,8.8,0,17.6-0.1,26.2c9.6-2,18.9-4.3,28.1-6.8
				c0-9,0.2-17.8,0.1-26.8C132.5,48.1,130.1,48.1,128.1,48.1z"/>
			<path class="st0" d="M55.9,57.6c8.6,3.9,17,8,25.7,11.9c0.1-0.4-0.2-1.2,0.2-1.2c1.2,0.8,2.9,1.2,4.1,2.1
				c-0.5,1.4,0.7,1.2,0.9,1.9c0.1,1.1,0,2.3-0.1,3.4v10.7c0.7-0.1,1.3-0.2,2-0.3V69.5c-11-5-21.8-10.2-32.7-15.2V57.6z"/>
			<path class="st0" d="M139.1,55c-1.4,0.4-3,0.8-4.5,1.1c0,1.2-0.2,2.3-0.1,3.5c3.1-0.9,6.4-1.5,9.4-2.5
				C142.3,56.5,140.7,55.7,139.1,55z"/>
			<path class="st0" d="M134.5,60.6v15.1c3.6-1,7.1-2,10.6-3c0.1-4.5-0.1-9.3,0.1-13.6c2.5-1,5.8-1.3,8.3-2.5
				c-0.2-0.4,0.4-0.8-0.1-0.8C147.2,57.4,140.9,59,134.5,60.6z"/>
			<path class="st0" d="M159.1,57.8c-0.8-0.4-2.5-1.4-3.1-1.2c-2.9,0.9-6.2,1.5-9.6,2.5c3.5,2,7.4,3.6,11.2,5.3
				c3.4-0.7,6.5-1.7,9.8-2.4C164.9,60.3,161.9,59.1,159.1,57.8z"/>
			<path class="st0" d="M145.5,72.6c4-1.1,7.7-2.5,11.6-3.7v-3.8c-3.8-1.7-7.6-3.6-11.4-5.3C145.6,64.1,145.6,68.4,145.5,72.6z"/>
			<path class="st0" d="M62.7,61c-4.4,2.9-7.4,7.3-8.3,13.6c0.5-0.1,1.1-0.2,1.6-0.4c0.8-5.1,3.7-9.7,8-12.7
				C63.5,61.4,63.1,61.2,62.7,61z"/>
			<path class="st0" d="M157.9,65.2v3.3c3.6-1.2,7-2.6,10.3-4.4v-1.5H168C164.8,63.5,161.3,64.2,157.9,65.2z"/>
			<path class="st0" d="M66.7,62.9c-3.7,2.4-6.4,6.2-7.6,10.5c0.6,0,1-0.3,1.6-0.3c1.4-3.9,3.9-7.2,7.3-9.7
				C67.4,63.4,67.2,63,66.7,62.9z"/>
			<path class="st0" d="M66,129.2c5,0.9,10.2,0.1,15-0.5c4.8-0.6,9.6-1.4,14.2-2.3c17.8-3.3,35.4-7.6,52.6-12.9
				c6.2-1.8,12.2-4,18.1-6.6c1.6-0.7,4.6-2,5-3.2s0-3.3,0-5.1s0-3.7,0-5.2c0.2-9.1,0-20.4,0.2-30.4c0-0.1,0-0.1-0.1-0.1
				c-2.4,2.5-7.2,4.1-11.1,5.5c-12.4,4.5-25,8.2-37.9,11.1c-13.5,3.4-27.1,6.1-40.9,8.1c-4.8,0.6-9.9,1.4-15,0.5"/>
			<path class="st0" d="M71.9,70.2c0.5-0.2,1-0.3,1.5-0.4c-0.1-1.4,0.1-2.6,0.1-3.8c-0.5-0.3-1.1-0.5-1.7-0.7
				C71.7,66.9,71.7,68.6,71.9,70.2z"/>
			<path class="st0" d="M69.9,66c-2.4,1.5-4.4,3.6-5.6,6.1l5.8-1.5C69.9,69.2,70.3,67.1,69.9,66z"/>
			<path class="st0" d="M73.6,67.9c0.8-0.1,1.6-0.4,2.4-0.7c-0.9-0.3-1.5-0.7-2.4-1V67.9z"/>
			<path class="st0" d="M77.3,68.8c0.3,0.1,0.3-0.2,0.6-0.1v-0.6c-0.3,0-0.3-0.2-0.6-0.2V68.8z"/>
			<path class="st0" d="M78.8,68.8c-10.1,2.9-22.2,5.4-32.7,8.2l3.3,1.7c1.1,0.6,2.3,1.1,3.4,1.6l4.3-1c1.4-0.3,2.8-0.7,4.2-1.1
				c-1.7-0.7-3.4-1.5-5-2.4c7.9-2.3,16.4-4.1,24.3-6.3C80,69,79.4,68.6,78.8,68.8z"/>
			<path class="st0" d="M85.5,71.2v-0.5c-0.9,0-1.8-0.2-2.7-0.5C82.9,71.3,84.7,71.2,85.5,71.2z"/>
			<path class="st0" d="M78.1,74.8c0.1,2.5-0.1,4.2-0.1,6.8c2.8-0.7,5.5-1.5,8.4-2.1c0-2.3,0-4.6,0.1-6.8h-0.2
				C83.6,73.5,80.8,74.2,78.1,74.8z"/>
			<path class="st0" d="M59.1,126.4c0.1-13.9,0.1-27.3,0.2-40.9c-2.5-1.2-5-2.4-7.6-3.5v0.3c0.1,13.9-0.2,26.8-0.1,40.7"/>
			<path class="st0" d="M78,85.3c-3.3,0.9-6.7,1.7-10,2.6c3.4,0.2,6.8,0.1,10.1-0.4C78.1,86.8,78.1,86.1,78,85.3z"/>
			<path class="st0" d="M65.7,129c-0.1-13.7,0.2-27.2,0.1-40.9c-1.7-0.9-3.5-1.7-5.3-2.5V86c0,13.6-0.2,27-0.1,40.7"/>
			<path class="st0" d="M157.8,110.5c0,8.2,0,16.6-0.1,24.6l5.2,2.6l-0.1,1.9c0,0-3.9,1.3-4.1,1.4c0.4,0.1,0.4-0.2,0.8-0.1
				c0,0.3-0.1,0.8,0.1,0.9c2.8,1.2,5.4,2.6,8.2,3.7c0-13,0.2-26.5,0.1-39.3C164.6,108,161.3,109.4,157.8,110.5z"/>
			<path class="st0" d="M135.2,117.5v7.2c6.6,3.2,13.7,6.4,20.3,9.5c0.4,0.2,0.8,0.6,1.2,0.4c0-7.8,0.1-15.7,0.1-23.6h-0.2
				C149.7,113.4,142.5,115.5,135.2,117.5z"/>
			<path class="st0" d="M133.2,118c-3.7,1-7.6,2-11.4,2.9c0.1,0.5-0.1,1.2,0.1,1.4c2-0.2,3.7-1.6,5.6-1.2c1,0.3,2,0.8,2.9,1.4
				l2.9,1.4C133.2,121.9,133.4,119.7,133.2,118z"/>
			<path class="st0" d="M120.5,121.2v1.4c0.2,0.2,0.6,0.1,0.9,0.1v-1.6C121.1,121.1,121,121.3,120.5,121.2z"/>
			<path class="st0" d="M120,121.3c-2.7,0.7-5.6,1.4-8.4,2c0,0.5-0.4,1-0.2,1.4c1.4,0.3,2.8-0.5,4.3-0.8c1.4-0.4,3.1-0.7,4.6-1
				C120.1,122.3,120.4,121.4,120,121.3z"/>
			<path class="st0" d="M127.4,121.4c-1.9-0.3-3.7,1-5.6,1.2c0.1,0.8-0.1,1.3-0.5,1.6c-0.2,0.4,0,1-0.1,1.4c-0.5-0.3-1,0.1-1.1-0.5
				c0.3-0.3,0.8,0.2,0.8-0.2c0.2-1-0.9-0.7-0.6-1.8c-3.1,0.6-6,1.5-9,2.2c-0.2,0.4-0.1,1.1-0.5,1.2c-0.5,0-0.2-0.9-0.6-0.9
				c-10.5,2.7-21.1,5.4-31.7,8c-0.1,1.2,0,2.5,0.1,3.7c3.4-1,6.9-1.7,10.3-2.7c-0.2-0.2-0.7,0-0.6-0.5c0.9-0.8,1.7,0,2.7,0
				c1-0.1,1.9-0.3,2.8-0.6c6.4-1.6,13.2-3.4,19.1-5c-0.3-0.1-0.7,0-0.6-0.5c1.1-0.8,1.8,0,2.7,0.1c1.1,0.1,2.9-0.8,4.3-1.2
				c4.5-1.2,9.2-2.1,13.2-3.3C130.5,123.3,129.1,121.7,127.4,121.4z"/>
			<path class="st0" d="M108.4,124c-2.6,0.3-5.6,1.3-8.2,1.8c1.2,0,2.3,0.1,3.4,0.3c0.4,0.1,0.7,0.5,1.1,0.5
				c0.9-0.1,1.8-0.4,2.7-0.7c0.9-0.2,1.8-0.3,2.7-0.6c-0.1-0.3-0.2-0.7-0.3-1C109.4,123.8,109,124,108.4,124z"/>
			<path class="st0" d="M132.6,123.9"/>
			<path class="st0" d="M135.7,125.3"/>
			<path class="st0" d="M126.7,125.7c-16.1,4.1-32.1,8.2-48.3,12.2c7.5,3.9,15.5,7.3,23.2,10.9c16.1-4.2,32.5-8.1,48.5-12.4
				C142.3,132.9,134.7,129.1,126.7,125.7z"/>
			<path class="st0" d="M99.8,125.9c-4.3,0.5-8.5,2-12.8,2.9c0.8,0.7,2.1,0.9,2.9,1.6c3.7-0.9,7.2-1.8,10.8-2.7
				C100.8,127,100.4,126.3,99.8,125.9z"/>
			<path class="st0" d="M101.5,127.5c0.8-0.2,1.7-0.4,2.5-0.7c-0.8-0.3-1.6-0.4-2.5-0.4V127.5z"/>
			<path class="st0" d="M83.1,128.8c2.2,0.5,4.1,2.9,6.4,1.6C87.3,129.8,85.7,127.7,83.1,128.8z"/>
			<path class="st0" d="M80.8,129.3c0.2,0.6,1.1,1,1.9,1.4c1.6,0.8,2.9,1.2,4.6,0.3C85.3,130.5,82.8,127.9,80.8,129.3z"/>
			<path class="st0" d="M67.6,129.9c0,23.1-0.1,46-0.3,69c2.8-0.7,5.5-1.4,8.4-2.1c-0.1-11.7,0.2-23.1,0.1-34.7
				c0.6-0.3,1.5-0.1,1.9-0.6c0-10,0.3-20.6,0.2-30.4c0-0.4,0.3-1.2-0.3-1.6C74.2,129.9,70.9,130,67.6,129.9z"/>
			<path class="st0" d="M78.3,131.1v2.2c2.1-0.5,4.2-1,6.1-1.6C82.6,130.5,80.3,130.2,78.3,131.1z"/>
			<path class="st0" d="M44.6,131.9c-4.3,1.2-8.9,2.1-13.1,3.4c0.8-0.1,0.7,0.7,1,1c0.7-0.1,1.4,0,2.1,0.3c0.2,0.2,0.2,0.7,0.3,0.9
				c3.3,1.4,6.5,3,9.7,4.5"/>
			<path class="st0" d="M26.9,134.7c0.6,0.2,2,0.5,2.3-0.2C28.5,134.4,27.2,134.1,26.9,134.7z"/>
			<path class="st0" d="M100.7,153.3c1.6-0.2,3.1-0.5,4.6-1c19-4.7,38.8-9.8,57.1-14.6"/>
			<path class="st0" d="M157.7,135.3c0.2-0.2-0.5,0-0.6,0.1c-5.1,1.4-12.1,3-17.3,4.5c0.3,0.1,0.7,0.1,0.7,0.4c-0.8,0.6-2,0.6-2.8,0
				c-7.2,1.9-14.5,3.8-21.8,5.5c0,0.5,0.7,0.1,0.6,0.6c-1,0.9-1.9,0-2.8,0c-1.5,0.2-3,0.5-4.4,1c-4.4,1.1-9.5,2.4-13.5,3.5"/>
			<path class="st0" d="M27.2,136.8c-0.2,0.2-0.3,0-0.5,0v1c0.7,0.4,1.5,0.4,2.2,0.2c0-0.9,0-1.7,0.1-2.6c-0.6,0-0.2,1.1-0.3,1.6
				c-0.2-0.1-0.8,0.1-0.8-0.1v-1.4c-0.4,0.1-0.4-0.1-0.7-0.1C27.1,135.9,27.1,136.4,27.2,136.8z"/>
			<path class="st0" d="M29.4,135.9c0.6,0.2,2,0.4,2.4-0.1C31.3,135.5,29.7,135.3,29.4,135.9z"/>
			<path class="st0" d="M21,138c4.2,2,9.3,4.3,13.9,6.4c1.1,0.5,3.5,2.1,4.7,2.2c0.9-0.1,1.8-0.3,2.6-0.6c0.8-0.1,1.7-0.4,2.4-0.9
				c-0.1-0.2,0.1-0.7-0.1-0.7c-1,0.3-2.1,0.6-3.1,0.8c-2.3,0.2-3.9-1-5.6-1.8c-2.5-1.1-4.9-2.4-7.2-3.4c-1.3-0.6-2.8-0.9-3.4-2
				c0.3-0.4,1.9-0.6,1-1.4C24.4,137.1,22.6,137.4,21,138z"/>
			<path class="st0" d="M31.1,136.7v1.5c-0.4-0.1-0.7,0.2-0.8,0v-1.5h-0.6v1.2c-0.2,0.2-0.3,0-0.5,0v1.1c0.7,0.2,1.4,0.3,2.2,0.2
				c-0.2-1,0.2-2.5,0.1-2.7C31.4,136.7,31.3,136.7,31.1,136.7z"/>
			<path class="st0" d="M32,137.1c0.8,0.1,1.8,0.4,2.3-0.2C33.8,136.7,32.2,136.4,32,137.1z"/>
			<path class="st0" d="M34.1,137.8c0,0.1-0.2,0.1-0.3,0.1c-0.3,0.4,0,1.2-0.1,1.6c-0.3,0-0.7,0-0.8-0.1c-0.1-0.6,0.3-1.7-0.6-1.5
				v1.4c-0.2,0-0.4,0-0.5-0.1v1.1c0.9,0.5,1.9,0.5,2.8,0.1C34.5,139.4,34.3,138.6,34.1,137.8z"/>
			<path class="st0" d="M78.3,142.4c6,2.6,11.7,5.5,17.7,8.1c1.6-0.5,3.5-0.8,5-1.4c-0.5-0.6-1.5,0.7-2-0.2
				c-0.1-0.4,0.5-0.2,0.6-0.4c-0.6-0.2-1.1-0.5-1.7-0.7c0.1,0.7-1.2,0.5-1.2,0.1s0.5-0.2,0.6-0.4c-1-0.1-1.6-1.1-2.6-1.1
				c-1-0.1-2.1,0.8-2.6-0.4c0.2-0.3,0.8-0.1,1-0.4c-1.5-0.5-2.8-1.2-4.2-1.9c0.1,0.6-1.2,0.6-1.2,0.1c0-0.5,0.5-0.2,0.6-0.4
				c-1.5-0.3-2.4-1.6-3.9-1.7c-1,0-2.1,0.7-2.6-0.4c0.3-0.2,0.8-0.2,1.1-0.4c-1.1-0.4-2-0.9-3-1.4c-0.1,0.5-1.2,0.6-1.2,0
				c0-0.3,0.6-0.1,0.7-0.3c-0.6,0-0.8-0.4-1.2-0.5L78.3,142.4z"/>
			<path class="st0" d="M28.4,139.7v-0.6c-0.5,0.1-1.2-0.2-1.2,0.1"/>
			<path class="st0" d="M30.9,140.9v-0.7c-0.5,0.2-0.8-0.2-1.2,0.1"/>
			<path class="st0" d="M158.4,143.5c-0.1-0.7,0.1-2.3-0.1-2.5C158.3,141.7,158.1,143.3,158.4,143.5z"/>
			<path class="st0" d="M156.1,144.2c0.7-0.2,1.4-0.3,2-0.5c-0.1-0.8,0.3-2.2-0.2-2.7c-0.6,0.1-1.2,0.3-1.8,0.5"/>
			<path class="st0" d="M33.8,141.6c0.4,0.9,3.1,0.9,3.7,0.1C36.7,140.9,34.6,141.1,33.8,141.6z"/>
			<path class="st0" d="M33.4,142c0-0.2,0-0.4,0.1-0.5c-0.4-0.1-0.9-0.1-1.4,0"/>
			<path class="st0" d="M155.7,141.6c-16.2,3.9-32.7,8.3-49.1,12.3v2.8c16.4-4.1,32.7-8.3,49.1-12.4V141.6z"/>
			<path class="st0" d="M154,151.9c4.6,2.1,9.7,4.5,14.3,6.7c5.8-1.5,11.7-2.9,17.4-4.5"/>
			<path class="st0" d="M158.7,141.7c-0.2,1.7,0.7,2.1,0.4,3.9c-0.4,0.2,0.3-1.7,0,0c-0.4,0.2-1,0.2-1.5,0.4"/>
			<path class="st0" d="M36.3,143c0.9,0.6,3.1,0.8,3.7-0.1C39.2,142.2,36.9,142.1,36.3,143z"/>
			<path class="st0" d="M36,143.2c-0.3,0,0-0.4,0-0.4c-0.3,0.1-0.8-0.1-0.9,0.1"/>
			<path class="st0" d="M38.8,144.1c0.7,0.7,2.8,0.6,3.7,0.1C42.1,143.3,39.3,143.4,38.8,144.1z"/>
			<path class="st0" d="M78.3,146c8.2,3.7,16.2,7.5,24.3,11.2c0.1-0.8,0-1.5-0.1-2.3c-1.6,0.4-2.7-0.3-4.2-1
				c-6.7-3.2-13.5-6.4-20.1-9.4L78.3,146z"/>
			<path class="st0" d="M39.2,154.2v-7.1"/>
			<path class="st0" d="M36.9,154.2"/>
			<path class="st0" d="M103.9,159.5c-0.1,1.7,0,3.4,0.1,5.1c4.6-1.3,9.5-2.5,14.1-3.7c0,0,11.2,5.8,11.8,5.8c1.4-0.2,2.7-0.6,4.1-1
				c4.3-1.1,8.4-2.1,12.4-3.2c-0.7-1.2-3.5-7.8-3.5-7.8c4.8-1.2,9.6-2.5,14.5-3.7c0.1-1.7,0-3.3-0.1-5
				C139.4,150.6,121.7,155.1,103.9,159.5z"/>
			<path class="st0" d="M43.1,146.5c0.2,0.5,1,0.5,1.5,0.8C44.8,145.8,44,146.3,43.1,146.5z"/>
			<path class="st0" d="M78.3,147.8c8.4,3.8,16.6,7.8,25,11.5v-1.2c-8.1-4.1-16.7-7.8-25-11.7V147.8z"/>
			<path class="st0" d="M42.4,154.5c0.7,0.1,1.5,0.2,2.2,0.4v-6.9c-0.8-0.3-1.4-0.7-2.2-0.9V154.5z"/>
			<path class="st0" d="M27.2,152.7c0.8-0.2,2.1-0.1,2.4,0.5c0,1,0,1.9-0.1,2.9c1.8-1,3.9-1.6,5.9-1.9c-2.8-1.2-5.5-2.6-8.3-3.9
				C27,151.2,27.1,152,27.2,152.7z"/>
			<path class="st0" d="M96.1,152.5c1.6,0.6,3,1.5,4.7,2.1v-1.2c-1.6-0.6-3-1.5-4.7-2.1L96.1,152.5z"/>
			<path class="st0" d="M188.9,154.6c-0.3-0.7-1.1-1.1-1.9-0.8c0,0.4-0.6,1.1-0.6,1.8"/>
			<path class="st0" d="M188.5,155.3c0,0.2-1.4,0.5-2.1,0.6c-0.1,0.7,0,1.3,0.1,2c1.8-0.1,3.5-0.3,5.2-0.7c1.4-0.4,4.5-1.6,3.1-3.3
				c-1.8-2.3-9.6-2.7-13.4-1.9c1,0.4,1.9,0.8,2.8,1.2c-0.1-1.2,2.1-1.1,2.8-0.6c0.1,0.3,0.1,0.6,0.1,0.8
				C188.2,153.4,189.9,154.6,188.5,155.3z"/>
			<path class="st0" d="M186.9,153c-0.4,0.6-2.1,0.2-2.4,0.1C184.9,153.5,186.9,153.5,186.9,153z"/>
			<path class="st0" d="M27.1,153.2c-0.1,0,0,0.1,0,0.2c0.4,0.1,1.7,0.3,1.8-0.2C28.3,153,27.7,153,27.1,153.2z"/>
			<path class="st0" d="M122.2,171l-11.4-5.3c-1.1-0.7-2.4-1.2-3.7-1.6c-1.2,0-2.5,1-3.7,0.8c-1.1-0.4-2.1-0.9-3.1-1.5
				c-7.4-3.4-15.5-7.1-22.4-10.3"/>
			<path class="st0" d="M75.9,162c7.6,3.5,16.8,7.7,24.6,11.4c1.1,0.5,3.8,2.1,3.8,2.1"/>
			<path class="st0" d="M104.2,154.5v2.8c0.7-0.1,1.2-0.3,1.9-0.4v-2.8C105.4,154.2,104.8,154.4,104.2,154.5z"/>
			<path class="st0" d="M36.6,154.5c-2.1,0.1-7.4,1-7.4,3.1c0,1.5,2.6,2.2,3.8,2.5c3.8,0.9,7.7,0.9,11.4,0c0-1.7,0.2-3.1,0.1-4.9
				C42,154.5,39.3,154.3,36.6,154.5z"/>
			<path class="st0" d="M102.9,154.8c0,0.8,0,1.6-0.1,2.5c0.2,0.2,0.7,0.1,1,0.1C103.7,156.4,104.4,154,102.9,154.8z"/>
			<path class="st0" d="M158.1,162.1c0.8,2,3.6,7.5,3.6,7.5c-11.1,2.5-22.6,5.7-33.6,8.4c1.4-3.1,2.9-6.2,4.2-9.5
				c-9.2,2.1-18.7,4.8-28.1,7c-0.1,11.4,0,23-0.2,34.4c27.4-6.8,54.7-13.7,82-20.7c0.1-11.3,0-22.9,0.2-34.2
				C177,157.1,167.1,159.5,158.1,162.1z"/>
			<path class="st0" d="M27.2,155.6c-0.3-0.2-0.3,0,0,0.1c0.7,0.1,2.1-0.1,1.9-0.2C28.4,155.6,27.8,155.6,27.2,155.6z"/>
			<path class="st0" d="M20.8,156.9c2.7,1.2,5.3,2.5,7.9,3.7c0.1-0.9,0.1-1.8,0.1-2.6c-1.2,0-2.7,0.2-2.9-0.7
				c-0.2-0.9,0.5-0.7,0.5-1.7C24.6,155.8,22.7,156.3,20.8,156.9z"/>
			<path class="st0" d="M26.8,156.6c0.8,0.3,1.6,0.2,2.4-0.1c-0.1-0.2,0.1-0.7-0.1-0.7c-0.8,0.3-1.6,0.3-2.4,0
				C26.6,156.1,26.7,156.3,26.8,156.6z"/>
			<path class="st0" d="M146.3,162.5c5.1,2.1,10.1,4.9,15.1,6.8c-1.2-2-2.2-5.1-3.3-7.2c-5-2.2-10-4.9-15-7.1L146.3,162.5z"/>
			<path class="st0" d="M175.9,191.8c-0.1,1.3,0,2.7,0.2,4c0.7,2.2,4.5,2.1,6.9,2.7v12.1c2.3,0.2,4.6,0.1,6.9-0.3
				c1.8-0.3,4.5-0.9,5-2.4s0.1-4.4,0.1-6.3c0-15.3,0.3-31.4,0.1-46.1"/>
			<path class="st0" d="M186.2,189.6"/>
			<path class="st0" d="M186.3,157.9"/>
			<path class="st0" d="M29.1,158.6c0.1,14.5-0.2,30.7-0.2,45.6c0,1.9-0.4,5.1,0.1,6.6c0.4,1.2,2.5,1.7,3.8,2.1
				c1.7,0.5,3.4,0.7,5.2,0.6c0-0.1-0.1-7.8-0.1-7.8c13,5.9,25.7,12.1,38.7,17.9"/>
			<path class="st0" d="M48.2,190.9c-1.4-0.5-2.7-1.2-3.8-2.1c0-9.5,0.2-18.8,0.1-28.4"/>
			<path class="st0" d="M47.7,199"/>
			<path class="st0" d="M43.6,201"/>
			<path class="st0" d="M38.2,201.6"/>
			<path class="st0" d="M37.9,201.8"/>
			<path class="st0" d="M28.8,164.5c-0.2-1,0.6-3.1-0.7-3C27.2,162.4,28.1,164.8,28.8,164.5z"/>
			<path class="st0" d="M27.8,171.1c0.3,0,0.6-0.1,0.9-0.2v-4.8c-0.3-0.1-0.6-0.2-0.9-0.4V171.1z"/>
			<path class="st0" d="M27.8,171.4v1.2c0.3,0.2,0.6,0.4,0.9,0.5C28.7,172.1,29.1,170.6,27.8,171.4z"/>
			<path class="st0" d="M80,177.9c-1.2,0.4-3,1-2.9,2.4c0.1,1.4,2.3,2.1,3.7,2.5c3.7,0.9,7.6,0.9,11.3,0c1.4-0.4,3.8-1.1,3.7-2.6
				c-0.1-1.5-3.3-2.4-4.5-2.6c-2.2-0.4-4.4-0.6-6.7-0.4C83.1,177.2,81.6,177.5,80,177.9z"/>
			<path class="st0" d="M77.1,180.8C77.1,180.7,77,180.7,77.1,180.8c0,14.5-0.3,30.9-0.3,45.5l0.1,6.6c0.4,1.1,2.5,1.8,3.8,2.2
				c4.9,1.2,12.6,0.9,14.9-2.2c0-5.9,0.2-10.9,0.2-16.5c0-11.9,0.1-23.7,0.1-35.5"/>
			<path class="st0" d="M48.2,193.4c1.1-0.2,2.1-0.5,3.1-0.9c-1-0.7-2-1.2-3.1-1.6L48.2,193.4z"/>
			<path class="st0" d="M51,193c-0.9,0.3-1.9,0.6-2.8,0.7v1.4c1.1-0.1,2-0.5,3-0.7C51.1,194,51.5,193.1,51,193z"/>
			<path class="st0" d="M162.3,199c1.2-0.2,2.3-0.4,3.4-0.8c2.6-0.7,4.2-1.1,6.9-1.8c1-0.2,3-0.6,3.1-1c0.5-1.4-2.9-1.6-3.3-2.3
				c-4.2,1-8.3,2-12.4,3.1v1.8C160.5,198,161.5,199,162.3,199z"/>
			<path class="st0" d="M58.7,196.8c-2.9-0.4-5.5-1-7.1-2.7c0-0.1-0.1-0.1-0.1,0.1c0.2,1.7,2.4,2.6,4.2,3.1c2.6,0.7,5.4,0.9,8.1,0.7
				C62.5,197.2,60.7,197.1,58.7,196.8z"/>
			<path class="st0" d="M50.9,195.4c-0.7-0.3-1.9,0.7-2.6,0.7c2.3,0.7,4.6,3.1,7.4,1.6C54.2,197.2,52.4,196.1,50.9,195.4z"/>
			<path class="st0" d="M175.7,195.9c-5.1,1.4-10.5,2.6-15.7,4.1c0.1,0.5-0.1,1.2,0.1,1.5c5.5-1.5,11.1-2.9,16.7-4.3
				C176.5,196.7,176.1,196.3,175.7,195.9z"/>
			<path class="st0" d="M48.1,198c0.6,0,1.1-0.2,1.7-0.4c-0.6-0.1-1-0.5-1.7-0.6V198z"/>
			<path class="st0" d="M73.8,197.9c1.1,0.3,1.9,0.9,2.9,1.2v-1.2C75.8,197.3,74.7,197.3,73.8,197.9z"/>
			<path class="st0" d="M128.1,227.4"/>
			<path class="st0" d="M157.7,219.8l0.4-22.4c-9.8,2.5-20.4,5.2-30.3,7.6"/>
			<path class="st0" d="M56.3,198.4c-1,0.3-2.2,0.5-3.2,0.8c-1.4-1.1-3.4-1.3-5-0.5c-0.8,1.7-2.9,2.1-4.9,2.7
				c1.1,0.1,1.9,1.2,3.1,1.4c1.3-0.2,2.6-0.5,3.8-0.9c3.2-0.8,6.5-1.7,9.6-2.5c0.6-0.1,1.5-0.1,1.8-0.7c-1.6-0.4-3.7-0.4-5.2-0.8
				L56.3,198.4z"/>
			<path class="st0" d="M73.1,197.9c-0.7,0.4-2,0.3-2.6,0.8c2.1,0.9,4.1,2,6.2,2.8v-2C75.5,199,74.3,198.4,73.1,197.9z"/>
			<path class="st0" d="M76.9,202.5c-1.2-0.5-2.5-1.3-3.8-1.9c-1.2-0.7-2.5-1.3-3.8-1.7c-0.8,0-1.7,0.6-2.5,0.5
				c-0.8-0.1-1.4-0.8-2.2-0.9c-0.9-0.1-1.8-0.1-2.7,0.2v0.2c4.9,2.3,10.1,4.8,15.1,7"/>
			<path class="st0" d="M183,199.1c-7.7,2.1-15.9,4-23.7,6v3.5c7.9-1.9,15.9-4,23.8-5.9"/>
			<path class="st0" d="M76.6,206.3"/>
			<path class="st0" d="M76.6,217.2c-9.5-4.4-20.1-9.2-30-13.8c-2.6-1.2-4.5-2.5-7.6-1.4c12.6,5.7,25,11.6,37.5,17.4"/>
			<path class="st0" d="M127.5,227.2c0-7.4,0-15.1,0.1-22.3c0,0-8.3,1.8-12.6,2.6v6.4c1.6,0,3.1,0.1,4.7,0.3v5l-4.7,0.9l-0.1,6.1"/>
			<path class="st0" d="M110.2,208.8c-2.1,0.5-4.5,1.1-6.6,1.7c-2.5-1.2-5.2-2.5-7.7-3.6"/>
			<path class="st0" d="M110.2,208.8v2.7c1.5,0.6,2.9,1.3,4.4,2c-0.1-1.9,0.1-4.1-0.1-5.8C113.1,208.1,111.6,208.4,110.2,208.8z"/>
			<path class="st0" d="M37.9,208.9v1.4c1.8-0.4,4.1-1,5.8-1.5C42.2,207.6,39.8,208.5,37.9,208.9z"/>
			<path class="st0" d="M106.6,213.4c-3.4-1.4-7.3-3.5-10.6-4.9"/>
			<path class="st0" d="M38,212v0.9c2.4-0.5,6.6-1.6,8.9-2.1v-0.8C44.7,210.4,40.3,211.8,38,212z"/>
			<path class="st0" d="M102.5,214.4c-2-0.8-4.6-2.1-6.6-3"/>
			<path class="st0" d="M96.2,214.9"/>
			<path class="st0" d="M111.5,212.2c-4.2,1.2-11.2,2.7-15.6,3.9v1.4c5.5-1.5,12.2-2.8,17.6-4.5"/>
			<path class="st0" d="M115.1,214c-6.1,1.6-13.2,3.4-19.2,4.9v1.4c7.7-1.9,16.3-3.9,23.8-6"/>
			<path class="st0" d="M65.8,88.2L21.5,66.6c0,0-1.1-0.6,0.3-2.5"/>
			<line class="st0" x1="52.9" y1="80.2" x2="86.6" y2="72.1"/>
			<polyline class="st0" points="44.7,148.2 44.7,119.8 66.2,129.3 			"/>
			<line class="st0" x1="132.4" y1="168.4" x2="118.1" y2="161"/>
			<polyline class="st0" points="99.3,60.3 99.3,84 88.7,86 88.7,69.5 55.9,54.3 55.8,50.6 			"/>
			<line class="st0" x1="186.4" y1="154.6" x2="168.3" y2="145.8"/>
			<line class="st0" x1="109.8" y1="221.7" x2="115.1" y2="220.3"/>
			<g>
				<path class="st0" d="M85,179.8c-2.4,0.5,0.4,0.8,1.3,0.8c1.2,0,2.3-0.2,2.3-0.5c0-0.3-1-0.4-1-0.4"/>
				<ellipse class="st0" cx="86.3" cy="177.9" rx="2" ry="0.5"/>
				<line class="st0" x1="85.3" y1="180.5" x2="84.3" y2="177.9"/>
				<line class="st0" x1="88.3" y1="177.9" x2="87.4" y2="180.5"/>
			</g>
			<g>
				<path class="st0" d="M37,157.7c-2.4,0.5,0.4,0.8,1.3,0.8c1.2,0,2.3-0.2,2.3-0.5s-0.9-0.4-0.9-0.4"/>
				<ellipse class="st0" cx="38.3" cy="155.8" rx="2" ry="0.5"/>
				<line class="st0" x1="37.3" y1="158.4" x2="36.4" y2="155.8"/>
				<line class="st0" x1="40.3" y1="155.8" x2="39.4" y2="158.4"/>
			</g>
			<g>
				<line class="st0" x1="127.2" y1="125.8" x2="149.9" y2="136.3"/>
				<path class="st0" d="M128,126.1c0.5-0.5,1.2-0.7,1.9-0.4c0.6,0.3-0.2,1.2-0.2,1.2"/>
				<path class="st0" d="M130.5,127.2c0.5-0.5,1.2-0.7,1.9-0.4c0.6,0.3-0.2,1.2-0.2,1.2"/>
				<path class="st0" d="M147.2,134.8c0.3-0.3,0.8-0.5,1.2-0.3c0.4,0.2-0.1,0.8-0.1,0.8"/>
				<path class="st0" d="M148.8,135.6c0.3-0.3,0.8-0.5,1.2-0.3c0.4,0.2-0.1,0.8-0.1,0.8"/>
				<path class="st0" d="M134.9,129.3c0.6-0.7,1.6-0.9,2.5-0.5c0.8,0.4-0.3,1.6-0.3,1.6"/>
				<path class="st0" d="M144.3,133.6c0.6-0.7,1.6-0.9,2.5-0.5c0.8,0.4-0.2,1.5-0.2,1.5"/>
				<path class="st0" d="M140.4,131.7c0.4-0.5,1.1-0.6,1.6-0.3c0.5,0.3-0.1,1-0.1,1"/>
			</g>
		</g>
	</g>
</g>
</svg>
