<svg xmlns="http://www.w3.org/2000/svg" viewBox="0 0 215 260"><defs><style>.cls-1{fill:none;stroke:#dcdbdb;stroke-width:1.27px;}</style></defs><title>machine_</title><g id="Linework"><polyline class="cls-1" points="115.06 187.65 128.91 188.4 128.86 187.24"/><line class="cls-1" x1="150.33" y1="187.37" x2="158.21" y2="187.62"/><line class="cls-1" x1="140.24" y1="186.84" x2="150.79" y2="187.3"/><path class="cls-1" d="M150.94,189.68a25.41,25.41,0,0,0,6.11-2"/><path class="cls-1" d="M148.39,189.55a7.26,7.26,0,0,1,6.18-3.21"/><line class="cls-1" x1="79.97" y1="193.54" x2="79.52" y2="233.07"/><path class="cls-1" d="M48.92,225.19s-2.63.34-2.94.47-1.23.54.08.65,4.76.2,5.68.16a8.79,8.79,0,0,0,1.84-.28"/><path class="cls-1" d="M45.45,226.14l-.12,4s-.31.53.9.62a27.26,27.26,0,0,0,5.88-.08c1.66-.33,1.84-.17,1.89-1.22s.08-3.13.08-3.13"/><path class="cls-1" d="M48.91,224.8l.07.95s-.15.55.37.54,1.19.28,1.2-.61a3,3,0,0,0,0-.4"/><path class="cls-1" d="M77.88,240.87s1.27.93,5,.61,4.86-.49,5.38-1"/><path class="cls-1" d="M77.92,233l0,7.92s-.22.86.93,1a22.41,22.41,0,0,0,6.75.1c2.68-.53,2.68-.74,2.71-2.18s0-7.31,0-7.31"/><path class="cls-1" d="M131.25,233.75s.13.35,2.58.48,5.7.21,6.75-.48"/><path class="cls-1" d="M131.14,227.47l.11,6.28s-.24.61.77.84,5.13.85,6.18.6,2.41-.26,2.41-1.07-.1-7.75-.1-7.75"/><path class="cls-1" d="M149.5,190.78a10.22,10.22,0,0,1,.07,1.45c0,.81.56,25,.56,25l.2,8"/><path class="cls-1" d="M136,187l.09,4.12s.06.5-1.94.17l-.12-4.18"/><line class="cls-1" x1="134.1" y1="190.94" x2="128.91" y2="191.35"/><polyline class="cls-1" points="136.11 190.84 140.94 191.25 134.56 191.57 128.91 191.35 129 192.46 134.52 192.88 140.85 192.54 140.94 191.25"/><path class="cls-1" d="M85.51,190.87l10.2-.41s11.19-.22,14-.06,17.57,1.13,17.57,1.13l1.65.09"/><path class="cls-1" d="M82.53,189.21a6.5,6.5,0,0,0,2.21,0"/><path class="cls-1" d="M84.68,188.48s-.31.48-.05.63.55-.06.69.18a1.77,1.77,0,0,1,.14.92,1.62,1.62,0,0,0,0,.21c0,.32.13.77-.08.89a6.89,6.89,0,0,1-1.57.23H82.13l-.24-.15a.76.76,0,0,1-.19-.57c0-.35.13-.61,0-.79s-.22-.52,0-.68a1.75,1.75,0,0,1,.79-.14c.19,0,0-.84,0-.84"/><path class="cls-1" d="M85.46,190.08l6.22-.27s1.24-.28.88-1.37"/><line class="cls-1" x1="79.79" y1="191.12" x2="81.68" y2="191.08"/><line class="cls-1" x1="79.81" y1="190.28" x2="81.67" y2="190.24"/><path class="cls-1" d="M75.84,188l0,.52-.5.13v.85s.37.28-1.65.14v-.92l-.55-.15,0-.77"/><polyline class="cls-1" points="79.8 189.57 79.82 191.83 72.91 192.13 72.87 189.92"/><line class="cls-1" x1="73.6" y1="189.37" x2="69.16" y2="189.64"/><polyline class="cls-1" points="75.38 189.3 76.12 189.27 79.8 189.57 72.87 189.92 69.16 189.65 69.1 191.87 70.31 192.05 70.36 191.62 71.25 191.62 71.28 192.06 72.91 192.13"/><line class="cls-1" x1="59.48" y1="191.88" x2="69.04" y2="191.56"/><line class="cls-1" x1="54.72" y1="191.45" x2="69.04" y2="190.69"/><line class="cls-1" x1="51.33" y1="191.11" x2="51.45" y2="187.72"/><line class="cls-1" x1="49.71" y1="190.98" x2="49.75" y2="187.81"/><path class="cls-1" d="M49.22,187.47s-.06-.55.31-.56h2s.42.05.42.37a2.47,2.47,0,0,1,0,.45l-2.42.1S49.2,187.63,49.22,187.47Z"/><path class="cls-1" d="M40.1,190.24a2.36,2.36,0,0,1,1.16-.33l2.18-.18s.47-.08.48.68"/><path class="cls-1" d="M136.69,188.82s18.55,1.2,20.13,1.26a3.15,3.15,0,0,1,1.21.22.67.67,0,0,1,.41.75c0,.42.27,7.15.24,8.2s.23,10.44,0,11.74-1.57,5.34-1.9,6.6a52.13,52.13,0,0,0-1.08,5.34c-.23,1.68-.83,1.51-.83,1.51l-4.37.71L96.24,231.5s-10.88,1.39-14.67,1.57a27.91,27.91,0,0,1-6.91-.58S41,222.42,40,222.22s-.71-1-.71-1,.72-29.4.68-30.28.42-.84.42-.84l9.33.9L75,193.36s3,.19,4.52.24,5.11,0,5.11,0,1-.29,1,.61-.05,2,2.43,1.84l47.35-2.38,4.41-.25s1.2.24,1.21-1.66c0-.56.14-.74.77-.74l15.41-.38s1.26-.19.63-.32"/><path class="cls-1" d="M103.69,154v.29l-.83.06s-.28.1.09.12l.82.06,0,2.47s0,.11,0,.13,0,.23,0,.23l.12,0v-.26s.12-.09.06-.19,0-2.41,0-2.41l.92,0s.43-.11,0-.16l-.93-.05,0-.21"/><path class="cls-1" d="M103.4,152.88l1,0"/><path class="cls-1" d="M103.28,152.55l1.17.05"/><path class="cls-1" d="M103.14,150.67a9.62,9.62,0,0,0,1.34.06"/><path class="cls-1" d="M102.74,149.43a16.9,16.9,0,0,0,2.18,0"/><path class="cls-1" d="M101.87,106.42l.24,32.78a1.09,1.09,0,0,1-.32.87,10.27,10.27,0,0,1-2.62.54"/><path class="cls-1" d="M106.59,140.72a3.48,3.48,0,0,0,1.39-.47"/><path class="cls-1" d="M108.14,139.55a1.69,1.69,0,0,1,0,.51c-.05.12-.19.39-1.41.35s-4.38-.08-4.67-.69"/><polyline class="cls-1" points="98.3 139.83 102.11 139.2 108.26 139.54 108.09 108.21"/><path class="cls-1" d="M99.41,140.67l4.1-.3,3.06.2s.12,3.17,0,3.71,0,2.22-1.76,2.16l-1.66-.08"/><path class="cls-1" d="M100.22,141.3a2.09,2.09,0,0,1,2.23.32,2.14,2.14,0,0,1,.67,1.43l.06,3.46,1.94.08a9.24,9.24,0,0,1,0,1.1c0,.31-.39.2-.39.2h-1.54s-.7.22-1-.7a9.93,9.93,0,0,1-.39-2.5c0-.7,0-2.56-.5-2.94s-.89-.74-1.45,0"/><path class="cls-1" d="M98.1,108.45l.22,31.29,0,.63a6.87,6.87,0,0,0,1.45.38c.06.37.45.29.45.29.47,0,.05.18.05.18s-.14.14-.3.35a2.69,2.69,0,0,0-.61,1.18,6.85,6.85,0,0,0,.4,3.26c.84,2.15,1.78,1.93,1.78,1.93,1.26,0,1.16-.06,1.16-.06l0,1.56a.71.71,0,0,1,.34.47,5.31,5.31,0,0,1,0,.6.19.19,0,0,0,.16.24c0,.41,0,1.82,0,1.82s.28.18.09.38a.78.78,0,0,0,0,.36c0,.19.06.62.06.62a4.77,4.77,0,0,0,1,0c.06-.05,0-.15,0-.46s0-.52,0-.52-.15-.22-.1-.29.11,0,.12-.49,0-1.47,0-1.47.19,0,.18-.43.06-.61.18-.75.13-.18.14-.5.05-1.12.05-1.12"/><path class="cls-1" d="M68.93,158.52s-.08.81.45.88"/><path class="cls-1" d="M73.77,159.27a5,5,0,0,0,1,0"/><path class="cls-1" d="M69.26,159.12a10,10,0,0,0,1.12.09l1.16,0a1.91,1.91,0,0,0-.32,1.12c0,.67.23,4.78.23,4.78s0,.88,0,1.12-.11.68-.11.68"/><path class="cls-1" d="M73.78,158.63v.78a.75.75,0,0,0,.29.15c.14,0,.22,1.54.22,1.54l.19-1.5.28-.17c0-.37,0-.84,0-.8"/><path class="cls-1" d="M69.22,158.5l0,.62s.07.34.36.33c.09.07.08.25.08.42s0,.72,0,.72l.17,0,.1-1.13a.34.34,0,0,0,.4-.33,4.5,4.5,0,0,0,0-.64"/><polyline class="cls-1" points="69.12 158.5 77.71 158.68 77.78 157.73"/><path class="cls-1" d="M66.75,157.27s.24-.51.54-.59a13.15,13.15,0,0,1,1.91-.1l7,.07a6.23,6.23,0,0,1,.93.29c.38.17.67.38.67.79-.57,0-8.58-.15-8.58-.15"/><path class="cls-1" d="M66.56,157.31l2.26-.21s.34-.1.34.22,0,1.16,0,1.16l-2.56.15Z"/><path class="cls-1" d="M71.88,167.08l1.93-.1c-.34,0-.47-.19-.82-.46s-.55-1.57-.55-1.57-.27-4.28-.26-4.73a1,1,0,0,1,.43-.78c.11-.09.46-.06.46-.06l.71,0"/><path class="cls-1" d="M70.26,159.45a1.65,1.65,0,0,1,.27.93c0,.55,0,5.08,0,5.08a6.31,6.31,0,0,1-.37,1.52"/><path class="cls-1" d="M68.65,168.75l0-1.41A.32.32,0,0,1,69,167l2.38-.06s.55-.12.57.24,0,.51,0,.51h1.75s.14-.07.14-.36a2.76,2.76,0,0,0,0-.35.91.91,0,0,1,.38,0c.16.05.17.13.18.4s0,1.15,0,1.15"/><line class="cls-1" x1="63.37" y1="168.96" x2="63.36" y2="168.42"/><line class="cls-1" x1="59" y1="168.51" x2="59.01" y2="169.1"/><line class="cls-1" x1="99.1" y1="157.4" x2="99.14" y2="168.17"/><polyline class="cls-1" points="93.64 157.84 93.64 158.45 96.48 158.24 96.5 157.58"/><path class="cls-1" d="M104.38,163.92s.48.65.12,1.08"/><path class="cls-1" d="M101.45,161.63a.88.88,0,0,1,0,1.4"/><path class="cls-1" d="M104.56,160a1,1,0,0,1,0,1.45"/><path class="cls-1" d="M106.71,162a.92.92,0,0,1,0,1.33"/><ellipse class="cls-1" cx="107.45" cy="162.69" rx="1.37" ry="1.47" transform="translate(-2.28 1.53) rotate(-0.81)"/><ellipse class="cls-1" cx="105.07" cy="164.44" rx="0.81" ry="0.95" transform="translate(-1.37 0.88) rotate(-0.48)"/><path class="cls-1" d="M103,162.33a.89.89,0,1,1-.88-1A1,1,0,0,1,103,162.33Z"/><ellipse class="cls-1" cx="105.2" cy="160.72" rx="0.89" ry="1.06" transform="translate(-1.72 1.14) rotate(-0.61)"/><ellipse class="cls-1" cx="107.3" cy="162.69" rx="0.83" ry="1" transform="translate(-1.22 0.81) rotate(-0.43)"/><path class="cls-1" d="M109.6,159.21a.83.83,0,0,1-.74.89.89.89,0,0,1,0-1.76A.83.83,0,0,1,109.6,159.21Z"/><path class="cls-1" d="M97.48,165.07c0,.34-.12.62-.28.62s-.29-.28-.29-.61.13-.62.28-.62S97.48,164.73,97.48,165.07Z"/><path class="cls-1" d="M95.56,166.5c0,.31-.14.58-.31.58s-.32-.26-.32-.57.14-.58.31-.58S95.55,166.18,95.56,166.5Z"/><path class="cls-1" d="M95.16,161.23c0,.35-.14.62-.31.62s-.32-.27-.32-.61.13-.61.31-.61S95.16,160.89,95.16,161.23Z"/><path class="cls-1" d="M97.19,161.1c0,.29-.12.51-.26.52s-.27-.23-.27-.51.11-.51.26-.51S97.18,160.82,97.19,161.1Z"/><polyline class="cls-1" points="92.81 168.15 92.8 157.84 96.48 157.74 96.5 157.58 99.1 157.4 112.08 157.63 112.25 168.16"/><line class="cls-1" x1="86.76" y1="168.17" x2="86.71" y2="188.65"/><path class="cls-1" d="M157.88,186.26,105,188l-18.29.63-55.88-3.56.4-14.7a.55.55,0,0,1,.45-.36l33.55-1.13,9.05-.35,12.47-.38,30.69,0,36.6.05,5.27,0,2.44,0,17.64-.11h1.31a1.42,1.42,0,0,1,1,.81c.21.65,1.5,3.92,1.79,5a15.74,15.74,0,0,1,.66,6.08,17.59,17.59,0,0,1-1.31,6.7c-.18.53-.37,1.63-1.35,1.73s-15.67,1-15.67,1l-4.34.05c-.67,0-2.3,0-2.3,0s-.4-.1-.62-.77-.36-1.13-.36-1.13l-.51-2.29a46.21,46.21,0,0,1-.7-9.73c.11-1.91.72-6.45.72-6.45.12-.4.34-.56.81-.64s1.79-.2,1.79-.2"/><path class="cls-1" d="M162.88,168.69s.8,19.83,1,20.75"/><path class="cls-1" d="M158,168.65l4.47,0s4.6-.12,5.47-.12,12.66-.4,12.66-.4"/><path class="cls-1" d="M173.66,178.55a2.88,2.88,0,0,1-1.55,1c-.84.11-2.44-.29-2.52-1.33a4.11,4.11,0,0,1,.6-2.68c.44-.5,1.53-1.57,2.47-1.29s1.79.56,1.8,1.42.13,1.4-.12,1.81"/><path class="cls-1" d="M169.21,183.13s-1-3.3-.45-5a8.78,8.78,0,0,1,2.15-3.68c.75-.62,3.4-2.38,5.7-1.89"/><path class="cls-1" d="M169.14,183.13s-2.64-3.57-2.78-6,.2-5.17,1.81-6a6.22,6.22,0,0,1,5.86-.28l2.15,1.2s.82.15.23,1.34-2,4.27-2.45,4.82-3.37,3.69-3.66,4S169.34,183.32,169.14,183.13Z"/><line class="cls-1" x1="55.89" y1="168.59" x2="55.93" y2="169.2"/><path class="cls-1" d="M127.41,160.41s6.08-1.74,11-.22"/><line class="cls-1" x1="108.11" y1="114.93" x2="118.32" y2="116"/><line class="cls-1" x1="108.06" y1="112.64" x2="118.85" y2="113.83"/><path class="cls-1" d="M113.1,168.21s.1-13.4.16-14.9,1.24-17.17,2-21.59c.42-3.08,1.67-9.61,2-11.24s1.72-7.33,1.72-7.33l7.66-5.29.63,51.58s-.07,1.08.43,1.24,7.33,2.4,8.54,3,3.45,1.47,3.77,1.68.27.31.29,1,.1,1.95.1,1.95"/><path class="cls-1" d="M142.66,168.24s.17-1.52.83-1.92a2.86,2.86,0,0,1,2-.55c1.1,0,4,.1,4,.1a1.85,1.85,0,0,1,1.27.78,3.21,3.21,0,0,1,.46,1.57"/><path class="cls-1" d="M153.18,165.7s-.88-.81-3.42-1a42.87,42.87,0,0,0-5.68,0c-.47.08-3.33.37-3.41.82a11.64,11.64,0,0,0-.06,1.42c0,.58,0,1.24,0,1.24"/><path class="cls-1" d="M122,106.19l5.5.68,3.08.37a.4.4,0,0,1,.24.49,3.5,3.5,0,0,1-.63.53l-1.36-.2-7.66-.85"/><line class="cls-1" x1="142.33" y1="105.82" x2="149.88" y2="106.87"/><path class="cls-1" d="M145.59,100.8l3.85,4.9a1,1,0,0,1-.14,1.77c-1.28.79-8.13,5.38-8.13,5.38a2.23,2.23,0,0,1-1.42.2c-.66.4-2.38,1.59-2.38,1.59"/><path class="cls-1" d="M130.49,108.1l8,1s.78,0,.82.5-.1.56-.37.84-1.39,1.61-1.39,1.61-.15.05-.14,1.48.59,32,.59,32l.26,14.15a.78.78,0,0,0,.54.79c.59.19,9.53,2.41,12,3.62s2.59,1.4,2.58,2.16,0,2,0,2"/><path class="cls-1" d="M139.91,103l2.06,2.32s.77.65.11,1.07l-4,2.68"/><line class="cls-1" x1="123.08" y1="103.27" x2="142.33" y2="105.82"/><line class="cls-1" x1="132.47" y1="93.6" x2="133.72" y2="95.23"/><path class="cls-1" d="M123,98.78,145.12,102s1,.31.84,1"/><path class="cls-1" d="M120.58,93.27s19.54,2.84,20.25,3.12a7.52,7.52,0,0,1,5.17,5.94,4.92,4.92,0,0,1-.27,1.54l-22.46-3.2"/><path class="cls-1" d="M119.3,91.5l18.35,3,2.28.44s1.05.13,2.12,2"/><path class="cls-1" d="M114.75,87.65s4.48,2.9,6.36,6.42,2.51,6.25,2,9.2a6.8,6.8,0,0,1-4.51,5.58,34.63,34.63,0,0,1-10.5,1.7"/><line class="cls-1" x1="65.01" y1="110.26" x2="98.12" y2="113.86"/><line class="cls-1" x1="65.03" y1="107.89" x2="98.02" y2="111.6"/><path class="cls-1" d="M98.1,108.78l-.53-.27a5.84,5.84,0,0,0,2.67-.91c1-.78,1.17-.81,1.31-1a.44.44,0,0,1,.58-.15,25.88,25.88,0,0,0,6.28,1.73c.63.1.67.2.08.58l-.42.28"/><path class="cls-1" d="M88,105.09s3.41,2,4.43,2.39A32.83,32.83,0,0,0,98,109.39"/><polyline class="cls-1" points="88.31 101.98 67.72 99.39 67.08 99.91 67.14 100.36 88.17 103.07"/><line class="cls-1" x1="88.41" y1="83.49" x2="89.62" y2="83.26"/><path class="cls-1" d="M97.07,18.52a2.58,2.58,0,0,0-.66-.39c.08.81,1.38,23.3,1.48,25.14s.9,22.41,1,24.38.62,24.93.62,24.93"/><path class="cls-1" d="M99.11,92.38a16,16,0,0,0-3.73-5.67c-2.49-2.24-3.89-3.41-4.63-3.45a6.67,6.67,0,0,0-1.13,0l0-9.93"/><path class="cls-1" d="M85.75,87.85s.26-.35.58-.19a6.07,6.07,0,0,1,1.56,1.27,10.45,10.45,0,0,1,1.52,2.75,20.65,20.65,0,0,1,.57,2,1.55,1.55,0,0,1-.2,1.06c-.23.5-.44.9-.44.9s-.24.24.14.73,1.41,2.17,1.41,2.17.71.86,0,1.45-2.71,2.15-2.71,2.15l0,1.08-.26.11.12,1.79s2.19,1.74,5.76.31c1.62-.67,3.15-3,3.53-4.81A14.58,14.58,0,0,0,96.45,92,15.68,15.68,0,0,0,94,87.91s-3.27-3.55-5.61-4.42l-3.22,1.16c-.55.19-2.18.88-2.18.88"/><path class="cls-1" d="M83.93,87.6l-1-1.49s-.42-.41.23-.69.65-.47.67-.9c.15-.81.95-5.63.95-5.63s0-.58.49-.69a4.83,4.83,0,0,0,.54-1.56c.2-.71,1.25-3.4,2.73-3.6.7-.06.86.07,1,.2s.24.26.23-.63-.06-25.68-.07-26.68,0-16,0-16.76,0-5.67.08-6.17.36-1,1.87-1.94c1.23-.85,4.63-2.9,4.63-2.9a12.34,12.34,0,0,1,4.81-.26,22.24,22.24,0,0,1,9.78,2.8,1.62,1.62,0,0,1,.85,1.65c0,.68.81,11.16.81,11.21s1,15.71,1,15.71,1.15,23.59,1.05,27.45c0,1.24.23,16.64.23,16.64s.11.71-.94,1.38-3.57,2.79-3.57,2.79-2.51.89-6.27-1.57c0,0-4-3-4.66-3.41s-3.7-2.88-4.28-3.33"/><path class="cls-1" d="M59,91.71s.93-1.9,2.19-1.77,7.09,1,7.09,1L90,94.14"/><path class="cls-1" d="M58.48,83.72s2.07.58,3.15,4.28c.44,1.67.51,2.27.24,2.9s-.45,1.2-.45,1.2"/><line class="cls-1" x1="54.92" y1="81.46" x2="82.78" y2="85.89"/><path class="cls-1" d="M89.31,96s-27.64-3.82-29.15-4-1.44-.44-2-1a15.28,15.28,0,0,1-2.48-3.44,3.23,3.23,0,0,1,0-2.67A3.11,3.11,0,0,1,58,83.69c1.44.09,5.65.83,5.65.83L87,88.08"/><line class="cls-1" x1="62.54" y1="95.74" x2="91.13" y2="99.62"/><line class="cls-1" x1="58.87" y1="94.81" x2="52" y2="102.33"/><path class="cls-1" d="M51.24,81.23l7.1,13.08a2.44,2.44,0,0,0,1.43.85l2.84.4"/><path class="cls-1" d="M60.84,92.11,62.47,95s.47.44-.21,1.05S59.46,99,59.46,99"/><path class="cls-1" d="M56.41,84.16l-1.5-2.7-.5,0a20.38,20.38,0,0,0-2.24-.22,3.18,3.18,0,0,0-1.76.33l-4.94,2.75c-.86.48-.88.74-.91,1.4a24.73,24.73,0,0,0,1.14,6.58c1.22,4.07,5.12,9.1,5.12,9.1a4,4,0,0,0,1.75,1.22c.49.13,1.44.22.14,1.52s-4.82,4.61-4.82,4.61"/><path class="cls-1" d="M55.28,104.82s.07-1.13-.3-1.2c-.62.69-5.31,5.28-5.31,5.28s.11.45-1.5,0a1.35,1.35,0,0,1-.86-1.23c0-.58.06-11.54.06-11.54"/><line class="cls-1" x1="55.09" y1="109.29" x2="49.87" y2="108.74"/><line class="cls-1" x1="59.36" y1="168.49" x2="60.19" y2="98.74"/><path class="cls-1" d="M54.31,168.64l.8-59.45.13-3.94a7,7,0,0,1,1.18-3.16c.94-1.06,2.4-2.54,2.4-2.54s1-1,1.83-.81,3.89.6,3.89.6.63-.32.59,1.47-.57,49-.57,49l-.26,18.61-4.94.09Z"/></g></svg>