<svg xmlns="http://www.w3.org/2000/svg" viewBox="0 0 215 260"><defs><style>.cls-1{fill:none;stroke:#dcdbdb;stroke-width:1.3px;}</style></defs><title>machine_</title><g id="Linework"><path class="cls-1" d="M42.68,144.4,26.8,147.1l-12.42-.22a9.72,9.72,0,0,0-3.24,1c-3.13,0-3-1.63-3-1.63v-10s-.11-.65,1.4-1.29,47.86-19.13,47.86-19.13.65-1,4-.54,9.51,1.08,9.51,1.08v-3.57l6.48.44a1.4,1.4,0,0,1,1.51.87,9.41,9.41,0,0,1,1.41,4.64,10.7,10.7,0,0,1-.11,1.62L78.54,120l-.11,17.83A1.24,1.24,0,0,1,77,139c-1.41,0-17.72-.86-17.72-.86s-1.51.32-1.51-2.27V116.74s-.27-1.46.7-1.46"/><path class="cls-1" d="M42.78,141.38l5.51-1.08a28.91,28.91,0,0,1,3.24,0c1.19.1,15.23.64,15.23.64s1.84-.43,1.95,1.73.11,79.51.11,79.51L50.46,225s-1.3.32-4.21-1.73S43,221.65,43,218.51,42.78,141.38,42.78,141.38Z"/><path class="cls-1" d="M44.41,222.08s-.22,2.26-1.62.75a23.37,23.37,0,0,0-.11,2.37l9,5.83,1.19.32,16.64-3-.43-2.7s-.11.32-1.73.75-14.15,2.17-14.15,2.17H51.65l-1.73-1.41.11-2.27-.21-84.59"/><path class="cls-1" d="M49.92,227.05s9.07-.87,11.78-1.51,5.18-1.08,5.18-1.08l.22-1.95"/><line class="cls-1" x1="66.88" y1="224.46" x2="69.04" y2="225.76"/><line class="cls-1" x1="42.78" y1="222.73" x2="44.35" y2="222.45"/><path class="cls-1" d="M26.69,147.1s1.29.22,1.29,1.18.21,53.05.21,53.05l-6.48.54-6.7.76a3.3,3.3,0,0,1-1.84-.87c-1.08-.86-1.51-.86-1.62-2.7s-.11-51.42-.11-51.42"/><path class="cls-1" d="M12.54,201.22l-.06.76s-.21.65-.54.22c-.16-.16-.27,0-.27.59s0,.7.43,1S15,206.09,15,206.09a6,6,0,0,0,1.89.06c1.3-.11,11-1.29,11-1.29s.43,0,.38-.93c0-.54,0-.86-1-1.29a8.26,8.26,0,0,0,0-1.24"/><path class="cls-1" d="M14.86,202.64l.05,1.4a1.1,1.1,0,0,0,1.13.65c.81-.11,11.45-1.3,11.45-1.3s.54.33.65-.1"/><line class="cls-1" x1="14.97" y1="203.98" x2="27.39" y2="202.74"/><line class="cls-1" x1="15.99" y1="204.8" x2="15.99" y2="206.19"/><line class="cls-1" x1="53.27" y1="228.56" x2="53.27" y2="231.26"/><line class="cls-1" x1="51.7" y1="228.56" x2="51.7" y2="231.04"/><path class="cls-1" d="M14.48,202.52s.22-55.64,0-55.64"/><line class="cls-1" x1="8.92" y1="147.37" x2="58.18" y2="137.43"/><path class="cls-1" d="M28.69,127.17s.75-12.54.75-13,.05-1.46-.81-.71c-.38.33-.48.11-.54-1.29s.64-8,1.45-9.34,1.24-2.27,2.38-2.16,46,5.77,46,5.77l8.43,15.29s-1.95-10.1-3.83-13.61c-.92-1.68-2-3-4.6-1.78"/><path class="cls-1" d="M31.23,100.87l6.16,16.63-.06,2.92a7.24,7.24,0,0,1-.7,2.81c0,.11-.81.22-1.24.43a8.36,8.36,0,0,1-.93.38l-.11.92"/><line class="cls-1" x1="67.09" y1="140.94" x2="77.58" y2="138.89"/><line class="cls-1" x1="37.39" y1="117.83" x2="49.54" y2="118.9"/><line class="cls-1" x1="36.68" y1="123.23" x2="38.41" y2="123.39"/><line class="cls-1" x1="35.01" y1="123.87" x2="36.68" y2="124.04"/><line class="cls-1" x1="78.6" y1="120.75" x2="86.11" y2="121.34"/><path class="cls-1" d="M79.46,105.89l4.38.26a2.52,2.52,0,0,0,1.24.54c.76.11,2.16-.16,2.64,1s3.08,7.57,3.35,9.78c2.11,2.1,4.64,4.31,6.11,4.37s4.2-2,4.2-3.4-.11-17.72-.11-17.72L101,32a13.29,13.29,0,0,0-10.59-3.29c-4.05,3.94-6.59,6.1-6.59,6.1s-.65.27-.6,1.46.6,69.84.6,69.84"/><line class="cls-1" x1="89.67" y1="112.8" x2="88.97" y2="30.15"/><line class="cls-1" x1="90.49" y1="28.8" x2="90.97" y2="117.45"/><path class="cls-1" d="M86.43,121.77l21.17,1.73s-1.68-7.83-3-10.64a24.51,24.51,0,0,0-1.68-3.41,13.46,13.46,0,0,0-1.56-.22"/><polyline class="cls-1" points="103.02 109.51 121.97 111.78 123.6 114.05 130.68 125.11"/><path class="cls-1" d="M107.55,123.23,130,125.12s1.46,0,1.73.43a3.17,3.17,0,0,1,.06,2.16,8.81,8.81,0,0,1-.76,2.11c-.33.49-1.19.59-2.86.54s-49.64-3.73-49.64-3.73"/><line class="cls-1" x1="78.54" y1="127.44" x2="92.16" y2="128.46"/><polyline class="cls-1" points="97.23 128.74 127.48 130.63 126.46 131 122.35 130.73 117.38 133.7 97.23 132.84"/><line class="cls-1" x1="92.16" y1="132.25" x2="78.49" y2="131.39"/><polyline class="cls-1" points="93.29 127.76 92.05 127.92 92.43 168.81 94.1 168.76 97.35 168.81 97.29 128.14"/><line class="cls-1" x1="93.94" y1="127.76" x2="93.94" y2="168.71"/><polyline class="cls-1" points="93.71 168.81 93.73 171.84 96.3 171.84 96.3 168.81"/><polyline class="cls-1" points="94.12 171.88 94.12 172.12 95.98 172.12 95.98 171.84"/><polyline class="cls-1" points="94.58 172.17 94.58 172.54 95.42 172.54 95.42 172.17"/><path class="cls-1" d="M94.8,172.57V174s-.48.3,0,.52c0,1.17,0,3.09,0,3.09h.44v-3.09s.47-.32,0-.54c0-.58,0-1.49,0-1.49"/><line class="cls-1" x1="95.44" y1="174.22" x2="96.63" y2="174.22"/><line class="cls-1" x1="94.6" y1="174.3" x2="93.61" y2="174.3"/><polyline class="cls-1" points="97.34 139.54 99.83 139.11 194.57 126.25 199.11 125.61"/><path class="cls-1" d="M99.61,139.21s-.43-1,3.35-1.51l10.48-1.52"/><path class="cls-1" d="M113.44,133.6s-.43,3.24.54,3.24,19.34-2.92,19.34-2.92a7.1,7.1,0,0,1,3.45.11"/><path class="cls-1" d="M139.91,133.49s.25-.41.53-.91a12.58,12.58,0,0,0,.65-1.25,1.27,1.27,0,0,1,1.62-.75c.54.21.87,1.29.87,1.29h1.84c0-.43-.22-1.62-.33-3.25-.76-3.12-8-6.37-9.83-7a52.13,52.13,0,0,0-7.45-1.18,15.16,15.16,0,0,1,1.51,2.16c1.19.75,5.19,3.78,5.29,6.16s.11,5,.11,5"/><path class="cls-1" d="M206.46,143.54s-7.68-.22-9.18-.22-1.3-1.08-1.3-1.08V132.3c0-1-.32-1-.86-1.08-1-.12-.65-1.19-.65-1.19v-3.79l4.1.33,1.3-2.81,3.13.32,1.84,4.32,2.05.22v14s0,1.08-1.4,1.18-20.42,1.19-20.42,1.19l-9.94-.32-11,.75-.11.76L120.36,149l-8.54-.11-5.62.44v.54l-8.75-.22,63.85-4.32,35.22-2.16"/><line class="cls-1" x1="97.34" y1="142.46" x2="194.47" y2="131.11"/><line class="cls-1" x1="145.42" y1="131.65" x2="199.76" y2="123.77"/><polyline class="cls-1" points="184.85 164.93 187.66 164.93 187.66 201.01 185.28 201.66"/><path class="cls-1" d="M185.18,145.27l.11,59.53-9.4,1.29a23.34,23.34,0,0,1-3-.22c-1.4-.21-8.1-1.72-8.1-1.72s-.43.11-.43-2.06-.11-56.61-.11-56.61"/><line class="cls-1" x1="175.02" y1="144.73" x2="175.45" y2="206.09"/><path class="cls-1" d="M165.62,204.36l-.21,1.51-2.27-.54-.22,1.84,14.37,3.13a4.62,4.62,0,0,0,1.94,0c1.19-.22,7.78-1.51,7.78-1.51l-.11-1.84-.76-.22"/><path class="cls-1" d="M174.37,206.09s-.54,2.16,1.84,1.95"/><line class="cls-1" x1="179.23" y1="207.49" x2="183.45" y2="206.74"/><path class="cls-1" d="M163.46,205.33c0-.29-.07-.51.21-.65.1-.05.23,0,.33-.1a1,1,0,0,0,.19-.3c-.18-.12-.13-.44.13-.35"/><path class="cls-1" d="M176.42,208.15l-.08,0c0-.26-.32-.27-.36-.51s.22-.32.43-.34c.07-.27-.15-.92.34-.86.16,0,.22.2.43.12s.21-.18.42-.22a.73.73,0,0,1,.84.35c.08.18.13.17.24.3s-.1.17,0,.44.9.23.54.76a1.09,1.09,0,0,1-1,.31,3.24,3.24,0,0,1-.54,0c-.15,0-.27-.2-.42-.23h-.23c-.1,0-.1-.09-.2-.11s-.38.06-.44-.22"/><path class="cls-1" d="M185.64,205.74a.85.85,0,0,1-.11.71.71.71,0,0,1-.44.32c-.12,0-.18.11-.35.08a1.65,1.65,0,0,1-.28-.1,1.16,1.16,0,0,1-.37-.12c-.12-.05-.24-.14-.35-.18a.42.42,0,0,1-.3-.38c0-.12-.06-.53,0-.61s.3,0,.39,0a1.77,1.77,0,0,1,.34-.09,2.82,2.82,0,0,1,.84,0,1.15,1.15,0,0,1,.59.38"/><path class="cls-1" d="M163.91,204.8c.13,0,.15.07.26.11a1.15,1.15,0,0,0,.36,0h.61"/><path class="cls-1" d="M183.45,206c0,.18-.23.21-.33.31s-.1,0-.09.19a1.82,1.82,0,0,0,.17.28,1.62,1.62,0,0,0,1.22.62,2,2,0,0,0,1.3-.22.63.63,0,0,0,.32-.44c.06-.15.23-.47-.09-.44,0-.06,0-.12,0-.18a1.13,1.13,0,0,1-.41-.12"/><path class="cls-1" d="M106.09,149.48l.33,42.45,5.08,1.29s.33,0,1.3-.1l7.56-1,.11-43.21"/><line class="cls-1" x1="112.03" y1="148.94" x2="111.93" y2="193.23"/><path class="cls-1" d="M105.88,193.13l1.19.1.11-1.08s-1.29.33-1.29,1.19-.43,1.08.43,1.3,6.92,1.4,6.92,1.4a6.15,6.15,0,0,0,1.94.11c1.08-.11,5.72-1,5.72-1L121,194l-.43-.22-.76-.11-8.21.65"/><path class="cls-1" d="M111.61,193.23v1.19a11.84,11.84,0,0,0,2.7.43c1.19,0,6.81-.76,6.81-.76"/><line class="cls-1" x1="113.23" y1="194.75" x2="113.23" y2="196.04"/><line class="cls-1" x1="114.09" y1="194.75" x2="114.09" y2="196.15"/><line class="cls-1" x1="177.5" y1="208.46" x2="177.5" y2="210.2"/><line class="cls-1" x1="178.59" y1="208.46" x2="178.59" y2="210.3"/><line class="cls-1" x1="119.71" y1="192.26" x2="119.71" y2="193.66"/><line class="cls-1" x1="63.52" y1="115.55" x2="70.87" y2="112.75"/><line class="cls-1" x1="103.56" y1="110.48" x2="109.23" y2="123.23"/></g></svg>