<svg xmlns="http://www.w3.org/2000/svg" viewBox="0 0 215 260"><defs><style>.cls-1{fill:none;stroke:#dcdbdb;stroke-width:1.63px;}</style></defs><title>machine_</title><g id="Linework"><line class="cls-1" x1="89.74" y1="125.32" x2="89.8" y2="125.32"/><line class="cls-1" x1="89.74" y1="125.32" x2="89.72" y2="125.3"/><line class="cls-1" x1="88.05" y1="124.71" x2="88.05" y2="125.31"/><line class="cls-1" x1="91.44" y1="125.34" x2="91.45" y2="124.69"/><line class="cls-1" x1="79.91" y1="147.84" x2="80.15" y2="124.39"/><line class="cls-1" x1="70.73" y1="122.91" x2="70.47" y2="148.05"/><line class="cls-1" x1="64.29" y1="26.23" x2="60.07" y2="63.9"/><line class="cls-1" x1="100.47" y1="25.37" x2="64.61" y2="26.18"/><line class="cls-1" x1="106.69" y1="121.82" x2="108.99" y2="39.98"/><line class="cls-1" x1="170.95" y1="61.8" x2="159.5" y2="62.06"/><line class="cls-1" x1="159.4" y1="62.84" x2="108.32" y2="63.98"/><line class="cls-1" x1="61.33" y1="65.04" x2="53.63" y2="65.21"/><line class="cls-1" x1="52.61" y1="64.46" x2="41.16" y2="64.71"/><line class="cls-1" x1="154.95" y1="157.7" x2="154.62" y2="157.37"/><line class="cls-1" x1="154.96" y1="159.79" x2="154.98" y2="157.76"/><line class="cls-1" x1="69.11" y1="148.29" x2="68.77" y2="148.61"/><line class="cls-1" x1="68.74" y1="148.68" x2="68.72" y2="150.7"/><line class="cls-1" x1="154.62" y1="164.13" x2="154.67" y2="159.97"/><line class="cls-1" x1="141.42" y1="167.56" x2="141.37" y2="167.51"/><line class="cls-1" x1="154.86" y1="168.85" x2="154.91" y2="164.13"/><line class="cls-1" x1="68.67" y1="155.05" x2="68.63" y2="159.77"/><line class="cls-1" x1="83.11" y1="214.77" x2="82.92" y2="232.98"/><line class="cls-1" x1="102.05" y1="233.18" x2="102.24" y2="214.97"/><line class="cls-1" x1="148.74" y1="214.06" x2="148.56" y2="231.51"/><line class="cls-1" x1="167.68" y1="231.71" x2="167.87" y2="213.49"/><line class="cls-1" x1="137.79" y1="214.43" x2="137.77" y2="216.49"/><line class="cls-1" x1="57.32" y1="200.63" x2="57.13" y2="218.29"/><line class="cls-1" x1="76.26" y1="218.49" x2="76.36" y2="209.38"/><line class="cls-1" x1="82.11" y1="180.51" x2="81.83" y2="180.51"/><line class="cls-1" x1="81.83" y1="180.51" x2="65.71" y2="167.41"/><line class="cls-1" x1="65.71" y1="167.41" x2="57.27" y2="167.6"/><line class="cls-1" x1="60.16" y1="160.53" x2="69.27" y2="160.33"/><line class="cls-1" x1="106.24" y1="179.92" x2="94.68" y2="170.51"/><line class="cls-1" x1="177.47" y1="178.37" x2="177.24" y2="178.37"/><line class="cls-1" x1="177.47" y1="178.55" x2="177.47" y2="178.37"/><line class="cls-1" x1="82.06" y1="213.54" x2="81.49" y2="213.55"/><line class="cls-1" x1="81.49" y1="213.55" x2="81.83" y2="180.51"/><line class="cls-1" x1="81.49" y1="213.55" x2="65.37" y2="200.45"/><line class="cls-1" x1="65.37" y1="200.45" x2="65.71" y2="167.41"/><line class="cls-1" x1="141.97" y1="169.96" x2="152.94" y2="178.87"/><line class="cls-1" x1="154.97" y1="158.41" x2="158.59" y2="158.33"/><line class="cls-1" x1="166.98" y1="165.14" x2="161.35" y2="165.27"/><line class="cls-1" x1="161.35" y1="165.27" x2="177.47" y2="178.37"/><line class="cls-1" x1="56.93" y1="200.64" x2="57.27" y2="167.6"/><line class="cls-1" x1="65.37" y1="200.45" x2="56.93" y2="200.64"/><line class="cls-1" x1="56.93" y1="200.64" x2="55.8" y2="199.72"/><line class="cls-1" x1="65.19" y1="68.79" x2="65.19" y2="68.18"/><polyline class="cls-1" points="88.05 125.3 88.05 125.31 88.05 125.32 88.05 125.32 88.06 125.33 88.06 125.34 88.07 125.35 88.08 125.36 88.09 125.36 88.1 125.37 88.11 125.38 88.12 125.38 88.14 125.39 88.15 125.4 88.17 125.41 88.19 125.41 88.2 125.42 88.23 125.43 88.25 125.44 88.27 125.44 88.3 125.45 88.32 125.45 88.35 125.46 88.38 125.47 88.4 125.48 88.43 125.48 88.47 125.49 88.49 125.5 88.53 125.5 88.56 125.51 88.6 125.51 88.63 125.52 88.67 125.52 88.7 125.53 88.74 125.53 88.78 125.54 88.82 125.54 88.86 125.54 88.9 125.55 88.94 125.55 88.98 125.56 89.03 125.56 89.07 125.57 89.11 125.57 89.16 125.57 89.2 125.58 89.25 125.58 89.29 125.58 89.34 125.58 89.39 125.58 89.43 125.58 89.48 125.59 89.53 125.59 89.57 125.59 89.62 125.59 89.67 125.59 89.72 125.59 89.76 125.6 89.81 125.6 89.86 125.6 89.91 125.6 89.95 125.6 90 125.59 90.04 125.59 90.09 125.59 90.14 125.59 90.18 125.59 90.23 125.59 90.27 125.58 90.32 125.58 90.36 125.58 90.41 125.58 90.45 125.58 90.49 125.58 90.54 125.57 90.58 125.57 90.62 125.56 90.66 125.56 90.7 125.56 90.74 125.55 90.78 125.55 90.81 125.54 90.85 125.54 90.89 125.54 90.92 125.53 90.95 125.53 90.98 125.52 91.02 125.52 91.05 125.51 91.08 125.5 91.11 125.5 91.14 125.49 91.16 125.49 91.19 125.48 91.21 125.47 91.23 125.47 91.26 125.46 91.28 125.45 91.3 125.44 91.32 125.44 91.33 125.43 91.35 125.43 91.37 125.42 91.38 125.41 91.39 125.41 91.4 125.4 91.41 125.39 91.42 125.38 91.43 125.37 91.43 125.37 91.44 125.36 91.44 125.35 91.44 125.35 91.44 125.34"/><line class="cls-1" x1="78.1" y1="151.34" x2="78.11" y2="151.05"/><polyline class="cls-1" points="101.92 25.45 101.98 25.46 102.03 25.48 102.09 25.5 102.14 25.52 102.19 25.55 102.25 25.57 102.31 25.59 102.36 25.62 102.41 25.64 102.47 25.67 102.52 25.7 102.58 25.73 102.63 25.77 102.69 25.8 102.74 25.83 102.8 25.87 102.85 25.91 102.91 25.95 102.96 25.98 103.01 26.03 103.07 26.07 103.12 26.11 103.17 26.16 103.23 26.21 103.29 26.25 103.34 26.3 103.4 26.35 103.45 26.4 103.5 26.46 103.56 26.51 103.61 26.57 103.67 26.62 103.72 26.68 103.77 26.74 103.83 26.8 103.88 26.86 103.94 26.93 103.99 26.99 104.04 27.06 104.1 27.13 104.15 27.2 104.21 27.27 104.26 27.34 104.31 27.41 104.37 27.48 104.42 27.56 104.47 27.64 104.53 27.71 104.58 27.79 104.64 27.87 104.69 27.95 104.74 28.04 104.8 28.12 104.85 28.2 104.9 28.29"/><polyline class="cls-1" points="64.42 26.29 64.47 26.3 64.52 26.32 64.58 26.34 64.64 26.36 64.69 26.39 64.75 26.41 64.8 26.43 64.85 26.46 64.91 26.48 64.96 26.51 65.01 26.54 65.07 26.57 65.13 26.61 65.18 26.64 65.23 26.67 65.29 26.71 65.34 26.75 65.4 26.79 65.45 26.82 65.5 26.87 65.56 26.91 65.62 26.95 65.67 27 65.72 27.05 65.78 27.09 65.83 27.14 65.89 27.19 65.94 27.25 66 27.3 66.05 27.35 66.11 27.41 66.16 27.46 66.21 27.52 66.27 27.58 66.32 27.64 66.38 27.71 66.43 27.77 66.48 27.83 66.54 27.9 66.59 27.97 66.65 28.04 66.7 28.11 66.75 28.18 66.81 28.25 66.86 28.32 66.92 28.4 66.97 28.48 67.02 28.55 67.08 28.63 67.13 28.71 67.18 28.79 67.24 28.88 67.29 28.96 67.34 29.04 67.4 29.13"/><polyline class="cls-1" points="64.42 26.29 64.39 26.28 64.36 26.27 64.34 26.27 64.33 26.25 64.31 26.25 64.3 26.24 64.29 26.24 64.29 26.23 64.29 26.22 64.29 26.22 64.3 26.21 64.31 26.21 64.32 26.21 64.34 26.2 64.36 26.2 64.39 26.2 64.42 26.19 64.44 26.19 64.48 26.19 64.52 26.18 64.56 26.18 64.6 26.18"/><line class="cls-1" x1="64.6" y1="26.18" x2="100.49" y2="25.37"/><polyline class="cls-1" points="100.49 25.37 100.58 25.37 100.67 25.37 100.77 25.37 100.85 25.37 100.94 25.37 101.03 25.37 101.1 25.37 101.18 25.37 101.25 25.38 101.33 25.38 101.4 25.38 101.46 25.39 101.53 25.39 101.58 25.4 101.64 25.4 101.7 25.41 101.74 25.41 101.78 25.42 101.82 25.42 101.86 25.43 101.89 25.44 101.92 25.45"/><line class="cls-1" x1="65.55" y1="68.47" x2="60.18" y2="64.11"/><line class="cls-1" x1="64.6" y1="26.18" x2="64.61" y2="26.18"/><polyline class="cls-1" points="60.07 63.9 60.07 63.91 60.07 63.94 60.08 63.96 60.09 63.99 60.1 64.01 60.11 64.03 60.13 64.06 60.16 64.08 60.19 64.11"/><line class="cls-1" x1="100.47" y1="25.37" x2="100.49" y2="25.37"/><polyline class="cls-1" points="104.9 28.29 104.96 28.37 105.01 28.45 105.07 28.54 105.12 28.62 105.18 28.71 105.23 28.79 105.28 28.88 105.34 28.97 105.39 29.06 105.45 29.15 105.5 29.25 105.55 29.34 105.61 29.43 105.66 29.53 105.71 29.63 105.77 29.73 105.82 29.83 105.87 29.93 105.93 30.04 105.98 30.14 106.03 30.24 106.09 30.35 106.14 30.46 106.19 30.57 106.25 30.68 106.3 30.79 106.35 30.9 106.4 31.02 106.46 31.13 106.51 31.25 106.56 31.36 106.62 31.48 106.67 31.6 106.72 31.72 106.77 31.85 106.82 31.97 106.87 32.09 106.93 32.22 106.98 32.35 107.03 32.48 107.08 32.6 107.13 32.73 107.18 32.87 107.23 33 107.28 33.14 107.34 33.27 107.39 33.41 107.44 33.54 107.49 33.68 107.54 33.82 107.59 33.96 107.64 34.1 107.69 34.25 107.74 34.39 107.79 34.54 107.84 34.68 107.89 34.83 107.94 34.98 107.99 35.13 108.04 35.28 108.09 35.43 108.14 35.59 108.19 35.74 108.24 35.9 108.28 36.05 108.33 36.21 108.38 36.37 108.43 36.53 108.48 36.69 108.53 36.85 108.58 37.02 108.63 37.18 108.67 37.34"/><polyline class="cls-1" points="108.67 37.34 108.72 37.53 108.77 37.72 108.81 37.91 108.85 38.1 108.89 38.29 108.91 38.48 108.94 38.68 108.96 38.87 108.98 39.07 108.99 39.27 109 39.46 109 39.66 109 39.87 108.99 40.06 108.98 40.27 108.97 40.47 108.95 40.67 108.93 40.88 108.9 41.09 108.86 41.32 108.83 41.54 108.79 41.77 108.74 41.99 108.69 42.21 108.64 42.42 108.58 42.62 108.52 42.84 108.46 43.04 108.39 43.25 108.32 43.46 108.24 43.67 108.16 43.87 108.08 44.09 108 44.29 107.9 44.5 107.81 44.71 107.71 44.92 107.61 45.13 107.51 45.34 107.4 45.54 107.28 45.75 107.17 45.95 107.04 46.17 106.91 46.39 106.78 46.6 106.64 46.82 106.5 47.04 106.35 47.25 106.2 47.47 106.03 47.68 105.87 47.9 105.71 48.12 105.54 48.33 105.36 48.54 105.18 48.74 105 48.96 104.81 49.16 104.62 49.37 104.42 49.57 104.22 49.77 104.07 49.92 103.91 50.07 103.76 50.21 103.6 50.36 103.43 50.5 103.27 50.64 103.1 50.78 102.93 50.92 102.75 51.07 102.56 51.22 102.36 51.36 102.17 51.51 101.97 51.65 101.77 51.79 101.57 51.92 101.37 52.06 101.17 52.18 100.97 52.31 100.77 52.43 100.56 52.54 100.36 52.66 100.15 52.77 99.94 52.88 99.72 52.99 99.51 53.09 99.29 53.19 99.07 53.29 98.84 53.39 98.62 53.48 98.39 53.56 98.17 53.65 97.96 53.72 97.75 53.8 97.55 53.86 97.34 53.92 97.13 53.99 96.92 54.05 96.67 54.11 96.43 54.17 96.18 54.22 95.94 54.28 95.69 54.32 95.44 54.37 95.19 54.41 94.94 54.44 94.69 54.47 94.43 54.5 94.17 54.52 93.92 54.54 93.66 54.55 93.4 54.56 93.14 54.56 92.91 54.57 92.67 54.56 92.43 54.56 92.2 54.55 91.96 54.54 91.72 54.51 91.49 54.5 91.26 54.47 91.03 54.45 90.81 54.42 90.58 54.39 90.35 54.35 90.12 54.31 89.89 54.27 89.67 54.23 89.44 54.18 89.22 54.13 88.99 54.07 88.77 54.02 88.54 53.96 88.32 53.9 88.08 53.83 87.84 53.75 87.61 53.68 87.38 53.6 87.14 53.52 86.9 53.44 86.66 53.34 86.42 53.25 86.18 53.16 85.94 53.06 85.7 52.96 85.47 52.85 85.24 52.75 85.01 52.64 84.78 52.53 84.54 52.41 84.32 52.3 84.05 52.16 83.78 52.01 83.51 51.87 83.25 51.72 82.98 51.57 82.75 51.43 82.52 51.29 82.29 51.14 82.06 51 81.84 50.85 81.62 50.71 81.35 50.52 81.09 50.34 80.83 50.16 80.58 49.98 80.32 49.79 80.07 49.6 79.83 49.41 79.58 49.22 79.34 49.02 79.1 48.83 78.86 48.63 78.63 48.43 78.4 48.23 78.17 48.03 77.95 47.83 77.72 47.62 77.51 47.41 77.29 47.21 77.06 46.99 76.84 46.77 76.61 46.54 76.39 46.32 76.18 46.09 75.97 45.87 75.77 45.65 75.58 45.44 75.39 45.22 75.2 45.01 75.02 44.79 74.84 44.58 74.67 44.36 74.49 44.14 74.32 43.93 74.16 43.72 74 43.5 73.84 43.28 73.68 43.07 73.53 42.85 73.38 42.64 73.24 42.42 73.09 42.21 72.96 41.99 72.85 41.82 72.75 41.65 72.64 41.48 72.55 41.31 72.45 41.14 72.35 40.97 72.26 40.8 72.17 40.63 72.06 40.42 71.96 40.21 71.86 40.01 71.77 39.8 71.68 39.6 71.59 39.4 71.51 39.19 71.44 38.99 71.38 38.83 71.32 38.67 71.27 38.51 71.22 38.34 71.17 38.19"/><polyline class="cls-1" points="71.17 38.19 71.12 38.02 71.07 37.86 71.02 37.69 70.97 37.53 70.93 37.37 70.88 37.21 70.83 37.05 70.78 36.9 70.73 36.74 70.68 36.59 70.63 36.43 70.59 36.27 70.53 36.12 70.49 35.97 70.44 35.82 70.38 35.67 70.34 35.53 70.28 35.38 70.23 35.24 70.19 35.09 70.14 34.95 70.09 34.8 70.03 34.66 69.98 34.52 69.93 34.39 69.89 34.25 69.83 34.11 69.78 33.97 69.73 33.84 69.68 33.71 69.63 33.58 69.57 33.45 69.53 33.32 69.47 33.19 69.42 33.06 69.37 32.94 69.32 32.81 69.26 32.69 69.21 32.56 69.16 32.45 69.11 32.33 69.06 32.2 69 32.09 68.95 31.97 68.9 31.85 68.85 31.74 68.79 31.63 68.74 31.52 68.69 31.41 68.63 31.3 68.58 31.19 68.53 31.09 68.47 30.98 68.42 30.87 68.37 30.77 68.31 30.67 68.26 30.57 68.21 30.47 68.15 30.38 68.1 30.28 68.05 30.18 67.99 30.09 67.94 29.99 67.88 29.9 67.83 29.81 67.78 29.72 67.72 29.63 67.67 29.55 67.62 29.46 67.56 29.38 67.5 29.3 67.45 29.21 67.4 29.13"/><polyline class="cls-1" points="68.81 122.03 68.86 122.08 68.92 122.12 68.98 122.16 69.05 122.21 69.12 122.25 69.19 122.29 69.27 122.33 69.35 122.37 69.44 122.42 69.53 122.46 69.63 122.51 69.73 122.55 69.83 122.59 69.94 122.64 70.06 122.68 70.17 122.72 70.3 122.77 70.42 122.81 70.56 122.85 70.69 122.9 70.83 122.94 70.98 122.99 71.13 123.03 71.27 123.07 71.42 123.11 71.57 123.15 71.72 123.19 71.87 123.22 72.03 123.26 72.21 123.31 72.4 123.34 72.58 123.39 72.78 123.43 72.97 123.47 73.17 123.51 73.37 123.55 73.57 123.58 73.76 123.61 73.96 123.65 74.16 123.69 74.36 123.72 74.57 123.75 74.78 123.79 75 123.82 75.21 123.85 75.43 123.89 75.65 123.91 75.88 123.95 76.09 123.97 76.31 124 76.53 124.03 76.75 124.06 76.98 124.08 77.24 124.11 77.5 124.14 77.77 124.17 78.03 124.2 78.31 124.23 78.58 124.25 78.85 124.28 79.12 124.31 79.39 124.33 79.67 124.35 79.96 124.37 80.24 124.4 80.53 124.42 80.82 124.44 81.11 124.46 81.4 124.48 81.69 124.5 81.98 124.52 82.27 124.54 82.57 124.55 82.86 124.57 83.16 124.58 83.45 124.6 83.72 124.61 83.99 124.62 84.26 124.63 84.53 124.64 84.8 124.65 85.07 124.66 85.37 124.67 85.66 124.68 85.95 124.69 86.24 124.69 86.53 124.69 86.82 124.7 87.11 124.71 87.38 124.71 87.64 124.71 87.9 124.71 88.16 124.72 88.42 124.72 88.68 124.72 88.93 124.72 89.19 124.72 89.44 124.72 89.69 124.71 89.94 124.71 90.19 124.71 90.48 124.7 90.77 124.7 91.06 124.69 91.34 124.69 91.6 124.68 91.87 124.68 92.13 124.67 92.39 124.66 92.66 124.65 92.92 124.64 93.17 124.63 93.44 124.62 93.69 124.61 93.96 124.6 94.22 124.58 94.49 124.57 94.75 124.55 95.02 124.54 95.28 124.53 95.54 124.51 95.81 124.49 96.07 124.47 96.33 124.46 96.59 124.44 96.84 124.42 97.1 124.4 97.36 124.37 97.59 124.35 97.82 124.33 98.05 124.31 98.28 124.28 98.51 124.26 98.74 124.24 98.98 124.22 99.22 124.19 99.46 124.16 99.7 124.13 99.94 124.1 100.17 124.07 100.4 124.04 100.61 124.02 100.81 123.98 101.01 123.95 101.21 123.92 101.41 123.89 101.61 123.86 101.79 123.83 101.98 123.79 102.17 123.76 102.35 123.73 102.53 123.69 102.71 123.66 102.87 123.62 103.03 123.59 103.19 123.56 103.35 123.53 103.49 123.49 103.67 123.45 103.83 123.41 103.99 123.37 104.15 123.32 104.3 123.28 104.45 123.24 104.59 123.2 104.73 123.16 104.86 123.11 104.99 123.07 105.12 123.02 105.23 122.98 105.35 122.93 105.46 122.89 105.57 122.84 105.67 122.8 105.77 122.75 105.86 122.7 105.94 122.66 106.03 122.61 106.1 122.56 106.18 122.52 106.25 122.47 106.3 122.43 106.35 122.38 106.4 122.34 106.45 122.3 106.49 122.25 106.53 122.21 106.56 122.16 106.59 122.12 106.62 122.07 106.64 122.02 106.67 121.97 106.67 121.93 106.68 121.88 106.69 121.84 106.69 121.83"/><line class="cls-1" x1="68.81" y1="122.03" x2="71.17" y2="38.19"/><line class="cls-1" x1="67.22" y1="109.8" x2="66.09" y2="108.88"/><polyline class="cls-1" points="67.42 109.01 67.42 109.05 67.42 109.08 67.42 109.11 67.42 109.15 67.42 109.18 67.41 109.22 67.41 109.25 67.41 109.28 67.41 109.31 67.4 109.34 67.4 109.37 67.4 109.41 67.39 109.43 67.39 109.46 67.38 109.49 67.38 109.51 67.38 109.54 67.38 109.56 67.37 109.58 67.36 109.61 67.36 109.63 67.35 109.65 67.35 109.67 67.34 109.69 67.33 109.71 67.33 109.72 67.32 109.74 67.32 109.75 67.31 109.76 67.3 109.77 67.3 109.78 67.29 109.79 67.28 109.8 67.28 109.81 67.27 109.81 67.26 109.81 67.26 109.81 67.25 109.81 67.24 109.81 67.24 109.81 67.23 109.81 67.22 109.8"/><line class="cls-1" x1="67.81" y1="71.25" x2="67.42" y2="109.01"/><polyline class="cls-1" points="67.63 70.16 67.64 70.16 67.64 70.17 67.65 70.18 67.66 70.19 67.66 70.2 67.67 70.21 67.68 70.22 67.69 70.24 67.69 70.26 67.7 70.28 67.7 70.29 67.71 70.32 67.72 70.34 67.72 70.36 67.73 70.38 67.73 70.41 67.74 70.43 67.74 70.45 67.75 70.48 67.76 70.52 67.76 70.54 67.77 70.57 67.77 70.6 67.77 70.63 67.78 70.66 67.78 70.69 67.78 70.73 67.79 70.76 67.79 70.79 67.79 70.83 67.8 70.86 67.8 70.9 67.8 70.93 67.8 70.97 67.81 71 67.81 71.04 67.81 71.08 67.81 71.11 67.81 71.14 67.81 71.18 67.81 71.22 67.81 71.25"/><line class="cls-1" x1="65.86" y1="68.71" x2="67.63" y2="70.16"/><line class="cls-1" x1="66.92" y1="120.5" x2="68.81" y2="122.03"/><line class="cls-1" x1="66.72" y1="118.45" x2="66.92" y2="120.5"/><polyline class="cls-1" points="66.56 117.83 66.57 117.84 66.58 117.84 66.58 117.85 66.59 117.86 66.6 117.88 66.61 117.89 66.61 117.91 66.62 117.92 66.62 117.94 66.63 117.96 66.64 117.98 66.65 118 66.65 118.02 66.66 118.04 66.67 118.07 66.67 118.09 66.67 118.12 66.68 118.14 66.69 118.17 66.69 118.2 66.7 118.22 66.7 118.25 66.7 118.29 66.71 118.32 66.71 118.35 66.72 118.39 66.72 118.42 66.72 118.45"/><line class="cls-1" x1="64.68" y1="116.3" x2="66.57" y2="117.83"/><polyline class="cls-1" points="64.53 115.76 64.53 115.79 64.54 115.82 64.54 115.85 64.55 115.89 64.55 115.91 64.56 115.94 64.56 115.97 64.57 116 64.57 116.02 64.58 116.05 64.58 116.07 64.59 116.09 64.6 116.12 64.6 116.14 64.61 116.16 64.61 116.18 64.62 116.2 64.63 116.21 64.63 116.23 64.64 116.25 64.65 116.26 64.65 116.27 64.66 116.28 64.67 116.29 64.68 116.3 64.68 116.3"/><line class="cls-1" x1="65.55" y1="68.47" x2="65.86" y2="68.71"/><polyline class="cls-1" points="64.5 115.21 64.5 115.24 64.5 115.28 64.5 115.32 64.5 115.36 64.51 115.39 64.51 115.43 64.51 115.47 64.51 115.51 64.51 115.54 64.52 115.58 64.52 115.61 64.52 115.65 64.52 115.69 64.53 115.72 64.53 115.75"/><line class="cls-1" x1="64.57" y1="108.91" x2="64.5" y2="115.21"/><line class="cls-1" x1="47.97" y1="76.02" x2="49.63" y2="71.5"/><line class="cls-1" x1="49.63" y1="71.5" x2="67.81" y2="71.1"/><line class="cls-1" x1="108.14" y1="70.19" x2="179.37" y2="68.59"/><line class="cls-1" x1="179.37" y1="68.59" x2="181.01" y2="73.22"/><line class="cls-1" x1="181.01" y1="73.22" x2="180.69" y2="106.31"/><line class="cls-1" x1="180.69" y1="106.31" x2="107.08" y2="107.96"/><line class="cls-1" x1="67.42" y1="108.85" x2="47.54" y2="109.3"/><line class="cls-1" x1="47.54" y1="109.3" x2="47.97" y2="76.03"/><line class="cls-1" x1="45.14" y1="73.72" x2="47.97" y2="76.02"/><line class="cls-1" x1="46.81" y1="69.21" x2="49.63" y2="71.5"/><line class="cls-1" x1="176.54" y1="66.3" x2="108.21" y2="67.83"/><line class="cls-1" x1="176.54" y1="66.3" x2="179.37" y2="68.59"/><polyline class="cls-1" points="46.31 93.52 46.28 93.49 46.26 93.46 46.23 93.43 46.2 93.39 46.17 93.34 46.15 93.29 46.12 93.24 46.09 93.18 46.06 93.12 46.03 93.05 46.01 92.98 45.98 92.91 45.96 92.82 45.94 92.74 45.91 92.66 45.89 92.56 45.86 92.47 45.84 92.37 45.82 92.26 45.8 92.15 45.78 92.05 45.75 91.94 45.74 91.82 45.72 91.71 45.7 91.59 45.68 91.46 45.66 91.33 45.65 91.2 45.63 91.07 45.62 90.94 45.61 90.8 45.6 90.67 45.58 90.53 45.57 90.39 45.56 90.25 45.55 90.11 45.55 89.97 45.54 89.82 45.53 89.67 45.53 89.53 45.53 89.41 45.52 89.29 45.52 89.17 45.52 89.06 45.52 88.94 45.52 88.82 45.52 88.69 45.52 88.58 45.52 88.44 45.53 88.3 45.53 88.16 45.54 88.02 45.54 87.89 45.55 87.75 45.56 87.61 45.56 87.48 45.57 87.34 45.59 87.21 45.6 87.09 45.61 86.97 45.62 86.85 45.64 86.73 45.65 86.62 45.67 86.5 45.69 86.39 45.7 86.28 45.72 86.18 45.74 86.08 45.76 85.98 45.78 85.89 45.8 85.8 45.82 85.72 45.84 85.64 45.87 85.57 45.89 85.49 45.92 85.43 45.94 85.36 45.97 85.3 45.99 85.25 46.01 85.2 46.04 85.15 46.07 85.12 46.1 85.08 46.12 85.05 46.15 85.02 46.18 85 46.21 84.99 46.23 84.98 46.26 84.97 46.29 84.97 46.32 84.97 46.35 84.98 46.38 84.99 46.41 85.01 46.43 85.03 46.47 85.06 46.49 85.09 46.52 85.13 46.55 85.17 46.58 85.22 46.6 85.27 46.63 85.32 46.66 85.38 46.68 85.45 46.71 85.52 46.74 85.59 46.76 85.67 46.79 85.75 46.81 85.83 46.84 85.93 46.86 86.02 46.88 86.11 46.91 86.21 46.93 86.32 46.95 86.42 46.97 86.54 46.99 86.65 47.01 86.77 47.03 86.89 47.05 87.01 47.06 87.13 47.08 87.26 47.09 87.39 47.11 87.52 47.12 87.66 47.13 87.79 47.15 87.93 47.16 88.07 47.17 88.21 47.18 88.35 47.19 88.49 47.19 88.63 47.2 88.77 47.21 88.92 47.21 89.06 47.22 89.21 47.22 89.36 47.22 89.51 47.22 89.62 47.22 89.73 47.22 89.85 47.22 89.96 47.22 90.1 47.21 90.24 47.21 90.38 47.2 90.52 47.2 90.65 47.19 90.79 47.18 90.93 47.17 91.06 47.16 91.19 47.15 91.33 47.14 91.45 47.13 91.57 47.11 91.69 47.1 91.81 47.09 91.92 47.07 92.04 47.05 92.15 47.03 92.25 47.02 92.36 47 92.46 46.98 92.55 46.95 92.65 46.94 92.73 46.91 92.81 46.89 92.89 46.87 92.97 46.85 93.04 46.82 93.11 46.8 93.17 46.77 93.24 46.75 93.29 46.72 93.34 46.7 93.38 46.67 93.42 46.65 93.46 46.62 93.49 46.59 93.52 46.56 93.54 46.53 93.55 46.5 93.57 46.48 93.57 46.45 93.57 46.43 93.57 46.41 93.57 46.39 93.56 46.36 93.55 46.34 93.53 46.31 93.52"/><line class="cls-1" x1="44.71" y1="107" x2="47.54" y2="109.3"/><line class="cls-1" x1="45.14" y1="73.72" x2="44.71" y2="107"/><polyline class="cls-1" points="153.67 154.56 153.69 153.68 153.72 152.64 153.75 151.6 153.78 150.56 153.81 149.53 153.85 148.49 153.88 147.46 153.91 146.42 153.94 145.39 153.98 144.36 154.01 143.32 154.05 142.3 154.09 141.26 154.12 140.24 154.16 139.21 154.2 138.18 154.24 137.16 154.27 136.13 154.31 135.1 154.35 134.08 154.4 133.06 154.44 132.03 154.48 131.01 154.52 129.99 154.56 128.98 154.61 127.95 154.65 126.94 154.69 125.92 154.74 124.91 154.79 123.89 154.83 122.88 154.88 121.87 154.93 120.85 154.97 119.84 155.02 118.83 155.07 117.82 155.12 116.82 155.17 115.81 155.22 114.8 155.28 113.8 155.33 112.79 155.38 111.79 155.43 110.79 155.49 109.79 155.54 108.79 155.6 107.79 155.65 106.87"/><polyline class="cls-1" points="159.68 62.13 159.67 62.12 159.65 62.11 159.63 62.1 159.62 62.09 159.6 62.08 159.58 62.07 159.56 62.07 159.54 62.06 159.53 62.06 159.51 62.06 159.5 62.06 159.48 62.06 159.46 62.06 159.44 62.07 159.43 62.07 159.41 62.08 159.39 62.09 159.38 62.1 159.36 62.11 159.34 62.12 159.32 62.13 159.31 62.15 159.29 62.16 159.28 62.18 159.26 62.2 159.24 62.22 159.22 62.24 159.21 62.26 159.19 62.28 159.18 62.31 159.16 62.34 159.15 62.37 159.13 62.39 159.12 62.42 159.1 62.46 159.09 62.49 159.07 62.52 159.05 62.55 159.04 62.59 159.03 62.63 159.01 62.67 159 62.71 158.98 62.75 158.97 62.79 158.96 62.83 158.95 62.85"/><line class="cls-1" x1="159.68" y1="62.13" x2="164.57" y2="66.11"/><line class="cls-1" x1="164.57" y1="66.11" x2="164.57" y2="66.56"/><line class="cls-1" x1="164.16" y1="106.68" x2="164.16" y2="106.7"/><line class="cls-1" x1="164.16" y1="106.7" x2="167.55" y2="109.45"/><line class="cls-1" x1="167.55" y1="109.45" x2="166.98" y2="165.14"/><line class="cls-1" x1="158.59" y1="158.32" x2="166.98" y2="165.14"/><line class="cls-1" x1="166.98" y1="165.14" x2="169.79" y2="165.08"/><line class="cls-1" x1="167.55" y1="109.45" x2="180.67" y2="109.16"/><line class="cls-1" x1="178.57" y1="196.96" x2="179.77" y2="196.94"/><line class="cls-1" x1="169.79" y1="165.08" x2="169.72" y2="172.07"/><line class="cls-1" x1="180.67" y1="109.16" x2="179.77" y2="196.94"/><line class="cls-1" x1="164.16" y1="106.7" x2="177.28" y2="106.4"/><line class="cls-1" x1="177.28" y1="106.4" x2="180.67" y2="109.16"/><line class="cls-1" x1="176.16" y1="66.31" x2="175.99" y2="65.85"/><line class="cls-1" x1="177.28" y1="106.39" x2="177.28" y2="106.4"/><line class="cls-1" x1="175.99" y1="65.85" x2="171.1" y2="61.88"/><polyline class="cls-1" points="170.95 61.8 170.95 61.8 170.97 61.81 170.99 61.81 171.02 61.82 171.04 61.84 171.07 61.85 171.1 61.88"/><line class="cls-1" x1="160.91" y1="64" x2="159.56" y2="62.9"/><line class="cls-1" x1="160.88" y1="66.36" x2="160.91" y2="64"/><polyline class="cls-1" points="159.56 62.9 159.54 62.89 159.52 62.88 159.51 62.87 159.49 62.86 159.48 62.85 159.46 62.85 159.44 62.84 159.43 62.84 159.41 62.84 159.4 62.84"/><line class="cls-1" x1="158.31" y1="158.33" x2="154.97" y2="158.4"/><line class="cls-1" x1="69.27" y1="160.33" x2="60.16" y2="160.53"/><line class="cls-1" x1="153.47" y1="154.4" x2="151.03" y2="154.45"/><line class="cls-1" x1="68.66" y1="156.3" x2="60.2" y2="156.49"/><line class="cls-1" x1="153.47" y1="154.4" x2="158.31" y2="158.33"/><line class="cls-1" x1="44.14" y1="109.39" x2="47.53" y2="112.14"/><line class="cls-1" x1="47.53" y1="112.14" x2="46.63" y2="199.92"/><line class="cls-1" x1="46.63" y1="199.92" x2="33.99" y2="189.66"/><polyline class="cls-1" points="33.99 189.66 34.01 188.61 34.02 187.56 34.03 186.51 34.04 185.47 34.06 184.42 34.07 183.37 34.08 182.32 34.1 181.28 34.12 180.23 34.13 179.18 34.15 178.14 34.17 177.09 34.19 176.05 34.2 175.01 34.22 173.97 34.24 172.93 34.27 171.88 34.29 170.84 34.31 169.8 34.33 168.76 34.35 167.72 34.38 166.69 34.4 165.65 34.42 164.61 34.45 163.57 34.48 162.54 34.5 161.51 34.53 160.47 34.56 159.44 34.58 158.41 34.62 157.37 34.64 156.34 34.67 155.31 34.7 154.28 34.73 153.25 34.77 152.22 34.8 151.2 34.83 150.17 34.87 149.15 34.9 148.12 34.93 147.1 34.97 146.07 35 145.05 35.04 144.03 35.08 143.01 35.11 141.99 35.15 140.97 35.19 139.95 35.23 138.94 35.27 137.92 35.31 136.9 35.35 135.89 35.4 134.88 35.44 133.86 35.48 132.85 35.52 131.84 35.57 130.83 35.61 129.82 35.66 128.81 35.7 127.81 35.75 126.8 35.8 125.8 35.84 124.79 35.89 123.79 35.94 122.78 35.99 121.78 36.04 120.78 36.09 119.78 36.14 118.78 36.19 117.79 36.24 116.79 36.3 115.79 36.35 114.81 36.4 113.81 36.46 112.82 36.51 111.83 36.57 110.84 36.62 109.85 36.68 108.86 36.73 107.88 36.79 106.89 36.85 105.91 36.91 104.93 36.97 103.94 37.03 102.97 37.09 101.98 37.15 101 37.21 100.03 37.28 99.05 37.34 98.08 37.4 97.11 37.47 96.13 37.53 95.16 37.59 94.19 37.66 93.22 37.73 92.26 37.8 91.29 37.86 90.32 37.93 89.36 38 88.4 38.07 87.44 38.14 86.48 38.21 85.52 38.28 84.56 38.35 83.61 38.42 82.66 38.49 81.7 38.56 80.75 38.64 79.8 38.71 78.85 38.79 77.9 38.86 76.96 38.94 76.01 39.01 75.07 39.09 74.13 39.17 73.19 39.24 72.25 39.32 71.31 39.4 70.37 39.48 69.44"/><line class="cls-1" x1="39.48" y1="69.44" x2="44.51" y2="73.52"/><line class="cls-1" x1="56.94" y1="199.69" x2="57.27" y2="167.6"/><line class="cls-1" x1="56.94" y1="199.69" x2="46.63" y2="199.92"/><line class="cls-1" x1="60.66" y1="111.85" x2="47.53" y2="112.14"/><line class="cls-1" x1="57.27" y1="167.6" x2="60.09" y2="167.54"/><line class="cls-1" x1="60.66" y1="111.85" x2="60.08" y2="167.54"/><line class="cls-1" x1="57.26" y1="109.09" x2="44.14" y2="109.39"/><line class="cls-1" x1="57.26" y1="109.09" x2="60.66" y2="111.85"/><line class="cls-1" x1="57.68" y1="68.5" x2="57.68" y2="68.96"/><line class="cls-1" x1="57.26" y1="109.08" x2="57.26" y2="109.09"/><line class="cls-1" x1="46.26" y1="68.76" x2="41.37" y2="64.79"/><polyline class="cls-1" points="39.48 69.44 39.96 67.13 40.33 65.3"/><polyline class="cls-1" points="40.33 65.3 40.39 65.23 40.45 65.16 40.52 65.1 40.57 65.04 40.63 64.99 40.69 64.94 40.74 64.9 40.79 64.86 40.84 64.83 40.88 64.8 40.93 64.78 40.97 64.76 41.01 64.74 41.05 64.73 41.09 64.72 41.13 64.72 41.16 64.71 41.2 64.72 41.23 64.72 41.27 64.73 41.31 64.74 41.34 64.76 41.37 64.79"/><line class="cls-1" x1="52.79" y1="64.53" x2="57.68" y2="68.5"/><polyline class="cls-1" points="52.79 64.53 52.78 64.52 52.76 64.5 52.74 64.49 52.72 64.48 52.71 64.48 52.69 64.47 52.67 64.47 52.65 64.46 52.64 64.46 52.62 64.46 52.6 64.46"/><polyline class="cls-1" points="81.8 159.32 81.81 159.33 81.82 159.34 81.83 159.35 81.85 159.36 81.87 159.37 81.88 159.38 81.91 159.38 81.93 159.39 81.95 159.4 81.97 159.41 82 159.42 82.02 159.43 82.05 159.44 82.08 159.45 82.11 159.46 82.14 159.46 82.17 159.47 82.2 159.48 82.24 159.48 82.27 159.49 82.31 159.5 82.34 159.51 82.38 159.51 82.42 159.52 82.46 159.53 82.5 159.54 82.55 159.54 82.59 159.55 82.63 159.56 82.68 159.56 82.72 159.57 82.77 159.57 82.81 159.58 82.86 159.58 82.91 159.59 82.96 159.59 83.01 159.6 83.06 159.6 83.11 159.61 83.16 159.61 83.22 159.62 83.27 159.62 83.32 159.63 83.38 159.63 83.43 159.63 83.48 159.64 83.54 159.64 83.59 159.64 83.65 159.64 83.7 159.64 83.76 159.65 83.82 159.65 83.87 159.65 83.93 159.65 83.99 159.65 84.05 159.65 84.1 159.66 84.16 159.66 84.22 159.66 84.27 159.66 84.33 159.66 84.39 159.66 84.44 159.66 84.5 159.65 84.56 159.65 84.61 159.65"/><line class="cls-1" x1="81.77" y1="161.35" x2="81.79" y2="159.33"/><line class="cls-1" x1="73.18" y1="148.55" x2="138.06" y2="147.09"/><line class="cls-1" x1="85.66" y1="158.69" x2="73.18" y2="148.54"/><line class="cls-1" x1="138.06" y1="147.09" x2="151.03" y2="157.91"/><polyline class="cls-1" points="139.18 146.5 139.23 146.5 139.28 146.5 139.33 146.5 139.38 146.5 139.43 146.5 139.49 146.5 139.54 146.5 139.59 146.5 139.64 146.5 139.69 146.5 139.75 146.5 139.8 146.51 139.85 146.51 139.9 146.51 139.95 146.51 140 146.51 140.06 146.52 140.11 146.52 140.16 146.52 140.21 146.52 140.26 146.53 140.31 146.53 140.35 146.54 140.4 146.54 140.45 146.54 140.5 146.54 140.54 146.55 140.59 146.55 140.63 146.56 140.68 146.56 140.72 146.57 140.76 146.57 140.81 146.58 140.85 146.59 140.89 146.59 140.93 146.6 140.97 146.6 141.01 146.61 141.04 146.62 141.08 146.62 141.11 146.63 141.15 146.63 141.18 146.64 141.22 146.65 141.25 146.65 141.28 146.66 141.31 146.67 141.33 146.68 141.36 146.68 141.38 146.69 141.41 146.7 141.44 146.71 141.45 146.72 141.47 146.73 141.5 146.73 141.52 146.74 141.53 146.75 141.55 146.76 141.56 146.76 141.58 146.78 141.59 146.78 141.6 146.79"/><line class="cls-1" x1="141.6" y1="146.79" x2="154.61" y2="157.36"/><polyline class="cls-1" points="69.12 148.42 69.11 148.41 69.1 148.4 69.09 148.39 69.09 148.38 69.08 148.38 69.08 148.36 69.08 148.35 69.08 148.35 69.08 148.34 69.08 148.33 69.08 148.32 69.09 148.31 69.09 148.31 69.1 148.3 69.11 148.29 69.13 148.28 69.13 148.27 69.15 148.26 69.16 148.26 69.18 148.25 69.19 148.24 69.21 148.23 69.23 148.23 69.25 148.22 69.27 148.21 69.29 148.2 69.32 148.19 69.34 148.19 69.37 148.18 69.39 148.17 69.42 148.17 69.45 148.16 69.48 148.16 69.52 148.15 69.55 148.14 69.58 148.14 69.61 148.13 69.65 148.12 69.69 148.12 69.72 148.12 69.76 148.11 69.8 148.1 69.84 148.1 69.88 148.1 69.92 148.09 69.97 148.09 70.01 148.08 70.05 148.07 70.1 148.07 70.14 148.07 70.19 148.06 70.24 148.06 70.28 148.06 70.33 148.06 70.38 148.05 70.43 148.05 70.48 148.05 70.53 148.05 70.58 148.04 70.63 148.04 70.68 148.04 70.73 148.04"/><line class="cls-1" x1="70.73" y1="148.04" x2="139.18" y2="146.5"/><line class="cls-1" x1="84.61" y1="159.65" x2="153.06" y2="158.12"/><line class="cls-1" x1="69.12" y1="148.42" x2="68.79" y2="148.75"/><line class="cls-1" x1="68.79" y1="148.75" x2="81.8" y2="159.32"/><line class="cls-1" x1="68.76" y1="150.78" x2="68.79" y2="148.75"/><line class="cls-1" x1="86.57" y1="159.32" x2="75.16" y2="150.04"/><polyline class="cls-1" points="153.06 158.12 153.11 158.12 153.17 158.12 153.23 158.12 153.28 158.11 153.33 158.11 153.39 158.11 153.44 158.11 153.49 158.1 153.54 158.1 153.6 158.1 153.65 158.09 153.7 158.09 153.75 158.08 153.8 158.08 153.85 158.07 153.9 158.07 153.94 158.07 153.99 158.06 154.03 158.06 154.08 158.05 154.13 158.05 154.17 158.04 154.21 158.03 154.25 158.03 154.29 158.03 154.33 158.02 154.37 158.01 154.41 158 154.44 158 154.48 157.99 154.51 157.98 154.55 157.98 154.58 157.97 154.61 157.96 154.64 157.95 154.67 157.94 154.7 157.94 154.72 157.93 154.75 157.92 154.77 157.92 154.79 157.91 154.81 157.9 154.83 157.89 154.85 157.88 154.87 157.87 154.88 157.86 154.9 157.85 154.91 157.84 154.93 157.84 154.94 157.83 154.95 157.82 154.96 157.81 154.96 157.81 154.97 157.79 154.97 157.78 154.97 157.77 154.98 157.76 154.98 157.76 154.97 157.75 154.97 157.74 154.97 157.73 154.97 157.72 154.96 157.71 154.95 157.7 154.95 157.7"/><line class="cls-1" x1="146.2" y1="157.33" x2="137.03" y2="149.88"/><line class="cls-1" x1="135.9" y1="149.75" x2="76.44" y2="151.08"/><polyline class="cls-1" points="68.77 148.61 68.77 148.61 68.76 148.62 68.75 148.63 68.75 148.64 68.74 148.65 68.74 148.66 68.74 148.67 68.74 148.68 68.74 148.69 68.74 148.7 68.75 148.71 68.75 148.72 68.76 148.73 68.77 148.74 68.78 148.74 68.79 148.75"/><polyline class="cls-1" points="68.77 150.78 68.75 150.77 68.75 150.76 68.74 150.75 68.73 150.75 68.73 150.74 68.72 150.73 68.72 150.72 68.72 150.71 68.72 150.7"/><polyline class="cls-1" points="137.03 149.88 137.02 149.88 137.01 149.87 137 149.86 136.99 149.86 136.98 149.85 136.97 149.84 136.95 149.84 136.93 149.84 136.92 149.83 136.9 149.82 136.88 149.82 136.86 149.81 136.84 149.81 136.81 149.81 136.78 149.8 136.76 149.8 136.74 149.79 136.71 149.79 136.68 149.79 136.66 149.78 136.62 149.78 136.59 149.77 136.56 149.77 136.53 149.77 136.5 149.76 136.47 149.76 136.43 149.76 136.4 149.76 136.37 149.76 136.33 149.76 136.29 149.76 136.26 149.75 136.22 149.75 136.19 149.75 136.15 149.75 136.12 149.75 136.08 149.75 136.04 149.75 136.01 149.75 135.98 149.75 135.94 149.75 135.9 149.75"/><line class="cls-1" x1="82.04" y1="165.71" x2="82.08" y2="161.48"/><line class="cls-1" x1="69" y1="155.12" x2="69.04" y2="151.01"/><line class="cls-1" x1="141.39" y1="153.49" x2="141.39" y2="153.42"/><line class="cls-1" x1="141.98" y1="169.41" x2="141.86" y2="168.36"/><line class="cls-1" x1="141.98" y1="169.41" x2="96.03" y2="170.44"/><line class="cls-1" x1="95.91" y1="169.39" x2="96.03" y2="170.44"/><polyline class="cls-1" points="95.91 169.39 95.91 169.33 95.9 169.26 95.9 169.21 95.91 169.14 95.92 169.07 95.93 169.02 95.94 168.95 95.96 168.9 95.98 168.84 96.01 168.79 96.04 168.74 96.07 168.68 96.1 168.64 96.14 168.59 96.18 168.54 96.23 168.5 96.28 168.47 96.33 168.43 96.38 168.4 96.43 168.38 96.48 168.36 96.53 168.34 96.58 168.33 96.63 168.32 96.68 168.32 96.73 168.31"/><line class="cls-1" x1="140.8" y1="167.33" x2="96.73" y2="168.32"/><polyline class="cls-1" points="140.8 167.32 140.85 167.32 140.9 167.33 140.96 167.34 141.02 167.35 141.08 167.37 141.13 167.39 141.19 167.41 141.25 167.44 141.3 167.47 141.35 167.5 141.4 167.54 141.45 167.58 141.5 167.62 141.54 167.67 141.59 167.72 141.63 167.78 141.67 167.84 141.71 167.9 141.74 167.96 141.76 168.02 141.79 168.09 141.82 168.16 141.83 168.22 141.85 168.29 141.85 168.35"/><line class="cls-1" x1="96.03" y1="170.44" x2="96.02" y2="171.38"/><line class="cls-1" x1="96.02" y1="171.38" x2="95.65" y2="171.08"/><line class="cls-1" x1="95.65" y1="171.08" x2="95.65" y2="170.5"/><line class="cls-1" x1="141.97" y1="170.35" x2="141.98" y2="169.41"/><polyline class="cls-1" points="81.68 170.41 81.69 170.42 81.71 170.43 81.72 170.44 81.74 170.45 81.75 170.46 81.77 170.47 81.79 170.48 81.81 170.49 81.83 170.5 81.86 170.5 81.88 170.51 81.91 170.52 81.94 170.53 81.96 170.54 81.99 170.55 82.02 170.55 82.06 170.56 82.09 170.57 82.12 170.58 82.16 170.59 82.19 170.59 82.23 170.6 82.27 170.6 82.31 170.61 82.35 170.62 82.39 170.63 82.43 170.63 82.47 170.64 82.52 170.65 82.56 170.65 82.61 170.66 82.66 170.66 82.7 170.67 82.75 170.68 82.8 170.68 82.84 170.68 82.9 170.69 82.95 170.69 83 170.7 83.05 170.7 83.1 170.71 83.16 170.71 83.21 170.72 83.26 170.72 83.32 170.72 83.37 170.72 83.42 170.73 83.48 170.73 83.54 170.73 83.59 170.73 83.65 170.74 83.7 170.74 83.76 170.74 83.82 170.74 83.87 170.75 83.93 170.75 83.99 170.75 84.04 170.75 84.1 170.75 84.16 170.75 84.21 170.75 84.27 170.75 84.33 170.75 84.38 170.75 84.44 170.75 84.5 170.75"/><line class="cls-1" x1="81.68" y1="170.42" x2="81.73" y2="165.69"/><line class="cls-1" x1="80.93" y1="154.4" x2="139.04" y2="153.15"/><polyline class="cls-1" points="139.04 153.15 139.1 153.15 139.16 153.15 139.21 153.15 139.27 153.15 139.32 153.15 139.38 153.15 139.44 153.15 139.49 153.15 139.55 153.15 139.61 153.15 139.66 153.15 139.72 153.15 139.78 153.16 139.83 153.16 139.89 153.16 139.95 153.16 140 153.16 140.06 153.17 140.11 153.17 140.17 153.17 140.22 153.17 140.28 153.18 140.33 153.18 140.38 153.19 140.44 153.19 140.49 153.2 140.54 153.2 140.59 153.2 140.64 153.21 140.69 153.21 140.74 153.22 140.79 153.22 140.84 153.23 140.88 153.23 140.93 153.24 140.98 153.25 141.02 153.25 141.06 153.26 141.11 153.26 141.15 153.27 141.19 153.28 141.22 153.28"/><line class="cls-1" x1="154.63" y1="163.86" x2="154.87" y2="164.06"/><polyline class="cls-1" points="68.72 155.13 68.71 155.12 68.7 155.11 68.69 155.1 68.69 155.08 68.68 155.08 68.68 155.07 68.67 155.06 68.67 155.05 68.67 155.04 68.67 155.03 68.68 155.02 68.68 155.01 68.69 155 68.7 155 68.71 154.99 68.72 154.98 68.72 154.97 68.74 154.96 68.75 154.95 68.77 154.94 68.78 154.93 68.8 154.93 68.82 154.92 68.84 154.91 68.86 154.9 68.88 154.89 68.9 154.88 68.93 154.87 68.96 154.87 68.98 154.86 69 154.85"/><line class="cls-1" x1="84.49" y1="170.74" x2="95.75" y2="170.49"/><line class="cls-1" x1="141.98" y1="169.46" x2="152.94" y2="169.21"/><line class="cls-1" x1="68.67" y1="159.84" x2="68.72" y2="155.13"/><line class="cls-1" x1="80.95" y1="167.73" x2="80.93" y2="169.8"/><line class="cls-1" x1="78.31" y1="165.58" x2="80.95" y2="167.73"/><line class="cls-1" x1="78.29" y1="167.66" x2="78.31" y2="165.58"/><line class="cls-1" x1="72.09" y1="160.53" x2="72.07" y2="162.6"/><line class="cls-1" x1="69.45" y1="158.38" x2="72.09" y2="160.53"/><line class="cls-1" x1="69.43" y1="160.45" x2="69.45" y2="158.38"/><line class="cls-1" x1="68.67" y1="159.84" x2="69.43" y2="160.45"/><line class="cls-1" x1="72.07" y1="162.6" x2="78.29" y2="167.66"/><line class="cls-1" x1="80.93" y1="169.8" x2="81.68" y2="170.42"/><polyline class="cls-1" points="152.94 169.21 153 169.21 153.06 169.21 153.11 169.21 153.16 169.2 153.22 169.2 153.28 169.2 153.33 169.2 153.38 169.19 153.43 169.19 153.48 169.19 153.54 169.18 153.59 169.18 153.63 169.17 153.69 169.17 153.73 169.17 153.78 169.16 153.83 169.16 153.87 169.15 153.92 169.15 153.97 169.14 154.01 169.14 154.05 169.13 154.1 169.12 154.14 169.12 154.18 169.12 154.22 169.1 154.26 169.1 154.29 169.09 154.33 169.09 154.36 169.08 154.4 169.07 154.43 169.06 154.47 169.06 154.49 169.05 154.53 169.05 154.55 169.04 154.58 169.03 154.61 169.02 154.63 169.01 154.66 169.01 154.68 169 154.7 168.99 154.72 168.98 154.74 168.97 154.76 168.96 154.77 168.96 154.79 168.95 154.8 168.94 154.81 168.93 154.83 168.92 154.84 168.91 154.84 168.9 154.85 168.9 154.86 168.88 154.86 168.88 154.86 168.87 154.87 168.86 154.87 168.85"/><line class="cls-1" x1="80.79" y1="167.6" x2="78.29" y2="167.65"/><line class="cls-1" x1="71.94" y1="160.4" x2="69.43" y2="160.45"/><polyline class="cls-1" points="68.63 159.76 68.63 159.77 68.63 159.78 68.63 159.79 68.63 159.8 68.64 159.81 68.64 159.81 68.65 159.82 68.66 159.83 68.67 159.84"/><polyline class="cls-1" points="177.97 178.96 177.24 179.02 176.51 179.07 175.78 179.12 175.04 179.17 174.31 179.22 173.57 179.27 172.83 179.32 172.09 179.37 171.35 179.42 170.61 179.46 169.86 179.51 169.11 179.56 168.37 179.61 167.62 179.65 166.87 179.7 166.11 179.74 165.36 179.78 164.6 179.83 163.84 179.87 163.09 179.91 162.33 179.95 161.56 179.99 160.8 180.03 160.04 180.07 159.27 180.11 158.5 180.15 157.74 180.19 156.97 180.23 156.2 180.26 155.43 180.3 154.65 180.34 153.88 180.37 153.1 180.4 152.33 180.43 151.55 180.47 150.77 180.5 149.99 180.53 149.21 180.57 148.42 180.6 147.64 180.63 146.85 180.66 146.07 180.69 145.28 180.71 144.49 180.74 143.71 180.77 142.91 180.8 142.12 180.82 141.33 180.85 140.54 180.88 139.74 180.9 138.95 180.93 138.16 180.95 137.36 180.97 136.56 180.99 135.76 181.01 134.96 181.03 134.17 181.05 133.36 181.07 132.56 181.09 131.76 181.11 130.96 181.13 130.16 181.14 129.35 181.16 128.55 181.18 127.74 181.19 126.93 181.2 126.13 181.22 125.32 181.23 124.51 181.24 123.7 181.26 122.89 181.27 122.08 181.28 121.27 181.29 120.46 181.3 119.65 181.31 118.84 181.32 118.03 181.33 117.21 181.33 116.4 181.34 115.59 181.35 114.77 181.35 113.96 181.36 113.14 181.36 112.33 181.36 111.51 181.37 110.69 181.37 109.88 181.37 109.06 181.37 108.25 181.37 107.43 181.37 106.61 181.37 105.8 181.37 104.98 181.37 104.16 181.37 103.34 181.36 102.52 181.36 101.7 181.36 100.89 181.35 100.07 181.35 99.25 181.34 98.43 181.34 97.61 181.33 96.8 181.32 95.97 181.31 95.16 181.3 94.34 181.29 93.52 181.28 92.7 181.27 91.88 181.26 91.07 181.25 90.25 181.23 89.43 181.23 88.61 181.21 87.8 181.19 86.98 181.18 86.16 181.16 85.34 181.15 84.53 181.13 83.71 181.11 82.89 181.09"/><polyline class="cls-1" points="178.73 181.77 178.59 181.24 178.45 180.72 178.31 180.19 178.14 179.57 177.97 178.96"/><polyline class="cls-1" points="83.65 183.9 84.47 183.92 85.29 183.94 86.11 183.95 86.92 183.97 87.74 183.98 88.56 184 89.37 184.01 90.19 184.02 91.01 184.04 91.83 184.05 92.64 184.06 93.46 184.07 94.28 184.08 95.1 184.09 95.92 184.1 96.73 184.11 97.55 184.12 98.37 184.12 99.19 184.13 100 184.13 100.82 184.14 101.64 184.14 102.46 184.15 103.28 184.16 104.09 184.16 104.91 184.16 105.73 184.16 106.55 184.16 107.36 184.16 108.18 184.16 109 184.16 109.81 184.16 110.63 184.16 111.44 184.16 112.26 184.16 113.07 184.15 113.89 184.15 114.7 184.14 115.51 184.14 116.33 184.13 117.14 184.13 117.95 184.12 118.77 184.11 119.58 184.1 120.39 184.09 121.2 184.09 122.01 184.08 122.82 184.07 123.63 184.05 124.44 184.04 125.25 184.03 126.06 184.02 126.86 184 127.67 183.99 128.47 183.97 129.28 183.96 130.09 183.94 130.88 183.92 131.69 183.91 132.49 183.89 133.3 183.87 134.09 183.85 134.9 183.83 135.69 183.81 136.49 183.79 137.29 183.78 138.09 183.75 138.88 183.73 139.68 183.71 140.47 183.68 141.27 183.66 142.06 183.63 142.85 183.61 143.64 183.58 144.43 183.56 145.22 183.53 146.01 183.5 146.79 183.47 147.58 183.44 148.37 183.41 149.15 183.38 149.93 183.35 150.72 183.32 151.5 183.29 152.27 183.26 153.05 183.23 153.83 183.19 154.61 183.16 155.38 183.12 156.15 183.09 156.93 183.05 157.7 183.01 158.47 182.98 159.24 182.94 160 182.91 160.77 182.87 161.53 182.82 162.3 182.79 163.06 182.75 163.82 182.7 164.58 182.66 165.34 182.62 166.1 182.58 166.85 182.54 167.61 182.49 168.36 182.45 169.11 182.4 169.86 182.36 170.61 182.31 171.35 182.26 172.1 182.22 172.84 182.17 173.58 182.12 174.33 182.07 175.06 182.03 175.8 181.98 176.53 181.92 177.27 181.87 178 181.82 178.73 181.77"/><polyline class="cls-1" points="82.89 181.09 83.03 181.62 83.18 182.13 83.32 182.66 83.48 183.28 83.65 183.9"/><line class="cls-1" x1="178.42" y1="212.45" x2="178.73" y2="181.77"/><polyline class="cls-1" points="178.42 212.45 177.69 212.5 176.96 212.55 176.22 212.6 175.48 212.65 174.75 212.7 174.01 212.75 173.27 212.8 172.53 212.85 171.78 212.9 171.04 212.94 170.29 212.99 169.54 213.03 168.79 213.08 168.04 213.13 167.29 213.17 166.54 213.21 165.78 213.25 165.02 213.3 164.27 213.34 163.51 213.38 162.75 213.42 161.98 213.46 161.22 213.5 160.45 213.54 159.69 213.58 158.92 213.62 158.15 213.65 157.38 213.69 156.61 213.73 155.84 213.76 155.06 213.8 154.29 213.83 153.51 213.87 152.74 213.9 151.96 213.94 151.18 213.97 150.4 214 149.62 214.03 148.84 214.06 148.05 214.09 147.26 214.12 146.48 214.15 145.69 214.18 144.91 214.21 144.12 214.23 143.33 214.26 142.54 214.28 141.75 214.31 140.95 214.34 140.16 214.36 139.36 214.38 138.57 214.4 137.77 214.43 136.98 214.45 136.18 214.47 135.38 214.49 134.58 214.51 133.78 214.53 132.98 214.55 132.18 214.57 131.38 214.58 130.57 214.6 129.76 214.62 128.96 214.64 128.16 214.65 127.35 214.66 126.55 214.68 125.74 214.69 124.93 214.71 124.12 214.72 123.32 214.73 122.5 214.74 121.69 214.75 120.88 214.76 120.07 214.77 119.26 214.78 118.45 214.79 117.64 214.79 116.82 214.8 116.01 214.81 115.2 214.82 114.39 214.82 113.57 214.83 112.76 214.83 111.94 214.83 111.13 214.84 110.31 214.84 109.5 214.84 108.68 214.84 107.87 214.84 107.05 214.84 106.23 214.84 105.41 214.84 104.59 214.84 103.78 214.84 102.96 214.83 102.14 214.83 101.32 214.82 100.51 214.82 99.69 214.81 98.87 214.8 98.05 214.8 97.23 214.79 96.42 214.79 95.6 214.78 94.78 214.77 93.97 214.76 93.14 214.75 92.33 214.74 91.51 214.73 90.69 214.71 89.88 214.7 89.06 214.69 88.24 214.67 87.42 214.66 86.6 214.65 85.79 214.63 84.97 214.61 84.16 214.6 83.34 214.58"/><line class="cls-1" x1="83.34" y1="214.58" x2="83.65" y2="183.9"/><line class="cls-1" x1="82.89" y1="181.1" x2="82.11" y2="180.46"/><line class="cls-1" x1="107.9" y1="181.14" x2="106.4" y2="179.91"/><line class="cls-1" x1="152.9" y1="178.87" x2="154.41" y2="180.1"/><line class="cls-1" x1="177.19" y1="178.32" x2="177.97" y2="178.96"/><line class="cls-1" x1="83.34" y1="214.58" x2="81.77" y2="213.31"/><polyline class="cls-1" points="102.2 214.83 102.21 214.86 102.23 214.9 102.24 214.94 102.24 214.98 102.23 215.02 102.22 215.06 102.2 215.1 102.17 215.14 102.14 215.18 102.1 215.22 102.06 215.26 102 215.3 101.95 215.33 101.88 215.38 101.81 215.41 101.74 215.45 101.65 215.49 101.56 215.52 101.47 215.56 101.37 215.59 101.26 215.63 101.15 215.67 101.12 215.68"/><polyline class="cls-1" points="100.29 215.87 100.2 215.9 100.04 215.92 99.87 215.96 99.71 215.98 99.54 216.01 99.36 216.04 99.18 216.06 98.99 216.09 98.8 216.11 98.61 216.13 98.41 216.16 98.21 216.18 98 216.2 97.79 216.22 97.58 216.24 97.36 216.26 97.14 216.27 96.92 216.29 96.69 216.31 96.47 216.32 96.24 216.33 96 216.35 95.77 216.35 95.53 216.37 95.29 216.38 95.05 216.39 94.8 216.39 94.56 216.4 94.31 216.41 94.06 216.41 93.82 216.41 93.57 216.41 93.32 216.41 93.07 216.41 92.82 216.41 92.57 216.41 92.32 216.41 92.06 216.4 91.82 216.4 91.57 216.39 91.32 216.38 91.07 216.37 90.83 216.36 90.58 216.35 90.34 216.34 90.09 216.33 89.86 216.31 89.62 216.3 89.38 216.28 89.15 216.26 88.92 216.25 88.69 216.23 88.46 216.21 88.24 216.19 88.02 216.17 87.89 216.15"/><polyline class="cls-1" points="86.89 216.04 86.77 216.02 86.57 216 86.38 215.96 86.19 215.94 86.01 215.91 85.83 215.87 85.66 215.85 85.49 215.81 85.33 215.78 85.17 215.75 85.02 215.72 84.87 215.68 84.73 215.65 84.59 215.61 84.46 215.58 84.34 215.54 84.22 215.5 84.1 215.47 84 215.43 83.89 215.39 83.8 215.35 83.71 215.32 83.62 215.28 83.54 215.24 83.47 215.19 83.41 215.15 83.35 215.11 83.29 215.08 83.25 215.04 83.21 215 83.18 214.96 83.15 214.92 83.13 214.88 83.11 214.84 83.11 214.79 83.11 214.75 83.11 214.71 83.13 214.67 83.15 214.63 83.17 214.59 83.2 214.55 83.24 214.51 83.25 214.51"/><polyline class="cls-1" points="82.92 232.99 82.92 233.01 82.93 233.05 82.94 233.09 82.96 233.13 82.99 233.17 83.02 233.21 83.06 233.25 83.11 233.29 83.16 233.33 83.22 233.37 83.28 233.41 83.36 233.45 83.43 233.49 83.52 233.53 83.61 233.57 83.7 233.61 83.81 233.65 83.92 233.68 84.03 233.72 84.15 233.75 84.27 233.79 84.41 233.83 84.54 233.86 84.69 233.9 84.83 233.93 84.98 233.97 85.14 234 85.3 234.03 85.48 234.06 85.65 234.09 85.83 234.12 86.01 234.15 86.19 234.18 86.38 234.21 86.58 234.24 86.78 234.27 86.98 234.29 87.19 234.31 87.4 234.34 87.61 234.36 87.83 234.38 88.05 234.41 88.27 234.42 88.5 234.45 88.73 234.47 88.96 234.48 89.19 234.5 89.43 234.51 89.67 234.53 89.91 234.54 90.15 234.56 90.39 234.57 90.64 234.58 90.89 234.59 91.13 234.59 91.38 234.6 91.63 234.61 91.88 234.62 92.13 234.62 92.38 234.63 92.63 234.63 92.88 234.63 93.13 234.63 93.38 234.63 93.63 234.63 93.88 234.62 94.12 234.62 94.37 234.61 94.61 234.61 94.86 234.6 95.1 234.59 95.34 234.59 95.58 234.57 95.81 234.56 96.05 234.55 96.28 234.54 96.51 234.52 96.73 234.51 96.95 234.49 97.18 234.47 97.39 234.46 97.61 234.44 97.81 234.42 98.02 234.4 98.22 234.37 98.42 234.35 98.62 234.33 98.8 234.3 98.99 234.28 99.17 234.25 99.35 234.23 99.52 234.2 99.69 234.17 99.85 234.14 100.01 234.11 100.16 234.08 100.31 234.05 100.45 234.02 100.58 233.99 100.72 233.95 100.84 233.91 100.96 233.88 101.07 233.85 101.18 233.81 101.28 233.78 101.37 233.74 101.47 233.71 101.55 233.66 101.63 233.63 101.7 233.59 101.76 233.55 101.82 233.51 101.87 233.48 101.91 233.43 101.95 233.4 101.98 233.35 102.01 233.32 102.03 233.28 102.04 233.24 102.05 233.2 102.05 233.18"/><line class="cls-1" x1="87.05" y1="216.17" x2="87.07" y2="214.66"/><line class="cls-1" x1="87.05" y1="216.17" x2="85.14" y2="214.62"/><line class="cls-1" x1="101.12" y1="215.86" x2="101.13" y2="214.82"/><line class="cls-1" x1="101.12" y1="215.86" x2="87.05" y2="216.17"/><polyline class="cls-1" points="167.68 213.19 167.73 213.23 167.77 213.27 167.81 213.3 167.83 213.35 167.85 213.39 167.86 213.43 167.87 213.47 167.87 213.5 167.87 213.55 167.85 213.59 167.83 213.63 167.81 213.67 167.78 213.71 167.74 213.75 167.69 213.79 167.64 213.83 167.58 213.86 167.52 213.91 167.45 213.94 167.37 213.98 167.29 214.02 167.2 214.05 167.1 214.09 167 214.13 166.89 214.16 166.78 214.2 166.76 214.2"/><polyline class="cls-1" points="165.92 214.4 165.83 214.42 165.67 214.45 165.51 214.49 165.34 214.51 165.17 214.54 164.99 214.57 164.81 214.59 164.63 214.62 164.44 214.64 164.24 214.66 164.04 214.69 163.84 214.71 163.64 214.73 163.43 214.75 163.22 214.77 163 214.79 162.78 214.8 162.56 214.82 162.33 214.84 162.1 214.85 161.87 214.86 161.63 214.88 161.4 214.88 161.16 214.9 160.92 214.91 160.68 214.91 160.44 214.92 160.19 214.93 159.95 214.93 159.7 214.93 159.45 214.94 159.2 214.94 158.96 214.94 158.7 214.94 158.45 214.94 158.2 214.93 157.95 214.93 157.7 214.93 157.45 214.92 157.21 214.92 156.95 214.91 156.71 214.9 156.46 214.89 156.22 214.88 155.97 214.87 155.73 214.86 155.49 214.84 155.25 214.83 155.02 214.81 154.78 214.79 154.55 214.78 154.32 214.76 154.1 214.74 153.87 214.72 153.65 214.7 153.52 214.68"/><polyline class="cls-1" points="152.52 214.57 152.4 214.55 152.21 214.52 152.02 214.49 151.83 214.46 151.65 214.44 151.47 214.4 151.3 214.37 151.13 214.34 150.97 214.31 150.81 214.28 150.66 214.24 150.51 214.21 150.37 214.17 150.23 214.14 150.1 214.11 149.97 214.07 149.85 214.03 149.82 214.02"/><line class="cls-1" x1="167.64" y1="213.15" x2="167.68" y2="213.18"/><polyline class="cls-1" points="148.56 231.51 148.56 231.54 148.57 231.58 148.58 231.62 148.6 231.66 148.63 231.7 148.66 231.74 148.7 231.78 148.74 231.82 148.8 231.86 148.85 231.9 148.92 231.94 148.99 231.98 149.07 232.02 149.16 232.06 149.25 232.1 149.34 232.14 149.44 232.17 149.55 232.21 149.66 232.25 149.79 232.28 149.91 232.32 150.04 232.35 150.18 232.39 150.32 232.43 150.47 232.46 150.62 232.49 150.78 232.53 150.94 232.56 151.11 232.59 151.28 232.62 151.46 232.65 151.64 232.68 151.83 232.71 152.02 232.74 152.21 232.76 152.41 232.79 152.62 232.82 152.82 232.84 153.03 232.87 153.25 232.89 153.46 232.91 153.69 232.93 153.91 232.95 154.13 232.97 154.36 232.99 154.59 233.01 154.83 233.03 155.06 233.04 155.3 233.06 155.54 233.07 155.78 233.08 156.03 233.1 156.28 233.11 156.52 233.12 156.77 233.13 157.02 233.13 157.26 233.14 157.52 233.15 157.76 233.15 158.01 233.16 158.27 233.16 158.52 233.16 158.77 233.16 159.01 233.16 159.26 233.16 159.51 233.15 159.76 233.15 160.01 233.14 160.25 233.13 160.49 233.13 160.74 233.12 160.97 233.11 161.21 233.1 161.45 233.09 161.68 233.08 161.91 233.07 162.14 233.05 162.37 233.03 162.59 233.02 162.81 233 163.03 232.99 163.24 232.97 163.45 232.95 163.65 232.92 163.86 232.9 164.06 232.88 164.25 232.86 164.44 232.83 164.63 232.81 164.81 232.78 164.99 232.75 165.16 232.72 165.32 232.7 165.48 232.67 165.64 232.64 165.79 232.61 165.94 232.58 166.09 232.54 166.22 232.51 166.35 232.48 166.47 232.44 166.59 232.41 166.71 232.38 166.81 232.34 166.91 232.31 167.01 232.27 167.1 232.23 167.18 232.19 167.26 232.16 167.33 232.12 167.4 232.08 167.45 232.04 167.5 232 167.55 231.96 167.59 231.92 167.62 231.88 167.65 231.84 167.66 231.81 167.68 231.76 167.68 231.73 167.68 231.71"/><line class="cls-1" x1="166.75" y1="214.39" x2="166.77" y2="213.2"/><line class="cls-1" x1="166.75" y1="214.39" x2="152.69" y2="214.7"/><line class="cls-1" x1="152.69" y1="214.7" x2="152.7" y2="213.9"/><line class="cls-1" x1="152.69" y1="214.7" x2="151.76" y2="213.94"/><polyline class="cls-1" points="137.77 216.49 137.77 216.51 137.78 216.55 137.79 216.59 137.81 216.63 137.84 216.67 137.87 216.71 137.91 216.75 137.96 216.79 138.01 216.83 138.07 216.87 138.13 216.91 138.21 216.95 138.28 216.99 138.37 217.03 138.46 217.07 138.56 217.11 138.66 217.15 138.76 217.18 138.88 217.22 139 217.25 139.12 217.29 139.25 217.33 139.39 217.36 139.54 217.4 139.68 217.43 139.84 217.47 140 217.5 140.16 217.53 140.32 217.56 140.5 217.59 140.68 217.62 140.86 217.66 141.04 217.68 141.23 217.71 141.43 217.74 141.63 217.76 141.83 217.79 142.04 217.82 142.25 217.84 142.46 217.86 142.68 217.88 142.9 217.91 143.12 217.93 143.35 217.95 143.58 217.96 143.81 217.98 144.04 218 144.28 218.01 144.51 218.03 144.76 218.04 145 218.06 145.24 218.07 145.49 218.08 145.73 218.09 145.98 218.09 146.23 218.1 146.48 218.11 146.73 218.12 146.98 218.12 147.23 218.13 147.48 218.13 147.73 218.13 147.98 218.13 148.23 218.13 148.48 218.13 148.69 218.12"/><polyline class="cls-1" points="66.93 201.72 66.78 201.72 66.53 201.71 66.28 201.71 66.03 201.7 65.78 201.69 65.53 201.69 65.28 201.68 65.04 201.67 64.79 201.66 64.55 201.65 64.31 201.64 64.07 201.62 63.83 201.61 63.59 201.59 63.36 201.57 63.13 201.56 62.9 201.54 62.67 201.52 62.45 201.5 62.23 201.47 62.1 201.46"/><polyline class="cls-1" points="61.1 201.34 60.98 201.33 60.78 201.3 60.59 201.27 60.41 201.25 60.23 201.21 60.05 201.18 59.87 201.16 59.7 201.12 59.55 201.09 59.39 201.06 59.23 201.02 59.08 200.99 58.94 200.95 58.8 200.92 58.67 200.89 58.55 200.85 58.43 200.81 58.31 200.77 58.21 200.74 58.11 200.7 58.01 200.66 57.92 200.62 57.91 200.62"/><polyline class="cls-1" points="57.13 218.29 57.13 218.32 57.14 218.36 57.15 218.4 57.17 218.44 57.2 218.48 57.23 218.52 57.27 218.56 57.32 218.6 57.37 218.64 57.43 218.68 57.49 218.72 57.57 218.76 57.65 218.8 57.73 218.84 57.82 218.88 57.92 218.91 58.02 218.95 58.13 218.99 58.24 219.03 58.36 219.06 58.49 219.1 58.62 219.13 58.76 219.17 58.9 219.21 59.05 219.24 59.2 219.27 59.36 219.3 59.52 219.34 59.69 219.37 59.86 219.4 60.04 219.43 60.22 219.46 60.41 219.49 60.6 219.52 60.79 219.54 60.99 219.57 61.19 219.6 61.4 219.63 61.61 219.65 61.82 219.67 62.04 219.69 62.26 219.71 62.48 219.73 62.71 219.75 62.94 219.77 63.17 219.79 63.4 219.81 63.64 219.82 63.88 219.84 64.12 219.85 64.36 219.86 64.61 219.88 64.85 219.88 65.09 219.9 65.34 219.9 65.59 219.91 65.84 219.92 66.09 219.93 66.34 219.93 66.59 219.94 66.84 219.94 67.09 219.94 67.34 219.94 67.59 219.94 67.84 219.94 68.09 219.93 68.34 219.93 68.58 219.92 68.83 219.92 69.07 219.91 69.31 219.9 69.55 219.89 69.79 219.88 70.03 219.87 70.26 219.86 70.49 219.84 70.72 219.83 70.95 219.82 71.17 219.8 71.39 219.78 71.6 219.76 71.82 219.75 72.03 219.73 72.23 219.71 72.43 219.68 72.63 219.66 72.83 219.64 73.02 219.61 73.2 219.58 73.39 219.56 73.56 219.53 73.73 219.51 73.9 219.48 74.06 219.45 74.22 219.42 74.37 219.39 74.52 219.36 74.66 219.33 74.8 219.29 74.92 219.26 75.05 219.22 75.17 219.19 75.28 219.16 75.39 219.12 75.49 219.09 75.59 219.05 75.68 219.01 75.76 218.97 75.84 218.94 75.91 218.9 75.97 218.86 76.03 218.82 76.08 218.78 76.13 218.74 76.16 218.7 76.2 218.66 76.22 218.62 76.24 218.59 76.25 218.54 76.26 218.5 76.26 218.49"/><line class="cls-1" x1="66.5" y1="201.36" x2="61.26" y2="201.48"/><line class="cls-1" x1="61.27" y1="201.48" x2="61.27" y2="200.54"/><line class="cls-1" x1="61.27" y1="201.48" x2="60.14" y2="200.57"/><line class="cls-1" x1="67.28" y1="109.8" x2="67.22" y2="109.8"/><line class="cls-1" x1="95.76" y1="169.26" x2="95.91" y2="169.38"/><line class="cls-1" x1="96.73" y1="168.32" x2="96.71" y2="168.3"/><line class="cls-1" x1="140.78" y1="167.31" x2="140.8" y2="167.33"/></g></svg>