<svg xmlns="http://www.w3.org/2000/svg" viewBox="-16177.736 2667.41 59.404 113.049">
  <defs>
    <style>
      .cls-1 {
        fill: none;
        stroke: #dcdbdb;
      }
    </style>
  </defs>
  <g id="Group_225" data-name="Group 225" transform="translate(-16177.236 2667.91)">
    <path id="Path_137" data-name="Path 137" class="cls-1" d="M45.505,85.334l-.062-2.167,5.448-.31,6.871-1.238s.929-.557,1.052-.867c.433-.929-.8-20.924-.8-20.924l-.5-7.491-.31-3.714s-.186-2.6-.31-3.343c-.062-.743-.371-2.414-.5-3.157-.186-.99-.681-4.519-.681-4.519s-.867-3.343-1.114-4.333c-.248-1.052-.929-3.529-.929-3.529L52.5,25.967l-1.548-3.652-1.424-3.033-1.486-3.1L46.31,13.338s-1.176-2.1-1.61-2.786a15.218,15.218,0,0,0-2.29-2.971c-.186-.124-.433-.31-.619-.433A5.906,5.906,0,0,0,40.738,6.9s-.867-.371-1.176-.5a5.982,5.982,0,0,1-1.052-.371L36.962,5.1s-.867-.619-1.238-.867c-.248-.124-.681-.371-1.176-.619s-1.114-.5-1.424-.619a15.78,15.78,0,0,0-1.733-.5c-.681-.186-1.3-.31-1.733-.433-.433-.062-1.114-.186-1.8-.248s-1.362-.124-1.8-.186c-.743-.062-2.167-.062-3.4-.124-1.238,0-2.352-.062-2.352-.062l-1.3-.371L17.772.771S17.4.71,16.9.586C16.41.524,15.914.4,15.667.4a.372.372,0,0,0-.248.062c-.062,0-.186.062-.248.062a3.434,3.434,0,0,1-.5.371,1.343,1.343,0,0,0-.433.371,35.944,35.944,0,0,0-1.981,3.467c-.681,1.3-1.176,2.476-1.176,2.476a83.954,83.954,0,0,0-4.519,10.71c-.99,2.786-1.424,4.519-1.424,4.519s-.681,2.167-1.362,5.2-1.424,7-1.671,9.348c-.186,1.671-.433,3.776-.619,6.191-.186,2.352-.371,4.952-.433,7.429C1,52.4.933,55.929.81,59.024c-.062,3.1-.124,5.757-.124,5.757S.624,67.567.624,70.848C.562,74.129.562,77.844.5,79.7a2.776,2.776,0,0,0,.062.681A3.847,3.847,0,0,0,.748,81,.618.618,0,0,0,1,81.31c.124.124.248.186.31.248.124.062.31.124.433.186a1.457,1.457,0,0,0,.5.124,10.213,10.213,0,0,0,2.1.186H5.762l.248.124.248.124,4.148.124,4.148.124.31.433.31.433v1.733l.371,9.843-.186.557-.062,1.3-.062,1.3V103.1l.186.124.186.124.124.062.124.062h.5l.062.186.062.186.433-.062.433-.062.124.186.124.186-.124.557.062.743.124,1.114.124,1.114-.31.31-.31.31L16.9,110.1l-.248,1.857.31.248.31.248h14.8c1.61-.062,4.767-.186,7.552-.31s5.2-.248,5.2-.248l.248-.248.248-.248-.31-1.8-.31-1.8-.186-.186-.186-.248a.429.429,0,0,0,.186-.248,1.591,1.591,0,0,0,.124-.867,1.671,1.671,0,0,0-.248-.929,3.217,3.217,0,0,1-.186-.31l-.124-.619-.124-.619.124-.062.124-.062.5-.062.5-.062.062-.248.062-.248h.433c.248-.062.5-.062.5-.186a20.917,20.917,0,0,0,.124-4.4c-.062-1.919-.186-3.714-.186-3.714Z" transform="translate(-0.5 -0.4)"/>
    <path id="Path_138" data-name="Path 138" class="cls-1" d="M36,9.2c.619,0,3.652.248,3.652.248s2.971.5,3.1.5,2.229.5,2.229.5,1.733.619,2.29.867c.248.124.743.31.99.433.31.186.99.557,1.114.929.557,1.8-2.1,7.3-2.1,7.3l-4.952-.929-.99-.124-1.362.124-.5.124-1.114-3.529-.99-2.848-.8-2.29Z" transform="translate(-14.024 -3.752)"/>
    <path id="Path_139" data-name="Path 139" class="cls-1" d="M25.3,1.7l1.114,7.986.99,8.852.743,9.41.5,8.419.248,8.048.248,9.843.248,23.214a17.012,17.012,0,0,1-.124,2.043,1.381,1.381,0,0,1-1.176,1.114c-3.033.743-11.391,2.29-11.391,2.29" transform="translate(-6.671 -0.895)"/>
    <path id="Path_140" data-name="Path 140" class="cls-1" d="M34.591,25.3l1.548,7.057L37.81,40.4,38.986,50l.743,11.267.5,12.443.248,11.824a12.762,12.762,0,0,1-.186,3.591,1.44,1.44,0,0,1-.681.557c-3.9,1.3-16.4,2.352-16.4,2.352" transform="translate(-9.147 -9.886)"/>
    <path id="Path_141" data-name="Path 141" class="cls-1" d="M46.8,47.381,54.662,44.1h.5c1.8.186,7,1.362,7,1.362" transform="translate(-18.138 -17.047)"/>
    <path id="Path_142" data-name="Path 142" class="cls-1" d="M62.7,14.6a3.76,3.76,0,0,1,1.671,2.043c.248.8.681,2.352.929,3.157.248.99.681,2.91.929,3.9.124.433.433,1.671.433,1.671" transform="translate(-24.195 -5.809)"/>
    <path id="Path_143" data-name="Path 143" class="cls-1" d="M54.2,26.6l2.476.5,1.424.371,1.3.31s.8.186,1.052.248a5.609,5.609,0,0,1,1.362.681l.99.743L64.229,31l.743,1.176,1.052,1.61.619,1.424.8,2.043.371,1.362.867.124.371.929.186,1.238.186,1.486.186,1.671-.124,1.733-.248,1.362L69,48.391l-.124.743-.186.31v.186l-.31.124h-.31l-.31,1.671-.371,1.362-.557,1.61-.619,1.8-.743,1.919-1.052,2.043-.99,1.61-.99,1.548-1.114,1.362-1.362,1.362S58.6,67.148,58.1,67.457a8.314,8.314,0,0,1-1.671.8c-.186.062-.867.31-.867.31" transform="translate(-20.957 -10.381)"/>
    <line id="Line_30" data-name="Line 30" class="cls-1" x2="8.543" y2="0.805" transform="translate(30.829 57.881)"/>
    <path id="Path_144" data-name="Path 144" class="cls-1" d="M54.4,94.3s.681,2.29.99,2.971c.371.99,1.733,3.838,1.733,3.838s.5.99.681,1.238a8.846,8.846,0,0,0,.867,1.238c.619.31.8.124.929,0a2.135,2.135,0,0,0,.557-.743,13.241,13.241,0,0,0,.433-1.548s.31-2.476.371-3.343a6.853,6.853,0,0,0,.124-2.229c-.062-.248-.681-.8-.681-.8" transform="translate(-21.033 -36.171)"/>
    <path id="Path_145" data-name="Path 145" class="cls-1" d="M61.762,59.1,61.7,61.2v1.981l.062,2.043s.062,1.61.124,2.1c.062.433.186,1.3.31,1.8a9.05,9.05,0,0,0,.31,1.238c.062.124.186.5.31.557a.578.578,0,0,0,.557,0,2.743,2.743,0,0,0,.557-.433l1.3-1.3,1.548-1.733L68.262,65.6l1.362-2.229.743-1.424.5-1.3.929.186" transform="translate(-23.814 -22.762)"/>
    <path id="Path_146" data-name="Path 146" class="cls-1" d="M76.2,48.8c0,1.424-.557,2.1-1.424,2.1-.929,0-1.857-.99-2.1-2.414s.681-2.786,1.61-2.786C75.089,45.762,76.2,47.371,76.2,48.8Z" transform="translate(-27.979 -17.657)"/>
    <line id="Line_31" data-name="Line 31" class="cls-1" y1="0.619" x2="3.219" transform="translate(42.715 28.105)"/>
    <line id="Line_32" data-name="Line 32" class="cls-1" x1="2.167" y2="1.238" transform="translate(45.067 33.181)"/>
    <path id="Path_147" data-name="Path 147" class="cls-1" d="M70.415,52.472c-2.786,2.662-4.333-.248-4.643-2.167-.186-1.424.124-3.9,2.29-3.529" transform="translate(-25.348 -18.053)"/>
    <path id="Path_148" data-name="Path 148" class="cls-1" d="M64.319,46.964c0,.248-.124.433-.31.433s-.31-.186-.31-.433,0-.371.186-.371A.371.371,0,0,1,64.319,46.964Z" transform="translate(-24.576 -17.992)"/>
    <ellipse id="Ellipse_12" data-name="Ellipse 12" class="cls-1" cx="0.495" cy="0.681" rx="0.495" ry="0.681" transform="translate(39 29.838)"/>
    <ellipse id="Ellipse_13" data-name="Ellipse 13" class="cls-1" cx="0.31" cy="0.433" rx="0.31" ry="0.433" transform="translate(39.248 31.386)"/>
    <ellipse id="Ellipse_14" data-name="Ellipse 14" class="cls-1" cx="0.31" cy="0.495" rx="0.31" ry="0.495" transform="translate(46.119 34.419)"/>
    <path id="Path_149" data-name="Path 149" class="cls-1" d="M73.633,44.033c0,.248.062.433-.062.433a.467.467,0,0,1-.371-.433c0-.248.062-.433.186-.433C73.571,43.6,73.633,43.786,73.633,44.033Z" transform="translate(-28.195 -16.857)"/>
    <path id="Path_150" data-name="Path 150" class="cls-1" d="M55.943,61.2l-.619,3.157-.31,1.548-.8,2.352-.557,1.671-.743,1.548-.681,1.362-.743,1.3-.743,1.114-.743.8" transform="translate(-19.357 -23.562)"/>
    <path id="Path_151" data-name="Path 151" class="cls-1" d="M48.2,58.481l7.181-2.6,1.238.062,9.348,1.548.186-.124.186-3.467" transform="translate(-18.671 -20.781)"/>
    <path id="Path_152" data-name="Path 152" class="cls-1" d="M61.7,44.4l.186.743.124.681.062.929.062,1.114v2.724l-.062.557-.186.619-.124.5v.062" transform="translate(-23.814 -17.162)"/>
    <path id="Path_153" data-name="Path 153" class="cls-1" d="M75.8,44.262l.433-.062.433.062.186.186v.619l-.124.31" transform="translate(-29.185 -17.085)"/>
    <path id="Path_154" data-name="Path 154" class="cls-1" d="M53.719,35.819l1.114.062v-.8l-.124-.248-.433-.124-.371.062-.248.248.062.8-.31.062h-.557s-.31-1.671-.557-2.91a17.074,17.074,0,0,0-1.486-3.591,18.96,18.96,0,0,0-1.3-1.8,14.681,14.681,0,0,0-1.8-1.548c-.433-.31-1.857-1.052-1.857-1.052s-.557,0-.557-.186" transform="translate(-17.566 -9.695)"/>
    <path id="Path_155" data-name="Path 155" class="cls-1" d="M24.2,136.752l7.119-.681,12.319-.371,7.243.186s1.176.062,1.548.124c.31.062,1.052.124,1.362.186a2.278,2.278,0,0,1,.619.248" transform="translate(-9.528 -51.942)"/>
    <path id="Path_156" data-name="Path 156" class="cls-1" d="M5.413,45.2s-.5,3.281-.557,4.4c-.124,1.486-.062,4.519,0,6,.062,1.548.248,4.7.31,6.314.062,1.052.062,3.4.186,4.457.124,1.548.371,4.333.557,5.881.124,1.176.433,3.529.557,4.643.186,1.362.433,4.024.681,5.386.186,1.362.619,4.024.929,5.386.062.31.248,1.3.433,1.362,0,0,1.424-7.986,1.857-10.338.371-2.1.8-6.129,1.052-8.233.31-2.724.929-7.924,1.176-10.648.186-2.229.371-6.624.557-8.791.124-2.167.619-8.6.619-8.6s.371-3.343.371-4.519" transform="translate(-2.132 -14.686)"/>
    <path id="Path_157" data-name="Path 157" class="cls-1" d="M70.2,87.143s6.252-1.176,8.048-1.61a2.424,2.424,0,0,0,.619-.5,3.659,3.659,0,0,0,.371-.867,11.9,11.9,0,0,0,0-2.1C79.057,76,78,57.862,78,57.862s-.5-7.243-.8-9.657c-.248-2.043-1.3-8.048-1.3-8.048l-1.114-6.376-1.548-5.014-1.61-4.519-2.1-5.138L67.048,14.1,65.5,11" transform="translate(-25.262 -4.438)"/>
    <path id="Path_158" data-name="Path 158" class="cls-1" d="M53.3,164.171s2.291-.99,2.971-1.3c.619-.248,1.548-.681,2.167-.929.5-.186,1.671-.619,2.167-.743s1.548-.248,2.043-.31a4.426,4.426,0,0,1,1.548.186,1.244,1.244,0,0,1,.5.248,2.934,2.934,0,0,1,.619.619,5.448,5.448,0,0,1,.31.929c.062.186.186,1.052.186,1.052" transform="translate(-20.614 -61.532)"/>
    <path id="Path_159" data-name="Path 159" class="cls-1" d="M59.183,59.1a5.79,5.79,0,0,0,0,1.052c0,.062.186.186.248.248h.248c.124,0,.371,0,.433-.062a.411.411,0,0,0,.31-.248c.124-.124.062-.681.062-.681V59.1" transform="translate(-22.845 -22.762)"/>
    <path id="Path_160" data-name="Path 160" class="cls-1" d="M7.6,80.01l.99-.371L9.767,79.2s1.176-.433,1.548-.557a5.2,5.2,0,0,1,.743-.248h.186a1.537,1.537,0,0,1,.062.557v1.3" transform="translate(-3.205 -30.114)"/>
    <path id="Path_161" data-name="Path 161" class="cls-1" d="M61.11,38.2s-.31-2.662-.31-3.529a19.611,19.611,0,0,1,.124-2.724c.062-.31.31-1.052.619-1.052a1.236,1.236,0,0,1,.557.124c.248.124.619.248.8.371a6.087,6.087,0,0,1,.929.743c.433.371,1.238,1.176,1.671,1.548.433.433,1.362,1.3,1.8,1.8.433.557,1.671,2.414,1.671,2.414l1.362,2.29" transform="translate(-23.471 -12.019)"/>
    <path id="Path_162" data-name="Path 162" class="cls-1" d="M66.423,39.5c0,1.424-.371,1.919-.557,1.919-.681-.062-2.229-1.486-2.848-2.971-.557-1.362-.371-2.476.929-2.352C65,36.156,66.423,38.013,66.423,39.5Z" transform="translate(-24.203 -13.994)"/>
    <path id="Path_163" data-name="Path 163" class="cls-1" d="M67.6,86.933c.867.248,1.114,2.724,1.238,3.59.124.743.433,2.724.5,3.467s.371,2.538.433,3.281c.062.8.124,2.414.186,3.219.062.681.124,1.857.186,2.538.062.743.124,1.424.124,2.167.062.557.124,2.352.124,2.352v1.238a7.172,7.172,0,0,0,1.176,0,2.6,2.6,0,0,0,.867-.557,1.248,1.248,0,0,0,.186-.681,36.041,36.041,0,0,0,0-5.262l-.248-11.143L71.5,73.5" transform="translate(-26.062 -28.247)"/>
  </g>
</svg>
